<svg xmlns="http://www.w3.org/2000/svg" xmlns:xlink="http://www.w3.org/1999/xlink" viewBox="0 0 24 16.8" width="24" height="16.8"><path fill="#d0103a" d="M0 0h24v16.8H0z"/><path fill="#fedf00" d="M0 0h16.32v16.8H0z"/><path fill="#0018a8" d="M0 0h7.68v16.8H0z"/><path fill="#c7b37f" d="M11.265 4.524c0.289 0 0.408 0.248 0.697 0.248 0.179 0 0.283 -0.058 0.438 -0.146 0.108 -0.061 0.178 -0.094 0.302 -0.094 0.128 0 0.206 0.039 0.271 0.148 0.037 0.062 0.068 0.183 0.051 0.253a1.498 1.498 0 0 1 -0.102 0.311c-0.025 0.059 -0.049 0.094 -0.049 0.157 0 0.154 0.209 0.206 0.351 0.209 0.031 0 0.291 0.005 0.451 -0.157 -0.087 -0.004 -0.184 -0.071 -0.184 -0.158 0 -0.098 0.069 -0.165 0.163 -0.193 0.018 -0.005 0.048 0.011 0.064 0.002 0.023 -0.012 0.012 -0.038 0.032 -0.054 0.047 -0.037 0.077 -0.061 0.137 -0.061 0.039 0 0.062 0.006 0.093 0.028 0.017 0.012 0.023 0.026 0.043 0.026 0.043 0 0.064 -0.027 0.107 -0.027 0.035 0 0.056 0.005 0.086 0.02 0.026 0.013 0.025 0.056 0.054 0.056 0.014 0 0.091 -0.031 0.131 -0.031 0.083 0 0.127 0.03 0.18 0.093 0.014 0.017 0.024 0.051 0.038 0.051a0.233 0.233 0 0 1 0.18 0.11c0.01 0.016 0.025 0.054 0.042 0.061 0.02 0.008 0.037 0.006 0.064 0.023 0.06 0.039 0.107 0.112 0.105 0.182 -0.001 0.024 -0.012 0.057 -0.018 0.08 -0.071 0.247 -0.239 0.325 -0.408 0.537 -0.072 0.09 -0.129 0.162 -0.129 0.278 0 0.028 0.035 0.079 0.05 0.102 -0.009 -0.054 0.016 -0.121 0.073 -0.124 0.079 -0.004 0.139 0.056 0.15 0.134 0.002 0.018 -0.005 0.05 -0.012 0.068a0.358 0.358 0 0 1 0.149 -0.053c0.028 -0.003 0.044 -0.004 0.072 -0.003 0.126 0.003 0.265 0.074 0.349 0.146 0.258 0.219 0.289 0.54 0.275 0.629 -0.031 0.198 -0.012 0.556 -0.517 0.699 0.094 0.039 0.157 0.11 0.157 0.196 0 0.094 -0.072 0.175 -0.166 0.175 -0.054 0 -0.091 -0.013 -0.129 -0.051 -0.105 0.105 -0.126 0.212 -0.126 0.361 0 0.089 0.017 0.142 0.054 0.222 0.04 0.085 0.068 0.135 0.139 0.197 0.038 -0.057 0.078 -0.098 0.146 -0.098 0.066 0 0.122 0.021 0.149 0.081 0.008 0.018 0.001 0.033 0.01 0.051 0.012 0.023 0.032 0.028 0.044 0.051 0.019 0.035 0 0.065 0.017 0.102 0.011 0.024 0.034 0.027 0.044 0.051 0.016 0.036 0.02 0.061 0.02 0.102 0 0.113 -0.102 0.193 -0.215 0.193 -0.034 0 -0.053 -0.014 -0.086 -0.01 0.064 0.065 0.114 0.093 0.163 0.17 0.071 0.112 0.089 0.191 0.105 0.322 0.003 0.024 0.003 0.039 0.003 0.065 0 0.169 -0.026 0.27 -0.102 0.42 -0.072 0.145 -0.134 0.225 -0.265 0.319 -0.204 0.147 -0.353 0.189 -0.6 0.237a2.789 2.789 0 0 1 -0.41 0.054c-0.206 0.013 -0.324 0.013 -0.529 0.027 -0.27 0.018 -0.457 0.056 -0.648 0.248 0.09 0.066 0.153 0.131 0.153 0.242 0 0.115 -0.071 0.197 -0.18 0.233 -0.025 0.008 -0.044 0.001 -0.068 0.013 -0.029 0.015 -0.027 0.048 -0.054 0.065 -0.048 0.03 -0.085 0.037 -0.143 0.037 -0.101 0 -0.17 -0.024 -0.241 -0.095 -0.083 0.069 -0.11 0.131 -0.204 0.183 -0.03 0.017 -0.046 0.041 -0.082 0.041 -0.055 0 -0.081 -0.035 -0.125 -0.068a0.861 0.861 0 0 1 -0.166 -0.153c-0.084 0.05 -0.136 0.091 -0.234 0.091 -0.06 0 -0.098 -0.008 -0.149 -0.041 -0.027 -0.016 -0.031 -0.041 -0.058 -0.058 -0.028 -0.017 -0.051 -0.011 -0.082 -0.024 -0.113 -0.049 -0.186 -0.133 -0.186 -0.256 0 -0.108 0.068 -0.177 0.166 -0.222 -0.188 -0.188 -0.373 -0.22 -0.638 -0.238 -0.205 -0.013 -0.322 -0.013 -0.526 -0.027 -0.162 -0.011 -0.253 -0.028 -0.414 -0.054 -0.122 -0.02 -0.194 -0.026 -0.305 -0.078 -0.384 -0.179 -0.629 -0.424 -0.678 -0.845 -0.004 -0.036 -0.003 -0.057 -0.003 -0.093 0 -0.219 0.086 -0.352 0.241 -0.507 -0.04 -0.01 -0.066 0.004 -0.105 -0.01 -0.097 -0.035 -0.166 -0.102 -0.166 -0.205 0 -0.038 0.002 -0.064 0.02 -0.097 0.013 -0.023 0.038 -0.028 0.044 -0.054 0.008 -0.035 -0.002 -0.059 0.014 -0.092 0.011 -0.022 0.03 -0.026 0.041 -0.048 0.033 -0.07 0.075 -0.126 0.152 -0.126 0.066 0 0.109 0.035 0.143 0.092 0.065 -0.03 0.082 -0.078 0.119 -0.139 0.06 -0.101 0.088 -0.172 0.088 -0.29 0 -0.082 -0.008 -0.131 -0.034 -0.209 -0.019 -0.056 -0.026 -0.094 -0.068 -0.136a0.164 0.164 0 0 1 -0.129 0.051c-0.108 0 -0.19 -0.092 -0.19 -0.2a0.18 0.18 0 0 1 0.112 -0.173c-0.058 -0.05 -0.108 -0.054 -0.173 -0.095 -0.098 -0.062 -0.132 -0.127 -0.197 -0.224 -0.042 -0.063 -0.053 -0.107 -0.074 -0.18 -0.026 -0.087 -0.041 -0.139 -0.041 -0.23 0 -0.024 0 -0.038 0.003 -0.061 0.024 -0.184 0.057 -0.3 0.173 -0.444 0.069 -0.086 0.115 -0.139 0.217 -0.183 0.086 -0.037 0.138 -0.065 0.232 -0.065 0.029 0 0.045 0 0.073 0.004 0.043 0.006 0.071 0.009 0.109 0.03 0.014 0.008 0.041 0.032 0.041 0.015 0 -0.019 -0.01 -0.03 -0.01 -0.049 0 -0.078 0.056 -0.149 0.134 -0.149 0.056 0 0.079 0.05 0.107 0.098a0.146 0.146 0 0 0 0.027 -0.085c0 -0.129 -0.069 -0.195 -0.149 -0.295 -0.175 -0.218 -0.394 -0.321 -0.394 -0.6 0 -0.084 0.04 -0.14 0.112 -0.183 0.021 -0.012 0.049 0 0.069 -0.013 0.018 -0.011 0.015 -0.034 0.026 -0.051 0.018 -0.027 0.033 -0.039 0.057 -0.06 0.04 -0.035 0.075 -0.024 0.119 -0.055 0.022 -0.015 0.027 -0.035 0.044 -0.055 0.049 -0.06 0.093 -0.088 0.171 -0.088 0.039 0 0.061 0 0.097 0.015 0.012 0.005 0.035 0.023 0.038 0.02a0.178 0.178 0 0 1 0.054 -0.044c0.033 -0.016 0.046 -0.022 0.082 -0.022 0.042 0 0.069 0.023 0.11 0.023 0.015 0 0.019 -0.015 0.031 -0.023 0.037 -0.025 0.058 -0.039 0.103 -0.039 0.043 0 0.067 0.014 0.103 0.037 0.034 0.022 0.039 0.051 0.074 0.071 0.02 0.012 0.036 0.006 0.058 0.014 0.097 0.032 0.17 0.096 0.17 0.198 0 0.055 -0.013 0.095 -0.054 0.131 -0.033 0.029 -0.064 0.024 -0.105 0.037 0.135 0.108 0.252 0.134 0.425 0.134 0.158 0 0.35 -0.064 0.35 -0.222 0 -0.073 -0.04 -0.113 -0.069 -0.18 -0.052 -0.12 -0.08 -0.191 -0.08 -0.321 0 -0.103 0.011 -0.166 0.072 -0.25 0.062 -0.086 0.138 -0.107 0.244 -0.107z"/><g fill="none" stroke="#703d29"><path stroke-width="0.024960000000000003" stroke-linejoin="round" d="M10.214 5.363a0.133 0.133 0 0 0 0.092 0.091 0.142 0.142 0 0 0 0.144 -0.052c0.036 -0.047 0.034 -0.105 0.02 -0.151 -0.009 -0.03 -0.033 -0.059 -0.065 -0.083l-0.191 0.193v0.002z"/><path stroke-width="0.024960000000000003" stroke-linecap="round" d="M15.039 8.255c-0.045 -0.108 -0.161 -0.06 -0.168 0 -0.017 0.138 0.104 0.179 0.19 0.157a0.149 0.149 0 0 0 0.094 -0.073 0.181 0.181 0 0 0 0.014 -0.14 0.184 0.184 0 0 0 -0.032 -0.062 0.186 0.186 0 0 0 -0.048 -0.045c-0.033 -0.021 -0.069 -0.023 -0.125 -0.023 -0.209 0 -0.392 0.247 -0.453 0.504 -0.02 0.084 -0.048 0.273 -0.01 0.451 0.041 0.19 0.124 0.322 0.22 0.422 0.052 0.054 0.123 0.102 0.216 0.154 0.028 0.016 0.104 0.049 0.156 0.064 0.054 0.015 0.103 0.013 0.148 0.004 0.124 -0.027 0.181 -0.142 0.119 -0.26 -0.051 -0.096 -0.202 -0.149 -0.272 -0.026a0.122 0.122 0 0 0 -0.015 0.058c0 0.033 0.014 0.072 0.037 0.087 0.054 0.034 0.14 0.024 0.136 -0.071"/><path stroke-width="0.03072" d="M14.393 9.674c0.042 -0.049 0.138 -0.123 0.248 -0.137 0.112 -0.014 0.209 0.019 0.308 0.072 0.193 0.104 0.301 0.216 0.373 0.423 0.018 0.053 0.034 0.132 0.031 0.216 -0.003 0.134 -0.037 0.282 -0.074 0.353 -0.032 0.062 -0.116 0.336 -0.575 0.525 -0.268 0.11 -0.679 0.136 -0.963 0.147 -0.39 0.016 -0.75 0.03 -0.959 0.288"/><g stroke-width="1.12"><path d="M14.49 10.115c-0.011 -0.041 -0.001 -0.08 0.032 -0.125 0.044 -0.06 0.136 -0.08 0.22 -0.034 0.028 0.015 0.063 0.036 0.095 0.078 0.012 0.016 0.032 0.042 0.043 0.06 0.025 0.044 0.036 0.079 0.041 0.094 0.092 0.262 -0.054 0.546 -0.246 0.66 -0.149 0.089 -0.327 0.128 -0.539 0.153 -0.096 0.011 -0.15 0.011 -0.246 0.015 -0.078 0.004 -0.144 0.002 -0.207 0.002 -0.052 -0.001 -0.101 0 -0.151 -0.002a2.662 2.662 0 0 0 -0.271 0.004c-0.109 0.008 -0.191 0.011 -0.283 0.026 -0.06 0.01 -0.131 0.02 -0.205 0.036 -0.022 0.005 -0.045 0.009 -0.067 0.016l-0.045 0.014c-0.134 0.041 -0.264 0.09 -0.366 0.156 -0.032 0.02 -0.067 0.041 -0.093 0.065 -0.016 0.015 -0.035 0.03 -0.051 0.046 -0.072 0.071 -0.145 0.147 -0.162 0.251 -0.003 0.019 -0.003 0.039 -0.003 0.06 0 0.067 0.055 0.159 0.202 0.189m0.207 -6.379c0.031 0.056 0.048 0.09 0.03 0.147 -0.02 0.066 -0.066 0.105 -0.132 0.105 -0.149 0 -0.237 -0.177 -0.17 -0.289 0.119 -0.199 0.349 -0.087 0.562 0.012 -0.01 -0.051 -0.028 -0.068 -0.026 -0.131 0.005 -0.158 0.122 -0.229 0.168 -0.374 0.028 -0.087 0.039 -0.162 -0.025 -0.224 -0.055 -0.054 -0.12 -0.053 -0.192 -0.025 -0.144 0.057 -0.318 0.219 -0.623 0.224 -0.305 -0.005 -0.48 -0.167 -0.625 -0.224 -0.072 -0.028 -0.137 -0.029 -0.192 0.025 -0.063 0.061 -0.052 0.137 -0.024 0.223 0.047 0.146 0.163 0.217 0.168 0.374 0.002 0.064 -0.016 0.08 -0.026 0.132 0.213 -0.099 0.451 -0.221 0.562 -0.012 0.062 0.117 -0.02 0.289 -0.17 0.289 -0.066 0 -0.112 -0.042 -0.132 -0.105 -0.018 -0.056 0 -0.104 0.03 -0.147"/><path stroke-linecap="round" d="M11.796 5.395c0.058 0.044 0.098 0.098 0.092 0.186 -0.007 0.096 -0.031 0.119 -0.105 0.17m0.09 -0.142c-0.003 0.058 -0.027 0.095 -0.085 0.119"/></g><path fill="#c7b37f" d="m10.378 5.148 0.026 0.019 0.028 0.03 0.019 0.037 0.01 0.032 0.002 0.041 -0.002 0.028 -0.009 0.032 -0.019 0.022 -0.022 0.024 -0.032 0.017 -0.041 0.009 -0.036 0.006 -0.037 -0.017 -0.034 -0.024 -0.021 -0.03 -0.015 -0.037v-0.015l0.183 -0.174z" stroke="none" stroke-width="0.024"/><path stroke-width="0.024960000000000003" stroke-linecap="round" d="M10.32 5.294c-0.012 -0.062 -0.084 -0.075 -0.112 -0.038 -0.043 0.056 -0.012 0.15 0.076 0.178a0.142 0.142 0 0 0 0.144 -0.052c0.036 -0.047 0.034 -0.105 0.02 -0.151 -0.009 -0.03 -0.033 -0.056 -0.065 -0.08 -0.102 -0.078 -0.267 -0.06 -0.321 0.071 -0.07 0.168 0.082 0.295 0.222 0.39 0.176 0.12 0.377 0.142 0.528 0.14 0.343 -0.004 0.605 -0.168 0.774 -0.261 0.04 -0.022 0.08 -0.017 0.101 0.007a0.075 0.075 0 0 1 -0.01 0.103"/><path stroke-width="0.02544" d="m9.302 9.944 -0.077 0.028 -0.078 0.06 -0.034 0.047 -0.043 0.074 -0.018 0.056 -0.015 0.069 -0.007 0.052m0.713 -0.379 -0.006 0.067 -0.011 0.047 -0.034 0.08 -0.052 0.069 -0.056 0.045 -0.041 0.02 -0.058 0.013"/><path stroke-width="0.0288" d="M11.99 11.742c-0.014 0.062 -0.072 0.133 -0.199 0.159l-0.024 0.005"/><path stroke-width="0.03264" d="M15.158 9.758c0.08 0.075 0.137 0.166 0.18 0.29 0.018 0.053 0.033 0.132 0.031 0.217 -0.003 0.134 -0.037 0.282 -0.074 0.353 -0.032 0.062 -0.116 0.336 -0.575 0.525 -0.268 0.11 -0.679 0.136 -0.963 0.147 -0.385 0.015 -0.74 0.03 -0.95 0.276"/><path stroke-width="0.022320000000000003" d="M14.531 10.007c0.029 -0.039 0.132 -0.088 0.216 -0.042a0.232 0.232 0 0 1 0.089 0.078"/><path stroke-width="0.03264" d="M15.06 9.667c0.019 0.007 0.037 0.014 0.054 0.018 0.054 0.015 0.104 0.017 0.148 0.003 0.106 -0.032 0.174 -0.131 0.119 -0.26a0.212 0.212 0 0 0 -0.065 -0.08"/><path stroke-width="0.024960000000000003" stroke-linecap="round" d="M9.011 6.891c-0.071 0.044 -0.124 0.054 -0.18 0.119 -0.055 0.109 -0.077 0.168 -0.098 0.256m1.729 -1.938c0 0.065 -0.048 0.105 -0.112 0.119"/><path d="M14.892 6.601c0.177 -0.004 0.693 0.135 0.696 0.741 0.004 0.598 -0.369 0.696 -0.518 0.736"/><path stroke-width="0.024960000000000003" d="M14.938 6.601c0.306 -0.013 0.622 0.212 0.635 0.774 0.011 0.439 -0.3 0.638 -0.45 0.678"/><g stroke-width=".88"><path d="m14.768 8.716 0.005 -0.06 0.02 -0.096 0.028 -0.074 0.032 -0.061 0.041 -0.049m0.292 -0.127 -0.005 0.059 -0.017 0.04 -0.026 0.038 -0.03 0.022 -0.046 0.017 -0.04 0.003 -0.03 -0.005m-0.537 -1.98 0.013 -0.063 0.028 -0.059 0.036 -0.059 0.062 -0.08 0.049 -0.055 0.08 -0.081 0.069 -0.07 0.044 -0.05 0.058 -0.07 0.052 -0.078 0.031 -0.063 0.017 -0.082 0.005 -0.102 -0.009 -0.03m-0.46 4.806 0.061 -0.012 0.046 -0.024 0.025 -0.025 0.018 -0.029 0.012 -0.047 0.001 -0.033m-5.934 -0.456 0.045 0.004 0.058 -0.005 0.058 -0.02m0.187 -1.371 -0.007 0.052 -0.012 0.023 -0.018 0.022 -0.024 0.019 -0.027 0.012 -0.036 0.006 -0.024 0.002m0.371 -0.586 -0.013 0.081 -0.016 0.036 -0.033 0.045 -0.044 0.034 -0.045 0.022 -0.087 0.022m0.574 -1.491 -0.017 0.048 -0.02 0.036 -0.028 0.039 -0.039 0.036 -0.047 0.022 -0.039 0.009 -0.024 -0.002m0.014 -0.232 0.001 0.037"/></g><g stroke-width=".99"><path stroke-linecap="round" d="M9.536 7.802a0.257 0.257 0 0 1 -0.078 0.049m5.645 1.681c0.003 0.003 0.014 0.005 0.018 0.007 0.053 0.032 0.158 -0.008 0.127 -0.09"/><path d="M14.917 8.385c0.038 0.049 0.109 0.062 0.165 0.048a0.149 0.149 0 0 0 0.094 -0.073 0.181 0.181 0 0 0 0.014 -0.14 0.184 0.184 0 0 0 -0.032 -0.062 0.254 0.254 0 0 0 -0.051 -0.054c-0.004 -0.003 -0.008 -0.006 -0.012 -0.009m0.241 1.276a0.147 0.147 0 0 0 -0.046 -0.137c-0.01 -0.009 -0.02 -0.023 -0.033 -0.03m0.018 0.018c-0.002 -0.07 -0.059 -0.12 -0.13 -0.132m-0.156 0.106c-0.016 -0.013 -0.034 -0.024 -0.049 -0.041 -0.092 -0.096 -0.161 -0.238 -0.162 -0.4 -0.001 -0.155 0.061 -0.313 0.134 -0.375m-2.119 3.174 0.067 -0.062 0.047 -0.035 0.088 -0.054 0.082 -0.039 0.058 -0.015 0.116 -0.026 0.134 -0.02m-1.107 0.726c-0.048 0.075 -0.164 0.186 -0.286 0.231 -0.121 -0.045 -0.237 -0.157 -0.286 -0.231"/><path stroke-linecap="round" d="M11.791 11.874a0.372 0.372 0 0 1 -0.083 0.155"/><path d="m11.803 11.795 -0.017 0.082m-0.088 0.157 -0.036 0.036 -0.063 0.035 -0.073 0.023m-0.212 -6.669c0.009 -0.028 0.018 -0.05 0.017 -0.096 -0.005 -0.158 -0.121 -0.229 -0.168 -0.375 -0.028 -0.087 -0.039 -0.162 0.024 -0.224 0.055 -0.054 0.12 -0.053 0.192 -0.024 0.144 0.057 0.319 0.219 0.625 0.224 -0.306 -0.005 -0.48 -0.167 -0.625 -0.224 -0.072 -0.028 -0.142 -0.037 -0.198 0.017 -0.063 0.062 -0.046 0.144 -0.018 0.231 0.047 0.145 0.157 0.217 0.162 0.374 0.001 0.047 -0.011 0.068 -0.02 0.096m0.698 -0.506c0.3 -0.016 0.558 -0.218 0.641 -0.234 0.074 -0.014 0.115 -0.008 0.17 0.041 -0.054 -0.049 -0.116 -0.048 -0.186 -0.02 -0.144 0.057 -0.318 0.219 -0.623 0.224M14.99 9.197a0.583 0.583 0 0 1 -0.233 -0.462c-0.001 -0.156 0.062 -0.314 0.134 -0.375m-2.623 3.659c-0.048 0.075 -0.164 0.186 -0.286 0.231 -0.121 -0.045 -0.237 -0.157 -0.285 -0.231"/><path stroke-linecap="round" d="m11.5 5.538 0.087 -0.048c0.04 -0.022 0.087 -0.017 0.108 0.008 0.023 0.028 0.026 0.076 -0.006 0.106"/><path d="M11.052 5.748c0.206 -0.043 0.374 -0.135 0.501 -0.206m1.21 6.157c0.017 0.012 0.028 0.036 0.028 0.036 0.005 0.011 0.011 0.022 0.012 0.032 0.01 0.057 -0.028 0.093 -0.074 0.098a0.126 0.126 0 0 1 -0.132 -0.076m-1.557 -6.051c0.206 -0.043 0.374 -0.135 0.501 -0.206m3.659 4.009c-0.039 0.015 -0.061 0.013 -0.109 -0.009 -0.02 -0.009 -0.043 -0.023 -0.07 -0.038 -0.096 -0.054 -0.209 -0.14 -0.315 -0.339a0.706 0.706 0 0 1 -0.083 -0.293c-0.003 -0.072 0.005 -0.147 0.023 -0.233 0.03 -0.142 0.065 -0.22 0.153 -0.34 0.043 -0.059 0.08 -0.095 0.161 -0.097m-5.389 -1.474a0.267 0.267 0 0 1 0.099 0.215c0 0.116 -0.097 0.306 -0.336 0.373 -0.092 0.026 -0.182 0.005 -0.237 -0.028"/><path d="M9.611 7.111c0.043 0.03 0.06 0.063 0.06 0.122 0 0.04 -0.026 0.092 -0.07 0.141 -0.072 0.08 -0.194 0.149 -0.33 0.15a0.384 0.384 0 0 1 -0.226 -0.066 0.34 0.34 0 0 1 -0.144 -0.202"/><path d="M9.607 7.361c0.049 0.045 0.064 0.101 0.064 0.171 0 0.103 -0.042 0.182 -0.138 0.266 -0.022 0.019 -0.046 0.036 -0.073 0.052m4.854 -0.828v0.132m-0.011 -0.165v0.186m0.011 -0.59v0.245m-0.011 -0.299v0.334m-0.071 3.073a0.702 0.702 0 0 1 -0.157 0.213c-0.074 0.073 -0.125 0.107 -0.218 0.153 -0.09 0.045 -0.147 0.06 -0.246 0.082a1.259 1.259 0 0 1 -0.258 0.032c-0.093 0.004 -0.145 0 -0.238 -0.006 -0.099 -0.007 -0.154 -0.021 -0.253 -0.03 -0.082 -0.007 -0.128 -0.014 -0.21 -0.013 -0.084 0 -0.132 0.001 -0.216 0.015a0.826 0.826 0 0 0 -0.194 0.054c-0.101 0.041 -0.215 0.112 -0.239 0.144 -0.024 -0.032 -0.138 -0.103 -0.239 -0.144a0.826 0.826 0 0 0 -0.194 -0.054 1.074 1.074 0 0 0 -0.216 -0.015c-0.082 0 -0.128 0.006 -0.21 0.013 -0.099 0.009 -0.154 0.023 -0.253 0.03 -0.093 0.006 -0.145 0.01 -0.238 0.006a1.254 1.254 0 0 1 -0.258 -0.032c-0.099 -0.022 -0.156 -0.037 -0.246 -0.082 -0.093 -0.047 -0.144 -0.08 -0.218 -0.153l-0.023 -0.023m1.581 2.001 0.067 -0.008m1.135 -0.088 0.068 -0.006 0.065 -0.026 0.045 -0.027 0.061 -0.073 0.013 -0.027 0.01 -0.063 0.003 -0.029m1.759 -5.126c0.029 -0.099 -0.006 -0.204 -0.102 -0.201m-4.948 1.746a0.307 0.307 0 0 1 -0.135 0.175m0.137 -1.752c-0.024 0.069 -0.068 0.119 -0.137 0.15 -0.069 0.031 -0.15 0.002 -0.192 -0.031"/><path stroke-linecap="round" d="M9.143 6.989c0.058 0.03 0.116 -0.014 0.104 -0.089a0.107 0.107 0 0 0 -0.094 -0.082"/><path d="M9.381 10.149c0.012 0.012 0.015 0.027 0.032 0.03 0.025 0.005 0.045 0.014 0.07 -0.019 0.031 -0.042 0.014 -0.106 -0.018 -0.146 -0.035 -0.043 -0.135 -0.082 -0.219 -0.035a0.278 0.278 0 0 0 -0.095 0.078c-0.012 0.016 -0.032 0.042 -0.043 0.06 -0.025 0.043 -0.036 0.079 -0.041 0.093 -0.077 0.218 0.014 0.448 0.156 0.588"/><path stroke-linecap="round" d="M12.758 11.694a0.221 0.221 0 0 1 0.024 0.03c0.005 0.011 0.009 0.022 0.01 0.032 0.01 0.057 -0.028 0.093 -0.074 0.098 -0.064 0.007 -0.106 -0.03 -0.126 -0.076"/><path d="M14.604 5.203c0.126 0.015 0.235 0.135 0.235 0.264 0 0.166 -0.056 0.228 -0.143 0.347 -0.094 0.127 -0.399 0.36 -0.399 0.625 0 0.161 0.045 0.263 0.161 0.315 0.074 0.034 0.162 -0.003 0.202 -0.038 0.097 -0.088 0.058 -0.242 -0.043 -0.26 -0.123 -0.022 -0.146 0.172 -0.026 0.159m0.668 2.59a0.138 0.138 0 0 0 -0.136 -0.117 0.139 0.139 0 0 0 -0.138 0.141c0 0.038 0.015 0.073 0.039 0.098"/><path d="M14.395 6.717a0.267 0.267 0 0 0 -0.099 0.215c0 0.116 0.097 0.306 0.336 0.373 0.091 0.026 0.179 0.023 0.234 -0.01m-5.851 -0.388c-0.057 0.019 -0.128 0.055 -0.181 0.13 -0.045 0.063 -0.071 0.151 -0.086 0.228 -0.007 0.034 -0.016 0.14 0.006 0.25a0.591 0.591 0 0 0 0.086 0.211 0.298 0.298 0 0 0 0.039 0.047c0.012 0.012 0.03 0.023 0.042 0.033m2.4 3.452c0.182 0.081 0.315 0.141 0.428 0.319 0.036 0.056 0.045 0.136 0.045 0.183 0 0.101 -0.041 0.215 -0.125 0.286 -0.078 0.066 -0.155 0.086 -0.25 0.076 -0.072 -0.007 -0.14 -0.06 -0.151 -0.097M9.525 7.805c0.103 0.08 0.145 0.158 0.145 0.282 0 0.142 -0.069 0.229 -0.149 0.28"/><path stroke-linecap="round" d="M9.432 8.266c0.153 0.19 0.234 0.303 0.239 0.53 0.004 0.213 -0.063 0.358 -0.19 0.511"/><path d="M12.366 5.75a0.154 0.154 0 0 0 0.06 -0.084c0.018 -0.056 0.018 -0.103 -0.012 -0.146 0.037 0.048 0.04 0.089 0.03 0.147 -0.007 0.037 -0.03 0.057 -0.06 0.084m1.93 3.231v0.606h0.002c0 0 0 0.057 -0.005 0.093 -0.003 0.024 -0.006 0.045 -0.01 0.065"/><path d="M14.303 8.923v0.653h0.002c0 0 0 0.058 -0.005 0.094a1.031 1.031 0 0 1 -0.018 0.099m0.021 -1.61v0.545m0.011 -0.502v0.443m0 -1.007v0.332m-0.011 -0.371v0.409m0.011 -0.71v0.129m-0.011 -0.155v0.187m-0.069 2.445 -0.013 0.026a0.701 0.701 0 0 1 -0.157 0.213c-0.074 0.073 -0.125 0.106 -0.218 0.153 -0.09 0.046 -0.147 0.06 -0.246 0.082a1.259 1.259 0 0 1 -0.258 0.032c-0.093 0.004 -0.145 0 -0.238 -0.006 -0.099 -0.007 -0.154 -0.021 -0.253 -0.029 -0.082 -0.007 -0.128 -0.014 -0.21 -0.014 -0.084 0 -0.132 0.001 -0.216 0.016a0.826 0.826 0 0 0 -0.194 0.054c-0.101 0.041 -0.215 0.112 -0.239 0.144 -0.024 -0.032 -0.138 -0.103 -0.239 -0.144a0.826 0.826 0 0 0 -0.194 -0.054 1.074 1.074 0 0 0 -0.216 -0.016c-0.082 0 -0.128 0.006 -0.21 0.014 -0.099 0.009 -0.154 0.022 -0.253 0.029 -0.093 0.006 -0.145 0.01 -0.238 0.006a1.254 1.254 0 0 1 -0.258 -0.032c-0.099 -0.022 -0.156 -0.037 -0.246 -0.082 -0.093 -0.047 -0.144 -0.08 -0.218 -0.153 -0.039 -0.038 -0.067 -0.07 -0.093 -0.105m-0.075 -0.12c0.016 0.119 -0.034 0.235 -0.084 0.289 -0.032 0.034 -0.101 0.098 -0.187 0.099 -0.142 0.002 -0.184 -0.096 -0.193 -0.119"/><path d="M9.586 9.857c0.026 0.026 0.05 0.058 0.07 0.095 0.035 0.067 0.024 0.18 -0.004 0.232 -0.003 0.006 -0.007 0.012 -0.012 0.018m-0.759 0.676c0.084 0.089 0.212 0.185 0.408 0.265 0.268 0.11 0.679 0.136 0.963 0.147 0.377 0.015 0.725 0.03 0.936 0.264m0.651 -0.153c0.062 0.061 0.126 0.127 0.153 0.211m-0.276 0.429c-0.008 0.009 -0.017 0.017 -0.026 0.025 -0.078 0.066 -0.155 0.086 -0.25 0.077 -0.072 -0.007 -0.142 -0.061 -0.161 -0.097m-0.201 -0.109c0.003 0.005 0.007 0.01 0.011 0.014a0.285 0.285 0 0 0 0.191 0.092m1.008 -0.003c-0.048 0.075 -0.164 0.186 -0.286 0.231 -0.121 -0.045 -0.237 -0.157 -0.286 -0.231l-0.011 -0.018m0.584 0.017c0.009 0.01 0.018 0.018 0.028 0.026 0.078 0.066 0.155 0.086 0.25 0.077 0.072 -0.007 0.13 -0.055 0.153 -0.097 0 0 0.013 -0.014 0.017 -0.027"/><path d="m12.714 12.024 -0.028 0.045 -0.042 0.035 -0.064 0.027 -0.058 0.002"/><path d="M12.865 11.597a0.288 0.288 0 0 1 0.086 0.109c0.012 0.028 0.017 0.058 0.019 0.089a0.22 0.22 0 0 1 -0.054 0.156 0.282 0.282 0 0 1 -0.22 0.093m0.007 -0.011c-0.076 0.003 -0.144 -0.03 -0.194 -0.081m2.388 -2.545a0.89 0.89 0 0 1 -0.18 -0.242 0.705 0.705 0 0 1 -0.083 -0.293c-0.002 -0.072 0.005 -0.147 0.023 -0.233 0.03 -0.142 0.083 -0.252 0.153 -0.34 0.024 -0.03 0.052 -0.067 0.078 -0.084m-0.052 -2.843c0.095 0.007 0.183 0.11 0.182 0.21 -0.002 0.146 -0.05 0.206 -0.165 0.349 -0.099 0.123 -0.396 0.34 -0.388 0.547 0.001 0.037 0.021 0.075 0.043 0.105m-0.119 0.13c0.021 0.021 0.047 0.038 0.077 0.052 0.054 0.024 0.115 0.012 0.16 -0.011m-0.794 -1.621c0.032 0.022 0.064 0.055 0.082 0.097 0.07 0.168 -0.082 0.295 -0.222 0.39a0.8 0.8 0 0 1 -0.311 0.123"/><path d="M13.673 5.458c-0.034 0 -0.074 -0.01 -0.118 -0.056a0.126 0.126 0 0 1 -0.026 -0.037m-0.557 0.184a0.173 0.173 0 0 1 -0.049 -0.036c-0.033 -0.037 -0.055 -0.088 -0.03 -0.165 0.024 -0.071 0.138 -0.27 0.143 -0.408 0.009 -0.211 -0.072 -0.336 -0.199 -0.384"/><path stroke-linecap="round" d="m13.024 4.892 -0.005 0.079 -0.022 0.081 -0.041 0.111 -0.031 0.071 -0.033 0.071 -0.017 0.05 -0.006 0.036 0.005 0.035m1.426 4.735c0.006 0.016 0.022 0.031 0.022 0.031 0.024 0.041 0.119 0.112 0.204 0.113 0.142 0.002 0.175 -0.097 0.179 -0.119 0.018 -0.108 -0.019 -0.138 -0.074 -0.168 0 0 -0.033 -0.017 -0.072 -0.01"/><path d="M8.886 9.688c-0.05 0.013 -0.097 0.013 -0.138 0.001 -0.106 -0.032 -0.192 -0.133 -0.148 -0.26m0.502 -1.193c0.011 0.011 0.014 0.026 0.016 0.04 0.017 0.138 -0.104 0.178 -0.19 0.155a0.211 0.211 0 0 1 -0.113 -0.085 0.176 0.176 0 0 1 -0.023 -0.086m0.827 -0.888c0.022 0.02 0.036 0.042 0.046 0.066m-0.042 -0.319a0.144 0.144 0 0 1 0.044 0.049"/><path stroke-linecap="round" d="M9.67 7.295a0.317 0.317 0 0 1 -0.058 0.089c-0.072 0.08 -0.194 0.149 -0.329 0.15a0.384 0.384 0 0 1 -0.226 -0.066c-0.082 -0.055 -0.135 -0.133 -0.153 -0.209"/><path d="M9.579 6.723a0.291 0.291 0 0 1 0.089 0.127"/><path stroke-linecap="round" d="M9.669 7.021c-0.033 0.11 -0.132 0.246 -0.323 0.294 -0.091 0.023 -0.209 -0.006 -0.249 -0.04"/><path d="M9.001 6.996c0.01 0.099 0.076 0.173 0.202 0.175 0.176 0.004 0.284 -0.254 0.127 -0.434"/><path stroke-linecap="round" d="M8.604 7.857a0.611 0.611 0 0 0 0.087 0.087 0.63 0.63 0 0 0 0.222 0.124m0.198 0.018c0.158 -0.019 0.246 -0.136 0.229 -0.274 -0.013 -0.105 -0.109 -0.185 -0.175 -0.19"/><path d="M9.369 6.454c0.068 -0.002 0.107 0.06 0.107 0.112"/><path stroke-linecap="round" d="M9.353 5.515a0.431 0.431 0 0 0 0.189 0.218m5.407 1.161c0.065 0.088 0.022 0.262 -0.153 0.266a0.194 0.194 0 0 1 -0.167 -0.094"/><path d="M14.314 5.742v0.593"/><path stroke-linecap="round" d="M9.141 6.987c0.054 0.039 0.124 -0.027 0.097 -0.097 -0.018 -0.047 -0.085 -0.098 -0.179 -0.035 -0.103 0.07 -0.075 0.291 0.123 0.295 0.176 0.003 0.284 -0.254 0.127 -0.434 -0.151 -0.174 -0.426 -0.133 -0.605 0.01 -0.076 0.061 -0.22 0.22 -0.265 0.436 -0.014 0.067 -0.023 0.123 -0.022 0.19 0 0.044 0.005 0.094 0.018 0.157a0.782 0.782 0 0 0 0.115 0.282c0.017 0.025 0.032 0.045 0.049 0.061 0.031 0.031 0.04 0.047 0.071 0.073 0.101 0.084 0.232 0.15 0.392 0.144 0.175 -0.007 0.276 -0.131 0.258 -0.276 -0.018 -0.141 -0.161 -0.211 -0.254 -0.146 -0.063 0.045 -0.086 0.184 0.026 0.216 0.063 0.019 0.119 -0.062 0.074 -0.108M14.026 5.056c0.101 -0.055 0.179 -0.045 0.237 0.035 0.063 0.087 0.072 0.203 0.058 0.271 -0.02 0.101 -0.049 0.143 -0.13 0.216"/><path stroke-linecap="round" d="M14.27 5.101c0.116 -0.077 0.241 -0.044 0.31 0.058 0.05 0.075 0.063 0.137 0.06 0.229 -0.006 0.158 -0.105 0.284 -0.215 0.345"/><path d="M14.815 5.368c0.095 0.007 0.172 0.094 0.172 0.194 0 0.144 -0.04 0.206 -0.155 0.349 -0.099 0.123 -0.396 0.34 -0.388 0.547 0.003 0.078 0.069 0.152 0.126 0.156"/><path stroke-linecap="round" d="M14.826 6.987c-0.054 0.039 -0.123 -0.024 -0.093 -0.091 0.021 -0.047 0.082 -0.105 0.175 -0.041 0.103 0.07 0.075 0.291 -0.123 0.295 -0.176 0.003 -0.296 -0.247 -0.127 -0.434 0.154 -0.17 0.44 -0.137 0.619 0.005 0.076 0.061 0.23 0.227 0.263 0.446 0.04 0.264 0.035 0.59 -0.239 0.79 -0.11 0.08 -0.262 0.117 -0.396 0.111 -0.175 -0.008 -0.276 -0.131 -0.257 -0.276 0.018 -0.141 0.154 -0.201 0.254 -0.146 0.104 0.058 0.085 0.203 -0.026 0.216 -0.066 0.008 -0.12 -0.061 -0.074 -0.108"/><path d="M14.733 6.896c0.029 -0.131 0.141 -0.143 0.232 -0.142 0.247 0.003 0.418 0.297 0.421 0.58 0.004 0.358 -0.152 0.569 -0.414 0.58 -0.068 0.003 -0.184 -0.029 -0.186 -0.112"/><path stroke-linecap="square" d="M14.885 6.838c0.261 0.058 0.352 0.293 0.352 0.517 0 0.183 -0.018 0.432 -0.374 0.52"/><path d="M15.315 9.35a0.146 0.146 0 1 0 -0.235 0.088"/><path stroke-linecap="round" d="M14.792 9.128c0.049 0.073 0.108 0.154 0.234 0.222m-0.047 0.396c-0.123 -0.081 -0.356 -0.186 -0.567 -0.082 -0.078 0.039 -0.131 0.086 -0.16 0.164 -0.053 0.14 0.006 0.295 0.067 0.359 0.032 0.034 0.101 0.098 0.186 0.099 0.142 0.002 0.176 -0.097 0.179 -0.119 0.017 -0.103 -0.043 -0.144 -0.075 -0.155 -0.024 -0.008 -0.103 -0.006 -0.12 0.05 -0.006 0.019 -0.007 0.051 0.008 0.075"/><path stroke-linecap="round" d="M12.768 11.716c0.039 0.08 -0.005 0.12 -0.06 0.127 -0.08 0.009 -0.123 -0.054 -0.129 -0.112a0.165 0.165 0 0 1 0.164 -0.177c0.085 0.001 0.154 0.056 0.186 0.131 0.012 0.027 0.017 0.058 0.019 0.089a0.219 0.219 0 0 1 -0.054 0.155c-0.048 0.056 -0.123 0.09 -0.202 0.093 -0.158 0.006 -0.282 -0.142 -0.282 -0.293 0 -0.289 0.429 -0.447 0.599 -0.488 0.209 -0.05 0.336 -0.069 0.672 -0.087 0.134 -0.007 0.233 -0.004 0.381 -0.019 0.132 -0.014 0.202 -0.02 0.338 -0.052 0.17 -0.04 0.328 -0.11 0.47 -0.239 0.109 -0.099 0.171 -0.17 0.222 -0.306 0.044 -0.118 0.064 -0.35 -0.047 -0.522 -0.098 -0.152 -0.233 -0.231 -0.388 -0.253 -0.14 -0.02 -0.263 0.04 -0.336 0.179 -0.035 0.067 -0.024 0.18 0.004 0.231 0.024 0.045 0.094 0.111 0.179 0.112 0.142 0.002 0.176 -0.097 0.179 -0.12 0.017 -0.102 -0.043 -0.144 -0.075 -0.155 -0.024 -0.009 -0.104 -0.006 -0.12 0.05 -0.006 0.018 -0.006 0.051 0.008 0.075"/><path stroke-linecap="round" d="M12.646 11.256c-0.182 0.081 -0.315 0.141 -0.428 0.319 -0.036 0.056 -0.045 0.136 -0.045 0.183 0 0.101 0.041 0.215 0.125 0.286 0.078 0.066 0.155 0.086 0.25 0.076 0.072 -0.007 0.14 -0.06 0.151 -0.097"/><path d="M14.442 7.805c-0.085 0.028 -0.145 0.158 -0.145 0.282 0 0.142 0.069 0.229 0.149 0.28"/><path stroke-linecap="round" d="M14.535 8.266c-0.153 0.19 -0.234 0.303 -0.239 0.53 -0.004 0.213 0.063 0.358 0.19 0.511"/><path d="m13.719 5.102 0.013 -0.019c0.063 -0.093 0.175 -0.118 0.258 -0.056 0.099 0.074 0.124 0.202 0.097 0.336 -0.017 0.084 -0.074 0.154 -0.152 0.204"/><path stroke-linecap="round" d="M9.941 5.056c-0.097 -0.045 -0.177 -0.036 -0.237 0.035 -0.069 0.082 -0.072 0.203 -0.058 0.271 0.02 0.101 0.049 0.143 0.13 0.216"/><path d="M9.697 5.101c-0.116 -0.077 -0.241 -0.044 -0.31 0.058 -0.05 0.075 -0.063 0.137 -0.06 0.229 0.006 0.158 0.105 0.284 0.215 0.345"/><path d="M9.363 5.203c-0.126 0.015 -0.226 0.122 -0.226 0.25 0 0.166 0.041 0.233 0.134 0.36 0.094 0.127 0.399 0.36 0.399 0.625 0 0.161 -0.045 0.263 -0.161 0.315 -0.074 0.034 -0.162 -0.003 -0.202 -0.038 -0.097 -0.088 -0.058 -0.242 0.043 -0.26 0.123 -0.022 0.146 0.172 0.026 0.159"/><path d="M9.152 5.368c-0.095 0.007 -0.189 0.089 -0.189 0.19 0 0.144 0.057 0.21 0.172 0.353 0.099 0.123 0.378 0.336 0.371 0.542 -0.003 0.078 -0.055 0.174 -0.108 0.163"/><path stroke-linecap="round" d="M8.928 8.255c0.045 -0.108 0.161 -0.06 0.168 0 0.017 0.138 -0.104 0.179 -0.19 0.157a0.149 0.149 0 0 1 -0.094 -0.073 0.181 0.181 0 0 1 -0.014 -0.14c0.006 -0.022 0.016 -0.041 0.032 -0.062a0.186 0.186 0 0 1 0.048 -0.045c0.033 -0.021 0.069 -0.023 0.125 -0.023 0.209 0 0.392 0.247 0.453 0.504 0.02 0.084 0.048 0.273 0.01 0.451 -0.041 0.19 -0.124 0.322 -0.22 0.422 -0.052 0.054 -0.123 0.102 -0.216 0.154a0.928 0.928 0 0 1 -0.156 0.064c-0.054 0.015 -0.104 0.017 -0.148 0.004 -0.106 -0.032 -0.174 -0.131 -0.119 -0.26 0.043 -0.1 0.202 -0.149 0.272 -0.026 0.006 0.011 0.015 0.034 0.015 0.058 0 0.033 -0.014 0.072 -0.037 0.087 -0.054 0.034 -0.14 0.024 -0.136 -0.071"/><path d="M8.766 9.54c0.039 0.015 0.061 0.013 0.109 -0.009 0.02 -0.009 0.043 -0.023 0.07 -0.038 0.096 -0.054 0.209 -0.14 0.315 -0.339a0.705 0.705 0 0 0 0.083 -0.293c0.003 -0.072 -0.005 -0.147 -0.023 -0.233 -0.03 -0.142 -0.065 -0.22 -0.153 -0.34 -0.043 -0.059 -0.08 -0.095 -0.161 -0.097m-0.354 1.159a0.146 0.146 0 1 1 0.235 0.088"/><path d="M8.709 9.204a0.138 0.138 0 0 1 0.136 -0.117 0.139 0.139 0 0 1 0.138 0.141c0 0.038 -0.015 0.073 -0.039 0.098"/><path d="M8.976 9.197a0.583 0.583 0 0 0 0.233 -0.462c0.001 -0.156 -0.062 -0.314 -0.134 -0.375"/><path stroke-linecap="round" d="M9.175 9.128c-0.049 0.073 -0.108 0.154 -0.234 0.222"/><path d="M9.547 9.663c-0.035 -0.082 -0.104 -0.12 -0.216 -0.132 -0.112 -0.012 -0.209 0.019 -0.308 0.072 -0.193 0.104 -0.301 0.216 -0.373 0.424 -0.018 0.053 -0.033 0.132 -0.031 0.216 0.003 0.134 0.037 0.282 0.074 0.353 0.032 0.062 0.115 0.336 0.575 0.525 0.268 0.11 0.679 0.136 0.963 0.147 0.39 0.015 0.75 0.03 0.959 0.287"/><path stroke-linecap="round" d="M8.988 9.745c0.123 -0.081 0.356 -0.186 0.567 -0.082 0.078 0.039 0.131 0.086 0.16 0.164 0.053 0.14 -0.006 0.295 -0.067 0.359 -0.032 0.034 -0.101 0.098 -0.186 0.099 -0.142 0.002 -0.176 -0.097 -0.179 -0.119 -0.017 -0.103 0.043 -0.144 0.075 -0.155 0.024 -0.008 0.103 -0.006 0.12 0.05 0.006 0.019 0.007 0.051 -0.008 0.075"/><path d="M9.477 10.115c0.011 -0.041 0.006 -0.084 -0.032 -0.125 -0.037 -0.041 -0.136 -0.08 -0.22 -0.034a0.278 0.278 0 0 0 -0.095 0.078c-0.012 0.016 -0.032 0.042 -0.043 0.06 -0.025 0.044 -0.036 0.079 -0.041 0.094 -0.092 0.262 0.058 0.54 0.246 0.66 0.164 0.105 0.332 0.134 0.539 0.153 0.096 0.009 0.15 0.011 0.246 0.015 0.077 0.004 0.144 0.002 0.207 0.002 0.052 -0.001 0.101 0 0.151 -0.002 0.082 -0.002 0.167 -0.004 0.27 0.004 0.109 0.008 0.191 0.011 0.283 0.026 0.06 0.01 0.131 0.02 0.205 0.036 0.022 0.005 0.045 0.009 0.067 0.016l0.045 0.014c0.134 0.041 0.264 0.09 0.366 0.156 0.032 0.02 0.068 0.04 0.093 0.065 0.019 0.019 0.035 0.03 0.051 0.046 0.072 0.071 0.145 0.147 0.162 0.251 0.003 0.019 0.003 0.039 0.003 0.06 0 0.067 -0.055 0.159 -0.202 0.189"/><path d="M11.199 11.716c-0.039 0.08 0.005 0.12 0.06 0.127 0.08 0.009 0.123 -0.054 0.129 -0.112a0.165 0.165 0 0 0 -0.164 -0.177c-0.085 0.001 -0.154 0.056 -0.186 0.131 -0.012 0.027 -0.017 0.058 -0.019 0.089a0.22 0.22 0 0 0 0.054 0.155c0.048 0.056 0.123 0.09 0.202 0.093 0.158 0.006 0.282 -0.142 0.282 -0.293 0 -0.289 -0.429 -0.447 -0.599 -0.488 -0.209 -0.05 -0.336 -0.069 -0.672 -0.087 -0.134 -0.007 -0.233 -0.004 -0.381 -0.019 -0.132 -0.014 -0.202 -0.02 -0.338 -0.052 -0.17 -0.04 -0.328 -0.11 -0.47 -0.239 -0.109 -0.099 -0.171 -0.17 -0.222 -0.306 -0.044 -0.118 -0.064 -0.35 0.047 -0.522 0.098 -0.152 0.233 -0.231 0.388 -0.253 0.14 -0.02 0.263 0.04 0.336 0.179 0.035 0.067 0.024 0.18 -0.004 0.231 -0.024 0.045 -0.094 0.111 -0.179 0.112 -0.142 0.002 -0.176 -0.097 -0.179 -0.12 -0.017 -0.102 0.043 -0.144 0.075 -0.155 0.024 -0.009 0.104 -0.006 0.12 0.05 0.006 0.018 0.007 0.051 -0.008 0.075"/><path stroke-linecap="round" d="m10.247 5.102 -0.013 -0.019c-0.063 -0.093 -0.175 -0.118 -0.258 -0.056 -0.099 0.074 -0.124 0.202 -0.097 0.336 0.017 0.084 0.074 0.154 0.152 0.204"/><path d="M13.753 5.385c-0.151 0.164 -0.302 0.217 -0.528 0.224 -0.071 0.002 -0.205 -0.022 -0.284 -0.078 -0.05 -0.036 -0.106 -0.097 -0.071 -0.204 0.024 -0.071 0.138 -0.27 0.144 -0.409 0.009 -0.211 -0.072 -0.326 -0.199 -0.371 -0.235 -0.083 -0.486 0.149 -0.638 0.2a0.512 0.512 0 0 1 -0.192 0.03 0.519 0.519 0 0 1 -0.194 -0.03c-0.152 -0.05 -0.404 -0.282 -0.638 -0.2 -0.127 0.045 -0.208 0.16 -0.199 0.371 0.006 0.138 0.12 0.338 0.143 0.409 0.036 0.106 -0.02 0.168 -0.071 0.204 -0.078 0.056 -0.213 0.08 -0.284 0.078 -0.226 -0.007 -0.377 -0.06 -0.528 -0.224"/><path stroke-linecap="round" d="M11.15 11.19c0.03 0.012 0.007 -0.007 0.197 0.077 0.182 0.081 0.311 0.151 0.424 0.33 0.036 0.056 0.045 0.136 0.045 0.183 0 0.03 -0.004 0.061 -0.011 0.092"/><path d="M11.162 12.001c0.037 0.018 0.079 0.029 0.122 0.031 0.158 0.006 0.282 -0.142 0.282 -0.293 0 -0.105 -0.057 -0.193 -0.137 -0.264"/><path stroke-linecap="round" d="M11.196 11.716c-0.038 0.085 0.016 0.131 0.071 0.138 0.08 0.009 0.125 -0.054 0.131 -0.112a0.168 0.168 0 0 0 -0.079 -0.156"/><path d="M14.629 5.205c0.12 0 0.226 0.134 0.226 0.272 0 0.158 -0.084 0.256 -0.146 0.329 -0.05 0.059 -0.103 0.112 -0.168 0.176"/><path stroke-linecap="round" d="M14.486 5.078c0.041 0.019 0.077 0.051 0.104 0.092 0.05 0.074 0.063 0.137 0.06 0.229 -0.006 0.158 -0.12 0.268 -0.222 0.335m-0.179 -0.656c0.008 0.007 0.016 0.015 0.024 0.024 0.069 0.082 0.074 0.204 0.058 0.271 -0.025 0.101 -0.058 0.144 -0.14 0.205m-0.19 -0.542c0.099 0.075 0.128 0.204 0.096 0.337 -0.023 0.095 -0.083 0.152 -0.157 0.197m0.417 1.541c0.012 0.035 0.031 0.047 0.056 0.072a0.508 0.508 0 0 0 0.231 0.132c0.092 0.026 0.174 0.006 0.237 -0.033m-6.113 2.026c0.047 -0.001 0.093 0.03 0.123 0.083 0.006 0.01 0.015 0.033 0.015 0.058 0 0.033 -0.015 0.068 -0.038 0.083 -0.054 0.034 -0.149 0.02 -0.145 -0.076"/><path d="M9.056 8.074c0.185 0.035 0.363 0.258 0.421 0.501 0.02 0.085 0.048 0.273 0.01 0.452 -0.041 0.19 -0.124 0.322 -0.22 0.422 -0.023 0.024 -0.049 0.046 -0.08 0.068l-0.039 0.027m-0.297 -0.455c0.076 0 0.142 0.073 0.142 0.15 0 0.038 -0.015 0.073 -0.039 0.098"/><path d="M8.799 9.176c0.079 0 0.154 0.076 0.154 0.157a0.146 0.146 0 0 1 -0.055 0.115"/><path stroke-linecap="round" d="M9.524 8.381c0.073 0.097 0.121 0.181 0.143 0.29m-0.002 0.318a0.648 0.648 0 0 1 -0.054 0.152 0.668 0.668 0 0 1 -0.133 0.174"/><path d="M9.536 7.812c0.07 0.055 0.112 0.111 0.132 0.179"/><path stroke-linecap="round" d="M9.67 7.63c-0.018 0.064 -0.06 0.112 -0.126 0.173m-0.343 -0.644 0.081 -0.021 0.048 -0.036 0.031 -0.044 0.026 -0.068 0.011 -0.055"/><path d="M9.036 6.874c-0.025 0.006 -0.058 0.016 -0.092 0.032 -0.046 0.022 -0.094 0.055 -0.132 0.11 -0.045 0.063 -0.071 0.151 -0.086 0.228 -0.007 0.034 -0.016 0.14 0.006 0.25a0.591 0.591 0 0 0 0.086 0.211c0.013 0.02 0.025 0.036 0.039 0.05 0.048 0.048 0.093 0.078 0.168 0.063"/><path stroke-linecap="round" d="M9.489 6.518c-0.013 0.048 -0.039 0.108 -0.114 0.101"/><path d="M9.213 6.845c-0.072 -0.071 -0.226 -0.09 -0.379 0.007 -0.02 0.012 -0.039 0.029 -0.059 0.045 -0.021 0.018 -0.038 0.038 -0.054 0.06 -0.018 0.024 -0.039 0.064 -0.052 0.091a0.469 0.469 0 0 0 -0.035 0.099 0.762 0.762 0 0 0 -0.024 0.235c0.004 0.036 0.008 0.07 0.013 0.1a0.699 0.699 0 0 0 0.084 0.232c0.034 0.056 0.118 0.185 0.289 0.202 0.067 0.006 0.183 -0.024 0.186 -0.112"/><path stroke-linecap="round" d="M13.641 5.29c0.012 -0.062 0.086 -0.074 0.114 -0.037 0.043 0.056 0.014 0.153 -0.073 0.18a0.142 0.142 0 0 1 -0.144 -0.052c-0.036 -0.047 -0.034 -0.105 -0.02 -0.151 0.009 -0.03 0.033 -0.056 0.065 -0.08 0.102 -0.078 0.267 -0.06 0.321 0.071 0.07 0.168 -0.082 0.295 -0.222 0.39 -0.176 0.12 -0.377 0.142 -0.528 0.14 -0.343 -0.004 -0.605 -0.168 -0.774 -0.261 -0.04 -0.022 -0.08 -0.017 -0.101 0.007a0.075 0.075 0 0 0 0.009 0.103"/><path stroke-linecap="round" d="M13.71 5.232c0.036 0.002 0.046 0.016 0.057 0.03 0.043 0.056 0.012 0.153 -0.076 0.18m0.669 1.933c-0.131 0.142 -0.011 0.387 0.087 0.442 0.034 0.026 0.048 0.012 0.075 0.028"/><path d="M14.367 7.104c-0.043 0.03 -0.058 0.063 -0.06 0.122 -0.001 0.049 0.007 0.103 0.053 0.15 0.072 0.074 0.211 0.139 0.346 0.141a0.384 0.384 0 0 0 0.226 -0.066 0.34 0.34 0 0 0 0.144 -0.202m-0.782 2.317c0 0 0 0.057 -0.005 0.093a0.708 0.708 0 0 1 -0.078 0.259 0.702 0.702 0 0 1 -0.157 0.213c-0.074 0.073 -0.125 0.106 -0.218 0.153 -0.09 0.046 -0.147 0.06 -0.246 0.082a1.259 1.259 0 0 1 -0.258 0.032c-0.093 0.004 -0.145 0 -0.238 -0.006 -0.099 -0.007 -0.154 -0.021 -0.253 -0.029 -0.082 -0.007 -0.128 -0.014 -0.21 -0.014 -0.084 0 -0.132 0.001 -0.216 0.016a0.826 0.826 0 0 0 -0.194 0.054c-0.101 0.041 -0.215 0.112 -0.239 0.144 -0.024 -0.032 -0.138 -0.103 -0.239 -0.144a0.826 0.826 0 0 0 -0.194 -0.054 1.074 1.074 0 0 0 -0.216 -0.016c-0.082 0 -0.128 0.006 -0.21 0.014 -0.099 0.009 -0.154 0.023 -0.253 0.029 -0.093 0.006 -0.145 0.01 -0.238 0.006 -0.101 -0.005 -0.159 -0.01 -0.258 -0.032s-0.156 -0.037 -0.246 -0.082c-0.093 -0.047 -0.144 -0.08 -0.218 -0.153a0.701 0.701 0 0 1 -0.157 -0.213 0.708 0.708 0 0 1 -0.078 -0.259c-0.005 -0.036 -0.005 -0.093 -0.005 -0.093V5.75h4.621V9.566h0.002z"/></g><g fill="#c7b37f" stroke="#c7b37f"><path stroke-width="0.012240000000000001" d="M9.298 10.112a0.094 0.094 0 1 1 0.187 0 0.094 0.094 0 0 1 -0.187 0zm-0.576 -0.663c0 -0.046 0.03 -0.084 0.066 -0.084s0.066 0.038 0.066 0.084 -0.03 0.084 -0.066 0.084 -0.066 -0.038 -0.066 -0.084z"/><path d="M9.049 7.785c0 -0.038 0.029 -0.069 0.064 -0.069 0.036 0 0.064 0.031 0.064 0.069s-0.029 0.069 -0.064 0.069 -0.064 -0.031 -0.064 -0.069zm1.149 -2.461c-0.004 -0.038 0.019 -0.072 0.051 -0.075 0.032 -0.003 0.062 0.025 0.066 0.063 0.004 0.038 -0.019 0.072 -0.051 0.075 -0.032 0.003 -0.062 -0.025 -0.066 -0.063z" stroke="none" stroke-width="0.024"/></g><g stroke="#c7b37f" stroke-width=".99" stroke-linecap="round"><path d="M8.974 8.173c-0.014 0.006 -0.022 0.011 -0.032 0.022 -0.01 0.01 -0.012 0.014 -0.02 0.031 -0.006 0.012 -0.007 0.027 -0.009 0.045m0.177 1.003c0.013 -0.016 0.021 -0.024 0.034 -0.041 0.01 -0.013 0.016 -0.021 0.025 -0.035 0.008 -0.013 0.012 -0.021 0.019 -0.034 0.01 -0.019 0.016 -0.03 0.025 -0.049m-0.047 0.523c-0.022 0.01 -0.035 0.015 -0.057 0.026 -0.016 0.009 -0.025 0.014 -0.041 0.024 -0.019 0.012 -0.029 0.018 -0.047 0.031 -0.018 0.014 -0.028 0.023 -0.046 0.037m0.561 -1.421c-0.012 -0.012 -0.018 -0.02 -0.031 -0.032 -0.013 -0.013 -0.02 -0.02 -0.034 -0.032 -0.013 -0.011 -0.022 -0.017 -0.036 -0.027"/><path stroke-linecap="butt" d="M9.532 7.835c-0.018 0.008 -0.027 0.014 -0.046 0.02 -0.021 0.007 -0.036 0.011 -0.056 0.012"/><path d="M8.904 7.216c0.006 0.022 0.007 0.035 0.016 0.056 0.01 0.026 0.019 0.041 0.035 0.064 0.016 0.025 0.026 0.038 0.048 0.059 0.018 0.018 0.03 0.027 0.052 0.042 0.021 0.014 0.034 0.018 0.056 0.03m-0.037 -0.22c0.018 0.01 0.028 0.017 0.047 0.025 0.017 0.007 0.028 0.01 0.046 0.014 0.025 0.006 0.039 0.007 0.065 0.008 0.027 0.001 0.035 0 0.07 -0.006m0.269 -1.525c-0.03 -0.018 -0.048 -0.025 -0.077 -0.045a0.457 0.457 0 0 1 -0.07 -0.057 0.35 0.35 0 0 1 -0.043 -0.048c-0.013 -0.018 -0.019 -0.03 -0.031 -0.049m0.281 -0.171c0.01 0.025 0.012 0.04 0.024 0.064 0.016 0.033 0.029 0.05 0.054 0.077 0.034 0.037 0.063 0.048 0.103 0.078m0.054 -0.222c0.009 0.023 0.012 0.036 0.024 0.058 0.01 0.019 0.017 0.029 0.031 0.046 0.017 0.022 0.029 0.033 0.05 0.05 0.025 0.02 0.043 0.025 0.07 0.042"/></g><path fill="#703d29" stroke-width="0.006720000000000001" d="M12.499 5.086c-0.002 -0.064 -0.065 -0.07 -0.089 -0.07 -0.069 0 -0.088 0.043 -0.174 0.09 -0.108 0.058 -0.155 0.071 -0.251 0.072 -0.096 -0.001 -0.144 -0.014 -0.252 -0.072 -0.086 -0.046 -0.101 -0.088 -0.17 -0.088a0.087 0.087 0 0 0 -0.084 0.092s-0.001 0.019 0.002 0.032c0.001 0.005 0.007 0.003 0.009 0.008 -0.001 -0.029 0.005 -0.044 0.019 -0.063a0.082 0.082 0 0 1 0.061 -0.031c0.069 0 0.095 0.044 0.181 0.091 0.108 0.058 0.155 0.071 0.251 0.072 0.096 -0.001 0.144 -0.014 0.252 -0.072 0.086 -0.046 0.111 -0.095 0.18 -0.095 0.024 0 0.041 0.016 0.049 0.04 0.005 0.015 0.002 0.025 0.003 0.031 0.001 0.003 0.004 0.002 0.005 0.006 0.002 -0.011 0.008 -0.015 0.007 -0.042z"/></g><g fill="#703d29"><path d="M9.915 10.426c0.019 -0.021 0.034 -0.013 0.038 -0.023 0.003 -0.007 -0.003 -0.008 -0.011 -0.011 -0.011 -0.004 -0.022 -0.006 -0.032 -0.01 -0.011 -0.004 -0.021 -0.01 -0.032 -0.014 -0.005 -0.002 -0.015 -0.007 -0.018 0.001 -0.006 0.015 0.038 0.013 0.024 0.053 -0.002 0.007 -0.009 0.021 -0.031 0.045l-0.099 0.108c-0.002 0.003 -0.006 0.008 -0.008 0.007 -0.002 -0.001 -0.002 -0.007 -0.002 -0.011l0.001 -0.154c0 -0.029 0.002 -0.05 0.007 -0.063 0.007 -0.018 0.027 -0.003 0.031 -0.014 0.002 -0.007 0 -0.007 -0.012 -0.012 -0.006 -0.002 -0.018 -0.005 -0.042 -0.014 -0.013 -0.005 -0.025 -0.011 -0.037 -0.016 -0.006 -0.002 -0.016 -0.01 -0.02 0 -0.001 0.003 0.003 0.007 0.004 0.008 0.014 0.01 0.018 0.017 0.018 0.035l0.003 0.279c0 0.02 0.002 0.026 0.006 0.027 0.004 0.002 0.007 0 0.015 -0.01l0.197 -0.214z"/><path d="M10.031 10.469c0.013 -0.041 0.037 -0.016 0.041 -0.031 0.002 -0.005 0 -0.006 -0.012 -0.01 -0.022 -0.007 -0.036 -0.01 -0.05 -0.014 -0.013 -0.004 -0.028 -0.011 -0.043 -0.015 -0.004 -0.001 -0.013 -0.006 -0.015 0.002 -0.005 0.015 0.042 0.017 0.03 0.056l-0.065 0.205c-0.012 0.041 -0.037 0.021 -0.042 0.036 -0.001 0.002 -0.001 0.005 0.003 0.006 0.01 0.003 0.027 0.007 0.044 0.012 0.03 0.01 0.044 0.016 0.058 0.02 0.009 0.003 0.013 0.002 0.014 -0.002 0.004 -0.014 -0.045 -0.008 -0.029 -0.06l0.064 -0.204zm0.139 0.041c0.008 -0.026 0.02 -0.022 0.034 -0.018 0.039 0.012 0.051 0.05 0.039 0.092 -0.007 0.025 -0.017 0.049 -0.076 0.031 -0.012 -0.003 -0.026 -0.008 -0.023 -0.018l0.026 -0.087zm-0.106 0.185c-0.016 0.054 -0.043 0.03 -0.047 0.044 -0.002 0.008 0.006 0.01 0.01 0.011 0.019 0.006 0.039 0.01 0.06 0.016 0.016 0.005 0.026 0.01 0.033 0.012 0.009 0.002 0.013 0.001 0.014 -0.003 0.005 -0.016 -0.039 -0.009 -0.025 -0.055l0.022 -0.074c0.005 -0.015 0.003 -0.019 0.024 -0.012 0.019 0.006 0.025 0.012 0.028 0.033l0.012 0.078c0.005 0.028 0.009 0.059 0.039 0.068 0.016 0.005 0.044 0.003 0.048 -0.011 0.001 -0.004 -0.001 -0.007 -0.004 -0.008 -0.004 -0.001 -0.008 0 -0.012 -0.001 -0.003 -0.001 -0.01 -0.003 -0.012 -0.011 -0.012 -0.062 -0.026 -0.134 -0.025 -0.137 0.001 -0.004 0.013 -0.005 0.028 -0.012 0.014 -0.007 0.03 -0.019 0.038 -0.047 0.006 -0.02 0.016 -0.083 -0.069 -0.108 -0.026 -0.008 -0.053 -0.014 -0.078 -0.022 -0.024 -0.007 -0.027 -0.01 -0.045 -0.015 -0.005 -0.001 -0.009 0 -0.01 0.004 -0.005 0.015 0.042 0.012 0.028 0.06l-0.056 0.189zm0.316 0.092c-0.012 0.052 -0.052 0.02 -0.056 0.037 -0.002 0.01 0.004 0.011 0.012 0.012 0.016 0.004 0.029 0.005 0.055 0.012 0.026 0.006 0.039 0.011 0.054 0.015 0.011 0.003 0.019 0.006 0.021 -0.005 0.003 -0.012 -0.05 -0.012 -0.037 -0.065l0.047 -0.197c0.005 -0.021 0.01 -0.022 0.025 -0.018l0.034 0.008c0.045 0.009 0.021 0.054 0.037 0.058 0.01 0.002 0.01 -0.016 0.011 -0.021l0.005 -0.041c0.001 -0.005 0.002 -0.011 -0.004 -0.012 -0.036 -0.009 -0.063 -0.013 -0.12 -0.027 -0.057 -0.014 -0.083 -0.022 -0.12 -0.03 -0.006 -0.001 -0.007 0.005 -0.009 0.009l-0.02 0.056c-0.002 0.006 -0.007 0.014 0.001 0.017 0.018 0.004 0.019 -0.056 0.064 -0.045l0.033 0.008c0.016 0.004 0.019 0.007 0.014 0.028l-0.048 0.202zm0.476 -0.121c0.016 -0.024 0.031 -0.019 0.033 -0.029 0.001 -0.008 -0.004 -0.007 -0.013 -0.009 -0.011 -0.002 -0.022 -0.002 -0.034 -0.004 -0.011 -0.002 -0.022 -0.006 -0.034 -0.008 -0.005 -0.001 -0.016 -0.004 -0.018 0.004 -0.003 0.015 0.04 0.006 0.032 0.048 -0.001 0.007 -0.005 0.022 -0.022 0.049l-0.079 0.124c-0.002 0.003 -0.004 0.009 -0.007 0.008 -0.002 0 -0.003 -0.007 -0.004 -0.01l-0.025 -0.151c-0.005 -0.029 -0.006 -0.05 -0.004 -0.064 0.003 -0.019 0.026 -0.008 0.028 -0.019 0.001 -0.007 0 -0.007 -0.013 -0.01 -0.006 -0.001 -0.018 -0.002 -0.043 -0.006 -0.014 -0.002 -0.027 -0.007 -0.04 -0.009 -0.006 -0.001 -0.018 -0.007 -0.019 0.004 -0.001 0.003 0.004 0.007 0.005 0.007 0.016 0.008 0.02 0.013 0.024 0.032l0.051 0.275c0.004 0.02 0.007 0.025 0.011 0.026 0.004 0.001 0.007 -0.001 0.013 -0.012l0.157 -0.245zm0.022 0.252c0 0.011 -0.001 0.014 0.009 0.019 0.022 0.01 0.041 0.024 0.065 0.028 0.052 0.009 0.095 -0.024 0.105 -0.082 0.009 -0.056 -0.014 -0.079 -0.053 -0.107 -0.049 -0.035 -0.07 -0.044 -0.065 -0.074 0.005 -0.03 0.025 -0.043 0.052 -0.039 0.068 0.012 0.06 0.095 0.07 0.096 0.009 0.002 0.011 -0.003 0.012 -0.013l0.006 -0.06c0.001 -0.01 0.003 -0.017 -0.003 -0.018 -0.005 -0.001 -0.016 0.005 -0.021 0.004 -0.012 -0.002 -0.026 -0.022 -0.058 -0.027 -0.047 -0.008 -0.084 0.024 -0.093 0.075 -0.008 0.046 0.013 0.067 0.044 0.09 0.059 0.042 0.083 0.052 0.076 0.09 -0.006 0.035 -0.033 0.053 -0.064 0.047 -0.044 -0.007 -0.062 -0.052 -0.068 -0.096 -0.001 -0.006 -0.001 -0.01 -0.007 -0.012 -0.01 -0.001 -0.008 0.012 -0.008 0.018l0.002 0.063zm0.593 -0.167c0.013 -0.025 0.029 -0.022 0.03 -0.032 0.001 -0.008 -0.005 -0.007 -0.013 -0.007 -0.011 -0.001 -0.023 0 -0.034 -0.001 -0.012 -0.001 -0.023 -0.003 -0.034 -0.004 -0.005 0 -0.016 -0.003 -0.017 0.006 -0.001 0.016 0.041 0.002 0.037 0.044 -0.001 0.007 -0.003 0.023 -0.017 0.052l-0.066 0.131c-0.001 0.003 -0.004 0.009 -0.006 0.009 -0.002 0 -0.004 -0.006 -0.005 -0.01l-0.041 -0.148a0.204 0.204 0 0 1 -0.011 -0.063c0.001 -0.019 0.025 -0.01 0.026 -0.022 0.001 -0.007 -0.001 -0.007 -0.014 -0.008 -0.006 0 -0.018 0 -0.044 -0.002 -0.014 -0.001 -0.027 -0.004 -0.041 -0.005 -0.006 0 -0.018 -0.005 -0.019 0.006 0 0.003 0.005 0.006 0.006 0.007 0.016 0.006 0.022 0.011 0.027 0.029l0.08 0.268c0.006 0.019 0.01 0.024 0.013 0.024 0.004 0 0.006 -0.002 0.012 -0.013l0.13 -0.26z"/><path d="M11.534 10.968c0 0.046 -0.039 0.037 -0.039 0.055 0 0.008 0.008 0.006 0.012 0.006 0.011 0 0.022 -0.002 0.035 -0.001 0.014 0 0.028 0.002 0.048 0.002 0.005 0 0.015 0 0.015 -0.006 0 -0.021 -0.052 0.009 -0.051 -0.077l0.001 -0.152c0 -0.004 0.001 -0.007 0.003 -0.007 0.002 0 0.005 0.002 0.007 0.006l0.192 0.234c0.003 0.004 0.005 0.006 0.01 0.006 0.005 0 0.005 -0.003 0.005 -0.013l0.002 -0.251c0 -0.047 0.035 -0.036 0.035 -0.049 0 -0.001 0 -0.006 -0.007 -0.006 -0.004 0 -0.018 0.001 -0.043 0.001 -0.028 0 -0.04 -0.002 -0.046 -0.002 -0.005 0 -0.006 0.005 -0.006 0.008 0 0.015 0.049 0.007 0.049 0.048l-0.001 0.149c0 0.011 -0.001 0.017 -0.003 0.017s-0.007 -0.006 -0.012 -0.012l-0.16 -0.199c-0.007 -0.009 -0.002 -0.012 -0.015 -0.012 -0.021 0 -0.032 0.002 -0.042 0.002 -0.008 0 -0.015 -0.002 -0.023 -0.002 -0.005 0 -0.007 0.003 -0.007 0.007 0 0.022 0.046 -0.007 0.045 0.079l-0.001 0.17zm0.39 -0.202c0 -0.042 0.03 -0.026 0.03 -0.041 0 -0.006 -0.002 -0.006 -0.014 -0.006 -0.023 0 -0.037 0.001 -0.052 0.001 -0.014 0 -0.03 -0.002 -0.046 -0.002 -0.004 0 -0.013 -0.001 -0.014 0.006 0 0.016 0.043 0.004 0.043 0.044v0.215c0 0.042 -0.029 0.031 -0.029 0.046 0 0.002 0.001 0.005 0.004 0.006 0.011 0 0.028 -0.002 0.045 -0.001 0.031 0 0.046 0.002 0.061 0.002 0.009 0 0.013 -0.002 0.013 -0.007 0 -0.014 -0.045 0.006 -0.045 -0.049l0.002 -0.214zm0.169 0.208c0 0.053 -0.045 0.032 -0.045 0.05 0 0.01 0.007 0.009 0.014 0.009 0.016 0 0.029 -0.002 0.056 -0.002 0.027 0 0.04 0.001 0.056 0.001 0.012 0 0.02 0.001 0.02 -0.01 0 -0.012 -0.052 0.001 -0.052 -0.054l-0.002 -0.202c0 -0.022 0.004 -0.024 0.02 -0.024l0.034 0c0.047 -0.002 0.034 0.048 0.05 0.048 0.01 0 0.006 -0.018 0.005 -0.023l-0.005 -0.041c0 -0.005 0 -0.011 -0.006 -0.011 -0.038 0 -0.065 0.002 -0.123 0.003 -0.059 0 -0.086 -0.001 -0.123 -0.001 -0.006 0 -0.006 0.006 -0.006 0.011l-0.006 0.059c-0.001 0.006 -0.003 0.016 0.005 0.016 0.018 0 0.006 -0.059 0.051 -0.059l0.034 0c0.017 0 0.021 0.002 0.021 0.024l0.002 0.208zm0.235 -0.085c-0.007 0 -0.013 0.001 -0.013 -0.003 0 -0.006 0.001 -0.011 0.003 -0.017l0.025 -0.082c0.002 -0.005 0.003 -0.006 0.004 -0.006 0.002 0 0.001 0 0.003 0.003l0.039 0.078c0.002 0.005 0.005 0.01 0.006 0.016 0 0.005 -0.005 0.005 -0.012 0.005l-0.055 0.004zm0.069 0.019c0.011 -0.001 0.013 0.004 0.029 0.037 0.006 0.012 0.009 0.019 0.01 0.029 0.002 0.027 -0.027 0.024 -0.026 0.037 0 0.006 0.006 0.005 0.013 0.004 0.012 -0.001 0.026 -0.004 0.044 -0.005 0.026 -0.002 0.038 -0.001 0.052 -0.002 0.011 -0.001 0.014 0 0.014 -0.008 -0.001 -0.015 -0.022 0.005 -0.037 -0.026l-0.13 -0.264c-0.006 -0.013 -0.007 -0.014 -0.011 -0.013 -0.005 0 -0.006 0.009 -0.009 0.016l-0.088 0.279c-0.008 0.026 -0.029 0.025 -0.028 0.035 0 0.006 0.007 0.004 0.012 0.004 0.012 -0.001 0.023 -0.004 0.035 -0.005 0.013 -0.001 0.025 0 0.038 -0.001 0.008 0 0.021 0.002 0.02 -0.008 -0.001 -0.012 -0.044 -0.001 -0.046 -0.034 -0.001 -0.011 0.004 -0.027 0.006 -0.036 0.007 -0.03 0.015 -0.032 0.022 -0.033l0.079 -0.006zm0.312 -0.186c-0.004 -0.031 -0.002 -0.031 0.046 -0.038 0.077 -0.01 0.053 0.046 0.072 0.043 0.009 -0.001 0.005 -0.016 0.004 -0.021l-0.007 -0.044c-0.001 -0.004 -0.004 -0.008 -0.009 -0.007 -0.035 0.004 -0.062 0.01 -0.091 0.014 -0.061 0.008 -0.09 0.01 -0.107 0.012 -0.006 0.001 -0.008 0.005 -0.008 0.009 0.002 0.018 0.046 -0.002 0.051 0.037l0.027 0.208c0.007 0.054 -0.026 0.034 -0.024 0.054 0.001 0.003 0.003 0.005 0.008 0.004 0.022 -0.003 0.038 -0.007 0.051 -0.009 0.018 -0.002 0.033 -0.002 0.048 -0.004 0.01 -0.001 0.018 -0.001 0.017 -0.01 -0.001 -0.012 -0.045 0.005 -0.052 -0.044l-0.009 -0.066c-0.003 -0.026 -0.006 -0.031 0.013 -0.033l0.03 -0.004c0.042 -0.006 0.036 0.043 0.049 0.041 0.01 -0.001 0.005 -0.017 0.004 -0.023l-0.013 -0.079c-0.002 -0.012 -0.006 -0.01 -0.009 -0.01 -0.008 0.001 -0.004 0.042 -0.038 0.047l-0.025 0.003c-0.017 0.002 -0.018 -0.001 -0.02 -0.02l-0.008 -0.062zm0.147 0.102c0.017 0.089 0.081 0.139 0.161 0.124 0.126 -0.023 0.131 -0.136 0.119 -0.197 -0.017 -0.094 -0.087 -0.139 -0.164 -0.124 -0.095 0.018 -0.134 0.101 -0.116 0.197zm0.044 -0.034c-0.012 -0.064 -0.003 -0.128 0.063 -0.142 0.051 -0.01 0.109 0.032 0.127 0.129 0.014 0.073 0.002 0.136 -0.066 0.15 -0.071 0.014 -0.113 -0.073 -0.125 -0.137zm0.312 -0.156c-0.006 -0.026 0.006 -0.029 0.02 -0.033 0.04 -0.01 0.069 0.018 0.079 0.06 0.006 0.026 0.01 0.051 -0.05 0.065 -0.012 0.003 -0.026 0.006 -0.029 -0.005l-0.021 -0.088zm0 0.213c0.013 0.055 -0.022 0.048 -0.018 0.062 0.002 0.009 0.01 0.005 0.014 0.004 0.019 -0.005 0.039 -0.011 0.06 -0.016 0.016 -0.004 0.027 -0.005 0.034 -0.006 0.009 -0.002 0.012 -0.006 0.011 -0.01 -0.004 -0.016 -0.038 0.012 -0.049 -0.035l-0.018 -0.075c-0.004 -0.015 -0.007 -0.018 0.014 -0.023 0.019 -0.005 0.028 -0.002 0.041 0.014l0.049 0.061c0.018 0.022 0.037 0.047 0.068 0.039 0.016 -0.004 0.039 -0.02 0.036 -0.033 -0.001 -0.003 -0.004 -0.006 -0.007 -0.005 -0.004 0.001 -0.007 0.005 -0.011 0.006 -0.003 0.001 -0.011 0.002 -0.016 -0.004 -0.041 -0.048 -0.09 -0.103 -0.09 -0.106 -0.001 -0.005 0.01 -0.011 0.018 -0.024s0.016 -0.032 0.01 -0.06c-0.005 -0.02 -0.027 -0.079 -0.113 -0.059 -0.026 0.006 -0.052 0.014 -0.079 0.021 -0.025 0.006 -0.028 0.005 -0.046 0.009 -0.005 0.001 -0.008 0.004 -0.007 0.009 0.004 0.016 0.043 -0.011 0.054 0.038l0.046 0.192zm0.324 -0.072c0.013 0.052 -0.036 0.042 -0.032 0.059 0.002 0.01 0.009 0.007 0.016 0.006 0.016 -0.004 0.028 -0.009 0.054 -0.016 0.026 -0.007 0.04 -0.008 0.055 -0.012 0.011 -0.003 0.019 -0.004 0.017 -0.014 -0.003 -0.012 -0.05 0.013 -0.064 -0.04l-0.05 -0.196c-0.006 -0.021 -0.002 -0.024 0.014 -0.028l0.033 -0.009c0.044 -0.013 0.044 0.038 0.06 0.034 0.01 -0.003 0.001 -0.018 -0.001 -0.024l-0.015 -0.039c-0.001 -0.004 -0.003 -0.01 -0.009 -0.009 -0.036 0.01 -0.062 0.018 -0.119 0.033 -0.057 0.015 -0.084 0.02 -0.12 0.029 -0.006 0.002 -0.004 0.008 -0.003 0.012l0.009 0.059c0 0.006 0.001 0.016 0.009 0.014 0.018 -0.005 -0.009 -0.058 0.035 -0.07l0.033 -0.008c0.016 -0.004 0.02 -0.003 0.026 0.018l0.052 0.201zm0.206 -0.275c-0.011 -0.041 0.022 -0.034 0.018 -0.048 -0.001 -0.005 -0.004 -0.006 -0.015 -0.002 -0.022 0.006 -0.036 0.012 -0.049 0.016 -0.014 0.004 -0.029 0.006 -0.044 0.01 -0.004 0.001 -0.014 0.002 -0.012 0.01 0.004 0.015 0.045 -0.009 0.055 0.03l0.058 0.207c0.011 0.041 -0.02 0.037 -0.016 0.053 0.001 0.002 0.002 0.005 0.006 0.004 0.01 -0.003 0.026 -0.009 0.043 -0.014 0.03 -0.008 0.045 -0.011 0.059 -0.015 0.009 -0.002 0.012 -0.005 0.011 -0.01 -0.004 -0.014 -0.042 0.018 -0.056 -0.035l-0.057 -0.206zm0.086 0.1c0.029 0.086 0.1 0.126 0.176 0.101 0.122 -0.041 0.11 -0.153 0.09 -0.212 -0.03 -0.09 -0.105 -0.126 -0.18 -0.1 -0.091 0.031 -0.119 0.119 -0.087 0.211zm0.039 -0.04c-0.021 -0.062 -0.021 -0.127 0.043 -0.15 0.049 -0.017 0.112 0.016 0.144 0.11 0.024 0.071 0.021 0.134 -0.044 0.158 -0.068 0.024 -0.122 -0.056 -0.143 -0.118zm0.286 -0.203c-0.01 -0.025 0.002 -0.03 0.016 -0.035 0.038 -0.015 0.071 0.008 0.087 0.048 0.01 0.024 0.017 0.049 -0.04 0.071 -0.011 0.004 -0.025 0.01 -0.029 0l-0.033 -0.084zm0.03 0.211c0.021 0.052 -0.015 0.05 -0.01 0.064 0.003 0.008 0.011 0.004 0.015 0.002 0.019 -0.007 0.037 -0.016 0.057 -0.024 0.016 -0.006 0.026 -0.008 0.033 -0.011 0.009 -0.003 0.011 -0.007 0.009 -0.011 -0.006 -0.015 -0.036 0.017 -0.054 -0.028l-0.029 -0.072c-0.006 -0.015 -0.009 -0.017 0.011 -0.024 0.019 -0.007 0.027 -0.006 0.043 0.009l0.057 0.054c0.021 0.019 0.043 0.041 0.073 0.029 0.015 -0.006 0.036 -0.025 0.031 -0.038 -0.001 -0.003 -0.005 -0.005 -0.008 -0.004 -0.004 0.001 -0.006 0.006 -0.01 0.007 -0.003 0.001 -0.01 0.004 -0.016 -0.001 -0.048 -0.042 -0.103 -0.09 -0.104 -0.092 -0.002 -0.004 0.008 -0.012 0.015 -0.026 0.007 -0.014 0.012 -0.034 0.001 -0.06 -0.007 -0.019 -0.038 -0.075 -0.12 -0.043 -0.025 0.01 -0.05 0.022 -0.075 0.031 -0.024 0.01 -0.027 0.009 -0.045 0.016 -0.004 0.002 -0.007 0.006 -0.006 0.01 0.006 0.015 0.041 -0.017 0.059 0.03l0.072 0.183z"/></g><g fill="#fedf00"><path fill="#d52b1e" d="M9.904 5.982h1.972v1.968h-1.972z"/><path id="a" fill="#fff" d="M10.829 7.532s-0.001 0.07 -0.021 0.127c-0.022 0.065 -0.023 0.065 -0.043 0.097a0.315 0.315 0 0 1 -0.091 0.093c-0.047 0.03 -0.095 0.045 -0.143 0.041 -0.132 -0.012 -0.193 -0.154 -0.223 -0.27 -0.032 -0.123 -0.122 -0.19 -0.179 -0.145 -0.034 0.026 -0.035 0.07 -0.007 0.112 0.03 0.045 0.098 0.067 0.098 0.067l-0.071 0.09s-0.151 -0.02 -0.181 -0.178c-0.011 -0.06 0.018 -0.171 0.117 -0.204 0.127 -0.042 0.208 0.048 0.247 0.125 0.054 0.105 0.077 0.298 0.226 0.268 0.081 -0.016 0.12 -0.134 0.12 -0.188l0.059 -0.063 0.088 0.028 0.002 0.002z"/><use xlink:href="#a" transform="matrix(-1 0 0 1 907.52 0)"/><path d="m11.067 6.695 0.258 -0.279s0.039 -0.031 0.039 -0.082l-0.053 0.008 -0.012 -0.027 -0.002 -0.028 0.072 -0.015c0.001 -0.012 0 -0.02 0.002 -0.033 0.002 -0.012 0.005 -0.018 0.007 -0.03l-0.078 0.005c0.004 -0.014 0.003 -0.021 0.007 -0.034 0.004 -0.011 0.005 -0.015 0.012 -0.026 0.015 -0.002 0.028 -0.006 0.046 -0.007 0.018 -0.002 0.028 -0.001 0.045 -0.002 0.043 -0.08 0.221 -0.153 0.347 -0.022 0.091 0.095 0.072 0.269 -0.047 0.315a0.152 0.152 0 0 1 -0.165 -0.027l0.047 -0.093c0.065 0.039 0.12 -0.01 0.116 -0.06 -0.005 -0.064 -0.046 -0.103 -0.104 -0.108 -0.054 -0.005 -0.093 0.026 -0.118 0.074 -0.015 0.03 -0.008 0.051 -0.013 0.084 -0.005 0.036 -0.002 0.056 -0.013 0.092a0.21 0.21 0 0 1 -0.057 0.086l-0.265 0.286 -1.031 1.115 -0.078 -0.072 1.037 -1.122z"/><path fill="#fff" d="M10.308 6.793s0.065 0.321 0.285 0.802c0.112 -0.041 0.178 -0.067 0.297 -0.067 0.119 0 0.185 0.022 0.297 0.067 0.22 -0.481 0.285 -0.802 0.285 -0.802l-0.582 -0.748 -0.582 0.748z"/><path d="m10.947 6.298 0.404 0.519s-0.054 0.252 -0.218 0.632c-0.063 -0.014 -0.118 -0.027 -0.186 -0.032v-1.12zm-0.114 0 -0.404 0.519s0.054 0.252 0.218 0.632c0.063 -0.014 0.118 -0.027 0.186 -0.032v-1.12z"/></g><g fill="#d52b1e"><path fill="#fedf00" d="M12.086 5.982h1.972v1.968H12.086z"/><path d="M12.363 5.982h0.294v1.968h-0.294zm0.564 0h0.294v1.968H12.926zm0.564 0h0.294v1.968h-0.294z"/></g><g fill="#d52b1e" stroke="#d52b1e" stroke-width=".51"><path fill="#fedf00" d="M9.911 9.658c0.006 0.036 0.018 0.096 0.052 0.158 0.036 0.056 0.023 0.055 0.103 0.144 0.039 0.044 0.101 0.082 0.15 0.108 0.048 0.026 0.084 0.039 0.164 0.06 0.156 0.041 0.266 0.044 0.398 0.038 0.103 -0.004 0.181 -0.017 0.246 -0.025 0.093 -0.012 0.162 -0.02 0.267 -0.024 0.051 -0.002 0.1 -0.003 0.147 0 0.058 0.003 0.115 0.012 0.175 0.024a1.911 1.911 0 0 1 0.263 0.077l0 -2.056 -1.973 0v1.405s0.004 0.069 0.008 0.091z" stroke="none" stroke-width="0.024"/><path d="m10.14 10.018 0.092 0.054 0.127 0.046v-1.957h-0.219zm1.096 0.089 0 -1.946h-0.219v1.978s0.15 -0.019 0.219 -0.024zm0.438 -1.946h-0.219v1.953c0.071 0.008 0.144 0.02 0.219 0.04l0 -1.993zm-0.876 0v2c-0.002 0 -0.146 0.008 -0.22 0v-2z"/></g><path fill="#fedf00" d="M14.052 9.657a0.498 0.498 0 0 1 -0.052 0.158c-0.036 0.056 -0.023 0.055 -0.103 0.144 -0.039 0.044 -0.101 0.082 -0.15 0.108 -0.048 0.026 -0.084 0.039 -0.164 0.06 -0.156 0.041 -0.266 0.044 -0.398 0.038 -0.103 -0.004 -0.181 -0.017 -0.246 -0.025 -0.093 -0.012 -0.162 -0.02 -0.267 -0.024a1.52 1.52 0 0 0 -0.147 0c-0.058 0.003 -0.115 0.012 -0.175 0.024 -0.131 0.026 -0.265 0.077 -0.265 0.077l0.001 -2.056 1.973 0v1.405s-0.004 0.069 -0.008 0.091z"/><g id="b"><path fill="#d52b1e" d="m12.591 8.326 -0.014 0.007c-0.007 0.008 -0.011 0.012 -0.018 0.019 -0.011 0.01 -0.018 0.012 -0.03 0.02 -0.006 0.004 -0.01 0.005 -0.014 0.011 -0.006 0.008 -0.002 0.015 -0.006 0.024 -0.005 0.01 -0.009 0.014 -0.016 0.022 -0.009 0.011 -0.016 0.015 -0.026 0.024 -0.01 0.01 -0.014 0.018 -0.026 0.024 -0.003 0.002 -0.005 0.003 -0.008 0.005 -0.005 0.002 -0.008 0 -0.013 0.001 -0.009 0.003 -0.012 0.013 -0.019 0.017 0.003 0.005 0.002 0.009 0.005 0.014 0.004 0.008 0.017 0.029 0.019 0.034 0.005 0.007 0.006 0.017 0.013 0.019 0.013 0.004 0.021 0.004 0.032 0.003 0.019 0.004 0.031 0.004 0.049 0.011 0.015 0.006 0.021 0.014 0.035 0.02 0.011 0.005 0.018 0.008 0.031 0.011 0.009 0.002 0.014 0.003 0.024 0.002 0.006 -0.001 0.009 -0.003 0.015 -0.004h0.003l-0.001 0.009v0.002h0.001l0.049 0.022c-0.002 0.003 -0.004 0.006 -0.005 0.009 -0.002 0.008 -0.003 0.016 -0.001 0.02 0.015 0.045 0.028 0.074 0.035 0.077 0.015 0.006 0.019 0.021 0.028 0.036 -0.003 0.003 -0.006 0.005 -0.008 0.007 -0.015 0.014 -0.028 0.024 -0.04 0.044 -0.018 0.029 -0.03 0.029 -0.008 0.067 0.013 0.022 0.02 0.026 0.037 0.058 0.009 0.016 0.014 0.028 0.019 0.048 0.005 0.018 0.006 0.029 0.007 0.047l0.024 0.009 0.016 -0.016 0.015 -0.029 0.001 -0.022c-0.006 -0.005 -0.007 -0.011 -0.006 -0.019 0.002 -0.009 0.012 -0.007 0.017 -0.015 0.007 -0.011 -0.008 -0.018 -0.016 -0.026 -0.014 -0.016 -0.034 -0.02 -0.039 -0.044 -0.001 -0.007 0.002 -0.01 0.009 -0.017 0.021 -0.02 0.027 -0.023 0.047 -0.043 0.006 0.003 0.015 0.005 0.023 0.003 0.007 -0.001 0.013 0.003 0.034 0.009 0.015 0.004 0.021 0.002 0.029 0.001l0.009 -0.002c0.001 0.005 0.003 0.01 0.003 0.017 0.001 0.025 -0.004 0.072 0.004 0.084 0.003 0.005 0.005 0.008 0.007 0.013 0.002 0.006 0.005 0.01 0.005 0.016 0 0.017 0.001 0.027 0 0.045 -0.001 0.017 -0.002 0.025 -0.005 0.042 -0.002 0.011 -0.004 0.017 -0.011 0.026 -0.007 0.009 -0.014 0.01 -0.023 0.016l-0.002 0.024 0.027 0.011 0.031 0.008 0.017 -0.007c0 -0.006 0.001 -0.01 0.004 -0.015 0.003 -0.006 0.006 -0.011 0.011 -0.013 0.009 -0.003 0.018 0.003 0.022 -0.002 0.004 -0.006 0.002 -0.008 0.001 -0.018 -0.001 -0.016 -0.004 -0.024 -0.007 -0.04a0.283 0.283 0 0 1 -0.004 -0.066c0.001 -0.015 0.001 -0.023 0.004 -0.037 0.004 -0.021 0.012 -0.032 0.016 -0.053 0.006 -0.023 0.006 -0.038 0.009 -0.059 0.076 0.011 0.139 0.01 0.224 -0.009 0.004 -0.001 0.018 -0.006 0.018 -0.006 0.019 0.017 0.041 0.03 0.065 0.039v0.023c0.001 0.007 -0.001 0.012 0.003 0.017 0.002 0.004 0.005 0.006 0.009 0.007 0.006 0.001 0.011 0 0.016 -0.004 0.006 -0.005 0.004 -0.011 0.006 -0.018 0.001 -0.003 0 -0.013 0 -0.017 0.009 0.001 0.012 0.002 0.021 0.002 0.009 0 0.013 0 0.021 -0.001l0.001 0.011c0.001 0.006 -0.002 0.011 0.001 0.016 0.003 0.006 0.006 0.009 0.012 0.01 0.005 0.001 0.008 0 0.013 -0.002 0.007 -0.004 0.006 -0.012 0.007 -0.02 0 -0.003 0 -0.017 0 -0.019l0.025 -0.009c0 0.006 -0.001 0.012 -0.002 0.02a0.12 0.12 0 0 1 -0.006 0.022c-0.005 0.014 -0.011 0.021 -0.018 0.033 -0.009 0.015 -0.014 0.024 -0.025 0.037 -0.005 0.006 -0.009 0.009 -0.013 0.016 -0.006 0.008 -0.008 0.013 -0.014 0.022 -0.008 0.011 -0.012 0.018 -0.022 0.026 -0.017 0.013 -0.028 0.002 -0.05 0.02l-0.005 0.025 0.035 0.013 0.031 0.006 0.011 -0.006c0 -0.007 0.001 -0.012 0.005 -0.018 0.005 -0.006 0.011 -0.008 0.019 -0.01 0.009 -0.001 0.018 0.001 0.025 -0.005 0.008 -0.007 0.008 -0.022 0.015 -0.035a0.304 0.304 0 0 1 0.072 -0.094c0.015 -0.014 0.027 -0.018 0.04 -0.035 0.006 -0.008 0.012 -0.011 0.013 -0.021 0 -0.007 -0.003 -0.01 -0.005 -0.017 -0.002 -0.009 -0.005 -0.024 -0.005 -0.024 0.037 0.018 0.024 0.016 0.03 0.034 0.005 0.015 -0.001 0.025 0.001 0.041 0.003 0.018 0.011 0.026 0.013 0.045 0.002 0.022 -0.003 0.034 -0.007 0.055 -0.004 0.019 -0.003 0.031 -0.011 0.048a0.092 0.092 0 0 1 -0.028 0.038c-0.005 0.004 -0.009 0.006 -0.014 0.01l-0.003 0.025 0.027 0.009 0.039 0.011 0.009 -0.008c0.004 -0.016 -0.001 -0.039 0.01 -0.041 0.01 -0.001 0.017 0 0.019 -0.007 0.001 -0.003 0.001 -0.008 0.002 -0.015 0.005 -0.045 0.01 -0.088 0.015 -0.108 0.006 -0.023 0.005 -0.028 0.01 -0.046 0.004 -0.016 -0.002 -0.007 0.01 -0.041 0.018 -0.05 -0.005 -0.057 -0.025 -0.088 -0.011 -0.017 -0.015 -0.023 -0.017 -0.036 -0.002 -0.02 0.004 -0.036 0.003 -0.066a1.016 1.016 0 0 1 0 -0.069c0.003 -0.001 0.006 -0.003 0.008 -0.005 0.028 -0.015 0.039 -0.02 0.057 -0.059 0.006 -0.012 0.008 -0.024 0.008 -0.035 0 -0.008 -0.002 -0.016 -0.002 -0.025 -0.001 -0.01 -0.005 -0.015 -0.007 -0.023a0.076 0.076 0 0 0 -0.013 -0.02c-0.019 -0.022 -0.043 -0.027 -0.065 -0.035 -0.036 -0.013 -0.06 -0.011 -0.099 -0.014 -0.04 -0.003 -0.062 -0.004 -0.103 -0.001 -0.048 0.003 -0.075 0.012 -0.123 0.018 -0.046 0.005 -0.072 0.009 -0.118 0.01 -0.054 0.001 -0.106 -0.011 -0.139 -0.008 -0.059 0.005 -0.06 0.018 -0.149 0.026 -0.046 0.004 -0.092 0.004 -0.092 0.004l-0.052 -0.016c0.021 -0.007 0.026 -0.012 0.035 -0.025 0.006 -0.009 0.006 -0.016 0.013 -0.025 0.006 -0.007 0.011 -0.015 0.019 -0.023a0.053 0.053 0 0 0 -0.022 -0.01c-0.009 -0.002 -0.014 -0.001 -0.023 0 -0.012 0.001 -0.018 0.003 -0.029 0.008 -0.009 0.004 -0.015 0.009 -0.02 0.014 0 0 -0.031 -0.02 -0.053 -0.03 -0.027 -0.012 -0.038 -0.017 -0.072 -0.022zm0.047 0.286h0.001l-0.001 0.001 -0.001 -0.001z"/><g fill="none" stroke="#fedf00" stroke-width=".99" stroke-linecap="round"><path d="m13.65 8.628 -0.018 0.006c-0.021 0.01 -0.038 0.01 -0.062 0.012 -0.064 0.005 -0.102 -0.025 -0.168 -0.02 -0.034 0.003 -0.049 0.029 -0.083 0.037 -0.016 0.004 -0.025 0.006 -0.041 0.007l0.012 -0.025s-0.031 0.006 -0.051 0.006c-0.014 0 -0.023 -0.001 -0.037 -0.003l0.024 -0.023s-0.019 -0.003 -0.031 -0.008a0.094 0.094 0 0 1 -0.025 -0.015c0.016 -0.003 0.025 -0.005 0.041 -0.009 0.037 -0.009 0.049 -0.027 0.093 -0.032 0.028 -0.003 0.073 -0.001 0.183 0.017 0.073 0.012 0.105 0.006 0.133 -0.006 0.018 -0.008 0.024 -0.024 0.026 -0.043 0.002 -0.019 -0.01 -0.034 -0.021 -0.043 -0.003 -0.002 -0.011 -0.008 -0.026 -0.009"/><path fill="#fcd900" stroke-width="0.012240000000000001" stroke-linecap="butt" d="M12.595 8.415c-0.013 -0.002 -0.021 0 -0.032 0.007 -0.012 0.007 -0.013 0.017 -0.021 0.027 0.011 0.002 0.017 0.009 0.027 0.006 0.008 -0.002 0.013 -0.006 0.018 -0.012 0.007 -0.009 0.01 -0.016 0.01 -0.028l-0.002 0z"/><path d="M12.865 8.731s0.006 0.012 0.01 0.019c0.006 0.013 0.009 0.021 0.013 0.035 0.005 0.019 0.003 0.031 0.006 0.05 0 0.003 0.001 0.006 0.002 0.009l-0.001 0.027m0.163 -0.167 -0.008 0.032c-0.009 0.033 -0.016 0.05 -0.023 0.083 -0.001 0.006 -0.002 0.011 -0.002 0.016m-0.261 -0.096c0.019 0.004 0.013 0.081 0.043 0.098"/><path stroke-linecap="butt" d="m13.443 8.875 0.009 -0.006a0.196 0.196 0 0 0 0.065 -0.043"/><path d="M13.257 8.832c0.085 -0.021 0.142 -0.064 0.182 -0.069m-0.096 -0.037c0.007 0 0.014 -0.001 0.02 -0.002 0.035 -0.005 0.041 0.017 0.066 0.03 0.044 0.025 0.05 0.055 0.103 0.081l0.008 0.004 0.02 0.01"/><path fill="#fcd900" stroke-width="0.012240000000000001" stroke-linecap="butt" d="M12.425 8.509c0.006 0.002 0.01 0.002 0.017 0.001 0.008 -0.001 0.012 -0.006 0.02 -0.006 0.006 0 0.011 -0.001 0.017 0.003 0.003 0.002 0.005 0.005 0.007 0.008 0.002 0.004 0.004 0.007 0.003 0.011 -0.001 0.007 -0.008 0.01 -0.015 0.01 -0.006 0 -0.011 -0.001 -0.013 -0.006a0.011 0.011 0 0 1 -0.001 -0.01c-0.007 0.003 -0.012 0.003 -0.019 0 -0.007 -0.002 -0.012 -0.006 -0.015 -0.012z"/></g><g fill="#0065bd"><path d="M12.603 8.74c-0.019 -0.006 -0.047 -0.02 -0.047 -0.02 0.008 -0.006 0.014 -0.006 0.021 -0.013 0.009 -0.01 0.009 -0.019 0.014 -0.032 0.005 -0.012 0.004 -0.023 0.016 -0.032 0.007 -0.006 0.018 -0.006 0.027 -0.004 0.008 0.003 0.018 0.01 0.02 0.018 0.003 0.013 -0.004 0.021 -0.006 0.035 -0.002 0.014 -0.007 0.022 -0.005 0.035 0.002 0.009 0.006 0.012 0.009 0.022 0 0 -0.03 -0.003 -0.049 -0.009zm-0.024 0.023a0.015 0.015 0 1 1 0.03 0 0.015 0.015 0 0 1 -0.03 0zm-0.042 -0.396 -0.003 -0.002c-0.009 -0.007 -0.01 -0.016 -0.014 -0.027 -0.004 -0.011 -0.006 -0.017 -0.008 -0.028 -0.001 -0.01 0 -0.015 0 -0.025 0 -0.009 0.001 -0.014 0 -0.023 -0.001 -0.009 -0.001 -0.015 -0.005 -0.023 -0.002 -0.004 -0.01 -0.008 -0.007 -0.01 0.002 -0.002 0.006 0 0.01 0 0.01 0.001 0.015 0.004 0.023 0.01 0.009 0.007 0.013 0.014 0.016 0.025 0.004 0.013 0.006 0.022 0.01 0.035 0.002 0.007 0.003 0.011 0.007 0.018 0.004 0.006 0.007 0.009 0.012 0.015l0 0c-0.007 0.008 -0.011 0.013 -0.018 0.02 -0.007 0.006 -0.013 0.01 -0.02 0.014l-0.001 0zm0.086 0.255 0.054 0.025a0.222 0.222 0 0 0 0.084 -0.094c0.021 -0.041 0.024 -0.064 0.033 -0.103l-0.043 -0.014 -0.008 0.002c-0.013 0.041 -0.017 0.065 -0.039 0.101 -0.019 0.031 -0.041 0.055 -0.064 0.073l-0.016 0.012zm0.119 0.435c0.009 -0.012 0.012 -0.019 0.022 -0.03 0.011 -0.012 0.019 -0.017 0.031 -0.028 0.004 0 0.008 0 0.012 0.002a0.216 0.216 0 0 1 -0.012 0.066c-0.003 0.009 -0.004 0.015 -0.01 0.024 -0.004 0.005 -0.007 0.007 -0.011 0.012 -0.012 -0.018 -0.032 -0.031 -0.032 -0.046zm0.792 0.044c0.014 0.005 0.022 0.006 0.035 0.013 0.015 0.007 0.022 0.014 0.035 0.023 0 0.004 0.002 0.008 0.001 0.012a0.215 0.215 0 0 1 -0.067 0.006c-0.01 -0.001 -0.016 0 -0.025 -0.002 -0.006 -0.002 -0.009 -0.005 -0.015 -0.008 0.014 -0.017 0.021 -0.039 0.035 -0.043zm-0.234 -0.049c0.014 0.005 0.022 0.006 0.035 0.013 0.014 0.007 0.022 0.014 0.035 0.023 0 0.004 0.002 0.008 0.001 0.012a0.216 0.216 0 0 1 -0.067 0.006c-0.01 -0.001 -0.016 0 -0.025 -0.002 -0.006 -0.002 -0.009 -0.005 -0.015 -0.008 0.014 -0.017 0.021 -0.039 0.035 -0.043zm-0.416 0.051c0.014 0.005 0.022 0.006 0.035 0.013 0.015 0.007 0.022 0.014 0.035 0.023 0 0.004 0.002 0.008 0.001 0.012a0.216 0.216 0 0 1 -0.067 0.006c-0.01 -0.001 -0.016 0 -0.025 -0.002 -0.006 -0.002 -0.009 -0.005 -0.015 -0.008 0.014 -0.017 0.021 -0.039 0.035 -0.043zm-0.216 -0.715c-0.015 -0.007 -0.025 -0.025 -0.016 -0.038 0.004 -0.005 0.01 -0.004 0.014 -0.009 0.004 -0.006 0.003 -0.012 0.003 -0.02 0 -0.009 -0.003 -0.014 -0.005 -0.023 -0.002 -0.01 -0.004 -0.015 -0.003 -0.025 0 -0.015 -0.001 -0.026 0.008 -0.038 0.006 -0.008 0.016 -0.014 0.02 -0.015 0.003 0.003 -0.001 0.012 -0.001 0.02 0.001 0.011 0.003 0.017 0.007 0.028 0.005 0.013 0.011 0.019 0.017 0.033 0.005 0.012 0.01 0.019 0.01 0.033 0 0.011 0 0.018 -0.005 0.028a0.048 0.048 0 0 1 -0.015 0.02c-0.006 0.005 -0.011 0.008 -0.019 0.01 -0.006 0 -0.01 0 -0.015 -0.003z"/></g></g><use xlink:href="#b" y="36.59"/><g fill="none" stroke="#703d29" stroke-width=".8"><path d="M9.904 5.982h1.972v1.968h-1.972zm2.183 0h1.972v1.968H12.086zm-2.175 3.676c0.006 0.036 0.018 0.096 0.052 0.158 0.036 0.056 0.023 0.055 0.103 0.144 0.039 0.044 0.101 0.082 0.15 0.108 0.048 0.026 0.084 0.039 0.164 0.06 0.156 0.041 0.266 0.044 0.398 0.038 0.103 -0.004 0.181 -0.017 0.246 -0.025 0.093 -0.012 0.162 -0.02 0.267 -0.024 0.051 -0.002 0.1 -0.003 0.147 0 0.058 0.003 0.115 0.012 0.175 0.024a1.911 1.911 0 0 1 0.263 0.077l0 -2.056 -1.973 0v1.405s0.004 0.069 0.008 0.091zm4.14 0a0.498 0.498 0 0 1 -0.052 0.158c-0.036 0.056 -0.023 0.055 -0.103 0.144 -0.039 0.044 -0.101 0.082 -0.15 0.108 -0.048 0.026 -0.084 0.039 -0.164 0.06 -0.156 0.041 -0.266 0.044 -0.398 0.038 -0.103 -0.004 -0.181 -0.017 -0.246 -0.025 -0.093 -0.012 -0.162 -0.02 -0.267 -0.024a1.52 1.52 0 0 0 -0.147 0c-0.058 0.003 -0.115 0.012 -0.175 0.024 -0.131 0.026 -0.265 0.077 -0.265 0.077l0.001 -2.056 1.973 0v1.405s-0.004 0.069 -0.008 0.091z"/></g></svg>