<?xml version="1.0" encoding="UTF-8"?>
<svg xmlns="http://www.w3.org/2000/svg" xmlns:xlink="http://www.w3.org/1999/xlink" width="24px" height="16px" viewBox="0 0 32 16" version="1.1">
<g id="surface1">
<rect x="0" y="0" width="32" height="16" style="fill:rgb(78.431373%,6.27451%,18.039216%);fill-opacity:1;stroke:none;"/>
<path style=" stroke:none;fill-rule:nonzero;fill:rgb(0.392157%,12.941176%,41.176471%);fill-opacity:1;" d="M 0 0 L 16 0 L 16 8 L 0 8 Z M 0 0 "/>
<path style=" stroke:none;fill-rule:nonzero;fill:rgb(100%,100%,100%);fill-opacity:1;" d="M 0 0 L 0 0.894531 L 14.210938 8 L 16 8 L 16 7.105469 L 1.789062 0 Z M 16 0 L 16 0.894531 L 1.789062 8 L 0 8 L 0 7.105469 L 14.210938 0 Z M 16 0 "/>
<path style=" stroke:none;fill-rule:nonzero;fill:rgb(100%,100%,100%);fill-opacity:1;" d="M 6.667969 0 L 6.667969 8 L 9.332031 8 L 9.332031 0 Z M 0 2.667969 L 0 5.332031 L 16 5.332031 L 16 2.667969 Z M 0 2.667969 "/>
<path style=" stroke:none;fill-rule:nonzero;fill:rgb(78.431373%,6.27451%,18.039216%);fill-opacity:1;" d="M 0 3.199219 L 0 4.800781 L 16 4.800781 L 16 3.199219 Z M 7.199219 0 L 7.199219 8 L 8.800781 8 L 8.800781 0 Z M 0 8 L 5.332031 5.332031 L 6.527344 5.332031 L 1.191406 8 Z M 0 0 L 5.332031 2.667969 L 4.140625 2.667969 L 0 0.597656 Z M 9.472656 2.667969 L 14.808594 0 L 16 0 L 10.667969 2.667969 Z M 16 8 L 10.667969 5.332031 L 11.859375 5.332031 L 16 7.402344 Z M 16 8 "/>
<path style=" stroke:none;fill-rule:nonzero;fill:rgb(100%,100%,100%);fill-opacity:1;" d="M 27.691406 3.414062 L 27.691406 10.1875 C 27.691406 12 24.074219 12.585938 24.074219 12.585938 C 24.074219 12.585938 20.457031 12 20.457031 10.1875 L 20.457031 3.414062 Z M 27.691406 3.414062 "/>
<path style=" stroke:none;fill-rule:nonzero;fill:rgb(18.431373%,56.078431%,13.333333%);fill-opacity:1;" d="M 27.691406 10.1875 C 27.691406 12 24.074219 12.585938 24.074219 12.585938 C 24.074219 12.585938 20.457031 12 20.457031 10.1875 C 20.457031 10.1875 20.457031 10.042969 20.527344 9.960938 C 20.527344 9.960938 20.488281 10.261719 20.71875 10.488281 C 20.71875 10.488281 20.539062 10.167969 20.714844 9.851562 C 20.714844 9.851562 20.652344 10.257812 20.902344 10.492188 C 20.902344 10.492188 20.765625 10.160156 20.921875 9.789062 C 20.921875 9.789062 20.84375 10.394531 21.121094 10.515625 C 21.121094 10.515625 21.195312 10.167969 21.085938 9.945312 C 21.085938 9.945312 21.273438 10.019531 21.265625 10.527344 C 21.265625 10.527344 21.324219 10.449219 21.339844 10.085938 C 21.339844 10.085938 21.347656 10.503906 21.492188 10.601562 C 21.492188 10.601562 21.535156 10.558594 21.476562 10.367188 C 21.417969 10.179688 21.503906 10.113281 21.515625 10.117188 C 21.515625 10.117188 21.484375 10.328125 21.660156 10.484375 C 21.660156 10.484375 21.582031 10.15625 21.691406 10.113281 C 21.691406 10.113281 21.667969 10.390625 21.886719 10.449219 C 21.886719 10.449219 21.902344 10.371094 21.855469 10.28125 C 21.855469 10.28125 21.8125 10.171875 21.84375 10.089844 C 21.84375 10.089844 21.914062 10.34375 22.011719 10.386719 C 22.011719 10.386719 21.953125 10.238281 22.007812 10.089844 C 22.007812 10.089844 22.019531 10.300781 22.207031 10.386719 C 22.207031 10.386719 22.082031 10.226562 22.132812 10.046875 L 23.335938 10.105469 L 23.960938 10.136719 L 25.832031 10.003906 L 26.15625 9.726562 C 26.15625 9.726562 26.28125 9.902344 26.082031 10.183594 C 26.082031 10.183594 26.28125 10.144531 26.34375 9.832031 C 26.34375 9.832031 26.425781 10.007812 26.316406 10.199219 C 26.316406 10.199219 26.535156 9.976562 26.566406 9.726562 C 26.566406 9.726562 26.652344 9.96875 26.445312 10.230469 C 26.445312 10.230469 26.632812 10.167969 26.710938 9.890625 C 26.710938 9.890625 26.773438 10.058594 26.59375 10.292969 C 26.59375 10.292969 26.933594 10.113281 26.921875 9.742188 C 26.921875 9.742188 27.0625 9.945312 26.902344 10.226562 C 26.902344 10.226562 27.078125 10.074219 27.09375 9.84375 C 27.09375 9.84375 27.1875 9.945312 27.085938 10.234375 C 27.085938 10.234375 27.296875 10.035156 27.328125 9.820312 C 27.328125 9.820312 27.375 10.019531 27.191406 10.269531 C 27.191406 10.269531 27.316406 10.238281 27.433594 9.996094 C 27.433594 9.996094 27.464844 10.089844 27.359375 10.269531 C 27.359375 10.269531 27.472656 10.25 27.550781 10.027344 C 27.550781 10.027344 27.566406 10.160156 27.53125 10.277344 C 27.53125 10.277344 27.621094 10.21875 27.640625 9.96875 C 27.640625 9.96875 27.691406 10.050781 27.691406 10.152344 C 27.691406 10.257812 27.691406 10.1875 27.691406 10.1875 Z M 27.691406 10.1875 "/>
<path style="fill-rule:nonzero;fill:rgb(78.431373%,6.27451%,18.039216%);fill-opacity:1;stroke-width:0.831;stroke-linecap:butt;stroke-linejoin:round;stroke:rgb(0%,0%,0%);stroke-opacity:1;stroke-miterlimit:4;" d="M 807.128906 196.044922 C 807.128906 196.044922 803.222656 196.655273 798.217773 195.068359 C 793.09082 193.603516 791.137695 194.213867 789.550781 195.068359 C 789.550781 195.068359 791.503906 191.040039 786.621094 187.866211 C 786.621094 187.866211 788.208008 192.016602 786.010742 193.847656 C 786.010742 193.847656 784.912109 194.824219 783.813477 193.359375 C 783.813477 193.359375 781.982422 191.650391 780.151367 190.185547 C 780.151367 190.185547 784.423828 188.720703 783.691406 184.448242 C 782.836914 180.175781 780.517578 179.56543 779.296875 179.077148 C 779.296875 179.077148 779.785156 181.030273 779.296875 182.373047 C 779.296875 182.373047 774.658203 179.6875 781.005859 176.147461 C 787.231445 172.485352 786.132812 170.288086 784.912109 168.457031 C 783.813477 166.625977 781.494141 164.550781 780.273438 163.818359 C 780.273438 163.818359 781.494141 165.771484 781.25 167.480469 C 781.005859 169.067383 778.198242 170.166016 778.808594 167.236328 C 779.296875 164.306641 778.808594 164.794922 778.686523 161.743164 C 778.686523 161.743164 784.301758 163.574219 786.499023 158.203125 C 786.499023 158.203125 788.574219 152.587891 781.616211 149.780273 C 781.616211 149.780273 783.325195 152.099609 782.470703 153.808594 C 782.470703 153.808594 780.883789 156.616211 779.174805 154.296875 C 777.34375 151.977539 776.245117 151.611328 776.489258 148.925781 C 776.489258 148.925781 782.836914 149.780273 781.12793 142.822266 C 781.12793 142.822266 780.029297 147.460938 771.728516 141.235352 C 771.728516 141.235352 777.22168 135.742188 775.024414 131.225586 C 775.024414 131.225586 774.414062 129.150391 768.554688 130.371094 C 768.554688 130.371094 773.681641 127.197266 771.484375 124.389648 C 771.484375 124.389648 770.385742 122.680664 765.625 125 C 765.625 125 767.456055 121.826172 762.817383 118.408203 C 762.817383 118.408203 759.765625 119.995117 758.056641 121.582031 C 758.056641 121.582031 754.882812 117.553711 752.929688 115.966797 C 752.929688 115.966797 749.267578 117.30957 748.291016 121.582031 C 748.291016 121.582031 746.582031 119.506836 742.675781 118.530273 C 742.675781 118.530273 740.844727 122.070312 743.286133 125 C 743.286133 125 741.455078 125 738.15918 123.535156 C 738.15918 123.535156 734.375 121.704102 734.985352 125 C 735.473633 128.173828 735.717773 128.90625 736.572266 130.493164 C 736.572266 130.493164 728.027344 128.540039 728.393555 133.056641 C 728.637695 136.230469 729.858398 138.916016 732.421875 141.235352 C 732.421875 141.235352 727.783203 147.460938 723.632812 142.822266 C 723.632812 142.822266 722.290039 144.287109 725.341797 148.31543 C 725.341797 148.31543 728.271484 151.611328 725.830078 153.686523 C 725.830078 153.686523 722.53418 156.37207 720.825195 151.123047 C 720.825195 151.123047 715.454102 156.494141 721.801758 160.644531 C 721.801758 160.644531 725.952148 162.963867 730.102539 159.423828 C 730.102539 159.423828 728.881836 169.677734 724.853516 167.724609 C 724.853516 167.724609 722.412109 166.015625 726.68457 163.818359 C 726.68457 163.818359 720.581055 163.085938 719.482422 169.067383 C 719.482422 169.067383 718.75 173.828125 724.121094 175.537109 C 724.121094 175.537109 728.393555 177.124023 723.999023 180.297852 C 723.999023 180.297852 720.947266 182.617188 723.022461 186.157227 C 723.022461 186.157227 725.341797 189.941406 719.238281 190.307617 C 719.238281 190.307617 715.942383 190.307617 714.84375 189.819336 C 714.84375 189.819336 713.500977 192.260742 714.355469 195.068359 C 714.355469 195.068359 711.425781 192.871094 704.467773 195.3125 C 697.631836 197.875977 698.120117 196.044922 697.631836 196.899414 C 697.021484 197.631836 695.678711 200.195312 695.678711 200.195312 C 695.678711 200.195312 699.34082 204.589844 699.34082 204.467773 C 699.462891 204.345703 698.608398 209.472656 698.608398 209.472656 L 700.439453 210.327148 L 714.599609 203.979492 L 729.003906 196.533203 L 740.600586 197.265625 L 747.924805 198.974609 L 757.568359 199.707031 L 764.404297 196.044922 L 774.414062 196.044922 L 785.400391 201.416016 L 797.973633 208.984375 L 804.56543 210.083008 L 809.570312 209.838867 L 809.570312 199.707031 Z M 807.128906 196.044922 " transform="matrix(0.032,0,0,0.032,0,0)"/>
<path style="fill-rule:nonzero;fill:rgb(78.431373%,6.27451%,18.039216%);fill-opacity:1;stroke-width:0.831;stroke-linecap:butt;stroke-linejoin:round;stroke:rgb(0%,0%,0%);stroke-opacity:1;stroke-miterlimit:4;" d="M 692.993164 207.885742 C 692.993164 207.885742 698.486328 210.693359 700.805664 207.275391 C 700.805664 207.275391 703.735352 201.538086 697.143555 199.584961 C 697.143555 199.584961 700.805664 195.3125 696.899414 191.40625 C 696.899414 191.40625 694.946289 189.208984 691.40625 190.795898 C 691.40625 190.795898 689.941406 187.744141 686.523438 187.866211 C 686.523438 187.866211 683.59375 187.866211 682.495117 191.162109 C 682.495117 191.162109 678.466797 189.453125 676.147461 191.894531 C 676.147461 191.894531 672.363281 196.166992 677.612305 199.462891 L 681.396484 199.829102 L 685.180664 198.120117 L 689.331055 199.21875 C 689.331055 199.21875 688.232422 203.491211 692.993164 207.885742 Z M 692.993164 207.885742 " transform="matrix(0.032,0,0,0.032,0,0)"/>
<path style="fill-rule:nonzero;fill:rgb(39.215686%,70.588235%,81.960784%);fill-opacity:1;stroke-width:0.623;stroke-linecap:butt;stroke-linejoin:miter;stroke:rgb(0%,0%,0%);stroke-opacity:1;stroke-miterlimit:4;" d="M 815.307617 197.875977 C 822.021484 197.265625 824.34082 202.758789 824.34082 202.758789 C 827.758789 210.9375 820.43457 215.209961 820.43457 215.209961 C 820.922852 217.041016 821.044922 219.482422 821.044922 219.482422 C 831.420898 220.703125 829.589844 232.299805 829.589844 232.299805 L 826.171875 229.492188 C 820.19043 227.172852 813.964844 232.299805 809.570312 240.844727 C 805.175781 249.389648 807.250977 253.417969 807.983398 263.549805 C 808.71582 273.681641 825.195312 279.663086 825.195312 279.663086 C 825.195312 279.663086 817.382812 299.682617 812.37793 312.62207 C 807.373047 325.439453 796.75293 320.068359 793.701172 317.382812 C 790.649414 314.697266 789.916992 316.162109 788.330078 317.382812 C 786.865234 318.603516 795.288086 325.195312 779.907227 331.420898 C 764.526367 337.646484 761.84082 342.407227 759.277344 343.994141 C 756.713867 345.581055 746.09375 344.482422 744.995117 343.139648 C 744.018555 341.918945 744.628906 341.918945 740.600586 339.477539 C 736.572266 336.914062 729.858398 334.838867 722.53418 331.298828 C 715.209961 327.636719 715.332031 323.120117 715.454102 322.143555 C 715.454102 321.166992 718.017578 313.476562 709.350586 319.580078 C 700.805664 325.683594 693.481445 316.772461 693.481445 316.772461 C 691.772461 314.453125 684.570312 295.288086 684.570312 295.288086 C 682.617188 288.208008 678.833008 279.785156 678.833008 279.785156 C 679.077148 279.785156 678.466797 280.639648 684.814453 276.977539 C 691.162109 273.4375 694.091797 267.333984 696.289062 261.352539 C 698.486328 255.371094 696.289062 244.995117 695.43457 242.919922 C 694.702148 240.844727 689.941406 231.445312 684.082031 229.370117 C 678.222656 227.416992 674.316406 232.299805 674.316406 232.299805 C 674.316406 232.299805 672.485352 220.703125 682.861328 219.482422 C 682.861328 219.482422 682.861328 217.041016 683.47168 215.209961 C 683.47168 215.209961 676.147461 210.9375 679.56543 202.758789 C 679.56543 202.758789 681.884766 197.265625 688.476562 197.875977 L 686.889648 200.927734 C 686.889648 200.927734 685.180664 217.407227 709.472656 206.298828 C 733.764648 195.19043 733.032227 193.115234 746.948242 200.073242 L 756.958008 199.951172 C 756.958008 199.951172 771.606445 193.237305 776.245117 196.044922 C 780.883789 198.974609 797.729492 208.374023 797.729492 208.374023 C 797.729492 208.374023 813.964844 214.477539 817.138672 203.24707 Z M 815.307617 197.875977 " transform="matrix(0.032,0,0,0.032,0,0)"/>
<path style="fill-rule:nonzero;fill:rgb(100%,100%,100%);fill-opacity:1;stroke-width:0.831;stroke-linecap:butt;stroke-linejoin:miter;stroke:rgb(0.392157%,12.941176%,41.176471%);stroke-opacity:1;stroke-miterlimit:10;" d="M 742.30957 269.775391 C 742.30957 269.775391 741.455078 264.648438 740.600586 261.352539 C 740.600586 261.352539 738.769531 256.225586 741.821289 252.563477 L 745.605469 248.168945 C 745.605469 248.168945 748.046875 244.995117 750.976562 244.628906 C 750.976562 244.628906 753.90625 244.506836 754.150391 243.896484 C 754.516602 243.286133 757.69043 238.037109 765.258789 243.896484 C 765.258789 243.896484 767.700195 239.990234 771.484375 239.379883 C 771.484375 239.379883 775.512695 238.15918 777.46582 241.088867 C 777.46582 241.088867 781.982422 237.670898 785.888672 243.164062 C 785.888672 243.164062 791.259766 240.234375 795.166016 246.21582 C 795.166016 246.21582 800.537109 243.652344 803.833008 249.145508 C 807.128906 254.638672 806.396484 256.958008 806.396484 256.958008 L 808.837891 265.74707 L 817.504883 276.367188 L 797.485352 283.935547 L 788.452148 283.935547 L 770.507812 288.696289 L 738.647461 291.137695 L 729.736328 280.761719 Z M 742.30957 269.775391 " transform="matrix(0.032,0,0,0.032,0,0)"/>
<path style="fill-rule:nonzero;fill:rgb(78.431373%,6.27451%,18.039216%);fill-opacity:1;stroke-width:0.831;stroke-linecap:butt;stroke-linejoin:round;stroke:rgb(0%,0%,0%);stroke-opacity:1;stroke-miterlimit:4;" d="M 715.332031 322.753906 C 715.332031 322.753906 710.571289 322.998047 708.129883 324.21875 C 705.688477 325.439453 703.857422 326.782227 701.049805 328.613281 C 701.049805 328.613281 699.707031 330.322266 694.213867 329.223633 C 694.213867 329.223633 684.692383 327.026367 684.692383 334.472656 C 684.692383 334.472656 673.339844 335.327148 677.978516 345.336914 C 677.978516 345.336914 681.152344 353.149414 687.744141 347.65625 C 687.744141 347.65625 683.47168 353.637695 691.650391 355.957031 C 691.650391 355.957031 697.387695 357.421875 699.09668 351.44043 C 699.09668 351.44043 700.073242 349.121094 697.753906 346.191406 C 697.753906 346.191406 700.561523 345.581055 702.514648 342.651367 C 702.514648 342.651367 696.533203 350.219727 703.125 352.905273 C 703.125 352.905273 711.303711 354.980469 711.791992 346.435547 C 711.791992 346.435547 711.181641 342.407227 714.355469 341.064453 C 714.355469 341.064453 720.947266 339.477539 723.876953 332.15332 C 723.876953 332.15332 714.477539 327.148438 715.332031 322.753906 Z M 696.166992 247.558594 C 696.166992 247.558594 688.720703 244.140625 685.302734 247.558594 C 685.302734 247.558594 680.419922 244.506836 675.292969 247.558594 C 675.292969 247.558594 670.410156 250.732422 667.114258 254.272461 C 667.114258 254.272461 664.672852 256.225586 665.649414 262.695312 C 665.649414 262.695312 666.870117 267.211914 666.137695 269.40918 C 666.137695 269.40918 664.428711 269.165039 661.254883 272.949219 C 661.254883 272.949219 657.104492 277.709961 653.564453 273.55957 C 653.564453 273.55957 654.663086 279.296875 661.376953 278.442383 C 661.376953 278.442383 658.081055 281.005859 661.010742 287.597656 C 661.010742 287.597656 663.085938 292.358398 659.790039 298.217773 C 659.790039 298.217773 665.649414 295.898438 665.405273 288.94043 C 665.405273 288.94043 664.916992 284.179688 666.625977 280.883789 C 666.625977 280.883789 664.916992 283.935547 668.945312 290.405273 C 668.945312 290.405273 672.119141 295.043945 669.555664 299.804688 C 669.555664 299.804688 675.415039 297.729492 674.804688 290.649414 C 674.316406 283.447266 670.654297 286.499023 672.973633 279.907227 C 672.973633 279.907227 673.583984 283.325195 675.292969 284.912109 C 677.001953 286.621094 679.321289 289.428711 678.344727 294.189453 C 678.344727 294.189453 681.884766 289.794922 681.030273 285.400391 C 680.297852 280.883789 679.321289 279.541016 679.321289 279.541016 L 690.429688 273.31543 L 695.922852 263.427734 Z M 696.166992 247.558594 " transform="matrix(0.032,0,0,0.032,0,0)"/>
<path style="fill:none;stroke-width:0.831;stroke-linecap:butt;stroke-linejoin:miter;stroke:rgb(0%,0%,0%);stroke-opacity:1;stroke-miterlimit:10;" d="M 679.321289 275.634766 C 679.321289 275.634766 674.804688 275.268555 674.072266 271.728516 M 666.137695 269.40918 C 666.137695 269.40918 667.724609 269.40918 669.067383 270.751953 C 669.067383 270.751953 670.166016 272.460938 671.75293 272.216797 " transform="matrix(0.032,0,0,0.032,0,0)"/>
<path style=" stroke:none;fill-rule:nonzero;fill:rgb(0%,0%,0%);fill-opacity:1;" d="M 21.953125 8.390625 C 21.953125 8.390625 21.878906 8.390625 21.835938 8.355469 C 21.835938 8.355469 21.792969 8.324219 21.769531 8.371094 C 21.769531 8.371094 21.726562 8.441406 21.800781 8.472656 C 21.800781 8.472656 21.894531 8.515625 21.746094 8.609375 C 21.746094 8.609375 21.921875 8.546875 21.851562 8.460938 C 21.851562 8.460938 21.777344 8.410156 21.804688 8.386719 C 21.804688 8.386719 21.8125 8.371094 21.839844 8.390625 C 21.871094 8.414062 21.929688 8.40625 21.953125 8.390625 Z M 21.953125 8.390625 "/>
<path style="fill-rule:nonzero;fill:rgb(47.058824%,26.666667%,12.941176%);fill-opacity:1;stroke-width:0.623;stroke-linecap:butt;stroke-linejoin:miter;stroke:rgb(0%,0%,0%);stroke-opacity:1;stroke-miterlimit:4;" d="M 760.375977 274.169922 L 742.1875 211.303711 L 741.577148 211.425781 L 757.568359 275.146484 Z M 760.375977 274.169922 " transform="matrix(0.032,0,0,0.032,0,0)"/>
<path style=" stroke:none;fill-rule:nonzero;fill:rgb(0%,0%,0%);fill-opacity:1;" d="M 22.304688 11.03125 C 22.304688 11.03125 22.164062 10.957031 22.050781 11.046875 C 22.050781 11.046875 22.0625 10.996094 22.148438 10.972656 C 22.148438 10.972656 22.195312 10.839844 22.328125 10.851562 C 22.328125 10.851562 22.273438 10.917969 22.203125 10.972656 C 22.203125 10.972656 22.277344 10.980469 22.304688 11.03125 Z M 22.304688 11.03125 "/>
<path style="fill-rule:nonzero;fill:rgb(39.215686%,70.588235%,81.960784%);fill-opacity:1;stroke-width:0.623;stroke-linecap:butt;stroke-linejoin:miter;stroke:rgb(0.392157%,12.941176%,41.176471%);stroke-opacity:1;stroke-miterlimit:2.613;" d="M 681.884766 354.736328 C 681.884766 354.736328 675.048828 350.463867 678.710938 343.261719 C 678.710938 343.261719 679.80957 341.186523 681.884766 341.674805 C 681.884766 341.674805 686.035156 342.895508 682.739258 348.876953 C 682.739258 348.876953 681.030273 352.661133 681.884766 354.736328 Z M 695.678711 361.572266 C 695.678711 361.572266 685.913086 357.177734 688.964844 349.609375 C 688.964844 349.609375 689.819336 347.045898 692.016602 347.290039 C 692.016602 347.290039 695.800781 347.412109 694.946289 352.416992 C 694.946289 352.416992 693.847656 357.299805 695.678711 361.572266 Z M 695.678711 361.572266 " transform="matrix(0.032,0,0,0.032,0,0)"/>
<path style=" stroke:none;fill-rule:nonzero;fill:rgb(0%,0%,0%);fill-opacity:1;" d="M 22.195312 10.667969 C 22.195312 10.667969 22.101562 10.738281 22.0625 10.785156 C 22.0625 10.785156 22.027344 10.738281 21.976562 10.710938 C 21.976562 10.710938 22.035156 10.703125 22.0625 10.726562 C 22.0625 10.726562 22.113281 10.679688 22.195312 10.667969 Z M 22.195312 10.667969 "/>
<path style="fill-rule:nonzero;fill:rgb(39.215686%,70.588235%,81.960784%);fill-opacity:1;stroke-width:0.623;stroke-linecap:butt;stroke-linejoin:miter;stroke:rgb(0.392157%,12.941176%,41.176471%);stroke-opacity:1;stroke-miterlimit:2.613;" d="M 702.270508 359.619141 C 702.270508 359.619141 709.838867 357.788086 708.496094 349.853516 C 708.496094 349.853516 707.763672 346.435547 704.467773 346.923828 C 704.467773 346.923828 700.561523 347.900391 703.125 352.905273 C 703.125 352.905273 704.589844 356.445312 702.270508 359.619141 Z M 702.270508 359.619141 " transform="matrix(0.032,0,0,0.032,0,0)"/>
<path style="fill-rule:nonzero;fill:rgb(96.078431%,80.784314%,0%);fill-opacity:1;stroke-width:0.831;stroke-linecap:butt;stroke-linejoin:miter;stroke:rgb(0%,0%,0%);stroke-opacity:1;stroke-miterlimit:2.613;" d="M 736.694336 193.237305 C 736.694336 193.237305 741.577148 194.702148 744.262695 195.800781 C 744.262695 195.800781 751.342773 198.974609 760.375977 195.800781 C 760.375977 195.800781 766.479492 193.359375 767.211914 193.237305 L 762.573242 200.317383 L 762.329102 203.979492 L 765.258789 208.251953 C 765.258789 208.251953 763.549805 208.984375 758.300781 205.810547 C 758.300781 205.810547 752.441406 201.293945 745.605469 205.810547 C 745.605469 205.810547 741.821289 208.374023 738.647461 208.251953 L 743.164062 203.24707 L 741.333008 198.730469 Z M 736.694336 193.237305 " transform="matrix(0.032,0,0,0.032,0,0)"/>
<path style=" stroke:none;fill-rule:nonzero;fill:rgb(100%,100%,100%);fill-opacity:1;" d="M 22.566406 11.207031 C 22.566406 11.207031 22.574219 11.195312 22.566406 11.191406 C 22.566406 11.191406 22.554688 11.1875 22.546875 11.203125 C 22.546875 11.203125 22.519531 11.242188 22.542969 11.296875 C 22.542969 11.296875 22.5625 11.335938 22.554688 11.375 C 22.554688 11.375 22.550781 11.386719 22.5625 11.386719 C 22.5625 11.386719 22.570312 11.386719 22.570312 11.378906 C 22.570312 11.378906 22.582031 11.339844 22.5625 11.300781 C 22.5625 11.300781 22.535156 11.242188 22.566406 11.207031 Z M 22.566406 11.207031 "/>
<path style="fill-rule:nonzero;fill:rgb(78.431373%,6.27451%,18.039216%);fill-opacity:1;stroke-width:0.831;stroke-linecap:butt;stroke-linejoin:round;stroke:rgb(0%,0%,0%);stroke-opacity:1;stroke-miterlimit:4;" d="M 810.668945 207.885742 C 810.668945 207.885742 805.175781 210.693359 802.856445 207.275391 C 802.856445 207.275391 799.926758 201.538086 806.518555 199.584961 C 806.518555 199.584961 802.856445 195.3125 806.762695 191.40625 C 806.762695 191.40625 808.71582 189.208984 812.255859 190.795898 C 812.255859 190.795898 813.720703 187.744141 817.138672 187.866211 C 817.138672 187.866211 820.068359 187.866211 821.166992 191.162109 C 821.166992 191.162109 825.195312 189.453125 827.514648 191.894531 C 827.514648 191.894531 831.298828 196.166992 826.049805 199.462891 L 822.265625 199.829102 L 818.481445 198.120117 L 814.331055 199.21875 C 814.331055 199.21875 815.429688 203.491211 810.668945 207.885742 Z M 810.668945 207.885742 " transform="matrix(0.032,0,0,0.032,0,0)"/>
<path style="fill-rule:nonzero;fill:rgb(96.078431%,80.784314%,0%);fill-opacity:1;stroke-width:0.831;stroke-linecap:butt;stroke-linejoin:miter;stroke:rgb(0%,0%,0%);stroke-opacity:1;stroke-miterlimit:2.613;" d="M 767.211914 203.491211 C 767.211914 203.491211 767.089844 204.589844 765.991211 204.711914 C 765.991211 204.711914 764.892578 205.078125 764.160156 203.613281 C 764.160156 203.613281 764.038086 203.24707 764.038086 203.125 C 763.916016 202.514648 763.793945 200.561523 765.869141 198.852539 C 765.869141 198.852539 769.287109 196.044922 775.878906 199.462891 C 775.878906 199.462891 781.12793 202.026367 784.790039 204.101562 C 784.790039 204.101562 794.067383 209.228516 795.288086 209.594727 C 795.288086 209.594727 799.316406 211.669922 805.664062 211.914062 C 805.664062 211.914062 814.208984 212.524414 817.871094 206.420898 C 817.871094 206.420898 820.678711 201.904297 817.871094 198.974609 C 817.871094 198.974609 816.772461 197.631836 814.941406 197.875977 C 814.086914 197.998047 813.232422 198.364258 812.5 199.34082 C 812.5 199.34082 811.157227 201.293945 812.62207 202.758789 C 812.62207 202.758789 814.697266 203.979492 815.429688 201.293945 C 815.429688 201.293945 815.429688 201.171875 815.551758 201.416016 C 815.551758 201.538086 816.040039 203.491211 814.941406 205.200195 C 814.941406 205.200195 809.692383 213.012695 795.532227 204.956055 L 776.611328 194.335938 C 776.611328 194.335938 767.211914 189.575195 761.59668 197.143555 C 761.59668 197.143555 757.080078 203.369141 762.939453 207.519531 C 762.939453 207.519531 767.211914 210.083008 770.019531 205.932617 C 770.019531 205.932617 772.216797 201.904297 768.676758 200.073242 C 768.676758 200.073242 765.50293 198.608398 764.282227 201.782227 C 763.061523 204.956055 766.723633 205.688477 767.089844 203.491211 C 767.089844 203.491211 767.211914 203.00293 767.211914 203.491211 Z M 767.211914 203.491211 " transform="matrix(0.032,0,0,0.032,0,0)"/>
<path style="fill-rule:nonzero;fill:rgb(89.411765%,79.607843%,36.862745%);fill-opacity:1;stroke-width:0.623;stroke-linecap:butt;stroke-linejoin:miter;stroke:rgb(0%,0%,0%);stroke-opacity:1;stroke-miterlimit:2.613;" d="M 692.626953 235.839844 L 692.626953 224.121094 C 692.626953 223.144531 692.626953 222.412109 694.091797 221.191406 C 695.43457 220.092773 697.021484 218.261719 699.09668 223.388672 C 699.09668 223.388672 703.369141 218.994141 704.711914 218.261719 C 704.711914 218.261719 707.15332 216.186523 708.862305 219.238281 C 708.862305 219.238281 711.05957 215.820312 712.890625 214.96582 C 712.890625 214.96582 717.041016 212.280273 717.285156 220.458984 L 720.581055 217.407227 C 720.581055 217.407227 723.022461 215.454102 725.830078 218.261719 C 725.830078 218.261719 730.59082 222.77832 731.323242 224.121094 C 731.323242 224.121094 732.299805 225.585938 732.421875 227.783203 C 732.421875 227.783203 732.421875 230.34668 733.764648 231.811523 C 733.764648 231.811523 735.229492 233.154297 736.694336 233.398438 C 736.694336 233.398438 740.112305 233.520508 741.333008 236.694336 C 741.333008 236.694336 741.821289 236.083984 743.530273 251.464844 L 743.530273 279.418945 L 724.609375 302.001953 L 694.335938 293.334961 L 682.250977 288.330078 L 679.56543 279.418945 L 691.28418 271.972656 L 697.631836 254.760742 L 695.556641 242.675781 Z M 692.626953 235.839844 " transform="matrix(0.032,0,0,0.032,0,0)"/>
<path style="fill-rule:nonzero;fill:rgb(47.058824%,26.666667%,12.941176%);fill-opacity:1;stroke-width:0.623;stroke-linecap:butt;stroke-linejoin:miter;stroke:rgb(0%,0%,0%);stroke-opacity:1;stroke-miterlimit:4;" d="M 776.123047 250.732422 L 777.587891 248.535156 L 781.005859 245.97168 C 781.005859 245.97168 786.254883 259.643555 786.499023 262.695312 L 786.499023 266.967773 C 786.499023 266.967773 794.311523 268.920898 795.654297 281.005859 L 789.18457 292.96875 L 779.052734 287.231445 L 776.123047 285.15625 Z M 776.123047 250.732422 " transform="matrix(0.032,0,0,0.032,0,0)"/>
<path style=" stroke:none;fill-rule:nonzero;fill:rgb(100%,100%,100%);fill-opacity:1;" d="M 21.757812 11.039062 C 21.757812 11.039062 21.769531 11.023438 21.761719 11.015625 C 21.761719 11.015625 21.757812 11.011719 21.742188 11.027344 C 21.742188 11.027344 21.675781 11.101562 21.730469 11.214844 C 21.730469 11.214844 21.734375 11.230469 21.746094 11.226562 C 21.746094 11.226562 21.753906 11.222656 21.746094 11.207031 C 21.746094 11.207031 21.699219 11.113281 21.757812 11.039062 Z M 21.757812 11.039062 "/>
<path style="fill:none;stroke-width:0.831;stroke-linecap:butt;stroke-linejoin:miter;stroke:rgb(0%,0%,0%);stroke-opacity:1;stroke-miterlimit:10;" d="M 710.571289 342.651367 C 710.571289 342.651367 710.81543 341.674805 710.083008 340.454102 C 710.083008 340.454102 709.594727 339.72168 709.838867 338.623047 " transform="matrix(0.032,0,0,0.032,0,0)"/>
<path style="fill:none;stroke-width:0.623;stroke-linecap:butt;stroke-linejoin:miter;stroke:rgb(0%,0%,0%);stroke-opacity:1;stroke-miterlimit:10;" d="M 717.285156 220.458984 C 717.285156 220.458984 717.285156 223.388672 718.139648 225.585938 C 718.994141 227.783203 721.801758 231.567383 722.045898 233.520508 " transform="matrix(0.032,0,0,0.032,0,0)"/>
<path style="fill-rule:nonzero;fill:rgb(78.431373%,6.27451%,18.039216%);fill-opacity:1;stroke-width:0.831;stroke-linecap:butt;stroke-linejoin:round;stroke:rgb(0%,0%,0%);stroke-opacity:1;stroke-miterlimit:4;" d="M 788.452148 322.753906 C 788.452148 322.753906 793.212891 322.998047 795.654297 324.21875 C 798.095703 325.439453 799.926758 326.782227 802.734375 328.613281 C 802.734375 328.613281 804.077148 330.322266 809.570312 329.223633 C 809.570312 329.223633 819.091797 327.026367 819.091797 334.472656 C 819.091797 334.472656 830.566406 335.327148 825.805664 345.336914 C 825.805664 345.336914 822.631836 353.149414 816.162109 347.65625 C 816.162109 347.65625 820.3125 353.637695 812.255859 355.957031 C 812.255859 355.957031 806.396484 357.421875 804.6875 351.44043 C 804.6875 351.44043 803.833008 349.121094 806.030273 346.191406 C 806.030273 346.191406 803.222656 345.581055 801.269531 342.651367 C 801.269531 342.651367 807.250977 350.219727 800.65918 352.905273 C 800.65918 352.905273 792.480469 354.980469 791.992188 346.435547 C 791.992188 346.435547 792.724609 342.407227 789.550781 341.064453 C 789.550781 341.064453 782.958984 339.477539 780.029297 332.15332 C 780.029297 332.15332 789.428711 327.148438 788.452148 322.753906 Z M 788.452148 322.753906 " transform="matrix(0.032,0,0,0.032,0,0)"/>
<path style="fill:none;stroke-width:0.623;stroke-linecap:butt;stroke-linejoin:miter;stroke:rgb(0%,0%,0%);stroke-opacity:1;stroke-miterlimit:10;" d="M 713.500977 233.520508 L 721.313477 296.264648 M 715.332031 233.398438 L 723.999023 291.870117 M 716.918945 233.154297 L 726.928711 291.137695 " transform="matrix(0.032,0,0,0.032,0,0)"/>
<path style="fill-rule:nonzero;fill:rgb(47.058824%,26.666667%,12.941176%);fill-opacity:1;stroke-width:0.623;stroke-linecap:butt;stroke-linejoin:miter;stroke:rgb(0%,0%,0%);stroke-opacity:1;stroke-miterlimit:4;" d="M 735.595703 285.27832 L 717.407227 222.290039 L 716.674805 222.53418 L 732.788086 286.132812 Z M 735.595703 285.27832 " transform="matrix(0.032,0,0,0.032,0,0)"/>
<path style="fill:none;stroke-width:0.623;stroke-linecap:butt;stroke-linejoin:miter;stroke:rgb(0%,0%,0%);stroke-opacity:1;stroke-miterlimit:10;" d="M 722.53418 230.834961 L 740.966797 277.34375 M 721.313477 231.567383 L 739.013672 280.151367 " transform="matrix(0.032,0,0,0.032,0,0)"/>
<path style=" stroke:none;fill-rule:nonzero;fill:rgb(100%,100%,100%);fill-opacity:1;" d="M 22.148438 11.425781 C 22.148438 11.425781 22.078125 11.363281 22.089844 11.246094 C 22.089844 11.246094 22.09375 11.21875 22.082031 11.214844 C 22.082031 11.214844 22.066406 11.210938 22.066406 11.238281 C 22.066406 11.238281 22.046875 11.363281 22.128906 11.433594 C 22.128906 11.433594 22.136719 11.4375 22.144531 11.4375 C 22.144531 11.4375 22.152344 11.433594 22.148438 11.425781 Z M 22.148438 11.425781 "/>
<path style="fill:none;stroke-width:0.623;stroke-linecap:butt;stroke-linejoin:miter;stroke:rgb(0%,0%,0%);stroke-opacity:1;stroke-miterlimit:10;" d="M 723.388672 230.224609 L 742.30957 272.583008 M 718.139648 232.788086 L 729.736328 289.916992 " transform="matrix(0.032,0,0,0.032,0,0)"/>
<path style="fill-rule:nonzero;fill:rgb(96.078431%,80.784314%,0%);fill-opacity:1;stroke-width:0.831;stroke-linecap:butt;stroke-linejoin:miter;stroke:rgb(0%,0%,0%);stroke-opacity:1;stroke-miterlimit:2.613;" d="M 813.354492 275.146484 C 805.053711 270.385742 803.222656 260.009766 803.222656 260.009766 C 801.147461 249.511719 805.297852 241.333008 805.297852 241.333008 C 810.668945 229.980469 819.824219 227.783203 819.824219 227.783203 C 819.824219 227.783203 810.791016 234.130859 808.349609 242.553711 C 808.349609 242.553711 806.274414 249.633789 807.495117 256.713867 C 808.59375 263.671875 808.105469 261.84082 809.936523 267.333984 Z M 813.354492 275.146484 " transform="matrix(0.032,0,0,0.032,0,0)"/>
<path style="fill-rule:nonzero;fill:rgb(47.058824%,26.666667%,12.941176%);fill-opacity:1;stroke-width:0.38;stroke-linecap:butt;stroke-linejoin:miter;stroke:rgb(0%,0%,0%);stroke-opacity:1;stroke-miterlimit:4;" d="M 777.587891 248.535156 L 742.675781 259.643555 L 740.722656 275.146484 C 732.421875 287.109375 715.576172 289.306641 715.576172 289.306641 L 728.637695 303.222656 L 753.90625 308.47168 L 767.089844 298.339844 L 779.052734 287.231445 C 777.832031 281.37207 778.442383 272.583008 778.442383 272.583008 C 778.442383 271.118164 779.052734 267.700195 779.052734 267.700195 C 779.052734 267.700195 776.977539 253.417969 777.587891 248.535156 Z M 777.587891 248.535156 " transform="matrix(0.032,0,0,0.032,0,0)"/>
<path style="fill:none;stroke-width:0.623;stroke-linecap:butt;stroke-linejoin:miter;stroke:rgb(0%,0%,0%);stroke-opacity:1;stroke-miterlimit:10;" d="M 741.210938 271.240234 C 741.210938 271.240234 764.160156 264.038086 777.954102 258.300781 M 730.102539 284.301758 C 730.102539 284.301758 758.911133 279.174805 779.052734 267.700195 L 786.499023 262.695312 " transform="matrix(0.032,0,0,0.032,0,0)"/>
<path style="fill:none;stroke-width:0.623;stroke-linecap:butt;stroke-linejoin:miter;stroke:rgb(0%,0%,0%);stroke-opacity:1;stroke-miterlimit:10;" d="M 786.499023 266.967773 L 778.442383 272.583008 C 778.442383 272.583008 746.337891 287.353516 721.923828 287.841797 M 778.442383 283.081055 C 778.442383 283.081055 753.78418 295.776367 739.624023 296.020508 " transform="matrix(0.032,0,0,0.032,0,0)"/>
<path style="fill-rule:nonzero;fill:rgb(78.431373%,6.27451%,18.039216%);fill-opacity:1;stroke-width:0.831;stroke-linecap:butt;stroke-linejoin:round;stroke:rgb(0%,0%,0%);stroke-opacity:1;stroke-miterlimit:4;" d="M 807.861328 247.558594 C 807.861328 247.558594 815.185547 244.140625 818.725586 247.558594 C 818.725586 247.558594 823.608398 244.506836 828.735352 247.558594 C 828.735352 247.558594 833.496094 250.732422 836.914062 254.272461 C 836.914062 254.272461 839.233398 256.225586 838.378906 262.695312 C 838.378906 262.695312 837.158203 267.211914 837.890625 269.40918 C 837.890625 269.40918 839.477539 269.165039 842.773438 272.949219 C 842.773438 272.949219 846.923828 277.709961 850.463867 273.55957 C 850.463867 273.55957 849.365234 279.296875 842.529297 278.442383 C 842.529297 278.442383 845.947266 281.005859 843.017578 287.597656 C 843.017578 287.597656 840.942383 292.358398 844.238281 298.217773 C 844.238281 298.217773 838.378906 295.898438 838.623047 288.94043 C 838.623047 288.94043 839.111328 284.179688 837.402344 280.883789 C 837.402344 280.883789 839.111328 283.935547 835.083008 290.405273 C 835.083008 290.405273 831.90918 295.043945 834.472656 299.804688 C 834.472656 299.804688 828.613281 297.729492 829.223633 290.649414 C 829.711914 283.447266 833.251953 286.499023 831.054688 279.907227 C 831.054688 279.907227 830.444336 283.203125 828.735352 284.912109 C 826.904297 286.621094 824.707031 289.428711 825.683594 294.189453 C 825.683594 294.189453 822.143555 289.794922 822.998047 285.400391 C 823.730469 280.883789 824.584961 279.541016 824.584961 279.541016 L 813.598633 273.31543 L 808.105469 263.427734 Z M 807.861328 247.558594 " transform="matrix(0.032,0,0,0.032,0,0)"/>
<path style="fill-rule:nonzero;fill:rgb(100%,100%,100%);fill-opacity:1;stroke-width:0.831;stroke-linecap:butt;stroke-linejoin:miter;stroke:rgb(0.392157%,12.941176%,41.176471%);stroke-opacity:1;stroke-miterlimit:10;" d="M 682.983398 287.353516 C 682.983398 287.353516 683.959961 282.470703 688.720703 284.301758 C 688.720703 284.301758 690.307617 276.367188 698.730469 276.123047 C 707.275391 275.756836 707.763672 284.423828 707.763672 284.912109 C 707.763672 284.912109 710.205078 281.25 714.355469 281.738281 C 714.355469 281.738281 721.557617 281.25 718.87207 292.84668 L 720.214844 294.311523 C 720.214844 294.311523 725.708008 281.37207 737.060547 284.790039 C 737.060547 284.790039 748.046875 288.085938 740.966797 298.828125 C 740.966797 298.828125 746.337891 305.908203 750.976562 305.175781 C 755.615234 304.56543 759.643555 303.100586 764.282227 295.043945 C 768.798828 286.865234 779.541016 285.644531 782.226562 286.132812 C 784.912109 286.621094 787.109375 288.452148 787.475586 290.283203 C 787.475586 290.283203 793.09082 271.484375 813.476562 274.414062 L 821.533203 278.564453 L 824.584961 279.907227 L 820.068359 292.96875 L 808.837891 318.237305 L 800.292969 320.800781 L 791.503906 315.795898 L 788.330078 317.382812 L 788.085938 324.951172 L 776.367188 333.374023 L 768.310547 336.791992 L 759.277344 342.895508 L 757.202148 348.388672 C 757.202148 348.388672 752.319336 346.313477 746.704102 348.388672 L 744.873047 343.87207 L 739.624023 338.867188 L 719.238281 329.223633 L 715.576172 317.382812 L 711.914062 315.795898 L 707.763672 320.556641 L 701.660156 321.289062 L 692.626953 315.063477 Z M 682.983398 287.353516 " transform="matrix(0.032,0,0,0.032,0,0)"/>
<path style="fill:none;stroke-width:0.831;stroke-linecap:butt;stroke-linejoin:miter;stroke:rgb(0%,0%,0%);stroke-opacity:1;stroke-miterlimit:2.613;" d="M 771.484375 195.19043 C 771.484375 195.19043 763.793945 194.824219 764.038086 202.880859 " transform="matrix(0.032,0,0,0.032,0,0)"/>
<path style="fill-rule:nonzero;fill:rgb(96.078431%,80.784314%,0%);fill-opacity:1;stroke-width:0.831;stroke-linecap:butt;stroke-linejoin:miter;stroke:rgb(0%,0%,0%);stroke-opacity:1;stroke-miterlimit:2.613;" d="M 822.509766 280.517578 C 809.082031 276.367188 805.297852 261.962891 805.297852 261.962891 C 802.612305 250.976562 807.006836 241.455078 807.006836 241.455078 C 813.232422 227.050781 823.608398 227.050781 823.608398 227.050781 C 828.857422 226.928711 829.467773 231.323242 829.467773 231.323242 C 829.956055 234.49707 827.758789 235.717773 827.758789 235.717773 C 824.21875 237.670898 821.899414 234.985352 821.899414 234.985352 C 820.43457 233.032227 821.533203 231.323242 821.533203 231.323242 C 822.509766 229.980469 824.21875 230.59082 824.21875 230.59082 C 825.683594 230.957031 825.439453 232.788086 825.439453 232.788086 C 825.561523 232.788086 825.561523 232.788086 825.561523 232.788086 C 825.561523 232.788086 825.927734 230.59082 823.852539 230.46875 C 823.852539 230.46875 819.702148 229.492188 814.941406 235.473633 C 814.941406 235.473633 808.71582 243.530273 808.71582 253.78418 C 808.71582 253.78418 807.861328 273.31543 828.24707 278.320312 C 828.24707 278.320312 826.049805 281.494141 822.143555 292.84668 C 822.143555 292.84668 817.749023 307.617188 813.476562 315.429688 C 813.476562 315.429688 807.983398 326.782227 795.532227 322.143555 C 795.532227 322.143555 788.085938 318.969727 788.208008 313.598633 C 788.208008 313.598633 787.597656 308.59375 792.114258 308.227539 C 792.114258 308.227539 796.386719 307.983398 796.386719 311.645508 C 796.386719 311.645508 796.508789 315.673828 791.748047 314.819336 C 791.748047 314.819336 790.039062 314.453125 790.405273 312.744141 C 790.405273 312.744141 790.649414 311.279297 792.602539 312.011719 C 792.602539 312.011719 792.724609 312.011719 792.724609 311.889648 C 792.724609 311.889648 791.870117 311.523438 791.137695 311.767578 C 791.137695 311.767578 790.405273 312.011719 790.283203 313.232422 C 790.283203 313.232422 790.283203 314.086914 791.259766 314.697266 C 791.259766 314.697266 792.480469 315.063477 793.334961 314.941406 C 793.334961 314.941406 794.677734 317.504883 797.485352 318.359375 C 801.391602 319.580078 804.6875 318.481445 806.640625 316.772461 C 808.837891 315.063477 810.302734 312.011719 810.668945 311.279297 C 811.035156 310.546875 814.697266 302.368164 817.504883 293.701172 C 817.504883 293.701172 819.824219 286.132812 821.777344 282.104492 Z M 822.509766 280.517578 " transform="matrix(0.032,0,0,0.032,0,0)"/>
<path style="fill-rule:nonzero;fill:rgb(96.078431%,80.784314%,0%);fill-opacity:1;stroke-width:0.831;stroke-linecap:butt;stroke-linejoin:miter;stroke:rgb(0%,0%,0%);stroke-opacity:1;stroke-miterlimit:2.613;" d="M 784.423828 317.504883 C 784.423828 317.504883 786.987305 317.138672 786.987305 319.335938 C 786.987305 319.335938 786.743164 322.631836 782.836914 321.899414 C 782.836914 321.899414 778.808594 321.044922 780.273438 316.650391 C 780.273438 316.650391 781.12793 313.598633 784.912109 313.964844 C 784.912109 313.964844 788.574219 314.208984 790.161133 319.091797 C 790.161133 319.091797 791.381836 323.242188 789.306641 326.904297 C 786.987305 330.810547 781.12793 333.496094 778.198242 334.594727 C 778.198242 334.594727 766.845703 339.111328 763.549805 341.674805 C 763.549805 341.674805 758.300781 345.458984 760.620117 349.121094 C 760.620117 349.121094 761.474609 350.463867 762.817383 350.463867 C 762.817383 350.463867 764.282227 350.585938 764.648438 348.999023 C 764.648438 348.999023 764.648438 348.999023 764.526367 348.876953 C 764.526367 348.876953 764.526367 348.876953 764.526367 348.999023 C 764.526367 348.999023 764.404297 349.853516 763.671875 350.219727 C 763.671875 350.219727 762.451172 350.830078 761.352539 349.853516 C 761.352539 349.853516 760.131836 348.632812 761.108398 346.801758 C 761.108398 346.801758 762.451172 344.604492 765.625 345.947266 C 765.625 345.947266 768.432617 347.290039 767.211914 350.219727 C 767.211914 350.219727 766.235352 352.905273 762.939453 352.905273 C 762.939453 352.905273 760.375977 352.783203 758.789062 351.196289 C 756.347656 348.510742 756.103516 343.383789 758.422852 340.698242 C 758.422852 340.698242 760.498047 337.890625 764.648438 336.181641 C 767.089844 335.205078 771.606445 333.251953 776.367188 331.420898 C 779.785156 330.078125 782.836914 328.491211 784.790039 326.171875 C 784.790039 326.171875 786.621094 324.09668 787.109375 320.800781 C 787.109375 320.800781 787.597656 318.237305 786.010742 317.626953 C 786.010742 317.626953 785.27832 317.260742 784.423828 317.382812 C 784.423828 317.382812 784.301758 317.504883 784.423828 317.504883 Z M 784.423828 317.504883 " transform="matrix(0.032,0,0,0.032,0,0)"/>
<path style="fill:none;stroke-width:0.831;stroke-linecap:butt;stroke-linejoin:miter;stroke:rgb(0%,0%,0%);stroke-opacity:1;stroke-miterlimit:2.613;" d="M 784.667969 317.382812 C 784.667969 317.382812 787.475586 316.894531 789.18457 320.3125 C 789.18457 320.3125 790.161133 322.387695 790.405273 323.608398 M 791.259766 311.767578 C 791.259766 311.767578 788.452148 312.255859 789.916992 316.162109 C 791.259766 319.946289 793.823242 321.166992 794.555664 321.655273 " transform="matrix(0.032,0,0,0.032,0,0)"/>
<path style="fill-rule:nonzero;fill:rgb(96.078431%,80.784314%,0%);fill-opacity:1;stroke-width:0.831;stroke-linecap:butt;stroke-linejoin:miter;stroke:rgb(0%,0%,0%);stroke-opacity:1;stroke-miterlimit:2.613;" d="M 736.694336 203.491211 C 736.694336 203.491211 736.816406 204.589844 737.915039 204.711914 C 737.915039 204.711914 739.135742 205.078125 739.746094 203.613281 C 739.746094 203.613281 739.868164 203.24707 739.868164 203.125 C 739.990234 202.514648 740.112305 200.561523 738.037109 198.852539 C 738.037109 198.852539 734.619141 196.044922 728.027344 199.462891 C 728.027344 199.462891 722.77832 202.026367 719.116211 204.101562 C 719.116211 204.101562 709.838867 209.228516 708.618164 209.594727 C 708.618164 209.594727 704.589844 211.669922 698.242188 211.914062 C 698.242188 211.914062 689.697266 212.524414 686.035156 206.420898 C 686.035156 206.420898 683.227539 201.904297 686.035156 198.974609 C 686.035156 198.974609 687.133789 197.631836 688.964844 197.875977 C 689.819336 197.998047 690.673828 198.364258 691.40625 199.34082 C 691.40625 199.34082 692.749023 201.293945 691.28418 202.758789 C 691.28418 202.758789 689.208984 203.979492 688.476562 201.293945 C 688.476562 201.293945 688.476562 201.171875 688.354492 201.416016 C 688.354492 201.538086 687.866211 203.491211 688.964844 205.200195 C 688.964844 205.200195 694.213867 213.012695 708.374023 204.956055 L 727.294922 194.335938 C 727.294922 194.335938 736.694336 189.575195 742.30957 197.143555 C 742.30957 197.143555 746.826172 203.369141 740.966797 207.519531 C 740.966797 207.519531 736.694336 210.083008 733.886719 205.932617 C 733.886719 205.932617 731.689453 201.904297 735.229492 200.073242 C 735.229492 200.073242 738.40332 198.608398 739.624023 201.782227 C 740.844727 204.956055 737.182617 205.688477 736.816406 203.491211 C 736.816406 203.491211 736.694336 203.00293 736.694336 203.491211 Z M 690.551758 275.146484 C 698.852539 270.385742 700.683594 260.009766 700.683594 260.009766 C 702.758789 249.511719 698.608398 241.333008 698.608398 241.333008 C 693.237305 229.980469 684.082031 227.783203 684.082031 227.783203 C 684.082031 227.783203 693.115234 234.130859 695.678711 242.553711 C 695.678711 242.553711 697.631836 249.633789 696.411133 256.713867 C 695.3125 263.671875 695.800781 261.84082 694.091797 267.333984 Z M 690.551758 275.146484 " transform="matrix(0.032,0,0,0.032,0,0)"/>
<path style="fill:none;stroke-width:0.831;stroke-linecap:butt;stroke-linejoin:miter;stroke:rgb(0%,0%,0%);stroke-opacity:1;stroke-miterlimit:2.613;" d="M 732.421875 195.19043 C 732.421875 195.19043 740.234375 194.824219 739.868164 202.880859 " transform="matrix(0.032,0,0,0.032,0,0)"/>
<path style="fill-rule:nonzero;fill:rgb(96.078431%,80.784314%,0%);fill-opacity:1;stroke-width:0.831;stroke-linecap:butt;stroke-linejoin:miter;stroke:rgb(0%,0%,0%);stroke-opacity:1;stroke-miterlimit:2.613;" d="M 681.396484 280.517578 C 694.824219 276.367188 698.608398 261.962891 698.608398 261.962891 C 701.293945 250.976562 696.899414 241.455078 696.899414 241.455078 C 690.673828 227.050781 680.297852 227.050781 680.297852 227.050781 C 675.048828 226.928711 674.438477 231.323242 674.438477 231.323242 C 673.950195 234.49707 676.147461 235.717773 676.147461 235.717773 C 679.6875 237.670898 682.006836 234.985352 682.006836 234.985352 C 683.47168 233.032227 682.373047 231.323242 682.373047 231.323242 C 681.396484 229.980469 679.6875 230.59082 679.6875 230.59082 C 678.222656 230.957031 678.466797 232.788086 678.466797 232.788086 C 678.466797 232.788086 678.344727 232.788086 678.344727 232.788086 C 678.344727 232.788086 677.978516 230.59082 680.053711 230.46875 C 680.053711 230.46875 684.204102 229.492188 688.964844 235.473633 C 688.964844 235.473633 695.19043 243.530273 695.19043 253.78418 C 695.19043 253.78418 696.044922 273.31543 675.65918 278.320312 C 675.65918 278.320312 677.856445 281.494141 681.762695 292.84668 C 681.762695 292.84668 686.157227 307.617188 690.429688 315.429688 C 690.429688 315.429688 695.922852 326.782227 708.374023 322.143555 C 708.374023 322.143555 715.820312 318.969727 715.820312 313.598633 C 715.820312 313.598633 716.308594 308.59375 711.791992 308.227539 C 711.791992 308.227539 707.519531 307.983398 707.519531 311.645508 C 707.519531 311.645508 707.397461 315.673828 712.158203 314.819336 C 712.158203 314.819336 713.867188 314.453125 713.500977 312.744141 C 713.500977 312.744141 713.256836 311.279297 711.303711 312.011719 C 711.303711 312.011719 711.181641 312.011719 711.181641 311.889648 C 711.181641 311.889648 712.036133 311.523438 712.768555 311.767578 C 712.768555 311.767578 713.500977 312.011719 713.623047 313.232422 C 713.623047 313.232422 713.623047 314.086914 712.646484 314.697266 C 712.646484 314.697266 711.547852 315.063477 710.571289 314.941406 C 710.571289 314.941406 709.350586 317.504883 706.420898 318.359375 C 702.514648 319.580078 699.21875 318.481445 697.265625 316.772461 C 695.068359 315.063477 693.603516 312.011719 693.237305 311.279297 C 692.871094 310.546875 689.208984 302.368164 686.401367 293.701172 C 686.401367 293.701172 684.082031 286.132812 682.128906 282.104492 Z M 681.396484 280.517578 " transform="matrix(0.032,0,0,0.032,0,0)"/>
<path style="fill-rule:nonzero;fill:rgb(96.078431%,80.784314%,0%);fill-opacity:1;stroke-width:0.831;stroke-linecap:butt;stroke-linejoin:miter;stroke:rgb(0%,0%,0%);stroke-opacity:1;stroke-miterlimit:2.613;" d="M 719.482422 317.504883 C 719.482422 317.504883 716.918945 317.138672 716.918945 319.335938 C 716.918945 319.335938 717.163086 322.631836 721.069336 321.899414 C 721.069336 321.899414 725.097656 321.044922 723.632812 316.650391 C 723.632812 316.650391 722.77832 313.598633 718.994141 313.964844 C 718.994141 313.964844 715.332031 314.208984 713.745117 319.091797 C 713.745117 319.091797 712.524414 323.242188 714.599609 326.904297 C 716.918945 330.810547 722.77832 333.496094 725.708008 334.594727 C 725.708008 334.594727 737.060547 339.111328 740.356445 341.674805 C 740.356445 341.674805 745.605469 345.458984 743.286133 349.121094 C 743.286133 349.121094 742.431641 350.463867 741.088867 350.463867 C 741.088867 350.463867 739.624023 350.585938 739.257812 348.999023 C 739.257812 348.999023 739.257812 348.999023 739.379883 348.876953 C 739.379883 348.876953 739.379883 348.876953 739.379883 348.999023 C 739.379883 348.999023 739.501953 349.853516 740.356445 350.219727 C 740.356445 350.219727 741.455078 350.830078 742.553711 349.853516 C 742.553711 349.853516 743.774414 348.632812 742.797852 346.801758 C 742.797852 346.801758 741.455078 344.604492 738.28125 345.947266 C 738.28125 345.947266 735.473633 347.290039 736.694336 350.219727 C 736.694336 350.219727 737.670898 352.905273 740.966797 352.905273 C 740.966797 352.905273 743.530273 352.783203 745.117188 351.196289 C 747.558594 348.510742 747.802734 343.383789 745.605469 340.698242 C 745.605469 340.698242 743.408203 337.890625 739.257812 336.181641 C 736.816406 335.205078 732.299805 333.251953 727.539062 331.420898 C 724.121094 330.078125 721.069336 328.491211 719.116211 326.171875 C 719.116211 326.171875 717.285156 324.09668 716.796875 320.800781 C 716.796875 320.800781 716.308594 318.237305 717.895508 317.626953 C 717.895508 317.626953 718.62793 317.260742 719.482422 317.382812 C 719.482422 317.382812 719.604492 317.504883 719.482422 317.504883 Z M 719.482422 317.504883 " transform="matrix(0.032,0,0,0.032,0,0)"/>
<path style="fill:none;stroke-width:0.831;stroke-linecap:butt;stroke-linejoin:miter;stroke:rgb(0%,0%,0%);stroke-opacity:1;stroke-miterlimit:2.613;" d="M 719.238281 317.382812 C 719.238281 317.382812 716.430664 316.894531 714.72168 320.3125 C 714.72168 320.3125 713.745117 322.387695 713.500977 323.608398 M 712.646484 311.767578 C 712.646484 311.767578 715.454102 312.255859 713.989258 316.162109 C 712.646484 319.946289 710.083008 321.166992 709.350586 321.655273 M 745.239258 202.392578 C 745.239258 202.392578 751.953125 198.120117 758.911133 202.880859 " transform="matrix(0.032,0,0,0.032,0,0)"/>
<path style="fill:none;stroke-width:0.623;stroke-linecap:butt;stroke-linejoin:miter;stroke:rgb(0%,0%,0%);stroke-opacity:1;stroke-miterlimit:2.613;" d="M 706.787109 243.652344 C 706.787109 243.652344 707.763672 239.868164 703.491211 233.276367 C 703.491211 233.276367 700.683594 227.294922 699.09668 223.388672 M 708.862305 219.238281 C 708.862305 219.238281 711.303711 225.219727 712.158203 227.783203 C 712.158203 227.783203 715.087891 235.229492 715.820312 236.816406 " transform="matrix(0.032,0,0,0.032,0,0)"/>
<path style="fill:none;stroke-width:0.623;stroke-linecap:butt;stroke-linejoin:miter;stroke:rgb(0%,0%,0%);stroke-opacity:1;stroke-miterlimit:10;" d="M 710.083008 247.802734 C 710.083008 247.802734 712.646484 250.488281 712.280273 255.126953 M 701.660156 244.873047 C 701.660156 244.873047 704.467773 246.21582 704.223633 253.662109 C 704.223633 253.662109 703.979492 259.155273 708.251953 261.84082 M 701.293945 263.793945 C 701.293945 263.793945 710.083008 262.817383 710.571289 268.188477 C 710.571289 268.188477 710.693359 273.4375 713.745117 273.925781 C 713.745117 273.925781 718.139648 274.414062 719.116211 278.564453 M 704.101562 269.775391 C 704.101562 269.775391 705.566406 272.094727 707.03125 273.071289 M 715.332031 264.038086 C 715.332031 264.038086 717.529297 267.456055 717.895508 269.40918 M 724.975586 223.388672 C 724.975586 223.388672 727.050781 226.196289 729.003906 227.539062 M 733.154297 239.990234 C 733.154297 239.990234 737.548828 242.06543 736.816406 253.051758 C 736.816406 253.051758 736.206055 259.521484 738.037109 263.061523 " transform="matrix(0.032,0,0,0.032,0,0)"/>
<path style="fill-rule:nonzero;fill:rgb(47.058824%,26.666667%,12.941176%);fill-opacity:1;stroke-width:0.623;stroke-linecap:butt;stroke-linejoin:miter;stroke:rgb(0%,0%,0%);stroke-opacity:1;stroke-miterlimit:4;" d="M 712.646484 232.543945 L 712.890625 233.520508 C 712.890625 233.520508 720.703125 233.886719 724.975586 228.515625 L 724.487305 227.539062 C 724.487305 227.539062 717.651367 227.172852 712.646484 232.543945 Z M 712.646484 232.543945 " transform="matrix(0.032,0,0,0.032,0,0)"/>
<path style="fill:none;stroke-width:0.623;stroke-linecap:butt;stroke-linejoin:miter;stroke:rgb(0%,0%,0%);stroke-opacity:1;stroke-miterlimit:10;" d="M 740.844727 274.414062 C 740.844727 274.414062 767.822266 266.357422 778.320312 261.71875 " transform="matrix(0.032,0,0,0.032,0,0)"/>
<path style="fill-rule:nonzero;fill:rgb(47.058824%,26.666667%,12.941176%);fill-opacity:1;stroke-width:0.38;stroke-linecap:butt;stroke-linejoin:miter;stroke:rgb(0%,0%,0%);stroke-opacity:1;stroke-miterlimit:4;" d="M 737.548828 223.632812 L 750.976562 218.62793 L 751.342773 219.482422 L 737.915039 224.609375 Z M 737.548828 223.632812 " transform="matrix(0.032,0,0,0.032,0,0)"/>
<path style="fill:none;stroke-width:0.623;stroke-linecap:butt;stroke-linejoin:miter;stroke:rgb(0%,0%,0%);stroke-opacity:1;stroke-miterlimit:10;" d="M 739.013672 224.121094 L 747.924805 267.700195 M 740.600586 223.510742 L 750.732422 266.845703 M 742.30957 222.900391 L 753.417969 265.869141 M 746.704102 221.191406 L 761.84082 253.540039 M 748.657227 220.458984 L 764.892578 252.563477 M 750.12207 219.970703 L 767.700195 251.708984 M 747.314453 268.066406 L 754.150391 265.74707 M 742.06543 263.671875 C 742.06543 263.671875 762.207031 257.8125 777.46582 251.708984 M 741.821289 265.869141 C 741.821289 265.869141 767.333984 259.155273 777.46582 254.272461 M 749.633789 286.621094 L 750.976562 290.771484 L 754.638672 289.550781 L 753.417969 285.522461 M 759.887695 283.691406 L 761.230469 287.841797 L 764.892578 286.621094 L 763.671875 282.592773 M 742.675781 259.643555 L 742.30957 254.02832 L 775.756836 243.896484 L 777.587891 248.535156 M 756.469727 249.755859 L 758.300781 254.638672 M 768.188477 246.21582 L 770.263672 250.854492 M 770.996094 245.361328 L 772.949219 249.755859 M 773.55957 244.628906 L 775.634766 249.145508 M 775.756836 243.896484 L 779.418945 241.821289 L 781.005859 245.97168 M 777.587891 242.919922 L 779.418945 247.070312 " transform="matrix(0.032,0,0,0.032,0,0)"/>
<path style="fill:none;stroke-width:0.831;stroke-linecap:butt;stroke-linejoin:miter;stroke:rgb(0.392157%,12.941176%,41.176471%);stroke-opacity:1;stroke-miterlimit:10;" d="M 694.702148 306.518555 C 694.702148 306.518555 688.110352 299.926758 694.702148 293.457031 C 694.702148 293.457031 687.5 289.916992 688.720703 284.301758 M 706.298828 311.767578 C 706.298828 311.767578 699.584961 312.744141 701.538086 299.560547 C 701.538086 299.560547 698.730469 304.6875 697.753906 307.373047 C 697.021484 309.448242 697.509766 312.62207 700.439453 314.453125 C 701.538086 315.185547 707.641602 316.772461 709.594727 312.744141 M 698.730469 291.625977 C 698.730469 291.625977 696.044922 294.189453 697.998047 298.828125 M 701.660156 292.236328 C 701.660156 292.236328 701.904297 296.75293 704.223633 299.316406 M 703.491211 290.405273 C 703.491211 290.405273 703.491211 295.776367 707.397461 299.072266 M 705.444336 288.574219 C 705.444336 288.574219 705.444336 294.555664 709.960938 298.217773 M 727.539062 297.363281 C 727.539062 297.363281 729.736328 292.480469 734.49707 292.724609 C 734.49707 292.724609 732.177734 293.701172 732.177734 296.020508 C 732.177734 296.020508 731.933594 299.804688 735.961914 300.170898 C 735.961914 300.170898 739.257812 300.537109 740.966797 298.828125 " transform="matrix(0.032,0,0,0.032,0,0)"/>
<path style="fill:none;stroke-width:0.831;stroke-linecap:butt;stroke-linejoin:miter;stroke:rgb(0.392157%,12.941176%,41.176471%);stroke-opacity:1;stroke-miterlimit:10;" d="M 738.647461 319.702148 C 738.647461 319.702148 727.050781 314.208984 728.271484 306.396484 C 728.271484 306.396484 728.759766 301.635742 733.398438 299.316406 M 730.957031 304.321289 C 730.957031 304.321289 729.980469 307.739258 732.177734 310.058594 M 733.520508 302.001953 C 733.520508 302.001953 732.177734 305.664062 734.49707 308.47168 M 736.328125 300.170898 C 736.328125 300.170898 734.741211 303.222656 736.694336 306.030273 M 725.708008 320.556641 C 725.708008 320.556641 732.177734 326.049805 737.060547 326.049805 M 723.754883 322.265625 C 723.754883 322.265625 729.736328 327.026367 733.398438 327.758789 M 721.557617 323.608398 C 721.557617 323.608398 728.881836 330.078125 733.398438 330.566406 M 751.342773 336.547852 C 751.342773 336.547852 744.140625 340.332031 749.755859 344.482422 M 746.826172 332.15332 C 746.826172 332.15332 755.004883 327.880859 758.544922 326.293945 M 749.755859 334.472656 C 749.755859 334.472656 761.59668 327.270508 765.014648 325.683594 M 755.859375 334.838867 C 755.859375 334.838867 765.869141 328.125 771.362305 325.195312 M 762.451172 334.716797 C 762.451172 334.716797 769.40918 329.223633 776.245117 325.195312 M 778.564453 318.359375 C 778.564453 318.359375 775.146484 313.354492 763.916016 318.359375 C 763.916016 318.359375 768.066406 314.697266 776.245117 311.767578 M 787.475586 290.283203 C 787.475586 290.283203 788.452148 294.311523 787.475586 296.875 " transform="matrix(0.032,0,0,0.032,0,0)"/>
<path style="fill:none;stroke-width:0.831;stroke-linecap:butt;stroke-linejoin:miter;stroke:rgb(0.392157%,12.941176%,41.176471%);stroke-opacity:1;stroke-miterlimit:10;" d="M 769.287109 309.936523 C 769.287109 309.936523 771.606445 306.518555 777.587891 304.80957 C 777.587891 304.80957 779.174805 308.837891 783.813477 307.983398 C 783.813477 307.983398 790.771484 306.518555 788.696289 298.950195 C 788.696289 298.950195 787.231445 293.212891 779.296875 292.724609 M 802.856445 283.081055 C 802.856445 283.081055 811.035156 284.545898 810.913086 291.137695 C 810.913086 291.137695 811.523438 301.025391 801.147461 302.978516 M 809.692383 287.231445 C 809.692383 287.231445 811.889648 282.348633 816.894531 280.395508 M 810.913086 277.587891 C 810.913086 277.587891 813.110352 281.12793 814.575195 281.616211 M 809.692383 280.395508 C 809.692383 280.395508 811.767578 282.958984 812.5 283.325195 M 809.082031 282.836914 C 809.082031 282.836914 810.180664 284.423828 811.157227 284.912109 M 767.456055 244.628906 C 767.456055 244.628906 769.042969 242.06543 772.949219 243.041992 M 788.94043 263.671875 C 788.94043 263.671875 791.381836 253.417969 800.048828 257.202148 M 796.508789 256.347656 C 796.508789 256.347656 797.363281 251.586914 795.288086 249.145508 M 790.649414 255.981445 C 790.649414 255.981445 791.748047 257.93457 790.771484 259.643555 " transform="matrix(0.032,0,0,0.032,0,0)"/>
<path style="fill-rule:nonzero;fill:rgb(39.215686%,70.588235%,81.960784%);fill-opacity:1;stroke-width:0.623;stroke-linecap:butt;stroke-linejoin:miter;stroke:rgb(0.392157%,12.941176%,41.176471%);stroke-opacity:1;stroke-miterlimit:2.613;" d="M 808.227539 361.572266 C 808.227539 361.572266 817.871094 357.177734 814.941406 349.609375 C 814.941406 349.609375 813.964844 347.045898 811.889648 347.290039 C 811.889648 347.290039 808.105469 347.412109 808.837891 352.416992 C 808.837891 352.416992 809.936523 357.299805 808.227539 361.572266 Z M 808.227539 361.572266 " transform="matrix(0.032,0,0,0.032,0,0)"/>
<path style=" stroke:none;fill-rule:nonzero;fill:rgb(100%,100%,100%);fill-opacity:1;" d="M 25.976562 11.425781 C 25.976562 11.425781 26.042969 11.363281 26.035156 11.246094 C 26.035156 11.246094 26.03125 11.21875 26.042969 11.214844 C 26.042969 11.214844 26.054688 11.210938 26.058594 11.238281 C 26.058594 11.238281 26.078125 11.363281 25.992188 11.433594 C 25.992188 11.433594 25.988281 11.4375 25.980469 11.4375 C 25.980469 11.4375 25.96875 11.433594 25.976562 11.425781 Z M 25.976562 11.425781 "/>
<path style="fill-rule:nonzero;fill:rgb(39.215686%,70.588235%,81.960784%);fill-opacity:1;stroke-width:0.623;stroke-linecap:butt;stroke-linejoin:miter;stroke:rgb(0.392157%,12.941176%,41.176471%);stroke-opacity:1;stroke-miterlimit:2.613;" d="M 822.021484 354.736328 C 822.021484 354.736328 828.857422 350.463867 825.195312 343.261719 C 825.195312 343.261719 824.09668 341.186523 822.021484 341.674805 C 822.021484 341.674805 817.749023 342.895508 821.044922 348.876953 C 821.044922 348.876953 822.753906 352.661133 822.021484 354.736328 Z M 822.021484 354.736328 " transform="matrix(0.032,0,0,0.032,0,0)"/>
<path style=" stroke:none;fill-rule:nonzero;fill:rgb(100%,100%,100%);fill-opacity:1;" d="M 26.359375 11.039062 C 26.359375 11.039062 26.347656 11.023438 26.355469 11.015625 C 26.355469 11.015625 26.359375 11.011719 26.375 11.027344 C 26.375 11.027344 26.441406 11.101562 26.386719 11.214844 C 26.386719 11.214844 26.382812 11.230469 26.371094 11.226562 C 26.371094 11.226562 26.363281 11.222656 26.371094 11.207031 C 26.371094 11.207031 26.417969 11.113281 26.359375 11.039062 Z M 26.359375 11.039062 "/>
<path style="fill-rule:nonzero;fill:rgb(39.215686%,70.588235%,81.960784%);fill-opacity:1;stroke-width:0.623;stroke-linecap:butt;stroke-linejoin:miter;stroke:rgb(0.392157%,12.941176%,41.176471%);stroke-opacity:1;stroke-miterlimit:2.613;" d="M 801.635742 359.619141 C 801.635742 359.619141 793.945312 357.788086 795.410156 349.853516 C 795.410156 349.853516 796.142578 346.435547 799.316406 346.923828 C 799.316406 346.923828 803.222656 347.900391 800.65918 352.905273 C 800.65918 352.905273 799.194336 356.445312 801.635742 359.619141 Z M 801.635742 359.619141 " transform="matrix(0.032,0,0,0.032,0,0)"/>
<path style=" stroke:none;fill-rule:nonzero;fill:rgb(100%,100%,100%);fill-opacity:1;" d="M 25.558594 11.207031 C 25.558594 11.207031 25.546875 11.195312 25.558594 11.191406 C 25.558594 11.191406 25.570312 11.1875 25.578125 11.203125 C 25.578125 11.203125 25.601562 11.242188 25.582031 11.296875 C 25.582031 11.296875 25.558594 11.335938 25.570312 11.375 C 25.570312 11.375 25.570312 11.386719 25.5625 11.386719 C 25.5625 11.386719 25.554688 11.386719 25.550781 11.378906 C 25.550781 11.378906 25.539062 11.339844 25.5625 11.300781 C 25.5625 11.300781 25.585938 11.242188 25.558594 11.207031 Z M 25.558594 11.207031 "/>
<path style=" stroke:none;fill-rule:nonzero;fill:rgb(0%,0%,0%);fill-opacity:1;" d="M 25.828125 11.03125 C 25.828125 11.03125 25.964844 10.957031 26.078125 11.046875 C 26.078125 11.046875 26.066406 10.996094 25.980469 10.972656 C 25.980469 10.972656 25.933594 10.839844 25.800781 10.851562 C 25.800781 10.851562 25.855469 10.917969 25.925781 10.972656 C 25.925781 10.972656 25.851562 10.980469 25.828125 11.03125 Z M 25.929688 10.667969 C 25.929688 10.667969 26.019531 10.738281 26.058594 10.785156 C 26.058594 10.785156 26.097656 10.738281 26.148438 10.710938 C 26.148438 10.710938 26.089844 10.703125 26.058594 10.726562 C 26.058594 10.726562 26.011719 10.679688 25.929688 10.667969 Z M 25.929688 10.667969 "/>
<path style="fill:none;stroke-width:0.831;stroke-linecap:butt;stroke-linejoin:miter;stroke:rgb(0%,0%,0%);stroke-opacity:1;stroke-miterlimit:10;" d="M 793.334961 342.651367 C 793.334961 342.651367 792.96875 341.674805 793.701172 340.454102 C 793.701172 340.454102 794.189453 339.72168 794.067383 338.623047 M 824.584961 275.634766 C 824.584961 275.634766 829.223633 275.268555 829.956055 271.728516 M 837.890625 269.40918 C 837.890625 269.40918 836.303711 269.40918 834.838867 270.751953 C 834.838867 270.751953 833.740234 272.460938 832.275391 272.216797 " transform="matrix(0.032,0,0,0.032,0,0)"/>
<path style=" stroke:none;fill-rule:nonzero;fill:rgb(0%,0%,0%);fill-opacity:1;" d="M 26.171875 8.390625 C 26.171875 8.390625 26.25 8.390625 26.289062 8.355469 C 26.289062 8.355469 26.335938 8.324219 26.359375 8.371094 C 26.359375 8.371094 26.402344 8.441406 26.328125 8.472656 C 26.328125 8.472656 26.234375 8.515625 26.378906 8.609375 C 26.378906 8.609375 26.207031 8.546875 26.277344 8.460938 C 26.277344 8.460938 26.351562 8.410156 26.324219 8.386719 C 26.324219 8.386719 26.316406 8.371094 26.285156 8.390625 C 26.257812 8.414062 26.195312 8.40625 26.171875 8.390625 Z M 26.171875 8.390625 "/>
<path style="fill-rule:nonzero;fill:rgb(39.215686%,70.588235%,81.960784%);fill-opacity:1;stroke-width:0.623;stroke-linecap:butt;stroke-linejoin:miter;stroke:rgb(0.392157%,12.941176%,41.176471%);stroke-opacity:1;stroke-miterlimit:2.613;" d="M 821.166992 204.956055 C 821.166992 204.956055 822.143555 203.491211 821.777344 199.21875 C 821.289062 194.824219 825.073242 194.335938 826.538086 195.556641 C 826.538086 195.556641 828.125 196.899414 826.660156 199.584961 C 825.927734 201.171875 824.584961 203.24707 821.166992 204.956055 Z M 821.166992 204.956055 " transform="matrix(0.032,0,0,0.032,0,0)"/>
<path style=" stroke:none;fill-rule:nonzero;fill:rgb(100%,100%,100%);fill-opacity:1;" d="M 26.320312 6.457031 C 26.320312 6.457031 26.367188 6.40625 26.34375 6.300781 C 26.34375 6.300781 26.34375 6.289062 26.351562 6.289062 C 26.351562 6.289062 26.363281 6.285156 26.363281 6.296875 C 26.363281 6.296875 26.390625 6.410156 26.335938 6.472656 C 26.335938 6.472656 26.328125 6.480469 26.320312 6.472656 C 26.320312 6.472656 26.316406 6.464844 26.320312 6.457031 Z M 26.320312 6.457031 "/>
<path style="fill-rule:nonzero;fill:rgb(39.215686%,70.588235%,81.960784%);fill-opacity:1;stroke-width:0.623;stroke-linecap:butt;stroke-linejoin:miter;stroke:rgb(0.392157%,12.941176%,41.176471%);stroke-opacity:1;stroke-miterlimit:2.613;" d="M 819.946289 203.369141 C 819.946289 203.369141 819.824219 201.660156 816.772461 198.608398 C 813.720703 195.678711 816.28418 192.871094 818.115234 192.871094 C 818.115234 192.871094 820.068359 192.993164 820.678711 195.922852 C 821.166992 197.631836 821.411133 199.951172 819.946289 203.369141 Z M 819.946289 203.369141 " transform="matrix(0.032,0,0,0.032,0,0)"/>
<path style=" stroke:none;fill-rule:nonzero;fill:rgb(100%,100%,100%);fill-opacity:1;" d="M 26.222656 6.386719 C 26.222656 6.386719 26.222656 6.316406 26.136719 6.246094 C 26.136719 6.246094 26.128906 6.238281 26.132812 6.234375 C 26.132812 6.234375 26.140625 6.222656 26.148438 6.230469 C 26.148438 6.230469 26.242188 6.304688 26.246094 6.390625 C 26.246094 6.390625 26.242188 6.402344 26.234375 6.398438 C 26.234375 6.398438 26.222656 6.398438 26.222656 6.386719 Z M 26.222656 6.386719 "/>
<path style="fill-rule:nonzero;fill:rgb(39.215686%,70.588235%,81.960784%);fill-opacity:1;stroke-width:0.623;stroke-linecap:butt;stroke-linejoin:miter;stroke:rgb(0.392157%,12.941176%,41.176471%);stroke-opacity:1;stroke-miterlimit:2.613;" d="M 815.795898 202.026367 C 815.795898 202.026367 814.941406 200.683594 811.279297 199.34082 C 807.495117 197.998047 808.47168 194.702148 810.058594 193.969727 C 810.058594 193.969727 811.767578 193.237305 813.476562 195.43457 C 814.453125 196.777344 815.673828 198.608398 815.795898 202.026367 Z M 815.795898 202.026367 " transform="matrix(0.032,0,0,0.032,0,0)"/>
<path style=" stroke:none;fill-rule:nonzero;fill:rgb(100%,100%,100%);fill-opacity:1;" d="M 26.050781 6.382812 C 26.050781 6.382812 26.023438 6.320312 25.914062 6.292969 C 25.914062 6.292969 25.90625 6.285156 25.90625 6.28125 C 25.90625 6.28125 25.910156 6.269531 25.917969 6.273438 C 25.917969 6.273438 26.039062 6.300781 26.074219 6.375 C 26.074219 6.375 26.078125 6.386719 26.066406 6.390625 C 26.066406 6.390625 26.058594 6.394531 26.050781 6.382812 Z M 26.050781 6.382812 "/>
<path style="fill-rule:nonzero;fill:rgb(39.215686%,70.588235%,81.960784%);fill-opacity:1;stroke-width:0.623;stroke-linecap:butt;stroke-linejoin:miter;stroke:rgb(0.392157%,12.941176%,41.176471%);stroke-opacity:1;stroke-miterlimit:2.613;" d="M 818.115234 203.491211 C 818.115234 203.491211 816.40625 203.979492 812.37793 202.026367 C 808.349609 200.073242 806.640625 203.491211 807.250977 205.322266 C 807.250977 205.322266 807.983398 207.15332 811.157227 206.90918 C 812.988281 206.665039 815.307617 206.176758 818.115234 203.491211 Z M 818.115234 203.491211 " transform="matrix(0.032,0,0,0.032,0,0)"/>
<path style=" stroke:none;fill-rule:nonzero;fill:rgb(100%,100%,100%);fill-opacity:1;" d="M 25.882812 6.554688 C 25.882812 6.554688 25.941406 6.589844 26.046875 6.546875 C 26.046875 6.546875 26.054688 6.546875 26.058594 6.550781 C 26.058594 6.550781 26.0625 6.5625 26.050781 6.566406 C 26.050781 6.566406 25.941406 6.609375 25.867188 6.570312 C 25.867188 6.570312 25.855469 6.5625 25.863281 6.554688 C 25.863281 6.554688 25.871094 6.546875 25.882812 6.554688 Z M 25.882812 6.554688 "/>
<path style="fill:none;stroke-width:0.831;stroke-linecap:butt;stroke-linejoin:miter;stroke:rgb(0%,0%,0%);stroke-opacity:1;stroke-miterlimit:2.613;" d="M 812.255859 190.795898 C 812.255859 190.795898 814.208984 191.772461 813.842773 194.091797 " transform="matrix(0.032,0,0,0.032,0,0)"/>
<path style="fill:none;stroke-width:0.831;stroke-linecap:butt;stroke-linejoin:miter;stroke:rgb(0%,0%,0%);stroke-opacity:1;stroke-miterlimit:10;" d="M 821.166992 191.162109 C 821.166992 191.162109 821.899414 193.603516 821.044922 194.946289 " transform="matrix(0.032,0,0,0.032,0,0)"/>
<path style="fill-rule:nonzero;fill:rgb(39.215686%,70.588235%,81.960784%);fill-opacity:1;stroke-width:0.623;stroke-linecap:butt;stroke-linejoin:miter;stroke:rgb(0.392157%,12.941176%,41.176471%);stroke-opacity:1;stroke-miterlimit:2.613;" d="M 682.495117 204.956055 C 682.495117 204.956055 681.518555 203.491211 681.884766 199.21875 C 682.373047 194.824219 678.588867 194.335938 677.124023 195.556641 C 677.124023 195.556641 675.537109 196.899414 677.001953 199.584961 C 677.734375 201.171875 679.077148 203.24707 682.495117 204.956055 Z M 682.495117 204.956055 " transform="matrix(0.032,0,0,0.032,0,0)"/>
<path style=" stroke:none;fill-rule:nonzero;fill:rgb(100%,100%,100%);fill-opacity:1;" d="M 21.796875 6.457031 C 21.796875 6.457031 21.75 6.40625 21.773438 6.300781 C 21.773438 6.300781 21.773438 6.289062 21.765625 6.289062 C 21.765625 6.289062 21.753906 6.285156 21.753906 6.296875 C 21.753906 6.296875 21.726562 6.410156 21.78125 6.472656 C 21.78125 6.472656 21.789062 6.480469 21.796875 6.472656 C 21.796875 6.472656 21.800781 6.464844 21.796875 6.457031 Z M 21.796875 6.457031 "/>
<path style="fill-rule:nonzero;fill:rgb(39.215686%,70.588235%,81.960784%);fill-opacity:1;stroke-width:0.623;stroke-linecap:butt;stroke-linejoin:miter;stroke:rgb(0.392157%,12.941176%,41.176471%);stroke-opacity:1;stroke-miterlimit:2.613;" d="M 683.71582 203.369141 C 683.71582 203.369141 683.837891 201.660156 686.889648 198.608398 C 689.941406 195.678711 687.37793 192.871094 685.546875 192.871094 C 685.546875 192.871094 683.59375 192.993164 682.983398 195.922852 C 682.495117 197.631836 682.250977 199.951172 683.71582 203.369141 Z M 683.71582 203.369141 " transform="matrix(0.032,0,0,0.032,0,0)"/>
<path style=" stroke:none;fill-rule:nonzero;fill:rgb(100%,100%,100%);fill-opacity:1;" d="M 21.894531 6.386719 C 21.894531 6.386719 21.894531 6.316406 21.980469 6.246094 C 21.980469 6.246094 21.988281 6.238281 21.984375 6.234375 C 21.984375 6.234375 21.976562 6.222656 21.96875 6.230469 C 21.96875 6.230469 21.875 6.304688 21.871094 6.390625 C 21.871094 6.390625 21.875 6.402344 21.882812 6.398438 C 21.882812 6.398438 21.894531 6.398438 21.894531 6.386719 Z M 21.894531 6.386719 "/>
<path style="fill-rule:nonzero;fill:rgb(39.215686%,70.588235%,81.960784%);fill-opacity:1;stroke-width:0.623;stroke-linecap:butt;stroke-linejoin:miter;stroke:rgb(0.392157%,12.941176%,41.176471%);stroke-opacity:1;stroke-miterlimit:2.613;" d="M 687.866211 202.026367 C 687.866211 202.026367 688.720703 200.683594 692.382812 199.34082 C 696.166992 197.998047 695.19043 194.702148 693.603516 193.969727 C 693.603516 193.969727 691.894531 193.237305 690.185547 195.43457 C 689.208984 196.777344 687.988281 198.608398 687.866211 202.026367 Z M 687.866211 202.026367 " transform="matrix(0.032,0,0,0.032,0,0)"/>
<path style=" stroke:none;fill-rule:nonzero;fill:rgb(100%,100%,100%);fill-opacity:1;" d="M 22.066406 6.382812 C 22.066406 6.382812 22.09375 6.320312 22.203125 6.292969 C 22.203125 6.292969 22.210938 6.285156 22.210938 6.28125 C 22.210938 6.28125 22.207031 6.269531 22.199219 6.273438 C 22.199219 6.273438 22.078125 6.300781 22.042969 6.375 C 22.042969 6.375 22.039062 6.386719 22.050781 6.390625 C 22.050781 6.390625 22.058594 6.394531 22.066406 6.382812 Z M 22.066406 6.382812 "/>
<path style="fill-rule:nonzero;fill:rgb(39.215686%,70.588235%,81.960784%);fill-opacity:1;stroke-width:0.623;stroke-linecap:butt;stroke-linejoin:miter;stroke:rgb(0.392157%,12.941176%,41.176471%);stroke-opacity:1;stroke-miterlimit:2.613;" d="M 685.546875 203.491211 C 685.546875 203.491211 687.255859 203.979492 691.28418 202.026367 C 695.3125 200.073242 697.021484 203.491211 696.411133 205.322266 C 696.411133 205.322266 695.678711 207.15332 692.504883 206.90918 C 690.673828 206.665039 688.354492 206.176758 685.546875 203.491211 Z M 685.546875 203.491211 " transform="matrix(0.032,0,0,0.032,0,0)"/>
<path style=" stroke:none;fill-rule:nonzero;fill:rgb(100%,100%,100%);fill-opacity:1;" d="M 22.234375 6.554688 C 22.234375 6.554688 22.175781 6.589844 22.070312 6.546875 C 22.070312 6.546875 22.0625 6.546875 22.058594 6.550781 C 22.058594 6.550781 22.054688 6.5625 22.066406 6.566406 C 22.066406 6.566406 22.175781 6.609375 22.25 6.570312 C 22.25 6.570312 22.261719 6.5625 22.253906 6.554688 C 22.253906 6.554688 22.246094 6.546875 22.234375 6.554688 Z M 22.234375 6.554688 "/>
<path style="fill:none;stroke-width:0.831;stroke-linecap:butt;stroke-linejoin:miter;stroke:rgb(0%,0%,0%);stroke-opacity:1;stroke-miterlimit:2.613;" d="M 691.40625 190.795898 C 691.40625 190.795898 689.331055 191.772461 689.819336 194.091797 " transform="matrix(0.032,0,0,0.032,0,0)"/>
<path style="fill:none;stroke-width:0.831;stroke-linecap:butt;stroke-linejoin:miter;stroke:rgb(0%,0%,0%);stroke-opacity:1;stroke-miterlimit:10;" d="M 682.495117 191.162109 C 682.495117 191.162109 681.762695 193.603516 682.617188 194.946289 " transform="matrix(0.032,0,0,0.032,0,0)"/>
<path style=" stroke:none;fill-rule:nonzero;fill:rgb(0%,0%,0%);fill-opacity:1;" d="M 24.632812 5.382812 C 24.632812 5.382812 24.671875 5.5 24.65625 5.605469 C 24.640625 5.699219 24.660156 5.726562 24.695312 5.742188 C 24.722656 5.761719 24.792969 5.730469 24.800781 5.65625 C 24.800781 5.65625 24.882812 5.816406 24.722656 5.921875 C 24.722656 5.921875 24.613281 5.992188 24.515625 5.898438 C 24.480469 5.867188 24.46875 5.773438 24.484375 5.691406 C 24.484375 5.691406 24.507812 5.578125 24.46875 5.460938 C 24.46875 5.460938 24.53125 5.53125 24.515625 5.667969 C 24.515625 5.667969 24.480469 5.914062 24.664062 5.902344 C 24.664062 5.902344 24.789062 5.898438 24.792969 5.746094 C 24.792969 5.746094 24.746094 5.800781 24.6875 5.78125 C 24.644531 5.769531 24.609375 5.730469 24.613281 5.667969 C 24.621094 5.601562 24.640625 5.484375 24.632812 5.382812 Z M 24.425781 5.789062 C 24.425781 5.789062 24.414062 5.980469 24.238281 6.027344 C 24.238281 6.027344 24.261719 5.992188 24.222656 5.898438 C 24.222656 5.898438 24.183594 5.839844 24.1875 5.753906 C 24.1875 5.753906 24.132812 5.796875 24.195312 5.914062 C 24.234375 5.984375 24.199219 6.070312 24.1875 6.074219 C 24.175781 6.074219 24.480469 6.03125 24.425781 5.789062 Z M 24.195312 5.59375 C 24.195312 5.59375 24.152344 5.546875 24.148438 5.433594 C 24.148438 5.324219 24.125 5.296875 24.109375 5.28125 C 24.109375 5.28125 24.132812 5.378906 24.125 5.4375 C 24.121094 5.5 24.128906 5.53125 24.140625 5.5625 C 24.140625 5.5625 24.042969 5.574219 23.980469 5.433594 C 23.921875 5.300781 23.863281 5.3125 23.835938 5.3125 C 23.835938 5.3125 23.871094 5.316406 23.9375 5.4375 C 24.003906 5.5625 24.023438 5.585938 24.195312 5.59375 Z M 23.742188 5.304688 C 23.742188 5.304688 23.796875 5.4375 23.800781 5.507812 C 23.800781 5.507812 23.671875 5.464844 23.636719 5.351562 C 23.636719 5.351562 23.496094 5.398438 23.546875 5.558594 C 23.546875 5.558594 23.429688 5.515625 23.375 5.417969 C 23.375 5.417969 23.441406 5.46875 23.503906 5.492188 C 23.503906 5.492188 23.496094 5.363281 23.660156 5.3125 C 23.660156 5.3125 23.683594 5.429688 23.761719 5.457031 C 23.761719 5.457031 23.757812 5.382812 23.742188 5.304688 Z M 23.957031 5.074219 C 23.957031 5.074219 24 5.140625 24.09375 5.140625 C 24.136719 5.144531 24.183594 5.132812 24.230469 5.074219 C 24.230469 5.074219 24.222656 5.1875 24.09375 5.1875 C 24.09375 5.1875 23.957031 5.195312 23.957031 5.074219 Z M 23.390625 5.851562 C 23.390625 5.851562 23.460938 5.914062 23.472656 5.933594 C 23.472656 5.933594 23.519531 5.980469 23.5625 5.917969 C 23.5625 5.917969 23.613281 5.824219 23.679688 5.824219 C 23.679688 5.824219 23.632812 5.855469 23.582031 5.949219 C 23.582031 5.949219 23.570312 5.980469 23.53125 5.984375 C 23.511719 5.988281 23.488281 5.992188 23.457031 5.957031 C 23.457031 5.957031 23.425781 5.921875 23.390625 5.851562 Z M 24.09375 4.617188 C 23.957031 4.617188 24.070312 4.722656 24.070312 4.722656 C 24.074219 4.890625 23.941406 4.941406 23.847656 4.894531 C 23.757812 4.847656 23.828125 4.722656 23.828125 4.722656 C 23.828125 4.722656 23.726562 4.792969 23.792969 4.890625 C 23.855469 4.988281 24.03125 4.945312 24.09375 4.855469 C 24.15625 4.945312 24.328125 4.988281 24.394531 4.890625 C 24.460938 4.792969 24.355469 4.722656 24.355469 4.722656 C 24.355469 4.722656 24.429688 4.847656 24.335938 4.894531 C 24.246094 4.941406 24.109375 4.890625 24.113281 4.722656 C 24.113281 4.722656 24.230469 4.617188 24.09375 4.617188 Z M 24.175781 4.4375 C 24.175781 4.4375 24.222656 4.519531 24.214844 4.644531 C 24.214844 4.644531 24.257812 4.519531 24.175781 4.4375 Z M 23.757812 4.628906 C 23.757812 4.628906 23.746094 4.539062 23.660156 4.53125 C 23.660156 4.53125 23.734375 4.585938 23.757812 4.628906 Z M 24.429688 4.628906 C 24.429688 4.628906 24.441406 4.539062 24.527344 4.53125 C 24.527344 4.53125 24.453125 4.585938 24.429688 4.628906 Z M 23.621094 4.765625 C 23.621094 4.765625 23.6875 4.785156 23.730469 4.734375 C 23.730469 4.734375 23.652344 4.757812 23.621094 4.765625 Z M 23.398438 4.21875 C 23.398438 4.21875 23.476562 4.210938 23.554688 4.328125 C 23.554688 4.328125 23.476562 4.371094 23.457031 4.398438 C 23.457031 4.398438 23.457031 4.359375 23.496094 4.324219 C 23.496094 4.324219 23.480469 4.261719 23.398438 4.21875 Z M 24.734375 4.21875 C 24.734375 4.21875 24.65625 4.210938 24.578125 4.328125 C 24.578125 4.328125 24.65625 4.371094 24.675781 4.398438 C 24.675781 4.398438 24.675781 4.359375 24.636719 4.324219 C 24.636719 4.324219 24.652344 4.261719 24.734375 4.21875 Z M 24.117188 4.308594 C 24.117188 4.308594 24.191406 4.328125 24.28125 4.277344 C 24.28125 4.277344 24.390625 4.21875 24.460938 4.277344 C 24.460938 4.277344 24.398438 4.25 24.28125 4.308594 C 24.28125 4.308594 24.164062 4.371094 24.117188 4.308594 Z M 24.117188 4.308594 "/>
<path style=" stroke:none;fill-rule:nonzero;fill:rgb(100%,100%,100%);fill-opacity:1;" d="M 24.195312 4.378906 C 24.195312 4.378906 24.253906 4.273438 24.441406 4.292969 C 24.441406 4.292969 24.390625 4.445312 24.195312 4.378906 Z M 24.195312 4.378906 "/>
<path style=" stroke:none;fill-rule:nonzero;fill:rgb(47.058824%,26.666667%,12.941176%);fill-opacity:1;" d="M 24.359375 4.347656 C 24.359375 4.320312 24.34375 4.300781 24.324219 4.300781 C 24.300781 4.300781 24.285156 4.320312 24.285156 4.347656 C 24.285156 4.371094 24.300781 4.394531 24.324219 4.394531 C 24.34375 4.394531 24.359375 4.371094 24.359375 4.347656 Z M 24.359375 4.347656 "/>
<path style=" stroke:none;fill-rule:nonzero;fill:rgb(0%,0%,0%);fill-opacity:1;" d="M 24.34375 4.347656 C 24.34375 4.332031 24.335938 4.320312 24.324219 4.320312 C 24.308594 4.320312 24.300781 4.332031 24.300781 4.347656 C 24.300781 4.363281 24.308594 4.375 24.324219 4.375 C 24.335938 4.375 24.34375 4.363281 24.34375 4.347656 Z M 24.34375 4.347656 "/>
<path style=" stroke:none;fill-rule:nonzero;fill:rgb(0%,0%,0%);fill-opacity:1;" d="M 23.792969 4.152344 C 23.792969 4.152344 23.910156 4.160156 23.984375 4.203125 C 23.984375 4.203125 24.058594 4.25 24.144531 4.183594 C 24.144531 4.183594 24.238281 4.128906 24.300781 4.054688 C 24.300781 4.054688 24.15625 4.15625 24.101562 4.167969 C 24.101562 4.167969 24.054688 4.132812 24.035156 4.078125 C 24.035156 4.078125 24.042969 4.035156 24.117188 3.960938 C 24.117188 3.960938 24.015625 3.992188 23.992188 4.082031 C 23.992188 4.082031 24.011719 4.136719 24.054688 4.179688 C 24.054688 4.179688 24.035156 4.1875 23.984375 4.15625 C 23.984375 4.15625 23.871094 4.117188 23.792969 4.152344 Z M 24.09375 4.859375 C 23.992188 4.949219 24.09375 4.941406 24.09375 4.941406 C 24.09375 4.941406 24.195312 4.949219 24.09375 4.859375 Z M 24.035156 4.308594 C 24.035156 4.308594 23.960938 4.328125 23.871094 4.277344 C 23.871094 4.277344 23.761719 4.21875 23.691406 4.277344 C 23.691406 4.277344 23.753906 4.25 23.871094 4.308594 C 23.871094 4.308594 23.988281 4.371094 24.035156 4.308594 Z M 24.035156 4.308594 "/>
<path style=" stroke:none;fill-rule:nonzero;fill:rgb(100%,100%,100%);fill-opacity:1;" d="M 23.957031 4.378906 C 23.957031 4.378906 23.898438 4.273438 23.710938 4.292969 C 23.710938 4.292969 23.761719 4.445312 23.957031 4.378906 Z M 23.957031 4.378906 "/>
<path style=" stroke:none;fill-rule:nonzero;fill:rgb(47.058824%,26.666667%,12.941176%);fill-opacity:1;" d="M 23.867188 4.347656 C 23.867188 4.320312 23.851562 4.300781 23.828125 4.300781 C 23.808594 4.300781 23.792969 4.320312 23.792969 4.347656 C 23.792969 4.371094 23.808594 4.394531 23.828125 4.394531 C 23.851562 4.394531 23.867188 4.371094 23.867188 4.347656 Z M 23.867188 4.347656 "/>
<path style=" stroke:none;fill-rule:nonzero;fill:rgb(0%,0%,0%);fill-opacity:1;" d="M 23.851562 4.347656 C 23.851562 4.332031 23.84375 4.320312 23.828125 4.320312 C 23.816406 4.320312 23.808594 4.332031 23.808594 4.347656 C 23.808594 4.363281 23.816406 4.375 23.828125 4.375 C 23.84375 4.375 23.851562 4.363281 23.851562 4.347656 Z M 23.851562 4.347656 "/>
<path style="fill:none;stroke-width:2;stroke-linecap:butt;stroke-linejoin:miter;stroke:rgb(0%,0%,0%);stroke-opacity:1;stroke-miterlimit:4;" d="M 865.722656 106.689453 L 865.722656 318.359375 C 865.722656 375 752.685547 393.310547 752.685547 393.310547 C 752.685547 393.310547 639.648438 375 639.648438 318.359375 L 639.648438 106.689453 Z M 865.722656 106.689453 " transform="matrix(0.032,0,0,0.032,0,0)"/>
</g>
</svg>
