<?xml version="1.0" encoding="UTF-8"?>
<svg xmlns="http://www.w3.org/2000/svg" xmlns:xlink="http://www.w3.org/1999/xlink" width="24px" height="16px" viewBox="0 0 32 16" version="1.1">
<g id="surface1">
<rect x="0" y="0" width="32" height="16" style="fill:rgb(96.862745%,87.843137%,9.019608%);fill-opacity:1;stroke:none;"/>
<path style=" stroke:none;fill-rule:nonzero;fill:rgb(100%,100%,100%);fill-opacity:1;" d="M 0 1.109375 L 0 8.222656 L 32 11.554688 L 32 7.777344 Z M 0 1.109375 "/>
<path style=" stroke:none;fill-rule:nonzero;fill:rgb(0%,0%,0%);fill-opacity:1;" d="M 0 4.890625 L 0 8.222656 L 32 14.890625 L 32 11.554688 Z M 0 4.890625 "/>
<path style=" stroke:none;fill-rule:nonzero;fill:rgb(81.176471%,6.666667%,14.901961%);fill-opacity:1;" d="M 15.460938 12.660156 C 15.03125 12.601562 14.636719 12.464844 14.363281 12.277344 C 14.308594 12.242188 14.257812 12.210938 14.25 12.210938 C 14.242188 12.210938 14.238281 12.253906 14.238281 12.304688 C 14.238281 12.445312 14.179688 12.515625 14.035156 12.554688 C 13.898438 12.589844 13.691406 12.515625 13.523438 12.375 C 13.347656 12.230469 13.144531 12.121094 12.972656 12.074219 C 12.832031 12.039062 12.644531 12.042969 12.507812 12.089844 C 12.445312 12.109375 12.375 12.140625 12.347656 12.15625 C 12.324219 12.171875 12.296875 12.183594 12.289062 12.183594 C 12.265625 12.183594 12.265625 12.03125 12.292969 11.984375 C 12.324219 11.917969 12.40625 11.855469 12.503906 11.820312 C 12.550781 11.804688 12.589844 11.78125 12.589844 11.773438 C 12.589844 11.761719 12.574219 11.726562 12.554688 11.691406 C 12.488281 11.578125 12.515625 11.46875 12.628906 11.382812 C 12.742188 11.292969 12.9375 11.277344 13.109375 11.34375 C 13.152344 11.359375 13.195312 11.375 13.199219 11.375 C 13.222656 11.375 13.210938 11.34375 13.148438 11.253906 C 13.074219 11.148438 13.058594 11.09375 13.070312 10.96875 C 13.082031 10.8125 13.210938 10.679688 13.367188 10.667969 C 13.496094 10.660156 13.578125 10.703125 13.769531 10.886719 C 14.339844 11.429688 14.960938 11.726562 15.683594 11.808594 C 15.863281 11.828125 16.230469 11.820312 16.445312 11.785156 C 17.097656 11.6875 17.753906 11.363281 18.265625 10.878906 C 18.40625 10.746094 18.472656 10.710938 18.589844 10.710938 C 18.691406 10.710938 18.761719 10.742188 18.835938 10.824219 C 18.902344 10.894531 18.921875 10.964844 18.917969 11.078125 C 18.910156 11.148438 18.898438 11.183594 18.859375 11.253906 C 18.796875 11.355469 18.804688 11.363281 18.929688 11.316406 C 19.097656 11.25 19.304688 11.28125 19.414062 11.386719 C 19.511719 11.480469 19.523438 11.574219 19.445312 11.699219 C 19.417969 11.746094 19.394531 11.789062 19.394531 11.796875 C 19.394531 11.808594 19.417969 11.8125 19.519531 11.832031 C 19.652344 11.851562 19.726562 11.949219 19.726562 12.101562 C 19.726562 12.148438 19.722656 12.183594 19.714844 12.183594 C 19.707031 12.183594 19.660156 12.164062 19.605469 12.144531 C 19.449219 12.078125 19.359375 12.0625 19.179688 12.0625 C 19.039062 12.0625 18.992188 12.070312 18.898438 12.101562 C 18.75 12.148438 18.59375 12.242188 18.464844 12.359375 C 18.320312 12.484375 18.234375 12.523438 18.09375 12.523438 C 17.96875 12.519531 17.878906 12.484375 17.832031 12.410156 C 17.808594 12.371094 17.804688 12.347656 17.8125 12.257812 C 17.816406 12.203125 17.8125 12.15625 17.808594 12.15625 C 17.804688 12.15625 17.753906 12.1875 17.699219 12.226562 C 17.550781 12.328125 17.457031 12.375 17.289062 12.445312 C 16.773438 12.648438 16.03125 12.734375 15.460938 12.660156 Z M 15.460938 12.660156 "/>
<path style=" stroke:none;fill-rule:nonzero;fill:rgb(81.176471%,6.666667%,14.901961%);fill-opacity:1;" d="M 15.695312 11.671875 C 14.839844 11.589844 14.019531 11.140625 13.519531 10.433594 C 12.976562 9.695312 12.808594 8.71875 12.972656 7.828125 C 13.0625 7.421875 13.238281 7.015625 13.539062 6.726562 C 13.300781 7.238281 13.21875 7.824219 13.347656 8.378906 C 13.546875 9.484375 14.480469 10.417969 15.597656 10.582031 C 16.039062 10.710938 16.5 10.574219 16.921875 10.4375 C 17.851562 10.109375 18.5625 9.222656 18.648438 8.234375 C 18.722656 7.699219 18.640625 7.144531 18.398438 6.660156 C 18.539062 6.730469 18.710938 7.015625 18.8125 7.207031 C 19.167969 7.898438 19.183594 8.722656 18.976562 9.457031 C 18.691406 10.394531 17.976562 11.214844 17.03125 11.511719 C 16.601562 11.652344 16.144531 11.695312 15.695312 11.671875 Z M 15.695312 11.671875 "/>
<path style=" stroke:none;fill-rule:nonzero;fill:rgb(81.176471%,6.666667%,14.901961%);fill-opacity:1;" d="M 11.378906 10.441406 C 11.320312 10.433594 11.261719 10.488281 11.28125 10.546875 C 11.320312 10.605469 11.390625 10.632812 11.453125 10.660156 C 11.605469 10.722656 11.769531 10.746094 11.933594 10.742188 C 11.875 10.742188 11.949219 10.742188 11.972656 10.742188 C 12.101562 10.742188 12.226562 10.71875 12.347656 10.675781 C 12.414062 10.652344 12.5 10.628906 12.527344 10.554688 C 12.554688 10.507812 12.507812 10.460938 12.457031 10.46875 C 12.390625 10.484375 12.324219 10.515625 12.257812 10.53125 C 12.113281 10.574219 11.957031 10.589844 11.804688 10.578125 C 11.695312 10.5625 11.589844 10.527344 11.484375 10.484375 C 11.449219 10.46875 11.417969 10.445312 11.378906 10.441406 Z M 11.378906 10.441406 "/>
<path style=" stroke:none;fill-rule:nonzero;fill:rgb(81.176471%,6.666667%,14.901961%);fill-opacity:1;" d="M 11.441406 10.210938 C 11.382812 10.203125 11.335938 10.269531 11.359375 10.320312 C 11.402344 10.382812 11.476562 10.417969 11.542969 10.445312 C 11.664062 10.496094 11.792969 10.515625 11.921875 10.511719 C 11.871094 10.511719 11.9375 10.511719 11.957031 10.511719 C 12.066406 10.511719 12.175781 10.488281 12.273438 10.449219 C 12.335938 10.425781 12.410156 10.402344 12.4375 10.332031 C 12.457031 10.296875 12.441406 10.242188 12.394531 10.238281 C 12.351562 10.238281 12.316406 10.265625 12.277344 10.277344 C 12.132812 10.335938 11.972656 10.359375 11.816406 10.347656 C 11.722656 10.335938 11.628906 10.300781 11.539062 10.257812 C 11.507812 10.242188 11.476562 10.21875 11.441406 10.210938 Z M 11.441406 10.210938 "/>
<path style=" stroke:none;fill-rule:nonzero;fill:rgb(81.176471%,6.666667%,14.901961%);fill-opacity:1;" d="M 11.515625 9.992188 C 11.46875 9.984375 11.433594 10.039062 11.445312 10.082031 C 11.449219 10.121094 11.484375 10.148438 11.515625 10.171875 C 11.632812 10.257812 11.78125 10.292969 11.925781 10.289062 C 11.871094 10.289062 12.003906 10.289062 11.964844 10.289062 C 12.054688 10.289062 12.144531 10.265625 12.230469 10.226562 C 12.285156 10.203125 12.347656 10.175781 12.367188 10.113281 C 12.375 10.082031 12.382812 10.039062 12.347656 10.023438 C 12.316406 10.003906 12.28125 10.035156 12.25 10.046875 C 12.140625 10.101562 12.023438 10.128906 11.902344 10.128906 C 11.800781 10.132812 11.703125 10.089844 11.613281 10.042969 C 11.582031 10.027344 11.554688 9.996094 11.515625 9.992188 Z M 11.515625 9.992188 "/>
<path style=" stroke:none;fill-rule:nonzero;fill:rgb(81.176471%,6.666667%,14.901961%);fill-opacity:1;" d="M 10.699219 6.726562 C 10.628906 6.800781 10.683594 6.933594 10.679688 7.027344 C 10.71875 7.320312 10.765625 7.617188 10.871094 7.890625 C 11.007812 8.160156 11.289062 8.304688 11.460938 8.542969 C 11.523438 8.65625 11.503906 8.792969 11.515625 8.917969 C 11.523438 9.261719 11.523438 9.601562 11.515625 9.945312 C 11.671875 10.023438 11.835938 10.097656 12.015625 10.070312 C 12.121094 10.042969 12.316406 10.027344 12.335938 9.925781 C 12.328125 9.335938 12.324219 8.746094 12.316406 8.15625 C 12.253906 7.976562 12.070312 7.882812 11.933594 7.769531 C 11.820312 7.65625 11.714844 7.535156 11.621094 7.410156 C 11.5625 7.3125 11.332031 7.277344 11.414062 7.449219 C 11.464844 7.59375 11.585938 7.707031 11.617188 7.859375 C 11.625 7.945312 11.726562 8.101562 11.640625 8.152344 C 11.585938 8.058594 11.503906 7.980469 11.402344 7.929688 C 11.304688 7.859375 11.140625 7.828125 11.105469 7.699219 C 11.078125 7.511719 10.984375 7.347656 10.863281 7.207031 C 10.894531 7.042969 10.863281 6.835938 10.722656 6.730469 Z M 10.699219 6.726562 "/>
<path style=" stroke:none;fill-rule:nonzero;fill:rgb(81.176471%,6.666667%,14.901961%);fill-opacity:1;" d="M 10.921875 6.761719 C 10.855469 6.769531 10.855469 6.855469 10.886719 6.898438 C 10.921875 6.992188 10.929688 7.097656 10.910156 7.195312 C 11.027344 7.332031 11.121094 7.496094 11.144531 7.675781 C 11.148438 7.746094 11.21875 7.765625 11.265625 7.800781 C 11.371094 7.871094 11.496094 7.917969 11.589844 8.007812 C 11.609375 8.027344 11.625 8.050781 11.613281 8.007812 C 11.597656 7.949219 11.589844 7.886719 11.546875 7.84375 C 11.484375 7.78125 11.410156 7.722656 11.320312 7.703125 C 11.3125 7.609375 11.269531 7.527344 11.230469 7.445312 C 11.183594 7.367188 11.136719 7.285156 11.0625 7.234375 C 11.0625 7.097656 11.0625 6.957031 11.003906 6.832031 C 10.988281 6.800781 10.960938 6.761719 10.921875 6.761719 Z M 10.921875 6.761719 "/>
<path style=" stroke:none;fill-rule:nonzero;fill:rgb(81.176471%,6.666667%,14.901961%);fill-opacity:1;" d="M 11.105469 6.8125 C 11.058594 6.828125 11.066406 6.882812 11.082031 6.917969 C 11.105469 7.015625 11.109375 7.113281 11.105469 7.210938 C 11.191406 7.277344 11.242188 7.375 11.292969 7.46875 C 11.320312 7.53125 11.351562 7.597656 11.359375 7.667969 C 11.429688 7.6875 11.488281 7.730469 11.542969 7.777344 C 11.523438 7.714844 11.472656 7.664062 11.441406 7.605469 C 11.410156 7.546875 11.375 7.484375 11.359375 7.414062 C 11.296875 7.34375 11.257812 7.242188 11.273438 7.148438 C 11.277344 7.042969 11.242188 6.933594 11.171875 6.851562 C 11.152344 6.835938 11.132812 6.816406 11.105469 6.8125 Z M 11.105469 6.8125 "/>
<path style=" stroke:none;fill-rule:nonzero;fill:rgb(81.176471%,6.666667%,14.901961%);fill-opacity:1;" d="M 11.316406 6.84375 C 11.289062 6.847656 11.273438 6.871094 11.261719 6.890625 C 11.257812 6.910156 11.28125 6.929688 11.285156 6.953125 C 11.3125 7.027344 11.324219 7.105469 11.316406 7.183594 C 11.3125 7.238281 11.332031 7.292969 11.363281 7.339844 C 11.371094 7.304688 11.402344 7.28125 11.4375 7.277344 C 11.449219 7.277344 11.46875 7.28125 11.460938 7.261719 C 11.453125 7.15625 11.433594 7.050781 11.398438 6.949219 C 11.382812 6.914062 11.367188 6.875 11.335938 6.851562 C 11.332031 6.847656 11.324219 6.84375 11.316406 6.84375 Z M 11.316406 6.84375 "/>
<path style=" stroke:none;fill-rule:nonzero;fill:rgb(81.176471%,6.666667%,14.901961%);fill-opacity:1;" d="M 20.621094 10.441406 C 20.679688 10.433594 20.738281 10.488281 20.71875 10.546875 C 20.679688 10.605469 20.609375 10.632812 20.546875 10.660156 C 20.394531 10.722656 20.230469 10.746094 20.066406 10.742188 C 20.125 10.742188 20.050781 10.742188 20.027344 10.742188 C 19.898438 10.742188 19.773438 10.71875 19.652344 10.675781 C 19.585938 10.652344 19.5 10.628906 19.472656 10.554688 C 19.445312 10.507812 19.492188 10.460938 19.542969 10.46875 C 19.609375 10.484375 19.675781 10.515625 19.742188 10.53125 C 19.886719 10.574219 20.042969 10.589844 20.195312 10.578125 C 20.304688 10.5625 20.410156 10.527344 20.515625 10.484375 C 20.550781 10.46875 20.582031 10.445312 20.621094 10.441406 Z M 20.621094 10.441406 "/>
<path style=" stroke:none;fill-rule:nonzero;fill:rgb(81.176471%,6.666667%,14.901961%);fill-opacity:1;" d="M 20.558594 10.210938 C 20.617188 10.203125 20.664062 10.269531 20.640625 10.320312 C 20.597656 10.382812 20.523438 10.417969 20.457031 10.445312 C 20.335938 10.496094 20.207031 10.515625 20.078125 10.511719 C 20.128906 10.511719 20.0625 10.511719 20.042969 10.511719 C 19.933594 10.511719 19.824219 10.488281 19.726562 10.449219 C 19.664062 10.425781 19.589844 10.402344 19.5625 10.332031 C 19.542969 10.296875 19.558594 10.242188 19.605469 10.238281 C 19.648438 10.238281 19.683594 10.265625 19.722656 10.277344 C 19.867188 10.335938 20.027344 10.359375 20.183594 10.347656 C 20.277344 10.335938 20.371094 10.300781 20.460938 10.257812 C 20.492188 10.242188 20.523438 10.21875 20.558594 10.210938 Z M 20.558594 10.210938 "/>
<path style=" stroke:none;fill-rule:nonzero;fill:rgb(81.176471%,6.666667%,14.901961%);fill-opacity:1;" d="M 20.484375 9.992188 C 20.53125 9.984375 20.566406 10.039062 20.554688 10.082031 C 20.550781 10.121094 20.515625 10.148438 20.484375 10.171875 C 20.367188 10.257812 20.21875 10.292969 20.074219 10.289062 C 20.128906 10.289062 19.996094 10.289062 20.035156 10.289062 C 19.945312 10.289062 19.855469 10.265625 19.769531 10.226562 C 19.714844 10.203125 19.652344 10.175781 19.632812 10.113281 C 19.625 10.082031 19.617188 10.039062 19.652344 10.023438 C 19.683594 10.003906 19.71875 10.035156 19.75 10.046875 C 19.859375 10.101562 19.976562 10.128906 20.097656 10.128906 C 20.199219 10.132812 20.296875 10.089844 20.386719 10.042969 C 20.417969 10.027344 20.445312 9.996094 20.484375 9.992188 Z M 20.484375 9.992188 "/>
<path style=" stroke:none;fill-rule:nonzero;fill:rgb(81.176471%,6.666667%,14.901961%);fill-opacity:1;" d="M 21.300781 6.726562 C 21.371094 6.800781 21.316406 6.933594 21.320312 7.027344 C 21.28125 7.320312 21.234375 7.617188 21.128906 7.890625 C 20.992188 8.160156 20.710938 8.304688 20.539062 8.542969 C 20.476562 8.65625 20.496094 8.792969 20.484375 8.917969 C 20.476562 9.261719 20.476562 9.601562 20.484375 9.945312 C 20.328125 10.023438 20.164062 10.097656 19.984375 10.070312 C 19.878906 10.042969 19.683594 10.027344 19.664062 9.925781 C 19.671875 9.335938 19.675781 8.746094 19.683594 8.15625 C 19.746094 7.976562 19.929688 7.882812 20.066406 7.769531 C 20.179688 7.65625 20.285156 7.535156 20.378906 7.410156 C 20.4375 7.3125 20.667969 7.277344 20.585938 7.449219 C 20.535156 7.59375 20.414062 7.707031 20.382812 7.859375 C 20.375 7.945312 20.273438 8.101562 20.359375 8.152344 C 20.414062 8.058594 20.496094 7.980469 20.597656 7.929688 C 20.695312 7.859375 20.859375 7.828125 20.894531 7.699219 C 20.921875 7.511719 21.015625 7.347656 21.136719 7.207031 C 21.105469 7.042969 21.136719 6.835938 21.277344 6.730469 Z M 21.300781 6.726562 "/>
<path style=" stroke:none;fill-rule:nonzero;fill:rgb(81.176471%,6.666667%,14.901961%);fill-opacity:1;" d="M 21.078125 6.761719 C 21.144531 6.769531 21.144531 6.855469 21.113281 6.898438 C 21.078125 6.992188 21.070312 7.097656 21.089844 7.195312 C 20.972656 7.332031 20.878906 7.496094 20.855469 7.675781 C 20.851562 7.746094 20.78125 7.765625 20.734375 7.800781 C 20.628906 7.871094 20.503906 7.917969 20.410156 8.007812 C 20.390625 8.027344 20.375 8.050781 20.386719 8.007812 C 20.402344 7.949219 20.410156 7.886719 20.453125 7.84375 C 20.515625 7.78125 20.589844 7.722656 20.679688 7.703125 C 20.6875 7.609375 20.730469 7.527344 20.769531 7.445312 C 20.816406 7.367188 20.863281 7.285156 20.9375 7.234375 C 20.9375 7.097656 20.9375 6.957031 20.996094 6.832031 C 21.011719 6.800781 21.039062 6.761719 21.078125 6.761719 Z M 21.078125 6.761719 "/>
<path style=" stroke:none;fill-rule:nonzero;fill:rgb(81.176471%,6.666667%,14.901961%);fill-opacity:1;" d="M 20.894531 6.8125 C 20.941406 6.828125 20.933594 6.882812 20.917969 6.917969 C 20.894531 7.015625 20.890625 7.113281 20.894531 7.210938 C 20.808594 7.277344 20.757812 7.375 20.707031 7.46875 C 20.679688 7.53125 20.648438 7.597656 20.640625 7.667969 C 20.570312 7.6875 20.511719 7.730469 20.457031 7.777344 C 20.476562 7.714844 20.527344 7.664062 20.558594 7.605469 C 20.589844 7.546875 20.625 7.484375 20.640625 7.414062 C 20.703125 7.34375 20.742188 7.242188 20.726562 7.148438 C 20.722656 7.042969 20.757812 6.933594 20.828125 6.851562 C 20.847656 6.835938 20.867188 6.816406 20.894531 6.8125 Z M 20.894531 6.8125 "/>
<path style=" stroke:none;fill-rule:nonzero;fill:rgb(81.176471%,6.666667%,14.901961%);fill-opacity:1;" d="M 20.683594 6.84375 C 20.710938 6.847656 20.726562 6.871094 20.738281 6.890625 C 20.742188 6.910156 20.71875 6.929688 20.714844 6.953125 C 20.6875 7.027344 20.675781 7.105469 20.683594 7.183594 C 20.6875 7.238281 20.667969 7.292969 20.636719 7.339844 C 20.628906 7.304688 20.597656 7.28125 20.5625 7.277344 C 20.550781 7.277344 20.53125 7.28125 20.539062 7.261719 C 20.546875 7.15625 20.566406 7.050781 20.601562 6.949219 C 20.617188 6.914062 20.632812 6.875 20.664062 6.851562 C 20.667969 6.847656 20.675781 6.84375 20.683594 6.84375 Z M 20.683594 6.84375 "/>
<path style=" stroke:none;fill-rule:nonzero;fill:rgb(81.176471%,6.666667%,14.901961%);fill-opacity:1;" d="M 15.902344 10.578125 C 15.605469 10.546875 15.332031 10.332031 15.242188 10.042969 C 15.246094 9.996094 15.308594 10.070312 15.335938 10.078125 C 15.390625 10.105469 15.449219 10.132812 15.511719 10.136719 C 15.589844 10.167969 15.640625 10.246094 15.714844 10.289062 C 15.75 10.316406 15.875 10.371094 15.851562 10.28125 C 15.824219 10.238281 15.800781 10.179688 15.828125 10.128906 C 15.871094 10.035156 15.933594 9.957031 16 9.878906 C 16.046875 9.863281 16.078125 9.957031 16.113281 9.988281 C 16.160156 10.0625 16.21875 10.148438 16.191406 10.242188 C 16.164062 10.273438 16.144531 10.375 16.21875 10.339844 C 16.308594 10.300781 16.378906 10.234375 16.453125 10.175781 C 16.519531 10.128906 16.601562 10.125 16.671875 10.085938 C 16.703125 10.078125 16.765625 10.015625 16.78125 10.050781 C 16.742188 10.148438 16.679688 10.238281 16.613281 10.320312 C 16.507812 10.445312 16.359375 10.539062 16.195312 10.5625 C 16.101562 10.582031 16 10.585938 15.902344 10.578125 Z M 15.902344 10.578125 "/>
<path style=" stroke:none;fill-rule:nonzero;fill:rgb(81.176471%,6.666667%,14.901961%);fill-opacity:1;" d="M 16.257812 10.226562 C 16.261719 10.167969 16.25 10.105469 16.21875 10.050781 C 16.171875 9.953125 16.105469 9.871094 16.039062 9.785156 C 15.976562 9.75 15.945312 9.867188 15.902344 9.898438 C 15.839844 9.996094 15.761719 10.09375 15.757812 10.210938 C 15.722656 10.265625 15.652344 10.167969 15.625 10.132812 C 15.570312 10.054688 15.527344 9.964844 15.535156 9.867188 C 15.53125 9.710938 15.558594 9.554688 15.617188 9.410156 C 15.660156 9.285156 15.730469 9.164062 15.722656 9.03125 C 15.726562 8.925781 15.707031 8.816406 15.625 8.746094 C 15.546875 8.683594 15.675781 8.671875 15.714844 8.703125 C 15.785156 8.707031 15.824219 8.824219 15.886719 8.796875 C 15.914062 8.734375 15.917969 8.664062 15.972656 8.613281 C 16.023438 8.542969 16.078125 8.644531 16.097656 8.691406 C 16.132812 8.734375 16.09375 8.835938 16.152344 8.839844 C 16.226562 8.789062 16.277344 8.707031 16.367188 8.6875 C 16.402344 8.667969 16.464844 8.683594 16.417969 8.726562 C 16.351562 8.789062 16.292969 8.871094 16.28125 8.964844 C 16.261719 9.082031 16.289062 9.199219 16.339844 9.308594 C 16.441406 9.515625 16.515625 9.75 16.464844 9.984375 C 16.441406 10.085938 16.371094 10.175781 16.289062 10.234375 C 16.277344 10.242188 16.261719 10.242188 16.257812 10.226562 Z M 16.257812 10.226562 "/>
<path style=" stroke:none;fill-rule:nonzero;fill:rgb(81.176471%,6.666667%,14.901961%);fill-opacity:1;" d="M 16.148438 8.660156 C 16.117188 8.601562 16.078125 8.542969 16.023438 8.503906 C 15.96875 8.503906 15.9375 8.570312 15.902344 8.605469 C 15.875 8.652344 15.847656 8.730469 15.785156 8.667969 C 15.683594 8.609375 15.667969 8.484375 15.667969 8.378906 C 15.664062 8.210938 15.730469 8.054688 15.789062 7.902344 C 15.828125 7.804688 15.820312 7.695312 15.796875 7.597656 C 15.765625 7.484375 15.675781 7.40625 15.605469 7.316406 C 15.609375 7.285156 15.699219 7.300781 15.734375 7.308594 C 15.808594 7.328125 15.851562 7.394531 15.910156 7.441406 C 15.949219 7.429688 15.933594 7.347656 15.949219 7.3125 C 15.953125 7.257812 16.023438 7.1875 16.050781 7.265625 C 16.09375 7.3125 16.050781 7.40625 16.105469 7.4375 C 16.160156 7.417969 16.1875 7.359375 16.238281 7.332031 C 16.285156 7.300781 16.355469 7.296875 16.410156 7.320312 C 16.429688 7.371094 16.351562 7.410156 16.328125 7.453125 C 16.238281 7.566406 16.207031 7.71875 16.246094 7.855469 C 16.277344 7.964844 16.328125 8.066406 16.347656 8.179688 C 16.371094 8.304688 16.371094 8.433594 16.335938 8.558594 C 16.316406 8.632812 16.253906 8.683594 16.1875 8.714844 C 16.167969 8.699219 16.160156 8.679688 16.148438 8.660156 Z M 16.148438 8.660156 "/>
<path style=" stroke:none;fill-rule:nonzero;fill:rgb(81.176471%,6.666667%,14.901961%);fill-opacity:1;" d="M 15.8125 7.265625 C 15.738281 7.210938 15.714844 7.15625 15.714844 7.054688 C 15.714844 7 15.722656 6.972656 15.757812 6.925781 C 15.808594 6.851562 15.800781 6.832031 15.726562 6.851562 C 15.613281 6.886719 15.554688 6.855469 15.550781 6.753906 C 15.550781 6.707031 15.558594 6.6875 15.625 6.605469 C 15.679688 6.542969 15.695312 6.511719 15.6875 6.5 C 15.675781 6.488281 15.613281 6.542969 15.488281 6.671875 C 15.386719 6.777344 15.269531 6.882812 15.234375 6.910156 C 15.015625 7.054688 14.804688 7.078125 14.710938 6.964844 C 14.660156 6.90625 14.664062 6.875 14.71875 6.839844 C 14.746094 6.824219 14.789062 6.785156 14.816406 6.757812 C 14.882812 6.6875 15.078125 6.546875 15.175781 6.5 C 15.253906 6.460938 15.273438 6.433594 15.222656 6.433594 C 15.15625 6.433594 14.945312 6.570312 14.78125 6.71875 C 14.734375 6.761719 14.667969 6.8125 14.632812 6.828125 C 14.550781 6.863281 14.394531 6.875 14.324219 6.851562 C 14.273438 6.835938 14.183594 6.75 14.183594 6.71875 C 14.183594 6.710938 14.203125 6.695312 14.226562 6.679688 C 14.253906 6.667969 14.296875 6.636719 14.328125 6.609375 C 14.457031 6.496094 14.703125 6.378906 14.894531 6.339844 C 14.957031 6.324219 14.933594 6.292969 14.867188 6.296875 C 14.730469 6.304688 14.46875 6.425781 14.308594 6.558594 C 14.125 6.710938 13.847656 6.695312 13.757812 6.527344 C 13.742188 6.5 13.730469 6.472656 13.738281 6.46875 C 13.742188 6.464844 13.796875 6.449219 13.859375 6.433594 C 13.925781 6.414062 14.0625 6.359375 14.191406 6.296875 C 14.390625 6.195312 14.453125 6.171875 14.589844 6.152344 C 14.652344 6.140625 14.65625 6.109375 14.597656 6.101562 C 14.519531 6.09375 14.398438 6.132812 14.1875 6.238281 C 13.914062 6.371094 13.835938 6.394531 13.691406 6.386719 C 13.5625 6.378906 13.488281 6.34375 13.382812 6.242188 C 13.3125 6.179688 13.210938 6.011719 13.230469 5.992188 C 13.238281 5.988281 13.269531 5.992188 13.304688 6 C 13.339844 6.011719 13.449219 6.019531 13.582031 6.019531 C 13.765625 6.019531 13.816406 6.015625 13.914062 5.988281 C 14.078125 5.941406 14.296875 5.828125 14.449219 5.714844 C 14.734375 5.503906 14.96875 5.417969 15.265625 5.414062 C 15.542969 5.414062 15.714844 5.476562 15.871094 5.632812 C 15.921875 5.6875 15.96875 5.722656 15.976562 5.714844 C 15.980469 5.707031 15.988281 5.613281 15.992188 5.507812 C 15.992188 5.507812 16.074219 5.5 16.089844 5.523438 C 16.089844 5.695312 16.09375 5.710938 16.117188 5.710938 C 16.132812 5.710938 16.152344 5.691406 16.160156 5.667969 C 16.1875 5.609375 16.273438 5.53125 16.367188 5.484375 C 16.566406 5.382812 16.914062 5.378906 17.195312 5.476562 C 17.3125 5.519531 17.441406 5.59375 17.566406 5.6875 C 17.691406 5.785156 17.949219 5.914062 18.097656 5.957031 C 18.25 6 18.519531 6.011719 18.660156 5.980469 C 18.714844 5.964844 18.769531 5.957031 18.777344 5.957031 C 18.828125 5.957031 18.742188 6.125 18.640625 6.226562 C 18.453125 6.40625 18.210938 6.40625 17.871094 6.222656 C 17.660156 6.109375 17.40625 6.046875 17.40625 6.109375 C 17.40625 6.121094 17.417969 6.128906 17.4375 6.128906 C 17.511719 6.128906 17.652344 6.179688 17.851562 6.273438 C 18.066406 6.375 18.1875 6.417969 18.261719 6.417969 C 18.3125 6.417969 18.3125 6.449219 18.265625 6.523438 C 18.214844 6.597656 18.125 6.636719 18.003906 6.632812 C 17.886719 6.632812 17.820312 6.609375 17.714844 6.519531 C 17.539062 6.375 17.101562 6.210938 17.117188 6.300781 C 17.121094 6.316406 17.144531 6.328125 17.1875 6.332031 C 17.339844 6.355469 17.519531 6.441406 17.703125 6.578125 C 17.757812 6.621094 17.816406 6.664062 17.832031 6.671875 C 17.859375 6.6875 17.859375 6.691406 17.839844 6.730469 C 17.804688 6.789062 17.722656 6.835938 17.632812 6.847656 C 17.515625 6.859375 17.414062 6.824219 17.3125 6.738281 C 17.089844 6.550781 16.882812 6.417969 16.816406 6.417969 C 16.761719 6.417969 16.785156 6.449219 16.882812 6.5 C 17.007812 6.566406 17.136719 6.65625 17.234375 6.746094 C 17.277344 6.785156 17.328125 6.828125 17.34375 6.835938 C 17.386719 6.859375 17.382812 6.890625 17.339844 6.945312 C 17.296875 7.003906 17.222656 7.03125 17.125 7.019531 C 16.933594 7 16.78125 6.90625 16.546875 6.664062 C 16.457031 6.570312 16.375 6.492188 16.363281 6.492188 C 16.332031 6.492188 16.351562 6.53125 16.414062 6.601562 C 16.488281 6.683594 16.503906 6.730469 16.472656 6.800781 C 16.449219 6.859375 16.40625 6.875 16.320312 6.851562 C 16.234375 6.828125 16.21875 6.847656 16.277344 6.921875 C 16.363281 7.027344 16.351562 7.160156 16.246094 7.25 C 16.210938 7.277344 16.179688 7.300781 16.167969 7.300781 C 16.160156 7.300781 16.136719 7.277344 16.117188 7.246094 C 16.050781 7.144531 15.992188 7.144531 15.925781 7.25 C 15.902344 7.285156 15.882812 7.3125 15.882812 7.3125 C 15.882812 7.3125 15.851562 7.292969 15.8125 7.265625 Z M 15.8125 7.265625 "/>
<path style=" stroke:none;fill-rule:nonzero;fill:rgb(81.176471%,6.666667%,14.901961%);fill-opacity:1;" d="M 16.148438 5.179688 L 16.035156 5.269531 L 15.933594 5.191406 L 15.933594 5.808594 L 16.148438 5.8125 Z M 16.148438 5.179688 "/>
<path style=" stroke:none;fill-rule:nonzero;fill:rgb(81.176471%,6.666667%,14.901961%);fill-opacity:1;" d="M 15.441406 4.539062 C 15.417969 4.832031 15.34375 5.035156 15.242188 5.257812 L 15.488281 5.027344 L 15.660156 5.234375 L 15.847656 5.027344 L 16.035156 5.199219 L 16.21875 5.019531 L 16.40625 5.238281 L 16.570312 5.058594 L 16.851562 5.257812 C 16.75 5.035156 16.613281 4.84375 16.628906 4.527344 C 16.359375 4.730469 15.71875 4.765625 15.441406 4.539062 Z M 15.441406 4.539062 "/>
<path style=" stroke:none;fill-rule:nonzero;fill:rgb(81.176471%,6.666667%,14.901961%);fill-opacity:1;" d="M 15.933594 4.390625 C 15.832031 4.390625 15.730469 4.394531 15.632812 4.410156 C 15.570312 4.425781 15.511719 4.445312 15.460938 4.480469 C 15.46875 4.671875 16.371094 4.75 16.613281 4.484375 C 16.5625 4.445312 16.5 4.425781 16.433594 4.410156 C 16.34375 4.394531 16.242188 4.390625 16.148438 4.390625 C 16.148438 4.441406 16.148438 4.496094 16.148438 4.546875 L 15.933594 4.546875 Z M 15.933594 4.390625 "/>
<path style=" stroke:none;fill-rule:nonzero;fill:rgb(81.176471%,6.666667%,14.901961%);fill-opacity:1;" d="M 16.109375 3.421875 L 15.96875 3.421875 L 15.96875 4.519531 L 16.113281 4.519531 Z M 16.109375 3.421875 "/>
<path style=" stroke:none;fill-rule:nonzero;fill:rgb(81.176471%,6.666667%,14.901961%);fill-opacity:1;" d="M 16.109375 3.449219 L 16.054688 3.976562 L 16.59375 4.238281 L 16.320312 3.875 L 16.695312 3.753906 Z M 16.109375 3.449219 "/>
<path style=" stroke:none;fill-rule:nonzero;fill:rgb(81.176471%,6.666667%,14.901961%);fill-opacity:1;" d="M 16.046875 3.3125 C 15.964844 3.3125 15.90625 3.34375 15.90625 3.378906 C 15.90625 3.417969 15.964844 3.449219 16.046875 3.449219 C 16.128906 3.449219 16.191406 3.417969 16.191406 3.378906 C 16.191406 3.34375 16.128906 3.3125 16.046875 3.3125 Z M 16.046875 3.3125 "/>
<path style=" stroke:none;fill-rule:nonzero;fill:rgb(96.862745%,87.843137%,9.019608%);fill-opacity:1;" d="M 15.800781 12.53125 C 15.890625 12.5 15.941406 12.445312 15.976562 12.34375 C 15.996094 12.292969 16.007812 12.238281 16.003906 12.222656 C 15.996094 12.191406 15.957031 12.191406 15.914062 12.226562 C 15.886719 12.25 15.882812 12.265625 15.890625 12.3125 C 15.914062 12.4375 15.867188 12.46875 15.632812 12.492188 C 15.609375 12.496094 15.542969 12.492188 15.480469 12.484375 C 15.371094 12.472656 15.332031 12.480469 15.371094 12.515625 C 15.382812 12.527344 15.414062 12.539062 15.441406 12.546875 C 15.503906 12.5625 15.734375 12.550781 15.800781 12.53125 Z M 15.800781 12.53125 "/>
<path style=" stroke:none;fill-rule:nonzero;fill:rgb(96.862745%,87.843137%,9.019608%);fill-opacity:1;" d="M 16.289062 12.507812 C 16.300781 12.496094 16.347656 12.476562 16.390625 12.460938 C 16.449219 12.441406 16.476562 12.421875 16.5 12.386719 C 16.570312 12.285156 16.558594 12.195312 16.457031 12.078125 C 16.402344 12.011719 16.375 12.015625 16.332031 12.085938 C 16.292969 12.148438 16.296875 12.152344 16.351562 12.167969 C 16.378906 12.171875 16.40625 12.195312 16.421875 12.21875 C 16.480469 12.324219 16.464844 12.386719 16.375 12.386719 C 16.296875 12.390625 16.273438 12.398438 16.25 12.453125 C 16.238281 12.480469 16.230469 12.507812 16.230469 12.515625 C 16.230469 12.539062 16.261719 12.535156 16.289062 12.507812 Z M 16.289062 12.507812 "/>
<path style=" stroke:none;fill-rule:nonzero;fill:rgb(96.862745%,87.843137%,9.019608%);fill-opacity:1;" d="M 16.128906 12.390625 C 16.144531 12.351562 16.148438 12.277344 16.148438 12.128906 C 16.148438 12.011719 16.140625 11.917969 16.136719 11.914062 C 16.125 11.898438 16.058594 11.941406 16.050781 11.96875 C 16.046875 11.984375 16.054688 12.015625 16.066406 12.042969 C 16.085938 12.082031 16.089844 12.117188 16.082031 12.273438 C 16.074219 12.472656 16.089844 12.503906 16.128906 12.390625 Z M 16.128906 12.390625 "/>
<path style=" stroke:none;fill-rule:nonzero;fill:rgb(96.862745%,87.843137%,9.019608%);fill-opacity:1;" d="M 15.753906 12.296875 C 15.761719 12.261719 15.769531 12.1875 15.777344 12.132812 C 15.78125 12.078125 15.792969 12.007812 15.800781 11.976562 C 15.824219 11.902344 15.800781 11.878906 15.738281 11.921875 L 15.695312 11.957031 L 15.703125 12.066406 C 15.710938 12.164062 15.695312 12.351562 15.675781 12.421875 C 15.667969 12.441406 15.675781 12.4375 15.703125 12.410156 C 15.722656 12.382812 15.746094 12.335938 15.753906 12.296875 Z M 15.753906 12.296875 "/>
<path style=" stroke:none;fill-rule:nonzero;fill:rgb(96.862745%,87.843137%,9.019608%);fill-opacity:1;" d="M 15.417969 12.351562 C 15.5 12.285156 15.492188 12.167969 15.507812 12.074219 C 15.507812 12.011719 15.550781 11.9375 15.523438 11.878906 C 15.445312 11.894531 15.398438 11.964844 15.4375 12.039062 C 15.441406 12.121094 15.4375 12.210938 15.394531 12.285156 C 15.359375 12.332031 15.25 12.320312 15.257812 12.253906 C 15.285156 12.152344 15.160156 12.199219 15.113281 12.226562 C 15.074219 12.253906 14.996094 12.253906 15.023438 12.191406 C 15.007812 12.105469 14.898438 12.160156 14.835938 12.15625 C 14.78125 12.15625 14.832031 12.042969 14.75 12.0625 C 14.597656 12.050781 14.433594 12.0625 14.300781 11.972656 C 14.226562 11.9375 14.234375 11.84375 14.277344 11.785156 C 14.324219 11.703125 14.335938 11.601562 14.414062 11.539062 C 14.488281 11.464844 14.34375 11.496094 14.308594 11.519531 C 14.238281 11.558594 14.304688 11.664062 14.246094 11.71875 C 14.210938 11.78125 14.164062 11.859375 14.082031 11.851562 C 13.964844 11.828125 13.898438 11.71875 13.816406 11.648438 C 13.746094 11.632812 13.785156 11.761719 13.820312 11.789062 C 13.894531 11.84375 13.980469 11.886719 14.066406 11.910156 C 14.15625 11.894531 14.160156 12.007812 14.234375 12.027344 C 14.371094 12.089844 14.523438 12.109375 14.675781 12.117188 C 14.734375 12.125 14.699219 12.226562 14.777344 12.207031 C 14.820312 12.21875 14.917969 12.191406 14.921875 12.242188 C 14.859375 12.320312 14.988281 12.316406 15.035156 12.304688 C 15.09375 12.292969 15.171875 12.269531 15.1875 12.355469 C 15.238281 12.410156 15.332031 12.402344 15.394531 12.371094 C 15.402344 12.363281 15.414062 12.359375 15.417969 12.351562 Z M 15.417969 12.351562 "/>
<path style=" stroke:none;fill-rule:nonzero;fill:rgb(96.862745%,87.843137%,9.019608%);fill-opacity:1;" d="M 14.089844 11.679688 C 14.117188 11.648438 14.152344 11.585938 14.171875 11.539062 C 14.195312 11.492188 14.222656 11.4375 14.242188 11.421875 C 14.28125 11.378906 14.257812 11.351562 14.195312 11.367188 C 14.160156 11.375 14.148438 11.386719 14.144531 11.414062 C 14.125 11.511719 14.089844 11.605469 14.058594 11.652344 C 14.003906 11.734375 14.003906 11.734375 14.023438 11.734375 C 14.039062 11.734375 14.066406 11.710938 14.089844 11.679688 Z M 14.089844 11.679688 "/>
<path style=" stroke:none;fill-rule:nonzero;fill:rgb(96.862745%,87.843137%,9.019608%);fill-opacity:1;" d="M 13.257812 11.15625 C 13.195312 11.15625 13.195312 11.195312 13.253906 11.21875 C 13.285156 11.226562 13.308594 11.253906 13.328125 11.292969 C 13.386719 11.410156 13.421875 11.429688 13.578125 11.445312 L 13.679688 11.453125 L 13.683594 11.515625 C 13.6875 11.550781 13.695312 11.578125 13.703125 11.578125 C 13.710938 11.578125 13.75 11.558594 13.789062 11.539062 C 13.863281 11.503906 13.933594 11.414062 13.933594 11.363281 C 13.933594 11.328125 13.875 11.289062 13.820312 11.289062 C 13.796875 11.289062 13.75 11.308594 13.714844 11.332031 C 13.605469 11.414062 13.484375 11.398438 13.417969 11.292969 C 13.363281 11.207031 13.308594 11.15625 13.257812 11.15625 Z M 13.800781 11.375 C 13.832031 11.375 13.839844 11.394531 13.824219 11.4375 C 13.8125 11.46875 13.777344 11.46875 13.765625 11.441406 C 13.753906 11.40625 13.769531 11.375 13.800781 11.375 Z M 13.800781 11.375 "/>
<path style=" stroke:none;fill-rule:nonzero;fill:rgb(96.862745%,87.843137%,9.019608%);fill-opacity:1;" d="M 18.019531 11.238281 C 17.976562 11.238281 17.964844 11.246094 17.941406 11.285156 C 17.898438 11.347656 17.894531 11.484375 17.933594 11.53125 C 17.957031 11.5625 17.960938 11.5625 18.011719 11.542969 C 18.082031 11.511719 18.09375 11.511719 18.09375 11.550781 C 18.09375 11.648438 17.953125 11.839844 17.804688 11.941406 C 17.765625 11.964844 17.730469 11.996094 17.726562 12.007812 C 17.714844 12.035156 17.769531 12.027344 17.839844 11.996094 C 17.929688 11.949219 18.050781 11.824219 18.097656 11.726562 C 18.136719 11.652344 18.144531 11.625 18.148438 11.488281 C 18.152344 11.367188 18.148438 11.328125 18.128906 11.289062 C 18.105469 11.242188 18.097656 11.238281 18.039062 11.238281 C 18.03125 11.238281 18.023438 11.238281 18.019531 11.238281 Z M 18.023438 11.324219 C 18.054688 11.324219 18.058594 11.332031 18.0625 11.375 C 18.066406 11.410156 18.058594 11.433594 18.039062 11.453125 C 18.011719 11.476562 18.011719 11.476562 17.984375 11.441406 C 17.949219 11.386719 17.972656 11.324219 18.023438 11.324219 Z M 18.023438 11.324219 "/>
<path style=" stroke:none;fill-rule:nonzero;fill:rgb(96.862745%,87.843137%,9.019608%);fill-opacity:1;" d="M 17.347656 12.273438 C 17.480469 12.207031 17.554688 12.136719 17.605469 12.03125 C 17.628906 11.984375 17.648438 11.9375 17.648438 11.929688 C 17.648438 11.910156 17.582031 11.878906 17.542969 11.878906 C 17.507812 11.878906 17.5 11.855469 17.515625 11.78125 C 17.53125 11.710938 17.511719 11.621094 17.480469 11.621094 C 17.46875 11.621094 17.449219 11.636719 17.4375 11.65625 C 17.414062 11.6875 17.414062 11.703125 17.429688 11.746094 C 17.453125 11.816406 17.433594 11.867188 17.375 11.910156 C 17.34375 11.929688 17.328125 11.953125 17.328125 11.976562 C 17.328125 11.996094 17.332031 12.011719 17.335938 12.011719 C 17.335938 12.011719 17.371094 11.992188 17.40625 11.972656 L 17.46875 11.9375 L 17.507812 11.96875 C 17.527344 11.984375 17.546875 12.011719 17.546875 12.027344 C 17.546875 12.105469 17.320312 12.238281 17.164062 12.253906 C 17.082031 12.257812 17.070312 12.257812 17.039062 12.226562 C 17.015625 12.203125 17.011719 12.183594 17.015625 12.15625 C 17.019531 12.136719 17.027344 12.097656 17.035156 12.070312 C 17.046875 12.003906 17.019531 12.011719 16.96875 12.09375 C 16.925781 12.160156 16.914062 12.230469 16.9375 12.265625 C 16.957031 12.296875 17.085938 12.328125 17.175781 12.320312 C 17.234375 12.316406 17.289062 12.300781 17.347656 12.273438 Z M 17.347656 12.273438 "/>
<path style=" stroke:none;fill-rule:nonzero;fill:rgb(96.862745%,87.843137%,9.019608%);fill-opacity:1;" d="M 18.214844 11.789062 C 18.296875 11.707031 18.332031 11.609375 18.332031 11.453125 L 18.332031 11.339844 L 18.402344 11.308594 C 18.488281 11.265625 18.570312 11.183594 18.570312 11.136719 C 18.570312 11.089844 18.550781 11.089844 18.511719 11.140625 C 18.484375 11.179688 18.449219 11.203125 18.3125 11.265625 C 18.277344 11.28125 18.277344 11.289062 18.269531 11.433594 C 18.257812 11.597656 18.234375 11.660156 18.144531 11.773438 C 18.085938 11.84375 18.085938 11.851562 18.125 11.851562 C 18.140625 11.851562 18.183594 11.824219 18.214844 11.789062 Z M 18.214844 11.789062 "/>
<path style=" stroke:none;fill-rule:nonzero;fill:rgb(96.862745%,87.843137%,9.019608%);fill-opacity:1;" d="M 17.324219 11.695312 C 17.332031 11.671875 17.289062 11.65625 17.269531 11.675781 C 17.261719 11.683594 17.257812 11.699219 17.265625 11.707031 C 17.277344 11.726562 17.316406 11.71875 17.324219 11.695312 Z M 17.324219 11.695312 "/>
<path style=" stroke:none;fill-rule:nonzero;fill:rgb(96.862745%,87.843137%,9.019608%);fill-opacity:1;" d="M 18.554688 11.378906 C 18.5625 11.355469 18.515625 11.335938 18.496094 11.355469 C 18.488281 11.367188 18.488281 11.378906 18.492188 11.386719 C 18.503906 11.410156 18.546875 11.402344 18.554688 11.378906 Z M 18.554688 11.378906 "/>
<path style=" stroke:none;fill-rule:nonzero;fill:rgb(96.862745%,87.843137%,9.019608%);fill-opacity:1;" d="M 17.074219 10.515625 C 17.042969 10.53125 17.027344 10.566406 17.003906 10.59375 C 16.988281 10.605469 17.003906 10.613281 17.011719 10.625 C 17.066406 10.683594 17.089844 10.765625 17.117188 10.84375 C 17.144531 10.933594 17.175781 11.027344 17.148438 11.121094 C 17.140625 11.15625 17.109375 11.195312 17.070312 11.183594 C 17 11.179688 16.933594 11.160156 16.867188 11.160156 C 16.808594 11.164062 16.761719 11.21875 16.699219 11.214844 C 16.660156 11.214844 16.660156 11.132812 16.625 11.15625 C 16.605469 11.199219 16.617188 11.246094 16.613281 11.292969 C 16.621094 11.300781 16.640625 11.292969 16.652344 11.296875 L 16.773438 11.296875 C 16.78125 11.335938 16.78125 11.386719 16.808594 11.417969 C 16.851562 11.433594 16.898438 11.421875 16.9375 11.402344 C 16.980469 11.382812 16.988281 11.332031 17 11.292969 C 17.011719 11.25 17.070312 11.261719 17.101562 11.242188 C 17.183594 11.21875 17.238281 11.136719 17.230469 11.050781 C 17.226562 10.925781 17.179688 10.804688 17.140625 10.683594 C 17.125 10.632812 17.109375 10.578125 17.089844 10.523438 C 17.085938 10.519531 17.082031 10.515625 17.074219 10.515625 Z M 16.875 11.246094 C 16.917969 11.242188 16.9375 11.296875 16.929688 11.335938 C 16.914062 11.382812 16.851562 11.351562 16.839844 11.316406 C 16.816406 11.285156 16.828125 11.238281 16.875 11.246094 Z M 16.875 11.246094 "/>
<path style=" stroke:none;fill-rule:nonzero;fill:rgb(96.862745%,87.843137%,9.019608%);fill-opacity:1;" d="M 15.199219 10.828125 C 15.179688 10.828125 15.15625 10.835938 15.132812 10.851562 C 15.015625 10.933594 14.984375 11.03125 15.066406 11.070312 C 15.125 11.097656 15.109375 11.128906 15.015625 11.175781 C 14.882812 11.242188 14.765625 11.234375 14.542969 11.140625 C 14.488281 11.121094 14.476562 11.128906 14.488281 11.179688 C 14.5 11.226562 14.546875 11.253906 14.65625 11.28125 C 14.777344 11.308594 14.921875 11.296875 15.015625 11.257812 C 15.0625 11.238281 15.113281 11.199219 15.160156 11.148438 L 15.234375 11.070312 L 15.316406 11.078125 C 15.421875 11.089844 15.421875 11.09375 15.421875 11.140625 C 15.421875 11.183594 15.425781 11.183594 15.519531 11.191406 C 15.574219 11.195312 15.644531 11.203125 15.675781 11.203125 C 15.71875 11.203125 15.742188 11.207031 15.757812 11.226562 C 15.773438 11.253906 15.785156 11.253906 15.941406 11.242188 C 16.089844 11.226562 16.117188 11.230469 16.183594 11.253906 C 16.230469 11.269531 16.28125 11.273438 16.320312 11.269531 C 16.433594 11.257812 16.585938 11.164062 16.609375 11.097656 C 16.613281 11.089844 16.652344 11.074219 16.699219 11.066406 C 16.8125 11.042969 16.816406 11.019531 16.710938 11.007812 C 16.667969 11 16.597656 10.984375 16.558594 10.96875 C 16.519531 10.953125 16.46875 10.941406 16.441406 10.941406 C 16.386719 10.941406 16.332031 10.976562 16.332031 11.011719 C 16.332031 11.039062 16.339844 11.039062 16.410156 11.03125 C 16.472656 11.027344 16.488281 11.03125 16.523438 11.054688 C 16.546875 11.074219 16.558594 11.09375 16.554688 11.101562 C 16.539062 11.125 16.410156 11.1875 16.351562 11.195312 C 16.3125 11.203125 16.28125 11.195312 16.25 11.179688 C 16.199219 11.15625 16.121094 11.152344 16.109375 11.171875 C 16.101562 11.183594 16.085938 11.175781 16.0625 11.15625 L 16.027344 11.125 L 15.949219 11.15625 C 15.871094 11.1875 15.839844 11.1875 15.839844 11.148438 C 15.839844 11.132812 15.816406 11.128906 15.699219 11.136719 C 15.570312 11.148438 15.558594 11.144531 15.53125 11.117188 C 15.511719 11.09375 15.511719 11.082031 15.527344 11.058594 C 15.539062 11.035156 15.539062 11.023438 15.527344 11.011719 C 15.511719 10.996094 15.496094 10.996094 15.441406 11.011719 C 15.3125 11.042969 15.277344 11.027344 15.277344 10.925781 C 15.277344 10.863281 15.242188 10.828125 15.199219 10.828125 Z M 15.167969 10.917969 C 15.171875 10.917969 15.179688 10.921875 15.1875 10.933594 C 15.199219 10.945312 15.207031 10.964844 15.199219 10.976562 C 15.1875 11.007812 15.132812 11.003906 15.121094 10.976562 C 15.117188 10.960938 15.125 10.945312 15.140625 10.933594 C 15.152344 10.921875 15.160156 10.917969 15.167969 10.917969 Z M 15.167969 10.917969 "/>
<path style=" stroke:none;fill-rule:nonzero;fill:rgb(96.862745%,87.843137%,9.019608%);fill-opacity:1;" d="M 14.9375 11.011719 C 15.015625 10.964844 15.011719 10.96875 15.023438 10.828125 C 15.03125 10.730469 15.03125 10.722656 15.003906 10.722656 C 14.964844 10.722656 14.945312 10.765625 14.945312 10.847656 C 14.945312 10.898438 14.9375 10.921875 14.910156 10.949219 C 14.84375 11.015625 14.683594 10.984375 14.660156 10.902344 C 14.65625 10.875 14.664062 10.851562 14.699219 10.800781 C 14.769531 10.703125 14.753906 10.675781 14.664062 10.753906 C 14.605469 10.804688 14.59375 10.808594 14.605469 10.761719 C 14.617188 10.71875 14.59375 10.703125 14.546875 10.714844 C 14.523438 10.722656 14.507812 10.738281 14.503906 10.769531 C 14.496094 10.796875 14.484375 10.8125 14.460938 10.820312 C 14.417969 10.828125 14.351562 10.792969 14.351562 10.761719 C 14.351562 10.738281 14.453125 10.613281 14.582031 10.480469 C 14.628906 10.429688 14.671875 10.382812 14.671875 10.375 C 14.671875 10.367188 14.644531 10.363281 14.613281 10.363281 C 14.566406 10.363281 14.554688 10.367188 14.554688 10.390625 C 14.554688 10.40625 14.488281 10.488281 14.410156 10.578125 C 14.246094 10.765625 14.230469 10.804688 14.3125 10.855469 C 14.378906 10.894531 14.464844 10.890625 14.53125 10.847656 L 14.582031 10.808594 L 14.582031 10.875 C 14.582031 10.960938 14.601562 10.992188 14.667969 11.027344 C 14.75 11.070312 14.851562 11.066406 14.9375 11.011719 Z M 14.9375 11.011719 "/>
<path style=" stroke:none;fill-rule:nonzero;fill:rgb(96.862745%,87.843137%,9.019608%);fill-opacity:1;" d="M 18.414062 9.859375 C 18.351562 9.898438 18.402344 9.972656 18.410156 10.023438 C 18.386719 10.09375 18.296875 10.113281 18.230469 10.125 C 18.136719 10.140625 18.070312 10.21875 18.035156 10.300781 C 18.015625 10.355469 17.972656 10.4375 17.921875 10.355469 C 17.878906 10.3125 17.796875 10.277344 17.746094 10.328125 C 17.707031 10.367188 17.695312 10.421875 17.679688 10.472656 C 17.65625 10.433594 17.648438 10.375 17.597656 10.363281 C 17.519531 10.375 17.546875 10.472656 17.585938 10.515625 C 17.617188 10.5625 17.652344 10.625 17.617188 10.679688 C 17.589844 10.75 17.488281 10.792969 17.429688 10.738281 C 17.375 10.707031 17.414062 10.605469 17.359375 10.597656 C 17.332031 10.617188 17.328125 10.726562 17.285156 10.667969 C 17.253906 10.617188 17.273438 10.546875 17.234375 10.503906 C 17.1875 10.507812 17.152344 10.585938 17.167969 10.628906 C 17.226562 10.707031 17.253906 10.808594 17.277344 10.902344 C 17.289062 10.941406 17.273438 11.019531 17.308594 11.035156 C 17.335938 10.972656 17.3125 10.902344 17.332031 10.839844 C 17.390625 10.835938 17.453125 10.859375 17.515625 10.847656 C 17.601562 10.835938 17.667969 10.761719 17.699219 10.683594 C 17.710938 10.625 17.699219 10.5625 17.695312 10.503906 C 17.765625 10.515625 17.835938 10.515625 17.902344 10.539062 C 17.9375 10.589844 17.894531 10.660156 17.882812 10.714844 C 17.847656 10.828125 17.761719 10.90625 17.675781 10.984375 C 17.640625 11.003906 17.636719 11.058594 17.6875 11.03125 C 17.804688 10.980469 17.890625 10.875 17.9375 10.765625 C 17.972656 10.675781 17.945312 10.582031 17.96875 10.492188 C 18.003906 10.425781 18.085938 10.4375 18.148438 10.441406 C 18.210938 10.4375 18.265625 10.363281 18.246094 10.300781 C 18.226562 10.226562 18.300781 10.195312 18.355469 10.167969 C 18.421875 10.132812 18.476562 10.0625 18.472656 9.980469 C 18.46875 9.941406 18.46875 9.863281 18.414062 9.859375 Z M 18.167969 10.277344 C 18.242188 10.296875 18.15625 10.4375 18.117188 10.347656 C 18.105469 10.3125 18.132812 10.273438 18.167969 10.277344 Z M 17.824219 10.378906 C 17.921875 10.371094 17.886719 10.511719 17.804688 10.449219 C 17.765625 10.429688 17.777344 10.375 17.824219 10.378906 Z M 17.824219 10.378906 "/>
<path style=" stroke:none;fill-rule:nonzero;fill:rgb(96.862745%,87.843137%,9.019608%);fill-opacity:1;" d="M 14.335938 10.921875 C 14.339844 10.90625 14.332031 10.898438 14.320312 10.898438 C 14.292969 10.898438 14.273438 10.921875 14.289062 10.941406 C 14.300781 10.960938 14.328125 10.949219 14.335938 10.921875 Z M 14.335938 10.921875 "/>
<path style=" stroke:none;fill-rule:nonzero;fill:rgb(96.862745%,87.843137%,9.019608%);fill-opacity:1;" d="M 15.464844 10.796875 C 15.464844 10.773438 15.457031 10.765625 15.441406 10.769531 C 15.402344 10.777344 15.398438 10.824219 15.433594 10.824219 C 15.457031 10.824219 15.464844 10.816406 15.464844 10.796875 Z M 15.464844 10.796875 "/>
<path style=" stroke:none;fill-rule:nonzero;fill:rgb(96.862745%,87.843137%,9.019608%);fill-opacity:1;" d="M 14.066406 10.117188 C 14.023438 10.109375 13.992188 10.144531 13.976562 10.183594 C 13.945312 10.238281 13.902344 10.296875 13.84375 10.328125 C 13.800781 10.339844 13.753906 10.324219 13.714844 10.300781 C 13.667969 10.277344 13.679688 10.222656 13.660156 10.1875 C 13.628906 10.160156 13.570312 10.199219 13.570312 10.238281 C 13.570312 10.289062 13.617188 10.320312 13.660156 10.339844 C 13.695312 10.363281 13.746094 10.375 13.757812 10.417969 C 13.757812 10.457031 13.773438 10.496094 13.816406 10.484375 C 13.867188 10.480469 13.882812 10.542969 13.859375 10.582031 C 13.839844 10.621094 13.828125 10.671875 13.835938 10.714844 C 13.859375 10.738281 13.882812 10.683594 13.902344 10.667969 C 13.914062 10.652344 13.925781 10.636719 13.9375 10.621094 C 14.027344 10.625 14.113281 10.636719 14.203125 10.632812 C 14.265625 10.632812 14.320312 10.59375 14.363281 10.546875 C 14.417969 10.488281 14.464844 10.417969 14.53125 10.367188 C 14.578125 10.355469 14.550781 10.265625 14.503906 10.292969 C 14.460938 10.308594 14.445312 10.359375 14.417969 10.390625 C 14.363281 10.453125 14.3125 10.515625 14.246094 10.5625 C 14.199219 10.582031 14.144531 10.574219 14.097656 10.5625 C 14.078125 10.546875 14.136719 10.53125 14.144531 10.511719 C 14.171875 10.484375 14.207031 10.457031 14.222656 10.421875 C 14.207031 10.386719 14.160156 10.382812 14.128906 10.382812 C 14.046875 10.394531 13.984375 10.460938 13.898438 10.46875 C 13.835938 10.472656 13.871094 10.402344 13.898438 10.378906 C 13.953125 10.3125 14.011719 10.253906 14.070312 10.1875 C 14.085938 10.167969 14.148438 10.148438 14.109375 10.121094 C 14.09375 10.117188 14.082031 10.117188 14.066406 10.117188 Z M 14.109375 10.449219 C 14.148438 10.472656 14.082031 10.511719 14.054688 10.507812 C 14.015625 10.515625 14.015625 10.480469 14.046875 10.472656 C 14.066406 10.460938 14.085938 10.453125 14.109375 10.449219 Z M 13.980469 10.535156 C 14.003906 10.535156 14.054688 10.558594 14.007812 10.574219 C 13.976562 10.597656 13.9375 10.546875 13.980469 10.535156 Z M 13.980469 10.535156 "/>
<path style=" stroke:none;fill-rule:nonzero;fill:rgb(96.862745%,87.843137%,9.019608%);fill-opacity:1;" d="M 14.980469 10.59375 C 14.980469 10.5625 14.925781 10.566406 14.917969 10.597656 C 14.914062 10.621094 14.921875 10.625 14.949219 10.621094 C 14.964844 10.617188 14.980469 10.605469 14.980469 10.59375 Z M 14.980469 10.59375 "/>
<path style=" stroke:none;fill-rule:nonzero;fill:rgb(96.862745%,87.843137%,9.019608%);fill-opacity:1;" d="M 17.472656 10.375 C 17.476562 10.34375 17.433594 10.324219 17.414062 10.347656 C 17.390625 10.367188 17.410156 10.410156 17.441406 10.402344 C 17.453125 10.402344 17.46875 10.386719 17.472656 10.375 Z M 17.472656 10.375 "/>
<path style=" stroke:none;fill-rule:nonzero;fill:rgb(96.862745%,87.843137%,9.019608%);fill-opacity:1;" d="M 13.597656 10.070312 C 13.636719 10.035156 13.636719 10.03125 13.617188 9.960938 C 13.59375 9.855469 13.597656 9.84375 13.636719 9.835938 C 13.683594 9.820312 13.8125 9.890625 13.839844 9.945312 C 13.863281 9.984375 13.859375 9.988281 13.824219 10.023438 C 13.785156 10.058594 13.785156 10.101562 13.824219 10.101562 C 13.855469 10.101562 13.949219 10.015625 13.949219 9.984375 C 13.949219 9.941406 13.847656 9.839844 13.765625 9.804688 C 13.71875 9.78125 13.667969 9.769531 13.613281 9.769531 C 13.507812 9.769531 13.496094 9.792969 13.523438 9.910156 C 13.554688 10.050781 13.511719 10.070312 13.398438 9.964844 C 13.316406 9.886719 13.28125 9.804688 13.285156 9.679688 C 13.285156 9.539062 13.335938 9.472656 13.453125 9.457031 C 13.53125 9.445312 13.53125 9.429688 13.449219 9.414062 C 13.332031 9.398438 13.234375 9.476562 13.195312 9.617188 C 13.152344 9.773438 13.25 9.960938 13.417969 10.0625 C 13.507812 10.113281 13.542969 10.113281 13.597656 10.070312 Z M 13.597656 10.070312 "/>
<path style=" stroke:none;fill-rule:nonzero;fill:rgb(96.862745%,87.843137%,9.019608%);fill-opacity:1;" d="M 18.238281 9.898438 C 18.246094 9.886719 18.253906 9.867188 18.253906 9.851562 C 18.253906 9.832031 18.269531 9.796875 18.289062 9.769531 C 18.308594 9.742188 18.328125 9.714844 18.328125 9.710938 C 18.328125 9.683594 18.28125 9.683594 18.246094 9.710938 C 18.210938 9.738281 18.183594 9.742188 18.183594 9.710938 C 18.183594 9.707031 18.199219 9.691406 18.21875 9.679688 C 18.273438 9.65625 18.277344 9.628906 18.234375 9.609375 C 18.175781 9.582031 18.117188 9.632812 18.113281 9.710938 C 18.109375 9.761719 18.113281 9.769531 18.152344 9.792969 C 18.191406 9.816406 18.195312 9.828125 18.191406 9.859375 C 18.179688 9.914062 18.203125 9.933594 18.238281 9.898438 Z M 18.238281 9.898438 "/>
<path style=" stroke:none;fill-rule:nonzero;fill:rgb(96.862745%,87.843137%,9.019608%);fill-opacity:1;" d="M 18.671875 9.847656 C 18.707031 9.820312 18.730469 9.789062 18.730469 9.777344 C 18.730469 9.765625 18.757812 9.738281 18.792969 9.710938 C 18.886719 9.644531 18.910156 9.574219 18.867188 9.46875 C 18.851562 9.425781 18.796875 9.367188 18.683594 9.265625 C 18.597656 9.183594 18.515625 9.121094 18.503906 9.121094 C 18.472656 9.121094 18.480469 9.234375 18.511719 9.246094 C 18.566406 9.261719 18.601562 9.285156 18.691406 9.367188 C 18.796875 9.460938 18.84375 9.550781 18.816406 9.597656 C 18.792969 9.644531 18.757812 9.628906 18.667969 9.53125 C 18.617188 9.480469 18.570312 9.4375 18.5625 9.4375 C 18.550781 9.4375 18.542969 9.457031 18.542969 9.484375 C 18.542969 9.515625 18.5625 9.546875 18.609375 9.601562 C 18.6875 9.6875 18.691406 9.738281 18.636719 9.785156 C 18.613281 9.800781 18.59375 9.8125 18.585938 9.8125 C 18.582031 9.8125 18.566406 9.789062 18.550781 9.757812 C 18.515625 9.691406 18.320312 9.480469 18.289062 9.480469 C 18.273438 9.480469 18.269531 9.5 18.269531 9.53125 C 18.269531 9.570312 18.277344 9.585938 18.308594 9.601562 C 18.347656 9.625 18.445312 9.722656 18.542969 9.839844 C 18.570312 9.875 18.597656 9.902344 18.605469 9.902344 C 18.609375 9.902344 18.640625 9.878906 18.671875 9.847656 Z M 18.671875 9.847656 "/>
<path style=" stroke:none;fill-rule:nonzero;fill:rgb(96.862745%,87.843137%,9.019608%);fill-opacity:1;" d="M 18.867188 9.292969 C 18.855469 9.25 18.589844 8.976562 18.5625 8.976562 C 18.546875 8.976562 18.542969 8.992188 18.546875 9.035156 C 18.550781 9.089844 18.554688 9.097656 18.59375 9.109375 C 18.613281 9.113281 18.683594 9.167969 18.746094 9.230469 C 18.808594 9.292969 18.867188 9.335938 18.871094 9.332031 C 18.875 9.328125 18.875 9.308594 18.867188 9.292969 Z M 18.867188 9.292969 "/>
<path style=" stroke:none;fill-rule:nonzero;fill:rgb(96.862745%,87.843137%,9.019608%);fill-opacity:1;" d="M 17.277344 12.375 C 17.277344 12.394531 17.261719 12.410156 17.238281 12.410156 C 17.214844 12.410156 17.199219 12.394531 17.199219 12.375 C 17.199219 12.355469 17.214844 12.339844 17.238281 12.339844 C 17.261719 12.339844 17.277344 12.355469 17.277344 12.375 Z M 17.277344 12.375 "/>
<path style=" stroke:none;fill-rule:nonzero;fill:rgb(96.862745%,87.843137%,9.019608%);fill-opacity:1;" d="M 17.417969 12.328125 C 17.417969 12.347656 17.398438 12.363281 17.378906 12.363281 C 17.355469 12.363281 17.339844 12.347656 17.339844 12.328125 C 17.339844 12.308594 17.355469 12.292969 17.378906 12.292969 C 17.398438 12.292969 17.417969 12.308594 17.417969 12.328125 Z M 17.417969 12.328125 "/>
</g>
</svg>
