<?xml version="1.0" encoding="UTF-8"?>
<svg xmlns="http://www.w3.org/2000/svg" xmlns:xlink="http://www.w3.org/1999/xlink" width="24px" height="16px" viewBox="0 0 22 16" version="1.1">
<defs>
<clipPath id="clip1">
  <path d="M 7 8 L 15 8 L 15 12 L 7 12 Z M 7 8 "/>
</clipPath>
<clipPath id="clip2">
  <path d="M 14.851562 8 C 14.851562 10.210938 13.125 12 11 12 C 8.875 12 7.148438 10.210938 7.148438 8 C 7.148438 5.789062 8.875 4 11 4 C 13.125 4 14.851562 5.789062 14.851562 8 Z M 14.851562 8 "/>
</clipPath>
<clipPath id="clip3">
  <path d="M 12 7 L 13 7 L 13 8 L 12 8 Z M 12 7 "/>
</clipPath>
<clipPath id="clip4">
  <path d="M 12.195312 7.460938 L 12.339844 7.109375 L 12.644531 7.246094 L 12.496094 7.597656 Z M 12.445312 7.292969 L 12.417969 7.351562 L 12.570312 7.421875 L 12.59375 7.363281 Z M 12.445312 7.292969 "/>
</clipPath>
</defs>
<g id="surface1">
<rect x="0" y="0" width="22" height="16" style="fill:rgb(0%,60.784314%,22.745098%);fill-opacity:1;stroke:none;"/>
<path style=" stroke:none;fill-rule:nonzero;fill:rgb(99.607843%,87.45098%,0%);fill-opacity:1;" d="M 1.871094 8 L 11 14.058594 L 20.128906 8 L 11 1.941406 Z M 1.871094 8 "/>
<path style=" stroke:none;fill-rule:nonzero;fill:rgb(0%,15.294118%,46.27451%);fill-opacity:1;" d="M 14.851562 8 C 14.851562 10.210938 13.125 12 11 12 C 8.875 12 7.148438 10.210938 7.148438 8 C 7.148438 5.789062 8.875 4 11 4 C 13.125 4 14.851562 5.789062 14.851562 8 Z M 14.851562 8 "/>
<g clip-path="url(#clip1)" clip-rule="nonzero">
<g clip-path="url(#clip2)" clip-rule="nonzero">
<path style=" stroke:none;fill-rule:nonzero;fill:rgb(100%,100%,100%);fill-opacity:1;" d="M -0.550781 16 C -1.285156 21.179688 2.066406 26.035156 7.023438 26.972656 C 11.980469 27.910156 16.761719 24.597656 17.835938 19.484375 C 18.910156 14.367188 15.886719 9.289062 11 8 L 10.449219 8 Z M -0.550781 16 "/>
</g>
</g>
<path style=" stroke:none;fill-rule:evenodd;fill:rgb(0%,60.784314%,22.745098%);fill-opacity:1;" d="M 7.707031 6.761719 C 7.761719 6.753906 7.8125 6.800781 7.816406 6.867188 "/>
<path style=" stroke:none;fill-rule:evenodd;fill:rgb(0%,60.784314%,22.745098%);fill-opacity:1;" d="M 8.015625 6.796875 L 8.082031 6.792969 L 8.074219 6.648438 L 8.21875 6.640625 C 8.242188 6.691406 8.222656 6.753906 8.179688 6.785156 L 7.972656 6.800781 Z M 8.070312 6.578125 L 8.210938 6.570312 C 8.265625 6.578125 8.304688 6.632812 8.296875 6.691406 C 8.289062 6.753906 8.238281 6.792969 8.179688 6.785156 L 8.039062 6.792969 Z M 8.070312 6.578125 "/>
<path style=" stroke:none;fill-rule:nonzero;fill:rgb(0%,60.784314%,22.745098%);fill-opacity:1;" d="M 8.324219 6.773438 C 8.324219 6.71875 8.3125 6.601562 8.234375 6.605469 L 8.136719 6.613281 C 8.25 6.605469 8.257812 6.722656 8.261719 6.777344 "/>
<path style=" stroke:none;fill-rule:evenodd;fill:rgb(0%,60.784314%,22.745098%);fill-opacity:1;" d="M 8.480469 6.765625 L 8.652344 6.761719 C 8.738281 6.765625 8.808594 6.835938 8.808594 6.925781 C 8.808594 7.015625 8.742188 7.089844 8.652344 7.089844 C 8.566406 7.089844 8.496094 7.019531 8.496094 6.929688 C 8.492188 6.84375 8.558594 6.765625 8.644531 6.761719 L 8.644531 6.707031 C 8.605469 6.757812 8.546875 6.78125 8.488281 6.765625 L 8.316406 6.769531 Z M 8.546875 6.695312 L 8.644531 6.691406 C 8.683594 6.722656 8.699219 6.777344 8.675781 6.820312 C 8.65625 6.867188 8.605469 6.886719 8.558594 6.875 C 8.515625 6.863281 8.484375 6.816406 8.488281 6.765625 L 8.488281 6.734375 C 8.464844 6.761719 8.425781 6.777344 8.386719 6.769531 L 8.289062 6.769531 Z M 8.546875 6.695312 "/>
<path style=" stroke:none;fill-rule:nonzero;fill:rgb(0%,60.784314%,22.745098%);fill-opacity:1;" d="M 8.945312 6.761719 L 9.273438 6.773438 L 9.277344 6.703125 L 9.011719 6.691406 L 9.015625 6.59375 L 9.222656 6.601562 L 9.226562 6.539062 L 9.015625 6.53125 L 9.019531 6.453125 L 9.269531 6.464844 L 9.273438 6.390625 L 8.957031 6.378906 Z M 8.945312 6.761719 "/>
<path style=" stroke:none;fill-rule:nonzero;fill:rgb(0%,60.784314%,22.745098%);fill-opacity:1;" d="M 9.410156 6.78125 L 9.472656 6.789062 L 9.496094 6.527344 L 9.546875 6.792969 L 9.605469 6.800781 L 9.699219 6.546875 L 9.675781 6.804688 L 9.738281 6.8125 L 9.769531 6.433594 L 9.679688 6.425781 L 9.585938 6.679688 L 9.535156 6.410156 L 9.441406 6.402344 Z M 9.410156 6.78125 "/>
<path style=" stroke:none;fill-rule:nonzero;fill:rgb(0%,60.784314%,22.745098%);fill-opacity:1;" d="M 10.171875 6.871094 L 10.441406 6.917969 L 10.453125 6.855469 L 10.242188 6.816406 L 10.257812 6.730469 L 10.425781 6.761719 L 10.4375 6.699219 L 10.269531 6.667969 L 10.277344 6.609375 L 10.480469 6.644531 L 10.492188 6.582031 L 10.226562 6.535156 Z M 10.171875 6.871094 "/>
<path style=" stroke:none;fill-rule:evenodd;fill:rgb(0%,60.784314%,22.745098%);fill-opacity:1;" d="M 10.867188 7.011719 L 10.933594 7.03125 L 10.964844 6.894531 L 11.109375 6.933594 C 11.113281 6.988281 11.078125 7.039062 11.027344 7.054688 L 10.824219 7 Z M 10.984375 6.824219 L 11.121094 6.863281 C 11.171875 6.890625 11.191406 6.953125 11.167969 7.007812 C 11.140625 7.0625 11.078125 7.082031 11.027344 7.054688 L 10.890625 7.019531 Z M 10.984375 6.824219 "/>
<path style=" stroke:none;fill-rule:evenodd;fill:rgb(0%,60.784314%,22.745098%);fill-opacity:1;" d="M 11.316406 7.136719 L 11.382812 7.160156 L 11.421875 7.023438 L 11.5625 7.070312 C 11.5625 7.125 11.527344 7.175781 11.472656 7.191406 L 11.273438 7.125 Z M 11.441406 6.957031 L 11.578125 7 C 11.628906 7.03125 11.644531 7.097656 11.617188 7.148438 C 11.585938 7.203125 11.523438 7.21875 11.472656 7.191406 L 11.339844 7.144531 Z M 11.441406 6.957031 "/>
<path style=" stroke:none;fill-rule:nonzero;fill:rgb(0%,60.784314%,22.745098%);fill-opacity:1;" d="M 11.613281 7.234375 C 11.628906 7.183594 11.664062 7.070312 11.589844 7.042969 L 11.496094 7.011719 C 11.605469 7.050781 11.570312 7.164062 11.554688 7.214844 "/>
<path style=" stroke:none;fill-rule:evenodd;fill:rgb(0%,60.784314%,22.745098%);fill-opacity:1;" d="M 11.9375 7.28125 C 11.988281 7.300781 12.011719 7.367188 11.988281 7.429688 "/>
<g clip-path="url(#clip3)" clip-rule="nonzero">
<g clip-path="url(#clip4)" clip-rule="nonzero">
<path style=" stroke:none;fill-rule:evenodd;fill:rgb(0%,60.784314%,22.745098%);fill-opacity:1;" d="M 12.371094 7.464844 C 12.421875 7.484375 12.441406 7.550781 12.414062 7.613281 "/>
</g>
</g>
<path style=" stroke:none;fill-rule:nonzero;fill:rgb(0%,60.784314%,22.745098%);fill-opacity:1;" d="M 12.441406 7.363281 L 12.570312 7.421875 L 12.550781 7.472656 L 12.421875 7.414062 Z M 12.441406 7.363281 "/>
<path style=" stroke:none;fill-rule:nonzero;fill:rgb(0%,60.784314%,22.745098%);fill-opacity:1;" d="M 12.523438 7.398438 L 12.570312 7.421875 L 12.496094 7.597656 L 12.449219 7.574219 Z M 12.523438 7.398438 "/>
<path style=" stroke:none;fill-rule:evenodd;fill:rgb(0%,60.784314%,22.745098%);fill-opacity:1;" d="M 12.621094 7.65625 L 12.679688 7.6875 L 12.742188 7.5625 L 12.871094 7.628906 C 12.867188 7.683594 12.820312 7.726562 12.765625 7.734375 L 12.578125 7.636719 Z M 12.773438 7.496094 L 12.898438 7.5625 C 12.945312 7.601562 12.949219 7.667969 12.914062 7.714844 C 12.878906 7.761719 12.8125 7.769531 12.765625 7.734375 L 12.640625 7.667969 Z M 12.773438 7.496094 "/>
<path style=" stroke:none;fill-rule:nonzero;fill:rgb(0%,60.784314%,22.745098%);fill-opacity:1;" d="M 12.898438 7.800781 C 12.921875 7.75 12.972656 7.644531 12.902344 7.609375 L 12.8125 7.5625 C 12.917969 7.617188 12.867188 7.722656 12.84375 7.769531 "/>
<path style=" stroke:none;fill-rule:nonzero;fill:rgb(0%,60.784314%,22.745098%);fill-opacity:1;" d="M 13.035156 7.875 L 13.320312 8.042969 L 13.355469 7.980469 L 13.125 7.847656 L 13.167969 7.761719 L 13.351562 7.867188 L 13.382812 7.8125 L 13.199219 7.703125 L 13.238281 7.636719 L 13.457031 7.765625 L 13.488281 7.703125 L 13.214844 7.542969 Z M 13.035156 7.875 "/>
<path style=" stroke:none;fill-rule:nonzero;fill:rgb(0%,60.784314%,22.745098%);fill-opacity:1;" d="M 13.570312 8.0625 C 13.550781 8.09375 13.570312 8.128906 13.613281 8.160156 C 13.660156 8.1875 13.6875 8.1875 13.703125 8.167969 C 13.742188 8.101562 13.507812 8.003906 13.582031 7.890625 C 13.640625 7.792969 13.746094 7.871094 13.789062 7.894531 C 13.828125 7.921875 13.890625 7.992188 13.839844 8.070312 L 13.773438 8.023438 C 13.796875 7.988281 13.773438 7.957031 13.738281 7.933594 C 13.703125 7.910156 13.675781 7.902344 13.65625 7.933594 C 13.621094 7.988281 13.847656 8.085938 13.777344 8.199219 C 13.726562 8.285156 13.636719 8.25 13.578125 8.207031 C 13.527344 8.175781 13.449219 8.097656 13.5 8.015625 Z M 13.570312 8.0625 "/>
<path style=" stroke:none;fill-rule:nonzero;fill:rgb(0%,60.784314%,22.745098%);fill-opacity:1;" d="M 13.964844 8.332031 C 13.941406 8.363281 13.960938 8.398438 14.003906 8.429688 C 14.046875 8.464844 14.074219 8.464844 14.089844 8.445312 C 14.132812 8.378906 13.90625 8.273438 13.984375 8.164062 C 14.050781 8.066406 14.152344 8.148438 14.1875 8.179688 C 14.226562 8.207031 14.289062 8.277344 14.234375 8.355469 L 14.167969 8.304688 C 14.191406 8.273438 14.171875 8.238281 14.136719 8.214844 C 14.101562 8.1875 14.078125 8.175781 14.054688 8.207031 C 14.015625 8.261719 14.238281 8.371094 14.164062 8.480469 C 14.109375 8.5625 14.019531 8.523438 13.964844 8.480469 C 13.914062 8.441406 13.84375 8.359375 13.894531 8.28125 Z M 13.964844 8.332031 "/>
<path style=" stroke:none;fill-rule:evenodd;fill:rgb(0%,60.784314%,22.745098%);fill-opacity:1;" d="M 14.378906 8.714844 C 14.417969 8.75 14.421875 8.820312 14.382812 8.871094 "/>
<path style=" stroke:none;fill-rule:nonzero;fill:rgb(100%,100%,100%);fill-opacity:1;" d="M 7.855469 7.109375 L 7.804688 7.273438 L 7.882812 7.300781 "/>
<path style=" stroke:none;fill-rule:nonzero;fill:rgb(100%,100%,100%);fill-opacity:1;" d="M 7.855469 7.109375 L 7.90625 7.273438 L 7.828125 7.300781 "/>
<path style=" stroke:none;fill-rule:nonzero;fill:rgb(100%,100%,100%);fill-opacity:1;" d="M 8.015625 7.230469 L 7.847656 7.230469 L 7.847656 7.3125 "/>
<path style=" stroke:none;fill-rule:nonzero;fill:rgb(100%,100%,100%);fill-opacity:1;" d="M 8.015625 7.230469 L 7.878906 7.328125 L 7.832031 7.261719 "/>
<path style=" stroke:none;fill-rule:nonzero;fill:rgb(100%,100%,100%);fill-opacity:1;" d="M 7.699219 7.230469 L 7.832031 7.328125 L 7.882812 7.261719 "/>
<path style=" stroke:none;fill-rule:nonzero;fill:rgb(100%,100%,100%);fill-opacity:1;" d="M 7.699219 7.230469 L 7.863281 7.230469 L 7.863281 7.3125 "/>
<path style=" stroke:none;fill-rule:nonzero;fill:rgb(100%,100%,100%);fill-opacity:1;" d="M 7.953125 7.421875 L 7.902344 7.257812 L 7.824219 7.285156 "/>
<path style=" stroke:none;fill-rule:nonzero;fill:rgb(100%,100%,100%);fill-opacity:1;" d="M 7.953125 7.421875 L 7.820312 7.320312 L 7.867188 7.25 "/>
<path style=" stroke:none;fill-rule:nonzero;fill:rgb(100%,100%,100%);fill-opacity:1;" d="M 7.761719 7.421875 L 7.894531 7.320312 L 7.84375 7.25 "/>
<path style=" stroke:none;fill-rule:nonzero;fill:rgb(100%,100%,100%);fill-opacity:1;" d="M 7.761719 7.421875 L 7.8125 7.257812 L 7.890625 7.285156 "/>
<path style=" stroke:none;fill-rule:nonzero;fill:rgb(100%,100%,100%);fill-opacity:1;" d="M 8.199219 8.792969 L 8.148438 8.953125 L 8.226562 8.980469 "/>
<path style=" stroke:none;fill-rule:nonzero;fill:rgb(100%,100%,100%);fill-opacity:1;" d="M 8.199219 8.792969 L 8.25 8.953125 L 8.171875 8.980469 "/>
<path style=" stroke:none;fill-rule:nonzero;fill:rgb(100%,100%,100%);fill-opacity:1;" d="M 8.355469 8.910156 L 8.191406 8.910156 L 8.191406 8.996094 "/>
<path style=" stroke:none;fill-rule:nonzero;fill:rgb(100%,100%,100%);fill-opacity:1;" d="M 8.355469 8.910156 L 8.222656 9.011719 L 8.171875 8.941406 "/>
<path style=" stroke:none;fill-rule:nonzero;fill:rgb(100%,100%,100%);fill-opacity:1;" d="M 8.039062 8.910156 L 8.175781 9.011719 L 8.222656 8.941406 "/>
<path style=" stroke:none;fill-rule:nonzero;fill:rgb(100%,100%,100%);fill-opacity:1;" d="M 8.039062 8.910156 L 8.207031 8.910156 L 8.207031 8.996094 "/>
<path style=" stroke:none;fill-rule:nonzero;fill:rgb(100%,100%,100%);fill-opacity:1;" d="M 8.292969 9.101562 L 8.242188 8.9375 L 8.164062 8.964844 "/>
<path style=" stroke:none;fill-rule:nonzero;fill:rgb(100%,100%,100%);fill-opacity:1;" d="M 8.292969 9.101562 L 8.160156 9 L 8.210938 8.933594 "/>
<path style=" stroke:none;fill-rule:nonzero;fill:rgb(100%,100%,100%);fill-opacity:1;" d="M 8.101562 9.101562 L 8.234375 9 L 8.1875 8.933594 "/>
<path style=" stroke:none;fill-rule:nonzero;fill:rgb(100%,100%,100%);fill-opacity:1;" d="M 8.101562 9.101562 L 8.152344 8.9375 L 8.230469 8.964844 "/>
<path style=" stroke:none;fill-rule:nonzero;fill:rgb(100%,100%,100%);fill-opacity:1;" d="M 7.726562 9.179688 L 7.683594 9.316406 L 7.75 9.335938 "/>
<path style=" stroke:none;fill-rule:nonzero;fill:rgb(100%,100%,100%);fill-opacity:1;" d="M 7.726562 9.179688 L 7.769531 9.316406 L 7.703125 9.335938 "/>
<path style=" stroke:none;fill-rule:nonzero;fill:rgb(100%,100%,100%);fill-opacity:1;" d="M 7.855469 9.277344 L 7.71875 9.277344 L 7.71875 9.351562 "/>
<path style=" stroke:none;fill-rule:nonzero;fill:rgb(100%,100%,100%);fill-opacity:1;" d="M 7.855469 9.277344 L 7.746094 9.363281 L 7.707031 9.304688 "/>
<path style=" stroke:none;fill-rule:nonzero;fill:rgb(100%,100%,100%);fill-opacity:1;" d="M 7.59375 9.277344 L 7.707031 9.363281 L 7.746094 9.304688 "/>
<path style=" stroke:none;fill-rule:nonzero;fill:rgb(100%,100%,100%);fill-opacity:1;" d="M 7.59375 9.277344 L 7.734375 9.277344 L 7.734375 9.351562 "/>
<path style=" stroke:none;fill-rule:nonzero;fill:rgb(100%,100%,100%);fill-opacity:1;" d="M 7.808594 9.4375 L 7.765625 9.300781 L 7.699219 9.324219 "/>
<path style=" stroke:none;fill-rule:nonzero;fill:rgb(100%,100%,100%);fill-opacity:1;" d="M 7.808594 9.4375 L 7.695312 9.355469 L 7.734375 9.296875 "/>
<path style=" stroke:none;fill-rule:nonzero;fill:rgb(100%,100%,100%);fill-opacity:1;" d="M 7.644531 9.4375 L 7.757812 9.355469 L 7.714844 9.296875 "/>
<path style=" stroke:none;fill-rule:nonzero;fill:rgb(100%,100%,100%);fill-opacity:1;" d="M 7.644531 9.4375 L 7.6875 9.300781 L 7.753906 9.324219 "/>
<path style=" stroke:none;fill-rule:nonzero;fill:rgb(100%,100%,100%);fill-opacity:1;" d="M 8.574219 8.636719 L 8.550781 8.714844 L 8.585938 8.726562 "/>
<path style=" stroke:none;fill-rule:nonzero;fill:rgb(100%,100%,100%);fill-opacity:1;" d="M 8.574219 8.636719 L 8.597656 8.714844 L 8.5625 8.726562 "/>
<path style=" stroke:none;fill-rule:nonzero;fill:rgb(100%,100%,100%);fill-opacity:1;" d="M 8.648438 8.691406 L 8.570312 8.691406 L 8.570312 8.734375 "/>
<path style=" stroke:none;fill-rule:nonzero;fill:rgb(100%,100%,100%);fill-opacity:1;" d="M 8.648438 8.691406 L 8.585938 8.742188 L 8.5625 8.707031 "/>
<path style=" stroke:none;fill-rule:nonzero;fill:rgb(100%,100%,100%);fill-opacity:1;" d="M 8.5 8.691406 L 8.5625 8.742188 L 8.585938 8.707031 "/>
<path style=" stroke:none;fill-rule:nonzero;fill:rgb(100%,100%,100%);fill-opacity:1;" d="M 8.5 8.691406 L 8.578125 8.691406 L 8.578125 8.734375 "/>
<path style=" stroke:none;fill-rule:nonzero;fill:rgb(100%,100%,100%);fill-opacity:1;" d="M 8.621094 8.785156 L 8.597656 8.707031 L 8.558594 8.71875 "/>
<path style=" stroke:none;fill-rule:nonzero;fill:rgb(100%,100%,100%);fill-opacity:1;" d="M 8.621094 8.785156 L 8.558594 8.738281 L 8.582031 8.703125 "/>
<path style=" stroke:none;fill-rule:nonzero;fill:rgb(100%,100%,100%);fill-opacity:1;" d="M 8.527344 8.785156 L 8.59375 8.738281 L 8.570312 8.703125 "/>
<path style=" stroke:none;fill-rule:nonzero;fill:rgb(100%,100%,100%);fill-opacity:1;" d="M 8.527344 8.785156 L 8.554688 8.707031 L 8.589844 8.71875 "/>
<path style=" stroke:none;fill-rule:nonzero;fill:rgb(100%,100%,100%);fill-opacity:1;" d="M 9 9.21875 L 8.957031 9.355469 L 9.023438 9.375 "/>
<path style=" stroke:none;fill-rule:nonzero;fill:rgb(100%,100%,100%);fill-opacity:1;" d="M 9 9.21875 L 9.042969 9.355469 L 8.976562 9.375 "/>
<path style=" stroke:none;fill-rule:nonzero;fill:rgb(100%,100%,100%);fill-opacity:1;" d="M 9.128906 9.316406 L 8.992188 9.316406 L 8.992188 9.386719 "/>
<path style=" stroke:none;fill-rule:nonzero;fill:rgb(100%,100%,100%);fill-opacity:1;" d="M 9.128906 9.316406 L 9.019531 9.398438 L 8.976562 9.34375 "/>
<path style=" stroke:none;fill-rule:nonzero;fill:rgb(100%,100%,100%);fill-opacity:1;" d="M 8.867188 9.316406 L 8.980469 9.398438 L 9.019531 9.34375 "/>
<path style=" stroke:none;fill-rule:nonzero;fill:rgb(100%,100%,100%);fill-opacity:1;" d="M 8.867188 9.316406 L 9.003906 9.316406 L 9.003906 9.386719 "/>
<path style=" stroke:none;fill-rule:nonzero;fill:rgb(100%,100%,100%);fill-opacity:1;" d="M 9.078125 9.476562 L 9.039062 9.339844 L 8.972656 9.363281 "/>
<path style=" stroke:none;fill-rule:nonzero;fill:rgb(100%,100%,100%);fill-opacity:1;" d="M 9.078125 9.476562 L 8.96875 9.390625 L 9.007812 9.335938 "/>
<path style=" stroke:none;fill-rule:nonzero;fill:rgb(100%,100%,100%);fill-opacity:1;" d="M 8.917969 9.476562 L 9.03125 9.390625 L 8.988281 9.335938 "/>
<path style=" stroke:none;fill-rule:nonzero;fill:rgb(100%,100%,100%);fill-opacity:1;" d="M 8.917969 9.476562 L 8.960938 9.339844 L 9.027344 9.363281 "/>
<path style=" stroke:none;fill-rule:nonzero;fill:rgb(100%,100%,100%);fill-opacity:1;" d="M 8.882812 9.644531 L 8.851562 9.753906 L 8.902344 9.769531 "/>
<path style=" stroke:none;fill-rule:nonzero;fill:rgb(100%,100%,100%);fill-opacity:1;" d="M 8.882812 9.644531 L 8.917969 9.753906 L 8.867188 9.769531 "/>
<path style=" stroke:none;fill-rule:nonzero;fill:rgb(100%,100%,100%);fill-opacity:1;" d="M 8.988281 9.722656 L 8.878906 9.722656 L 8.878906 9.78125 "/>
<path style=" stroke:none;fill-rule:nonzero;fill:rgb(100%,100%,100%);fill-opacity:1;" d="M 8.988281 9.722656 L 8.898438 9.789062 L 8.867188 9.742188 "/>
<path style=" stroke:none;fill-rule:nonzero;fill:rgb(100%,100%,100%);fill-opacity:1;" d="M 8.777344 9.722656 L 8.867188 9.789062 L 8.902344 9.742188 "/>
<path style=" stroke:none;fill-rule:nonzero;fill:rgb(100%,100%,100%);fill-opacity:1;" d="M 8.777344 9.722656 L 8.890625 9.722656 L 8.890625 9.78125 "/>
<path style=" stroke:none;fill-rule:nonzero;fill:rgb(100%,100%,100%);fill-opacity:1;" d="M 8.949219 9.851562 L 8.914062 9.742188 L 8.863281 9.757812 "/>
<path style=" stroke:none;fill-rule:nonzero;fill:rgb(100%,100%,100%);fill-opacity:1;" d="M 8.949219 9.851562 L 8.859375 9.78125 L 8.890625 9.738281 "/>
<path style=" stroke:none;fill-rule:nonzero;fill:rgb(100%,100%,100%);fill-opacity:1;" d="M 8.820312 9.851562 L 8.90625 9.78125 L 8.875 9.738281 "/>
<path style=" stroke:none;fill-rule:nonzero;fill:rgb(100%,100%,100%);fill-opacity:1;" d="M 8.820312 9.851562 L 8.851562 9.742188 L 8.90625 9.757812 "/>
<path style=" stroke:none;fill-rule:nonzero;fill:rgb(100%,100%,100%);fill-opacity:1;" d="M 12.195312 6.585938 L 12.144531 6.75 L 12.222656 6.777344 "/>
<path style=" stroke:none;fill-rule:nonzero;fill:rgb(100%,100%,100%);fill-opacity:1;" d="M 12.195312 6.585938 L 12.246094 6.75 L 12.167969 6.777344 "/>
<path style=" stroke:none;fill-rule:nonzero;fill:rgb(100%,100%,100%);fill-opacity:1;" d="M 12.351562 6.707031 L 12.1875 6.707031 L 12.1875 6.792969 "/>
<path style=" stroke:none;fill-rule:nonzero;fill:rgb(100%,100%,100%);fill-opacity:1;" d="M 12.351562 6.707031 L 12.21875 6.808594 L 12.167969 6.738281 "/>
<path style=" stroke:none;fill-rule:nonzero;fill:rgb(100%,100%,100%);fill-opacity:1;" d="M 12.039062 6.707031 L 12.171875 6.808594 L 12.21875 6.738281 "/>
<path style=" stroke:none;fill-rule:nonzero;fill:rgb(100%,100%,100%);fill-opacity:1;" d="M 12.039062 6.707031 L 12.203125 6.707031 L 12.203125 6.792969 "/>
<path style=" stroke:none;fill-rule:nonzero;fill:rgb(100%,100%,100%);fill-opacity:1;" d="M 12.292969 6.898438 L 12.242188 6.734375 L 12.160156 6.761719 "/>
<path style=" stroke:none;fill-rule:nonzero;fill:rgb(100%,100%,100%);fill-opacity:1;" d="M 12.292969 6.898438 L 12.15625 6.796875 L 12.207031 6.726562 "/>
<path style=" stroke:none;fill-rule:nonzero;fill:rgb(100%,100%,100%);fill-opacity:1;" d="M 12.097656 6.898438 L 12.230469 6.796875 L 12.183594 6.726562 "/>
<path style=" stroke:none;fill-rule:nonzero;fill:rgb(100%,100%,100%);fill-opacity:1;" d="M 12.097656 6.898438 L 12.148438 6.734375 L 12.226562 6.761719 "/>
<path style=" stroke:none;fill-rule:nonzero;fill:rgb(100%,100%,100%);fill-opacity:1;" d="M 13.699219 9.234375 L 13.648438 9.394531 L 13.726562 9.421875 "/>
<path style=" stroke:none;fill-rule:nonzero;fill:rgb(100%,100%,100%);fill-opacity:1;" d="M 13.699219 9.234375 L 13.75 9.394531 L 13.671875 9.421875 "/>
<path style=" stroke:none;fill-rule:nonzero;fill:rgb(100%,100%,100%);fill-opacity:1;" d="M 13.855469 9.351562 L 13.691406 9.351562 L 13.691406 9.4375 "/>
<path style=" stroke:none;fill-rule:nonzero;fill:rgb(100%,100%,100%);fill-opacity:1;" d="M 13.855469 9.351562 L 13.722656 9.453125 L 13.671875 9.382812 "/>
<path style=" stroke:none;fill-rule:nonzero;fill:rgb(100%,100%,100%);fill-opacity:1;" d="M 13.539062 9.351562 L 13.675781 9.453125 L 13.722656 9.382812 "/>
<path style=" stroke:none;fill-rule:nonzero;fill:rgb(100%,100%,100%);fill-opacity:1;" d="M 13.539062 9.351562 L 13.707031 9.351562 L 13.707031 9.4375 "/>
<path style=" stroke:none;fill-rule:nonzero;fill:rgb(100%,100%,100%);fill-opacity:1;" d="M 13.792969 9.542969 L 13.742188 9.378906 L 13.664062 9.40625 "/>
<path style=" stroke:none;fill-rule:nonzero;fill:rgb(100%,100%,100%);fill-opacity:1;" d="M 13.792969 9.542969 L 13.660156 9.441406 L 13.710938 9.371094 "/>
<path style=" stroke:none;fill-rule:nonzero;fill:rgb(100%,100%,100%);fill-opacity:1;" d="M 13.601562 9.542969 L 13.734375 9.441406 L 13.6875 9.371094 "/>
<path style=" stroke:none;fill-rule:nonzero;fill:rgb(100%,100%,100%);fill-opacity:1;" d="M 13.601562 9.542969 L 13.652344 9.378906 L 13.730469 9.40625 "/>
<path style=" stroke:none;fill-rule:nonzero;fill:rgb(100%,100%,100%);fill-opacity:1;" d="M 14.230469 9.328125 L 14.199219 9.4375 L 14.25 9.453125 "/>
<path style=" stroke:none;fill-rule:nonzero;fill:rgb(100%,100%,100%);fill-opacity:1;" d="M 14.230469 9.328125 L 14.265625 9.4375 L 14.214844 9.453125 "/>
<path style=" stroke:none;fill-rule:nonzero;fill:rgb(100%,100%,100%);fill-opacity:1;" d="M 14.335938 9.40625 L 14.226562 9.40625 L 14.226562 9.464844 "/>
<path style=" stroke:none;fill-rule:nonzero;fill:rgb(100%,100%,100%);fill-opacity:1;" d="M 14.335938 9.40625 L 14.246094 9.472656 L 14.214844 9.429688 "/>
<path style=" stroke:none;fill-rule:nonzero;fill:rgb(100%,100%,100%);fill-opacity:1;" d="M 14.128906 9.40625 L 14.214844 9.472656 L 14.25 9.429688 "/>
<path style=" stroke:none;fill-rule:nonzero;fill:rgb(100%,100%,100%);fill-opacity:1;" d="M 14.128906 9.40625 L 14.238281 9.40625 L 14.238281 9.464844 "/>
<path style=" stroke:none;fill-rule:nonzero;fill:rgb(100%,100%,100%);fill-opacity:1;" d="M 14.296875 9.535156 L 14.261719 9.425781 L 14.210938 9.445312 "/>
<path style=" stroke:none;fill-rule:nonzero;fill:rgb(100%,100%,100%);fill-opacity:1;" d="M 14.296875 9.535156 L 14.207031 9.46875 L 14.238281 9.421875 "/>
<path style=" stroke:none;fill-rule:nonzero;fill:rgb(100%,100%,100%);fill-opacity:1;" d="M 14.167969 9.535156 L 14.257812 9.46875 L 14.222656 9.421875 "/>
<path style=" stroke:none;fill-rule:nonzero;fill:rgb(100%,100%,100%);fill-opacity:1;" d="M 14.167969 9.535156 L 14.203125 9.425781 L 14.253906 9.445312 "/>
<path style=" stroke:none;fill-rule:nonzero;fill:rgb(100%,100%,100%);fill-opacity:1;" d="M 13.855469 9.613281 L 13.8125 9.75 L 13.878906 9.773438 "/>
<path style=" stroke:none;fill-rule:nonzero;fill:rgb(100%,100%,100%);fill-opacity:1;" d="M 13.855469 9.613281 L 13.898438 9.75 L 13.832031 9.773438 "/>
<path style=" stroke:none;fill-rule:nonzero;fill:rgb(100%,100%,100%);fill-opacity:1;" d="M 13.984375 9.714844 L 13.847656 9.714844 L 13.847656 9.785156 "/>
<path style=" stroke:none;fill-rule:nonzero;fill:rgb(100%,100%,100%);fill-opacity:1;" d="M 13.984375 9.714844 L 13.875 9.796875 L 13.832031 9.738281 "/>
<path style=" stroke:none;fill-rule:nonzero;fill:rgb(100%,100%,100%);fill-opacity:1;" d="M 13.722656 9.714844 L 13.835938 9.796875 L 13.875 9.738281 "/>
<path style=" stroke:none;fill-rule:nonzero;fill:rgb(100%,100%,100%);fill-opacity:1;" d="M 13.722656 9.714844 L 13.863281 9.714844 L 13.863281 9.785156 "/>
<path style=" stroke:none;fill-rule:nonzero;fill:rgb(100%,100%,100%);fill-opacity:1;" d="M 13.9375 9.875 L 13.894531 9.738281 L 13.828125 9.757812 "/>
<path style=" stroke:none;fill-rule:nonzero;fill:rgb(100%,100%,100%);fill-opacity:1;" d="M 13.9375 9.875 L 13.824219 9.789062 L 13.863281 9.730469 "/>
<path style=" stroke:none;fill-rule:nonzero;fill:rgb(100%,100%,100%);fill-opacity:1;" d="M 13.773438 9.875 L 13.886719 9.789062 L 13.84375 9.730469 "/>
<path style=" stroke:none;fill-rule:nonzero;fill:rgb(100%,100%,100%);fill-opacity:1;" d="M 13.773438 9.875 L 13.816406 9.738281 L 13.882812 9.757812 "/>
<path style=" stroke:none;fill-rule:nonzero;fill:rgb(100%,100%,100%);fill-opacity:1;" d="M 12.925781 10.453125 L 12.886719 10.589844 L 12.949219 10.609375 "/>
<path style=" stroke:none;fill-rule:nonzero;fill:rgb(100%,100%,100%);fill-opacity:1;" d="M 12.925781 10.453125 L 12.96875 10.589844 L 12.90625 10.609375 "/>
<path style=" stroke:none;fill-rule:nonzero;fill:rgb(100%,100%,100%);fill-opacity:1;" d="M 13.058594 10.550781 L 12.921875 10.550781 L 12.921875 10.625 "/>
<path style=" stroke:none;fill-rule:nonzero;fill:rgb(100%,100%,100%);fill-opacity:1;" d="M 13.058594 10.550781 L 12.945312 10.636719 L 12.90625 10.578125 "/>
<path style=" stroke:none;fill-rule:nonzero;fill:rgb(100%,100%,100%);fill-opacity:1;" d="M 12.796875 10.550781 L 12.90625 10.636719 L 12.949219 10.578125 "/>
<path style=" stroke:none;fill-rule:nonzero;fill:rgb(100%,100%,100%);fill-opacity:1;" d="M 12.796875 10.550781 L 12.933594 10.550781 L 12.933594 10.625 "/>
<path style=" stroke:none;fill-rule:nonzero;fill:rgb(100%,100%,100%);fill-opacity:1;" d="M 13.007812 10.710938 L 12.964844 10.574219 L 12.902344 10.597656 "/>
<path style=" stroke:none;fill-rule:nonzero;fill:rgb(100%,100%,100%);fill-opacity:1;" d="M 13.007812 10.710938 L 12.898438 10.628906 L 12.9375 10.570312 "/>
<path style=" stroke:none;fill-rule:nonzero;fill:rgb(100%,100%,100%);fill-opacity:1;" d="M 12.847656 10.710938 L 12.957031 10.628906 L 12.917969 10.570312 "/>
<path style=" stroke:none;fill-rule:nonzero;fill:rgb(100%,100%,100%);fill-opacity:1;" d="M 12.847656 10.710938 L 12.890625 10.574219 L 12.953125 10.597656 "/>
<path style=" stroke:none;fill-rule:nonzero;fill:rgb(100%,100%,100%);fill-opacity:1;" d="M 12.921875 10.882812 L 12.886719 10.992188 L 12.941406 11.011719 "/>
<path style=" stroke:none;fill-rule:nonzero;fill:rgb(100%,100%,100%);fill-opacity:1;" d="M 12.921875 10.882812 L 12.957031 10.992188 L 12.902344 11.011719 "/>
<path style=" stroke:none;fill-rule:nonzero;fill:rgb(100%,100%,100%);fill-opacity:1;" d="M 13.027344 10.964844 L 12.917969 10.964844 L 12.917969 11.019531 "/>
<path style=" stroke:none;fill-rule:nonzero;fill:rgb(100%,100%,100%);fill-opacity:1;" d="M 13.027344 10.964844 L 12.9375 11.03125 L 12.90625 10.984375 "/>
<path style=" stroke:none;fill-rule:nonzero;fill:rgb(100%,100%,100%);fill-opacity:1;" d="M 12.816406 10.964844 L 12.90625 11.03125 L 12.9375 10.984375 "/>
<path style=" stroke:none;fill-rule:nonzero;fill:rgb(100%,100%,100%);fill-opacity:1;" d="M 12.816406 10.964844 L 12.929688 10.964844 L 12.929688 11.019531 "/>
<path style=" stroke:none;fill-rule:nonzero;fill:rgb(100%,100%,100%);fill-opacity:1;" d="M 12.988281 11.089844 L 12.953125 10.980469 L 12.902344 11 "/>
<path style=" stroke:none;fill-rule:nonzero;fill:rgb(100%,100%,100%);fill-opacity:1;" d="M 12.988281 11.089844 L 12.898438 11.023438 L 12.929688 10.976562 "/>
<path style=" stroke:none;fill-rule:nonzero;fill:rgb(100%,100%,100%);fill-opacity:1;" d="M 12.859375 11.089844 L 12.945312 11.023438 L 12.914062 10.976562 "/>
<path style=" stroke:none;fill-rule:nonzero;fill:rgb(100%,100%,100%);fill-opacity:1;" d="M 12.859375 11.089844 L 12.890625 10.980469 L 12.945312 11 "/>
<path style=" stroke:none;fill-rule:nonzero;fill:rgb(100%,100%,100%);fill-opacity:1;" d="M 13.308594 10.164062 L 13.277344 10.273438 L 13.328125 10.292969 "/>
<path style=" stroke:none;fill-rule:nonzero;fill:rgb(100%,100%,100%);fill-opacity:1;" d="M 13.308594 10.164062 L 13.34375 10.273438 L 13.292969 10.292969 "/>
<path style=" stroke:none;fill-rule:nonzero;fill:rgb(100%,100%,100%);fill-opacity:1;" d="M 13.414062 10.246094 L 13.304688 10.246094 L 13.304688 10.300781 "/>
<path style=" stroke:none;fill-rule:nonzero;fill:rgb(100%,100%,100%);fill-opacity:1;" d="M 13.414062 10.246094 L 13.324219 10.3125 L 13.292969 10.265625 "/>
<path style=" stroke:none;fill-rule:nonzero;fill:rgb(100%,100%,100%);fill-opacity:1;" d="M 13.207031 10.246094 L 13.292969 10.3125 L 13.328125 10.265625 "/>
<path style=" stroke:none;fill-rule:nonzero;fill:rgb(100%,100%,100%);fill-opacity:1;" d="M 13.207031 10.246094 L 13.316406 10.246094 L 13.316406 10.300781 "/>
<path style=" stroke:none;fill-rule:nonzero;fill:rgb(100%,100%,100%);fill-opacity:1;" d="M 13.375 10.371094 L 13.339844 10.265625 L 13.289062 10.28125 "/>
<path style=" stroke:none;fill-rule:nonzero;fill:rgb(100%,100%,100%);fill-opacity:1;" d="M 13.375 10.371094 L 13.285156 10.304688 L 13.316406 10.257812 "/>
<path style=" stroke:none;fill-rule:nonzero;fill:rgb(100%,100%,100%);fill-opacity:1;" d="M 13.246094 10.371094 L 13.335938 10.304688 L 13.300781 10.257812 "/>
<path style=" stroke:none;fill-rule:nonzero;fill:rgb(100%,100%,100%);fill-opacity:1;" d="M 13.246094 10.371094 L 13.28125 10.265625 L 13.332031 10.28125 "/>
<path style=" stroke:none;fill-rule:nonzero;fill:rgb(100%,100%,100%);fill-opacity:1;" d="M 13.617188 9.9375 L 13.578125 10.070312 L 13.640625 10.09375 "/>
<path style=" stroke:none;fill-rule:nonzero;fill:rgb(100%,100%,100%);fill-opacity:1;" d="M 13.617188 9.9375 L 13.660156 10.070312 L 13.597656 10.09375 "/>
<path style=" stroke:none;fill-rule:nonzero;fill:rgb(100%,100%,100%);fill-opacity:1;" d="M 13.75 10.035156 L 13.613281 10.035156 L 13.613281 10.105469 "/>
<path style=" stroke:none;fill-rule:nonzero;fill:rgb(100%,100%,100%);fill-opacity:1;" d="M 13.75 10.035156 L 13.636719 10.117188 L 13.597656 10.0625 "/>
<path style=" stroke:none;fill-rule:nonzero;fill:rgb(100%,100%,100%);fill-opacity:1;" d="M 13.488281 10.035156 L 13.597656 10.117188 L 13.640625 10.0625 "/>
<path style=" stroke:none;fill-rule:nonzero;fill:rgb(100%,100%,100%);fill-opacity:1;" d="M 13.488281 10.035156 L 13.625 10.035156 L 13.625 10.105469 "/>
<path style=" stroke:none;fill-rule:nonzero;fill:rgb(100%,100%,100%);fill-opacity:1;" d="M 13.699219 10.195312 L 13.65625 10.058594 L 13.59375 10.082031 "/>
<path style=" stroke:none;fill-rule:nonzero;fill:rgb(100%,100%,100%);fill-opacity:1;" d="M 13.699219 10.195312 L 13.589844 10.109375 L 13.628906 10.050781 "/>
<path style=" stroke:none;fill-rule:nonzero;fill:rgb(100%,100%,100%);fill-opacity:1;" d="M 13.539062 10.195312 L 13.648438 10.109375 L 13.609375 10.050781 "/>
<path style=" stroke:none;fill-rule:nonzero;fill:rgb(100%,100%,100%);fill-opacity:1;" d="M 13.539062 10.195312 L 13.582031 10.058594 L 13.644531 10.082031 "/>
<path style=" stroke:none;fill-rule:nonzero;fill:rgb(100%,100%,100%);fill-opacity:1;" d="M 12.910156 10.089844 L 12.878906 10.199219 L 12.929688 10.214844 "/>
<path style=" stroke:none;fill-rule:nonzero;fill:rgb(100%,100%,100%);fill-opacity:1;" d="M 12.910156 10.089844 L 12.945312 10.199219 L 12.894531 10.214844 "/>
<path style=" stroke:none;fill-rule:nonzero;fill:rgb(100%,100%,100%);fill-opacity:1;" d="M 13.015625 10.167969 L 12.90625 10.167969 L 12.90625 10.226562 "/>
<path style=" stroke:none;fill-rule:nonzero;fill:rgb(100%,100%,100%);fill-opacity:1;" d="M 13.015625 10.167969 L 12.925781 10.234375 L 12.894531 10.191406 "/>
<path style=" stroke:none;fill-rule:nonzero;fill:rgb(100%,100%,100%);fill-opacity:1;" d="M 12.808594 10.167969 L 12.894531 10.234375 L 12.929688 10.191406 "/>
<path style=" stroke:none;fill-rule:nonzero;fill:rgb(100%,100%,100%);fill-opacity:1;" d="M 12.808594 10.167969 L 12.917969 10.167969 L 12.917969 10.226562 "/>
<path style=" stroke:none;fill-rule:nonzero;fill:rgb(100%,100%,100%);fill-opacity:1;" d="M 12.976562 10.296875 L 12.941406 10.1875 L 12.890625 10.207031 "/>
<path style=" stroke:none;fill-rule:nonzero;fill:rgb(100%,100%,100%);fill-opacity:1;" d="M 12.976562 10.296875 L 12.886719 10.230469 L 12.917969 10.183594 "/>
<path style=" stroke:none;fill-rule:nonzero;fill:rgb(100%,100%,100%);fill-opacity:1;" d="M 12.847656 10.296875 L 12.9375 10.230469 L 12.902344 10.183594 "/>
<path style=" stroke:none;fill-rule:nonzero;fill:rgb(100%,100%,100%);fill-opacity:1;" d="M 12.847656 10.296875 L 12.882812 10.1875 L 12.933594 10.207031 "/>
<path style=" stroke:none;fill-rule:nonzero;fill:rgb(100%,100%,100%);fill-opacity:1;" d="M 9.535156 8.019531 L 9.492188 8.15625 L 9.554688 8.179688 "/>
<path style=" stroke:none;fill-rule:nonzero;fill:rgb(100%,100%,100%);fill-opacity:1;" d="M 9.535156 8.019531 L 9.574219 8.15625 L 9.511719 8.179688 "/>
<path style=" stroke:none;fill-rule:nonzero;fill:rgb(100%,100%,100%);fill-opacity:1;" d="M 9.664062 8.117188 L 9.527344 8.117188 L 9.527344 8.191406 "/>
<path style=" stroke:none;fill-rule:nonzero;fill:rgb(100%,100%,100%);fill-opacity:1;" d="M 9.664062 8.117188 L 9.554688 8.203125 L 9.511719 8.144531 "/>
<path style=" stroke:none;fill-rule:nonzero;fill:rgb(100%,100%,100%);fill-opacity:1;" d="M 9.402344 8.117188 L 9.515625 8.203125 L 9.554688 8.144531 "/>
<path style=" stroke:none;fill-rule:nonzero;fill:rgb(100%,100%,100%);fill-opacity:1;" d="M 9.402344 8.117188 L 9.539062 8.117188 L 9.539062 8.191406 "/>
<path style=" stroke:none;fill-rule:nonzero;fill:rgb(100%,100%,100%);fill-opacity:1;" d="M 9.613281 8.277344 L 9.570312 8.144531 L 9.507812 8.164062 "/>
<path style=" stroke:none;fill-rule:nonzero;fill:rgb(100%,100%,100%);fill-opacity:1;" d="M 9.613281 8.277344 L 9.503906 8.195312 L 9.542969 8.136719 "/>
<path style=" stroke:none;fill-rule:nonzero;fill:rgb(100%,100%,100%);fill-opacity:1;" d="M 9.453125 8.277344 L 9.5625 8.195312 L 9.523438 8.136719 "/>
<path style=" stroke:none;fill-rule:nonzero;fill:rgb(100%,100%,100%);fill-opacity:1;" d="M 9.453125 8.277344 L 9.496094 8.144531 L 9.558594 8.164062 "/>
<path style=" stroke:none;fill-rule:nonzero;fill:rgb(100%,100%,100%);fill-opacity:1;" d="M 12.046875 7.683594 L 12.011719 7.792969 L 12.066406 7.8125 "/>
<path style=" stroke:none;fill-rule:nonzero;fill:rgb(100%,100%,100%);fill-opacity:1;" d="M 12.046875 7.683594 L 12.082031 7.792969 L 12.03125 7.8125 "/>
<path style=" stroke:none;fill-rule:nonzero;fill:rgb(100%,100%,100%);fill-opacity:1;" d="M 12.152344 7.761719 L 12.042969 7.761719 L 12.042969 7.820312 "/>
<path style=" stroke:none;fill-rule:nonzero;fill:rgb(100%,100%,100%);fill-opacity:1;" d="M 12.152344 7.761719 L 12.0625 7.832031 L 12.03125 7.785156 "/>
<path style=" stroke:none;fill-rule:nonzero;fill:rgb(100%,100%,100%);fill-opacity:1;" d="M 11.941406 7.761719 L 12.03125 7.832031 L 12.0625 7.785156 "/>
<path style=" stroke:none;fill-rule:nonzero;fill:rgb(100%,100%,100%);fill-opacity:1;" d="M 11.941406 7.761719 L 12.054688 7.761719 L 12.054688 7.820312 "/>
<path style=" stroke:none;fill-rule:nonzero;fill:rgb(100%,100%,100%);fill-opacity:1;" d="M 12.113281 7.890625 L 12.078125 7.78125 L 12.027344 7.800781 "/>
<path style=" stroke:none;fill-rule:nonzero;fill:rgb(100%,100%,100%);fill-opacity:1;" d="M 12.113281 7.890625 L 12.023438 7.824219 L 12.054688 7.777344 "/>
<path style=" stroke:none;fill-rule:nonzero;fill:rgb(100%,100%,100%);fill-opacity:1;" d="M 11.984375 7.890625 L 12.070312 7.824219 L 12.039062 7.777344 "/>
<path style=" stroke:none;fill-rule:nonzero;fill:rgb(100%,100%,100%);fill-opacity:1;" d="M 11.984375 7.890625 L 12.015625 7.78125 L 12.070312 7.800781 "/>
<path style=" stroke:none;fill-rule:nonzero;fill:rgb(100%,100%,100%);fill-opacity:1;" d="M 11 9.625 L 10.949219 9.789062 L 11.027344 9.8125 "/>
<path style=" stroke:none;fill-rule:nonzero;fill:rgb(100%,100%,100%);fill-opacity:1;" d="M 11 9.625 L 11.050781 9.789062 L 10.972656 9.8125 "/>
<path style=" stroke:none;fill-rule:nonzero;fill:rgb(100%,100%,100%);fill-opacity:1;" d="M 11.15625 9.742188 L 10.992188 9.742188 L 10.992188 9.828125 "/>
<path style=" stroke:none;fill-rule:nonzero;fill:rgb(100%,100%,100%);fill-opacity:1;" d="M 11.15625 9.742188 L 11.023438 9.84375 L 10.976562 9.773438 "/>
<path style=" stroke:none;fill-rule:nonzero;fill:rgb(100%,100%,100%);fill-opacity:1;" d="M 10.84375 9.742188 L 10.976562 9.84375 L 11.023438 9.773438 "/>
<path style=" stroke:none;fill-rule:nonzero;fill:rgb(100%,100%,100%);fill-opacity:1;" d="M 10.84375 9.742188 L 11.007812 9.742188 L 11.007812 9.828125 "/>
<path style=" stroke:none;fill-rule:nonzero;fill:rgb(100%,100%,100%);fill-opacity:1;" d="M 11.097656 9.933594 L 11.046875 9.773438 L 10.96875 9.796875 "/>
<path style=" stroke:none;fill-rule:nonzero;fill:rgb(100%,100%,100%);fill-opacity:1;" d="M 11.097656 9.933594 L 10.964844 9.832031 L 11.011719 9.765625 "/>
<path style=" stroke:none;fill-rule:nonzero;fill:rgb(100%,100%,100%);fill-opacity:1;" d="M 10.902344 9.933594 L 11.035156 9.832031 L 10.988281 9.765625 "/>
<path style=" stroke:none;fill-rule:nonzero;fill:rgb(100%,100%,100%);fill-opacity:1;" d="M 10.902344 9.933594 L 10.953125 9.773438 L 11.03125 9.796875 "/>
<path style=" stroke:none;fill-rule:nonzero;fill:rgb(100%,100%,100%);fill-opacity:1;" d="M 11.445312 8.859375 L 11.402344 8.996094 L 11.46875 9.015625 "/>
<path style=" stroke:none;fill-rule:nonzero;fill:rgb(100%,100%,100%);fill-opacity:1;" d="M 11.445312 8.859375 L 11.488281 8.996094 L 11.421875 9.015625 "/>
<path style=" stroke:none;fill-rule:nonzero;fill:rgb(100%,100%,100%);fill-opacity:1;" d="M 11.574219 8.957031 L 11.4375 8.957031 L 11.4375 9.027344 "/>
<path style=" stroke:none;fill-rule:nonzero;fill:rgb(100%,100%,100%);fill-opacity:1;" d="M 11.574219 8.957031 L 11.464844 9.042969 L 11.425781 8.984375 "/>
<path style=" stroke:none;fill-rule:nonzero;fill:rgb(100%,100%,100%);fill-opacity:1;" d="M 11.316406 8.957031 L 11.425781 9.042969 L 11.464844 8.984375 "/>
<path style=" stroke:none;fill-rule:nonzero;fill:rgb(100%,100%,100%);fill-opacity:1;" d="M 11.316406 8.957031 L 11.453125 8.957031 L 11.453125 9.027344 "/>
<path style=" stroke:none;fill-rule:nonzero;fill:rgb(100%,100%,100%);fill-opacity:1;" d="M 11.527344 9.117188 L 11.484375 8.980469 L 11.417969 9.003906 "/>
<path style=" stroke:none;fill-rule:nonzero;fill:rgb(100%,100%,100%);fill-opacity:1;" d="M 11.527344 9.117188 L 11.414062 9.03125 L 11.457031 8.976562 "/>
<path style=" stroke:none;fill-rule:nonzero;fill:rgb(100%,100%,100%);fill-opacity:1;" d="M 11.363281 9.117188 L 11.476562 9.03125 L 11.433594 8.976562 "/>
<path style=" stroke:none;fill-rule:nonzero;fill:rgb(100%,100%,100%);fill-opacity:1;" d="M 11.363281 9.117188 L 11.40625 8.980469 L 11.472656 9.003906 "/>
<path style=" stroke:none;fill-rule:nonzero;fill:rgb(100%,100%,100%);fill-opacity:1;" d="M 11 8.5 L 10.957031 8.636719 L 11.023438 8.65625 "/>
<path style=" stroke:none;fill-rule:nonzero;fill:rgb(100%,100%,100%);fill-opacity:1;" d="M 11 8.5 L 11.042969 8.636719 L 10.976562 8.65625 "/>
<path style=" stroke:none;fill-rule:nonzero;fill:rgb(100%,100%,100%);fill-opacity:1;" d="M 11.128906 8.597656 L 10.992188 8.597656 L 10.992188 8.667969 "/>
<path style=" stroke:none;fill-rule:nonzero;fill:rgb(100%,100%,100%);fill-opacity:1;" d="M 11.128906 8.597656 L 11.019531 8.683594 L 10.980469 8.625 "/>
<path style=" stroke:none;fill-rule:nonzero;fill:rgb(100%,100%,100%);fill-opacity:1;" d="M 10.871094 8.597656 L 10.980469 8.683594 L 11.019531 8.625 "/>
<path style=" stroke:none;fill-rule:nonzero;fill:rgb(100%,100%,100%);fill-opacity:1;" d="M 10.871094 8.597656 L 11.007812 8.597656 L 11.007812 8.667969 "/>
<path style=" stroke:none;fill-rule:nonzero;fill:rgb(100%,100%,100%);fill-opacity:1;" d="M 11.082031 8.757812 L 11.039062 8.621094 L 10.972656 8.644531 "/>
<path style=" stroke:none;fill-rule:nonzero;fill:rgb(100%,100%,100%);fill-opacity:1;" d="M 11.082031 8.757812 L 10.96875 8.671875 L 11.011719 8.617188 "/>
<path style=" stroke:none;fill-rule:nonzero;fill:rgb(100%,100%,100%);fill-opacity:1;" d="M 10.917969 8.757812 L 11.03125 8.671875 L 10.988281 8.617188 "/>
<path style=" stroke:none;fill-rule:nonzero;fill:rgb(100%,100%,100%);fill-opacity:1;" d="M 10.917969 8.757812 L 10.960938 8.621094 L 11.027344 8.644531 "/>
<path style=" stroke:none;fill-rule:nonzero;fill:rgb(100%,100%,100%);fill-opacity:1;" d="M 10.613281 8.886719 L 10.578125 8.996094 L 10.628906 9.011719 "/>
<path style=" stroke:none;fill-rule:nonzero;fill:rgb(100%,100%,100%);fill-opacity:1;" d="M 10.613281 8.886719 L 10.644531 8.996094 L 10.59375 9.011719 "/>
<path style=" stroke:none;fill-rule:nonzero;fill:rgb(100%,100%,100%);fill-opacity:1;" d="M 10.71875 8.964844 L 10.605469 8.964844 L 10.605469 9.023438 "/>
<path style=" stroke:none;fill-rule:nonzero;fill:rgb(100%,100%,100%);fill-opacity:1;" d="M 10.71875 8.964844 L 10.628906 9.035156 L 10.59375 8.988281 "/>
<path style=" stroke:none;fill-rule:nonzero;fill:rgb(100%,100%,100%);fill-opacity:1;" d="M 10.507812 8.964844 L 10.597656 9.035156 L 10.628906 8.988281 "/>
<path style=" stroke:none;fill-rule:nonzero;fill:rgb(100%,100%,100%);fill-opacity:1;" d="M 10.507812 8.964844 L 10.617188 8.964844 L 10.617188 9.023438 "/>
<path style=" stroke:none;fill-rule:nonzero;fill:rgb(100%,100%,100%);fill-opacity:1;" d="M 10.675781 9.09375 L 10.644531 8.984375 L 10.589844 9.003906 "/>
<path style=" stroke:none;fill-rule:nonzero;fill:rgb(100%,100%,100%);fill-opacity:1;" d="M 10.675781 9.09375 L 10.589844 9.027344 L 10.621094 8.980469 "/>
<path style=" stroke:none;fill-rule:nonzero;fill:rgb(100%,100%,100%);fill-opacity:1;" d="M 10.546875 9.09375 L 10.636719 9.027344 L 10.605469 8.980469 "/>
<path style=" stroke:none;fill-rule:nonzero;fill:rgb(100%,100%,100%);fill-opacity:1;" d="M 10.546875 9.09375 L 10.582031 8.984375 L 10.632812 9.003906 "/>
<path style=" stroke:none;fill-rule:nonzero;fill:rgb(100%,100%,100%);fill-opacity:1;" d="M 10.804688 9.199219 L 10.78125 9.273438 L 10.820312 9.289062 "/>
<path style=" stroke:none;fill-rule:nonzero;fill:rgb(100%,100%,100%);fill-opacity:1;" d="M 10.804688 9.199219 L 10.832031 9.273438 L 10.792969 9.289062 "/>
<path style=" stroke:none;fill-rule:nonzero;fill:rgb(100%,100%,100%);fill-opacity:1;" d="M 10.882812 9.253906 L 10.800781 9.253906 L 10.800781 9.292969 "/>
<path style=" stroke:none;fill-rule:nonzero;fill:rgb(100%,100%,100%);fill-opacity:1;" d="M 10.882812 9.253906 L 10.816406 9.300781 L 10.792969 9.269531 "/>
<path style=" stroke:none;fill-rule:nonzero;fill:rgb(100%,100%,100%);fill-opacity:1;" d="M 10.730469 9.253906 L 10.796875 9.300781 L 10.816406 9.269531 "/>
<path style=" stroke:none;fill-rule:nonzero;fill:rgb(100%,100%,100%);fill-opacity:1;" d="M 10.730469 9.253906 L 10.808594 9.253906 L 10.808594 9.292969 "/>
<path style=" stroke:none;fill-rule:nonzero;fill:rgb(100%,100%,100%);fill-opacity:1;" d="M 10.851562 9.34375 L 10.828125 9.265625 L 10.789062 9.28125 "/>
<path style=" stroke:none;fill-rule:nonzero;fill:rgb(100%,100%,100%);fill-opacity:1;" d="M 10.851562 9.34375 L 10.789062 9.296875 L 10.8125 9.265625 "/>
<path style=" stroke:none;fill-rule:nonzero;fill:rgb(100%,100%,100%);fill-opacity:1;" d="M 10.761719 9.34375 L 10.824219 9.296875 L 10.800781 9.265625 "/>
<path style=" stroke:none;fill-rule:nonzero;fill:rgb(100%,100%,100%);fill-opacity:1;" d="M 10.761719 9.34375 L 10.785156 9.265625 L 10.820312 9.28125 "/>
<path style=" stroke:none;fill-rule:nonzero;fill:rgb(100%,100%,100%);fill-opacity:1;" d="M 12.152344 10.550781 L 12.109375 10.6875 L 12.175781 10.707031 "/>
<path style=" stroke:none;fill-rule:nonzero;fill:rgb(100%,100%,100%);fill-opacity:1;" d="M 12.152344 10.550781 L 12.195312 10.6875 L 12.128906 10.707031 "/>
<path style=" stroke:none;fill-rule:nonzero;fill:rgb(100%,100%,100%);fill-opacity:1;" d="M 12.28125 10.648438 L 12.144531 10.648438 L 12.144531 10.722656 "/>
<path style=" stroke:none;fill-rule:nonzero;fill:rgb(100%,100%,100%);fill-opacity:1;" d="M 12.28125 10.648438 L 12.171875 10.734375 L 12.132812 10.675781 "/>
<path style=" stroke:none;fill-rule:nonzero;fill:rgb(100%,100%,100%);fill-opacity:1;" d="M 12.023438 10.648438 L 12.132812 10.734375 L 12.171875 10.675781 "/>
<path style=" stroke:none;fill-rule:nonzero;fill:rgb(100%,100%,100%);fill-opacity:1;" d="M 12.023438 10.648438 L 12.160156 10.648438 L 12.160156 10.722656 "/>
<path style=" stroke:none;fill-rule:nonzero;fill:rgb(100%,100%,100%);fill-opacity:1;" d="M 12.234375 10.808594 L 12.191406 10.671875 L 12.125 10.695312 "/>
<path style=" stroke:none;fill-rule:nonzero;fill:rgb(100%,100%,100%);fill-opacity:1;" d="M 12.234375 10.808594 L 12.121094 10.726562 L 12.164062 10.667969 "/>
<path style=" stroke:none;fill-rule:nonzero;fill:rgb(100%,100%,100%);fill-opacity:1;" d="M 12.070312 10.808594 L 12.183594 10.726562 L 12.140625 10.667969 "/>
<path style=" stroke:none;fill-rule:nonzero;fill:rgb(100%,100%,100%);fill-opacity:1;" d="M 12.070312 10.808594 L 12.113281 10.671875 L 12.179688 10.695312 "/>
<path style=" stroke:none;fill-rule:nonzero;fill:rgb(100%,100%,100%);fill-opacity:1;" d="M 12.480469 10.226562 L 12.449219 10.335938 L 12.5 10.351562 "/>
<path style=" stroke:none;fill-rule:nonzero;fill:rgb(100%,100%,100%);fill-opacity:1;" d="M 12.480469 10.226562 L 12.515625 10.335938 L 12.464844 10.351562 "/>
<path style=" stroke:none;fill-rule:nonzero;fill:rgb(100%,100%,100%);fill-opacity:1;" d="M 12.585938 10.304688 L 12.476562 10.304688 L 12.476562 10.363281 "/>
<path style=" stroke:none;fill-rule:nonzero;fill:rgb(100%,100%,100%);fill-opacity:1;" d="M 12.585938 10.304688 L 12.496094 10.371094 L 12.464844 10.324219 "/>
<path style=" stroke:none;fill-rule:nonzero;fill:rgb(100%,100%,100%);fill-opacity:1;" d="M 12.378906 10.304688 L 12.464844 10.371094 L 12.5 10.324219 "/>
<path style=" stroke:none;fill-rule:nonzero;fill:rgb(100%,100%,100%);fill-opacity:1;" d="M 12.378906 10.304688 L 12.488281 10.304688 L 12.488281 10.363281 "/>
<path style=" stroke:none;fill-rule:nonzero;fill:rgb(100%,100%,100%);fill-opacity:1;" d="M 12.546875 10.433594 L 12.511719 10.324219 L 12.460938 10.339844 "/>
<path style=" stroke:none;fill-rule:nonzero;fill:rgb(100%,100%,100%);fill-opacity:1;" d="M 12.546875 10.433594 L 12.457031 10.367188 L 12.492188 10.320312 "/>
<path style=" stroke:none;fill-rule:nonzero;fill:rgb(100%,100%,100%);fill-opacity:1;" d="M 12.417969 10.433594 L 12.507812 10.367188 L 12.472656 10.320312 "/>
<path style=" stroke:none;fill-rule:nonzero;fill:rgb(100%,100%,100%);fill-opacity:1;" d="M 12.417969 10.433594 L 12.453125 10.324219 L 12.503906 10.339844 "/>
<path style=" stroke:none;fill-rule:nonzero;fill:rgb(100%,100%,100%);fill-opacity:1;" d="M 11.847656 10.128906 L 11.816406 10.238281 L 11.867188 10.253906 "/>
<path style=" stroke:none;fill-rule:nonzero;fill:rgb(100%,100%,100%);fill-opacity:1;" d="M 11.847656 10.128906 L 11.882812 10.238281 L 11.832031 10.253906 "/>
<path style=" stroke:none;fill-rule:nonzero;fill:rgb(100%,100%,100%);fill-opacity:1;" d="M 11.953125 10.207031 L 11.84375 10.207031 L 11.84375 10.265625 "/>
<path style=" stroke:none;fill-rule:nonzero;fill:rgb(100%,100%,100%);fill-opacity:1;" d="M 11.953125 10.207031 L 11.863281 10.273438 L 11.832031 10.226562 "/>
<path style=" stroke:none;fill-rule:nonzero;fill:rgb(100%,100%,100%);fill-opacity:1;" d="M 11.742188 10.207031 L 11.832031 10.273438 L 11.867188 10.226562 "/>
<path style=" stroke:none;fill-rule:nonzero;fill:rgb(100%,100%,100%);fill-opacity:1;" d="M 11.742188 10.207031 L 11.855469 10.207031 L 11.855469 10.265625 "/>
<path style=" stroke:none;fill-rule:nonzero;fill:rgb(100%,100%,100%);fill-opacity:1;" d="M 11.914062 10.335938 L 11.878906 10.226562 L 11.828125 10.242188 "/>
<path style=" stroke:none;fill-rule:nonzero;fill:rgb(100%,100%,100%);fill-opacity:1;" d="M 11.914062 10.335938 L 11.824219 10.265625 L 11.855469 10.222656 "/>
<path style=" stroke:none;fill-rule:nonzero;fill:rgb(100%,100%,100%);fill-opacity:1;" d="M 11.785156 10.335938 L 11.871094 10.265625 L 11.839844 10.222656 "/>
<path style=" stroke:none;fill-rule:nonzero;fill:rgb(100%,100%,100%);fill-opacity:1;" d="M 11.785156 10.335938 L 11.816406 10.226562 L 11.871094 10.242188 "/>
<path style=" stroke:none;fill-rule:nonzero;fill:rgb(100%,100%,100%);fill-opacity:1;" d="M 9.453125 9.949219 L 9.402344 10.113281 L 9.480469 10.140625 "/>
<path style=" stroke:none;fill-rule:nonzero;fill:rgb(100%,100%,100%);fill-opacity:1;" d="M 9.453125 9.949219 L 9.503906 10.113281 L 9.425781 10.140625 "/>
<path style=" stroke:none;fill-rule:nonzero;fill:rgb(100%,100%,100%);fill-opacity:1;" d="M 9.613281 10.070312 L 9.445312 10.070312 L 9.445312 10.15625 "/>
<path style=" stroke:none;fill-rule:nonzero;fill:rgb(100%,100%,100%);fill-opacity:1;" d="M 9.613281 10.070312 L 9.476562 10.171875 L 9.429688 10.101562 "/>
<path style=" stroke:none;fill-rule:nonzero;fill:rgb(100%,100%,100%);fill-opacity:1;" d="M 9.296875 10.070312 L 9.429688 10.171875 L 9.480469 10.101562 "/>
<path style=" stroke:none;fill-rule:nonzero;fill:rgb(100%,100%,100%);fill-opacity:1;" d="M 9.296875 10.070312 L 9.460938 10.070312 L 9.460938 10.15625 "/>
<path style=" stroke:none;fill-rule:nonzero;fill:rgb(100%,100%,100%);fill-opacity:1;" d="M 9.550781 10.261719 L 9.5 10.097656 L 9.421875 10.125 "/>
<path style=" stroke:none;fill-rule:nonzero;fill:rgb(100%,100%,100%);fill-opacity:1;" d="M 9.550781 10.261719 L 9.417969 10.160156 L 9.464844 10.089844 "/>
<path style=" stroke:none;fill-rule:nonzero;fill:rgb(100%,100%,100%);fill-opacity:1;" d="M 9.359375 10.261719 L 9.492188 10.160156 L 9.441406 10.089844 "/>
<path style=" stroke:none;fill-rule:nonzero;fill:rgb(100%,100%,100%);fill-opacity:1;" d="M 9.359375 10.261719 L 9.410156 10.097656 L 9.488281 10.125 "/>
<path style=" stroke:none;fill-rule:nonzero;fill:rgb(100%,100%,100%);fill-opacity:1;" d="M 11 11.070312 L 10.984375 11.125 L 11.007812 11.136719 "/>
<path style=" stroke:none;fill-rule:nonzero;fill:rgb(100%,100%,100%);fill-opacity:1;" d="M 11 11.070312 L 11.015625 11.125 L 10.992188 11.136719 "/>
<path style=" stroke:none;fill-rule:nonzero;fill:rgb(100%,100%,100%);fill-opacity:1;" d="M 11.050781 11.113281 L 10.996094 11.113281 L 10.996094 11.140625 "/>
<path style=" stroke:none;fill-rule:nonzero;fill:rgb(100%,100%,100%);fill-opacity:1;" d="M 11.050781 11.113281 L 11.007812 11.144531 L 10.992188 11.121094 "/>
<path style=" stroke:none;fill-rule:nonzero;fill:rgb(100%,100%,100%);fill-opacity:1;" d="M 10.949219 11.113281 L 10.992188 11.144531 L 11.007812 11.121094 "/>
<path style=" stroke:none;fill-rule:nonzero;fill:rgb(100%,100%,100%);fill-opacity:1;" d="M 10.949219 11.113281 L 11.003906 11.113281 L 11.003906 11.140625 "/>
<path style=" stroke:none;fill-rule:nonzero;fill:rgb(100%,100%,100%);fill-opacity:1;" d="M 11.03125 11.175781 L 11.015625 11.121094 L 10.988281 11.128906 "/>
<path style=" stroke:none;fill-rule:nonzero;fill:rgb(100%,100%,100%);fill-opacity:1;" d="M 11.03125 11.175781 L 10.988281 11.140625 L 11.003906 11.117188 "/>
<path style=" stroke:none;fill-rule:nonzero;fill:rgb(100%,100%,100%);fill-opacity:1;" d="M 10.96875 11.175781 L 11.011719 11.140625 L 10.996094 11.117188 "/>
<path style=" stroke:none;fill-rule:nonzero;fill:rgb(100%,100%,100%);fill-opacity:1;" d="M 10.96875 11.175781 L 10.984375 11.121094 L 11.011719 11.128906 "/>
</g>
</svg>
