<svg xmlns="http://www.w3.org/2000/svg" id="flag-icons-br" viewBox="0 0 24 18" width="24" height="16"><g stroke-width="1pt"><path fill="#229e45" fill-rule="evenodd" d="M0 0h24v18H0z"/><path fill="#f8e509" fill-rule="evenodd" d="m12.052 16.35 11.306 -7.339L11.985 1.65 0.641 9.026z"/><path fill="#2b49a3" fill-rule="evenodd" d="M16.98 9c0 2.636 -2.141 4.774 -4.785 4.774A4.777 4.777 0 1 1 16.98 9"/><path fill="#ffffef" fill-rule="evenodd" d="m10.624 11.861 -0.15 -0.086 -0.15 0.075 0.034 -0.169 -0.12 -0.128 0.169 -0.019 0.083 -0.15 0.071 0.158 0.165 0.03 -0.124 0.112m3.225 0.986 -0.146 -0.086 -0.15 0.075 0.03 -0.169 -0.116 -0.124 0.169 -0.019 0.079 -0.154 0.075 0.158 0.165 0.03 -0.128 0.116m-1.358 -1.125 -0.128 -0.075 -0.131 0.068 0.03 -0.146 -0.105 -0.109 0.15 -0.015 0.068 -0.135 0.06 0.139 0.146 0.026 -0.112 0.101m3.262 -0.319 -0.128 -0.075 -0.131 0.068 0.03 -0.146 -0.101 -0.105 0.146 -0.015 0.068 -0.131 0.06 0.135 0.142 0.026 -0.109 0.098m-3.274 -0.825 -0.15 -0.083 -0.15 0.075 0.03 -0.172 -0.116 -0.124 0.169 -0.019 0.079 -0.154 0.075 0.158 0.165 0.03 -0.128 0.12m-3.922 -1.313 -0.15 -0.083 -0.15 0.075 0.037 -0.172 -0.124 -0.124 0.172 -0.019 0.075 -0.154 0.075 0.158 0.165 0.03 -0.124 0.116m0.499 2.145 -0.15 -0.086 -0.15 0.075 0.034 -0.169 -0.12 -0.124 0.169 -0.022 0.079 -0.15 0.075 0.158 0.165 0.03 -0.124 0.116m4.95 -2.524 -0.135 -0.075 -0.135 0.068 0.03 -0.15 -0.105 -0.112 0.15 -0.019 0.071 -0.135 0.064 0.142 0.15 0.026 -0.112 0.101m-0.251 1.436 -0.101 -0.06 -0.109 0.052 0.022 -0.12 -0.083 -0.086 0.12 -0.015 0.056 -0.105 0.049 0.112 0.112 0.019 -0.083 0.083m-5.332 1.89 -0.101 -0.056 -0.101 0.049 0.022 -0.112 -0.079 -0.083 0.112 -0.015 0.052 -0.101 0.049 0.105 0.112 0.022 -0.086 0.075M15.712 11.242l-0.083 -0.041 -0.083 0.037 0.019 -0.086 -0.064 -0.06 0.09 -0.011 0.045 -0.075 0.037 0.075 0.094 0.019 -0.071 0.056"/><path fill="#ffffef" fill-rule="evenodd" d="m8.224 10.785 -0.101 -0.056 -0.101 0.049 0.022 -0.112 -0.079 -0.083 0.112 -0.015 0.052 -0.101 0.049 0.105 0.112 0.022 -0.086 0.075"/><path fill="#ffffef" fill-rule="evenodd" d="m8.224 10.785 -0.101 -0.056 -0.101 0.049 0.022 -0.112 -0.079 -0.083 0.112 -0.015 0.052 -0.101 0.049 0.105 0.112 0.022 -0.086 0.075m1.586 0.112 -0.098 -0.052 -0.101 0.049 0.022 -0.112 -0.079 -0.083 0.112 -0.015 0.052 -0.101 0.049 0.105 0.112 0.019 -0.086 0.079m-0.18 0.637 -0.098 -0.056 -0.101 0.052 0.022 -0.112 -0.079 -0.086 0.112 -0.015 0.052 -0.101 0.049 0.105 0.112 0.022 -0.086 0.075m3.278 -0.832 -0.098 -0.06 -0.105 0.052 0.022 -0.112 -0.075 -0.086 0.112 -0.011 0.052 -0.101 0.045 0.105 0.112 0.019 -0.083 0.079m-0.941 0.112 -0.101 -0.056 -0.101 0.052 0.022 -0.112 -0.075 -0.086 0.112 -0.011 0.052 -0.105 0.045 0.109 0.112 0.019 -0.083 0.079m-2.58 -0.217 -0.064 -0.037 -0.064 0.03 0.015 -0.071 -0.049 -0.052 0.071 -0.007 0.03 -0.064 0.03 0.068 0.071 0.011 -0.052 0.049m6.293 1.702 -0.098 -0.056 -0.101 0.052 0.022 -0.112 -0.079 -0.086 0.112 -0.015 0.052 -0.101 0.049 0.105 0.112 0.022 -0.086 0.075m-0.78 0.225 -0.083 -0.052 -0.086 0.045 0.019 -0.098 -0.064 -0.068 0.094 -0.011 0.045 -0.086 0.037 0.09 0.094 0.015 -0.071 0.068m0.39 0.086 -0.075 -0.045 -0.079 0.037 0.015 -0.086 -0.06 -0.064 0.086 -0.011 0.041 -0.075 0.037 0.075 0.086 0.019 -0.064 0.06m1.091 -0.855 -0.075 -0.037 -0.075 0.037 0.019 -0.086 -0.06 -0.064 0.086 -0.011 0.037 -0.075 0.037 0.079 0.079 0.015 -0.06 0.06m-1.455 1.567 -0.094 -0.052 -0.101 0.045 0.022 -0.105 -0.075 -0.075 0.112 -0.011 0.049 -0.094 0.045 0.098 0.112 0.019 -0.086 0.071m0.022 0.532 -0.09 -0.052 -0.09 0.049 0.022 -0.105 -0.071 -0.075 0.101 -0.015 0.045 -0.094 0.041 0.098 0.101 0.019 -0.075 0.075m-0.713 -0.866 -0.071 -0.045 -0.075 0.037 0.015 -0.083 -0.056 -0.064 0.083 -0.007 0.037 -0.075 0.037 0.075 0.083 0.015 -0.06 0.06m-0.667 0.086 -0.075 -0.045 -0.075 0.037 0.019 -0.083 -0.06 -0.064 0.086 -0.007 0.037 -0.075 0.037 0.075 0.079 0.015 -0.06 0.06m-1.14 -0.922 -0.075 -0.041 -0.075 0.037 0.019 -0.086 -0.06 -0.06 0.083 -0.011 0.037 -0.075 0.037 0.075 0.083 0.019 -0.06 0.056m0.139 2.137 -0.06 -0.034 -0.068 0.034 0.015 -0.075 -0.049 -0.052 0.071 -0.007 0.034 -0.064 0.03 0.068 0.071 0.011 -0.052 0.049m-1.733 -3.247 -0.15 -0.086 -0.15 0.075 0.034 -0.169 -0.12 -0.124 0.169 -0.022 0.083 -0.15 0.071 0.158 0.165 0.03 -0.124 0.116"/><path fill="#fff" fill-rule="evenodd" d="M16.665 10.717a4.672 4.672 0 0 0 0.217 -0.743c-2.542 -2.231 -5.374 -3.375 -8.951 -3.139a4.669 4.669 0 0 0 -0.319 0.784c4.237 -0.405 7.35 1.47 9.053 3.097"/><path fill="#309e3a" d="m15.525 9.465 0.086 0.049a0.128 0.128 0 0 0 -0.011 0.083 0.112 0.112 0 0 0 0.052 0.064c0.026 0.019 0.052 0.03 0.075 0.026 0.022 0 0.037 -0.011 0.049 -0.026a0.049 0.049 0 0 0 0.007 -0.034 0.086 0.086 0 0 0 -0.019 -0.037c-0.007 -0.011 -0.026 -0.037 -0.056 -0.068a0.289 0.289 0 0 1 -0.068 -0.112 0.139 0.139 0 0 1 0.075 -0.165 0.142 0.142 0 0 1 0.086 -0.007 0.263 0.263 0 0 1 0.098 0.045c0.052 0.037 0.086 0.075 0.098 0.12a0.154 0.154 0 0 1 -0.022 0.124l-0.09 -0.056c0.011 -0.022 0.015 -0.045 0.007 -0.064 -0.004 -0.019 -0.019 -0.037 -0.045 -0.052a0.12 0.12 0 0 0 -0.068 -0.026 0.037 0.037 0 0 0 -0.034 0.019c-0.007 0.011 -0.007 0.022 -0.004 0.037s0.022 0.045 0.06 0.083 0.06 0.071 0.075 0.094a0.146 0.146 0 0 1 -0.011 0.158 0.154 0.154 0 0 1 -0.071 0.056 0.15 0.15 0 0 1 -0.09 0.011c-0.034 -0.007 -0.068 -0.022 -0.105 -0.049q-0.084 -0.056 -0.101 -0.124a0.203 0.203 0 0 1 0.022 -0.15zm-0.435 -0.285 0.094 0.049a0.128 0.128 0 0 0 -0.007 0.083 0.112 0.112 0 0 0 0.052 0.06c0.03 0.019 0.052 0.026 0.075 0.022 0.022 0 0.037 -0.011 0.049 -0.03a0.049 0.049 0 0 0 0.007 -0.03c0 -0.011 -0.007 -0.026 -0.019 -0.037a1.313 1.313 0 0 0 -0.06 -0.068c-0.041 -0.041 -0.068 -0.075 -0.075 -0.105a0.139 0.139 0 0 1 0.015 -0.116 0.135 0.135 0 0 1 0.06 -0.052 0.142 0.142 0 0 1 0.083 -0.011 0.263 0.263 0 0 1 0.098 0.037c0.056 0.037 0.09 0.075 0.101 0.116a0.154 0.154 0 0 1 -0.015 0.128l-0.094 -0.052c0.011 -0.026 0.015 -0.045 0.007 -0.064s-0.022 -0.037 -0.049 -0.052a0.12 0.12 0 0 0 -0.071 -0.022 0.037 0.037 0 0 0 -0.03 0.019c-0.007 0.011 -0.007 0.022 -0.004 0.037s0.026 0.045 0.064 0.083 0.064 0.068 0.075 0.09a0.146 0.146 0 0 1 0 0.158 0.158 0.158 0 0 1 -0.068 0.06 0.15 0.15 0 0 1 -0.09 0.011 0.3 0.3 0 0 1 -0.109 -0.041 0.225 0.225 0 0 1 -0.105 -0.12 0.203 0.203 0 0 1 0.015 -0.15m-0.532 -0.142 0.274 -0.45 0.33 0.206 -0.045 0.075 -0.24 -0.15 -0.06 0.101 0.225 0.139 -0.049 0.075 -0.225 -0.139 -0.075 0.124 0.251 0.15 -0.045 0.075zm-0.776 -0.637 0.041 -0.075 0.203 0.101 -0.094 0.188c-0.03 0.007 -0.068 0.011 -0.112 0.007a0.352 0.352 0 0 1 -0.124 -0.037 0.289 0.289 0 0 1 -0.112 -0.098 0.225 0.225 0 0 1 -0.037 -0.131 0.322 0.322 0 0 1 0.037 -0.139 0.3 0.3 0 0 1 0.098 -0.112 0.232 0.232 0 0 1 0.135 -0.041c0.037 0 0.075 0.011 0.12 0.037 0.06 0.026 0.098 0.064 0.116 0.105a0.188 0.188 0 0 1 0.011 0.131l-0.101 -0.03a0.112 0.112 0 0 0 -0.007 -0.075c-0.011 -0.022 -0.03 -0.037 -0.06 -0.052a0.142 0.142 0 0 0 -0.116 -0.011c-0.037 0.011 -0.071 0.045 -0.098 0.098s-0.037 0.101 -0.026 0.142a0.139 0.139 0 0 0 0.075 0.09c0.019 0.011 0.041 0.019 0.064 0.019a0.225 0.225 0 0 0 0.068 0l0.03 -0.06zm-3.382 -0.836 0.075 -0.525 0.158 0.026 0.041 0.367 0.146 -0.337 0.158 0.022 -0.075 0.517 -0.101 -0.015 0.064 -0.409 -0.165 0.394 -0.101 -0.015 -0.041 -0.424 -0.06 0.412zm-0.529 -0.064 0.049 -0.525 0.386 0.037 -0.007 0.09 -0.281 -0.026 -0.011 0.112 0.263 0.026 -0.011 0.09 -0.263 -0.026 -0.011 0.142 0.292 0.026 -0.007 0.09z"/><g stroke-opacity=".5"><path fill="#309e3a" d="M8.119 7.174c0 -0.056 0.011 -0.098 0.026 -0.135a0.251 0.251 0 0 1 0.052 -0.071 0.203 0.203 0 0 1 0.068 -0.045c0.037 -0.011 0.075 -0.019 0.112 -0.019 0.079 0 0.139 0.03 0.188 0.075a0.278 0.278 0 0 1 0.06 0.206c0 0.083 -0.026 0.15 -0.075 0.199a0.244 0.244 0 0 1 -0.188 0.064 0.247 0.247 0 0 1 -0.18 -0.075 0.274 0.274 0 0 1 -0.064 -0.199"/><path fill="#f7ffff" d="M8.227 7.174c0 0.056 0.011 0.101 0.037 0.135 0.026 0.03 0.06 0.049 0.105 0.049a0.131 0.131 0 0 0 0.105 -0.041c0.026 -0.03 0.037 -0.075 0.041 -0.139 0 -0.06 -0.007 -0.105 -0.037 -0.135a0.131 0.131 0 0 0 -0.101 -0.049 0.135 0.135 0 0 0 -0.105 0.045c-0.03 0.03 -0.041 0.075 -0.045 0.135"/></g><g stroke-opacity=".5"><path fill="#309e3a" d="m8.737 7.444 0.007 -0.525h0.225c0.056 0 0.094 0.007 0.12 0.019 0.026 0.007 0.045 0.026 0.06 0.049s0.022 0.052 0.022 0.086a0.142 0.142 0 0 1 -0.037 0.098 0.169 0.169 0 0 1 -0.101 0.045l0.056 0.045c0.015 0.015 0.034 0.045 0.056 0.086l0.064 0.105h-0.128l-0.075 -0.12 -0.052 -0.075a0.079 0.079 0 0 0 -0.034 -0.022 0.188 0.188 0 0 0 -0.052 -0.007h-0.022v0.217z"/><path fill="#fff" d="M8.85 7.144h0.075c0.052 0 0.086 0 0.098 -0.007 0.011 0 0.022 -0.011 0.03 -0.019s0.011 -0.026 0.011 -0.037c0 -0.022 -0.004 -0.037 -0.015 -0.045 -0.007 -0.011 -0.022 -0.019 -0.037 -0.022h-0.075l-0.086 -0.004z"/></g><g stroke-opacity=".5"><path fill="#309e3a" d="m9.338 6.945 0.195 0.011c0.041 0 0.075 0.004 0.098 0.011a0.176 0.176 0 0 1 0.075 0.052 0.225 0.225 0 0 1 0.045 0.09q0.017 0.051 0.011 0.124a0.349 0.349 0 0 1 -0.019 0.112c-0.015 0.037 -0.037 0.068 -0.064 0.09a0.188 0.188 0 0 1 -0.075 0.037c-0.022 0.007 -0.056 0.007 -0.094 0.007l-0.199 -0.011z"/><path fill="#fff" d="m9.439 7.039 -0.019 0.349h0.142c0.019 0 0.034 -0.007 0.045 -0.019s0.022 -0.026 0.03 -0.049 0.015 -0.056 0.015 -0.098l-0.004 -0.094a0.12 0.12 0 0 0 -0.03 -0.052 0.101 0.101 0 0 0 -0.045 -0.026 0.487 0.487 0 0 0 -0.086 -0.011z"/></g><g stroke-opacity=".5"><path fill="#309e3a" d="m11.91 7.882 0.124 -0.51 0.165 0.037 0.12 0.037c0.026 0.015 0.049 0.037 0.06 0.071 0.015 0.03 0.015 0.064 0.007 0.105 -0.007 0.03 -0.019 0.056 -0.037 0.075a0.146 0.146 0 0 1 -0.112 0.052c-0.026 0 -0.064 -0.007 -0.112 -0.019l-0.064 -0.019 -0.045 0.195z"/><path fill="#fff" d="m12.112 7.485 -0.03 0.142 0.056 0.015c0.037 0.007 0.068 0.015 0.083 0.011a0.071 0.071 0 0 0 0.06 -0.056c0 -0.019 0 -0.034 -0.007 -0.049a0.075 0.075 0 0 0 -0.037 -0.034l-0.071 -0.019 -0.049 -0.011z"/></g><g stroke-opacity=".5"><path fill="#309e3a" d="m12.398 8.029 0.176 -0.495 0.206 0.075c0.056 0.019 0.09 0.037 0.112 0.052 0.019 0.019 0.034 0.037 0.037 0.068s0.007 0.056 0 0.086c-0.015 0.037 -0.037 0.064 -0.068 0.083q-0.045 0.022 -0.112 0.011c0.015 0.019 0.03 0.037 0.037 0.06l0.03 0.101 0.022 0.116 -0.116 -0.041 -0.037 -0.135a0.731 0.731 0 0 0 -0.026 -0.09 0.079 0.079 0 0 0 -0.022 -0.03c-0.007 -0.011 -0.022 -0.019 -0.049 -0.026l-0.019 -0.007 -0.075 0.21z"/><path fill="#fff" d="m12.6 7.777 0.071 0.026c0.049 0.019 0.079 0.026 0.094 0.026 0.011 0 0.022 0 0.034 -0.011q0.017 -0.011 0.022 -0.034 0.011 -0.022 0 -0.045a0.064 0.064 0 0 0 -0.03 -0.034l-0.075 -0.026 -0.075 -0.026 -0.045 0.124z"/></g><g stroke-opacity=".5"><path fill="#309e3a" d="M13.012 8.01a0.337 0.337 0 0 1 0.064 -0.12 0.247 0.247 0 0 1 0.068 -0.056 0.225 0.225 0 0 1 0.075 -0.026c0.037 0 0.075 0 0.116 0.015a0.244 0.244 0 0 1 0.158 0.124c0.03 0.06 0.03 0.131 0.007 0.214a0.278 0.278 0 0 1 -0.128 0.169c-0.056 0.034 -0.124 0.037 -0.195 0.015a0.247 0.247 0 0 1 -0.158 -0.124 0.274 0.274 0 0 1 -0.007 -0.21"/><path fill="#fff" d="M13.117 8.04c-0.015 0.056 -0.019 0.105 0 0.142s0.045 0.06 0.086 0.075c0.037 0.011 0.075 0.007 0.112 -0.015 0.037 -0.019 0.06 -0.06 0.079 -0.12 0.019 -0.056 0.019 -0.101 0 -0.139a0.131 0.131 0 0 0 -0.083 -0.075 0.135 0.135 0 0 0 -0.112 0.011c-0.037 0.022 -0.064 0.06 -0.083 0.12"/></g><g stroke-opacity=".5"><path fill="#309e3a" d="m14.036 8.741 0.24 -0.465 0.199 0.101a0.375 0.375 0 0 1 0.101 0.071c0.019 0.019 0.03 0.041 0.03 0.071s0 0.056 -0.015 0.083a0.142 0.142 0 0 1 -0.075 0.075c-0.037 0.007 -0.075 0.007 -0.116 -0.007 0.015 0.022 0.022 0.045 0.03 0.064 0.007 0.022 0.011 0.056 0.015 0.105l0.007 0.12 -0.112 -0.056 -0.015 -0.139a0.75 0.75 0 0 0 -0.011 -0.094 0.075 0.075 0 0 0 -0.019 -0.037l-0.045 -0.026 -0.019 -0.011 -0.101 0.195z"/><path fill="#fff" d="m14.269 8.52 0.071 0.037c0.045 0.022 0.075 0.037 0.086 0.037s0.026 0 0.037 -0.007c0.011 -0.004 0.019 -0.015 0.026 -0.03s0.011 -0.03 0.007 -0.045a0.075 0.075 0 0 0 -0.026 -0.037 0.9 0.9 0 0 0 -0.068 -0.037l-0.075 -0.037z"/></g><g stroke-opacity=".5"><path fill="#309e3a" d="M15.979 9.701a0.334 0.334 0 0 1 0.094 -0.098 0.247 0.247 0 0 1 0.083 -0.034 0.206 0.206 0 0 1 0.083 0c0.037 0.007 0.071 0.022 0.105 0.045a0.247 0.247 0 0 1 0.112 0.165c0.011 0.064 -0.007 0.135 -0.052 0.206a0.274 0.274 0 0 1 -0.169 0.124 0.244 0.244 0 0 1 -0.195 -0.041 0.247 0.247 0 0 1 -0.112 -0.165c-0.011 -0.068 0.007 -0.135 0.052 -0.203"/><path fill="#fff" d="M16.073 9.761c-0.037 0.049 -0.049 0.094 -0.041 0.135a0.135 0.135 0 0 0 0.06 0.094q0.056 0.039 0.112 0.022c0.037 -0.011 0.075 -0.037 0.109 -0.09s0.049 -0.098 0.041 -0.135c-0.004 -0.037 -0.026 -0.071 -0.06 -0.098s-0.075 -0.03 -0.112 -0.019q-0.056 0.011 -0.112 0.09z"/></g><path fill="#309e3a" d="m11.318 7.669 0.086 -0.367 0.27 0.064 -0.011 0.06 -0.199 -0.045 -0.019 0.083 0.184 0.041 -0.015 0.064 -0.184 -0.045 -0.022 0.101 0.206 0.049 -0.015 0.06z"/></g></svg>