<?xml version="1.0" encoding="UTF-8"?>
<svg xmlns="http://www.w3.org/2000/svg" xmlns:xlink="http://www.w3.org/1999/xlink" width="24px" height="16px" viewBox="0 0 32 16" version="1.1">
<g id="surface1">
<rect x="0" y="0" width="32" height="16" style="fill:rgb(82.352941%,15.294118%,18.823529%);fill-opacity:1;stroke:none;"/>
<path style=" stroke:none;fill-rule:nonzero;fill:rgb(100%,100%,100%);fill-opacity:1;" d="M 0.179688 0 L 3.734375 0 L 3.734375 16 L 0.179688 16 Z M 0.179688 0 "/>
<path style=" stroke:none;fill-rule:nonzero;fill:rgb(82.352941%,15.294118%,18.823529%);fill-opacity:1;" d="M 2.035156 0 L 2.035156 0.578125 L 1.878906 0.578125 L 1.878906 0 Z M 0.0351562 1.011719 L 0.316406 1.011719 L 0.316406 0.78125 L 0.457031 0.78125 L 0.457031 0.5 L 0.65625 0.5 L 0.65625 0.257812 L 0.820312 0.257812 L 0.820312 0 L 1.316406 0 L 1.316406 0.257812 L 1.476562 0.257812 L 1.476562 0.5 L 1.675781 0.5 L 1.675781 0.78125 L 1.816406 0.78125 L 1.816406 1.011719 L 2.035156 1.011719 L 2.035156 1.371094 L 1.816406 1.371094 L 1.816406 1.605469 L 1.675781 1.605469 L 1.675781 1.882812 L 1.476562 1.882812 L 1.476562 2.128906 L 1.316406 2.128906 L 1.316406 2.394531 L 1.203125 2.394531 L 1.203125 2.613281 L 0.933594 2.613281 L 0.933594 2.394531 L 0.820312 2.394531 L 0.820312 2.128906 L 0.65625 2.128906 L 0.65625 1.882812 L 0.457031 1.882812 L 0.457031 1.605469 L 0.316406 1.605469 L 0.316406 1.371094 L 0.0351562 1.371094 M 0.0351562 0.121094 L 0.316406 0.121094 L 0.316406 0.441406 L 0.0351562 0.441406 M 1.136719 0.535156 L 0.992188 0.535156 L 0.992188 0.753906 L 0.851562 0.753906 L 0.851562 1.027344 L 0.71875 1.027344 L 0.71875 1.367188 L 0.851562 1.367188 L 0.851562 1.640625 L 0.992188 1.640625 L 0.992188 1.851562 L 1.136719 1.851562 L 1.136719 1.640625 L 1.277344 1.640625 L 1.277344 1.367188 L 1.414062 1.367188 L 1.414062 1.027344 L 1.277344 1.027344 L 1.277344 0.753906 L 1.136719 0.753906 Z M 1.152344 1.03125 L 1.152344 1.351562 L 0.976562 1.351562 L 0.976562 1.03125 Z M 0.0351562 1.871094 L 0.316406 1.871094 L 0.316406 2.214844 L 0.0351562 2.214844 M 2.035156 1.902344 L 2.035156 2.390625 L 1.878906 2.390625 L 1.878906 1.902344 Z M 1.648438 2.441406 L 1.648438 2.683594 L 1.820312 2.683594 L 1.820312 2.933594 L 2.035156 2.933594 L 2.035156 3.261719 L 1.820312 3.261719 L 1.820312 3.511719 L 1.648438 3.511719 L 1.648438 3.753906 L 1.449219 3.753906 L 1.449219 3.511719 L 1.28125 3.511719 L 1.28125 3.261719 L 1.136719 3.261719 L 1.136719 2.933594 L 1.28125 2.933594 L 1.28125 2.683594 L 1.449219 2.683594 L 1.449219 2.441406 Z M 0.0351562 2.933594 L 0.316406 2.933594 L 0.316406 2.683594 L 0.488281 2.683594 L 0.488281 2.441406 L 0.683594 2.441406 L 0.683594 2.683594 L 0.851562 2.683594 L 0.851562 2.933594 L 0.996094 2.933594 L 0.996094 3.261719 L 0.851562 3.261719 L 0.851562 3.511719 L 0.683594 3.511719 L 0.683594 3.753906 L 0.488281 3.753906 L 0.488281 3.511719 L 0.316406 3.511719 L 0.316406 3.261719 L 0.0351562 3.261719 M 1.625 2.941406 L 1.480469 2.941406 L 1.480469 3.25 L 1.625 3.25 Z M 0.660156 2.941406 L 0.515625 2.941406 L 0.515625 3.25 L 0.660156 3.25 Z M 0.71875 8.0625 L 0.71875 7.898438 L 0.597656 7.898438 L 0.597656 7.644531 L 0.4375 7.644531 L 0.4375 7.492188 L 0.316406 7.492188 L 0.316406 7.246094 L 0.0351562 7.246094 L 0.0351562 6.675781 L 0.316406 6.675781 L 0.316406 6.839844 L 0.4375 6.839844 L 0.4375 7.078125 L 0.597656 7.078125 L 0.597656 7.363281 L 0.824219 7.363281 L 0.824219 7.109375 L 0.992188 7.109375 L 0.992188 6.917969 L 1.113281 6.917969 L 1.113281 6.695312 L 1.273438 6.695312 L 1.273438 6.457031 L 1.390625 6.457031 L 1.390625 6.214844 L 1.503906 6.214844 L 1.503906 5.964844 L 1.65625 5.964844 L 1.65625 5.632812 L 1.453125 5.632812 L 1.453125 5.328125 L 1.234375 5.328125 L 1.234375 5.148438 L 0.863281 5.148438 L 0.863281 5.410156 L 1.078125 5.410156 L 1.078125 5.648438 L 0.933594 5.648438 L 0.933594 5.941406 L 0.769531 5.941406 L 0.769531 6.199219 L 0.558594 6.199219 L 0.558594 5.941406 L 0.382812 5.941406 L 0.382812 5.648438 L 0.277344 5.648438 L 0.277344 5.410156 L 0.0351562 5.410156 L 0.0351562 4.960938 L 0.316406 4.960938 L 0.316406 4.667969 L 0.421875 4.667969 L 0.421875 4.445312 L 0.523438 4.445312 L 0.523438 4.1875 L 0.664062 4.1875 L 0.664062 3.9375 L 0.804688 3.9375 L 0.804688 3.769531 L 0.96875 3.769531 L 0.96875 3.515625 L 1.171875 3.515625 L 1.171875 3.769531 L 1.339844 3.769531 L 1.339844 3.9375 L 1.484375 3.9375 L 1.484375 4.1875 L 1.621094 4.1875 L 1.621094 4.445312 L 1.734375 4.445312 L 1.734375 4.664062 L 1.847656 4.664062 L 1.847656 4.855469 L 2.035156 4.855469 L 2.035156 6.269531 L 1.824219 6.269531 L 1.824219 6.507812 L 1.761719 6.507812 L 1.761719 6.753906 L 1.605469 6.753906 L 1.605469 6.996094 L 1.511719 6.996094 L 1.511719 7.175781 L 1.410156 7.175781 L 1.410156 7.363281 L 1.242188 7.363281 L 1.242188 7.546875 L 0.996094 7.546875 L 0.996094 8.0625 M 2.035156 3.75 L 2.035156 4.238281 L 1.878906 4.238281 L 1.878906 3.75 Z M 0.0351562 3.84375 L 0.316406 3.84375 L 0.316406 4.1875 L 0.0351562 4.1875 M 0.0351562 5.917969 L 0.316406 5.917969 L 0.316406 6.261719 L 0.0351562 6.261719 Z M 2.027344 6.792969 L 2.027344 7.105469 L 1.878906 7.105469 L 1.878906 6.792969 Z M 1.820312 8.0625 L 1.820312 7.867188 L 1.726562 7.867188 L 1.726562 7.714844 L 1.59375 7.714844 L 1.59375 7.257812 L 1.726562 7.257812 L 1.726562 7.441406 L 1.871094 7.441406 L 1.871094 7.710938 L 2.027344 7.710938 L 2.027344 8.058594 M 1.265625 8.058594 L 1.265625 7.832031 L 1.414062 7.832031 L 1.414062 8.058594 "/>
<path style=" stroke:none;fill-rule:nonzero;fill:rgb(82.352941%,15.294118%,18.823529%);fill-opacity:1;" d="M 1.878906 0 L 1.878906 0.578125 L 2.035156 0.578125 L 2.035156 0 Z M 3.875 1.011719 L 3.59375 1.011719 L 3.59375 0.78125 L 3.453125 0.78125 L 3.453125 0.5 L 3.253906 0.5 L 3.253906 0.257812 L 3.089844 0.257812 L 3.089844 0 L 2.59375 0 L 2.59375 0.257812 L 2.4375 0.257812 L 2.4375 0.5 L 2.238281 0.5 L 2.238281 0.78125 L 2.09375 0.78125 L 2.09375 1.011719 L 1.878906 1.011719 L 1.878906 1.371094 L 2.09375 1.371094 L 2.09375 1.605469 L 2.238281 1.605469 L 2.238281 1.882812 L 2.4375 1.882812 L 2.4375 2.128906 L 2.59375 2.128906 L 2.59375 2.394531 L 2.710938 2.394531 L 2.710938 2.613281 L 2.976562 2.613281 L 2.976562 2.394531 L 3.089844 2.394531 L 3.089844 2.128906 L 3.253906 2.128906 L 3.253906 1.882812 L 3.453125 1.882812 L 3.453125 1.605469 L 3.59375 1.605469 L 3.59375 1.371094 L 3.875 1.371094 M 3.875 0.121094 L 3.59375 0.121094 L 3.59375 0.441406 L 3.875 0.441406 M 2.773438 0.535156 L 2.917969 0.535156 L 2.917969 0.753906 L 3.058594 0.753906 L 3.058594 1.027344 L 3.191406 1.027344 L 3.191406 1.367188 L 3.058594 1.367188 L 3.058594 1.640625 L 2.917969 1.640625 L 2.917969 1.851562 L 2.773438 1.851562 L 2.773438 1.640625 L 2.632812 1.640625 L 2.632812 1.367188 L 2.496094 1.367188 L 2.496094 1.027344 L 2.632812 1.027344 L 2.632812 0.753906 L 2.773438 0.753906 Z M 2.757812 1.03125 L 2.757812 1.351562 L 2.933594 1.351562 L 2.933594 1.03125 Z M 3.875 1.871094 L 3.59375 1.871094 L 3.59375 2.214844 L 3.875 2.214844 M 1.878906 1.902344 L 1.878906 2.390625 L 2.035156 2.390625 L 2.035156 1.902344 Z M 2.261719 2.441406 L 2.261719 2.683594 L 2.089844 2.683594 L 2.089844 2.933594 L 1.878906 2.933594 L 1.878906 3.261719 L 2.089844 3.261719 L 2.089844 3.511719 L 2.261719 3.511719 L 2.261719 3.753906 L 2.460938 3.753906 L 2.460938 3.511719 L 2.632812 3.511719 L 2.632812 3.261719 L 2.773438 3.261719 L 2.773438 2.933594 L 2.632812 2.933594 L 2.632812 2.683594 L 2.460938 2.683594 L 2.460938 2.441406 Z M 3.875 2.933594 L 3.59375 2.933594 L 3.59375 2.683594 L 3.425781 2.683594 L 3.425781 2.441406 L 3.226562 2.441406 L 3.226562 2.683594 L 3.058594 2.683594 L 3.058594 2.933594 L 2.914062 2.933594 L 2.914062 3.261719 L 3.058594 3.261719 L 3.058594 3.511719 L 3.226562 3.511719 L 3.226562 3.753906 L 3.425781 3.753906 L 3.425781 3.511719 L 3.59375 3.511719 L 3.59375 3.261719 L 3.875 3.261719 M 2.285156 2.941406 L 2.433594 2.941406 L 2.433594 3.25 L 2.285156 3.25 Z M 3.25 2.941406 L 3.394531 2.941406 L 3.394531 3.25 L 3.25 3.25 Z M 3.191406 8.0625 L 3.191406 7.898438 L 3.3125 7.898438 L 3.3125 7.644531 L 3.472656 7.644531 L 3.472656 7.492188 L 3.59375 7.492188 L 3.59375 7.246094 L 3.875 7.246094 L 3.875 6.675781 L 3.59375 6.675781 L 3.59375 6.839844 L 3.472656 6.839844 L 3.472656 7.078125 L 3.3125 7.078125 L 3.3125 7.363281 L 3.085938 7.363281 L 3.085938 7.109375 L 2.917969 7.109375 L 2.917969 6.917969 L 2.796875 6.917969 L 2.796875 6.695312 L 2.636719 6.695312 L 2.636719 6.457031 L 2.519531 6.457031 L 2.519531 6.214844 L 2.40625 6.214844 L 2.40625 5.964844 L 2.253906 5.964844 L 2.253906 5.632812 L 2.457031 5.632812 L 2.457031 5.328125 L 2.675781 5.328125 L 2.675781 5.148438 L 3.046875 5.148438 L 3.046875 5.410156 L 2.832031 5.410156 L 2.832031 5.648438 L 2.976562 5.648438 L 2.976562 5.941406 L 3.144531 5.941406 L 3.144531 6.199219 L 3.351562 6.199219 L 3.351562 5.941406 L 3.527344 5.941406 L 3.527344 5.648438 L 3.632812 5.648438 L 3.632812 5.410156 L 3.875 5.410156 L 3.875 4.960938 L 3.59375 4.960938 L 3.59375 4.667969 L 3.488281 4.667969 L 3.488281 4.445312 L 3.386719 4.445312 L 3.386719 4.1875 L 3.246094 4.1875 L 3.246094 3.9375 L 3.109375 3.9375 L 3.109375 3.769531 L 2.941406 3.769531 L 2.941406 3.515625 L 2.738281 3.515625 L 2.738281 3.769531 L 2.570312 3.769531 L 2.570312 3.9375 L 2.429688 3.9375 L 2.429688 4.1875 L 2.289062 4.1875 L 2.289062 4.445312 L 2.175781 4.445312 L 2.175781 4.664062 L 2.0625 4.664062 L 2.0625 4.855469 L 1.878906 4.855469 L 1.878906 6.269531 L 2.085938 6.269531 L 2.085938 6.507812 L 2.148438 6.507812 L 2.148438 6.753906 L 2.304688 6.753906 L 2.304688 6.996094 L 2.398438 6.996094 L 2.398438 7.175781 L 2.5 7.175781 L 2.5 7.363281 L 2.671875 7.363281 L 2.671875 7.546875 L 2.914062 7.546875 L 2.914062 8.0625 M 1.878906 3.75 L 1.878906 4.238281 L 2.035156 4.238281 L 2.035156 3.75 Z M 3.875 3.84375 L 3.59375 3.84375 L 3.59375 4.1875 L 3.875 4.1875 M 3.875 5.917969 L 3.59375 5.917969 L 3.59375 6.261719 L 3.875 6.261719 Z M 1.882812 6.792969 L 1.882812 7.105469 L 2.035156 7.105469 L 2.035156 6.792969 Z M 2.089844 8.0625 L 2.089844 7.867188 L 2.183594 7.867188 L 2.183594 7.714844 L 2.316406 7.714844 L 2.316406 7.257812 L 2.183594 7.257812 L 2.183594 7.441406 L 2.039062 7.441406 L 2.039062 7.710938 L 1.882812 7.710938 L 1.882812 8.058594 M 2.644531 8.058594 L 2.644531 7.832031 L 2.496094 7.832031 L 2.496094 8.058594 "/>
<path style=" stroke:none;fill-rule:nonzero;fill:rgb(82.352941%,15.294118%,18.823529%);fill-opacity:1;" d="M 2.035156 16 L 2.035156 15.421875 L 1.878906 15.421875 L 1.878906 16 Z M 0.0351562 14.988281 L 0.316406 14.988281 L 0.316406 15.21875 L 0.457031 15.21875 L 0.457031 15.5 L 0.65625 15.5 L 0.65625 15.742188 L 0.820312 15.742188 L 0.820312 16 L 1.316406 16 L 1.316406 15.742188 L 1.476562 15.742188 L 1.476562 15.5 L 1.675781 15.5 L 1.675781 15.21875 L 1.816406 15.21875 L 1.816406 14.988281 L 2.035156 14.988281 L 2.035156 14.628906 L 1.816406 14.628906 L 1.816406 14.394531 L 1.675781 14.394531 L 1.675781 14.117188 L 1.476562 14.117188 L 1.476562 13.871094 L 1.316406 13.871094 L 1.316406 13.605469 L 1.203125 13.605469 L 1.203125 13.386719 L 0.933594 13.386719 L 0.933594 13.605469 L 0.820312 13.605469 L 0.820312 13.871094 L 0.65625 13.871094 L 0.65625 14.117188 L 0.457031 14.117188 L 0.457031 14.394531 L 0.316406 14.394531 L 0.316406 14.628906 L 0.0351562 14.628906 M 0.0351562 15.878906 L 0.316406 15.878906 L 0.316406 15.558594 L 0.0351562 15.558594 M 1.136719 15.464844 L 0.992188 15.464844 L 0.992188 15.246094 L 0.851562 15.246094 L 0.851562 14.972656 L 0.71875 14.972656 L 0.71875 14.632812 L 0.851562 14.632812 L 0.851562 14.359375 L 0.992188 14.359375 L 0.992188 14.148438 L 1.136719 14.148438 L 1.136719 14.359375 L 1.277344 14.359375 L 1.277344 14.632812 L 1.414062 14.632812 L 1.414062 14.972656 L 1.277344 14.972656 L 1.277344 15.246094 L 1.136719 15.246094 Z M 1.152344 14.96875 L 1.152344 14.648438 L 0.976562 14.648438 L 0.976562 14.96875 Z M 0.0351562 14.128906 L 0.316406 14.128906 L 0.316406 13.785156 L 0.0351562 13.785156 M 2.035156 14.097656 L 2.035156 13.609375 L 1.878906 13.609375 L 1.878906 14.097656 Z M 1.648438 13.558594 L 1.648438 13.316406 L 1.820312 13.316406 L 1.820312 13.066406 L 2.035156 13.066406 L 2.035156 12.738281 L 1.820312 12.738281 L 1.820312 12.488281 L 1.648438 12.488281 L 1.648438 12.246094 L 1.449219 12.246094 L 1.449219 12.488281 L 1.28125 12.488281 L 1.28125 12.738281 L 1.136719 12.738281 L 1.136719 13.066406 L 1.28125 13.066406 L 1.28125 13.316406 L 1.449219 13.316406 L 1.449219 13.558594 Z M 0.0351562 13.066406 L 0.316406 13.066406 L 0.316406 13.316406 L 0.488281 13.316406 L 0.488281 13.558594 L 0.683594 13.558594 L 0.683594 13.316406 L 0.851562 13.316406 L 0.851562 13.066406 L 0.996094 13.066406 L 0.996094 12.738281 L 0.851562 12.738281 L 0.851562 12.488281 L 0.683594 12.488281 L 0.683594 12.246094 L 0.488281 12.246094 L 0.488281 12.488281 L 0.316406 12.488281 L 0.316406 12.738281 L 0.0351562 12.738281 M 1.625 13.058594 L 1.480469 13.058594 L 1.480469 12.75 L 1.625 12.75 Z M 0.660156 13.058594 L 0.515625 13.058594 L 0.515625 12.75 L 0.660156 12.75 Z M 0.71875 7.9375 L 0.71875 8.101562 L 0.597656 8.101562 L 0.597656 8.355469 L 0.4375 8.355469 L 0.4375 8.507812 L 0.316406 8.507812 L 0.316406 8.753906 L 0.0351562 8.753906 L 0.0351562 9.324219 L 0.316406 9.324219 L 0.316406 9.160156 L 0.4375 9.160156 L 0.4375 8.921875 L 0.597656 8.921875 L 0.597656 8.636719 L 0.824219 8.636719 L 0.824219 8.890625 L 0.992188 8.890625 L 0.992188 9.082031 L 1.113281 9.082031 L 1.113281 9.304688 L 1.273438 9.304688 L 1.273438 9.542969 L 1.390625 9.542969 L 1.390625 9.785156 L 1.503906 9.785156 L 1.503906 10.035156 L 1.65625 10.035156 L 1.65625 10.367188 L 1.453125 10.367188 L 1.453125 10.671875 L 1.234375 10.671875 L 1.234375 10.851562 L 0.863281 10.851562 L 0.863281 10.589844 L 1.078125 10.589844 L 1.078125 10.351562 L 0.933594 10.351562 L 0.933594 10.058594 L 0.769531 10.058594 L 0.769531 9.800781 L 0.558594 9.800781 L 0.558594 10.058594 L 0.382812 10.058594 L 0.382812 10.351562 L 0.277344 10.351562 L 0.277344 10.589844 L 0.0351562 10.589844 L 0.0351562 11.039062 L 0.316406 11.039062 L 0.316406 11.332031 L 0.421875 11.332031 L 0.421875 11.554688 L 0.523438 11.554688 L 0.523438 11.8125 L 0.664062 11.8125 L 0.664062 12.0625 L 0.804688 12.0625 L 0.804688 12.230469 L 0.96875 12.230469 L 0.96875 12.484375 L 1.171875 12.484375 L 1.171875 12.230469 L 1.339844 12.230469 L 1.339844 12.0625 L 1.484375 12.0625 L 1.484375 11.8125 L 1.621094 11.8125 L 1.621094 11.554688 L 1.734375 11.554688 L 1.734375 11.335938 L 1.847656 11.335938 L 1.847656 11.144531 L 2.035156 11.144531 L 2.035156 9.730469 L 1.824219 9.730469 L 1.824219 9.492188 L 1.761719 9.492188 L 1.761719 9.246094 L 1.605469 9.246094 L 1.605469 9.003906 L 1.511719 9.003906 L 1.511719 8.824219 L 1.410156 8.824219 L 1.410156 8.636719 L 1.242188 8.636719 L 1.242188 8.453125 L 0.996094 8.453125 L 0.996094 7.9375 M 2.035156 12.25 L 2.035156 11.761719 L 1.878906 11.761719 L 1.878906 12.25 Z M 0.0351562 12.15625 L 0.316406 12.15625 L 0.316406 11.8125 L 0.0351562 11.8125 M 0.0351562 10.082031 L 0.316406 10.082031 L 0.316406 9.738281 L 0.0351562 9.738281 Z M 2.027344 9.207031 L 2.027344 8.894531 L 1.878906 8.894531 L 1.878906 9.207031 Z M 1.820312 7.9375 L 1.820312 8.132812 L 1.726562 8.132812 L 1.726562 8.285156 L 1.59375 8.285156 L 1.59375 8.742188 L 1.726562 8.742188 L 1.726562 8.558594 L 1.871094 8.558594 L 1.871094 8.289062 L 2.027344 8.289062 L 2.027344 7.941406 M 1.265625 7.941406 L 1.265625 8.167969 L 1.414062 8.167969 L 1.414062 7.941406 "/>
<path style=" stroke:none;fill-rule:nonzero;fill:rgb(82.352941%,15.294118%,18.823529%);fill-opacity:1;" d="M 1.878906 16 L 1.878906 15.421875 L 2.035156 15.421875 L 2.035156 16 Z M 3.875 14.988281 L 3.59375 14.988281 L 3.59375 15.21875 L 3.453125 15.21875 L 3.453125 15.5 L 3.253906 15.5 L 3.253906 15.742188 L 3.089844 15.742188 L 3.089844 16 L 2.59375 16 L 2.59375 15.742188 L 2.4375 15.742188 L 2.4375 15.5 L 2.238281 15.5 L 2.238281 15.21875 L 2.09375 15.21875 L 2.09375 14.988281 L 1.878906 14.988281 L 1.878906 14.628906 L 2.09375 14.628906 L 2.09375 14.394531 L 2.238281 14.394531 L 2.238281 14.117188 L 2.4375 14.117188 L 2.4375 13.871094 L 2.59375 13.871094 L 2.59375 13.605469 L 2.710938 13.605469 L 2.710938 13.386719 L 2.976562 13.386719 L 2.976562 13.605469 L 3.089844 13.605469 L 3.089844 13.871094 L 3.253906 13.871094 L 3.253906 14.117188 L 3.453125 14.117188 L 3.453125 14.394531 L 3.59375 14.394531 L 3.59375 14.628906 L 3.875 14.628906 M 3.875 15.878906 L 3.59375 15.878906 L 3.59375 15.558594 L 3.875 15.558594 M 2.773438 15.464844 L 2.917969 15.464844 L 2.917969 15.246094 L 3.058594 15.246094 L 3.058594 14.972656 L 3.191406 14.972656 L 3.191406 14.632812 L 3.058594 14.632812 L 3.058594 14.359375 L 2.917969 14.359375 L 2.917969 14.148438 L 2.773438 14.148438 L 2.773438 14.359375 L 2.632812 14.359375 L 2.632812 14.632812 L 2.496094 14.632812 L 2.496094 14.972656 L 2.632812 14.972656 L 2.632812 15.246094 L 2.773438 15.246094 Z M 2.757812 14.96875 L 2.757812 14.648438 L 2.933594 14.648438 L 2.933594 14.96875 Z M 3.875 14.128906 L 3.59375 14.128906 L 3.59375 13.785156 L 3.875 13.785156 M 1.878906 14.097656 L 1.878906 13.609375 L 2.035156 13.609375 L 2.035156 14.097656 Z M 2.261719 13.558594 L 2.261719 13.316406 L 2.089844 13.316406 L 2.089844 13.066406 L 1.878906 13.066406 L 1.878906 12.738281 L 2.089844 12.738281 L 2.089844 12.488281 L 2.261719 12.488281 L 2.261719 12.246094 L 2.460938 12.246094 L 2.460938 12.488281 L 2.632812 12.488281 L 2.632812 12.738281 L 2.773438 12.738281 L 2.773438 13.066406 L 2.632812 13.066406 L 2.632812 13.316406 L 2.460938 13.316406 L 2.460938 13.558594 Z M 3.875 13.066406 L 3.59375 13.066406 L 3.59375 13.316406 L 3.425781 13.316406 L 3.425781 13.558594 L 3.226562 13.558594 L 3.226562 13.316406 L 3.058594 13.316406 L 3.058594 13.066406 L 2.914062 13.066406 L 2.914062 12.738281 L 3.058594 12.738281 L 3.058594 12.488281 L 3.226562 12.488281 L 3.226562 12.246094 L 3.425781 12.246094 L 3.425781 12.488281 L 3.59375 12.488281 L 3.59375 12.738281 L 3.875 12.738281 M 2.285156 13.058594 L 2.433594 13.058594 L 2.433594 12.75 L 2.285156 12.75 Z M 3.25 13.058594 L 3.394531 13.058594 L 3.394531 12.75 L 3.25 12.75 Z M 3.191406 7.9375 L 3.191406 8.101562 L 3.3125 8.101562 L 3.3125 8.355469 L 3.472656 8.355469 L 3.472656 8.507812 L 3.59375 8.507812 L 3.59375 8.753906 L 3.875 8.753906 L 3.875 9.324219 L 3.59375 9.324219 L 3.59375 9.160156 L 3.472656 9.160156 L 3.472656 8.921875 L 3.3125 8.921875 L 3.3125 8.636719 L 3.085938 8.636719 L 3.085938 8.890625 L 2.917969 8.890625 L 2.917969 9.082031 L 2.796875 9.082031 L 2.796875 9.304688 L 2.636719 9.304688 L 2.636719 9.542969 L 2.519531 9.542969 L 2.519531 9.785156 L 2.40625 9.785156 L 2.40625 10.035156 L 2.253906 10.035156 L 2.253906 10.367188 L 2.457031 10.367188 L 2.457031 10.671875 L 2.675781 10.671875 L 2.675781 10.851562 L 3.046875 10.851562 L 3.046875 10.589844 L 2.832031 10.589844 L 2.832031 10.351562 L 2.976562 10.351562 L 2.976562 10.058594 L 3.144531 10.058594 L 3.144531 9.800781 L 3.351562 9.800781 L 3.351562 10.058594 L 3.527344 10.058594 L 3.527344 10.351562 L 3.632812 10.351562 L 3.632812 10.589844 L 3.875 10.589844 L 3.875 11.039062 L 3.59375 11.039062 L 3.59375 11.332031 L 3.488281 11.332031 L 3.488281 11.554688 L 3.386719 11.554688 L 3.386719 11.8125 L 3.246094 11.8125 L 3.246094 12.0625 L 3.109375 12.0625 L 3.109375 12.230469 L 2.941406 12.230469 L 2.941406 12.484375 L 2.738281 12.484375 L 2.738281 12.230469 L 2.570312 12.230469 L 2.570312 12.0625 L 2.429688 12.0625 L 2.429688 11.8125 L 2.289062 11.8125 L 2.289062 11.554688 L 2.175781 11.554688 L 2.175781 11.335938 L 2.0625 11.335938 L 2.0625 11.144531 L 1.878906 11.144531 L 1.878906 9.730469 L 2.085938 9.730469 L 2.085938 9.492188 L 2.148438 9.492188 L 2.148438 9.246094 L 2.304688 9.246094 L 2.304688 9.003906 L 2.398438 9.003906 L 2.398438 8.824219 L 2.5 8.824219 L 2.5 8.636719 L 2.671875 8.636719 L 2.671875 8.453125 L 2.914062 8.453125 L 2.914062 7.9375 M 1.878906 12.25 L 1.878906 11.761719 L 2.035156 11.761719 L 2.035156 12.25 Z M 3.875 12.15625 L 3.59375 12.15625 L 3.59375 11.8125 L 3.875 11.8125 M 3.875 10.082031 L 3.59375 10.082031 L 3.59375 9.738281 L 3.875 9.738281 Z M 1.882812 9.207031 L 1.882812 8.894531 L 2.035156 8.894531 L 2.035156 9.207031 Z M 2.089844 7.9375 L 2.089844 8.132812 L 2.183594 8.132812 L 2.183594 8.285156 L 2.316406 8.285156 L 2.316406 8.742188 L 2.183594 8.742188 L 2.183594 8.558594 L 2.039062 8.558594 L 2.039062 8.289062 L 1.882812 8.289062 L 1.882812 7.941406 M 2.644531 7.941406 L 2.644531 8.167969 L 2.496094 8.167969 L 2.496094 7.941406 "/>
<path style=" stroke:none;fill-rule:nonzero;fill:rgb(0%,59.215686%,22.352941%);fill-opacity:1;" d="M 3.734375 10.667969 L 32 10.667969 L 32 16 L 3.734375 16 Z M 3.734375 10.667969 "/>
</g>
</svg>
