<svg xmlns="http://www.w3.org/2000/svg" id="flag-icons-ca" viewBox="0 0 24 18" width="24" height="16"><path fill="#fff" d="M5.629 0h12.739v18H5.625z"/><path fill="#d52b1e" d="M-0.739 0h6.368v18H-0.739zm19.106 0h6.368v18H18.371zM7.537 8.7l-0.499 0.165 2.302 2.025c0.176 0.514 -0.06 0.667 -0.21 0.938l2.497 -0.315 -0.06 2.512 0.521 -0.011 -0.116 -2.497 2.501 0.3c-0.154 -0.326 -0.292 -0.499 -0.15 -1.02l2.299 -1.912 -0.401 -0.15c-0.33 -0.255 0.142 -1.222 0.21 -1.834 0 0 -1.339 0.461 -1.425 0.217l-0.345 -0.656 -1.222 1.342c-0.131 0.034 -0.188 -0.019 -0.221 -0.131l0.563 -2.805 -0.892 0.502c-0.075 0.034 -0.15 0.004 -0.195 -0.083l-0.862 -1.725 -0.885 1.792c-0.068 0.064 -0.135 0.071 -0.188 0.026L9.9 4.905l0.514 2.779c-0.041 0.112 -0.139 0.142 -0.251 0.083l-1.17 -1.324c-0.15 0.244 -0.255 0.641 -0.457 0.731 -0.203 0.086 -0.881 -0.169 -1.335 -0.263 0.158 0.555 0.637 1.485 0.337 1.789"/></svg>