<?xml version="1.0" encoding="UTF-8"?>
<svg xmlns="http://www.w3.org/2000/svg" xmlns:xlink="http://www.w3.org/1999/xlink" width="24px" height="16px" viewBox="0 0 32 16" version="1.1">
<g id="surface1">
<path style=" stroke:none;fill-rule:nonzero;fill:rgb(83.529412%,16.862745%,11.764706%);fill-opacity:1;" d="M 0 0 L 8 0 L 8.328125 0.328125 L 23.671875 0.328125 L 24 0 L 32 0 L 32 16 L 24 16 L 23.671875 15.671875 L 8.328125 15.671875 L 8 16 L 0 16 Z M 0 0 "/>
<path style=" stroke:none;fill-rule:nonzero;fill:rgb(100%,100%,100%);fill-opacity:1;" d="M 8 0 L 24 0 L 24 16 L 8 16 Z M 16.300781 14.765625 L 16.148438 11.890625 C 12.867188 16.351562 6.589844 17.304688 2.128906 14.019531 C -2.328125 10.738281 -3.285156 4.460938 0 0 L 2.863281 0.503906 L 2.476562 -0.5625 C 2.632812 0.121094 2.203125 0.800781 1.519531 0.957031 C 0.835938 1.113281 0.15625 0.683594 0 0 L 3.136719 -2.539062 L 2.429688 -2.871094 C 3.222656 -2.796875 3.804688 -2.097656 3.734375 -1.304688 C 3.660156 -0.511719 2.960938 0.0742188 2.167969 0 L 2.785156 -1.90625 L 0.980469 -1.523438 C 1.402344 -1.488281 1.714844 -1.117188 1.679688 -0.699219 C 1.644531 -0.277344 1.273438 0.0351562 0.851562 0 L 0.503906 -0.824219 L -0.90625 0.691406 C -1.097656 0.742188 -1.292969 0.628906 -1.347656 0.441406 C -1.398438 0.25 -1.289062 0.0507812 -1.097656 0 L -0.417969 -3.507812 L -1.507812 -2.875 C -0.710938 -2.851562 -0.0898438 -2.1875 -0.113281 -1.394531 C -0.136719 -0.597656 -0.800781 0.0234375 -1.597656 0 L -2.703125 -2.171875 L -3.808594 0 C -3.917969 -0.0234375 -3.992188 -0.125 -3.980469 -0.234375 C -3.96875 -0.34375 -3.875 -0.429688 -3.765625 -0.429688 C -3.652344 -0.429688 -3.5625 -0.34375 -3.550781 -0.234375 C -3.539062 -0.125 -3.613281 -0.0234375 -3.71875 0 L -4.808594 -0.628906 L -4.128906 2.875 C -4.925781 2.824219 -5.527344 2.136719 -5.472656 1.34375 C -5.421875 0.550781 -4.734375 -0.0507812 -3.941406 0 L -5.351562 -1.511719 L -5.699219 -0.691406 C -5.507812 -0.726562 -5.328125 -0.597656 -5.292969 -0.410156 C -5.257812 -0.21875 -5.382812 -0.0351562 -5.574219 0 L -7.378906 -0.382812 L -6.761719 1.523438 C -7.179688 1.449219 -7.460938 1.050781 -7.390625 0.628906 C -7.316406 0.210938 -6.917969 -0.0742188 -6.496094 0 L -7.203125 0.328125 L -4.066406 2.871094 C -4.859375 3.542969 -6.046875 3.441406 -6.714844 2.648438 C -7.386719 1.859375 -7.289062 0.671875 -6.496094 0 L -6.882812 1.066406 L -4.019531 0.5625 C -4.175781 1.246094 -4.855469 1.675781 -5.539062 1.519531 C -6.222656 1.363281 -6.652344 0.683594 -6.496094 0 L -6.648438 2.875 Z M 16.300781 14.765625 "/>
</g>
</svg>
