<?xml version="1.0" encoding="UTF-8"?>
<svg xmlns="http://www.w3.org/2000/svg" xmlns:xlink="http://www.w3.org/1999/xlink" width="24px" height="16px" viewBox="0 0 32 16" version="1.1">
<g id="surface1">
<rect x="0" y="0" width="32" height="16" style="fill:rgb(0%,50.196078%,0%);fill-opacity:1;stroke:none;"/>
<path style=" stroke:none;fill-rule:nonzero;fill:rgb(100%,87.843137%,0%);fill-opacity:1;" d="M 19.332031 8 C 19.332031 9.839844 17.839844 11.332031 16 11.332031 C 14.160156 11.332031 12.667969 9.839844 12.667969 8 C 12.667969 6.160156 14.160156 4.667969 16 4.667969 C 17.839844 4.667969 19.332031 6.160156 19.332031 8 Z M 19.332031 8 "/>
<path style=" stroke:none;fill-rule:nonzero;fill:rgb(0%,50.196078%,0%);fill-opacity:1;" d="M 19.78125 8 C 19.78125 9.515625 18.554688 10.742188 17.039062 10.742188 C 15.523438 10.742188 14.296875 9.515625 14.296875 8 C 14.296875 6.484375 15.523438 5.257812 17.039062 5.257812 C 18.554688 5.257812 19.78125 6.484375 19.78125 8 Z M 19.78125 8 "/>
<path style=" stroke:none;fill-rule:nonzero;fill:rgb(100%,87.843137%,0%);fill-opacity:1;" d="M 8.984375 4.667969 C 8.984375 6.59375 7.421875 8.160156 5.492188 8.160156 C 3.5625 8.160156 2 6.59375 2 4.667969 C 2 2.738281 3.5625 1.175781 5.492188 1.175781 C 7.421875 1.175781 8.984375 2.738281 8.984375 4.667969 Z M 8.984375 4.667969 "/>
<path style="fill-rule:nonzero;fill:rgb(50.196078%,12.54902%,0%);fill-opacity:1;stroke-width:23.333;stroke-linecap:butt;stroke-linejoin:miter;stroke:rgb(48.235294%,19.215686%,0%);stroke-opacity:1;stroke-miterlimit:4;" d="M 1653.75 2299.746094 L 1929.375 2299.746094 C 1929.375 2299.746094 1941.679688 2273.90625 1925.683594 2261.601562 C 1910.917969 2249.296875 1851.855469 2246.835938 1867.851562 2201.308594 C 1901.074219 2110.253906 1904.765625 2138.554688 1925.683594 1920.761719 C 1946.601562 1702.96875 1956.445312 1362.128906 1956.445312 1362.128906 L 1917.070312 1362.128906 C 1917.070312 1362.128906 1924.453125 1467.949219 1901.074219 1606.992188 C 1878.925781 1744.804688 1871.542969 1757.109375 1846.933594 1862.929688 C 1821.09375 1968.75 1817.402344 1978.59375 1794.023438 2040.117188 C 1771.875 2101.640625 1769.414062 2105.332031 1733.730469 2161.933594 C 1698.046875 2219.765625 1710.351562 2197.617188 1690.664062 2232.070312 C 1680.820312 2249.296875 1668.515625 2244.375 1662.363281 2257.910156 C 1654.980469 2270.214844 1653.75 2299.746094 1653.75 2299.746094 Z M 1653.75 2299.746094 " transform="matrix(0.0031746,0,0,0.0031746,0,0)"/>
<path style=" stroke:none;fill-rule:nonzero;fill:rgb(0%,50.196078%,0%);fill-opacity:1;" d="M 5.917969 2.121094 C 5.921875 2.257812 5.910156 2.4375 5.855469 2.582031 C 5.796875 2.746094 5.734375 2.90625 5.738281 3.078125 C 5.648438 3.105469 5.554688 2.878906 5.46875 3.015625 C 5.53125 3.199219 5.683594 3.34375 5.789062 3.507812 C 5.804688 3.5625 5.953125 3.695312 5.867188 3.726562 C 5.648438 3.652344 5.597656 3.375 5.460938 3.210938 C 5.304688 2.925781 5.011719 2.726562 4.6875 2.714844 C 4.566406 2.71875 4.167969 2.683594 4.269531 2.894531 C 4.425781 2.996094 4.613281 3.066406 4.761719 3.179688 C 4.875 3.191406 5.078125 3.378906 5.066406 3.449219 C 4.867188 3.371094 4.777344 3.273438 4.5625 3.191406 C 4.277344 3.078125 3.878906 3.144531 3.71875 3.429688 C 3.6875 3.503906 3.644531 3.722656 3.738281 3.742188 C 3.847656 3.574219 4.003906 3.382812 4.234375 3.433594 C 4.417969 3.445312 4.03125 3.773438 4.179688 3.707031 C 4.226562 3.6875 4.332031 3.613281 4.40625 3.609375 C 4.484375 3.601562 4.523438 3.65625 4.582031 3.664062 C 4.695312 3.679688 4.726562 3.726562 4.714844 3.753906 C 4.703125 3.785156 4.667969 3.757812 4.550781 3.796875 C 4.492188 3.8125 4.464844 3.863281 4.398438 3.886719 C 4.328125 3.910156 4.191406 3.914062 4.136719 3.890625 C 3.953125 3.8125 3.65625 3.828125 3.597656 4.054688 C 3.597656 4.15625 3.507812 4.042969 3.46875 4.085938 C 3.4375 4.199219 3.429688 4.308594 3.265625 4.300781 C 3.167969 4.402344 3.066406 4.511719 2.941406 4.585938 C 3.011719 4.753906 3.304688 4.414062 3.292969 4.558594 C 3.164062 4.734375 3.355469 4.769531 3.441406 4.636719 C 3.585938 4.484375 3.761719 4.300781 3.976562 4.453125 C 4.078125 4.546875 4.136719 4.402344 4.210938 4.410156 C 4.257812 4.527344 4.316406 4.414062 4.367188 4.382812 C 4.453125 4.371094 4.429688 4.488281 4.53125 4.417969 C 4.738281 4.28125 4.988281 4.394531 5.1875 4.261719 C 5.398438 4.167969 5.214844 4.339844 5.15625 4.410156 C 5.066406 4.589844 5.144531 4.828125 4.945312 4.941406 C 4.863281 5.15625 5.039062 5.441406 4.859375 5.597656 C 4.832031 5.699219 5.089844 5.6875 5.164062 5.730469 C 5.289062 5.734375 5.160156 5.4375 5.285156 5.398438 C 5.453125 5.503906 5.445312 5.210938 5.410156 5.121094 C 5.425781 4.914062 5.4375 4.691406 5.539062 4.503906 C 5.648438 4.277344 5.75 4.597656 5.628906 4.6875 C 5.558594 4.898438 5.460938 5.160156 5.617188 5.355469 C 5.660156 5.363281 5.699219 5.472656 5.757812 5.507812 C 5.816406 5.539062 5.894531 5.5 5.910156 5.398438 C 5.984375 5.097656 5.945312 4.777344 6.054688 4.484375 C 6.128906 4.394531 6.234375 4.472656 6.28125 4.554688 C 6.429688 4.726562 6.535156 4.945312 6.714844 5.089844 C 6.882812 5.167969 7.027344 5.285156 7.105469 5.453125 C 7.101562 5.585938 7.476562 5.605469 7.363281 5.460938 C 7.257812 5.316406 7.328125 5.175781 7.4375 5.082031 C 7.496094 5.09375 7.476562 4.992188 7.433594 5.03125 C 7.359375 5.015625 7.355469 4.882812 7.457031 4.945312 C 7.628906 5 7.441406 4.820312 7.382812 4.816406 C 7.238281 4.726562 7.070312 4.625 7 4.46875 C 7.1875 4.46875 7.382812 4.570312 7.574219 4.507812 C 7.730469 4.429688 7.886719 4.515625 7.941406 4.648438 C 8.058594 4.632812 8.007812 4.511719 7.941406 4.472656 C 8.027344 4.4375 8.085938 4.363281 7.980469 4.296875 C 7.925781 4.222656 8.054688 4.097656 7.894531 4.105469 C 7.902344 3.980469 7.851562 3.871094 7.71875 3.828125 C 7.585938 3.714844 7.191406 3.992188 7.203125 3.738281 C 7.164062 3.597656 7.363281 3.71875 7.417969 3.648438 C 7.476562 3.503906 7.144531 3.519531 7.253906 3.402344 C 7.324219 3.359375 7.660156 3.292969 7.398438 3.242188 C 7.265625 3.277344 7.152344 3.253906 7.050781 3.1875 C 6.957031 3.34375 6.6875 3.101562 6.734375 3.382812 C 6.699219 3.488281 6.457031 3.761719 6.394531 3.550781 C 6.449219 3.386719 6.734375 3.332031 6.644531 3.109375 C 6.632812 2.972656 6.515625 3.136719 6.460938 3.125 C 6.433594 3.039062 6.546875 2.9375 6.621094 2.917969 C 6.773438 3.035156 6.78125 2.769531 6.925781 2.789062 C 7.03125 2.765625 6.890625 2.722656 6.859375 2.703125 C 6.890625 2.625 7.050781 2.585938 6.894531 2.515625 C 6.753906 2.414062 6.648438 2.621094 6.53125 2.632812 C 6.421875 2.507812 6.632812 2.445312 6.691406 2.378906 C 6.695312 2.332031 6.566406 2.363281 6.605469 2.320312 C 6.640625 2.261719 6.863281 2.257812 6.757812 2.167969 C 6.601562 2.113281 6.394531 2.128906 6.242188 2.199219 C 6.148438 2.230469 6.121094 2.445312 6.035156 2.4375 C 5.996094 2.339844 6.050781 2.152344 5.917969 2.121094 Z M 6.667969 4.242188 C 6.789062 4.21875 6.667969 4.425781 6.609375 4.421875 C 6.617188 4.347656 6.4375 4.355469 6.546875 4.292969 C 6.585938 4.269531 6.625 4.25 6.667969 4.242188 Z M 6.667969 4.242188 "/>
<path style=" stroke:none;fill-rule:nonzero;fill:rgb(100%,87.843137%,0%);fill-opacity:1;" d="M 24 12.191406 L 24.21875 12.875 L 24.894531 12.621094 L 24.496094 13.21875 L 25.113281 13.585938 L 24.398438 13.648438 L 24.496094 14.363281 L 24 13.839844 L 23.503906 14.363281 L 23.601562 13.648438 L 22.886719 13.585938 L 23.503906 13.21875 L 23.105469 12.621094 L 23.78125 12.875 Z M 24 12.191406 "/>
<path style=" stroke:none;fill-rule:nonzero;fill:rgb(100%,87.843137%,0%);fill-opacity:1;" d="M 20 5.855469 L 20.21875 6.542969 L 20.894531 6.289062 L 20.496094 6.886719 L 21.113281 7.253906 L 20.398438 7.316406 L 20.496094 8.03125 L 20 7.507812 L 19.503906 8.03125 L 19.601562 7.316406 L 18.886719 7.253906 L 19.503906 6.886719 L 19.105469 6.289062 L 19.78125 6.542969 Z M 20 5.855469 "/>
<path style=" stroke:none;fill-rule:nonzero;fill:rgb(100%,87.843137%,0%);fill-opacity:1;" d="M 24 1.523438 L 24.21875 2.210938 L 24.894531 1.953125 L 24.496094 2.554688 L 25.113281 2.921875 L 24.398438 2.984375 L 24.496094 3.695312 L 24 3.175781 L 23.503906 3.695312 L 23.601562 2.984375 L 22.886719 2.921875 L 23.503906 2.554688 L 23.105469 1.953125 L 23.78125 2.210938 Z M 24 1.523438 "/>
<path style=" stroke:none;fill-rule:nonzero;fill:rgb(100%,87.843137%,0%);fill-opacity:1;" d="M 27.554688 4.789062 L 27.777344 5.476562 L 28.449219 5.222656 L 28.050781 5.820312 L 28.667969 6.1875 L 27.953125 6.25 L 28.050781 6.964844 L 27.554688 6.441406 L 27.058594 6.964844 L 27.160156 6.25 L 26.441406 6.1875 L 27.058594 5.820312 L 26.660156 5.222656 L 27.335938 5.476562 Z M 27.554688 4.789062 "/>
<path style=" stroke:none;fill-rule:nonzero;fill:rgb(100%,87.843137%,0%);fill-opacity:1;" d="M 25.601562 8 L 25.773438 8.425781 L 26.234375 8.460938 L 25.882812 8.757812 L 25.992188 9.207031 L 25.601562 8.964844 L 25.207031 9.207031 L 25.316406 8.757812 L 24.964844 8.460938 L 25.425781 8.425781 Z M 25.601562 8 "/>
</g>
</svg>
