<?xml version="1.0" encoding="UTF-8"?>
<svg xmlns="http://www.w3.org/2000/svg" xmlns:xlink="http://www.w3.org/1999/xlink" width="24px" height="16px" viewBox="0 0 32 16" version="1.1">
<defs>
<clipPath id="clip1">
  <path d="M 0 0 L 16 0 L 16 8 L 0 8 Z M 0 0 "/>
</clipPath>
<clipPath id="clip2">
  <path d="M 0 0 L 0 4 L 21.332031 4 L 21.332031 10.667969 Z M 16 0 L 8 0 L 8 10.667969 L -5.332031 10.667969 Z M 16 0 "/>
</clipPath>
<clipPath id="clip3">
  <path d="M 0 0 L 22 0 L 22 11 L 0 11 Z M 0 0 "/>
</clipPath>
<clipPath id="clip4">
  <path d="M 0 0 L 0 4 L 21.332031 4 L 21.332031 10.667969 Z M 16 0 L 8 0 L 8 10.667969 L -5.332031 10.667969 Z M 16 0 "/>
</clipPath>
</defs>
<g id="surface1">
<rect x="0" y="0" width="32" height="16" style="fill:rgb(0.392157%,12.941176%,41.176471%);fill-opacity:1;stroke:none;"/>
<path style="fill-rule:nonzero;fill:rgb(0.392157%,12.941176%,41.176471%);fill-opacity:1;stroke-width:0.6;stroke-linecap:butt;stroke-linejoin:miter;stroke:rgb(100%,100%,100%);stroke-opacity:1;stroke-miterlimit:4;" d="M 0 0 L 6 3 M 0 3 L 6 0 " transform="matrix(2.666667,0,0,2.666667,0,0)"/>
<g clip-path="url(#clip1)" clip-rule="nonzero">
<g clip-path="url(#clip2)" clip-rule="nonzero">
<path style=" stroke:none;fill-rule:nonzero;fill:rgb(0.392157%,12.941176%,41.176471%);fill-opacity:1;" d="M 0 0 L 16 8 M 0 8 L 16 0 "/>
</g>
</g>
<g clip-path="url(#clip3)" clip-rule="nonzero">
<g clip-path="url(#clip4)" clip-rule="nonzero">
<path style="fill:none;stroke-width:0.4;stroke-linecap:butt;stroke-linejoin:miter;stroke:rgb(78.431373%,6.27451%,18.039216%);stroke-opacity:1;stroke-miterlimit:4;" d="M 0 0 L 6 3 M 0 3 L 6 0 " transform="matrix(2.666667,0,0,2.666667,0,0)"/>
</g>
</g>
<path style="fill-rule:nonzero;fill:rgb(0.392157%,12.941176%,41.176471%);fill-opacity:1;stroke-width:1;stroke-linecap:butt;stroke-linejoin:miter;stroke:rgb(100%,100%,100%);stroke-opacity:1;stroke-miterlimit:4;" d="M 3 0 L 3 4.000488 M 0 1.5 L 7.000488 1.5 " transform="matrix(2.666667,0,0,2.666667,0,0)"/>
<path style="fill-rule:nonzero;fill:rgb(0.392157%,12.941176%,41.176471%);fill-opacity:1;stroke-width:0.6;stroke-linecap:butt;stroke-linejoin:miter;stroke:rgb(78.431373%,6.27451%,18.039216%);stroke-opacity:1;stroke-miterlimit:4;" d="M 3 0 L 3 4.000488 M 0 1.5 L 7.000488 1.5 " transform="matrix(2.666667,0,0,2.666667,0,0)"/>
<path style=" stroke:none;fill-rule:nonzero;fill:rgb(0.392157%,12.941176%,41.176471%);fill-opacity:1;" d="M 0 8 L 16 8 L 16 0 L 32 0 L 32 16 L 0 16 Z M 0 8 "/>
<path style=" stroke:none;fill-rule:nonzero;fill:rgb(100%,100%,100%);fill-opacity:1;" d="M 24 1.359375 L 24.269531 2.191406 L 25.140625 2.191406 L 24.4375 2.699219 L 24.707031 3.53125 L 24 3.019531 L 23.292969 3.53125 L 23.5625 2.699219 L 22.859375 2.191406 L 23.730469 2.191406 Z M 24 1.359375 "/>
<path style=" stroke:none;fill-rule:nonzero;fill:rgb(100%,100%,100%);fill-opacity:1;" d="M 26.699219 1.933594 L 26.609375 2.800781 L 27.40625 3.15625 L 26.554688 3.335938 L 26.464844 4.203125 L 26.027344 3.449219 L 25.171875 3.628906 L 25.757812 2.980469 L 25.320312 2.230469 L 26.117188 2.582031 Z M 26.699219 1.933594 "/>
<path style=" stroke:none;fill-rule:nonzero;fill:rgb(100%,100%,100%);fill-opacity:1;" d="M 28.933594 3.558594 L 28.5 4.3125 L 29.082031 4.960938 L 28.230469 4.777344 L 27.792969 5.535156 L 27.699219 4.667969 L 26.847656 4.484375 L 27.644531 4.128906 L 27.554688 3.265625 L 28.136719 3.910156 Z M 28.933594 3.558594 "/>
<path style=" stroke:none;fill-rule:nonzero;fill:rgb(100%,100%,100%);fill-opacity:1;" d="M 30.316406 5.949219 L 29.609375 6.460938 L 29.878906 7.289062 L 29.175781 6.777344 L 28.46875 7.289062 L 28.734375 6.460938 L 28.03125 5.945312 L 28.90625 5.945312 L 29.171875 5.121094 L 29.441406 5.949219 Z M 30.316406 5.949219 "/>
<path style=" stroke:none;fill-rule:nonzero;fill:rgb(100%,100%,100%);fill-opacity:1;" d="M 30.605469 8.695312 L 29.75 8.875 L 29.660156 9.742188 L 29.226562 8.988281 L 28.371094 9.171875 L 28.953125 8.519531 L 28.519531 7.765625 L 29.316406 8.121094 L 29.898438 7.472656 L 29.804688 8.339844 Z M 30.605469 8.695312 "/>
<path style=" stroke:none;fill-rule:nonzero;fill:rgb(100%,100%,100%);fill-opacity:1;" d="M 29.75 11.320312 L 28.898438 11.140625 L 28.460938 11.890625 L 28.371094 11.027344 L 27.519531 10.847656 L 28.3125 10.488281 L 28.222656 9.621094 L 28.808594 10.273438 L 29.601562 9.917969 L 29.167969 10.671875 Z M 29.75 11.320312 "/>
<path style=" stroke:none;fill-rule:nonzero;fill:rgb(100%,100%,100%);fill-opacity:1;" d="M 27.902344 13.371094 L 27.195312 12.859375 L 26.492188 13.371094 L 26.761719 12.542969 L 26.054688 12.03125 L 26.925781 12.027344 L 27.199219 11.199219 L 27.46875 12.03125 L 28.335938 12.03125 L 27.632812 12.542969 Z M 27.902344 13.371094 "/>
<path style=" stroke:none;fill-rule:nonzero;fill:rgb(100%,100%,100%);fill-opacity:1;" d="M 25.378906 14.496094 L 24.945312 13.738281 L 24.09375 13.921875 L 24.675781 13.273438 L 24.238281 12.519531 L 25.035156 12.871094 L 25.621094 12.226562 L 25.527344 13.09375 L 26.324219 13.445312 L 25.472656 13.625 Z M 25.378906 14.496094 "/>
<path style=" stroke:none;fill-rule:nonzero;fill:rgb(100%,100%,100%);fill-opacity:1;" d="M 22.621094 14.496094 L 22.527344 13.625 L 21.675781 13.445312 L 22.472656 13.09375 L 22.378906 12.226562 L 22.964844 12.871094 L 23.761719 12.519531 L 23.324219 13.273438 L 23.90625 13.921875 L 23.054688 13.738281 Z M 22.621094 14.496094 "/>
<path style=" stroke:none;fill-rule:nonzero;fill:rgb(100%,100%,100%);fill-opacity:1;" d="M 20.097656 13.371094 L 20.367188 12.542969 L 19.664062 12.03125 L 20.53125 12.03125 L 20.800781 11.199219 L 21.074219 12.027344 L 21.945312 12.03125 L 21.238281 12.542969 L 21.507812 13.371094 L 20.804688 12.859375 Z M 20.097656 13.371094 "/>
<path style=" stroke:none;fill-rule:nonzero;fill:rgb(100%,100%,100%);fill-opacity:1;" d="M 18.25 11.320312 L 18.832031 10.671875 L 18.398438 9.917969 L 19.191406 10.273438 L 19.777344 9.621094 L 19.6875 10.488281 L 20.480469 10.847656 L 19.628906 11.027344 L 19.539062 11.890625 L 19.101562 11.140625 Z M 18.25 11.320312 "/>
<path style=" stroke:none;fill-rule:nonzero;fill:rgb(100%,100%,100%);fill-opacity:1;" d="M 17.394531 8.695312 L 18.195312 8.339844 L 18.101562 7.472656 L 18.683594 8.121094 L 19.480469 7.765625 L 19.046875 8.519531 L 19.628906 9.171875 L 18.773438 8.988281 L 18.339844 9.742188 L 18.25 8.875 Z M 17.394531 8.695312 "/>
<path style=" stroke:none;fill-rule:nonzero;fill:rgb(100%,100%,100%);fill-opacity:1;" d="M 17.683594 5.949219 L 18.558594 5.949219 L 18.828125 5.121094 L 19.09375 5.945312 L 19.96875 5.945312 L 19.265625 6.460938 L 19.53125 7.289062 L 18.824219 6.777344 L 18.121094 7.289062 L 18.390625 6.460938 Z M 17.683594 5.949219 "/>
<path style=" stroke:none;fill-rule:nonzero;fill:rgb(100%,100%,100%);fill-opacity:1;" d="M 19.066406 3.558594 L 19.863281 3.910156 L 20.445312 3.265625 L 20.355469 4.128906 L 21.152344 4.484375 L 20.300781 4.667969 L 20.207031 5.535156 L 19.769531 4.777344 L 18.917969 4.960938 L 19.5 4.3125 Z M 19.066406 3.558594 "/>
<path style=" stroke:none;fill-rule:nonzero;fill:rgb(100%,100%,100%);fill-opacity:1;" d="M 21.300781 1.933594 L 21.882812 2.582031 L 22.679688 2.230469 L 22.242188 2.980469 L 22.828125 3.628906 L 21.972656 3.449219 L 21.535156 4.203125 L 21.445312 3.335938 L 20.59375 3.15625 L 21.390625 2.800781 Z M 21.300781 1.933594 "/>
</g>
</svg>
