<?xml version="1.0" encoding="UTF-8"?>
<svg xmlns="http://www.w3.org/2000/svg" xmlns:xlink="http://www.w3.org/1999/xlink" width="24px" height="16px" viewBox="0 0 27 16" version="1.1">
<g id="surface1">
<rect x="0" y="0" width="27" height="16" style="fill:rgb(0%,21.960784%,57.647059%);fill-opacity:1;stroke:none;"/>
<path style=" stroke:none;fill-rule:nonzero;fill:rgb(100%,100%,100%);fill-opacity:1;" d="M 0 8 L 27 8 L 27 12 L 0 12 Z M 0 8 "/>
<path style=" stroke:none;fill-rule:nonzero;fill:rgb(81.176471%,12.54902%,15.294118%);fill-opacity:1;" d="M 0 9.332031 L 27 9.332031 L 27 10.667969 L 0 10.667969 Z M 0 9.332031 "/>
<path style=" stroke:none;fill-rule:nonzero;fill:rgb(96.862745%,81.960784%,8.627451%);fill-opacity:1;" d="M 10.125 5.199219 L 9.878906 5.960938 L 10.257812 6.085938 "/>
<path style=" stroke:none;fill-rule:nonzero;fill:rgb(96.862745%,81.960784%,8.627451%);fill-opacity:1;" d="M 10.125 5.199219 L 10.371094 5.960938 L 9.992188 6.085938 "/>
<path style=" stroke:none;fill-rule:nonzero;fill:rgb(96.862745%,81.960784%,8.627451%);fill-opacity:1;" d="M 10.878906 5.753906 L 10.085938 5.753906 L 10.085938 6.152344 "/>
<path style=" stroke:none;fill-rule:nonzero;fill:rgb(96.862745%,81.960784%,8.627451%);fill-opacity:1;" d="M 10.878906 5.753906 L 10.238281 6.222656 L 10.003906 5.898438 "/>
<path style=" stroke:none;fill-rule:nonzero;fill:rgb(96.862745%,81.960784%,8.627451%);fill-opacity:1;" d="M 10.589844 6.648438 L 10.347656 5.886719 L 9.96875 6.011719 "/>
<path style=" stroke:none;fill-rule:nonzero;fill:rgb(96.862745%,81.960784%,8.627451%);fill-opacity:1;" d="M 10.589844 6.648438 L 9.949219 6.175781 L 10.183594 5.851562 "/>
<path style=" stroke:none;fill-rule:nonzero;fill:rgb(96.862745%,81.960784%,8.627451%);fill-opacity:1;" d="M 9.660156 6.648438 L 10.300781 6.175781 L 10.066406 5.851562 "/>
<path style=" stroke:none;fill-rule:nonzero;fill:rgb(96.862745%,81.960784%,8.627451%);fill-opacity:1;" d="M 9.660156 6.648438 L 9.902344 5.886719 L 10.28125 6.011719 "/>
<path style=" stroke:none;fill-rule:nonzero;fill:rgb(96.862745%,81.960784%,8.627451%);fill-opacity:1;" d="M 9.371094 5.753906 L 10.011719 6.222656 L 10.246094 5.898438 "/>
<path style=" stroke:none;fill-rule:nonzero;fill:rgb(96.862745%,81.960784%,8.627451%);fill-opacity:1;" d="M 9.371094 5.753906 L 10.164062 5.753906 L 10.164062 6.152344 "/>
<path style=" stroke:none;fill-rule:nonzero;fill:rgb(96.862745%,81.960784%,8.627451%);fill-opacity:1;" d="M 10.125 13.199219 L 9.878906 13.960938 L 10.257812 14.085938 "/>
<path style=" stroke:none;fill-rule:nonzero;fill:rgb(96.862745%,81.960784%,8.627451%);fill-opacity:1;" d="M 10.125 13.199219 L 10.371094 13.960938 L 9.992188 14.085938 "/>
<path style=" stroke:none;fill-rule:nonzero;fill:rgb(96.862745%,81.960784%,8.627451%);fill-opacity:1;" d="M 10.878906 13.753906 L 10.085938 13.753906 L 10.085938 14.152344 "/>
<path style=" stroke:none;fill-rule:nonzero;fill:rgb(96.862745%,81.960784%,8.627451%);fill-opacity:1;" d="M 10.878906 13.753906 L 10.238281 14.222656 L 10.003906 13.898438 "/>
<path style=" stroke:none;fill-rule:nonzero;fill:rgb(96.862745%,81.960784%,8.627451%);fill-opacity:1;" d="M 10.589844 14.648438 L 10.347656 13.886719 L 9.96875 14.011719 "/>
<path style=" stroke:none;fill-rule:nonzero;fill:rgb(96.862745%,81.960784%,8.627451%);fill-opacity:1;" d="M 10.589844 14.648438 L 9.949219 14.175781 L 10.183594 13.851562 "/>
<path style=" stroke:none;fill-rule:nonzero;fill:rgb(96.862745%,81.960784%,8.627451%);fill-opacity:1;" d="M 9.660156 14.648438 L 10.300781 14.175781 L 10.066406 13.851562 "/>
<path style=" stroke:none;fill-rule:nonzero;fill:rgb(96.862745%,81.960784%,8.627451%);fill-opacity:1;" d="M 9.660156 14.648438 L 9.902344 13.886719 L 10.28125 14.011719 "/>
<path style=" stroke:none;fill-rule:nonzero;fill:rgb(96.862745%,81.960784%,8.627451%);fill-opacity:1;" d="M 9.371094 13.753906 L 10.011719 14.222656 L 10.246094 13.898438 "/>
<path style=" stroke:none;fill-rule:nonzero;fill:rgb(96.862745%,81.960784%,8.627451%);fill-opacity:1;" d="M 9.371094 13.753906 L 10.164062 13.753906 L 10.164062 14.152344 "/>
<path style=" stroke:none;fill-rule:nonzero;fill:rgb(96.862745%,81.960784%,8.627451%);fill-opacity:1;" d="M 14.65625 8.515625 L 13.863281 8.515625 L 13.863281 8.917969 "/>
<path style=" stroke:none;fill-rule:nonzero;fill:rgb(96.862745%,81.960784%,8.627451%);fill-opacity:1;" d="M 14.65625 8.515625 L 14.015625 8.988281 L 13.78125 8.664062 "/>
<path style=" stroke:none;fill-rule:nonzero;fill:rgb(96.862745%,81.960784%,8.627451%);fill-opacity:1;" d="M 14.367188 9.410156 L 14.121094 8.648438 L 13.746094 8.773438 "/>
<path style=" stroke:none;fill-rule:nonzero;fill:rgb(96.862745%,81.960784%,8.627451%);fill-opacity:1;" d="M 14.367188 9.410156 L 13.726562 8.941406 L 13.957031 8.617188 "/>
<path style=" stroke:none;fill-rule:nonzero;fill:rgb(96.862745%,81.960784%,8.627451%);fill-opacity:1;" d="M 13.433594 9.410156 L 14.078125 8.941406 L 13.84375 8.617188 "/>
<path style=" stroke:none;fill-rule:nonzero;fill:rgb(96.862745%,81.960784%,8.627451%);fill-opacity:1;" d="M 13.433594 9.410156 L 13.679688 8.648438 L 14.058594 8.773438 "/>
<path style=" stroke:none;fill-rule:nonzero;fill:rgb(96.862745%,81.960784%,8.627451%);fill-opacity:1;" d="M 13.144531 8.515625 L 13.789062 8.988281 L 14.023438 8.664062 "/>
<path style=" stroke:none;fill-rule:nonzero;fill:rgb(96.862745%,81.960784%,8.627451%);fill-opacity:1;" d="M 13.144531 8.515625 L 13.941406 8.515625 L 13.941406 8.917969 "/>
<path style=" stroke:none;fill-rule:nonzero;fill:rgb(96.862745%,81.960784%,8.627451%);fill-opacity:1;" d="M 13.902344 7.964844 L 13.65625 8.726562 L 14.035156 8.847656 "/>
<path style=" stroke:none;fill-rule:nonzero;fill:rgb(96.862745%,81.960784%,8.627451%);fill-opacity:1;" d="M 13.902344 7.964844 L 14.148438 8.726562 L 13.769531 8.847656 "/>
<path style=" stroke:none;fill-rule:nonzero;fill:rgb(96.862745%,81.960784%,8.627451%);fill-opacity:1;" d="M 7.105469 10.988281 L 6.308594 10.988281 L 6.308594 11.390625 "/>
<path style=" stroke:none;fill-rule:nonzero;fill:rgb(96.862745%,81.960784%,8.627451%);fill-opacity:1;" d="M 7.105469 10.988281 L 6.460938 11.460938 L 6.226562 11.136719 "/>
<path style=" stroke:none;fill-rule:nonzero;fill:rgb(96.862745%,81.960784%,8.627451%);fill-opacity:1;" d="M 6.816406 11.882812 L 6.570312 11.121094 L 6.191406 11.246094 "/>
<path style=" stroke:none;fill-rule:nonzero;fill:rgb(96.862745%,81.960784%,8.627451%);fill-opacity:1;" d="M 6.816406 11.882812 L 6.171875 11.414062 L 6.40625 11.089844 "/>
<path style=" stroke:none;fill-rule:nonzero;fill:rgb(96.862745%,81.960784%,8.627451%);fill-opacity:1;" d="M 5.882812 11.882812 L 6.523438 11.414062 L 6.292969 11.089844 "/>
<path style=" stroke:none;fill-rule:nonzero;fill:rgb(96.862745%,81.960784%,8.627451%);fill-opacity:1;" d="M 5.882812 11.882812 L 6.128906 11.121094 L 6.503906 11.246094 "/>
<path style=" stroke:none;fill-rule:nonzero;fill:rgb(96.862745%,81.960784%,8.627451%);fill-opacity:1;" d="M 5.59375 10.988281 L 6.234375 11.460938 L 6.46875 11.136719 "/>
<path style=" stroke:none;fill-rule:nonzero;fill:rgb(96.862745%,81.960784%,8.627451%);fill-opacity:1;" d="M 5.59375 10.988281 L 6.386719 10.988281 L 6.386719 11.390625 "/>
<path style=" stroke:none;fill-rule:nonzero;fill:rgb(96.862745%,81.960784%,8.627451%);fill-opacity:1;" d="M 6.347656 10.4375 L 6.101562 11.195312 L 6.480469 11.320312 "/>
<path style=" stroke:none;fill-rule:nonzero;fill:rgb(96.862745%,81.960784%,8.627451%);fill-opacity:1;" d="M 6.347656 10.4375 L 6.59375 11.195312 L 6.214844 11.320312 "/>
<path style=" stroke:none;fill-rule:nonzero;fill:rgb(96.862745%,81.960784%,8.627451%);fill-opacity:1;" d="M 12.925781 13.882812 L 12.679688 13.121094 L 12.300781 13.246094 "/>
<path style=" stroke:none;fill-rule:nonzero;fill:rgb(96.862745%,81.960784%,8.627451%);fill-opacity:1;" d="M 12.925781 13.882812 L 12.28125 13.414062 L 12.515625 13.089844 "/>
<path style=" stroke:none;fill-rule:nonzero;fill:rgb(96.862745%,81.960784%,8.627451%);fill-opacity:1;" d="M 11.992188 13.882812 L 12.632812 13.414062 L 12.402344 13.089844 "/>
<path style=" stroke:none;fill-rule:nonzero;fill:rgb(96.862745%,81.960784%,8.627451%);fill-opacity:1;" d="M 11.992188 13.882812 L 12.238281 13.121094 L 12.613281 13.246094 "/>
<path style=" stroke:none;fill-rule:nonzero;fill:rgb(96.862745%,81.960784%,8.627451%);fill-opacity:1;" d="M 11.703125 12.988281 L 12.347656 13.460938 L 12.578125 13.136719 "/>
<path style=" stroke:none;fill-rule:nonzero;fill:rgb(96.862745%,81.960784%,8.627451%);fill-opacity:1;" d="M 11.703125 12.988281 L 12.496094 12.988281 L 12.496094 13.390625 "/>
<path style=" stroke:none;fill-rule:nonzero;fill:rgb(96.862745%,81.960784%,8.627451%);fill-opacity:1;" d="M 12.457031 12.4375 L 12.214844 13.195312 L 12.589844 13.320312 "/>
<path style=" stroke:none;fill-rule:nonzero;fill:rgb(96.862745%,81.960784%,8.627451%);fill-opacity:1;" d="M 12.457031 12.4375 L 12.703125 13.195312 L 12.328125 13.320312 "/>
<path style=" stroke:none;fill-rule:nonzero;fill:rgb(96.862745%,81.960784%,8.627451%);fill-opacity:1;" d="M 13.214844 12.988281 L 12.421875 12.988281 L 12.421875 13.390625 "/>
<path style=" stroke:none;fill-rule:nonzero;fill:rgb(96.862745%,81.960784%,8.627451%);fill-opacity:1;" d="M 13.214844 12.988281 L 12.570312 13.460938 L 12.339844 13.136719 "/>
<path style=" stroke:none;fill-rule:nonzero;fill:rgb(96.862745%,81.960784%,8.627451%);fill-opacity:1;" d="M 8.257812 7.410156 L 8.011719 6.648438 L 7.636719 6.773438 "/>
<path style=" stroke:none;fill-rule:nonzero;fill:rgb(96.862745%,81.960784%,8.627451%);fill-opacity:1;" d="M 8.257812 7.410156 L 7.617188 6.941406 L 7.847656 6.617188 "/>
<path style=" stroke:none;fill-rule:nonzero;fill:rgb(96.862745%,81.960784%,8.627451%);fill-opacity:1;" d="M 7.324219 7.410156 L 7.96875 6.941406 L 7.734375 6.617188 "/>
<path style=" stroke:none;fill-rule:nonzero;fill:rgb(96.862745%,81.960784%,8.627451%);fill-opacity:1;" d="M 7.324219 7.410156 L 7.570312 6.648438 L 7.949219 6.773438 "/>
<path style=" stroke:none;fill-rule:nonzero;fill:rgb(96.862745%,81.960784%,8.627451%);fill-opacity:1;" d="M 7.035156 6.515625 L 7.679688 6.988281 L 7.910156 6.664062 "/>
<path style=" stroke:none;fill-rule:nonzero;fill:rgb(96.862745%,81.960784%,8.627451%);fill-opacity:1;" d="M 7.035156 6.515625 L 7.828125 6.515625 L 7.828125 6.917969 "/>
<path style=" stroke:none;fill-rule:nonzero;fill:rgb(96.862745%,81.960784%,8.627451%);fill-opacity:1;" d="M 7.792969 5.964844 L 7.546875 6.726562 L 7.921875 6.847656 "/>
<path style=" stroke:none;fill-rule:nonzero;fill:rgb(96.862745%,81.960784%,8.627451%);fill-opacity:1;" d="M 7.792969 5.964844 L 8.035156 6.726562 L 7.660156 6.847656 "/>
<path style=" stroke:none;fill-rule:nonzero;fill:rgb(96.862745%,81.960784%,8.627451%);fill-opacity:1;" d="M 8.546875 6.515625 L 7.753906 6.515625 L 7.753906 6.917969 "/>
<path style=" stroke:none;fill-rule:nonzero;fill:rgb(96.862745%,81.960784%,8.627451%);fill-opacity:1;" d="M 8.546875 6.515625 L 7.902344 6.988281 L 7.671875 6.664062 "/>
<path style=" stroke:none;fill-rule:nonzero;fill:rgb(96.862745%,81.960784%,8.627451%);fill-opacity:1;" d="M 7.324219 13.882812 L 7.96875 13.414062 L 7.734375 13.089844 "/>
<path style=" stroke:none;fill-rule:nonzero;fill:rgb(96.862745%,81.960784%,8.627451%);fill-opacity:1;" d="M 7.324219 13.882812 L 7.570312 13.121094 L 7.949219 13.246094 "/>
<path style=" stroke:none;fill-rule:nonzero;fill:rgb(96.862745%,81.960784%,8.627451%);fill-opacity:1;" d="M 7.035156 12.988281 L 7.679688 13.460938 L 7.910156 13.136719 "/>
<path style=" stroke:none;fill-rule:nonzero;fill:rgb(96.862745%,81.960784%,8.627451%);fill-opacity:1;" d="M 7.035156 12.988281 L 7.828125 12.988281 L 7.828125 13.390625 "/>
<path style=" stroke:none;fill-rule:nonzero;fill:rgb(96.862745%,81.960784%,8.627451%);fill-opacity:1;" d="M 7.792969 12.4375 L 7.546875 13.195312 L 7.921875 13.320312 "/>
<path style=" stroke:none;fill-rule:nonzero;fill:rgb(96.862745%,81.960784%,8.627451%);fill-opacity:1;" d="M 7.792969 12.4375 L 8.035156 13.195312 L 7.660156 13.320312 "/>
<path style=" stroke:none;fill-rule:nonzero;fill:rgb(96.862745%,81.960784%,8.627451%);fill-opacity:1;" d="M 8.546875 12.988281 L 7.753906 12.988281 L 7.753906 13.390625 "/>
<path style=" stroke:none;fill-rule:nonzero;fill:rgb(96.862745%,81.960784%,8.627451%);fill-opacity:1;" d="M 8.546875 12.988281 L 7.902344 13.460938 L 7.671875 13.136719 "/>
<path style=" stroke:none;fill-rule:nonzero;fill:rgb(96.862745%,81.960784%,8.627451%);fill-opacity:1;" d="M 8.257812 13.882812 L 8.011719 13.121094 L 7.636719 13.246094 "/>
<path style=" stroke:none;fill-rule:nonzero;fill:rgb(96.862745%,81.960784%,8.627451%);fill-opacity:1;" d="M 8.257812 13.882812 L 7.617188 13.414062 L 7.847656 13.089844 "/>
<path style=" stroke:none;fill-rule:nonzero;fill:rgb(96.862745%,81.960784%,8.627451%);fill-opacity:1;" d="M 11.992188 7.410156 L 12.632812 6.941406 L 12.402344 6.617188 "/>
<path style=" stroke:none;fill-rule:nonzero;fill:rgb(96.862745%,81.960784%,8.627451%);fill-opacity:1;" d="M 11.992188 7.410156 L 12.238281 6.648438 L 12.613281 6.773438 "/>
<path style=" stroke:none;fill-rule:nonzero;fill:rgb(96.862745%,81.960784%,8.627451%);fill-opacity:1;" d="M 11.703125 6.515625 L 12.347656 6.988281 L 12.578125 6.664062 "/>
<path style=" stroke:none;fill-rule:nonzero;fill:rgb(96.862745%,81.960784%,8.627451%);fill-opacity:1;" d="M 11.703125 6.515625 L 12.496094 6.515625 L 12.496094 6.917969 "/>
<path style=" stroke:none;fill-rule:nonzero;fill:rgb(96.862745%,81.960784%,8.627451%);fill-opacity:1;" d="M 12.457031 5.964844 L 12.214844 6.726562 L 12.589844 6.847656 "/>
<path style=" stroke:none;fill-rule:nonzero;fill:rgb(96.862745%,81.960784%,8.627451%);fill-opacity:1;" d="M 12.457031 5.964844 L 12.703125 6.726562 L 12.328125 6.847656 "/>
<path style=" stroke:none;fill-rule:nonzero;fill:rgb(96.862745%,81.960784%,8.627451%);fill-opacity:1;" d="M 13.214844 6.515625 L 12.421875 6.515625 L 12.421875 6.917969 "/>
<path style=" stroke:none;fill-rule:nonzero;fill:rgb(96.862745%,81.960784%,8.627451%);fill-opacity:1;" d="M 13.214844 6.515625 L 12.570312 6.988281 L 12.339844 6.664062 "/>
<path style=" stroke:none;fill-rule:nonzero;fill:rgb(96.862745%,81.960784%,8.627451%);fill-opacity:1;" d="M 12.925781 7.410156 L 12.679688 6.648438 L 12.300781 6.773438 "/>
<path style=" stroke:none;fill-rule:nonzero;fill:rgb(96.862745%,81.960784%,8.627451%);fill-opacity:1;" d="M 12.925781 7.410156 L 12.28125 6.941406 L 12.515625 6.617188 "/>
<path style=" stroke:none;fill-rule:nonzero;fill:rgb(96.862745%,81.960784%,8.627451%);fill-opacity:1;" d="M 5.59375 8.515625 L 6.234375 8.988281 L 6.46875 8.664062 "/>
<path style=" stroke:none;fill-rule:nonzero;fill:rgb(96.862745%,81.960784%,8.627451%);fill-opacity:1;" d="M 5.59375 8.515625 L 6.386719 8.515625 L 6.386719 8.917969 "/>
<path style=" stroke:none;fill-rule:nonzero;fill:rgb(96.862745%,81.960784%,8.627451%);fill-opacity:1;" d="M 6.347656 7.964844 L 6.101562 8.726562 L 6.480469 8.847656 "/>
<path style=" stroke:none;fill-rule:nonzero;fill:rgb(96.862745%,81.960784%,8.627451%);fill-opacity:1;" d="M 6.347656 7.964844 L 6.59375 8.726562 L 6.214844 8.847656 "/>
<path style=" stroke:none;fill-rule:nonzero;fill:rgb(96.862745%,81.960784%,8.627451%);fill-opacity:1;" d="M 7.105469 8.515625 L 6.308594 8.515625 L 6.308594 8.917969 "/>
<path style=" stroke:none;fill-rule:nonzero;fill:rgb(96.862745%,81.960784%,8.627451%);fill-opacity:1;" d="M 7.105469 8.515625 L 6.460938 8.988281 L 6.226562 8.664062 "/>
<path style=" stroke:none;fill-rule:nonzero;fill:rgb(96.862745%,81.960784%,8.627451%);fill-opacity:1;" d="M 6.816406 9.410156 L 6.570312 8.648438 L 6.191406 8.773438 "/>
<path style=" stroke:none;fill-rule:nonzero;fill:rgb(96.862745%,81.960784%,8.627451%);fill-opacity:1;" d="M 6.816406 9.410156 L 6.171875 8.941406 L 6.40625 8.617188 "/>
<path style=" stroke:none;fill-rule:nonzero;fill:rgb(96.862745%,81.960784%,8.627451%);fill-opacity:1;" d="M 5.882812 9.410156 L 6.523438 8.941406 L 6.292969 8.617188 "/>
<path style=" stroke:none;fill-rule:nonzero;fill:rgb(96.862745%,81.960784%,8.627451%);fill-opacity:1;" d="M 5.882812 9.410156 L 6.128906 8.648438 L 6.503906 8.773438 "/>
<path style=" stroke:none;fill-rule:nonzero;fill:rgb(96.862745%,81.960784%,8.627451%);fill-opacity:1;" d="M 13.144531 10.988281 L 13.789062 11.460938 L 14.023438 11.136719 "/>
<path style=" stroke:none;fill-rule:nonzero;fill:rgb(96.862745%,81.960784%,8.627451%);fill-opacity:1;" d="M 13.144531 10.988281 L 13.941406 10.988281 L 13.941406 11.390625 "/>
<path style=" stroke:none;fill-rule:nonzero;fill:rgb(96.862745%,81.960784%,8.627451%);fill-opacity:1;" d="M 13.902344 10.4375 L 13.65625 11.195312 L 14.035156 11.320312 "/>
<path style=" stroke:none;fill-rule:nonzero;fill:rgb(96.862745%,81.960784%,8.627451%);fill-opacity:1;" d="M 13.902344 10.4375 L 14.148438 11.195312 L 13.769531 11.320312 "/>
<path style=" stroke:none;fill-rule:nonzero;fill:rgb(96.862745%,81.960784%,8.627451%);fill-opacity:1;" d="M 14.65625 10.988281 L 13.863281 10.988281 L 13.863281 11.390625 "/>
<path style=" stroke:none;fill-rule:nonzero;fill:rgb(96.862745%,81.960784%,8.627451%);fill-opacity:1;" d="M 14.65625 10.988281 L 14.015625 11.460938 L 13.78125 11.136719 "/>
<path style=" stroke:none;fill-rule:nonzero;fill:rgb(96.862745%,81.960784%,8.627451%);fill-opacity:1;" d="M 14.367188 11.882812 L 14.121094 11.121094 L 13.746094 11.246094 "/>
<path style=" stroke:none;fill-rule:nonzero;fill:rgb(96.862745%,81.960784%,8.627451%);fill-opacity:1;" d="M 14.367188 11.882812 L 13.726562 11.414062 L 13.957031 11.089844 "/>
<path style=" stroke:none;fill-rule:nonzero;fill:rgb(96.862745%,81.960784%,8.627451%);fill-opacity:1;" d="M 13.433594 11.882812 L 14.078125 11.414062 L 13.84375 11.089844 "/>
<path style=" stroke:none;fill-rule:nonzero;fill:rgb(96.862745%,81.960784%,8.627451%);fill-opacity:1;" d="M 13.433594 11.882812 L 13.679688 11.121094 L 14.058594 11.246094 "/>
</g>
</svg>
