<?xml version="1.0" encoding="UTF-8"?>
<svg xmlns="http://www.w3.org/2000/svg" xmlns:xlink="http://www.w3.org/1999/xlink" width="24px" height="16px" viewBox="0 0 32 16" version="1.1">
<g id="surface1">
<rect x="0" y="0" width="32" height="16" style="fill:rgb(0%,12.941176%,67.843137%);fill-opacity:1;stroke:none;"/>
<path style=" stroke:none;fill-rule:nonzero;fill:rgb(10.980392%,54.117647%,25.882353%);fill-opacity:1;" d="M 0 0 L 32 0 L 32 16 Z M 0 0 "/>
<path style=" stroke:none;fill-rule:nonzero;fill:rgb(100%,77.647059%,22.352941%);fill-opacity:1;" d="M 18.890625 8 C 18.890625 9.597656 17.597656 10.890625 16 10.890625 C 14.402344 10.890625 13.109375 9.597656 13.109375 8 C 13.109375 6.402344 14.402344 5.109375 16 5.109375 C 17.597656 5.109375 18.890625 6.402344 18.890625 8 Z M 18.890625 8 "/>
<path style=" stroke:none;fill-rule:nonzero;fill:rgb(10.980392%,54.117647%,25.882353%);fill-opacity:1;" d="M 14.234375 6.703125 C 14.433594 6.972656 14.730469 7.429688 14.972656 7.308594 C 15.160156 7.308594 15.257812 7.324219 15.285156 7.449219 C 15.726562 7.523438 16.472656 7.335938 16.9375 6.730469 C 16.9375 6.730469 16.976562 6.738281 16.960938 6.507812 C 16.964844 6.40625 17.097656 6.429688 17.101562 6.460938 C 17.121094 6.511719 17.117188 6.546875 17.144531 6.546875 C 17.199219 6.53125 17.277344 6.402344 17.34375 6.320312 C 17.359375 6.285156 17.351562 6.246094 17.355469 6.203125 C 17.390625 6.117188 17.476562 6.136719 17.496094 6.179688 C 17.511719 6.207031 17.511719 6.230469 17.527344 6.257812 C 17.613281 6.316406 17.773438 6.261719 17.785156 6.261719 C 17.800781 6.191406 17.847656 6.199219 17.847656 6.199219 C 17.902344 6.183594 17.882812 6.191406 17.917969 6.210938 C 17.886719 6.59375 17.996094 6.613281 17.984375 6.808594 C 17.988281 7.027344 17.917969 7.089844 17.917969 7.175781 C 17.941406 7.277344 18.265625 7.28125 18.152344 7.367188 C 18.050781 7.421875 18.152344 7.523438 18 7.5625 C 17.5625 7.785156 17.476562 7.976562 17.476562 7.976562 C 17.476562 7.976562 17.367188 8.183594 17.355469 8.183594 C 17.28125 8.324219 17.1875 8.246094 17.136719 8.3125 C 17.109375 8.398438 17.082031 8.589844 17.132812 8.6875 C 17.160156 8.820312 17.128906 8.894531 17.097656 9.03125 C 17.070312 9.3125 16.957031 9.351562 16.945312 9.453125 C 16.894531 9.558594 16.957031 10.054688 16.90625 10.054688 C 16.578125 10.058594 16.328125 9.992188 16.199219 9.964844 C 16.324219 9.421875 16.277344 8.945312 16.277344 8.894531 C 16.246094 8.507812 15.695312 8.601562 15.609375 8.550781 C 15.539062 8.535156 15.496094 8.476562 15.472656 8.453125 C 15.394531 8.445312 15.367188 8.425781 15.289062 8.417969 C 15.25 8.4375 15.273438 8.457031 15.1875 8.484375 C 14.964844 8.511719 14.871094 8.292969 14.871094 8.292969 C 14.878906 8.21875 14.375 8.308594 14.101562 8.246094 C 13.992188 8.308594 13.941406 8.492188 13.847656 8.515625 C 13.847656 8.570312 13.699219 8.46875 13.667969 8.410156 C 13.660156 8.246094 13.8125 8.175781 13.8125 8.175781 C 13.929688 8.089844 14 8.078125 14.058594 8.019531 C 14.085938 7.875 14.070312 7.769531 14.132812 7.664062 C 14.183594 7.582031 14.261719 7.621094 14.3125 7.582031 C 14.367188 7.546875 14.390625 7.304688 14.339844 7.238281 C 14.339844 7.238281 14.117188 7.039062 14.105469 7.027344 C 14.035156 6.820312 14.191406 6.6875 14.234375 6.703125 Z M 14.234375 6.703125 "/>
<path style=" stroke:none;fill-rule:nonzero;fill:rgb(100%,77.647059%,22.352941%);fill-opacity:1;" d="M 28.09375 3.121094 C 27.960938 2.605469 26.789062 1.488281 25.910156 0.777344 C 25.699219 0.632812 25.5625 0.71875 25.589844 0.921875 C 25.699219 1.105469 25.78125 1.308594 25.890625 1.492188 C 25.921875 1.613281 25.980469 1.699219 26.011719 1.820312 C 26.011719 1.820312 26.019531 2.03125 26.039062 2.046875 C 26.3125 2.351562 26.347656 2.605469 26.347656 2.605469 C 26.507812 2.910156 26.648438 3.132812 26.925781 3.382812 C 27.234375 3.578125 27.007812 4.183594 27.015625 4.507812 C 27.015625 4.710938 26.871094 4.6875 26.742188 4.664062 C 25.734375 3.738281 24.734375 3.734375 23.851562 3.464844 C 23.507812 3.429688 23.5 3.59375 23.613281 3.683594 C 24.230469 4.34375 24.808594 4.792969 25.570312 5.167969 C 25.699219 5.246094 25.828125 5.324219 25.957031 5.40625 C 26.101562 5.527344 26.25 5.648438 26.394531 5.769531 C 26.734375 5.988281 26.761719 6.191406 26.761719 6.207031 C 26.769531 6.621094 26.550781 6.941406 26.484375 7.070312 C 26.371094 7.503906 26.136719 7.582031 26.136719 7.582031 C 24.253906 8.851562 23.265625 9.179688 20.210938 8.789062 C 20.167969 8.761719 19.875 8.8125 20.210938 8.933594 C 20.988281 9.191406 22.898438 9.609375 24.746094 8.734375 C 25.191406 8.421875 25.488281 8.523438 25.808594 8.339844 C 26.335938 8.011719 27.089844 7.609375 27.226562 7.5625 C 27.636719 7.34375 28.789062 7.097656 29.054688 6.875 C 29.359375 6.851562 29.675781 6.8125 29.699219 6.550781 C 29.796875 6.484375 29.945312 6.53125 30.050781 6.320312 C 30.292969 6.277344 30.253906 6.191406 30.253906 6.191406 C 30.191406 6.019531 29.96875 5.949219 29.804688 5.824219 C 29.566406 5.746094 29.402344 5.722656 29.230469 5.804688 C 29.175781 5.832031 29.121094 5.855469 29.066406 5.878906 C 29.066406 5.878906 28.808594 5.84375 28.808594 5.824219 C 28.238281 5.792969 28.296875 3.90625 28.09375 3.121094 Z M 28.09375 3.121094 "/>
<path style=" stroke:none;fill-rule:nonzero;fill:rgb(10.980392%,54.117647%,25.882353%);fill-opacity:1;" d="M 29.429688 6.207031 C 29.410156 6.253906 29.339844 6.273438 29.265625 6.25 C 29.191406 6.226562 29.144531 6.167969 29.160156 6.125 C 29.175781 6.078125 29.25 6.058594 29.324219 6.082031 C 29.398438 6.105469 29.445312 6.164062 29.429688 6.207031 Z M 29.429688 6.207031 "/>
<path style=" stroke:none;fill-rule:nonzero;fill:rgb(100%,100%,100%);fill-opacity:1;" d="M 6.019531 6.109375 L 5.613281 5.726562 L 5.199219 6.105469 L 5.246094 5.546875 L 4.691406 5.460938 L 5.15625 5.148438 L 4.878906 4.660156 L 5.414062 4.828125 L 5.621094 4.308594 L 5.824219 4.832031 L 6.359375 4.671875 L 6.078125 5.152344 L 6.539062 5.472656 L 5.984375 5.550781 Z M 6.019531 6.109375 "/>
<path style=" stroke:none;fill-rule:nonzero;fill:rgb(100%,100%,100%);fill-opacity:1;" d="M 7.46875 10.738281 L 7.027344 10.445312 L 6.601562 10.753906 L 6.75 10.253906 L 6.316406 9.953125 L 6.847656 9.9375 L 7.007812 9.441406 L 7.1875 9.933594 L 7.722656 9.929688 L 7.296875 10.246094 Z M 7.46875 10.738281 "/>
<path style=" stroke:none;fill-rule:nonzero;fill:rgb(100%,100%,100%);fill-opacity:1;" d="M 6.101562 14.71875 L 5.695312 14.339844 L 5.28125 14.714844 L 5.324219 14.15625 L 4.773438 14.070312 L 5.238281 13.757812 L 4.960938 13.269531 L 5.496094 13.4375 L 5.703125 12.917969 L 5.90625 13.441406 L 6.441406 13.28125 L 6.160156 13.761719 L 6.617188 14.082031 L 6.066406 14.164062 Z M 6.101562 14.71875 "/>
<path style=" stroke:none;fill-rule:nonzero;fill:rgb(100%,100%,100%);fill-opacity:1;" d="M 2.433594 10.054688 L 2.027344 9.671875 L 1.613281 10.046875 L 1.660156 9.492188 L 1.105469 9.402344 L 1.570312 9.089844 L 1.292969 8.605469 L 1.828125 8.769531 L 2.035156 8.253906 L 2.238281 8.773438 L 2.773438 8.613281 L 2.492188 9.097656 L 2.949219 9.414062 L 2.398438 9.496094 Z M 2.433594 10.054688 "/>
<path style=" stroke:none;fill-rule:nonzero;fill:rgb(100%,100%,100%);fill-opacity:1;" d="M 9.492188 8.832031 L 9.082031 8.449219 L 8.667969 8.824219 L 8.714844 8.269531 L 8.164062 8.179688 L 8.625 7.867188 L 8.351562 7.382812 L 8.882812 7.546875 L 9.09375 7.03125 L 9.292969 7.550781 L 9.828125 7.390625 L 9.546875 7.875 L 10.007812 8.191406 L 9.453125 8.273438 Z M 9.492188 8.832031 "/>
</g>
</svg>
