<?xml version="1.0" encoding="UTF-8"?>
<svg xmlns="http://www.w3.org/2000/svg" xmlns:xlink="http://www.w3.org/1999/xlink" width="24px" height="16px" viewBox="0 0 24 16" version="1.1">
<g id="surface1">
<rect x="0" y="0" width="24" height="16" style="fill:rgb(100%,100%,100%);fill-opacity:1;stroke:none;"/>
<path style=" stroke:none;fill-rule:nonzero;fill:rgb(30.588235%,35.686275%,19.215686%);fill-opacity:1;" d="M 12.347656 13.511719 C 8.617188 13.515625 5.589844 10.492188 5.589844 6.761719 C 5.585938 3.027344 8.609375 0 12.34375 0 L 12.339844 -0.00390625 C 12.652344 -0.0117188 12.914062 0.226562 12.929688 0.539062 C 12.949219 0.851562 12.710938 1.121094 12.398438 1.144531 C 12.085938 1.164062 11.816406 0.933594 11.785156 0.621094 C 11.757812 0.3125 11.984375 0.0351562 12.296875 0 C 12.261719 -0.0390625 12.210938 -0.0976562 12.171875 -0.152344 C 12.085938 -0.253906 12.019531 -0.34375 12.007812 -0.359375 L 11.984375 -0.386719 L 11.777344 -0.453125 L 11.625 -0.523438 L 11.707031 -0.613281 L 11.984375 -0.496094 L 12.191406 -0.453125 L 12.574219 -0.171875 C 12.574219 -0.171875 12.519531 -0.125 12.464844 -0.0742188 C 12.441406 -0.0507812 12.410156 -0.0234375 12.386719 0 C 12.378906 0.0078125 12.371094 0.0195312 12.363281 0.03125 C 12.371094 0.0195312 12.378906 0.0078125 12.386719 0 M 10.964844 -0.425781 C 11.246094 -0.886719 11.828125 -1.0625 12.316406 -0.828125 C 12.804688 -0.597656 13.039062 -0.0390625 12.863281 0.472656 C 12.6875 0.980469 12.152344 1.277344 11.628906 1.15625 C 11.101562 1.035156 10.75 0.535156 10.816406 0 C 10.714844 -0.113281 10.726562 -0.285156 10.839844 -0.386719 C 10.953125 -0.484375 11.128906 -0.472656 11.226562 -0.359375 C 11.324219 -0.246094 11.3125 -0.0742188 11.199219 0.0273438 C 11.085938 0.125 10.914062 0.113281 10.816406 0 C 10.867188 -0.0390625 10.960938 -0.0820312 11.113281 -0.0859375 C 11.292969 -0.0859375 11.511719 -0.0234375 11.765625 0.0976562 C 11.320312 0.359375 10.75 0.226562 10.46875 -0.203125 C 10.1875 -0.636719 10.296875 -1.210938 10.714844 -1.511719 C 11.132812 -1.808594 11.714844 -1.726562 12.03125 -1.324219 C 12.347656 -0.917969 12.289062 -0.335938 11.898438 0 Z M 10.179688 -0.601562 C 10.347656 -0.589844 10.472656 -0.449219 10.464844 -0.28125 C 10.453125 -0.117188 10.3125 0.0117188 10.144531 0 C 10.3125 -0.113281 10.535156 -0.078125 10.664062 0.0742188 C 10.792969 0.226562 10.78125 0.453125 10.644531 0.597656 C 10.503906 0.742188 10.277344 0.753906 10.121094 0.632812 C 9.964844 0.507812 9.925781 0.285156 10.03125 0.117188 L 10.035156 0.117188 C 10.101562 0.117188 10.15625 0.171875 10.179688 0.230469 C 10.15625 0.179688 10.175781 0.121094 10.222656 0.0898438 C 10.269531 0.0625 10.328125 0.0664062 10.367188 0.105469 C 10.40625 0.144531 10.414062 0.207031 10.382812 0.253906 C 10.351562 0.296875 10.292969 0.316406 10.242188 0.296875 Z M 11.558594 -0.761719 C 11.097656 -0.828125 10.898438 -0.992188 10.816406 -1.121094 C 11.207031 -1.050781 11.464844 -0.671875 11.394531 -0.28125 C 11.320312 0.109375 10.941406 0.367188 10.550781 0.296875 C 10.574219 0.289062 10.597656 0.289062 10.621094 0.289062 C 10.746094 0.289062 11.058594 0.347656 11.363281 0.921875 Z M 10.609375 -0.851562 C 10.414062 -0.851562 10.261719 -0.886719 10.164062 -0.953125 C 10.269531 -1.03125 10.414062 -1.023438 10.511719 -0.933594 C 10.605469 -0.84375 10.625 -0.699219 10.558594 -0.589844 C 10.488281 -0.476562 10.351562 -0.429688 10.230469 -0.472656 C 10.105469 -0.519531 10.03125 -0.644531 10.050781 -0.773438 L 10.65625 -0.167969 C 10.667969 -0.167969 10.679688 -0.167969 10.6875 -0.167969 C 10.84375 -0.167969 11.074219 -0.117188 11.320312 0.117188 C 11.140625 1.40625 9.972656 2.316406 8.683594 2.175781 C 7.394531 2.035156 6.445312 0.894531 6.546875 -0.398438 C 6.648438 -1.691406 7.761719 -2.671875 9.058594 -2.609375 C 10.351562 -2.546875 11.367188 -1.464844 11.34375 -0.167969 Z M 9.652344 -0.890625 C 9.445312 -0.890625 9.15625 -0.953125 8.980469 -1.132812 C 9.246094 1.660156 7.199219 4.140625 4.40625 4.40625 C 1.613281 4.671875 -0.867188 2.625 -1.132812 -0.167969 C -1.117188 -0.167969 -1.105469 -0.167969 -1.09375 -0.167969 C -0.898438 -0.167969 -0.746094 -0.128906 -0.648438 -0.0546875 C -0.675781 -0.113281 -0.65625 -0.183594 -0.605469 -0.222656 C -0.554688 -0.257812 -0.480469 -0.253906 -0.433594 -0.207031 C -0.390625 -0.160156 -0.382812 -0.0898438 -0.421875 -0.0390625 C -0.457031 0.015625 -0.527344 0.03125 -0.585938 0.00390625 C -0.632812 0.0390625 -0.710938 0.0585938 -0.824219 0.0585938 L -0.839844 0.0585938 Z M 8.976562 -1.234375 C 9.015625 -1.242188 9.050781 -1.222656 9.066406 -1.1875 C 9.085938 -1.152344 9.078125 -1.113281 9.046875 -1.085938 C 9.019531 -1.0625 8.976562 -1.058594 8.945312 -1.078125 L 9.328125 -0.699219 C 9.335938 -0.703125 9.347656 -0.707031 9.359375 -0.707031 C 9.410156 -0.757812 9.492188 -0.757812 9.542969 -0.707031 C 9.597656 -0.65625 9.597656 -0.570312 9.542969 -0.519531 L 9.542969 -0.488281 C 9.539062 -0.472656 9.519531 -0.460938 9.496094 -0.457031 Z M 10.539062 -1.269531 C 10.589844 -1.296875 10.65625 -1.28125 10.6875 -1.230469 C 10.71875 -1.179688 10.703125 -1.113281 10.65625 -1.078125 C 10.605469 -1.042969 10.539062 -1.054688 10.5 -1.097656 L 10.894531 -0.707031 L 11.011719 -0.707031 C 11.078125 -0.707031 11.132812 -0.648438 11.152344 -0.59375 C 11.132812 -0.644531 11.152344 -0.703125 11.199219 -0.734375 C 11.242188 -0.761719 11.304688 -0.757812 11.34375 -0.71875 C 11.382812 -0.679688 11.386719 -0.617188 11.359375 -0.570312 C 11.328125 -0.527344 11.269531 -0.507812 11.21875 -0.527344 Z M 9.777344 -1.300781 C 9.359375 -1.316406 9.140625 -1.4375 9.03125 -1.535156 C 9.199219 -1.699219 9.460938 -1.71875 9.65625 -1.582031 C 9.847656 -1.445312 9.914062 -1.191406 9.8125 -0.976562 C 9.714844 -0.765625 9.476562 -0.652344 9.246094 -0.714844 C 9.019531 -0.773438 8.867188 -0.988281 8.886719 -1.222656 C 9.070312 -1.300781 9.28125 -1.21875 9.355469 -1.035156 C 9.433594 -0.851562 9.351562 -0.640625 9.167969 -0.5625 C 8.988281 -0.484375 8.777344 -0.570312 8.699219 -0.75 C 8.621094 -0.933594 8.703125 -1.144531 8.886719 -1.222656 L 8.894531 -1.222656 C 9.035156 -1.222656 9.324219 -1.164062 9.664062 -0.765625 Z M 10.234375 -1.34375 C 9.894531 -1.394531 9.703125 -1.542969 9.601562 -1.652344 C 9.835938 -1.847656 10.171875 -1.851562 10.410156 -1.667969 C 10.648438 -1.484375 10.726562 -1.15625 10.597656 -0.882812 C 10.46875 -0.609375 10.167969 -0.460938 9.875 -0.527344 C 9.578125 -0.59375 9.371094 -0.855469 9.371094 -1.15625 C 9.375 -1.15625 9.378906 -1.15625 9.382812 -1.15625 C 9.390625 -1.15625 9.394531 -1.15625 9.398438 -1.15625 C 9.570312 -1.152344 9.878906 -1.078125 10.035156 -0.601562 Z M 8.5 -1.507812 C 8.667969 -2.179688 9.324219 -2.605469 10.007812 -2.484375 C 10.6875 -2.363281 11.160156 -1.734375 11.085938 -1.046875 C 11.007812 -0.359375 10.414062 0.152344 9.722656 0.125 C 9.03125 0.09375 8.480469 -0.464844 8.460938 -1.15625 C 8.285156 -1.203125 8.207031 -1.269531 8.175781 -1.316406 C 8.242188 -1.363281 8.328125 -1.359375 8.390625 -1.304688 C 8.449219 -1.253906 8.460938 -1.164062 8.421875 -1.097656 C 8.378906 -1.027344 8.296875 -0.996094 8.222656 -1.023438 C 8.144531 -1.046875 8.097656 -1.125 8.109375 -1.203125 C 8.738281 -1.425781 9.425781 -1.097656 9.648438 -0.46875 C 9.871094 0.15625 9.542969 0.847656 8.914062 1.070312 C 8.289062 1.292969 7.597656 0.964844 7.375 0.335938 C 7.152344 -0.289062 7.480469 -0.980469 8.109375 -1.203125 C 8.113281 -1.203125 8.121094 -1.203125 8.128906 -1.203125 C 7.949219 -1.71875 8.152344 -2.285156 8.613281 -2.574219 C 9.074219 -2.863281 9.675781 -2.792969 10.058594 -2.410156 C 10.441406 -2.027344 10.511719 -1.425781 10.222656 -0.964844 C 9.933594 -0.503906 9.367188 -0.300781 8.851562 -0.480469 C 8.125 -0.484375 7.539062 -1.078125 7.539062 -1.804688 C 7.539062 -2.53125 8.125 -3.121094 8.855469 -3.125 C 9.582031 -3.132812 10.175781 -2.546875 10.1875 -1.820312 C 10.195312 -1.09375 9.617188 -0.496094 8.890625 -0.480469 Z M 9.285156 -1.792969 C 9.335938 -1.820312 9.402344 -1.800781 9.433594 -1.75 C 9.464844 -1.699219 9.449219 -1.632812 9.402344 -1.597656 C 9.351562 -1.566406 9.285156 -1.574219 9.25 -1.617188 L 9.632812 -1.234375 L 9.75 -1.234375 C 9.816406 -1.234375 9.871094 -1.175781 9.894531 -1.117188 C 9.875 -1.167969 9.890625 -1.226562 9.9375 -1.253906 C 9.980469 -1.285156 10.039062 -1.28125 10.078125 -1.242188 C 10.117188 -1.203125 10.125 -1.144531 10.09375 -1.097656 C 10.0625 -1.054688 10.007812 -1.035156 9.957031 -1.054688 Z M 8.695312 -1.871094 C 8.992188 -2.425781 9.648438 -2.679688 10.246094 -2.476562 C 10.839844 -2.269531 11.199219 -1.664062 11.09375 -1.042969 C 10.984375 -0.421875 10.445312 0.03125 9.816406 0.0273438 C 9.1875 0.0234375 8.652344 -0.433594 8.554688 -1.054688 C 8.40625 -1.148438 8.226562 -1.308594 8.203125 -1.558594 C 8.34375 1.136719 6.269531 3.433594 3.574219 3.574219 C 0.878906 3.710938 -1.417969 1.640625 -1.558594 -1.054688 C -1.554688 -1.054688 -1.550781 -1.054688 -1.550781 -1.054688 C -1.503906 -1.054688 -1.414062 -1.042969 -1.304688 -0.960938 C -1.167969 -0.855469 -1.039062 -0.667969 -0.921875 -0.410156 Z M 9.078125 -1.886719 C 9.535156 -2.183594 10.144531 -2.074219 10.472656 -1.640625 C 10.800781 -1.207031 10.738281 -0.59375 10.332031 -0.230469 C 9.921875 0.128906 9.304688 0.113281 8.917969 -0.265625 L 9.121094 -0.0625 C 9.1875 -0.0585938 9.285156 -0.03125 9.394531 0.0859375 C 9.515625 0.21875 9.628906 0.441406 9.722656 0.742188 Z M 8.082031 -1.914062 C 7.953125 -1.914062 7.910156 -1.984375 7.894531 -2.015625 C 8.4375 -1.988281 8.851562 -1.527344 8.824219 -0.988281 C 8.796875 -0.449219 8.335938 -0.0351562 7.796875 -0.0625 C 7.796875 -0.21875 7.925781 -0.34375 8.082031 -0.34375 C 8.238281 -0.34375 8.363281 -0.21875 8.363281 -0.0625 C 8.363281 0.09375 8.238281 0.222656 8.082031 0.222656 C 7.925781 0.222656 7.796875 0.09375 7.796875 -0.0625 L 7.800781 -0.0625 C 7.949219 -0.0585938 8.066406 0.0585938 8.0625 0.203125 C 8.0625 0.351562 7.945312 0.46875 7.800781 0.46875 C 7.652344 0.46875 7.535156 0.351562 7.535156 0.203125 C 7.535156 0.0585938 7.652344 -0.0585938 7.796875 -0.0625 C 7.804688 -0.0507812 7.824219 -0.015625 7.808594 0.0117188 C 7.792969 0.03125 7.761719 0.0429688 7.714844 0.0429688 Z M 7.761719 11.238281 C 4.640625 11.246094 2.105469 8.722656 2.097656 5.601562 C 2.089844 2.480469 4.613281 -0.0546875 7.734375 -0.0625 C 7.621094 -0.0820312 7.554688 -0.179688 7.519531 -0.257812 C 7.792969 -0.476562 8.191406 -0.453125 8.4375 -0.199219 C 8.679688 0.0507812 8.695312 0.449219 8.464844 0.714844 C 8.238281 0.984375 7.84375 1.035156 7.558594 0.832031 C 7.269531 0.632812 7.179688 0.246094 7.355469 -0.0625 C 7.707031 -0.0507812 7.875 0.0546875 7.953125 0.136719 C 7.898438 2.296875 6.105469 4 3.945312 3.945312 C 1.789062 3.890625 0.0820312 2.097656 0.136719 -0.0625 C 0.136719 -0.0625 0.0859375 -0.0546875 0.0117188 -0.0546875 Z M 8.128906 10.871094 C 5.109375 10.902344 2.636719 8.480469 2.605469 5.460938 C 2.574219 2.441406 4.996094 -0.03125 8.015625 -0.0625 C 7.972656 -0.125 7.933594 -0.195312 7.933594 -0.25 C 7.933594 -0.304688 7.921875 -0.417969 7.914062 -0.480469 C 7.90625 -0.558594 7.894531 -0.628906 7.894531 -0.632812 C 7.90625 -0.628906 8.117188 -0.550781 8.117188 -0.351562 C 8.117188 -0.152344 8.097656 0.0507812 8.097656 0.0507812 Z M 7.851562 10.851562 C 7.851562 10.851562 7.847656 10.851562 7.847656 10.851562 C 7.785156 10.839844 7.671875 10.792969 7.550781 10.722656 C 7.414062 10.644531 7.304688 10.5625 7.242188 10.488281 C 7.183594 10.421875 7.148438 10.316406 7.136719 10.175781 C 6.726562 9.703125 6.761719 8.988281 7.21875 8.558594 C 7.675781 8.132812 8.390625 8.144531 8.835938 8.585938 C 9.277344 9.03125 9.289062 9.746094 8.863281 10.203125 C 8.433594 10.660156 7.71875 10.699219 7.25 10.285156 C 7.296875 10.285156 7.34375 10.308594 7.414062 10.351562 C 8.144531 9.621094 9.332031 9.621094 10.0625 10.351562 C 10.796875 11.085938 10.796875 12.273438 10.0625 13.003906 L 10.066406 13.003906 C 10.070312 13.015625 10.132812 13.125 10.179688 13.234375 C 10.117188 12.390625 10.75 11.65625 11.589844 11.589844 C 12.433594 11.527344 13.167969 12.160156 13.234375 13.003906 C 13.238281 13.019531 13.238281 13.035156 13.234375 13.050781 C 13.21875 13.046875 13.210938 13.035156 13.214844 13.019531 C 13.21875 13.007812 13.230469 13 13.246094 13.003906 C 13.242188 13.003906 13.238281 13.007812 13.234375 13.007812 Z M 7.851562 10.851562 "/>
<path style=" stroke:none;fill-rule:nonzero;fill:rgb(30.588235%,35.686275%,19.215686%);fill-opacity:1;" d="M 11.652344 13.511719 C 15.382812 13.515625 18.410156 10.492188 18.410156 6.761719 C 18.414062 3.027344 15.390625 0 11.65625 0 L 11.660156 -0.00390625 C 11.347656 -0.0117188 11.085938 0.226562 11.070312 0.539062 C 11.050781 0.851562 11.289062 1.121094 11.601562 1.144531 C 11.914062 1.164062 12.183594 0.933594 12.214844 0.621094 C 12.242188 0.3125 12.015625 0.0351562 11.703125 0 C 11.738281 -0.0390625 11.789062 -0.0976562 11.828125 -0.152344 C 11.914062 -0.253906 11.980469 -0.34375 11.992188 -0.359375 L 12.015625 -0.386719 L 12.222656 -0.453125 L 12.375 -0.523438 L 12.292969 -0.613281 L 12.015625 -0.496094 L 11.808594 -0.453125 L 11.425781 -0.171875 C 11.425781 -0.171875 11.480469 -0.125 11.535156 -0.0742188 C 11.558594 -0.0507812 11.589844 -0.0234375 11.613281 0 C 11.621094 0.0078125 11.628906 0.0195312 11.636719 0.03125 C 11.628906 0.0195312 11.621094 0.0078125 11.613281 0 M 13.035156 -0.425781 C 12.753906 -0.886719 12.171875 -1.0625 11.683594 -0.828125 C 11.195312 -0.597656 10.960938 -0.0390625 11.136719 0.472656 C 11.3125 0.980469 11.847656 1.277344 12.371094 1.15625 C 12.898438 1.035156 13.25 0.535156 13.183594 0 C 13.285156 -0.113281 13.273438 -0.285156 13.160156 -0.386719 C 13.046875 -0.484375 12.871094 -0.472656 12.773438 -0.359375 C 12.675781 -0.246094 12.6875 -0.0742188 12.800781 0.0273438 C 12.914062 0.125 13.085938 0.113281 13.183594 0 C 13.132812 -0.0390625 13.039062 -0.0820312 12.886719 -0.0859375 C 12.707031 -0.0859375 12.488281 -0.0234375 12.234375 0.0976562 C 12.679688 0.359375 13.25 0.226562 13.53125 -0.203125 C 13.8125 -0.636719 13.703125 -1.210938 13.285156 -1.511719 C 12.867188 -1.808594 12.285156 -1.726562 11.96875 -1.324219 C 11.652344 -0.917969 11.710938 -0.335938 12.101562 0 Z M 13.820312 -0.601562 C 13.652344 -0.589844 13.527344 -0.449219 13.535156 -0.28125 C 13.546875 -0.117188 13.6875 0.0117188 13.855469 0 C 13.6875 -0.113281 13.464844 -0.078125 13.335938 0.0742188 C 13.207031 0.226562 13.21875 0.453125 13.355469 0.597656 C 13.496094 0.742188 13.722656 0.753906 13.878906 0.632812 C 14.035156 0.507812 14.074219 0.285156 13.96875 0.117188 L 13.964844 0.117188 C 13.898438 0.117188 13.84375 0.171875 13.820312 0.230469 C 13.84375 0.179688 13.824219 0.121094 13.777344 0.0898438 C 13.730469 0.0625 13.671875 0.0664062 13.632812 0.105469 C 13.59375 0.144531 13.585938 0.207031 13.617188 0.253906 C 13.648438 0.296875 13.707031 0.316406 13.757812 0.296875 Z M 12.441406 -0.761719 C 12.902344 -0.828125 13.101562 -0.992188 13.183594 -1.121094 C 12.792969 -1.050781 12.535156 -0.671875 12.605469 -0.28125 C 12.679688 0.109375 13.058594 0.367188 13.449219 0.296875 C 13.425781 0.289062 13.402344 0.289062 13.378906 0.289062 C 13.253906 0.289062 12.941406 0.347656 12.636719 0.921875 Z M 13.390625 -0.851562 C 13.585938 -0.851562 13.738281 -0.886719 13.835938 -0.953125 C 13.730469 -1.03125 13.585938 -1.023438 13.488281 -0.933594 C 13.394531 -0.84375 13.375 -0.699219 13.441406 -0.589844 C 13.511719 -0.476562 13.648438 -0.429688 13.769531 -0.472656 C 13.894531 -0.519531 13.96875 -0.644531 13.949219 -0.773438 L 13.34375 -0.167969 C 13.332031 -0.167969 13.320312 -0.167969 13.3125 -0.167969 C 13.15625 -0.167969 12.925781 -0.117188 12.679688 0.117188 C 12.859375 1.40625 14.027344 2.316406 15.316406 2.175781 C 16.605469 2.035156 17.554688 0.894531 17.453125 -0.398438 C 17.351562 -1.691406 16.238281 -2.671875 14.941406 -2.609375 C 13.648438 -2.546875 12.632812 -1.464844 12.65625 -0.167969 Z M 14.347656 -0.890625 C 14.554688 -0.890625 14.84375 -0.953125 15.019531 -1.132812 C 14.753906 1.660156 16.800781 4.140625 19.59375 4.40625 C 22.386719 4.671875 24.867188 2.625 25.132812 -0.167969 C 25.117188 -0.167969 25.105469 -0.167969 25.09375 -0.167969 C 24.898438 -0.167969 24.746094 -0.128906 24.648438 -0.0546875 C 24.675781 -0.113281 24.65625 -0.183594 24.605469 -0.222656 C 24.554688 -0.257812 24.480469 -0.253906 24.433594 -0.207031 C 24.390625 -0.160156 24.382812 -0.0898438 24.421875 -0.0390625 C 24.457031 0.015625 24.527344 0.03125 24.585938 0.00390625 C 24.632812 0.0390625 24.710938 0.0585938 24.824219 0.0585938 L 24.839844 0.0585938 Z M 15.023438 -1.234375 C 14.984375 -1.242188 14.949219 -1.222656 14.933594 -1.1875 C 14.914062 -1.152344 14.921875 -1.113281 14.953125 -1.085938 C 14.980469 -1.0625 15.023438 -1.058594 15.054688 -1.078125 L 14.671875 -0.699219 C 14.664062 -0.703125 14.652344 -0.707031 14.640625 -0.707031 C 14.589844 -0.757812 14.507812 -0.757812 14.457031 -0.707031 C 14.402344 -0.65625 14.402344 -0.570312 14.457031 -0.519531 L 14.457031 -0.488281 C 14.460938 -0.472656 14.480469 -0.460938 14.503906 -0.457031 Z M 13.460938 -1.269531 C 13.410156 -1.296875 13.34375 -1.28125 13.3125 -1.230469 C 13.28125 -1.179688 13.296875 -1.113281 13.34375 -1.078125 C 13.394531 -1.042969 13.460938 -1.054688 13.5 -1.097656 L 13.105469 -0.707031 L 12.988281 -0.707031 C 12.921875 -0.707031 12.867188 -0.648438 12.847656 -0.59375 C 12.867188 -0.644531 12.847656 -0.703125 12.800781 -0.734375 C 12.757812 -0.761719 12.695312 -0.757812 12.65625 -0.71875 C 12.617188 -0.679688 12.613281 -0.617188 12.640625 -0.570312 C 12.671875 -0.527344 12.730469 -0.507812 12.78125 -0.527344 Z M 14.222656 -1.300781 C 14.640625 -1.316406 14.859375 -1.4375 14.96875 -1.535156 C 14.800781 -1.699219 14.539062 -1.71875 14.34375 -1.582031 C 14.152344 -1.445312 14.085938 -1.191406 14.1875 -0.976562 C 14.285156 -0.765625 14.523438 -0.652344 14.753906 -0.714844 C 14.980469 -0.773438 15.132812 -0.988281 15.113281 -1.222656 C 14.929688 -1.300781 14.71875 -1.21875 14.644531 -1.035156 C 14.566406 -0.851562 14.648438 -0.640625 14.832031 -0.5625 C 15.011719 -0.484375 15.222656 -0.570312 15.300781 -0.75 C 15.378906 -0.933594 15.296875 -1.144531 15.113281 -1.222656 L 15.105469 -1.222656 C 14.964844 -1.222656 14.675781 -1.164062 14.335938 -0.765625 Z M 13.765625 -1.34375 C 14.105469 -1.394531 14.296875 -1.542969 14.398438 -1.652344 C 14.164062 -1.847656 13.828125 -1.851562 13.589844 -1.667969 C 13.351562 -1.484375 13.273438 -1.15625 13.402344 -0.882812 C 13.53125 -0.609375 13.832031 -0.460938 14.125 -0.527344 C 14.421875 -0.59375 14.628906 -0.855469 14.628906 -1.15625 C 14.625 -1.15625 14.621094 -1.15625 14.617188 -1.15625 C 14.609375 -1.15625 14.605469 -1.15625 14.601562 -1.15625 C 14.429688 -1.152344 14.121094 -1.078125 13.964844 -0.601562 Z M 15.5 -1.507812 C 15.332031 -2.179688 14.675781 -2.605469 13.992188 -2.484375 C 13.3125 -2.363281 12.839844 -1.734375 12.914062 -1.046875 C 12.992188 -0.359375 13.585938 0.152344 14.277344 0.125 C 14.96875 0.09375 15.519531 -0.464844 15.539062 -1.15625 C 15.714844 -1.203125 15.792969 -1.269531 15.824219 -1.316406 C 15.757812 -1.363281 15.671875 -1.359375 15.609375 -1.304688 C 15.550781 -1.253906 15.539062 -1.164062 15.578125 -1.097656 C 15.621094 -1.027344 15.703125 -0.996094 15.777344 -1.023438 C 15.855469 -1.046875 15.902344 -1.125 15.890625 -1.203125 C 15.261719 -1.425781 14.574219 -1.097656 14.351562 -0.46875 C 14.128906 0.15625 14.457031 0.847656 15.085938 1.070312 C 15.710938 1.292969 16.402344 0.964844 16.625 0.335938 C 16.847656 -0.289062 16.519531 -0.980469 15.890625 -1.203125 C 15.886719 -1.203125 15.878906 -1.203125 15.871094 -1.203125 C 16.050781 -1.71875 15.847656 -2.285156 15.386719 -2.574219 C 14.925781 -2.863281 14.324219 -2.792969 13.941406 -2.410156 C 13.558594 -2.027344 13.488281 -1.425781 13.777344 -0.964844 C 14.066406 -0.503906 14.632812 -0.300781 15.148438 -0.480469 C 15.875 -0.484375 16.460938 -1.078125 16.460938 -1.804688 C 16.460938 -2.53125 15.875 -3.121094 15.144531 -3.125 C 14.417969 -3.132812 13.824219 -2.546875 13.8125 -1.820312 C 13.804688 -1.09375 14.382812 -0.496094 15.109375 -0.480469 Z M 14.714844 -1.792969 C 14.664062 -1.820312 14.597656 -1.800781 14.566406 -1.75 C 14.535156 -1.699219 14.550781 -1.632812 14.597656 -1.597656 C 14.648438 -1.566406 14.714844 -1.574219 14.75 -1.617188 L 14.367188 -1.234375 L 14.25 -1.234375 C 14.183594 -1.234375 14.128906 -1.175781 14.105469 -1.117188 C 14.125 -1.167969 14.109375 -1.226562 14.0625 -1.253906 C 14.019531 -1.285156 13.960938 -1.28125 13.921875 -1.242188 C 13.882812 -1.203125 13.875 -1.144531 13.90625 -1.097656 C 13.9375 -1.054688 13.992188 -1.035156 14.042969 -1.054688 Z M 15.304688 -1.871094 C 15.007812 -2.425781 14.351562 -2.679688 13.753906 -2.476562 C 13.160156 -2.269531 12.800781 -1.664062 12.90625 -1.042969 C 13.015625 -0.421875 13.554688 0.03125 14.183594 0.0273438 C 14.8125 0.0234375 15.347656 -0.433594 15.445312 -1.054688 C 15.59375 -1.148438 15.773438 -1.308594 15.796875 -1.558594 C 15.65625 1.136719 17.730469 3.433594 20.425781 3.574219 C 23.121094 3.710938 25.417969 1.640625 25.558594 -1.054688 C 25.554688 -1.054688 25.550781 -1.054688 25.550781 -1.054688 C 25.503906 -1.054688 25.414062 -1.042969 25.304688 -0.960938 C 25.167969 -0.855469 25.039062 -0.667969 24.921875 -0.410156 Z M 14.921875 -1.886719 C 14.464844 -2.183594 13.855469 -2.074219 13.527344 -1.640625 C 13.199219 -1.207031 13.261719 -0.59375 13.667969 -0.230469 C 14.078125 0.128906 14.695312 0.113281 15.082031 -0.265625 L 14.878906 -0.0625 C 14.8125 -0.0585938 14.714844 -0.03125 14.605469 0.0859375 C 14.484375 0.21875 14.371094 0.441406 14.277344 0.742188 Z M 15.917969 -1.914062 C 16.046875 -1.914062 16.089844 -1.984375 16.105469 -2.015625 C 15.5625 -1.988281 15.148438 -1.527344 15.175781 -0.988281 C 15.203125 -0.449219 15.664062 -0.0351562 16.203125 -0.0625 C 16.203125 -0.21875 16.074219 -0.34375 15.917969 -0.34375 C 15.761719 -0.34375 15.636719 -0.21875 15.636719 -0.0625 C 15.636719 0.09375 15.761719 0.222656 15.917969 0.222656 C 16.074219 0.222656 16.203125 0.09375 16.203125 -0.0625 L 16.199219 -0.0625 C 16.050781 -0.0585938 15.933594 0.0585938 15.9375 0.203125 C 15.9375 0.351562 16.054688 0.46875 16.199219 0.46875 C 16.347656 0.46875 16.464844 0.351562 16.464844 0.203125 C 16.464844 0.0585938 16.347656 -0.0585938 16.203125 -0.0625 C 16.195312 -0.0507812 16.175781 -0.015625 16.191406 0.0117188 C 16.207031 0.03125 16.238281 0.0429688 16.285156 0.0429688 Z M 16.238281 11.238281 C 19.359375 11.246094 21.894531 8.722656 21.902344 5.601562 C 21.910156 2.480469 19.386719 -0.0546875 16.265625 -0.0625 C 16.378906 -0.0820312 16.445312 -0.179688 16.480469 -0.257812 C 16.207031 -0.476562 15.808594 -0.453125 15.5625 -0.199219 C 15.320312 0.0507812 15.304688 0.449219 15.535156 0.714844 C 15.761719 0.984375 16.15625 1.035156 16.441406 0.832031 C 16.730469 0.632812 16.820312 0.246094 16.644531 -0.0625 C 16.292969 -0.0507812 16.125 0.0546875 16.046875 0.136719 C 16.101562 2.296875 17.894531 4 20.054688 3.945312 C 22.210938 3.890625 23.917969 2.097656 23.863281 -0.0625 C 23.863281 -0.0625 23.914062 -0.0546875 23.988281 -0.0546875 Z M 15.871094 10.871094 C 18.890625 10.902344 21.363281 8.480469 21.394531 5.460938 C 21.425781 2.441406 19.003906 -0.03125 15.984375 -0.0625 C 16.027344 -0.125 16.066406 -0.195312 16.066406 -0.25 C 16.066406 -0.304688 16.078125 -0.417969 16.085938 -0.480469 C 16.09375 -0.558594 16.105469 -0.628906 16.105469 -0.632812 C 16.09375 -0.628906 15.882812 -0.550781 15.882812 -0.351562 C 15.882812 -0.152344 15.902344 0.0507812 15.902344 0.0507812 Z M 16.148438 10.851562 C 16.148438 10.851562 16.152344 10.851562 16.152344 10.851562 C 16.214844 10.839844 16.328125 10.792969 16.449219 10.722656 C 16.585938 10.644531 16.695312 10.5625 16.757812 10.488281 C 16.816406 10.421875 16.851562 10.316406 16.863281 10.175781 C 17.273438 9.703125 17.238281 8.988281 16.78125 8.558594 C 16.324219 8.132812 15.609375 8.144531 15.164062 8.585938 C 14.722656 9.03125 14.710938 9.746094 15.136719 10.203125 C 15.566406 10.660156 16.28125 10.699219 16.75 10.285156 C 16.703125 10.285156 16.65625 10.308594 16.585938 10.351562 C 15.855469 9.621094 14.667969 9.621094 13.9375 10.351562 C 13.203125 11.085938 13.203125 12.273438 13.9375 13.003906 L 13.933594 13.003906 C 13.929688 13.015625 13.867188 13.125 13.820312 13.234375 C 13.882812 12.390625 13.25 11.65625 12.410156 11.589844 C 11.566406 11.527344 10.832031 12.160156 10.765625 13.003906 C 10.761719 13.019531 10.761719 13.035156 10.765625 13.050781 C 10.78125 13.046875 10.789062 13.035156 10.785156 13.019531 C 10.78125 13.007812 10.769531 13 10.753906 13.003906 C 10.757812 13.003906 10.761719 13.007812 10.765625 13.007812 Z M 16.148438 10.851562 "/>
<path style=" stroke:none;fill-rule:nonzero;fill:rgb(83.529412%,47.058824%,0%);fill-opacity:1;" d="M 19.390625 2.773438 L 19.328125 2.796875 L 19.304688 2.808594 L 19.226562 2.804688 L 19.15625 2.835938 L 19.027344 2.921875 L 19.023438 2.925781 L 18.976562 2.941406 L 18.933594 2.921875 L 18.90625 2.933594 L 18.898438 2.984375 L 18.875 3.019531 L 18.847656 3.039062 L 18.746094 3.050781 L 18.660156 3.09375 L 18.550781 3.066406 L 18.5 3.085938 L 18.390625 3.183594 L 18.332031 3.210938 L 18.3125 3.210938 L 18.238281 3.207031 L 18.207031 3.214844 L 18.160156 3.261719 L 18.074219 3.269531 L 18.046875 3.285156 L 18.003906 3.375 L 17.957031 3.421875 L 17.929688 3.425781 L 17.898438 3.417969 L 17.878906 3.421875 L 17.867188 3.476562 L 17.847656 3.5 L 17.789062 3.519531 L 17.742188 3.558594 L 17.699219 3.582031 L 17.644531 3.578125 L 17.632812 3.578125 L 17.574219 3.609375 L 17.472656 3.617188 L 17.429688 3.660156 L 17.417969 3.667969 L 17.398438 3.679688 L 17.367188 3.703125 L 17.359375 3.707031 L 17.316406 3.699219 L 17.269531 3.71875 L 17.25 3.6875 L 17.21875 3.707031 L 17.175781 3.710938 L 17.125 3.6875 L 17.082031 3.667969 L 17.054688 3.671875 L 17.042969 3.722656 L 17.042969 3.730469 L 17.011719 3.769531 L 16.953125 3.804688 L 16.945312 3.816406 L 16.878906 3.902344 L 16.753906 4.035156 L 16.644531 4.089844 L 16.535156 4.121094 L 16.457031 4.1875 L 16.253906 4.285156 L 15.9375 4.445312 L 15.871094 4.464844 L 15.777344 4.480469 L 15.609375 4.542969 L 15.460938 4.585938 L 15.453125 4.589844 L 15.421875 4.597656 L 15.214844 4.660156 L 15.117188 4.652344 L 15.0625 4.671875 L 14.910156 4.65625 L 14.808594 4.65625 L 14.742188 4.671875 L 14.617188 4.730469 L 14.410156 4.832031 L 14.339844 4.894531 L 14.234375 4.949219 L 14.105469 4.988281 L 14.109375 4.9375 L 14.105469 4.933594 L 14.0625 4.949219 L 14.03125 4.957031 L 13.929688 4.972656 L 13.871094 4.972656 L 13.835938 4.964844 L 13.832031 4.964844 L 13.625 5.035156 L 13.390625 5.058594 L 13.273438 5.09375 L 13.1875 5.09375 L 13.132812 5.109375 L 13.027344 5.121094 L 12.988281 5.113281 L 12.980469 5.109375 L 12.667969 5.125 L 12.523438 5.105469 L 12.457031 5.121094 L 12.339844 5.085938 L 12.171875 5.066406 L 12.132812 5.054688 L 12.046875 5.027344 L 12.007812 5.050781 L 11.976562 5.054688 L 11.90625 5.027344 L 11.878906 5.027344 L 11.820312 5.046875 L 11.789062 5.039062 L 11.757812 5.015625 L 11.683594 5.003906 L 11.636719 4.964844 L 11.386719 5 L 11.320312 4.980469 L 11.089844 4.914062 L 11.054688 4.914062 L 11.007812 4.949219 L 10.941406 4.972656 L 10.882812 4.988281 L 10.800781 4.992188 L 10.710938 4.964844 L 10.613281 4.917969 L 10.578125 4.910156 L 10.5 4.917969 L 10.472656 4.921875 L 10.328125 4.84375 L 10.140625 4.726562 L 10.011719 4.664062 L 9.964844 4.65625 L 9.957031 4.679688 L 9.980469 4.753906 L 9.992188 4.828125 L 9.988281 4.898438 L 9.988281 4.9375 L 10 4.976562 L 10.042969 5.027344 L 10.0625 5.078125 L 10.078125 5.21875 L 10.078125 5.363281 L 10.054688 5.589844 L 10.046875 5.625 L 10.019531 5.742188 L 9.996094 5.851562 L 9.902344 6.140625 L 9.875 6.175781 L 9.8125 6.21875 L 9.667969 6.320312 L 9.5625 6.378906 L 9.527344 6.394531 L 9.441406 6.402344 L 9.386719 6.398438 L 9.320312 6.363281 L 9.253906 6.34375 L 9.167969 6.28125 L 9.074219 6.261719 L 8.96875 6.203125 L 8.941406 6.167969 L 8.882812 6.164062 L 8.804688 6.140625 L 8.773438 6.132812 L 8.753906 6.125 L 8.652344 6.121094 L 8.558594 6.078125 L 8.507812 6.066406 L 8.441406 6.0625 L 8.371094 6.097656 L 8.332031 6.113281 L 8.289062 6.09375 L 8.253906 6.097656 L 8.21875 6.152344 L 8.214844 6.164062 L 8.1875 6.175781 L 8.128906 6.175781 L 8.101562 6.1875 L 8.066406 6.203125 L 8.035156 6.21875 L 8.019531 6.222656 L 8.007812 6.226562 L 7.992188 6.226562 L 7.96875 6.230469 L 7.933594 6.210938 L 7.914062 6.199219 L 7.878906 6.191406 L 7.863281 6.203125 L 7.859375 6.265625 L 7.839844 6.304688 L 7.789062 6.347656 L 7.734375 6.394531 L 7.699219 6.449219 L 7.601562 6.675781 L 7.539062 6.765625 L 7.519531 6.785156 L 7.457031 6.855469 L 7.398438 6.902344 L 7.269531 7.003906 L 7.144531 7.050781 L 7.035156 7.070312 L 6.984375 7.070312 L 6.886719 7.058594 L 6.796875 7.03125 L 6.699219 6.96875 L 6.59375 6.882812 L 6.4375 6.730469 L 6.417969 6.71875 L 6.414062 6.714844 L 6.363281 6.683594 L 6.328125 6.683594 L 6.3125 6.707031 L 6.304688 6.742188 L 6.300781 6.773438 L 6.28125 6.941406 L 6.28125 6.953125 L 6.292969 7.019531 L 6.410156 7.183594 L 6.445312 7.273438 L 6.453125 7.28125 L 6.476562 7.324219 L 6.496094 7.355469 L 6.535156 7.476562 L 6.507812 7.542969 L 6.523438 7.589844 L 6.488281 7.617188 L 6.480469 7.65625 L 6.585938 7.789062 L 6.609375 7.847656 L 6.582031 7.925781 L 6.542969 7.972656 L 6.53125 7.984375 L 6.535156 8.019531 L 6.585938 8.0625 L 6.667969 8.136719 L 6.710938 8.246094 L 6.742188 8.273438 L 6.78125 8.265625 L 6.804688 8.28125 L 6.835938 8.28125 L 6.871094 8.3125 L 6.890625 8.324219 L 6.921875 8.339844 L 6.949219 8.375 L 6.957031 8.476562 L 7.003906 8.609375 L 7.003906 8.6875 L 7.035156 8.738281 L 7.042969 8.78125 L 7.027344 8.890625 L 7.066406 8.925781 L 7.109375 8.917969 L 7.136719 8.921875 L 7.179688 8.957031 L 7.230469 9.035156 L 7.28125 9.027344 L 7.316406 9.042969 L 7.472656 9.1875 L 7.507812 9.203125 L 7.511719 9.207031 L 7.535156 9.21875 L 7.566406 9.25 L 7.617188 9.21875 L 7.625 9.21875 L 7.675781 9.214844 L 7.699219 9.230469 L 7.746094 9.257812 L 7.804688 9.257812 L 7.933594 9.296875 L 7.992188 9.3125 L 8.105469 9.382812 L 8.152344 9.414062 L 8.183594 9.4375 L 8.21875 9.46875 L 8.296875 9.5 L 8.359375 9.515625 L 8.394531 9.523438 L 8.421875 9.535156 L 8.421875 9.53125 L 8.421875 9.535156 L 8.5625 9.589844 L 8.640625 9.605469 L 8.710938 9.632812 L 8.761719 9.652344 L 8.800781 9.652344 L 8.851562 9.605469 L 8.90625 9.605469 L 8.949219 9.613281 L 8.988281 9.605469 L 9.054688 9.566406 L 9.070312 9.546875 L 9.117188 9.523438 L 9.273438 9.503906 L 9.320312 9.519531 L 9.441406 9.46875 L 9.519531 9.492188 L 9.589844 9.464844 L 9.742188 9.5 L 9.785156 9.527344 L 9.832031 9.582031 L 9.886719 9.582031 L 9.867188 9.617188 L 9.933594 9.6875 L 9.992188 9.78125 L 10 9.792969 L 10.042969 9.921875 L 10.074219 9.96875 L 10.097656 10.03125 L 10.097656 10.074219 L 10.0625 10.101562 L 10.058594 10.117188 L 10.054688 10.121094 L 10.0625 10.140625 L 10.078125 10.132812 L 10.101562 10.117188 L 10.132812 10.113281 L 10.1875 10.121094 L 10.226562 10.125 L 10.28125 10.09375 L 10.320312 10.074219 L 10.382812 10.101562 L 10.449219 10.101562 L 10.558594 10.148438 L 10.597656 10.152344 L 10.613281 10.144531 L 10.621094 10.121094 L 10.617188 10.09375 L 10.585938 10.058594 L 10.519531 9.980469 L 10.492188 9.941406 L 10.46875 9.882812 L 10.464844 9.808594 L 10.460938 9.757812 L 10.46875 9.691406 L 10.484375 9.667969 L 10.5 9.617188 L 10.503906 9.601562 L 10.539062 9.550781 L 10.640625 9.488281 L 10.746094 9.394531 L 10.832031 9.335938 L 10.917969 9.300781 L 10.917969 9.289062 L 10.929688 9.292969 L 11.152344 9.21875 L 11.15625 9.21875 L 11.253906 9.199219 L 11.917969 9.246094 L 11.941406 9.238281 L 11.964844 9.175781 L 11.984375 9.15625 L 12.058594 9.125 L 12.089844 9.121094 L 12.1875 9.144531 L 12.226562 9.152344 L 12.289062 9.121094 L 12.332031 9.121094 L 12.421875 9.070312 L 12.480469 9.070312 L 12.5 9.0625 L 12.609375 8.984375 L 12.714844 8.953125 L 12.742188 8.9375 L 12.753906 8.933594 L 12.859375 8.875 L 12.929688 8.824219 L 12.988281 8.792969 L 13.054688 8.777344 L 13.222656 8.765625 L 13.257812 8.707031 L 13.332031 8.695312 L 13.375 8.648438 L 13.425781 8.625 L 13.460938 8.574219 L 13.492188 8.53125 L 13.535156 8.507812 L 13.671875 8.496094 L 13.832031 8.515625 L 13.855469 8.503906 L 13.890625 8.375 L 13.929688 8.351562 L 14.03125 8.199219 L 14.03125 8.101562 L 14.046875 8.035156 L 14.035156 7.917969 L 14.050781 7.800781 L 14.113281 7.648438 L 14.171875 7.589844 L 14.261719 7.527344 L 14.308594 7.507812 L 14.371094 7.496094 L 14.382812 7.496094 L 14.398438 7.492188 L 14.625 7.488281 C 14.625 7.484375 14.707031 7.488281 14.707031 7.488281 L 14.78125 7.484375 L 14.96875 7.519531 L 14.984375 7.523438 L 15.046875 7.542969 L 15.121094 7.601562 L 15.199219 7.675781 L 15.214844 7.691406 L 15.265625 7.710938 L 15.28125 7.71875 L 15.324219 7.710938 L 15.382812 7.683594 L 15.425781 7.644531 L 15.488281 7.609375 L 15.523438 7.554688 L 15.527344 7.554688 L 15.539062 7.535156 L 15.65625 7.488281 L 15.796875 7.480469 L 15.820312 7.46875 L 15.859375 7.421875 L 15.894531 7.421875 L 15.976562 7.453125 L 16.035156 7.441406 L 16.082031 7.460938 L 16.1875 7.449219 L 16.261719 7.5 L 16.304688 7.503906 L 16.453125 7.59375 L 16.464844 7.59375 L 16.472656 7.597656 L 16.492188 7.589844 L 16.519531 7.582031 L 16.523438 7.582031 L 16.527344 7.585938 L 16.542969 7.613281 L 16.566406 7.613281 L 16.59375 7.578125 L 16.582031 7.5625 L 16.578125 7.554688 L 16.523438 7.542969 L 16.476562 7.460938 L 16.523438 7.410156 L 16.449219 7.324219 L 16.4375 7.308594 L 16.433594 7.300781 L 16.410156 7.265625 L 16.28125 7.070312 L 16.117188 6.941406 L 16.039062 6.878906 L 15.953125 6.789062 L 15.890625 6.703125 L 15.878906 6.6875 L 15.867188 6.65625 L 15.832031 6.574219 L 15.765625 6.523438 L 15.710938 6.464844 L 15.707031 6.464844 L 15.597656 6.3125 L 15.578125 6.289062 L 15.554688 6.273438 L 15.5 6.273438 L 15.492188 6.265625 L 15.488281 6.265625 L 15.519531 6.234375 L 15.546875 6.226562 L 15.5625 6.199219 L 15.503906 6.035156 L 15.503906 6.03125 L 15.5 5.980469 L 15.546875 5.742188 L 15.550781 5.714844 L 15.628906 5.554688 L 15.679688 5.515625 L 15.730469 5.410156 L 15.777344 5.34375 L 15.820312 5.304688 L 15.828125 5.296875 L 15.90625 5.25 L 15.972656 5.242188 L 16.035156 5.234375 L 16.144531 5.265625 L 16.246094 5.265625 L 16.265625 5.261719 L 16.316406 5.257812 L 16.390625 5.234375 L 16.429688 5.210938 L 16.449219 5.179688 L 16.488281 5.046875 L 16.5 5.007812 L 16.523438 4.960938 L 16.667969 4.796875 L 16.773438 4.699219 L 17.011719 4.523438 L 17.132812 4.453125 L 17.191406 4.414062 L 17.726562 4.175781 L 17.941406 3.960938 L 18.070312 3.875 L 18.21875 3.8125 L 18.347656 3.710938 L 18.375 3.675781 L 18.414062 3.5625 L 18.441406 3.554688 L 18.46875 3.496094 L 18.476562 3.480469 L 18.582031 3.40625 L 18.59375 3.398438 L 19.003906 3.195312 L 19.0625 3.203125 L 19.097656 3.152344 L 19.238281 3.128906 L 19.265625 3.117188 L 19.292969 3.074219 L 19.292969 3.066406 L 19.296875 2.949219 L 19.320312 2.921875 L 19.335938 2.84375 L 19.347656 2.828125 L 19.363281 2.808594 L 19.394531 2.785156 Z M 19.390625 2.773438 "/>
</g>
</svg>
