<?xml version="1.0" encoding="UTF-8"?>
<svg xmlns="http://www.w3.org/2000/svg" xmlns:xlink="http://www.w3.org/1999/xlink" width="24px" height="16px" viewBox="0 0 32 16" version="1.1">
<g id="surface1">
<rect x="0" y="0" width="32" height="16" style="fill:rgb(0%,41.960784%,24.705882%);fill-opacity:1;stroke:none;"/>
<path style=" stroke:none;fill-rule:nonzero;fill:rgb(98.823529%,81.960784%,8.627451%);fill-opacity:1;" d="M 0 6 L 32 6 L 32 8.667969 L 0 8.667969 Z M 0 6 "/>
<path style=" stroke:none;fill-rule:nonzero;fill:rgb(100%,100%,100%);fill-opacity:1;" d="M 0 7.332031 L 32 7.332031 L 32 10 L 0 10 Z M 0 7.332031 "/>
<path style=" stroke:none;fill-rule:nonzero;fill:rgb(0%,0%,0%);fill-opacity:1;" d="M 0 7.332031 L 32 7.332031 L 32 8.667969 L 0 8.667969 Z M 0 7.332031 "/>
<path style=" stroke:none;fill-rule:nonzero;fill:rgb(98.823529%,81.960784%,8.627451%);fill-opacity:1;" d="M 14 0 L 16.667969 0 L 16.667969 16 L 14 16 Z M 14 0 "/>
<path style=" stroke:none;fill-rule:nonzero;fill:rgb(100%,100%,100%);fill-opacity:1;" d="M 15.332031 0 L 18 0 L 18 16 L 15.332031 16 Z M 15.332031 0 "/>
<path style=" stroke:none;fill-rule:nonzero;fill:rgb(0%,0%,0%);fill-opacity:1;" d="M 15.332031 0 L 16.667969 0 L 16.667969 16 L 15.332031 16 Z M 15.332031 0 "/>
<path style=" stroke:none;fill-rule:nonzero;fill:rgb(83.137255%,10.980392%,18.823529%);fill-opacity:1;" d="M 20 8 C 20 10.210938 18.210938 12 16 12 C 13.789062 12 12 10.210938 12 8 C 12 5.789062 13.789062 4 16 4 C 18.210938 4 20 5.789062 20 8 Z M 20 8 "/>
<path style="fill-rule:nonzero;fill:rgb(0%,41.960784%,24.705882%);fill-opacity:1;stroke-width:1;stroke-linecap:butt;stroke-linejoin:miter;stroke:rgb(0%,0%,0%);stroke-opacity:1;stroke-miterlimit:4;" d="M -4.833984 -118.359375 L 0 -132.128906 L 4.394531 -118.652344 L 19.042969 -118.359375 L 7.470703 -109.570312 L 12.744141 -94.482422 L 0 -103.857422 L -12.451172 -94.921875 L -7.617188 -109.570312 L -19.042969 -118.212891 Z M -4.833984 -118.359375 " transform="matrix(0.0266667,0,0,0.0266667,16,8)"/>
<path style="fill-rule:nonzero;fill:rgb(0%,41.960784%,24.705882%);fill-opacity:1;stroke-width:1;stroke-linecap:butt;stroke-linejoin:miter;stroke:rgb(0%,0%,0%);stroke-opacity:1;stroke-miterlimit:4;" d="M -4.833984 -118.359375 L 0 -132.128906 L 4.394531 -118.652344 L 19.042969 -118.359375 L 7.470703 -109.570312 L 12.744141 -94.482422 L 0 -103.857422 L -12.451172 -94.921875 L -7.617188 -109.570312 L -19.042969 -118.212891 Z M -4.833984 -118.359375 " transform="matrix(-0.0266667,0,0,-0.0266667,16,8)"/>
<path style="fill-rule:nonzero;fill:rgb(0%,41.960784%,24.705882%);fill-opacity:1;stroke-width:1;stroke-linecap:butt;stroke-linejoin:miter;stroke:rgb(0%,0%,0%);stroke-opacity:1;stroke-miterlimit:4;" d="M -4.735964 -118.415627 L -0.0445645 -132.144813 L 4.32151 -118.659004 L 18.968259 -118.436612 L 7.494236 -109.557052 L 12.65651 -94.476941 L 0.0819048 -103.809549 L -12.447573 -94.887415 L -7.712648 -109.553548 L -19.038307 -118.163986 Z M -4.735964 -118.415627 " transform="matrix(0.0215738,0.0156743,-0.0156743,0.0215738,16,8)"/>
<path style="fill-rule:nonzero;fill:rgb(0%,41.960784%,24.705882%);fill-opacity:1;stroke-width:1;stroke-linecap:butt;stroke-linejoin:miter;stroke:rgb(0%,0%,0%);stroke-opacity:1;stroke-miterlimit:4;" d="M -4.735964 -118.415627 L -0.0445645 -132.144813 L 4.32151 -118.659004 L 18.968259 -118.436612 L 7.494236 -109.557052 L 12.65651 -94.476941 L 0.0819048 -103.809549 L -12.447573 -94.887415 L -7.712648 -109.553548 L -19.038307 -118.163986 Z M -4.735964 -118.415627 " transform="matrix(-0.0215738,-0.0156743,0.0156743,-0.0215738,16,8)"/>
<path style="fill-rule:nonzero;fill:rgb(0%,41.960784%,24.705882%);fill-opacity:1;stroke-width:1;stroke-linecap:butt;stroke-linejoin:miter;stroke:rgb(0%,0%,0%);stroke-opacity:1;stroke-miterlimit:4;" d="M -4.790476 -118.459815 L -0.0304961 -132.16146 L 4.334428 -118.57541 L 19.066645 -118.409306 L 7.413869 -109.565654 L 12.670498 -94.457689 L -0.000574638 -103.811545 L -12.440457 -94.915594 L -7.68751 -109.54366 L -19.055966 -118.166225 Z M -4.790476 -118.459815 " transform="matrix(0.00824045,0.0253615,-0.0253615,0.00824045,16,8)"/>
<path style="fill-rule:nonzero;fill:rgb(0%,41.960784%,24.705882%);fill-opacity:1;stroke-width:1;stroke-linecap:butt;stroke-linejoin:miter;stroke:rgb(0%,0%,0%);stroke-opacity:1;stroke-miterlimit:4;" d="M -4.790476 -118.459815 L -0.0304961 -132.16146 L 4.334428 -118.57541 L 19.066645 -118.409306 L 7.413869 -109.565654 L 12.670498 -94.457689 L -0.000574638 -103.811545 L -12.440457 -94.915594 L -7.68751 -109.54366 L -19.055966 -118.166225 Z M -4.790476 -118.459815 " transform="matrix(-0.00824045,-0.0253615,0.0253615,-0.00824045,16,8)"/>
<path style="fill-rule:nonzero;fill:rgb(0%,41.960784%,24.705882%);fill-opacity:1;stroke-width:1;stroke-linecap:butt;stroke-linejoin:miter;stroke:rgb(0%,0%,0%);stroke-opacity:1;stroke-miterlimit:4;" d="M -4.752372 -118.439612 L 0.0304961 -132.16146 L 4.421314 -118.647913 L 18.965433 -118.444854 L 7.363614 -109.592443 L 12.715571 -94.542915 L 0.000574638 -103.811545 L -12.527666 -94.966166 L -7.692499 -109.475122 L -18.976112 -118.130676 Z M -4.752372 -118.439612 " transform="matrix(-0.00824045,0.0253615,-0.0253615,-0.00824045,16,8)"/>
<path style="fill-rule:nonzero;fill:rgb(0%,41.960784%,24.705882%);fill-opacity:1;stroke-width:1;stroke-linecap:butt;stroke-linejoin:miter;stroke:rgb(0%,0%,0%);stroke-opacity:1;stroke-miterlimit:4;" d="M -4.752372 -118.439612 L 0.0304961 -132.16146 L 4.421314 -118.647913 L 18.965433 -118.444854 L 7.363614 -109.592443 L 12.715571 -94.542915 L 0.000574638 -103.811545 L -12.527666 -94.966166 L -7.692499 -109.475122 L -18.976112 -118.130676 Z M -4.752372 -118.439612 " transform="matrix(0.00824045,-0.0253615,0.0253615,0.00824045,16,8)"/>
<path style="fill-rule:nonzero;fill:rgb(0%,41.960784%,24.705882%);fill-opacity:1;stroke-width:1;stroke-linecap:butt;stroke-linejoin:miter;stroke:rgb(0%,0%,0%);stroke-opacity:1;stroke-miterlimit:4;" d="M -4.81683 -118.475682 L 0.0445645 -132.144813 L 4.380438 -118.673931 L 19.0059 -118.368596 L 7.389529 -109.607242 L 12.716997 -94.510603 L -0.0819048 -103.809549 L -12.516715 -94.918567 L -7.698846 -109.524645 L -19.021953 -118.113494 Z M -4.81683 -118.475682 " transform="matrix(-0.0215738,0.0156743,-0.0156743,-0.0215738,16,8)"/>
<path style="fill-rule:nonzero;fill:rgb(0%,41.960784%,24.705882%);fill-opacity:1;stroke-width:1;stroke-linecap:butt;stroke-linejoin:miter;stroke:rgb(0%,0%,0%);stroke-opacity:1;stroke-miterlimit:4;" d="M -4.81683 -118.475682 L 0.0445645 -132.144813 L 4.380438 -118.673931 L 19.0059 -118.368596 L 7.389529 -109.607242 L 12.716997 -94.510603 L -0.0819048 -103.809549 L -12.516715 -94.918567 L -7.698846 -109.524645 L -19.021953 -118.113494 Z M -4.81683 -118.475682 " transform="matrix(0.0215738,-0.0156743,0.0156743,0.0215738,16,8)"/>
<path style="fill-rule:nonzero;fill:rgb(0%,41.960784%,24.705882%);fill-opacity:1;stroke-width:2.5;stroke-linecap:butt;stroke-linejoin:miter;stroke:rgb(0%,0%,0%);stroke-opacity:1;stroke-miterlimit:4;" d="M 710.868261 586.404734 C 710.832392 481.074616 696.986988 396.024277 680.27207 396.375096 C 663.090856 396.034633 649.604141 481.317569 649.173714 585.956405 C 649.245452 690.660492 663.090856 775.710831 680.27207 776.051294 C 696.986988 775.700475 710.939998 691.108821 710.868261 586.404734 Z M 710.868261 586.404734 " transform="matrix(0.00772133,-0.0008048,0.0004424,0.0061936,11.03688,5.975307)"/>
<path style="fill-rule:nonzero;fill:rgb(0%,41.960784%,24.705882%);fill-opacity:1;stroke-width:2.5;stroke-linecap:butt;stroke-linejoin:miter;stroke:rgb(0%,0%,0%);stroke-opacity:1;stroke-miterlimit:4;" d="M 711.042368 586.430416 C 711.042839 481.100488 696.99675 396.550733 680.278016 396.150856 C 663.050413 396.311935 649.321964 481.469007 649.355611 586.172894 C 649.389258 690.87678 663.40123 776.052576 680.15408 775.826411 C 697.381683 775.665332 711.076015 691.134302 711.042368 586.430416 Z M 711.042368 586.430416 " transform="matrix(0.00816693,-0.000849067,0.000445067,0.00619333,10.96712,6.003013)"/>
<path style="fill-rule:nonzero;fill:rgb(0%,41.960784%,24.705882%);fill-opacity:1;stroke-width:2.5;stroke-linecap:butt;stroke-linejoin:miter;stroke:rgb(0%,0%,0%);stroke-opacity:1;stroke-miterlimit:4;" d="M 711.288043 586.253046 C 711.185983 481.264659 697.047582 396.540596 680.304856 396.56325 C 662.968608 396.526032 649.598145 481.327768 649.106684 586.256283 C 649.250123 690.678311 663.347144 775.968733 680.089871 775.946079 C 697.426118 775.983297 710.796582 691.181561 711.288043 586.253046 Z M 711.288043 586.253046 " transform="matrix(0.00653333,-0.000690667,0.000477333,0.00684667,11.94808,5.57504)"/>
<path style="fill-rule:nonzero;fill:rgb(61.176471%,29.019608%,0%);fill-opacity:1;stroke-width:0.657;stroke-linecap:butt;stroke-linejoin:miter;stroke:rgb(0%,0%,0%);stroke-opacity:1;stroke-miterlimit:4;" d="M -44.238281 62.548828 C -36.621094 62.255859 -39.84375 58.154297 -36.035156 55.957031 C -32.080078 53.759766 -26.660156 55.224609 -25.048828 58.007812 C -23.291016 60.644531 -24.609375 63.28125 -22.558594 63.427734 C -20.361328 63.427734 37.353516 60.9375 39.404297 63.28125 C 41.601562 65.625 41.894531 70.019531 39.697266 71.777344 C 37.5 73.535156 -35.449219 74.414062 -38.085938 72.509766 C -40.576172 70.751953 -44.238281 62.988281 -44.238281 62.548828 Z M -44.238281 62.548828 " transform="matrix(0.0266667,0,0,0.0266667,16,8)"/>
<path style="fill-rule:nonzero;fill:rgb(98.823529%,81.960784%,8.627451%);fill-opacity:1;stroke-width:0.633;stroke-linecap:butt;stroke-linejoin:miter;stroke:rgb(0%,0%,0%);stroke-opacity:1;stroke-miterlimit:4;" d="M -3.369141 68.261719 C -3.515625 73.974609 4.980469 72.363281 5.126953 77.197266 C 4.833984 82.324219 -9.228516 77.490234 -9.375 68.115234 C -8.789062 58.740234 4.980469 54.199219 5.273438 59.472656 C 5.273438 63.867188 -3.222656 62.402344 -3.369141 68.261719 Z M -3.369141 68.261719 " transform="matrix(0.0266667,0,0,0.0266667,16,8)"/>
<path style="fill-rule:nonzero;fill:rgb(98.823529%,81.960784%,8.627451%);fill-opacity:1;stroke-width:0.633;stroke-linecap:butt;stroke-linejoin:miter;stroke:rgb(0%,0%,0%);stroke-opacity:1;stroke-miterlimit:4;" d="M 1.611328 68.261719 C 1.464844 73.974609 10.107422 72.363281 10.253906 77.197266 C 9.960938 82.324219 -4.101562 77.490234 -4.248047 68.115234 C -3.662109 58.886719 10.107422 54.199219 10.253906 59.619141 C 10.400391 64.013672 1.757812 62.548828 1.611328 68.261719 Z M 1.611328 68.261719 " transform="matrix(0.0266667,0,0,0.0266667,16,8)"/>
<path style="fill-rule:nonzero;fill:rgb(98.823529%,81.960784%,8.627451%);fill-opacity:1;stroke-width:0.633;stroke-linecap:butt;stroke-linejoin:miter;stroke:rgb(0%,0%,0%);stroke-opacity:1;stroke-miterlimit:4;" d="M 7.03125 68.115234 C 6.884766 73.828125 15.527344 72.216797 15.527344 77.050781 C 15.380859 82.177734 1.318359 77.34375 1.171875 67.96875 C 1.757812 58.59375 15.527344 54.052734 15.673828 59.326172 C 15.820312 63.720703 7.177734 62.255859 7.03125 68.115234 Z M 7.03125 68.115234 " transform="matrix(0.0266667,0,0,0.0266667,16,8)"/>
<path style="fill-rule:nonzero;fill:rgb(98.823529%,81.960784%,8.627451%);fill-opacity:1;stroke-width:0.633;stroke-linecap:butt;stroke-linejoin:miter;stroke:rgb(0%,0%,0%);stroke-opacity:1;stroke-miterlimit:4;" d="M 12.158203 68.115234 C 12.011719 73.828125 20.507812 72.216797 20.654297 77.050781 C 20.361328 82.177734 6.298828 77.34375 6.152344 68.115234 C 6.738281 58.740234 20.507812 54.052734 20.654297 59.472656 C 20.800781 63.867188 12.304688 62.402344 12.158203 68.115234 Z M 12.158203 68.115234 " transform="matrix(0.0266667,0,0,0.0266667,16,8)"/>
<path style="fill-rule:nonzero;fill:rgb(61.176471%,29.019608%,0%);fill-opacity:1;stroke-width:0.399;stroke-linecap:butt;stroke-linejoin:miter;stroke:rgb(0%,0%,0%);stroke-opacity:1;stroke-miterlimit:4;" d="M 481.901844 -41.039591 C 481.965516 -42.954092 480.340195 -44.4416 478.42779 -44.514993 C 476.411498 -44.486185 474.853201 -42.953192 474.89565 -41.040207 C 474.829744 -39.22639 476.457299 -37.638198 478.36747 -37.66549 C 480.383761 -37.694297 481.942059 -39.22729 481.901844 -41.039591 Z M 481.901844 -41.039591 " transform="matrix(0.0367979,0.000554133,-0.000816533,0.0387851,-0.67272,11.125467)"/>
<path style="fill-rule:nonzero;fill:rgb(0%,41.960784%,24.705882%);fill-opacity:1;stroke-width:2.5;stroke-linecap:butt;stroke-linejoin:miter;stroke:rgb(0%,0%,0%);stroke-opacity:1;stroke-miterlimit:4;" d="M 447.755053 904.814469 C 447.650927 891.460477 438.537774 880.729293 427.194711 880.942927 C 415.925978 880.791734 406.671692 891.550848 406.080814 904.849788 C 406.184939 918.20378 415.993097 928.990017 427.26183 929.14121 C 438.530563 929.292404 447.859178 918.168462 447.755053 904.814469 Z M 447.755053 904.814469 " transform="matrix(0.0055312,-0.000834667,0.00112693,0.0105371,12.800587,0.175573)"/>
<path style="fill-rule:nonzero;fill:rgb(0%,41.960784%,24.705882%);fill-opacity:1;stroke-width:2.5;stroke-linecap:butt;stroke-linejoin:miter;stroke:rgb(0%,0%,0%);stroke-opacity:1;stroke-miterlimit:4;" d="M 447.839268 905.176829 C 447.735142 891.822836 438.69632 880.726826 427.353256 880.94046 C 415.389519 880.734213 406.135233 891.493328 406.239359 904.84732 C 406.343485 918.201313 415.382308 929.297323 427.420375 929.138743 C 438.689108 929.289936 448.017724 918.165994 447.839268 905.176829 Z M 447.839268 905.176829 " transform="matrix(0.0055312,-0.000834667,0.00112693,0.0105371,12.6044,0.160107)"/>
<path style="fill-rule:nonzero;fill:rgb(0%,41.960784%,24.705882%);fill-opacity:1;stroke-width:2.5;stroke-linecap:butt;stroke-linejoin:miter;stroke:rgb(0%,0%,0%);stroke-opacity:1;stroke-miterlimit:4;" d="M 447.867503 904.90958 C 447.763377 891.555588 438.650224 880.824404 427.307161 881.038038 C 415.343423 880.831792 406.089138 891.590906 406.193263 904.944899 C 406.297389 918.298891 415.410542 929.030075 427.37428 929.236321 C 438.717343 929.022687 447.971628 918.263573 447.867503 904.90958 Z M 447.867503 904.90958 " transform="matrix(0.0055312,-0.000834667,0.00112693,0.0105371,12.46392,-0.09096)"/>
<path style="fill-rule:nonzero;fill:rgb(0%,41.960784%,24.705882%);fill-opacity:1;stroke-width:2.5;stroke-linecap:butt;stroke-linejoin:miter;stroke:rgb(0%,0%,0%);stroke-opacity:1;stroke-miterlimit:4;" d="M 448.039067 904.877888 C 448.143067 891.780348 438.887743 881.029897 427.176212 880.85461 C 415.464681 880.679323 406.276818 891.775526 406.172819 904.873066 C 405.992063 918.30108 415.969762 929.103795 426.958917 929.226818 C 438.747205 929.071631 447.858312 918.305902 448.039067 904.877888 Z M 448.039067 904.877888 " transform="matrix(0.00531813,-0.000841067,0.0012352,0.0116248,12.655813,-1.0836)"/>
<path style="fill-rule:nonzero;fill:rgb(0%,41.960784%,24.705882%);fill-opacity:1;stroke-width:2.5;stroke-linecap:butt;stroke-linejoin:miter;stroke:rgb(0%,0%,0%);stroke-opacity:1;stroke-miterlimit:4;" d="M 447.839043 904.944723 C 447.797972 891.681552 438.395772 880.937494 427.406451 880.825095 C 415.61779 881.010765 405.930776 891.748037 405.971848 905.011208 C 406.012919 918.274379 415.415119 929.018437 427.126797 929.185339 C 438.915458 928.999669 447.880115 918.207894 447.839043 904.944723 Z M 447.839043 904.944723 " transform="matrix(0.00532,-0.0008224,0.0011616,0.0108997,12.996,-0.432853)"/>
<path style="fill-rule:nonzero;fill:rgb(0%,41.960784%,24.705882%);fill-opacity:1;stroke-width:2.5;stroke-linecap:butt;stroke-linejoin:miter;stroke:rgb(0%,0%,0%);stroke-opacity:1;stroke-miterlimit:4;" d="M 448.251097 905.068438 C 448.210025 891.805267 438.884808 880.708637 427.096148 880.894307 C 415.38447 880.727405 406.419813 891.51918 406.383902 905.134923 C 406.424973 918.398094 415.827173 929.142152 426.816494 929.254551 C 438.605154 929.06888 447.569812 918.277106 448.251097 905.068438 Z M 448.251097 905.068438 " transform="matrix(0.00532,-0.0008224,0.0011616,0.0108997,12.845227,-0.523707)"/>
<path style="fill-rule:nonzero;fill:rgb(0%,41.960784%,24.705882%);fill-opacity:1;stroke-width:2.5;stroke-linecap:butt;stroke-linejoin:miter;stroke:rgb(0%,0%,0%);stroke-opacity:1;stroke-miterlimit:4;" d="M 448.064905 904.894217 C 448.023833 891.631046 438.621634 880.886988 426.909956 880.720086 C 415.843652 880.960259 406.156638 891.697531 406.19771 904.960702 C 406.238781 918.223873 415.640981 928.967931 427.352659 929.134833 C 438.34198 929.247232 448.028994 918.50996 448.064905 904.894217 Z M 448.064905 904.894217 " transform="matrix(0.00532,-0.0008224,0.0011616,0.0108997,12.655013,-0.654773)"/>
<path style="fill-rule:nonzero;fill:rgb(0%,41.960784%,24.705882%);fill-opacity:1;stroke-width:2.5;stroke-linecap:butt;stroke-linejoin:miter;stroke:rgb(0%,0%,0%);stroke-opacity:1;stroke-miterlimit:4;" d="M 448.104623 905.015413 C 448.063552 891.752242 438.661352 881.008183 426.949674 880.841282 C 415.960353 880.728883 406.196357 891.818726 406.237428 905.081898 C 406.2785 918.345069 415.680699 929.089127 427.392377 929.256028 C 438.458681 929.015855 448.145695 918.278584 448.104623 905.015413 Z M 448.104623 905.015413 " transform="matrix(0.00532,-0.0008224,0.0011616,0.0108997,12.47888,-0.734187)"/>
<path style="fill-rule:nonzero;fill:rgb(58.039216%,38.039216%,78.823529%);fill-opacity:1;stroke-width:0.575;stroke-linecap:butt;stroke-linejoin:miter;stroke:rgb(0%,0%,0%);stroke-opacity:1;stroke-miterlimit:4;" d="M -14.794922 -52.734375 C -14.794922 -52.734375 -29.443359 -39.990234 -27.685547 -5.566406 C -25.927734 29.150391 4.6875 45.410156 4.6875 45.410156 C 4.6875 45.410156 12.451172 35.595703 11.572266 7.763672 C 9.375 -32.958984 -5.126953 -50.976562 -5.126953 -50.976562 Z M -14.794922 -52.734375 " transform="matrix(0.0266667,0,0,0.0266667,16,8)"/>
<path style="fill-rule:nonzero;fill:rgb(0%,41.960784%,24.705882%);fill-opacity:1;stroke-width:2.5;stroke-linecap:butt;stroke-linejoin:miter;stroke:rgb(0%,0%,0%);stroke-opacity:1;stroke-miterlimit:4;" d="M 448.227257 904.861757 C 447.795346 891.563154 438.656035 880.987471 426.754369 880.803458 C 415.600543 880.977376 406.614887 891.835675 406.349684 905.145147 C 406.08448 918.45462 415.920905 929.019433 427.125457 929.214316 C 438.279283 929.040398 447.962053 918.17123 448.227257 904.861757 Z M 448.227257 904.861757 " transform="matrix(0.00559147,0.0001648,-0.000769067,0.0105691,14.79512,-0.250693)"/>
<path style="fill-rule:nonzero;fill:rgb(0%,41.960784%,24.705882%);fill-opacity:1;stroke-width:2.5;stroke-linecap:butt;stroke-linejoin:miter;stroke:rgb(0%,0%,0%);stroke-opacity:1;stroke-miterlimit:4;" d="M 448.071649 905.177519 C 447.589013 891.510114 438.449701 880.934432 427.245149 880.739548 C 415.394209 880.924336 406.408554 891.782635 406.14335 905.092108 C 406.57526 918.390711 415.714572 928.966393 426.919124 929.161277 C 438.770064 928.976489 447.806445 918.486992 448.071649 905.177519 Z M 448.071649 905.177519 " transform="matrix(0.00559147,0.0001648,-0.000769067,0.0105691,14.604827,-0.30088)"/>
<path style="fill-rule:nonzero;fill:rgb(0%,41.960784%,24.705882%);fill-opacity:1;stroke-width:2.5;stroke-linecap:butt;stroke-linejoin:miter;stroke:rgb(0%,0%,0%);stroke-opacity:1;stroke-miterlimit:4;" d="M 448.008562 905.052585 C 448.273766 891.743112 438.386614 880.809498 427.232788 880.983416 C 415.331122 880.799402 406.345467 891.657701 406.080263 904.967174 C 406.512173 918.265777 415.702211 929.210261 426.856037 929.036343 C 438.757703 929.220357 447.743358 918.362058 448.008562 905.052585 Z M 448.008562 905.052585 " transform="matrix(0.00559147,0.0001648,-0.000769067,0.0105691,14.511333,-0.572987)"/>
<path style="fill-rule:nonzero;fill:rgb(0%,41.960784%,24.705882%);fill-opacity:1;stroke-width:2.5;stroke-linecap:butt;stroke-linejoin:miter;stroke:rgb(0%,0%,0%);stroke-opacity:1;stroke-miterlimit:4;" d="M 447.637966 905.037268 C 447.683039 891.634756 438.735492 881.005418 427.090534 880.790492 C 415.498785 880.910068 406.334225 891.726244 406.289151 905.128756 C 406.190869 918.196766 415.916109 929.153133 426.783374 929.04103 C 438.428332 929.255956 447.592893 918.43978 447.637966 905.037268 Z M 447.637966 905.037268 " transform="matrix(0.00538293,0.000120267,-0.000856267,0.0116587,14.877067,-1.51552)"/>
<path style="fill-rule:nonzero;fill:rgb(0%,41.960784%,24.705882%);fill-opacity:1;stroke-width:2.5;stroke-linecap:butt;stroke-linejoin:miter;stroke:rgb(0%,0%,0%);stroke-opacity:1;stroke-miterlimit:4;" d="M 447.640758 904.937626 C 447.85393 891.714305 438.241709 880.759734 427.373894 880.897849 C 415.728575 880.68853 406.450268 891.525859 406.29008 905.10582 C 406.076908 918.32914 415.689129 929.283711 427.281465 929.136389 C 438.8738 928.989068 448.205092 918.508379 447.640758 904.937626 Z M 447.640758 904.937626 " transform="matrix(0.00538133,0.000138933,-0.000799467,0.0109323,15.095813,-0.814587)"/>
<path style="fill-rule:nonzero;fill:rgb(0%,41.960784%,24.705882%);fill-opacity:1;stroke-width:2.5;stroke-linecap:butt;stroke-linejoin:miter;stroke:rgb(0%,0%,0%);stroke-opacity:1;stroke-miterlimit:4;" d="M 448.231404 904.84345 C 447.720054 891.629337 438.885338 881.022199 427.240019 880.81288 C 415.647683 880.960202 406.369375 891.79753 406.156204 905.020851 C 405.943033 918.244172 415.555254 929.198743 427.147589 929.051421 C 438.792908 929.260739 448.071216 918.423411 448.231404 904.84345 Z M 448.231404 904.84345 " transform="matrix(0.00538133,0.000138933,-0.000799467,0.0109323,14.963653,-0.930827)"/>
<path style="fill-rule:nonzero;fill:rgb(0%,41.960784%,24.705882%);fill-opacity:1;stroke-width:2.5;stroke-linecap:butt;stroke-linejoin:miter;stroke:rgb(0%,0%,0%);stroke-opacity:1;stroke-miterlimit:4;" d="M 448.222133 905.092715 C 447.6578 891.521962 438.823084 880.914824 427.177765 880.705505 C 415.585429 880.852827 406.307121 891.690155 406.09395 904.913476 C 406.658283 918.484229 415.493 929.091368 427.138319 929.300686 C 438.730654 929.153364 448.008962 918.316036 448.222133 905.092715 Z M 448.222133 905.092715 " transform="matrix(0.00538133,0.000138933,-0.000799467,0.0109323,14.79984,-1.093707)"/>
<path style="fill-rule:nonzero;fill:rgb(0%,41.960784%,24.705882%);fill-opacity:1;stroke-width:2.5;stroke-linecap:butt;stroke-linejoin:miter;stroke:rgb(0%,0%,0%);stroke-opacity:1;stroke-miterlimit:4;" d="M 448.036845 905.108334 C 448.197033 891.528372 438.637796 880.930442 426.992477 880.721123 C 415.400141 880.868445 406.121833 891.705774 406.633183 904.919887 C 406.472995 918.499848 415.307712 929.106986 426.953031 929.316305 C 438.545366 929.168983 447.823674 918.331654 448.036845 905.108334 Z M 448.036845 905.108334 " transform="matrix(0.00538133,0.000138933,-0.000799467,0.0109323,14.640693,-1.203227)"/>
<path style="fill-rule:nonzero;fill:rgb(83.137255%,10.980392%,18.823529%);fill-opacity:1;stroke-width:1.25;stroke-linecap:butt;stroke-linejoin:miter;stroke:rgb(0%,0%,0%);stroke-opacity:1;stroke-miterlimit:4;" d="M 682.43595 606.212512 C 682.818714 503.0234 656.702421 419.543361 624.127753 419.546314 C 592.188197 419.808709 565.858424 503.003474 566.110771 606.452027 C 566.000348 708.96947 592.116641 792.449508 624.691308 792.446555 C 656.358524 792.85583 682.960638 708.989396 682.43595 606.212512 Z M 682.43595 606.212512 " transform="matrix(0.00527653,-0.00203813,0.00213947,0.00498933,11.84432,6.420987)"/>
<path style="fill-rule:nonzero;fill:rgb(0%,41.960784%,24.705882%);fill-opacity:1;stroke-width:1.464;stroke-linecap:butt;stroke-linejoin:miter;stroke:rgb(0%,0%,0%);stroke-opacity:1;stroke-miterlimit:4;" d="M 228.80991 356.651305 C 229.0096 349.50015 224.228912 343.659786 218.057287 343.808155 C 212.17955 343.949459 207.256737 349.626081 207.350935 356.770171 C 207.445132 363.91426 212.22582 369.754625 218.103558 369.613321 C 223.981295 369.472017 228.904108 363.795394 228.80991 356.651305 Z M 228.80991 356.651305 " transform="matrix(0.0132875,0.000236533,-0.0001752,0.00983893,13.3464,3.659467)"/>
<path style="fill-rule:nonzero;fill:rgb(0%,41.960784%,24.705882%);fill-opacity:1;stroke-width:1.546;stroke-linecap:butt;stroke-linejoin:miter;stroke:rgb(0%,0%,0%);stroke-opacity:1;stroke-miterlimit:4;" d="M 228.850642 356.656455 C 229.073554 349.505298 224.064967 343.657923 218.159815 343.785162 C 212.254663 343.9124 207.415487 349.574945 207.192575 356.726102 C 207.297727 363.870191 212.306314 369.717565 218.211466 369.590327 C 224.116618 369.463088 228.955794 363.800543 228.850642 356.656455 Z M 228.850642 356.656455 " transform="matrix(0.0119032,0.000212,-0.0001752,0.00983893,13.7564,3.485333)"/>
<path style="fill-rule:nonzero;fill:rgb(0%,41.960784%,24.705882%);fill-opacity:1;stroke-width:1.546;stroke-linecap:butt;stroke-linejoin:miter;stroke:rgb(0%,0%,0%);stroke-opacity:1;stroke-miterlimit:4;" d="M 229.009976 356.570399 C 228.904824 349.426311 224.230143 343.968761 217.991085 343.706175 C 212.085933 343.833413 207.246758 349.495959 207.35191 356.640047 C 207.457062 363.784135 212.137584 369.638579 218.042737 369.51134 C 223.953731 369.780995 228.787064 363.721556 229.009976 356.570399 Z M 229.009976 356.570399 " transform="matrix(0.0119032,0.000212,-0.0001752,0.00983893,13.582613,3.48224)"/>
<path style="fill-rule:nonzero;fill:rgb(0%,41.960784%,24.705882%);fill-opacity:1;stroke-width:1.56;stroke-linecap:butt;stroke-linejoin:miter;stroke:rgb(0%,0%,0%);stroke-opacity:1;stroke-miterlimit:4;" d="M 228.902483 356.833417 C 228.807554 349.646176 224.027213 343.840221 218.071139 343.983289 C 212.109481 343.703579 207.172017 349.742961 207.266946 356.930202 C 207.356291 363.694664 212.136632 369.500619 218.09829 369.78033 C 224.054364 369.637262 228.997412 364.020658 228.902483 356.833417 Z M 228.902483 356.833417 " transform="matrix(0.0124571,0.000221867,-0.000164533,0.00923653,13.49632,3.563467)"/>
<path style="fill-rule:nonzero;fill:rgb(0%,41.960784%,24.705882%);fill-opacity:1;stroke-width:1.56;stroke-linecap:butt;stroke-linejoin:miter;stroke:rgb(0%,0%,0%);stroke-opacity:1;stroke-miterlimit:4;" d="M 228.874425 356.643859 C 229.092973 349.449089 223.999155 343.650663 218.043081 343.793731 C 212.087007 343.936799 207.457436 349.545873 207.238888 356.740644 C 207.333817 363.927885 212.114158 369.73384 218.070232 369.590772 C 224.026306 369.447704 228.969354 363.8311 228.874425 356.643859 Z M 228.874425 356.643859 " transform="matrix(0.0124571,0.000221867,-0.000164533,0.00923653,13.481013,3.41288)"/>
<path style="fill-rule:nonzero;fill:rgb(0%,41.960784%,24.705882%);fill-opacity:1;stroke-width:1.546;stroke-linecap:butt;stroke-linejoin:miter;stroke:rgb(0%,0%,0%);stroke-opacity:1;stroke-miterlimit:4;" d="M 228.846688 356.561467 C 229.075442 349.807204 224.066856 343.959829 218.155862 343.690174 C 212.250709 343.817412 207.411534 349.479958 207.188622 356.631115 C 207.293774 363.775203 212.302361 369.622578 218.207513 369.495339 C 224.118507 369.764994 228.95184 363.705555 228.846688 356.561467 Z M 228.846688 356.561467 " transform="matrix(0.0119032,0.000212,-0.0001752,0.00983893,13.416587,3.3808)"/>
<path style="fill-rule:nonzero;fill:rgb(0%,41.960784%,24.705882%);fill-opacity:1;stroke-width:1.562;stroke-linecap:butt;stroke-linejoin:miter;stroke:rgb(0%,0%,0%);stroke-opacity:1;stroke-miterlimit:4;" d="M 228.871537 356.810065 C 229.094383 349.509923 224.091587 343.945889 218.18059 343.670615 C 212.275439 343.800505 207.436317 349.581022 207.213471 356.881164 C 207.312844 363.768928 211.993422 369.745341 218.226637 369.608235 C 224.131788 369.478346 228.97091 363.697829 228.871537 356.810065 Z M 228.871537 356.810065 " transform="matrix(0.0119032,0.000212,-0.000171733,0.00963813,13.45416,3.28984)"/>
<path style="fill-rule:nonzero;fill:rgb(0%,41.960784%,24.705882%);fill-opacity:1;stroke-width:1.464;stroke-linecap:butt;stroke-linejoin:miter;stroke:rgb(0%,0%,0%);stroke-opacity:1;stroke-miterlimit:4;" d="M 229.066615 356.773239 C 228.972417 349.629149 224.191729 343.788785 218.020105 343.937154 C 212.137134 343.681564 207.219555 349.75508 207.313752 356.89917 C 207.407949 364.043259 212.183404 369.48673 218.066375 369.74232 C 224.237999 369.59395 228.866925 363.924393 229.066615 356.773239 Z M 229.066615 356.773239 " transform="matrix(0.0132875,0.000236533,-0.0001752,0.00983893,12.940667,3.2168)"/>
<path style="fill-rule:nonzero;fill:rgb(0%,41.960784%,24.705882%);fill-opacity:1;stroke-width:1.56;stroke-linecap:butt;stroke-linejoin:miter;stroke:rgb(0%,0%,0%);stroke-opacity:1;stroke-miterlimit:4;" d="M 228.94606 356.736691 C 228.85113 349.54945 224.07079 343.743494 218.114716 343.886563 C 212.158642 344.029631 207.215593 349.646235 207.310523 356.833475 C 207.405452 364.020716 212.185793 369.826671 218.141867 369.683603 C 224.097941 369.540535 229.040989 363.923931 228.94606 356.736691 Z M 228.94606 356.736691 " transform="matrix(0.0124571,0.000221867,-0.000164533,0.00923653,13.38248,3.224507)"/>
<path style="fill-rule:nonzero;fill:rgb(0%,41.960784%,24.705882%);fill-opacity:1;stroke-width:1.562;stroke-linecap:butt;stroke-linejoin:miter;stroke:rgb(0%,0%,0%);stroke-opacity:1;stroke-miterlimit:4;" d="M 228.844906 356.825133 C 229.067751 349.524991 224.064956 343.960957 218.153959 343.685684 C 212.248808 343.815573 207.409686 349.59609 207.18684 356.896232 C 207.286213 363.783996 212.294855 369.753193 218.200006 369.623303 C 224.105157 369.493414 228.944279 363.712897 228.844906 356.825133 Z M 228.844906 356.825133 " transform="matrix(0.0119032,0.000212,-0.000171733,0.00963813,13.325573,3.106107)"/>
<path style="fill-rule:nonzero;fill:rgb(0%,41.960784%,24.705882%);fill-opacity:1;stroke-width:1.546;stroke-linecap:butt;stroke-linejoin:miter;stroke:rgb(0%,0%,0%);stroke-opacity:1;stroke-miterlimit:4;" d="M 228.824478 356.886083 C 229.04739 349.734926 224.038803 343.887551 218.133651 344.01479 C 212.222657 343.745135 207.389323 349.804574 207.16057 356.558837 C 207.265721 363.702925 212.274308 369.5503 218.185302 369.819955 C 224.090454 369.692716 228.92963 364.030171 228.824478 356.886083 Z M 228.824478 356.886083 " transform="matrix(0.0119032,0.000212,-0.0001752,0.00983893,13.053627,3.229173)"/>
<path style="fill-rule:nonzero;fill:rgb(0%,41.960784%,24.705882%);fill-opacity:1;stroke-width:1.562;stroke-linecap:butt;stroke-linejoin:miter;stroke:rgb(0%,0%,0%);stroke-opacity:1;stroke-miterlimit:4;" d="M 228.998 356.581358 C 228.898626 349.693595 224.218049 343.717181 217.984834 343.854287 C 212.079683 343.984176 207.240561 349.764693 207.339934 356.652457 C 207.445152 363.945383 212.119884 369.516634 218.030881 369.791907 C 224.264096 369.654801 229.103218 363.874284 228.998 356.581358 Z M 228.998 356.581358 " transform="matrix(0.0119032,0.000212,-0.000171733,0.00963813,13.097147,3.20608)"/>
<path style="fill-rule:nonzero;fill:rgb(0%,41.960784%,24.705882%);fill-opacity:1;stroke-width:1.562;stroke-linecap:butt;stroke-linejoin:miter;stroke:rgb(0%,0%,0%);stroke-opacity:1;stroke-miterlimit:4;" d="M 229.004355 356.900523 C 228.899136 349.607597 224.224404 344.036346 217.985344 343.768289 C 212.080192 343.898179 207.24107 349.678696 207.340443 356.566459 C 207.445662 363.859385 212.126239 369.835798 218.03139 369.705909 C 224.264605 369.568803 229.103728 363.788286 229.004355 356.900523 Z M 229.004355 356.900523 " transform="matrix(0.0119032,0.000212,-0.000171733,0.00963813,13.151813,3.10144)"/>
<path style="fill-rule:nonzero;fill:rgb(0%,41.960784%,24.705882%);fill-opacity:1;stroke-width:2.545;stroke-linecap:butt;stroke-linejoin:miter;stroke:rgb(0%,0%,0%);stroke-opacity:1;stroke-miterlimit:4;" d="M 596.046107 564.401297 C 596.324463 450.667539 566.000466 358.559071 528.540739 358.703517 C 491.660919 359.070228 461.237486 451.098637 461.208378 564.202828 C 461.509928 678.158852 491.25402 770.045054 528.713746 769.900609 C 565.924224 770.38573 595.767751 678.135055 596.046107 564.401297 Z M 596.046107 564.401297 " transform="matrix(0.00584853,-0.0020648,0.00231547,0.0053872,12.132933,6.065173)"/>
<path style="fill-rule:nonzero;fill:rgb(0%,41.960784%,24.705882%);fill-opacity:1;stroke-width:2.5;stroke-linecap:butt;stroke-linejoin:miter;stroke:rgb(0%,0%,0%);stroke-opacity:1;stroke-miterlimit:4;" d="M 542.173344 645.876459 C 541.76145 623.571289 536.052147 605.040453 528.868249 605.179524 C 521.097151 605.047517 515.312217 623.800867 515.13691 645.834959 C 515.286425 668.710098 521.258107 686.670965 529.029205 686.802971 C 536.213103 686.6639 541.735658 668.48052 542.173344 645.876459 Z M 542.173344 645.876459 " transform="matrix(0.0054864,-0.00260933,0.0025256,0.00565227,12.343413,5.93592)"/>
<path style="fill-rule:nonzero;fill:rgb(0%,41.960784%,24.705882%);fill-opacity:1;stroke-width:0.575;stroke-linecap:butt;stroke-linejoin:miter;stroke:rgb(0%,0%,0%);stroke-opacity:1;stroke-miterlimit:4;" d="M 31.494141 7.763672 C 44.238281 23.4375 42.626953 33.251953 41.308594 41.748047 C 37.353516 32.080078 35.15625 25.927734 22.265625 10.400391 C 9.521484 -5.273438 15.820312 -16.259766 16.699219 -21.972656 C 18.603516 -16.992188 18.603516 -7.763672 31.494141 7.763672 Z M 31.494141 7.763672 " transform="matrix(0.0266667,0,0,0.0266667,16,8)"/>
<path style="fill-rule:nonzero;fill:rgb(0%,41.960784%,24.705882%);fill-opacity:1;stroke-width:0.575;stroke-linecap:butt;stroke-linejoin:miter;stroke:rgb(0%,0%,0%);stroke-opacity:1;stroke-miterlimit:4;" d="M 32.666016 20.361328 C 45.410156 36.035156 43.798828 45.849609 42.480469 54.345703 C 38.378906 44.677734 36.181641 38.525391 23.4375 22.998047 C 10.693359 7.324219 16.992188 -3.662109 17.871094 -9.375 C 19.775391 -4.394531 19.775391 4.833984 32.666016 20.361328 Z M 32.666016 20.361328 " transform="matrix(0.0266667,0,0,0.0266667,16,8)"/>
<path style="fill-rule:nonzero;fill:rgb(0%,41.960784%,24.705882%);fill-opacity:1;stroke-width:0.575;stroke-linecap:butt;stroke-linejoin:miter;stroke:rgb(0%,0%,0%);stroke-opacity:1;stroke-miterlimit:4;" d="M 32.958984 30.615234 C 46.142578 45.849609 44.677734 55.810547 43.505859 64.160156 C 39.257812 54.638672 37.060547 48.632812 23.876953 33.251953 C 10.693359 18.017578 16.992188 6.884766 17.724609 1.025391 C 19.775391 6.005859 19.921875 15.234375 32.958984 30.615234 Z M 32.958984 30.615234 " transform="matrix(0.0266667,0,0,0.0266667,16,8)"/>
<path style="fill-rule:nonzero;fill:rgb(0%,41.960784%,24.705882%);fill-opacity:1;stroke-width:1.389;stroke-linecap:butt;stroke-linejoin:miter;stroke:rgb(0%,0%,0%);stroke-opacity:1;stroke-miterlimit:4;" d="M 541.97741 645.90157 C 542.183232 623.46206 536.051376 605.098635 528.738121 605.415818 C 521.244724 605.295626 515.258004 623.431252 515.375033 645.959494 C 515.492061 668.487737 521.301067 686.762428 528.794464 686.88262 C 535.965011 686.914078 541.951731 668.778453 541.97741 645.90157 Z M 541.97741 645.90157 " transform="matrix(0.0108757,-0.002768,0.00445173,0.0100712,8.011467,2.772533)"/>
<path style="fill-rule:nonzero;fill:rgb(0%,41.960784%,24.705882%);fill-opacity:1;stroke-width:1.64;stroke-linecap:butt;stroke-linejoin:miter;stroke:rgb(0%,0%,0%);stroke-opacity:1;stroke-miterlimit:4;" d="M 542.114058 645.953313 C 542.085977 623.45844 536.10258 605.383949 528.558255 605.266905 C 521.386575 605.225069 515.262487 623.667141 515.290568 646.162014 C 515.318649 668.656886 521.302046 686.731378 528.846371 686.848422 C 536.018051 686.890258 542.142139 668.448186 542.114058 645.953313 Z M 542.114058 645.953313 " transform="matrix(0.009784,-0.00168267,0.0034608,0.00833733,9.093253,3.550107)"/>
<path style="fill-rule:nonzero;fill:rgb(0%,41.960784%,24.705882%);fill-opacity:1;stroke-width:1.64;stroke-linecap:butt;stroke-linejoin:miter;stroke:rgb(0%,0%,0%);stroke-opacity:1;stroke-miterlimit:4;" d="M 541.845214 645.966328 C 542.132342 623.71722 535.917799 605.437716 528.859261 605.128467 C 521.277993 605.192078 515.483451 623.687495 515.57214 646.002538 C 515.138099 668.690442 521.352642 686.969946 528.558093 686.840399 C 536.139361 686.776787 541.786989 668.720168 541.845214 645.966328 Z M 541.845214 645.966328 " transform="matrix(0.00981733,-0.0014752,0.00328693,0.00840827,9.026027,3.551467)"/>
<path style="fill-rule:nonzero;fill:rgb(0%,41.960784%,24.705882%);fill-opacity:1;stroke-width:2.097;stroke-linecap:butt;stroke-linejoin:miter;stroke:rgb(0%,0%,0%);stroke-opacity:1;stroke-miterlimit:4;" d="M 541.827899 646.169575 C 541.929214 623.568171 535.988025 605.215056 528.524339 605.361359 C 521.060654 605.507663 515.233756 623.632584 515.132441 646.233988 C 515.031125 668.835391 521.189577 686.610658 528.436 687.042203 C 535.899686 686.8959 541.726584 668.770978 541.827899 646.169575 Z M 541.827899 646.169575 " transform="matrix(0.0079088,-0.00144827,0.0029736,0.00621547,10.371467,4.385653)"/>
<path style="fill-rule:nonzero;fill:rgb(0%,41.960784%,24.705882%);fill-opacity:1;stroke-width:2.097;stroke-linecap:butt;stroke-linejoin:miter;stroke:rgb(0%,0%,0%);stroke-opacity:1;stroke-miterlimit:4;" d="M 541.85761 645.925032 C 542.324012 623.296127 535.976495 605.104998 528.622253 605.161579 C 521.268011 605.21816 515.421324 623.309064 515.420058 646.012008 C 515.418792 668.714951 521.301172 686.832042 528.655415 686.775461 C 536.009657 686.71888 541.856343 668.627976 541.85761 645.925032 Z M 541.85761 645.925032 " transform="matrix(0.0079872,-0.00101333,0.00258133,0.00636613,10.446133,4.1636)"/>
<path style="fill-rule:nonzero;fill:rgb(0%,41.960784%,24.705882%);fill-opacity:1;stroke-width:0.575;stroke-linecap:butt;stroke-linejoin:miter;stroke:rgb(0%,0%,0%);stroke-opacity:1;stroke-miterlimit:4;" d="M 8.642578 -15.820312 C 12.451172 -6.445312 13.916016 1.757812 12.011719 2.783203 C 10.107422 3.808594 5.566406 -2.929688 1.757812 -12.158203 " transform="matrix(0.0266667,0,0,0.0266667,16,8)"/>
<path style="fill-rule:nonzero;fill:rgb(0%,41.960784%,24.705882%);fill-opacity:1;stroke-width:2.097;stroke-linecap:butt;stroke-linejoin:miter;stroke:rgb(0%,0%,0%);stroke-opacity:1;stroke-miterlimit:4;" d="M 541.937069 646.072377 C 541.938335 623.369433 536.055954 605.252343 528.701712 605.308924 C 521.34747 605.365505 515.500783 623.456409 515.499517 646.159353 C 515.49825 668.862296 521.380631 686.979387 528.734873 686.922806 C 536.089116 686.866225 541.935802 668.775321 541.937069 646.072377 Z M 541.937069 646.072377 " transform="matrix(0.0079872,-0.00101333,0.00258133,0.00636613,10.429493,3.87368)"/>
<path style="fill-rule:nonzero;fill:rgb(0%,41.960784%,24.705882%);fill-opacity:1;stroke-width:2.097;stroke-linecap:butt;stroke-linejoin:miter;stroke:rgb(0%,0%,0%);stroke-opacity:1;stroke-miterlimit:4;" d="M 542.100041 645.871438 C 542.130125 623.345016 535.869543 605.459552 528.660614 605.106533 C 521.273519 605.338671 515.281666 623.415978 515.251582 645.942401 C 515.221498 668.468823 521.303915 686.939444 528.691009 686.707306 C 535.899938 687.060325 542.069957 668.397861 542.100041 645.871438 Z M 542.100041 645.871438 " transform="matrix(0.00800853,-0.000856,0.0024384,0.00641493,10.341493,3.840347)"/>
<path style="fill-rule:nonzero;fill:rgb(0%,41.960784%,24.705882%);fill-opacity:1;stroke-width:0.575;stroke-linecap:butt;stroke-linejoin:miter;stroke:rgb(0%,0%,0%);stroke-opacity:1;stroke-miterlimit:4;" d="M 2.050781 -28.271484 C 5.712891 -22.119141 7.617188 -16.259766 6.445312 -15.234375 C 5.273438 -14.355469 1.171875 -18.603516 -2.490234 -24.902344 " transform="matrix(0.0266667,0,0,0.0266667,16,8)"/>
<path style="fill-rule:nonzero;fill:rgb(0%,41.960784%,24.705882%);fill-opacity:1;stroke-width:0.575;stroke-linecap:butt;stroke-linejoin:miter;stroke:rgb(0%,0%,0%);stroke-opacity:1;stroke-miterlimit:4;" d="M 4.541016 -32.519531 C 8.203125 -26.220703 10.253906 -20.361328 8.935547 -19.482422 C 7.763672 -18.457031 3.808594 -22.851562 0.146484 -29.003906 M 15.966797 -31.640625 C 21.09375 -22.998047 23.876953 -15.087891 22.119141 -13.769531 C 20.507812 -12.451172 14.941406 -18.457031 9.814453 -26.953125 " transform="matrix(0.0266667,0,0,0.0266667,16,8)"/>
<path style="fill-rule:nonzero;fill:rgb(0%,41.960784%,24.705882%);fill-opacity:1;stroke-width:0.575;stroke-linecap:butt;stroke-linejoin:miter;stroke:rgb(0%,0%,0%);stroke-opacity:1;stroke-miterlimit:4;" d="M 8.496094 -36.035156 C 12.158203 -29.150391 14.208984 -22.705078 12.890625 -21.679688 C 11.71875 -20.654297 7.617188 -25.488281 3.955078 -32.373047 " transform="matrix(0.0266667,0,0,0.0266667,16,8)"/>
<path style="fill-rule:nonzero;fill:rgb(58.039216%,38.039216%,78.823529%);fill-opacity:1;stroke-width:0.591;stroke-linecap:butt;stroke-linejoin:miter;stroke:rgb(0%,0%,0%);stroke-opacity:1;stroke-miterlimit:4;" d="M 8.056641 -46.142578 C 5.712891 -43.652344 8.056641 -38.964844 10.400391 -37.353516 C 12.890625 -35.009766 27.099609 -20.068359 37.060547 -32.666016 C 29.003906 -32.8125 14.0625 -51.5625 8.056641 -46.142578 Z M 8.056641 -46.142578 " transform="matrix(0.0266667,0,0,0.0266667,16,8)"/>
<path style="fill-rule:nonzero;fill:rgb(58.039216%,38.039216%,78.823529%);fill-opacity:1;stroke-width:0.591;stroke-linecap:butt;stroke-linejoin:miter;stroke:rgb(0%,0%,0%);stroke-opacity:1;stroke-miterlimit:4;" d="M 6.298828 -53.466797 C 3.955078 -50.976562 6.298828 -46.289062 8.642578 -44.677734 C 11.132812 -42.333984 25.341797 -27.392578 35.302734 -39.990234 C 27.246094 -40.136719 12.304688 -59.033203 6.298828 -53.466797 Z M 6.298828 -53.466797 " transform="matrix(0.0266667,0,0,0.0266667,16,8)"/>
<path style="fill-rule:nonzero;fill:rgb(58.039216%,38.039216%,78.823529%);fill-opacity:1;stroke-width:0.591;stroke-linecap:butt;stroke-linejoin:miter;stroke:rgb(0%,0%,0%);stroke-opacity:1;stroke-miterlimit:4;" d="M 4.101562 -60.644531 C 1.611328 -58.154297 4.101562 -53.466797 6.298828 -51.708984 C 8.789062 -49.511719 22.998047 -34.423828 33.105469 -47.167969 C 25.048828 -47.314453 10.107422 -66.064453 4.101562 -60.644531 Z M 4.101562 -60.644531 " transform="matrix(0.0266667,0,0,0.0266667,16,8)"/>
<path style="fill-rule:nonzero;fill:rgb(58.039216%,38.039216%,78.823529%);fill-opacity:1;stroke-width:0.591;stroke-linecap:butt;stroke-linejoin:miter;stroke:rgb(0%,0%,0%);stroke-opacity:1;stroke-miterlimit:4;" d="M -0.732422 -68.701172 C -3.222656 -66.210938 -0.878906 -61.523438 1.464844 -59.912109 C 3.955078 -57.568359 18.164062 -42.626953 28.271484 -55.224609 C 20.214844 -55.371094 5.126953 -74.267578 -0.732422 -68.701172 Z M -0.732422 -68.701172 " transform="matrix(0.0266667,0,0,0.0266667,16,8)"/>
<path style="fill-rule:nonzero;fill:rgb(58.039216%,38.039216%,78.823529%);fill-opacity:1;stroke-width:0.628;stroke-linecap:butt;stroke-linejoin:miter;stroke:rgb(0%,0%,0%);stroke-opacity:1;stroke-miterlimit:4;" d="M -18.310547 -76.464844 C -13.183594 -80.273438 -3.808594 -81.298828 3.369141 -77.636719 C 9.521484 -74.707031 19.628906 -62.548828 27.099609 -59.765625 C 21.826172 -58.740234 18.603516 -59.619141 15.087891 -61.230469 C 8.349609 -56.25 6.005859 -55.517578 -0.878906 -54.638672 C -10.400391 -53.173828 -18.310547 -55.664062 -21.09375 -60.644531 C -24.023438 -65.478516 -22.705078 -72.949219 -18.310547 -76.464844 Z M -18.310547 -76.464844 " transform="matrix(0.0266667,0,0,0.0266667,16,8)"/>
<path style="fill-rule:nonzero;fill:rgb(83.137255%,10.980392%,18.823529%);fill-opacity:1;stroke-width:2.5;stroke-linecap:butt;stroke-linejoin:miter;stroke:rgb(0%,0%,0%);stroke-opacity:1;stroke-miterlimit:4;" d="M 301.520179 322.943263 C 301.444386 315.159985 295.218183 308.44156 287.155905 307.838348 C 279.575805 308.084557 273.002168 314.353651 273.086383 323.001738 C 273.170597 331.649825 279.3968 338.36825 287.450656 338.106653 C 295.030756 337.860444 301.604394 331.59135 301.520179 322.943263 Z M 301.520179 322.943263 " transform="matrix(0.00824267,0.000146667,-0.0000802667,0.00451547,13.45856,4.6616)"/>
<path style="fill-rule:nonzero;fill:rgb(98.823529%,81.960784%,8.627451%);fill-opacity:1;stroke-width:2.5;stroke-linecap:butt;stroke-linejoin:miter;stroke:rgb(0%,0%,0%);stroke-opacity:1;stroke-miterlimit:4;" d="M 227.99215 348.212481 C 227.898781 339.488037 217.154524 332.334594 204.603109 332.44485 C 191.528003 332.336696 181.41798 339.478196 181.511348 348.202641 C 181.604717 356.927085 191.825282 363.862118 204.900389 363.970272 C 217.451804 363.860016 228.085518 356.936926 227.99215 348.212481 Z M 227.99215 348.212481 " transform="matrix(0.00655467,-0.0024384,0.00216853,0.00584667,13.348133,4.89896)"/>
<path style=" stroke:none;fill-rule:nonzero;fill:rgb(0%,0%,0%);fill-opacity:1;" d="M 15.835938 6.160156 C 15.835938 6.179688 15.816406 6.195312 15.792969 6.195312 C 15.769531 6.195312 15.75 6.175781 15.753906 6.15625 C 15.753906 6.136719 15.773438 6.121094 15.792969 6.121094 C 15.816406 6.121094 15.835938 6.136719 15.835938 6.160156 Z M 15.835938 6.160156 "/>
<path style="fill-rule:nonzero;fill:rgb(98.823529%,81.960784%,8.627451%);fill-opacity:1;stroke-width:0.732;stroke-linecap:butt;stroke-linejoin:miter;stroke:rgb(0%,0%,0%);stroke-opacity:1;stroke-miterlimit:4;" d="M -17.138672 -65.478516 C -16.699219 -63.574219 -18.164062 -60.9375 -21.240234 -60.058594 C -24.462891 -58.740234 -26.953125 -55.664062 -28.271484 -50.830078 C -33.251953 -61.962891 -30.029297 -66.650391 -24.902344 -67.822266 C -20.507812 -69.287109 -17.871094 -69.140625 -17.138672 -65.478516 Z M -17.138672 -65.478516 " transform="matrix(0.0266667,0,0,0.0266667,16,8)"/>
</g>
</svg>
