<svg xmlns="http://www.w3.org/2000/svg" xmlns:xlink="http://www.w3.org/1999/xlink" id="flag-icons-do" viewBox="0 0 24 18" width="24" height="16"><path fill="#fff" d="M0 0h24v18H0Z"/><path fill="#002d62" d="M0 0h10.2v7.2H0Zm13.8 10.8h10.2v7.2H13.8Z"/><path fill="#ce1126" d="M0 10.8h10.2v7.2H0ZM13.8 0h10.2v7.2H13.8Z"/><path fill="#201b18" d="M11.527 7.372a1.309 1.309 0 0 0 -0.713 0.184c-0.098 0.06 -0.12 0.079 -0.068 0.176l-0.124 0.041a1.425 1.425 0 0 0 -0.225 0.101c-0.045 0.026 -0.06 0.045 -0.094 0.079l0.199 -0.015 -0.026 0.045c-0.037 0.049 -0.056 0.086 -0.086 0.139 0.056 -0.037 0.109 -0.075 0.172 -0.105 0.142 -0.075 0.401 -0.075 0.506 -0.203 0.026 -0.034 0.011 -0.052 -0.011 -0.105 0.075 -0.022 0.109 -0.041 0.203 -0.064 0.229 -0.052 0.386 0.011 0.499 -0.019 0.037 -0.007 0.068 -0.026 0.071 -0.064l-0.019 -0.112h0.375c0 0.064 -0.064 0.15 0.052 0.176 0.105 0.03 0.315 -0.03 0.499 0.019l0.203 0.068 -0.019 0.049c-0.011 0.022 -0.007 0.037 0.007 0.052 0.019 0.022 0.045 0.045 0.075 0.06a0.836 0.836 0 0 0 0.21 0.075c0.214 0.049 0.232 0.064 0.394 0.172 -0.011 -0.034 -0.086 -0.146 -0.112 -0.188l0.199 0.019c-0.037 -0.052 -0.139 -0.109 -0.199 -0.131l-0.244 -0.09c0.022 -0.037 0.037 -0.075 0.019 -0.112a0.9 0.9 0 0 0 -0.289 -0.161 2.55 2.55 0 0 0 -0.263 -0.06l-0.255 -0.026c-0.011 -0.011 0.022 -0.075 -0.03 -0.124 -0.03 -0.022 -0.075 -0.034 -0.124 -0.037 -0.188 -0.019 -0.435 -0.011 -0.623 0 -0.056 0.004 -0.094 0.011 -0.124 0.037 -0.037 0.037 -0.041 0.056 -0.037 0.124"/><g fill="#002d62"><path d="M11.576 7.504c0.03 -0.022 0.034 -0.03 0.075 -0.045 0.098 -0.034 0.247 -0.03 0.349 -0.03 0.083 0 0.161 0 0.244 0.007s0.128 0.019 0.184 0.064c0.011 -0.056 0.022 -0.105 0.022 -0.169 0.004 -0.068 -0.037 -0.086 -0.094 -0.098 -0.098 -0.022 -0.263 -0.019 -0.375 -0.019a2.362 2.362 0 0 0 -0.364 0.022c-0.045 0.015 -0.083 0.052 -0.075 0.112 0 0.034 0.022 0.135 0.037 0.154z"/><path d="M10.852 7.826c0.015 -0.015 0.004 -0.03 0.083 -0.075a1.305 1.305 0 0 1 0.349 -0.128c0.098 -0.019 0.199 -0.019 0.3 -0.011 0.045 0.004 0.105 0.011 0.15 0.004 0 0 0.049 -0.011 0.064 -0.022 0.015 -0.015 0.015 -0.052 0.015 -0.052 -0.034 -0.026 -0.128 0.068 -0.21 0.037 -0.026 -0.007 -0.037 -0.052 -0.045 -0.086l-0.03 -0.101a1.316 1.316 0 0 0 -0.563 0.105c-0.068 0.03 -0.172 0.083 -0.214 0.124 -0.037 0.037 0 0.09 0.022 0.116 0.022 0.034 0.06 0.075 0.075 0.09zm1.335 -0.285c-0.007 0.052 0.03 0.068 0.079 0.075 0.101 0.015 0.251 -0.03 0.45 0.007a1.313 1.313 0 0 1 0.24 0.075c0.03 0.015 0.135 0.06 0.154 0.083l0.037 0.045c0.011 -0.004 0.068 -0.075 0.079 -0.09 0.026 -0.026 0.056 -0.075 0.022 -0.116a0.938 0.938 0 0 0 -0.214 -0.124 1.455 1.455 0 0 0 -0.292 -0.079c-0.094 -0.015 -0.285 -0.03 -0.285 -0.03s-0.011 0.176 -0.06 0.191c-0.094 0.03 -0.142 -0.052 -0.21 -0.037"/><path d="M12.938 7.762c-0.007 0.022 -0.019 0.026 0.034 0.068 0.112 0.098 0.315 0.101 0.435 0.154 0.064 0.03 0.098 0.052 0.154 0.086 -0.004 -0.019 -0.075 -0.12 -0.094 -0.15l0.184 0.007 -0.007 -0.007c-0.083 -0.071 -0.296 -0.139 -0.401 -0.172l-0.094 0.105c-0.011 0.011 -0.022 0.022 -0.049 0.015 -0.03 -0.011 -0.056 -0.037 -0.075 -0.056 -0.022 -0.019 -0.06 -0.049 -0.086 -0.052zm-0.75 -0.24c0.064 0.004 0.071 0.015 0.112 0.037l0.068 0.007c0.034 0 0.037 -0.007 0.045 -0.034 0.011 -0.037 -0.049 -0.06 -0.075 -0.064l-0.131 -0.022zm-0.375 0 -0.015 -0.075c-0.037 0 -0.225 0.03 -0.21 0.086 0.007 0.026 0.011 0.03 0.037 0.037 0.083 0.004 0.098 -0.045 0.188 -0.049m-0.945 0.315c0.026 0.049 0.098 -0.037 0.139 -0.068 0.022 -0.019 0.026 -0.015 0.052 -0.026l-0.015 -0.026 -0.101 0.049c-0.03 0.019 -0.068 0.037 -0.075 0.075z"/><path d="M12.941 7.744c0.011 0 0.019 0.004 0.03 0.011 0.06 0.034 0.131 0.124 0.161 0.09 0.015 -0.019 -0.049 -0.064 -0.068 -0.075l-0.105 -0.049a0.06 0.06 0 0 0 -0.019 0.022m-1.883 0.019c0.007 0.026 0.019 0.03 -0.03 0.071 -0.12 0.094 -0.315 0.101 -0.439 0.154 -0.064 0.026 -0.098 0.049 -0.15 0.083 0 -0.015 0.075 -0.12 0.094 -0.15l-0.188 0.011 0.011 -0.007c0.083 -0.075 0.292 -0.139 0.397 -0.176l0.034 0.037a1.387 1.387 0 0 0 0.06 0.071c0.015 0.011 0.022 0.019 0.049 0.011 0.034 -0.007 0.06 -0.037 0.075 -0.052 0.022 -0.019 0.06 -0.052 0.086 -0.052"/></g><path fill="#eac102" d="M11.089 7.492c-0.019 0 -0.034 0.007 -0.049 0.011 -0.004 0 -0.019 0.007 -0.007 0.011 0.007 0.004 0.007 0.015 0.011 0.022l0.011 0.034 0.019 0.052c0 0.004 0 0.015 0.007 0.011l0.03 -0.011c0.011 -0.004 0.022 -0.011 0.03 -0.026l0.007 -0.019a0.03 0.03 0 0 0 0 -0.015c0 -0.007 0 -0.015 -0.007 -0.022a0.068 0.068 0 0 0 -0.015 -0.03c-0.007 -0.007 -0.015 -0.015 -0.026 -0.015a0.03 0.03 0 0 0 -0.011 -0.004m-0.007 0.011c0.007 0 0.019 0.007 0.022 0.019l0.015 0.026 0.007 0.049c0 0.007 -0.011 0.011 -0.019 0.019 -0.007 0 -0.015 -0.004 -0.015 -0.011l-0.007 -0.022 -0.015 -0.037a0.176 0.176 0 0 1 -0.007 -0.03c0 -0.007 0.007 -0.011 0.015 -0.011zm0.064 -0.034 0.011 0.011 0.007 0.022 0.004 0.019 0.007 0.026 0.007 0.022v0.022s0 0.007 0.004 0h0.019c0.004 0 0.011 0 0.011 -0.007l-0.007 -0.011 -0.007 -0.03 -0.007 -0.019 -0.004 -0.015 -0.011 -0.034v-0.011c0 -0.007 -0.007 0 -0.011 0zm0.112 -0.03c-0.011 0 -0.022 0.004 -0.03 0.011l-0.011 0.034v0.03l0.022 0.045 0.026 0.015h0.022c0.011 -0.004 0.022 -0.015 0.026 -0.026l0.004 -0.03v-0.026a0.098 0.098 0 0 0 -0.015 -0.026l-0.019 -0.019a0.041 0.041 0 0 0 -0.026 -0.007m0 0.007c0.007 0 0.015 0.011 0.019 0.022l0.015 0.045 0.004 0.019v0.026c-0.007 0.007 -0.019 0.011 -0.026 0.004l-0.015 -0.019 -0.007 -0.03 -0.004 -0.022c0 -0.011 -0.007 -0.022 0 -0.037zm0.086 -0.019 -0.011 0.019 0.004 0.026a0.03 0.03 0 0 0 0.015 0.015l0.034 0.019c0.007 0 0.015 0.007 0.015 0.015v0.019c0 0.004 -0.007 0.011 -0.015 0.007a0.026 0.026 0 0 1 -0.015 -0.007 0.045 0.045 0 0 1 -0.015 -0.022l-0.007 0.004v0.022l0.015 0.007 0.019 0.007c0.007 0 0.015 0 0.022 -0.007 0.007 0 0.011 -0.007 0.015 -0.015a0.037 0.037 0 0 0 0 -0.026 0.041 0.041 0 0 0 -0.022 -0.03 0.15 0.15 0 0 0 -0.022 -0.011l-0.022 -0.019c0 -0.007 0 -0.019 0.007 -0.019h0.022l0.011 0.019c0 0.007 0.007 0.004 0.004 0 0 -0.007 0.007 -0.019 0 -0.022a0.052 0.052 0 0 0 -0.022 -0.007 0.037 0.037 0 0 0 -0.022 0.004zm0.42 -0.165 -0.034 0.007 -0.015 0.004a0.026 0.026 0 0 1 0.007 0.015v0.056l0.004 0.03v0.022c-0.007 0.004 0 0.007 0.007 0.004h0.022c0.007 0 0 -0.007 0 -0.011l-0.004 -0.022v-0.022l0.022 -0.004c0.015 -0.004 0.03 -0.015 0.034 -0.03a0.041 0.041 0 0 0 -0.015 -0.037 0.052 0.052 0 0 0 -0.03 -0.011m0 0.011c0.007 0 0.015 0.007 0.015 0.019v0.019c0 0.011 -0.007 0.019 -0.019 0.022 -0.004 0 -0.011 0 -0.011 -0.007v-0.022c0 -0.011 -0.007 -0.019 0 -0.026h0.011zm0.098 -0.015c-0.007 0 -0.015 0.004 -0.011 0.011l-0.007 0.026a0.375 0.375 0 0 1 -0.007 0.037l-0.011 0.045c0 0.004 -0.007 0.011 0 0.011h0.019c0.007 0 0 -0.007 0 -0.011v-0.019s0 -0.007 0.004 -0.004h0.03v0.022c0 0.004 0 0.011 0.007 0.011h0.026c0.007 -0.004 0 -0.011 -0.004 -0.015l-0.007 -0.026 -0.011 -0.034 -0.004 -0.019a0.337 0.337 0 0 1 -0.011 -0.037zm-0.007 0.03 0.015 0.049c0.004 0.004 0 0.007 -0.007 0.007 -0.004 0 -0.019 0.004 -0.019 -0.004l0.004 -0.019a0.263 0.263 0 0 0 0.007 -0.026zm0.112 -0.037h-0.049a0.03 0.03 0 0 1 0 0.019l-0.004 0.015 0.011 -0.011c0.004 0 0.007 -0.011 0.015 -0.007h0.011v0.109l-0.004 0.007h0.034c0.004 0 0.004 -0.004 0 -0.004v-0.112c0 -0.004 0.004 -0.007 0.011 0h0.007l0.007 0.015h0.007l-0.004 -0.019c0 -0.004 0 -0.011 -0.007 -0.011zm0.105 0h-0.03s-0.007 0 -0.004 0.004c0.007 0.004 0.004 0.011 0.004 0.019v0.094c0 0.004 0 0.011 -0.007 0.015h0.037c0 -0.004 -0.007 -0.007 -0.004 -0.011v-0.045q0.011 0 0.011 0.011l0.007 0.019c0 0.007 0.007 0.011 0.011 0.019 0.007 0 0.011 0.007 0.019 0.011l0.011 0.004 -0.007 -0.011 -0.011 -0.03a0.075 0.075 0 0 1 -0.007 -0.019c0 -0.007 0.004 -0.004 0.007 -0.007a0.037 0.037 0 0 0 0.019 -0.015v-0.022l-0.007 -0.019c-0.004 -0.007 -0.011 -0.007 -0.015 -0.011a0.124 0.124 0 0 0 -0.022 -0.004zm0.011 0.007c0.007 0 0.011 0.004 0.015 0.011a0.03 0.03 0 0 1 0.007 0.015v0.015c-0.004 0.007 -0.011 0.015 -0.019 0.015h-0.019v-0.049c0 -0.007 0.007 -0.007 0.015 -0.007m0.083 0.015v0.045l-0.004 0.052a0.03 0.03 0 0 1 -0.007 0.015s0 0.004 0 0l0.015 0.004h0.019c0.007 0 0 0 0 -0.007v-0.101c0.004 -0.004 0 -0.011 0.007 -0.015v-0.007h-0.037zm0.094 -0.007 -0.011 0.034 -0.004 0.019 -0.011 0.03c-0.004 0.015 -0.007 0.03 -0.015 0.037 -0.007 0 -0.004 0.011 0 0.007h0.019c0.004 0.004 0.007 0 0 0v-0.022c0 -0.007 0.004 -0.011 0.011 -0.007h0.022l0.004 0.022c0 0.007 -0.007 0.015 0 0.015h0.026s0.007 0 0 0l-0.004 -0.037 -0.007 -0.037 -0.004 -0.034a0.075 0.075 0 0 0 -0.004 -0.019s0 -0.007 -0.007 -0.004h-0.015zm0 0.03c0.007 0.007 0.004 0.015 0.007 0.022v0.03c0.007 0.011 -0.007 0.004 -0.011 0.004 -0.007 0 -0.015 0 -0.011 -0.007l0.004 -0.015 0.007 -0.019zm0.244 0.131c0 0.007 0.007 0.011 0.004 0.015v0.109a0.011 0.011 0 0 1 0 0.011h0.071v-0.03c0 -0.004 0 0 0 0 -0.007 0.011 -0.015 0.019 -0.026 0.019h-0.019v-0.019a1.2 1.2 0 0 1 0 -0.09l0.004 -0.015zm0.086 0.135h0.037l-0.007 -0.015v-0.109l0.007 -0.011h-0.037c0 0.007 0.007 0 0.007 0.011v0.109zm0.056 -0.139c0 0.007 0.007 0.011 0.004 0.015v0.045a0.975 0.975 0 0 1 -0.004 0.052l-0.004 0.019s-0.007 0.004 0 0.004l0.041 0.007c0.011 0 0.022 0 0.03 -0.007 0.015 -0.007 0.019 -0.026 0.015 -0.037 0 -0.007 -0.007 -0.011 -0.011 -0.019a0.487 0.487 0 0 0 -0.015 -0.011 0.03 0.03 0 0 0 0.026 -0.019c0 -0.011 0 -0.022 -0.007 -0.03l-0.007 -0.007 -0.019 -0.004zm0.03 0.015 0.022 0.004c0.007 0.011 0.007 0.022 0 0.037l-0.007 0.004h-0.019v-0.03zm-0.007 0.056c0.011 0 0.022 0 0.03 0.011 0.007 0.007 0 0.019 0.004 0.026 0 0.015 -0.011 0.022 -0.022 0.022q-0.011 0 -0.011 -0.011a0.337 0.337 0 0 1 0 -0.049m0.068 0.075 0.011 0.007 0.034 0.007 0.03 0.004 0.007 -0.019c0 -0.007 -0.004 -0.011 -0.007 -0.004a0.037 0.037 0 0 1 -0.034 0.004c-0.007 0 -0.011 -0.007 -0.011 -0.015l0.007 -0.045 0.015 0.004c0.007 0 0.011 0.007 0.015 0.015l0.004 -0.011v-0.026c-0.004 0 -0.007 0.015 -0.015 0.007 -0.007 0 -0.019 0 -0.015 -0.007l0.004 -0.03c0.011 -0.004 0.026 0 0.034 0.011l0.011 0.011v-0.026l-0.019 -0.007 -0.049 -0.011c-0.011 0 0 0.007 0 0.011l-0.007 0.064 -0.007 0.045a0.019 0.019 0 0 1 -0.007 0.011m0.112 -0.105v0.022l-0.011 0.06 -0.007 0.037c0 0.004 -0.015 0.007 -0.004 0.011l0.026 0.007c0.007 0 0 -0.007 0 -0.011l0.007 -0.026 0.004 -0.015c0.007 0 0.004 0.011 0.007 0.015 0 0.015 0.007 0.03 0.011 0.041l0.022 0.019 -0.007 -0.019v-0.052c0.004 0 0.011 0 0.019 -0.007 0.007 -0.011 0.011 -0.026 0.007 -0.037a0.049 0.049 0 0 0 -0.022 -0.03l-0.045 -0.015a0.037 0.037 0 0 0 -0.007 0m0.03 0.015a0.026 0.026 0 0 1 0.022 0.015c0.004 0.015 0 0.03 -0.004 0.041 -0.007 0.007 -0.015 0.007 -0.022 0.004 -0.007 0 -0.015 0 -0.011 -0.007l0.007 -0.037a0.026 0.026 0 0 1 0.007 -0.015m0.056 0.045 0.019 -0.007s0.011 -0.004 0.015 0 0 0.011 0 0.015l-0.004 0.026 -0.015 0.06 -0.011 0.015c0 0.007 0.007 0.007 0.011 0.007l0.022 0.007c0 -0.004 -0.004 -0.007 0 -0.015l0.007 -0.045a1.162 1.162 0 0 1 0.015 -0.06c0.007 0 0.015 0.007 0.019 0.011l0.007 0.019c0.004 0 0 -0.007 0 -0.015l0.004 -0.015 -0.03 -0.011 -0.022 -0.011 -0.026 -0.007za0.011 0.011 0 0 0 0 0.004m0.128 0.026c-0.007 0 -0.007 0.007 -0.011 0.015 0 0.007 -0.007 0.011 -0.011 0.019l-0.034 0.052a0.041 0.041 0 0 1 -0.015 0.015c-0.007 0.007 0.004 0.007 0.007 0.011 0.004 0 0.011 0.007 0.015 0.004 0 -0.007 -0.007 -0.011 0 -0.019 0 -0.004 0 -0.015 0.011 -0.011l0.022 0.015v0.019c0 0.004 -0.011 0.007 -0.007 0.015l0.019 0.011s0.011 0.007 0.007 0v-0.03l0.004 -0.019v-0.03l0.007 -0.045c0 -0.007 0.004 -0.015 0 -0.015zm-0.011 0.026s0.004 0.004 0 0.007v0.049c0 0.007 -0.011 0 -0.015 0 -0.004 -0.004 -0.015 -0.007 -0.007 -0.015l0.015 -0.022zm0.083 0.019 -0.004 0.022 -0.015 0.022 -0.015 0.026 -0.019 0.037h-0.007l0.019 0.019 0.022 0.022c0.011 0.007 0.03 0.011 0.041 0.004l0.019 -0.019a0.128 0.128 0 0 0 0.011 -0.022v-0.037c0 -0.015 -0.007 -0.034 -0.019 -0.045l-0.022 -0.022zm0.022 0.034c0.011 0.007 0.019 0.019 0.015 0.03 0 0.019 -0.007 0.037 -0.019 0.052 -0.007 0.011 -0.015 0.022 -0.026 0.022 -0.007 0.004 -0.019 0 -0.022 -0.011l0.007 -0.022 0.03 -0.052c0 -0.007 0.007 -0.015 0.011 -0.019z"/><path fill="#006300" d="m11.58 10.47 0.094 0.037 0.068 0.128c0.026 0.019 0.022 0.015 0.049 0.022l-0.161 0.068c-0.045 0.015 -0.026 0.056 -0.004 0.064s0.075 -0.011 0.09 -0.019c0.079 -0.037 0.15 -0.075 0.225 -0.124 0.011 -0.007 0.064 -0.041 0.075 -0.037l0.285 0.158c0.022 0.011 0.064 0.037 0.086 0.022 0.011 -0.007 0.022 -0.022 0.019 -0.037 -0.004 -0.019 -0.015 -0.022 -0.03 -0.026l-0.154 -0.068 0.034 -0.011c0.011 -0.007 -0.007 -0.026 0.007 -0.022l0.071 -0.116 0.086 -0.034c0 -0.079 -0.667 -0.131 -0.84 -0.004"/><path fill="#ff0" d="M11.625 10.744c-0.022 0.007 -0.019 0.052 0.03 0.037 0.034 -0.011 0.007 -0.049 -0.03 -0.037m0.713 0c-0.011 0.019 -0.011 0.026 0.007 0.037 0.019 0.004 0.026 0.004 0.037 -0.007 0.019 -0.015 0.004 -0.022 -0.007 -0.03 -0.015 -0.007 -0.004 -0.007 -0.015 0z"/><path fill="#006300" stroke="olive" stroke-width="0.0075" d="M12.967 8.1v0.011c0.064 0.12 0.037 0.064 0.09 0.221l-0.03 -0.041a1.125 1.125 0 0 1 -0.075 -0.112 0.049 0.049 0 0 0 -0.015 -0.022c-0.007 0.011 0.015 0.075 0.022 0.094 0.019 0.075 0.079 0.165 0.124 0.236l-0.034 -0.026c-0.037 -0.03 -0.026 -0.022 -0.049 -0.064a0.761 0.761 0 0 1 -0.052 -0.112 1.95 1.95 0 0 0 -0.03 -0.083l-0.007 0.007v0.034l0.022 0.135c-0.03 -0.011 -0.022 -0.015 -0.049 -0.037 -0.007 0 -0.015 -0.022 -0.022 -0.022l-0.026 -0.03c-0.004 0.015 0.037 0.09 0.045 0.098 0.015 0.022 0.068 0.06 0.075 0.075a0.525 0.525 0 0 0 0.079 0.139l0.034 0.041 -0.071 -0.068a1.238 1.238 0 0 0 -0.128 -0.112c0 0.015 0.022 0.03 0.034 0.037l0.086 0.098c0.026 0.037 0.06 0.068 0.083 0.105l0.056 0.094a0.525 0.525 0 0 0 -0.03 -0.041l-0.086 -0.105c-0.03 -0.037 -0.06 -0.06 -0.098 -0.09a0.975 0.975 0 0 0 -0.075 -0.052c0 0.011 0.071 0.101 0.12 0.128l0.045 0.049 0.045 0.049a1.35 1.35 0 0 1 0.071 0.112l0.034 0.056c-0.026 -0.007 -0.15 -0.15 -0.176 -0.176s-0.037 -0.037 -0.068 -0.056c0 0.015 0.086 0.112 0.105 0.131l0.019 0.022 0.037 0.041c0.022 0.03 0.068 0.083 0.083 0.112l0.026 0.052a0.75 0.75 0 0 0 -0.056 -0.075 0.3 0.3 0 0 0 -0.034 -0.037c-0.026 -0.03 -0.071 -0.083 -0.105 -0.105l-0.083 -0.049c-0.004 0.007 0.015 0.022 0.022 0.03l0.034 0.03a0.814 0.814 0 0 1 0.116 0.128c0.022 0.022 0.037 0.045 0.052 0.075a0.116 0.116 0 0 1 -0.026 -0.026l-0.026 -0.026 -0.06 -0.045 -0.135 -0.068c0 0.011 0.049 0.037 0.06 0.045 0.026 0.019 0.075 0.045 0.094 0.071l0.026 0.026c0.019 0.019 0.037 0.037 0.049 0.06l0.045 0.064 0.037 0.075 0.049 0.169c-0.015 -0.056 -0.045 -0.112 -0.064 -0.172 -0.015 -0.037 -0.052 -0.142 -0.105 -0.124 -0.019 0.007 -0.03 0.03 -0.037 0.045 -0.011 0.026 -0.03 -0.007 -0.075 0.075a0.675 0.675 0 0 0 -0.045 0.161v0.026c0.011 -0.004 0.019 -0.034 0.022 -0.045 0.019 -0.052 0.037 -0.086 0.071 -0.135l-0.041 0.184c0.015 -0.004 0.019 -0.026 0.022 -0.037l0.052 -0.139c0.06 0.041 0.075 0.27 0.086 0.349a0.802 0.802 0 0 0 -0.041 -0.112l-0.064 -0.105c-0.037 0.004 -0.037 0.052 -0.045 0.079 -0.011 -0.015 -0.022 -0.037 -0.049 -0.037 -0.019 0 -0.03 0.03 -0.034 0.052a0.289 0.289 0 0 0 0 0.083l0.015 0.06 0.007 0.007 0.011 -0.154c0.022 0.011 0.068 0.112 0.06 0.15 -0.022 0.15 -0.037 0.199 -0.116 0.322l-0.045 0.064a0.375 0.375 0 0 1 -0.022 0.03l-0.026 0.03c0.041 -0.075 0.06 -0.101 0.09 -0.184a0.9 0.9 0 0 0 0.045 -0.188v-0.034c-0.011 0 -0.011 0.015 -0.015 0.026 -0.068 0.214 -0.079 0.225 -0.191 0.412l0.019 -0.124c-0.007 0 -0.007 0.007 -0.011 0.022l-0.007 0.022a0.667 0.667 0 0 1 -0.06 0.135c0 -0.011 0.011 -0.03 0.015 -0.041a0.975 0.975 0 0 0 0.026 -0.128v-0.026c-0.011 0 -0.015 0.022 -0.019 0.037 -0.015 0.045 -0.037 0.083 -0.052 0.124v-0.011c0 -0.026 0.011 -0.068 0.004 -0.094v-0.011c-0.011 0.004 -0.015 0.026 -0.019 0.037l-0.011 0.037c-0.026 0.071 -0.056 0.116 -0.094 0.188 -0.022 -0.004 -0.007 0 0 0a7.875 7.875 0 0 0 0.214 0.041c0.105 -0.004 0.172 -0.011 0.278 0 0.015 0 0.079 0.011 0.09 0 -0.03 -0.015 -0.06 -0.022 -0.094 -0.034l-0.101 -0.022 0.281 -0.007 -0.022 -0.015c-0.049 -0.019 -0.172 -0.026 -0.225 -0.03 0.094 -0.007 0.165 -0.015 0.255 -0.015 0.026 -0.007 0.109 0.019 0.075 -0.019 -0.037 -0.022 -0.142 -0.026 -0.176 -0.022l0.165 -0.007c0.026 -0.007 0.199 0.03 0.139 -0.007 -0.049 -0.026 -0.15 -0.045 -0.203 -0.052 0.03 -0.019 0.056 -0.037 0.086 -0.049a1.537 1.537 0 0 1 0.199 -0.064c0.075 -0.011 0.131 -0.049 0.034 -0.034 -0.06 0.007 -0.131 0.026 -0.188 0.03l0.049 -0.026c0.049 -0.022 0.101 -0.034 0.15 -0.049 0.011 -0.004 0.007 0 0.011 -0.007l-0.007 -0.004h-0.03a2.438 2.438 0 0 0 0.263 -0.075c0.011 0 0.026 0 0.034 -0.007l-0.007 -0.004a3.225 3.225 0 0 0 -0.24 0.03l-0.075 0.011 0.188 -0.075c0.015 0 0.06 -0.007 0.068 -0.019 -0.011 -0.007 -0.022 -0.004 -0.041 0a1.35 1.35 0 0 0 -0.176 0.045l-0.068 0.019c0.21 -0.079 0.128 -0.056 0.322 -0.094 0.022 -0.004 0.037 0 0.041 -0.015l-0.112 -0.007c-0.037 0 -0.075 0.007 -0.101 0.011l0.083 -0.071c0.022 -0.019 0.011 -0.026 0.052 -0.026h0.075c-0.03 -0.034 -0.037 -0.019 -0.068 -0.034l0.037 -0.037 0.019 -0.037c0.004 -0.004 0.004 -0.004 0 -0.007h-0.011l-0.086 0.075c-0.015 0.007 -0.011 0.007 -0.034 0.007l-0.112 0.022a0.938 0.938 0 0 1 0.112 -0.079l0.064 -0.037c0.019 -0.007 0.06 -0.022 0.064 -0.03l-0.135 0.034a0.713 0.713 0 0 0 -0.112 0.056 1.725 1.725 0 0 1 0.217 -0.195c0.007 -0.004 0.03 -0.015 0.034 -0.026h-0.011c-0.037 0.007 -0.12 0.064 -0.15 0.079a1.35 1.35 0 0 0 -0.142 0.105 1.05 1.05 0 0 1 0.101 -0.098l0.019 -0.019 0.041 -0.037c0.03 -0.022 0.056 -0.045 0.083 -0.075l0.041 -0.034c0.011 -0.007 0.037 -0.026 0.037 -0.037a2.063 2.063 0 0 0 -0.165 0.101l-0.079 0.056 -0.079 0.06c0.034 -0.052 0.068 -0.109 0.109 -0.154a1.725 1.725 0 0 1 0.176 -0.165c0.015 -0.011 0.03 -0.03 0.045 -0.037v-0.007c-0.015 0 -0.06 0.034 -0.071 0.041a1.444 1.444 0 0 0 -0.176 0.15l-0.026 0.03a0.563 0.563 0 0 0 -0.075 0.09 2.325 2.325 0 0 0 -0.09 0.135c0.019 -0.083 0.075 -0.15 0.12 -0.195l0.101 -0.112 0.015 -0.019a0.375 0.375 0 0 0 0.112 -0.217l-0.049 0.068 -0.026 0.026 -0.203 0.236c0.007 -0.034 0.049 -0.105 0.068 -0.131a2.362 2.362 0 0 1 0.21 -0.281l0.011 -0.011c0 -0.011 0.015 -0.019 0.03 -0.034l0.037 -0.03c-0.019 -0.019 -0.09 0.022 -0.101 0.034 -0.09 0.06 -0.154 0.146 -0.221 0.229a0.975 0.975 0 0 1 0.09 -0.214c0.019 -0.03 0.037 -0.068 0.06 -0.094l0.06 -0.09c-0.015 0 -0.03 0.019 -0.037 0.03l-0.019 0.015c-0.075 0.086 -0.124 0.18 -0.18 0.281 0.004 -0.049 0.049 -0.139 0.075 -0.18l0.105 -0.158c-0.019 -0.004 -0.075 0.06 -0.086 0.075 -0.022 0.03 -0.049 0.06 -0.068 0.098a1.162 1.162 0 0 0 -0.101 0.206l-0.007 0.015c0.004 -0.068 0.075 -0.229 0.101 -0.285l0.06 -0.083 0.019 -0.026 0.041 -0.052 0.041 -0.056c-0.026 -0.007 -0.12 0.098 -0.139 0.12l-0.064 0.094c0.011 -0.052 0.049 -0.124 0.079 -0.169l0.079 -0.101 0.026 -0.037c-0.03 0 -0.15 0.139 -0.176 0.169l-0.026 0.041 -0.041 0.064 -0.007 0.011 -0.007 0.011a1.387 1.387 0 0 1 0.052 -0.199l0.075 -0.169c-0.019 0 -0.06 0.052 -0.071 0.068l-0.045 0.094c0.004 -0.045 0.068 -0.188 0.09 -0.244 -0.011 0 -0.019 0.022 -0.03 0.037l-0.086 0.142c0.004 -0.049 0.037 -0.098 0.056 -0.139 -0.037 0.015 -0.105 0.158 -0.12 0.199l-0.019 0.06 -0.007 0.022c0 -0.105 0.019 -0.214 0.037 -0.319 -0.011 0 -0.015 0.011 -0.019 0.022l-0.011 0.026 -0.022 0.06 -0.03 0.128c-0.045 -0.064 -0.056 -0.18 -0.146 -0.315 -0.026 -0.041 -0.037 -0.045 -0.075 -0.075zm0.049 1.267c0.037 0.105 0.049 0.139 0.075 0.247a0.026 0.026 0 0 0 -0.007 0.011l-0.015 0.045 -0.03 -0.094c-0.007 -0.037 0.007 -0.105 -0.007 -0.116 -0.007 0.019 -0.007 0.019 -0.007 0.052l-0.019 -0.037c-0.019 -0.06 -0.022 -0.041 -0.007 -0.075 0 -0.011 0.007 -0.026 0.019 -0.034z"/><g fill="#008f4c"><path d="M13.29 9.191c0.015 -0.142 0.188 -0.48 0.244 -0.487 0.007 0 -0.06 0.094 -0.105 0.188a2.137 2.137 0 0 0 -0.112 0.274 0.637 0.637 0 0 1 -0.026 0.098zm0.382 -0.086s-0.03 0.034 -0.071 0.068a1.661 1.661 0 0 0 -0.36 0.517c-0.075 0.188 -0.056 0.139 -0.034 0.049a1.324 1.324 0 0 1 0.364 -0.566c0.052 -0.045 0.105 -0.079 0.101 -0.068m-0.443 -0.322c0 -0.128 0.015 -0.172 0.09 -0.33 0.045 -0.101 0.064 -0.131 0.071 -0.124 0 0.004 0 0.022 -0.011 0.037a1.875 1.875 0 0 0 -0.128 0.439 0.206 0.206 0 0 1 -0.015 0.064 0.263 0.263 0 0 1 -0.007 -0.086m-0.21 0.727a0.757 0.757 0 0 1 -0.052 0.33c-0.026 0.068 -0.131 0.225 -0.158 0.24 -0.011 0 -0.007 0 0.019 -0.037a0.829 0.829 0 0 0 0.188 -0.502c-0.007 -0.098 0 -0.112 0.004 -0.034z"/><path d="M13.342 9.386c0.015 0.045 0.019 0.15 0 0.206a0.412 0.412 0 0 1 -0.27 0.281 0.214 0.214 0 0 1 -0.049 0.011 0.203 0.203 0 0 1 0.045 -0.026 0.465 0.465 0 0 0 0.274 -0.412c0 -0.037 -0.004 -0.052 -0.007 -0.06 0 -0.015 -0.004 -0.026 0 -0.03z"/><path d="m13.714 9.671 -0.165 0.03a7.313 7.313 0 0 0 -0.349 0.06 0.034 0.034 0 0 1 -0.004 -0.011 6.337 6.337 0 0 1 0.517 -0.079m-0.694 -1.489c0.056 0.068 0.068 0.098 0.098 0.214 0.019 0.075 0.022 0.098 0.019 0.098l-0.015 -0.026a1.29 1.29 0 0 0 -0.12 -0.289 0.142 0.142 0 0 1 -0.022 -0.037 0.188 0.188 0 0 1 0.037 0.037zm-0.06 0.083c0.022 0.083 0.041 0.112 0.124 0.199 0.052 0.052 0.071 0.071 0.071 0.064 0 0 -0.004 -0.015 -0.015 -0.022a1.275 1.275 0 0 1 -0.172 -0.259 0.142 0.142 0 0 0 -0.022 -0.037s0 0.026 0.015 0.056m0.502 0.263c-0.09 0.083 -0.236 0.345 -0.214 0.386 0.004 0.004 0.041 -0.056 0.083 -0.135a1.8 1.8 0 0 1 0.128 -0.217l0.052 -0.075zm0.037 0.068c-0.098 0.09 -0.259 0.382 -0.236 0.427 0.004 0.007 0.045 -0.06 0.09 -0.15a2.025 2.025 0 0 1 0.146 -0.24 0.6 0.6 0 0 0 0.056 -0.079zm-0.57 -0.266c0.015 0.086 0.03 0.112 0.098 0.21 0.045 0.064 0.064 0.083 0.064 0.075 0 0 0 -0.015 -0.011 -0.022a1.286 1.286 0 0 1 -0.139 -0.281 0.142 0.142 0 0 0 -0.019 -0.041z"/><path d="m13.065 8.501 0.098 0.026c0 -0.007 -0.015 -0.011 -0.026 -0.015 -0.064 -0.019 -0.24 -0.098 -0.244 -0.128l-0.037 -0.056s0.15 0.15 0.21 0.172m0.607 0.311c-0.135 0.094 -0.375 0.42 -0.356 0.48 0 0.011 0.064 -0.064 0.135 -0.165a2.475 2.475 0 0 1 0.214 -0.274 0.713 0.713 0 0 0 0.079 -0.086s-0.037 0.019 -0.071 0.045m-0.019 0.199c-0.06 0.12 -0.289 0.349 -0.337 0.337a0.563 0.563 0 0 1 0.116 -0.124 1.95 1.95 0 0 0 0.188 -0.203 0.585 0.585 0 0 1 0.06 -0.075c0 0.007 -0.011 0.037 -0.026 0.064m-0.802 0.825c-0.022 0.116 -0.169 0.367 -0.214 0.371 -0.004 0 0.026 -0.064 0.075 -0.139a1.762 1.762 0 0 0 0.112 -0.217l0.037 -0.075zm0.375 -0.709c-0.026 -0.075 -0.094 -0.165 -0.188 -0.247 -0.09 -0.083 -0.12 -0.094 -0.037 -0.019a1.087 1.087 0 0 1 0.236 0.33s0 -0.03 -0.011 -0.064m0.068 0.956c-0.105 -0.03 -0.375 -0.026 -0.394 0.004 0 0.007 0.06 0.007 0.142 0.004a1.774 1.774 0 0 1 0.3 0.011zm-0.112 0.045c-0.109 -0.026 -0.375 -0.011 -0.394 0.022h0.139a1.762 1.762 0 0 1 0.307 -0.004zm-0.12 0.06c-0.105 -0.026 -0.375 0 -0.394 0.03l0.142 -0.007a1.8 1.8 0 0 1 0.304 -0.007z"/><path d="M12.99 10.256c-0.086 -0.037 -0.322 -0.037 -0.337 -0.011 -0.007 0.007 0.049 0.011 0.12 0.007a1.35 1.35 0 0 1 0.195 0.011l0.068 0.011a0.337 0.337 0 0 0 -0.045 -0.019m0.42 -0.334c-0.225 0.064 -0.487 0.101 -0.502 0.154 0 0.007 0.098 -0.007 0.195 -0.045a2.1 2.1 0 0 1 0.281 -0.09c0.056 -0.011 0.101 -0.022 0.101 -0.03 0 0 -0.037 0.015 -0.075 0.011m0.285 -0.139 -0.195 0.037a7.987 7.987 0 0 0 -0.3 0.056c-0.09 0.019 -0.109 0.022 -0.112 0.011a0.037 0.037 0 0 1 -0.007 -0.011 7.425 7.425 0 0 1 0.615 -0.094m-0.068 -0.056 -0.161 0.045a6.563 6.563 0 0 0 -0.337 0.094 0.034 0.034 0 0 1 -0.007 -0.007 6.337 6.337 0 0 1 0.506 -0.131"/><path d="M13.575 9.465c-0.154 0.064 -0.457 0.33 -0.45 0.394 0 0.011 0.075 -0.049 0.165 -0.135a2.415 2.415 0 0 1 0.263 -0.217 0.701 0.701 0 0 0 0.098 -0.068z"/><path d="M13.688 9.54c-0.15 0.011 -0.499 0.165 -0.506 0.225 0 0.011 0.079 -0.019 0.184 -0.075a2.1 2.1 0 0 1 0.292 -0.12l0.105 -0.03z"/><path d="M13.68 9.555c-0.386 0.326 -0.604 0.487 -0.682 0.45 -0.011 0 0.142 -0.09 0.274 -0.176a2.925 2.925 0 0 0 0.352 -0.263l0.112 -0.101a0.675 0.675 0 0 1 -0.056 0.09m-0.412 0.105c0.075 -0.128 0.112 -0.165 0.281 -0.27 0.109 -0.068 0.146 -0.09 0.15 -0.075l-0.037 0.03a2.104 2.104 0 0 0 -0.443 0.401zm0.041 -0.367c0.015 -0.142 0.255 -0.619 0.307 -0.626 0.007 0 -0.056 0.094 -0.101 0.188a2.137 2.137 0 0 0 -0.112 0.274 2.775 2.775 0 0 1 -0.105 0.263zm-0.101 -0.547c-0.041 -0.098 -0.045 -0.135 -0.015 -0.27 0.019 -0.086 0.03 -0.116 0.037 -0.112v0.034a1.076 1.076 0 0 0 0.007 0.412s-0.019 -0.03 -0.03 -0.064m0.075 0.521a0.563 0.563 0 0 0 -0.169 -0.225c-0.083 -0.075 -0.109 -0.086 -0.034 -0.015a0.975 0.975 0 0 1 0.184 0.247l0.026 0.049zm-0.375 0.109c0.075 -0.278 0.139 -0.229 0.139 -0.229 0.165 0.158 0.083 0.701 0.083 0.701 0 -1.11 -0.221 -0.472 -0.221 -0.472"/><path d="M12.971 9.356c0.075 -0.278 0.094 -0.263 0.094 -0.263 0.139 0.026 0.131 0.637 0.131 0.637 -0.06 -1.05 -0.225 -0.375 -0.225 -0.375m-0.075 0.214c0 -0.199 0.037 -0.169 0.037 -0.169 0.112 0.101 0.15 0.487 0.15 0.487 -0.172 -0.78 -0.188 -0.319 -0.188 -0.319m0.337 -0.581c-0.03 -0.109 -0.135 -0.217 -0.24 -0.356 -0.131 -0.12 -0.172 -0.139 -0.056 -0.026 0.075 0.045 0.225 0.263 0.27 0.394 0.022 0.045 0.041 0.079 0.045 0.075 0.007 0 0 -0.041 -0.015 -0.086z"/><path d="M13.226 8.895a0.675 0.675 0 0 0 -0.195 -0.278l-0.06 -0.056A2.25 2.25 0 0 1 13.237 8.963c0.004 0 0 -0.034 -0.011 -0.068m-0.563 1.099c-0.004 0.056 -0.068 0.191 -0.09 0.195l0.03 -0.075a0.9 0.9 0 0 0 0.064 -0.15v0.03zm-0.052 0.034c-0.007 0.06 -0.071 0.191 -0.094 0.195l0.03 -0.071a0.9 0.9 0 0 0 0.068 -0.154v0.03zm0.083 0.004c-0.007 0.06 -0.071 0.195 -0.094 0.195l0.034 -0.071a0.9 0.9 0 0 0 0.064 -0.154z"/></g><path fill="#00873f" d="M10.65 8.512c0 0.03 0.007 0.037 0.022 0.056V8.512c-0.007 -0.007 -0.011 0 -0.022 0"/><g fill="none" stroke="#006300" stroke-width=".6" transform="translate(-106.1 -20.4)scale(.85227)"><path d="m17.07 11.4 -0.034 -0.03m0.068 -0.172 -0.03 -0.037m-0.064 0.506c-0.011 -0.079 -0.056 -0.105 -0.056 -0.105m0.424 1.125c-0.203 -0.225 -0.266 -0.626 -0.266 -0.626 0.064 -0.172 0.15 -0.21 0.15 -0.21m-0.15 0.206c-0.068 -0.263 -0.049 -0.532 -0.049 -0.532a2.655 2.655 0 0 1 0.128 -0.63m-0.131 0.724c0.052 -0.247 0.259 -0.217 0.259 -0.217"/><path d="M17.055 11.662c0.188 -0.075 0.161 -0.236 0.195 -0.3 0.049 -0.101 0.086 -0.131 0.086 -0.131m-0.098 1.234c-0.064 -0.158 0.011 -0.188 0.011 -0.188m-0.037 0.135c-0.079 -0.101 -0.18 -0.094 -0.18 -0.094m0.146 -0.386c0.049 -0.09 0 -0.18 0 -0.18m0.022 0.611 -0.142 -0.184m0.086 -1.14c0.019 -0.075 -0.037 -0.109 -0.037 -0.109"/><g transform="translate(442 224.2)scale(.1567)"><path id="do-a" fill="red" stroke-width="0.075" d="M3.428 15.975a0.225 0.225 0 1 1 -0.45 0 0.225 0.225 0 0 1 0.45 0z"/></g><use xlink:href="#do-a" width="100%" height="100%" transform="matrix(.1567 0 0 .18128 444.6 235.3)"/><use xlink:href="#do-a" width="100%" height="100%" transform="translate(443.7 248.3)scale(.1567)"/><use xlink:href="#do-a" width="100%" height="100%" transform="translate(440 252)scale(.16899)"/><use xlink:href="#do-a" width="100%" height="100%" transform="translate(438.7 256.2)scale(.16899)"/><use xlink:href="#do-a" width="100%" height="100%" transform="translate(440.3 257.8)scale(.16899)"/><use xlink:href="#do-a" width="100%" height="100%" transform="translate(463.2 286)scale(.12289)"/><use xlink:href="#do-a" width="100%" height="100%" transform="translate(464.3 287.3)scale(.12289)"/><path d="M17.205 11.873a0.068 0.068 0 0 0 -0.041 -0.045m0.551 0.904c0.06 0.045 0.075 0.019 0.075 0.019"/></g><g fill="#006300"><path d="M11.182 10.193c-0.034 -0.112 -0.026 -0.135 -0.026 -0.135m-0.244 -0.064s-0.019 -0.045 0.015 -0.071c0.015 -0.015 0.094 0.03 0.135 -0.146 0 0 -0.026 0 -0.079 0.026v-0.015s-0.015 -0.037 -0.007 -0.086c0 0 0.026 -0.041 0.026 -0.06 0 0 -0.049 -0.019 -0.15 0.109 0 0 -0.007 -0.026 -0.079 -0.075 0 0 -0.037 0.112 -0.019 0.172 0.015 0.049 0.015 0.068 0.068 0.101 0 0 0.037 0.019 0.045 0.075l0.045 -0.004zm-0.075 0.128c-0.011 0.007 -0.019 0.019 -0.049 0.022 -0.124 0.015 -0.195 -0.15 -0.195 -0.15 -0.004 -0.037 0.011 -0.019 0.037 -0.007 0.034 0.011 0.045 0 0.083 0 0.052 -0.007 0.109 0.041 0.109 0.041 0.03 0.03 0.037 0.086 0.037 0.086 -0.007 0.007 -0.019 0.007 -0.019 0.007zm-0.15 -0.3c-0.128 -0.056 -0.206 0.007 -0.206 0.007 -0.007 0.007 0.007 0.011 0.007 0.011 0.083 0.011 0.056 0.004 0.09 0.052 0.06 0.083 0.165 0.064 0.165 0.064 0.019 0.007 0.041 0.03 0.041 0.03 -0.007 -0.071 -0.094 -0.165 -0.094 -0.165zm-0.225 -0.525c-0.026 -0.019 -0.022 0.015 -0.022 0.015 -0.052 -0.094 -0.199 -0.101 -0.199 -0.101a0.026 0.026 0 0 1 -0.019 -0.011c-0.022 0 0.007 0.049 0.007 0.049 0.041 0.116 0.083 0.131 0.083 0.131 -0.049 0.026 -0.128 -0.034 -0.112 0.011 0.079 0.079 0.131 0.09 0.131 0.09 0.098 0.026 0.139 0 0.139 0 0.022 0.041 0.037 0.049 0.037 0.049 0.09 0.026 0.109 0.075 0.109 0.075 0 -0.098 -0.037 -0.214 -0.037 -0.214a0.45 0.45 0 0 0 -0.116 -0.094"/><path d="M11.145 10.226c-0.049 0.015 -0.052 0.049 -0.052 0.049 -0.045 0.064 -0.21 0 -0.21 0 -0.052 -0.011 -0.037 -0.026 -0.037 -0.026a0.21 0.21 0 0 0 0.06 -0.037 0.322 0.322 0 0 1 -0.101 -0.188c0.135 -0.026 0.176 0 0.176 0 -0.007 -0.052 -0.052 -0.052 -0.052 -0.052 -0.011 -0.019 0.011 -0.019 0.011 -0.019a0.292 0.292 0 0 1 0.188 0.086c0.045 0.064 0.03 0.128 0.03 0.128 0.011 0.064 -0.011 0.06 -0.011 0.06M10.586 9.675c-0.068 -0.019 -0.105 0 -0.105 0 -0.037 0.015 -0.098 -0.022 -0.098 -0.022 -0.083 -0.071 -0.098 -0.112 -0.098 -0.112 0 -0.011 0.071 -0.011 0.071 -0.011 0.098 0 0.12 0.019 0.12 0.019 0.049 0.026 0.045 0.052 0.06 0.064a0.188 0.188 0 0 1 0.052 0.037c0.011 0.019 0.015 0.034 -0.004 0.026m0.128 0.037c0.049 -0.056 0.112 -0.019 0.112 -0.019 0.094 0.011 0.124 -0.098 0.124 -0.098l0.037 -0.064c0.004 -0.026 -0.041 -0.004 -0.041 -0.004 -0.083 0.019 -0.086 0.026 -0.086 0.026l0.015 -0.128c0 -0.022 -0.022 -0.007 -0.022 -0.007 -0.116 0.068 -0.131 0.116 -0.131 0.116l-0.049 -0.09c-0.015 -0.037 -0.026 0.004 -0.026 0.004 -0.022 0.112 -0.011 0.12 -0.011 0.12 0.015 0.06 0.03 0.075 0.03 0.075 0.026 0.037 0.026 0.052 0.026 0.052z"/><path d="M11.407 10.012c-0.019 0.004 -0.068 0.083 -0.068 0.083 -0.06 -0.112 -0.139 -0.128 -0.139 -0.128 -0.015 0.004 0 0.03 0 0.03 0.026 0.06 0 0.105 0 0.105 -0.007 0.045 0 0.052 0 0.052 -0.094 -0.049 -0.098 -0.041 -0.098 -0.041 0 0.06 0.068 0.169 0.068 0.169l0.169 -0.037 0.056 -0.007c0.045 -0.135 0.011 -0.225 0.011 -0.225M10.65 9.405c0.06 0.026 0.064 0.068 0.064 0.068 0.015 0.049 0.154 0.064 0.154 0.064 0.112 -0.011 0.101 -0.037 0.101 -0.037 -0.064 -0.052 -0.045 -0.049 -0.075 -0.075 -0.049 -0.049 -0.112 -0.052 -0.112 -0.052 -0.086 0.015 -0.105 0 -0.105 0 -0.034 0.015 -0.026 0.034 -0.026 0.034m-0.135 -0.203c-0.026 -0.101 0.064 -0.225 0.064 -0.225 0.075 0.142 0.064 0.18 0.064 0.18a0.922 0.922 0 0 1 -0.064 0.169c-0.015 -0.075 -0.052 -0.086 -0.064 -0.124"/><path d="M10.463 9.244c-0.094 0 -0.188 -0.109 -0.188 -0.109 0.146 -0.037 0.176 -0.015 0.176 -0.015a0.851 0.851 0 0 1 0.135 0.094c-0.068 0 -0.086 0.03 -0.12 0.03z"/><path d="M10.387 9.105c-0.06 0.011 -0.112 -0.049 -0.112 -0.049 -0.083 -0.112 -0.056 -0.15 -0.056 -0.15 0.007 0 0.015 0.011 0.015 0.011 0.026 0.022 0.075 0.03 0.075 0.03 -0.135 -0.083 -0.045 -0.266 -0.045 -0.266 0.015 -0.019 0.022 0.026 0.022 0.026a0.172 0.172 0 0 0 0.068 0.075c0.03 0.037 0.03 0.052 0.03 0.052 0.011 -0.06 0.03 -0.045 0.03 -0.045 0.015 0.049 0.071 0.086 0.075 0.12 0.022 0.094 0.007 0.105 0.007 0.105 -0.011 0.052 -0.011 0.094 -0.011 0.094 -0.052 -0.019 -0.094 0 -0.094 0zm0.315 0.225c0.03 -0.045 0 -0.124 0 -0.124 -0.011 -0.086 0.116 -0.169 0.116 -0.169 0.037 0.071 0.034 0.112 0.034 0.112l0.12 -0.03c0.004 0.052 -0.049 0.135 -0.049 0.135 0.079 0.022 0.109 -0.015 0.109 -0.015 -0.037 0.176 -0.21 0.142 -0.21 0.142a0.33 0.33 0 0 0 -0.12 -0.052"/><path d="M10.436 8.809c0.011 -0.109 0.03 -0.112 0.03 -0.112 0.011 0.004 0.015 0.052 0.03 0.06 0.068 0.03 0.068 0.105 0.068 0.105 0 0.086 -0.015 0.075 -0.015 0.075 -0.094 0 -0.112 -0.128 -0.112 -0.128m0.311 0.022c0.034 -0.124 0.011 -0.135 0.011 -0.135 -0.011 0 -0.037 0.049 -0.06 0.052 -0.086 0.004 -0.112 0.086 -0.112 0.086 -0.037 0.094 -0.019 0.09 -0.019 0.09 0.105 0.037 0.169 -0.052 0.18 -0.094"/><path d="M10.44 8.606c0.011 -0.124 0.037 -0.131 0.037 -0.131 0.011 0.007 0.019 0.064 0.037 0.071 0.075 0.037 0.075 0.12 0.075 0.12 0 0.101 -0.015 0.094 -0.015 0.094 -0.112 0 -0.139 -0.109 -0.135 -0.15zm0.352 0.03c0.037 -0.12 0.015 -0.131 0.015 -0.131 -0.015 0 -0.041 0.049 -0.06 0.049a0.139 0.139 0 0 0 -0.12 0.083c-0.034 0.094 -0.015 0.094 -0.015 0.094 0.101 0.037 0.165 -0.049 0.18 -0.094m0.142 0.337c0.101 -0.075 0.094 -0.098 0.094 -0.098 -0.011 -0.007 -0.064 0.015 -0.079 0.007 -0.075 -0.049 -0.146 0 -0.146 0 -0.083 0.052 -0.068 0.06 -0.068 0.06 0.06 0.094 0.165 0.06 0.199 0.034z"/><path d="M10.931 9.041c0.098 -0.041 0.094 -0.06 0.094 -0.06 -0.007 -0.011 -0.056 0 -0.068 -0.011 -0.052 -0.045 -0.116 -0.022 -0.116 -0.022 -0.079 0.03 -0.068 0.037 -0.068 0.037 0.034 0.083 0.124 0.075 0.158 0.056m-0.326 -0.578c-0.037 -0.112 0.075 -0.263 0.075 -0.263a1.537 1.537 0 0 1 0.037 0.128c0.09 -0.094 0.172 -0.109 0.172 -0.109l-0.004 0.075a0.255 0.255 0 0 0 0.086 -0.022c-0.015 0.09 -0.128 0.184 -0.128 0.184 -0.045 0.026 -0.098 0.015 -0.098 0.015 -0.083 0.026 -0.101 0.079 -0.101 0.079 -0.007 -0.049 -0.015 0 -0.041 -0.086m0.165 0.375c0.052 -0.064 0.131 -0.037 0.131 -0.037 0.075 0.007 0.139 -0.068 0.139 -0.068a0.21 0.21 0 0 1 0.052 -0.068c0 -0.019 -0.022 -0.015 -0.022 -0.015l-0.041 0.011c0.034 -0.124 0.015 -0.128 0.015 -0.128 -0.011 0 -0.019 0.007 -0.019 0.007 -0.019 0.056 -0.098 0.052 -0.098 0.052 -0.004 -0.083 -0.022 -0.071 -0.022 -0.071 -0.011 0.022 -0.037 0.037 -0.037 0.037 -0.079 0.075 -0.079 0.109 -0.079 0.109 0.004 0.09 -0.019 0.172 -0.019 0.172z"/></g><g fill="#00863d"><path d="m10.755 9.289 0.052 -0.037c0.019 -0.011 0.011 -0.007 0.019 -0.026l0.019 -0.026 -0.011 0.034 0.052 -0.03c0 0.011 -0.019 0.019 -0.034 0.03a0.862 0.862 0 0 1 -0.037 0.022l-0.071 0.06c0.068 -0.015 0.052 -0.004 0.086 -0.007 0.071 -0.011 0.105 -0.112 0.128 -0.169a0.371 0.371 0 0 0 -0.131 0.041c-0.045 0.03 -0.045 0.06 -0.071 0.112zm-0.18 0.251c0 -0.011 -0.015 -0.03 -0.022 -0.037 -0.019 -0.037 -0.019 -0.045 -0.045 -0.086l-0.019 -0.037c0.007 0 0.022 0.03 0.034 0.037v-0.037c0.011 0 0.007 0.011 0.007 0.022 0 0.037 0 0.034 0.022 0.075l0.049 0.083c0 -0.015 -0.007 -0.026 -0.011 -0.037 -0.015 -0.052 0.019 -0.116 -0.112 -0.195l-0.034 -0.019c0 0.064 0.011 0.169 0.068 0.203l0.037 0.015zm-0.03 -0.806c0 -0.015 -0.011 -0.03 -0.015 -0.049 -0.007 -0.015 0 -0.011 -0.015 -0.019l-0.015 -0.019 0.019 0.007a0.124 0.124 0 0 0 -0.015 -0.03c-0.011 -0.015 -0.007 -0.004 -0.019 -0.026 0.022 -0.004 0.045 0.064 0.049 0.079 0.019 0.052 0.015 0.045 0.049 0.086 0 -0.007 -0.015 -0.019 -0.015 -0.03 -0.007 -0.026 0.022 -0.064 -0.007 -0.128 -0.019 -0.037 -0.056 -0.037 -0.075 -0.071l-0.015 -0.03a0.285 0.285 0 0 0 -0.015 0.068c0 0.045 0.007 0.101 0.037 0.131 0.011 0.011 0.037 0.026 0.052 0.03m0.169 -0.319c0.007 0 0.019 -0.019 0.03 -0.03l0.03 -0.026 -0.004 -0.03c0.007 0 0 0 0.011 0.019l0.037 -0.052c0 0.011 -0.015 0.037 -0.022 0.045 -0.007 0.015 -0.015 0.026 -0.03 0.037l-0.06 0.075 0.037 -0.011c0.037 -0.007 0.052 -0.011 0.079 -0.056a0.375 0.375 0 0 0 0.045 -0.142c-0.056 0.022 -0.116 0.049 -0.146 0.101 -0.011 0.019 -0.007 0.037 -0.007 0.075zm-0.356 0.536c-0.019 -0.037 -0.064 -0.09 -0.068 -0.112l-0.007 -0.049c0.011 0 0.007 0 0.007 0.007l0.007 0.037 0.019 0.037c0 -0.026 0 -0.015 0.007 -0.037 0.011 0.015 -0.004 0.037 0.007 0.06l0.03 0.045c0 -0.037 0.022 -0.09 -0.015 -0.139 -0.015 -0.019 -0.03 -0.026 -0.049 -0.037l-0.034 -0.052c-0.026 0.056 -0.019 0.169 0.034 0.206l0.03 0.019 0.015 0.007zm0.255 -0.225c0.022 -0.015 0.015 -0.022 0.068 -0.064l0.034 -0.034 0.034 -0.034c0.004 0.011 -0.03 0.045 -0.041 0.06h0.022c-0.004 0.015 -0.019 0.004 -0.037 0.011 -0.011 0 -0.052 0.049 -0.064 0.06l0.03 -0.007c0.034 -0.007 0.056 0 0.09 -0.045 0.03 -0.037 0.037 -0.086 0.056 -0.131 -0.045 0.011 -0.101 0.037 -0.128 0.06 -0.037 0.037 -0.034 0.064 -0.045 0.098zm-0.18 0.349a0.188 0.188 0 0 0 -0.03 -0.03c-0.019 -0.011 -0.022 -0.011 -0.045 -0.015l-0.075 -0.041c0.007 -0.007 0.011 0.004 0.03 0.015l0.037 0.015 -0.007 -0.019c0.007 0 0.007 0 0.011 0.007v0.011c0.037 0.004 0.03 0.004 0.064 0.026 0 -0.015 -0.004 -0.015 -0.015 -0.022l-0.019 -0.019 -0.015 -0.022c-0.03 -0.045 -0.064 -0.026 -0.083 -0.03l-0.056 -0.022a0.21 0.21 0 0 0 0.064 0.116c0.015 0.015 0.034 0.03 0.06 0.034zm-0.03 0.281a0.3 0.3 0 0 0 -0.037 -0.026c-0.007 -0.007 -0.011 -0.007 -0.022 -0.007l-0.026 -0.007h0.026l-0.011 -0.011 -0.037 -0.037c0.007 -0.004 0.011 0 0.019 0.007l0.086 0.068 0.041 0.022c0 -0.022 -0.037 -0.09 -0.068 -0.105l-0.139 -0.037a0.563 0.563 0 0 0 0.056 0.105c0.037 0.056 0.045 0.037 0.075 0.034zm0.068 -0.304 -0.052 -0.172c0.007 0.004 0.007 0.015 0.011 0.037l0.015 0.034 0.011 -0.026c0.007 0.007 0 0.022 0 0.034 -0.007 0.015 -0.007 0.011 0 0.03l0.022 0.06v-0.037c0.011 -0.037 0.019 -0.06 0 -0.105 -0.019 -0.037 -0.049 -0.064 -0.075 -0.094l-0.011 0.068c-0.007 0.045 -0.004 0.105 0.03 0.131 0.03 0.022 0.011 0.004 0.049 0.037zm0.101 0.217v-0.176c0.007 0.004 0.007 0.011 0.007 0.015v0.056l0.015 -0.026c0.011 0.004 0 0.015 -0.004 0.022l-0.015 0.03 0.004 0.079 0.015 -0.03c0.019 -0.026 0.037 -0.068 0.03 -0.105l-0.045 -0.128 -0.03 0.06a0.274 0.274 0 0 0 -0.019 0.071c-0.011 0.06 0.007 0.071 0.026 0.101zm0.071 -0.761c0 -0.015 0.007 -0.094 0.004 -0.101l-0.007 -0.015 -0.007 -0.034c0.011 0 0.007 0.011 0.015 0.022v0.004l0.004 -0.022c0 -0.015 0 -0.007 0.007 -0.022 0.007 0.004 0 0 0.004 0.007a0.112 0.112 0 0 1 0 0.011c-0.007 0.052 -0.007 0.112 -0.011 0.161l0.015 -0.03c0.011 -0.026 0.037 -0.075 0.034 -0.105l-0.03 -0.154 -0.03 0.06c-0.019 0.041 -0.037 0.105 -0.026 0.15l0.026 0.06zm-0.412 0.885 0.041 0.037c0.026 0.019 0.086 0.045 0.116 0.045l0.068 -0.015 -0.007 -0.03 -0.037 0.004a0.251 0.251 0 0 1 -0.045 0 0.563 0.563 0 0 1 -0.037 -0.007c-0.022 -0.007 -0.015 0 -0.034 -0.015l0.075 0.011c-0.022 -0.015 -0.015 -0.007 -0.03 -0.026 0.011 0 0.034 0.019 0.045 0.026l0.06 -0.004 -0.004 -0.037c-0.03 -0.011 -0.075 -0.011 -0.109 0 -0.064 0.022 -0.037 0.015 -0.101 0.011m0.083 0.161c0 0.011 0.068 0.086 0.083 0.094l0.146 0.004a0.6 0.6 0 0 0 -0.064 -0.026c-0.03 -0.011 -0.03 -0.007 -0.075 0 0 -0.011 0.011 -0.011 0.037 -0.015l-0.056 -0.019 -0.007 -0.007h0.019l0.15 0.056a0.169 0.169 0 0 1 -0.041 -0.037c-0.06 -0.075 -0.12 -0.052 -0.191 -0.049m0.499 -0.799 0.019 -0.037c0.011 -0.026 -0.004 -0.026 0 -0.056 0.011 0 0.007 0 0.011 0.026l0.026 -0.06c0.007 0.022 -0.034 0.098 -0.041 0.12l-0.015 0.037c0.037 -0.037 0.075 -0.056 0.083 -0.09l0.004 -0.15c-0.022 0.019 -0.056 0.052 -0.075 0.079 -0.022 0.037 -0.022 0.075 -0.015 0.131zm-0.068 0.907 0.037 -0.019c0.056 -0.015 0.034 0.011 0.068 -0.037l-0.007 0.026c0.026 -0.011 0.03 -0.026 0.049 -0.045 0.007 0.011 -0.007 0.026 -0.015 0.034 -0.034 0.03 -0.064 0.019 -0.083 0.026l-0.037 0.019c0.041 -0.007 0.037 0 0.075 0.007 0.068 0.011 0.09 -0.06 0.112 -0.105l0.019 -0.03a0.36 0.36 0 0 0 -0.169 0.083l-0.022 0.022c-0.011 0.007 -0.019 0.007 -0.026 0.019"/><path d="M10.74 9.281c0.022 -0.022 0.019 -0.079 0.037 -0.112 0 -0.007 0.007 -0.011 0.011 -0.015 0.004 -0.007 0 -0.007 0.011 -0.007 0.004 0.007 -0.011 0.015 -0.015 0.026l-0.011 0.037 0.004 -0.004a0.037 0.037 0 0 0 0.004 -0.007c0.019 -0.022 0.034 -0.03 0.06 -0.045l-0.026 -0.09 -0.045 0.037a0.21 0.21 0 0 0 -0.037 0.045c-0.03 0.056 0.004 0.083 0.007 0.135m-0.015 0.375 0.06 -0.098v-0.045c0.007 0 0.004 -0.004 0.011 0.026 0.019 -0.03 0.007 -0.026 0.03 -0.037a0.225 0.225 0 0 1 -0.03 0.052l-0.056 0.094c0.015 0 0.034 -0.022 0.041 -0.034l0.022 -0.019 0.026 -0.015 0.026 -0.135a0.375 0.375 0 0 0 -0.101 0.075c-0.037 0.045 -0.037 0.06 -0.03 0.135m0.131 -0.337 0.075 -0.011c0 0.011 -0.011 0.011 -0.034 0.015l-0.135 0.004 0.034 0.019 0.03 0.015c0.026 0.015 0.052 0.011 0.079 0l0.101 -0.09c-0.052 0.011 -0.022 0.015 -0.094 0l-0.037 0.037zm-0.544 -0.188c0.022 0.045 0.086 0.098 0.142 0.09 0.026 0 0.03 -0.011 0.045 -0.026h-0.004a0.026 0.026 0 0 0 -0.007 -0.004c-0.045 -0.011 -0.049 -0.007 -0.094 0l0.019 -0.011 -0.034 -0.007 -0.03 -0.015c0.007 -0.004 0.004 -0.004 0.015 0 0.056 0.019 0.071 0.015 0.135 0.026 -0.007 -0.019 -0.056 -0.045 -0.083 -0.049 -0.045 -0.004 -0.06 0.019 -0.105 -0.004m0.375 0.51 -0.019 -0.124c0.011 0 0.007 0.007 0.011 0.034l0.022 0.112c0 -0.045 0.015 -0.075 0.004 -0.12l-0.045 -0.083a0.337 0.337 0 0 0 -0.011 0.101c0 0.037 0.011 0.049 0.03 0.071zm0.169 -1.264 0.015 -0.019 0.019 -0.015c0 0.011 -0.015 0.022 -0.022 0.037 -0.015 0.019 -0.026 0.022 -0.034 0.03 -0.026 0.037 -0.022 0.03 -0.068 0.049 0.09 0.007 0.142 -0.09 0.18 -0.158 -0.086 0.011 -0.071 0.019 -0.079 0.045zm0.03 0.39 0.026 -0.041c0.015 -0.022 0.022 -0.007 0.049 -0.03 -0.007 -0.007 -0.007 -0.004 -0.034 0.004l0.045 -0.056c-0.026 0.004 -0.075 0.086 -0.086 0.105l-0.03 0.034c0.019 -0.052 0.011 -0.101 0.037 -0.124l0.139 -0.086c-0.004 0.034 -0.019 0.079 -0.034 0.112 -0.022 0.041 -0.056 0.06 -0.112 0.083m-0.345 0.165 -0.041 -0.06 -0.019 -0.083c0.011 0 0.011 0.022 0.011 0.034l0.011 0.037c0.007 -0.03 -0.004 -0.011 0.011 -0.037 0.007 0.019 -0.011 0.041 0 0.056l0.026 0.037c0.011 -0.037 0.011 -0.086 -0.011 -0.112l-0.064 -0.068c-0.015 0.022 -0.015 0.09 0 0.124 0.011 0.037 0.026 0.045 0.049 0.056zm0.052 -0.011c0.019 -0.019 0.056 -0.037 0.064 -0.049l0.052 -0.075c-0.011 -0.004 -0.019 0.019 -0.026 0.026l-0.022 0.034c0 -0.03 0.007 -0.007 0 -0.037 -0.015 0.015 -0.007 0.045 -0.022 0.056l-0.041 0.03c0 -0.041 0.019 -0.094 0.052 -0.112l0.094 -0.052c0.007 0.034 -0.019 0.105 -0.041 0.135 -0.03 0.037 -0.045 0.037 -0.075 0.037zm0.172 0.011c0.022 0 0.094 0 0.112 -0.015l0.03 -0.011c0 0.007 0 0 -0.011 0.015h0.041c0 0.004 0.007 0.004 -0.022 0.007l-0.075 0.007 -0.101 0.011c0.068 0.022 0.075 0.06 0.15 0.03 0.06 -0.022 0.075 -0.045 0.112 -0.09 -0.098 0.022 -0.105 -0.056 -0.195 0z"/><path d="M10.89 8.989c0.022 0 0.011 0 0.034 0.007 -0.011 0.007 -0.052 0 -0.068 0h-0.068c0.022 0.03 0.06 0.045 0.109 0.037 0.049 -0.004 0.064 -0.015 0.101 -0.037l-0.075 -0.026zm-0.03 0.431a0.12 0.12 0 0 0 -0.034 -0.019c-0.037 -0.019 -0.075 0 -0.094 0l-0.049 -0.007a0.225 0.225 0 0 0 0.09 0.037c0.064 0.011 0.019 0.026 0.086 -0.011m0.007 0.045 0.019 0.019c-0.004 0 -0.011 0 -0.019 -0.007l-0.004 0.045 0.086 -0.011a0.637 0.637 0 0 0 -0.075 -0.083zm-0.112 0.026 0.052 -0.037c-0.011 -0.015 -0.037 -0.011 -0.056 -0.019l-0.049 -0.019 0.026 0.037zm0.251 -0.773c-0.022 0.015 -0.037 0.034 -0.064 0.045 -0.034 0.015 -0.068 0 -0.09 0.022 0.056 -0.004 0.094 0.019 0.139 -0.022 0.03 -0.026 0.052 -0.064 0.075 -0.098a0.101 0.101 0 0 0 -0.045 0.015l-0.011 0.019c-0.011 0.015 0 0 0 0.019zm-0.188 1.313 0.037 0.083 0.06 0.075 0.037 -0.026 0.049 -0.015c-0.026 -0.011 -0.026 -0.022 -0.041 -0.026h-0.064c0.004 -0.011 0 -0.007 0.03 -0.007h0.03c-0.019 -0.019 -0.041 -0.03 -0.06 -0.045l0.06 0.034v-0.041c0.015 0 0.004 0.026 0.011 0.049 0.004 0.007 0.022 0.022 0.037 0.026 0.019 0.011 0.026 0.007 0.045 0.015l0.049 0.015c-0.019 -0.03 -0.007 0.004 -0.041 -0.068a0.128 0.128 0 0 0 -0.052 -0.06c-0.056 -0.034 -0.124 -0.011 -0.188 -0.007m0.071 -0.086v-0.101l-0.011 -0.079c0.007 0 0.007 0.004 0.011 0.015l0.004 0.022c0.007 -0.037 0.011 -0.037 0.03 -0.06 0 0.007 -0.019 0.037 -0.022 0.075l-0.004 0.101 0.007 -0.011 0.011 -0.011 0.019 -0.022c0.049 -0.075 0.019 -0.12 0.019 -0.142l0.015 -0.075a0.356 0.356 0 0 0 -0.068 0.049c-0.037 0.037 -0.075 0.105 -0.049 0.161l0.019 0.037 0.015 0.041z"/><path d="m10.864 10.237 0.068 0.022c0.041 0.015 0.112 0.019 0.142 -0.022 0.019 -0.022 0.03 -0.026 0.049 -0.045 -0.03 0 -0.056 0.015 -0.083 0.019 -0.022 0.007 -0.022 0.022 -0.041 0.037l-0.015 0.011c0 -0.011 0.019 -0.03 0.03 -0.041h-0.068c0 -0.011 0.022 -0.007 0.049 -0.007 0.056 -0.007 0.068 -0.022 0.128 -0.03a0.026 0.026 0 0 0 0.011 0c-0.09 0 -0.112 -0.064 -0.221 0.015zm0.412 -0.056v-0.045c-0.019 -0.015 -0.019 -0.022 -0.03 -0.045 0.011 0 0.015 0.019 0.034 0.03 0 -0.022 -0.011 -0.06 -0.019 -0.083 0.011 0 0.015 0.03 0.019 0.041 0.015 0.052 0 0.094 0.011 0.112l0.026 0.037c0.007 -0.037 0.049 -0.064 0 -0.154 -0.026 -0.056 -0.049 -0.068 -0.094 -0.101 0.004 0.026 0.011 0.037 0.007 0.068l-0.015 0.06c-0.007 0.049 0.011 0.045 0.019 0.049zm-0.45 -0.086 -0.011 -0.03c-0.037 0 -0.049 0.015 -0.105 -0.022 -0.011 -0.007 -0.011 -0.007 -0.019 -0.022l0.06 0.037 -0.022 -0.037c0 -0.004 0 -0.007 0.004 0h0.007l0.026 0.037h0.037l-0.007 -0.026c-0.004 -0.015 0 -0.015 -0.011 -0.022a0.105 0.105 0 0 0 -0.052 -0.022l-0.06 0.007 -0.06 -0.011c0 0.011 0.026 0.049 0.03 0.06 0.026 0.037 0.094 0.086 0.15 0.064zm-0.315 -0.281h0.004l0.007 0.004a0.112 0.112 0 0 1 0.041 0.03c0.019 0.015 0.019 0.026 0.041 0.045 0.037 0.034 0.079 0.03 0.131 0.037a0.263 0.263 0 0 0 -0.022 -0.026c-0.041 -0.045 -0.037 -0.041 -0.06 -0.037H10.612c0 -0.007 0.026 -0.007 0.045 -0.011a0.112 0.112 0 0 0 -0.026 -0.011c-0.022 0 -0.007 0 -0.034 -0.007 0.011 -0.015 0.068 0.007 0.094 0.03l0.06 0.068 -0.03 -0.064c-0.03 -0.056 -0.112 -0.075 -0.169 -0.064a0.15 0.15 0 0 0 -0.037 0.007zm0.356 0.146c-0.019 -0.068 -0.056 -0.098 -0.064 -0.139 -0.007 -0.026 -0.004 -0.026 0 -0.052 0.015 0.019 -0.011 0.03 0.03 0.098 0 -0.022 -0.007 -0.03 -0.004 -0.056l0.015 -0.052c-0.004 -0.011 -0.052 -0.056 -0.064 -0.071 -0.007 0.06 -0.022 0.112 -0.004 0.172s0.052 0.049 0.09 0.101m0.322 0.3 0.041 -0.007a0.236 0.236 0 0 1 -0.026 -0.037c-0.019 -0.026 -0.015 -0.026 -0.007 -0.037l0.004 0.022 0.015 0.015c0.007 0.015 0.015 0.022 0.03 0.034 0 -0.022 -0.007 -0.03 0 -0.045 0.007 0.004 0 0 0.004 0.007l0.004 0.037 0.049 -0.015c-0.034 -0.056 -0.094 -0.075 -0.15 -0.098l0.015 0.068zm-0.075 -0.12 -0.019 -0.037c-0.015 -0.037 -0.015 -0.049 -0.045 -0.083l-0.015 -0.015 -0.011 -0.011v-0.004c0.007 0 0.03 0.022 0.037 0.03 0.019 0.015 0.06 0.105 0.075 0.131 -0.004 -0.011 -0.011 -0.026 -0.007 -0.037 0.015 -0.037 -0.019 -0.09 -0.037 -0.101l-0.131 -0.056c0.015 0.015 0.026 0.022 0.037 0.045 0.007 0.022 0.011 0.004 0.045 0.037 0.037 0.041 0.037 0.09 0.075 0.101z"/><path d="m11.359 10.14 0.004 -0.019c0.007 -0.011 0 -0.007 0.011 -0.015 0.007 0.007 0 0.011 -0.004 0.026l-0.026 0.094c0.03 -0.004 0.026 -0.004 0.037 -0.026 0.011 -0.015 0.015 -0.034 0.019 -0.049l-0.004 -0.124 -0.037 0.049c-0.019 0.026 -0.007 0.011 0 0.064m-0.397 -0.281c0.011 -0.004 0.03 -0.03 0.041 -0.037 0.004 0.007 -0.019 0.034 -0.026 0.037 -0.022 0.022 -0.007 0 -0.037 0.037 0.06 0.007 0.083 -0.068 0.101 -0.105l-0.056 0.015c-0.007 0.004 -0.004 0 -0.007 0.011l-0.004 0.015c0 0.011 -0.007 0.019 -0.011 0.03z"/></g><g fill="#ce1126" stroke="#000" stroke-width=".2"><path d="m11.535 10.568 0.071 0.037 -0.041 0.079c0.03 -0.004 0.135 -0.041 0.172 -0.052 -0.011 -0.026 -0.015 -0.026 -0.011 -0.06l-0.011 -0.056 -0.086 0.03a0.713 0.713 0 0 1 -0.094 0.022zm0.93 -0.011 -0.071 0.037 0.041 0.075c-0.03 0 -0.135 -0.037 -0.172 -0.049 0.011 -0.026 0.015 -0.03 0.011 -0.06l0.011 -0.056 0.086 0.03z"/><path d="M11.79 10.68a0.465 0.465 0 0 0 0.15 -0.052c0.015 0.011 0.079 0 0.079 0a0.337 0.337 0 0 0 0.041 -0.007 0.379 0.379 0 0 0 0.142 0.06c0.071 -0.004 0.075 -0.06 0.075 -0.06l-0.011 -0.049c0.037 -0.06 0 -0.105 0 -0.105 -0.022 -0.022 -0.131 0.011 -0.131 0.011 -0.075 0.037 -0.075 0.019 -0.075 0.019 -0.022 -0.03 -0.098 -0.026 -0.131 0l-0.094 -0.022c-0.083 -0.034 -0.094 -0.015 -0.094 -0.015 -0.03 0.037 -0.019 0.075 -0.019 0.075l0.004 0.037c-0.015 0.105 0.068 0.112 0.068 0.112z"/><path d="M12.06 10.59c0.176 0.041 0.165 0.068 0.165 0.068 -0.011 0.019 -0.064 -0.007 -0.064 -0.007 -0.135 -0.045 -0.101 -0.06 -0.101 -0.06zm-0.109 0c-0.176 0.041 -0.161 0.068 -0.161 0.068 0.011 0.019 0.06 -0.007 0.06 -0.007 0.139 -0.045 0.101 -0.056 0.101 -0.056z"/><path fill="#aa241e" d="M11.963 10.474c-0.075 0.011 -0.019 0.068 -0.015 0.105 0 0.019 -0.019 0.049 0 0.056 0.019 0.011 0.056 0 0.079 0 0.03 0 0.049 0 0.045 -0.037 0 -0.026 -0.011 -0.037 -0.011 -0.075 0 -0.022 0.004 -0.052 -0.022 -0.052a0.469 0.469 0 0 0 -0.075 0z"/><path fill="none" d="M12.064 10.515c0.199 0 0.188 -0.034 0.188 -0.034m-0.188 0.094c0.203 0.026 0.176 0.056 0.176 0.056m-0.296 -0.06c-0.188 0.037 -0.169 0.071 -0.169 0.071m0.15 -0.131c-0.191 0.011 -0.172 -0.019 -0.172 -0.019"/></g><path d="M11.179 10.275c-0.101 0.037 -0.169 0.06 -0.263 0.116l-0.124 -0.188a0.263 0.263 0 0 0 -0.083 -0.068c-0.056 -0.026 -0.075 -0.019 -0.112 0.011l-0.022 -0.049c-0.049 -0.086 -0.101 -0.124 -0.154 -0.195l-0.052 -0.056 -0.015 -0.019c0.019 0.071 0.037 0.135 0.049 0.214 -0.03 -0.019 -0.06 -0.037 -0.09 -0.049a0.337 0.337 0 0 0 -0.112 -0.019l0.037 0.034a0.443 0.443 0 0 1 0.124 0.206 0.626 0.626 0 0 0 0.158 0.244 0.296 0.296 0 0 0 0.075 0.056c0.075 0.03 0.071 0 0.098 -0.011a1.17 1.17 0 0 0 0.158 0.217 0.3 0.3 0 0 0 0.281 0.071c0.045 -0.011 0.075 -0.026 0.112 -0.045 0.128 -0.075 0.064 -0.135 0.049 -0.195a4.087 4.087 0 0 1 0.27 -0.075c0.21 -0.037 0.6 -0.045 0.851 -0.007 0.022 0.004 0.274 0.071 0.3 0.086a0.203 0.203 0 0 0 -0.022 0.109c0 0.041 0.037 0.064 0.075 0.083a0.375 0.375 0 0 0 0.24 0.049 0.289 0.289 0 0 0 0.184 -0.12c0.068 -0.075 0.086 -0.12 0.12 -0.176 0 0 0.019 0.019 0.034 0.022 0.011 0.004 0.056 0 0.068 -0.007 0.03 -0.011 0.052 -0.037 0.075 -0.056a0.581 0.581 0 0 0 0.154 -0.247 0.45 0.45 0 0 1 0.161 -0.236c-0.105 0.004 -0.142 0.034 -0.203 0.068l0.022 -0.112 0.026 -0.101 -0.131 0.15c-0.019 0.03 -0.041 0.052 -0.064 0.079 -0.041 0.068 -0.034 0.068 -0.049 0.09 -0.15 -0.083 -0.217 0.116 -0.315 0.24 -0.188 -0.105 -0.349 -0.135 -0.57 -0.176l-0.131 -0.015a3.326 3.326 0 0 0 -0.851 0.007c-0.142 0.019 -0.229 0.045 -0.356 0.075z"/><g fill="#ce1126"><path d="M10.987 10.706c0.019 -0.049 0.037 -0.06 0.083 -0.079 0.135 -0.064 0.203 -0.09 0.356 -0.131a1.987 1.987 0 0 1 0.27 -0.049 2.528 2.528 0 0 1 0.461 -0.015 2.044 2.044 0 0 1 0.773 0.191c0.056 0.026 0.049 0.03 0.083 0.083 0.037 -0.03 0.071 -0.09 0.094 -0.128l0.037 -0.075c0.015 -0.041 -0.011 -0.056 -0.03 -0.071 -0.068 -0.06 -0.199 -0.112 -0.311 -0.142a3.244 3.244 0 0 0 -1.601 0 0.93 0.93 0 0 0 -0.337 0.165c-0.03 0.034 0.015 0.094 0.03 0.12l0.037 0.075z"/><path d="M10.519 10.282c0.052 0.011 0.075 0.026 0.109 0.075 0.075 0.105 0.079 0.18 0.21 0.322a0.225 0.225 0 0 0 0.098 0.079 0.281 0.281 0 0 0 0.158 0.022 0.337 0.337 0 0 0 0.131 -0.045s0.049 -0.026 0.064 -0.045c0.011 -0.015 0.015 -0.056 0.015 -0.056 -0.037 -0.011 -0.112 0.064 -0.158 0.094 -0.083 0.056 -0.112 0.037 -0.176 -0.019 -0.049 -0.041 -0.068 -0.09 -0.101 -0.15 -0.015 -0.022 -0.037 -0.056 -0.03 -0.094l0.064 -0.064 -0.079 -0.12c-0.03 -0.049 -0.049 -0.083 -0.09 -0.112 -0.022 -0.019 -0.071 -0.045 -0.105 -0.026l-0.075 0.075c-0.011 0.019 -0.026 0.037 -0.034 0.064"/><path d="m10.429 10.08 -0.079 -0.049 -0.101 -0.037 0.056 0.064c0.06 0.075 0.06 0.142 0.112 0.24a0.611 0.611 0 0 0 0.158 0.188c0.037 0.03 0.071 0.037 0.09 0.011 0.004 -0.019 -0.041 -0.049 -0.064 -0.06a0.412 0.412 0 0 1 -0.079 -0.052c-0.06 -0.06 -0.015 -0.131 0.03 -0.184l0.03 -0.037c0.007 -0.022 -0.041 -0.09 -0.068 -0.124s-0.094 -0.112 -0.128 -0.142l0.019 0.094zm0.87 0.536 -0.022 -0.056c-0.034 0.004 -0.191 0.075 -0.229 0.098 -0.011 0.007 -0.056 0.041 -0.037 0.064 0.064 0.068 0.158 -0.03 0.21 -0.075a0.116 0.116 0 0 1 0.075 -0.03z"/><path d="M10.688 10.489c-0.011 -0.004 -0.011 -0.022 -0.045 -0.049 -0.015 -0.011 -0.098 -0.056 -0.112 -0.071 0 0 -0.022 -0.019 -0.022 -0.045 0.004 -0.022 0.022 -0.026 0.022 -0.026 0.075 0 0.158 0.18 0.154 0.188zm2.797 -0.203c-0.056 0.011 -0.075 0.026 -0.109 0.075 -0.075 0.105 -0.079 0.18 -0.21 0.322 -0.03 0.034 -0.052 0.06 -0.101 0.079a0.281 0.281 0 0 1 -0.154 0.022 0.337 0.337 0 0 1 -0.135 -0.045s-0.049 -0.026 -0.06 -0.045a0.142 0.142 0 0 1 -0.015 -0.056c0.037 -0.015 0.112 0.064 0.154 0.094 0.086 0.056 0.116 0.037 0.176 -0.019 0.052 -0.041 0.071 -0.09 0.105 -0.15 0.015 -0.022 0.037 -0.056 0.03 -0.094l-0.064 -0.064 0.075 -0.12c0.037 -0.049 0.052 -0.083 0.094 -0.112 0.022 -0.019 0.071 -0.045 0.105 -0.026l0.071 0.075c0.011 0.019 0.03 0.037 0.037 0.064"/><path d="m13.575 10.084 0.079 -0.049 0.098 -0.037 -0.052 0.064c-0.064 0.075 -0.064 0.142 -0.112 0.24a0.619 0.619 0 0 1 -0.158 0.188c-0.037 0.03 -0.079 0.03 -0.09 0.011 -0.004 -0.019 0.037 -0.049 0.064 -0.06 0.03 -0.015 0.056 -0.037 0.079 -0.052 0.06 -0.06 0.015 -0.131 -0.03 -0.184l-0.03 -0.037a0.337 0.337 0 0 1 0.068 -0.124l0.124 -0.142c0 0.026 -0.011 0.064 -0.019 0.094zm-0.87 0.536 0.022 -0.056c0.034 0.004 0.191 0.075 0.229 0.098 0.011 0.007 0.056 0.041 0.037 0.064 -0.064 0.068 -0.158 -0.03 -0.214 -0.075 -0.019 -0.011 -0.041 -0.03 -0.075 -0.03"/><path d="M13.32 10.492c0.007 -0.004 0.007 -0.026 0.041 -0.052 0.015 -0.011 0.098 -0.052 0.112 -0.068 0 0 0.022 -0.019 0.019 -0.045 0 -0.022 -0.019 -0.026 -0.019 -0.026 -0.075 0 -0.158 0.18 -0.154 0.188z"/></g><path fill="#eac102" d="M11.152 10.387h-0.022l-0.034 0.015v0.011c0.007 0 0.004 0.011 0.007 0.019l0.007 0.022 0.007 0.03 0.007 0.03c0 0.004 -0.007 0.015 0 0.011l0.026 -0.007c0.004 0 0.011 -0.007 0 -0.007 -0.004 -0.004 0 -0.015 -0.007 -0.022l-0.004 -0.022c0 -0.007 0.011 0 0.011 0.004l0.019 0.019 0.022 0.011a0.03 0.03 0 0 0 0.022 0c-0.011 -0.007 -0.022 -0.015 -0.026 -0.026l-0.019 -0.022c0.007 -0.007 0.019 -0.019 0.019 -0.03a0.037 0.037 0 0 0 -0.015 -0.034 0.049 0.049 0 0 0 -0.022 0m-0.007 0.007c0.007 0 0.011 0.007 0.015 0.011 0.004 0.007 0.007 0.015 0.004 0.026a0.022 0.022 0 0 1 -0.011 0.015c-0.004 0.004 -0.015 0.011 -0.019 0l-0.007 -0.037q0 -0.011 0.011 -0.011a0.037 0.037 0 0 1 0.007 0zm0.052 -0.026c0 0.004 0.011 0.007 0.007 0.015l0.007 0.026 0.007 0.026v0.019l0.007 0.022c0 0.004 -0.007 0.011 0 0.011l0.068 -0.019c0.007 0 0.007 0 0.007 -0.007v-0.022c-0.007 0 -0.007 0.011 -0.011 0.015l-0.034 0.015c-0.004 0 -0.007 -0.004 -0.007 -0.011l-0.004 -0.015 -0.007 -0.026h0.026c0.004 0 0.007 0.007 0.011 0v-0.019c-0.004 0 -0.004 -0.015 -0.011 -0.011 0 0.004 0 0.011 -0.007 0.015a0.056 0.056 0 0 1 -0.019 0.004l-0.004 -0.019c0 -0.007 -0.004 -0.019 0.004 -0.019a0.03 0.03 0 0 1 0.03 0c0.004 0 0.011 0.011 0.011 0 0 -0.004 0 -0.015 -0.007 -0.019h-0.019zm0.154 -0.041h-0.026l-0.03 0.011c-0.007 0.004 0.007 0.007 0.007 0.015v0.019l0.007 0.019 0.004 0.03 0.004 0.026v0.015c0.007 0 0.019 0 0.026 -0.007 0.007 0 0.007 -0.004 0 -0.007v-0.019l-0.007 -0.022a0.075 0.075 0 0 0 0.037 -0.019 0.034 0.034 0 0 0 0.015 -0.026 0.041 0.041 0 0 0 -0.007 -0.026 0.037 0.037 0 0 0 -0.015 -0.007zm-0.011 0.007a0.019 0.019 0 0 1 0.019 0.015l0.004 0.026c0 0.004 -0.004 0.011 -0.011 0.011l-0.015 0.007 -0.004 -0.015 -0.007 -0.03c0 -0.007 0 -0.011 0.007 -0.011a0.03 0.03 0 0 1 0.007 0zm0.124 -0.034 0.011 0.011v0.019l0.007 0.022v0.019l0.004 0.026a0.022 0.022 0 0 1 -0.026 0.019 0.015 0.015 0 0 1 -0.011 -0.007 0.037 0.037 0 0 1 -0.007 -0.019l-0.004 -0.026a0.3 0.3 0 0 0 -0.004 -0.026l-0.004 -0.019c0 -0.004 0.007 -0.011 0 -0.011l-0.03 0.004c-0.007 0.007 0.004 0.007 0.004 0.015l0.004 0.019 0.007 0.037v0.019c0 0.007 0.007 0.011 0.011 0.019 0.004 0.004 0.011 0.011 0.019 0.011 0.015 0 0.03 0 0.041 -0.011l0.011 -0.019 -0.004 -0.03 -0.004 -0.03 -0.004 -0.022a0.019 0.019 0 0 1 0 -0.011c0 -0.004 0.007 -0.011 0 -0.011h-0.015a0.007 0.007 0 0 0 -0.007 0.004m0.098 -0.019 -0.037 0.007 -0.019 0.004 0.007 0.015c0 0.015 0 0.03 0.007 0.041v0.026l0.004 0.03c0 0.004 -0.007 0.011 0 0.011l0.019 -0.004a0.15 0.15 0 0 1 0.022 0 0.15 0.15 0 0 0 0.026 -0.011l0.011 -0.011a0.022 0.022 0 0 0 0.007 -0.015c0 -0.007 0 -0.019 -0.011 -0.026l-0.015 -0.007c-0.004 0 -0.011 -0.004 0 -0.007a0.03 0.03 0 0 0 0.011 -0.019 0.022 0.022 0 0 0 -0.004 -0.019c0 -0.007 -0.011 -0.011 -0.019 -0.011a0.075 0.075 0 0 0 -0.011 0zm-0.019 0.011c0.011 0 0.019 0 0.026 0.007v0.022c0 0.007 -0.007 0.011 -0.015 0.015 -0.004 0 -0.015 0.004 -0.015 -0.004v-0.019a0.15 0.15 0 0 1 0 -0.019zm0.011 0.056 0.019 0.004c0.007 0.004 0.007 0.015 0.007 0.022l-0.004 0.019 -0.022 0.007c-0.007 -0.004 -0.007 -0.015 -0.007 -0.019v-0.034a0.019 0.019 0 0 1 0.007 0m0.064 -0.075s0.007 0 0.004 0.007l0.004 0.022v0.019l0.004 0.026v0.045c-0.004 0.004 0.004 0 0.007 0h0.045l0.022 -0.004v-0.034c0 0.007 -0.007 0.011 -0.011 0.015a0.026 0.026 0 0 1 -0.011 0.007h-0.011l-0.015 -0.004v-0.026l-0.004 -0.045v-0.026c0 -0.004 0.007 -0.011 0 -0.011h-0.015l-0.015 0.004a0.037 0.037 0 0 0 -0.004 0zm0.094 -0.011 0.004 0.007 0.004 0.015v0.015l0.007 0.06v0.015s-0.007 0.007 -0.004 0.011a0.15 0.15 0 0 0 0.037 -0.004l-0.004 -0.007 -0.004 -0.015 -0.004 -0.026v-0.022l-0.004 -0.03v-0.019s0.007 -0.007 0 -0.007a0.206 0.206 0 0 0 -0.034 0.004zm0.15 0.075c-0.007 0 -0.011 0.007 -0.015 0.011 0 0.007 -0.011 0.007 -0.015 0.011 -0.011 0 -0.015 -0.004 -0.022 -0.011a0.06 0.06 0 0 1 -0.011 -0.019v-0.019a0.128 0.128 0 0 1 0 -0.034c0 -0.007 0 -0.015 0.007 -0.019s0.019 0 0.026 0.004l0.007 0.019c0.007 0.007 0.007 -0.004 0.007 -0.007l0.004 -0.015a0.037 0.037 0 0 0 -0.019 -0.007 0.045 0.045 0 0 0 -0.041 0.007 0.037 0.037 0 0 0 -0.011 0.011 0.037 0.037 0 0 0 -0.004 0.015l-0.007 0.022 0.011 0.045c0 0.007 0.007 0.011 0.015 0.019l0.019 0.007a0.037 0.037 0 0 0 0.026 -0.007c0.007 0 0.011 -0.011 0.015 -0.015a0.037 0.037 0 0 0 0.007 -0.015zm0.049 -0.094h-0.015l-0.004 0.03 -0.007 0.019 -0.007 0.049 -0.011 0.026v0.004h0.026l-0.007 -0.011v-0.019c0 -0.007 0.011 0 0.015 0l0.019 -0.004 0.007 0.022s-0.007 0.011 0 0.011h0.026c0.007 -0.004 0 -0.011 0 -0.015l-0.011 -0.03 -0.011 -0.037 -0.011 -0.037zm-0.011 0.03 0.015 0.049 -0.007 0.004h-0.015c-0.004 -0.004 0 -0.011 0 -0.015l0.004 -0.022zm0.161 -0.037 -0.037 0.004 0.007 0.011v0.109c0 0.004 -0.015 0.011 -0.004 0.011h0.052a0.037 0.037 0 0 0 0.015 -0.011l0.015 -0.019 0.004 -0.026a0.101 0.101 0 0 0 0 -0.026l-0.007 -0.022 -0.011 -0.015a0.064 0.064 0 0 0 -0.015 -0.007l-0.019 -0.004zm0 0.011q0.017 0 0.022 0.011a0.037 0.037 0 0 1 0.004 0.019v0.052a0.052 0.052 0 0 1 -0.007 0.022l-0.011 0.007 -0.019 -0.004v-0.098c0 -0.007 0.007 -0.011 0.015 -0.011zm0.112 -0.004a0.03 0.03 0 0 0 -0.019 0.004l-0.019 0.022 -0.007 0.03v0.03l0.007 0.019a0.041 0.041 0 0 0 0.037 0.03c0.011 0 0.022 -0.007 0.03 -0.015l0.015 -0.026v-0.045a0.075 0.075 0 0 0 -0.007 -0.022l-0.015 -0.022a0.034 0.034 0 0 0 -0.019 -0.004zm0 0.007c0.011 0 0.019 0.011 0.019 0.019l0.004 0.022v0.034l-0.004 0.022a0.037 0.037 0 0 1 -0.011 0.019c-0.004 0.004 -0.011 0.007 -0.015 0 -0.007 0 -0.007 -0.011 -0.011 -0.015v-0.071c0 -0.007 0 -0.015 0.007 -0.022a0.015 0.015 0 0 1 0.015 -0.007zm0.052 0.131h0.022c0.004 -0.004 -0.007 -0.007 -0.004 -0.015a0.075 0.075 0 0 1 0 -0.022l0.004 -0.022 0.004 -0.022 0.004 -0.019 0.004 0.019v0.026l0.007 0.022v0.022c0.004 0.007 0 0.019 0.011 0.015 0.007 0 0.004 -0.007 0.007 -0.011l0.007 -0.037 0.007 -0.019 0.011 -0.034v0.094c0 0.004 -0.011 0.011 0 0.011h0.022c0.007 0.004 0.004 0 0 -0.004v-0.116s0.007 -0.007 0 -0.007h-0.026l-0.007 0.019a0.337 0.337 0 0 1 -0.007 0.026l-0.004 0.026s-0.004 0.007 -0.004 0v-0.022c0 -0.004 -0.007 -0.011 -0.004 -0.015l-0.007 -0.037c0 -0.007 -0.007 0 -0.015 -0.007h-0.015v0.045l-0.007 0.049 -0.004 0.019c0 0.007 -0.004 0.011 -0.011 0.015zm0.124 0.011 0.022 0.004h0.011l-0.007 -0.015v-0.022l0.007 -0.019a0.825 0.825 0 0 1 0 -0.041 0.049 0.049 0 0 1 0 -0.019l0.007 -0.007c0.004 -0.007 -0.004 -0.004 -0.007 -0.004l-0.026 -0.004s0.007 0.007 0.004 0.011v0.064l-0.004 0.019a0.094 0.094 0 0 1 0 0.019zm0.041 0.011h0.019c0.004 0 0.011 0.004 0.007 0a0.03 0.03 0 0 1 -0.004 -0.019v-0.034a0.075 0.075 0 0 1 0.004 -0.022v-0.022c0.007 0.004 0.007 0.011 0.011 0.019l0.03 0.075c0 0.007 0 0.015 0.007 0.015s0.007 -0.004 0.007 -0.011v-0.019l0.004 -0.019v-0.022l0.007 -0.022v-0.022s0.015 -0.007 0.007 -0.011h-0.022l0.007 0.015 -0.004 0.041 -0.004 0.022 -0.007 -0.019 -0.011 -0.022 -0.007 -0.022 -0.011 -0.026a0.131 0.131 0 0 1 -0.022 -0.004c-0.007 0 0 0.007 0 0.015 0.004 0.011 0 0.022 0 0.03a0.15 0.15 0 0 1 0 0.022l-0.004 0.022 -0.004 0.022c0 0.007 -0.007 0.011 -0.011 0.015zm0.112 -0.112c0.004 0.007 0.011 0.011 0.007 0.015v0.019a0.112 0.112 0 0 1 -0.004 0.019l-0.004 0.026v0.019l-0.004 0.011v0.011l-0.007 0.007c-0.004 0.004 0.007 0 0.011 0.004l0.019 0.004s0.004 0 0 -0.004v-0.037l0.004 -0.019v-0.015c0.004 -0.007 0 -0.015 0.007 -0.022v-0.015c0 -0.004 0 -0.011 0.007 -0.015a0.045 0.045 0 0 0 -0.015 0l-0.015 -0.007a0.007 0.007 0 0 0 -0.004 0zm0.041 0.09a0.075 0.075 0 0 0 0.015 0.049c0 0.007 0.011 0.007 0.015 0.011h0.022c0.004 0 0.011 0 0.015 -0.007l0.011 -0.019c0 -0.007 -0.007 0.004 -0.011 0.007 -0.007 0.004 -0.019 0.007 -0.026 0a0.03 0.03 0 0 1 -0.011 -0.015v-0.019a0.263 0.263 0 0 1 0 -0.026v-0.019l0.011 -0.019a0.019 0.019 0 0 1 0.011 -0.007c0.007 0 0.011 0.007 0.015 0.011a0.03 0.03 0 0 1 0.004 0.019c0 0.004 0.004 0.011 0.007 0.004l0.007 -0.019c0 -0.007 -0.007 -0.011 -0.011 -0.015l-0.011 -0.007h-0.03a0.045 0.045 0 0 0 -0.011 0.015c-0.007 0.004 -0.011 0.015 -0.015 0.022a0.098 0.098 0 0 0 -0.004 0.026zm0.131 -0.049 -0.022 0.052c0 0.004 0 0.011 -0.007 0.019l-0.011 0.026 -0.011 0.015c-0.004 0 -0.004 0.007 0 0.007l0.019 0.004c0.007 0 0 -0.007 0 -0.011v-0.015c0.007 -0.007 0.015 0 0.019 0h0.015v0.03c-0.004 0 0 0.007 0 0.007l0.019 0.007c0.004 0 0.011 0 0.007 -0.004 -0.004 -0.011 0 -0.019 0 -0.03l-0.004 -0.022v-0.079zm0 0.03v0.056l-0.022 -0.004c-0.004 -0.007 0.004 -0.011 0.004 -0.019l0.015 -0.026zm0.056 0.124v-0.052l0.007 -0.019v-0.022c0.007 -0.007 0.007 0 0.007 0.004l0.011 0.037 0.007 0.022 0.007 0.034c0 0.004 0.004 0.015 0.011 0.011l0.007 -0.022 0.004 -0.022 0.007 -0.037 0.007 -0.03s0.015 -0.007 0.004 -0.011c-0.004 0 -0.011 -0.007 -0.019 -0.004l0.004 0.015v0.022a0.188 0.188 0 0 0 -0.007 0.019l-0.004 0.022c-0.007 -0.004 -0.004 -0.011 -0.007 -0.019l-0.007 -0.026a0.225 0.225 0 0 1 -0.007 -0.026 0.075 0.075 0 0 1 -0.004 -0.019c-0.004 -0.007 -0.015 -0.007 -0.019 -0.011 -0.007 0 -0.011 0 -0.007 0.007v0.037l-0.011 0.037 -0.004 0.022 -0.011 0.015c-0.007 0.007 0.007 0.007 0.011 0.011a0.026 0.026 0 0 0 0.011 0zm0.128 -0.086 -0.011 0.026 -0.015 0.026 -0.03 0.049s-0.007 0.007 0 0.007l0.019 0.007v-0.03l0.019 0.004c0.004 0.004 0.015 0 0.015 0.011l-0.004 0.022c-0.004 0 -0.007 0.004 0 0.007l0.011 0.004c0.007 0 0.011 0.007 0.015 0.004v-0.135zm0 0.026v0.06l-0.019 -0.007s-0.011 0 -0.007 -0.007l0.011 -0.026z"/><g transform="matrix(.89273 0 0 .89274 -125.5 -33.3)"><path fill="#fff" d="M17.794 10.537v1.522c0 0.135 0 0.221 0.068 0.304a0.412 0.412 0 0 0 0.225 0.158c0.064 0.011 0.289 0.007 0.367 0.007 0.172 -0.011 0.195 0.03 0.263 0.112 0.075 -0.116 0.154 -0.12 0.307 -0.112 0.075 0 0.247 0.004 0.315 -0.011a0.352 0.352 0 0 0 0.203 -0.124c0.09 -0.101 0.083 -0.225 0.083 -0.36v-1.436c0 -0.068 -0.007 -0.049 0.026 -0.083l0.217 -0.225H17.55l0.24 0.251z"/><path fill="#002d62" d="M18.517 11.213v-0.926h-0.956l0.236 0.251v0.675z"/><path fill="#ce1126" d="M18.9 11.213v-0.926h0.975l-0.251 0.266v0.664zm-0.382 0.386h-0.724l-0.004 0.585c0.034 0.255 0.225 0.345 0.39 0.341h0.337z"/><path fill="#002d62" d="M18.9 11.599h0.727V12.188c-0.019 0.255 -0.225 0.345 -0.394 0.341h-0.337z"/><path fill="none" stroke="#000" stroke-width="0.01875" d="M17.797 10.537v1.522c0 0.135 0 0.217 0.068 0.311a0.345 0.345 0 0 0 0.225 0.15c0.064 0.011 0.289 0.007 0.367 0.007 0.101 0 0.146 -0.007 0.214 0.06 0.022 0.022 0.026 0.03 0.041 0.056a0.304 0.304 0 0 1 0.112 -0.105c0.052 -0.019 0.142 -0.011 0.203 -0.011 0.079 0 0.247 0.004 0.315 -0.011a0.397 0.397 0 0 0 0.203 -0.124c0.09 -0.101 0.083 -0.225 0.083 -0.36v-1.436c0 -0.068 -0.007 -0.049 0.026 -0.083l0.217 -0.225h-2.314z"/><path fill="#eac102" stroke="#000" stroke-width="0.01125" d="M18.675 10.515v0.105h-0.112v0.086h0.105v0.375h0.086v-0.375h0.109v-0.086h-0.109v-0.105z"/><g id="do-b"><path fill="#fff" d="M18.071 10.65v0.172l-0.071 -0.075 0.011 1.2c0 0.176 0.128 0.322 0.285 0.322s0.285 -0.142 0.289 -0.319l-0.011 -0.615 -0.075 -0.083 -0.004 -0.064z"/><path fill="#002d62" d="M18.071 10.657v0.172l-0.071 -0.075 0.007 0.682 0.307 0.296v-0.652l-0.007 -0.015v-0.112z"/><path fill="#ce1126" d="m18.405 11.081 0.09 0.112v0.041l-0.09 -0.094zm0.169 0.263 0.007 0.427c-0.045 0.083 -0.135 0.037 -0.135 0.037l0.004 -0.593z"/><path fill="#002d62" d="M18.585 11.985c-0.12 0.09 -0.15 -0.037 -0.15 -0.037a0.165 0.165 0 0 0 0.15 -0.112z"/><path fill="#ce1126" d="M18.008 11.614a2.025 2.025 0 0 0 0.3 0.281c0.037 0.289 0.206 0.191 0.266 0.15 -0.037 0.135 -0.146 0.232 -0.278 0.232 -0.158 0 -0.285 -0.146 -0.285 -0.322z"/><path fill="none" stroke="#000" stroke-width="0.01125" d="M18.495 11.235v-0.041L18.071 10.65v0.15zM18 10.751l0.011 1.196c0 0.176 0.128 0.322 0.289 0.322 0.154 0 0.281 -0.142 0.285 -0.319l-0.011 -0.615z"/><g fill="#eac102" stroke="#000" stroke-width=".1"><path d="M18.232 10.545c-0.03 -0.052 -0.022 -0.075 -0.004 -0.098l-0.112 -0.112 0.034 0.158c0.03 -0.007 0.052 0 0.083 0.052zm-0.112 -0.21 0.112 0.21"/><path d="m18.675 11.276 -0.026 0.011 -0.45 -0.765 0.03 -0.015z"/><path d="M18.188 10.523c-0.004 -0.007 0 -0.019 0.019 -0.026 0.011 -0.007 0.026 -0.007 0.03 0 0 0.007 -0.004 0.019 -0.019 0.026 -0.011 0.007 -0.026 0.007 -0.03 0zm-0.15 0.06c-0.037 -0.049 -0.034 -0.075 -0.015 -0.098l-0.124 -0.098 0.052 0.15c0.03 -0.011 0.052 -0.004 0.086 0.045zm-0.139 -0.195 0.139 0.195"/><path d="m18.574 11.25 -0.026 0.015 -0.54 -0.701 0.022 -0.019z"/><path d="M17.992 10.568c-0.007 -0.007 0 -0.022 0.011 -0.03 0.015 -0.011 0.026 -0.011 0.034 -0.004 0 0.004 0 0.019 -0.015 0.026s-0.026 0.011 -0.03 0.004zm0.015 0.172c-0.041 -0.049 -0.041 -0.075 -0.026 -0.098l-0.135 -0.083 0.068 0.146c0.03 -0.015 0.052 -0.015 0.094 0.034zm-0.161 -0.18 0.161 0.176"/><path d="m18.589 11.359 -0.615 -0.637 0.022 -0.019 0.615 0.637z"/><path d="M17.959 10.725c-0.007 -0.004 0 -0.019 0.011 -0.03s0.022 -0.015 0.03 -0.007c0.004 0.007 0 0.019 -0.011 0.03s-0.026 0.015 -0.03 0.007z"/></g></g><use xlink:href="#do-b" width="100%" height="100%" transform="matrix(-1 0 0 1 998.3 0)"/><g stroke="#000" stroke-width=".2"><path fill="#ce1126" d="m18.626 11.794 -0.022 0.379c-0.022 0 -0.071 -0.004 -0.075 -0.037 0 -0.015 0.049 -0.326 0.049 -0.356z"/><path fill="#002d62" d="m18.593 11.779 -0.011 0.116c0.007 0.037 0.052 0.03 0.075 0.034l0.007 -0.195a0.619 0.619 0 0 1 -0.075 0.045z"/><path fill="#002d62" d="M18.596 12.262c0.06 -0.075 0.18 -0.019 0.18 -0.019 0.128 0.03 0.094 -0.116 0.094 -0.116 -0.026 -0.292 -0.056 -0.495 -0.056 -0.495l-0.188 0.128z"/><path fill="#002d62" d="M18.596 12.27c-0.015 0.086 0.075 0.075 0.075 0.075 0.101 0 0.071 -0.112 0.071 -0.112 -0.112 -0.034 -0.15 0.037 -0.15 0.037z"/><path fill="#ce1126" d="m18.668 11.726 -0.007 0.337c0.004 0.079 0.094 0.037 0.094 0.037 0.022 -0.011 0.045 -0.004 0.045 -0.004v-0.105c0.15 -0.011 0.112 -0.098 0.112 -0.098 -0.06 -0.285 -0.068 -0.274 -0.068 -0.274z"/><path fill="none" d="M18.799 11.992c-0.094 0 -0.135 0.037 -0.135 0.037v0.007"/><path fill="#fff" d="m18.787 12.24 -0.034 -0.566 0.068 -0.045 0.056 0.532v0.004c0 0.101 -0.09 0.075 -0.09 0.075z"/></g><g fill="#fff" stroke="#000"><path fill="#000001" stroke="none" d="m18.307 11.332 0.255 0.465 0.551 -0.364 -0.289 -0.42z" stroke-width="0.0375"/><path stroke-width="0.01125" d="m18.319 11.329 0.514 -0.3 0.285 0.405 -0.547 0.352z"/><path fill="#000001" stroke="none" d="m18.577 11.756 0.514 -0.33 -0.037 -0.064 -0.259 -0.349 -0.188 0.15 -0.236 0.131 -0.041 -0.026 0.007 0.056z" stroke-width="0.0375"/><path stroke-width="0.00375" d="M18.607 11.168c-0.075 -0.037 -0.165 0.075 -0.188 0.098 -0.03 0.022 -0.079 0.011 -0.079 0.011l0.232 0.412c0.068 0.03 0.112 -0.056 0.142 -0.086 0.06 -0.049 0.128 -0.045 0.128 -0.045z"/><path stroke-width="0.00375" d="M18.615 11.171c0 -0.09 0.112 -0.116 0.139 -0.135 0.03 -0.015 0.037 -0.071 0.037 -0.071l0.263 0.397c-0.007 0.075 -0.098 0.086 -0.135 0.105 -0.068 0.037 -0.075 0.094 -0.075 0.094zm-0.052 0.521a22.35 22.35 0 0 0 -0.229 -0.412v0.045c0.172 0.281 0.244 0.431 0.244 0.431z"/><path fill="#000001" stroke="none" d="M18.409 11.332v0.007l0.004 -0.004 0.007 0.004h-0.007l0.004 0.007 0.007 -0.007 -0.011 0.011 -0.007 -0.015h-0.004l0.015 -0.011v0.007zm0.015 -0.011 0.007 0.015v0.007c-0.004 0 0 0 0 -0.004l-0.004 -0.004 -0.007 -0.011zm0.019 -0.011h-0.007v0.004h0.015v0.011a0.007 0.007 0 0 1 -0.007 0v0.004l-0.004 -0.004h0.007c0.004 0 0.004 -0.004 0 -0.004h-0.004l-0.007 -0.004v-0.007a0.007 0.007 0 0 1 0.004 0v-0.004zm0.019 0.007h-0.007v-0.004l0.004 -0.004v-0.004h-0.004v0.004c-0.004 0 0 0 0 0a0.007 0.007 0 0 1 0 -0.007l0.007 0.004zm0 0v-0.004l-0.004 0.004zm0.004 -0.015 0.004 -0.004h0.004l0.007 0.007 -0.004 0.007v-0.004l-0.004 -0.004v-0.004zv0.007h0.004l-0.004 0.007v-0.007zh-0.004zm0.011 -0.015 0.004 0.004h0.004v0.011h0.004l-0.007 -0.007a0.019 0.019 0 0 0 0 -0.007m0.011 0a0.007 0.007 0 0 1 0.007 0 0.007 0.007 0 0 1 0.004 0.004 0.007 0.007 0 0 1 0 0.007 0.004 0.004 0 0 1 -0.007 0 0.007 0.007 0 0 1 -0.004 -0.011m0 0v0.004l0.007 0.007v-0.011zm-0.06 0.075 0.004 0.007v-0.004l0.007 0.007h-0.007l0.004 0.004h0.004l0.004 -0.004v-0.004l-0.011 0.007v-0.004l-0.007 -0.011 0.011 -0.011v0.004h-0.004zm0.026 0.007 -0.011 -0.007 0.004 -0.004v0.004h0.007c0 -0.004 0 -0.007 -0.004 -0.004v-0.004zm0.011 -0.011v0.007h-0.007v-0.007zc0 -0.004 -0.004 0 -0.004 0a0.007 0.007 0 0 1 0.004 -0.007l0.004 0.004 0.004 0.007zm0.007 -0.015c0.004 -0.004 0.007 0 0.007 0l0.004 0.004v0.007c-0.004 0 0 0 0 0l-0.007 -0.007zv0.015l-0.004 -0.007 -0.004 -0.004v-0.004zm0.015 -0.011v0.011h0.007v0.007a0.015 0.015 0 0 1 -0.007 0l-0.004 -0.004v-0.004a0.004 0.004 0 0 1 -0.004 0v-0.007a0.007 0.007 0 0 1 0.004 0zm0 0v0.007q0.006 0 0 0a0.011 0.011 0 0 0 0 -0.004zm0.007 0.015s-0.004 0 0 0.004zm0.011 -0.019h-0.007l0.004 0.007za0.007 0.007 0 0 1 0 0.004h-0.007a0.011 0.011 0 0 1 0 -0.004c-0.004 0 0 -0.007 0 -0.007a0.004 0.004 0 0 1 0.004 0 0.011 0.011 0 0 1 0.004 0zm-0.004 0h-0.004zm0 -0.015 0.011 0.015h0.004l-0.007 0.004v-0.004zm0.015 0 0.004 0.011v0.004c-0.004 0 0 0 0 0l-0.004 -0.004 -0.004 -0.007zm0.007 -0.004a0.007 0.007 0 0 1 0.004 0l0.004 0.007a0.007 0.007 0 0 1 0 0.004 0.004 0.004 0 0 1 -0.007 0 0.007 0.007 0 0 1 0 -0.011m0 0v0.011h0.007v-0.007zq0 -0.006 0 0m-0.075 0.083 0.004 0.007c0 -0.004 -0.007 -0.004 -0.007 0h0.007l0.007 0.004v0.007a0.007 0.007 0 0 1 -0.007 0.004l-0.007 -0.004h0.011v-0.004h-0.015a0.007 0.007 0 0 1 0 -0.011 0.007 0.007 0 0 1 0.007 0zm0.022 0 -0.007 0.007h0.007a0.007 0.007 0 0 1 0 0.004h-0.007a0.007 0.007 0 0 1 -0.004 0v-0.011a0.004 0.004 0 0 1 0.007 0zm-0.004 0.004h-0.004zm0.007 -0.011a0.007 0.007 0 0 1 0 0.004v0.004h0.007v0.004a0.015 0.015 0 0 1 -0.007 0.004l-0.004 -0.004a0.007 0.007 0 0 1 0 -0.004 0.004 0.004 0 0 1 -0.004 0v-0.011a0.007 0.007 0 0 1 0.004 0m0 0v0.007s0.004 0 0 0a0.011 0.011 0 0 0 0 -0.007m0.007 0.015s-0.004 0 0 0c0 0 0.004 0 0 0m0.007 -0.026 0.007 0.011 -0.007 0.007 -0.007 -0.011 0.007 0.007h0.004v-0.004zm0.011 -0.004v-0.004h0.007l0.004 0.007 -0.004 0.007v-0.007zs-0.004 0 0 0v0.015c-0.004 0 0 0 0 0l-0.007 -0.007v-0.007zm0.022 -0.022h-0.007v0.004h0.015v0.011a0.007 0.007 0 0 1 -0.007 0v0.004l-0.004 -0.004h0.007v-0.004h-0.011a0.007 0.007 0 0 1 0 -0.011 0.007 0.007 0 0 1 0.004 0v-0.004zm0.019 0.007 -0.004 0.004h-0.004a0.007 0.007 0 0 1 0 -0.007v-0.004c-0.004 0 0 0 0 0a0.007 0.007 0 0 1 0 -0.007 0.004 0.004 0 0 1 0.007 0zm0 0 -0.004 -0.004v0.004zm0.004 -0.015 0.004 -0.004h0.004l0.007 0.007 -0.004 0.007 -0.004 -0.007v-0.004zv0.007h0.004l-0.004 0.007v-0.007l-0.007 -0.004zm0.015 -0.019 0.011 -0.004 0.004 0.011v0.007a0.007 0.007 0 0 1 -0.004 0.004h-0.004v-0.004h0.004v-0.007zm0.026 -0.007 0.004 0.011h0.004l-0.004 0.007a0.004 0.004 0 0 1 -0.004 0l-0.007 -0.011h0.004l0.004 0.007h0.004zh-0.004zm0.015 0.004h-0.007v-0.011c-0.004 0 0 0 0 -0.004h0.007v0.004h0.004zm0 0 -0.004 0.004zm0.004 -0.015 0.007 0.007 -0.004 0.004 -0.004 -0.004v-0.004zv0.007h0.004l-0.004 0.007zh-0.007zm-0.101 0.176a0.007 0.007 0 0 0 -0.007 0 0.007 0.007 0 0 0 -0.004 0.007l0.004 0.007h0.011v-0.007a0.007 0.007 0 0 1 0 0.007 0.007 0.007 0 0 1 -0.011 0 0.011 0.011 0 0 1 -0.004 -0.015 0.011 0.011 0 0 1 0.007 -0.004zm0.022 0 -0.007 0.007v0.004c0.004 0 0 0 0 0v0.004l-0.004 -0.015 0.015 0.011a0.004 0.004 0 0 0 0.004 0l-0.007 0.004v-0.004zm0 0h-0.011v0.007l0.007 -0.004zm0.007 -0.007 0.004 0.007h0.004l-0.007 0.004v-0.004zh-0.004l0.007 -0.007h0.004c0.004 0 0.004 0.004 0 0.007a0.011 0.011 0 0 1 0 0.004zm0 0 0.004 -0.004a0.004 0.004 0 0 0 0 -0.007l-0.007 0.004zm0.022 0h-0.007l-0.004 -0.015h-0.004l0.004 -0.004v0.004l0.007 0.011zm0.004 -0.03h-0.007l0.007 0.015h0.004l-0.007 0.007c0.004 0 0 -0.004 0 -0.007l-0.004 -0.011h-0.004v0.007l-0.004 -0.004zm0.015 -0.007h0.007v0.011l0.004 0.004a0.011 0.011 0 0 1 -0.007 0.007 0.007 0.007 0 0 1 -0.007 -0.004v-0.007h-0.007l0.007 -0.007v0.004l0.004 0.007 0.004 0.004a0.007 0.007 0 0 0 0.007 0 0.004 0.004 0 0 0 0 -0.007l-0.007 -0.007c0 -0.004 0 0 0 0zm0.026 0 0.004 0.004 -0.015 0.007c0.004 0 0 0 0 0l-0.004 -0.015h-0.004l0.007 -0.004v0.004l0.004 0.011h0.004l0.004 -0.004zm0.004 -0.019h0.011a0.011 0.011 0 0 1 0.004 0.011 0.011 0.011 0 0 1 -0.011 0.007 0.011 0.011 0 0 1 -0.007 -0.004 0.011 0.011 0 0 1 0 -0.011 0.011 0.011 0 0 1 0.004 -0.004m0 0a0.004 0.004 0 0 0 0 0.007 0.015 0.015 0 0 0 0 0.007h0.007a0.007 0.007 0 0 0 0.007 -0.004 0.015 0.015 0 0 0 -0.004 -0.007 0.007 0.007 0 0 0 -0.007 -0.004zm0.037 -0.022v0.026l-0.015 -0.011h0.004l0.011 0.007v-0.011s0 -0.004 -0.004 0zm0.015 0.011 -0.007 0.007v-0.007l-0.007 -0.011 0.004 -0.004v0.004zm0.007 -0.004 -0.004 0.004zl-0.007 -0.011h-0.004l0.007 -0.007v0.007zm0.011 -0.007 -0.007 0.007v-0.004l-0.007 -0.015h-0.004l0.007 -0.004v0.004zm-0.15 0.158v-0.007h0.007v0.004a0.004 0.004 0 0 1 0.007 0.004 0.007 0.007 0 0 1 0 0.007 0.011 0.011 0 0 1 -0.004 0.004c0.004 -0.004 0.004 -0.007 0 -0.007h-0.004a0.004 0.004 0 0 0 0 -0.007zm0.015 -0.011v-0.007l0.011 0.015h0.004l-0.004 0.007v-0.007zm0.026 -0.019 0.007 -0.004v0.015c0 0.004 0 0.004 0.004 0v0.004l-0.007 0.004v-0.007l-0.011 -0.004zl0.007 0.004zm0.03 0h-0.007a0.007 0.007 0 0 1 0 -0.011v-0.007l0.011 0.011zm0 0v-0.007h-0.007v0.004zm0.004 -0.011 0.007 0.004v-0.004h0.004v0.007a0.004 0.004 0 0 1 -0.007 0 0.011 0.011 0 0 1 -0.004 -0.007 0.007 0.007 0 0 1 0 -0.004 0.004 0.004 0 0 1 0.007 0zm0 0h0.007l-0.004 -0.004s-0.004 0 0 0.004zm0.022 -0.007a0.007 0.007 0 0 1 0 0.007 0.004 0.004 0 0 1 -0.007 0l-0.004 -0.004v-0.007a0.004 0.004 0 0 1 0.007 0h-0.004v0.004a0.007 0.007 0 0 0 0 0.004 0.004 0.004 0 0 0 0.007 0zm0.004 -0.007 0.007 0.011c-0.004 0 0 0 0 0h-0.004l-0.004 -0.007zm0.015 0.004v0.004h-0.007v-0.004a0.037 0.037 0 0 1 0.004 -0.004 0.004 0.004 0 0 0 0 -0.004h-0.004v0.004h0.004zm0 0v-0.004za0.007 0.007 0 0 0 0.004 0m0.004 -0.022 0.007 -0.004 0.004 0.011v0.007s-0.004 0 0 0v-0.004zm0.015 0 0.007 0.007 0.004 -0.004v0.004a0.004 0.004 0 0 1 -0.007 0 0.007 0.007 0 0 1 0 -0.004 0.007 0.007 0 0 1 0 -0.007h0.007zm0 0h0.007s0 -0.004 -0.004 0zm0.015 -0.011c-0.004 0.004 0 0.007 0 0.004za0.004 0.004 0 0 1 0.004 0.004v0.004h-0.007zh-0.007v-0.004a0.007 0.007 0 0 1 0 -0.004zm0.015 -0.007 0.004 0.007v0.004c-0.004 0.004 -0.007 0.004 -0.007 0l-0.007 -0.004v-0.004l0.007 0.007h0.004zm0.007 -0.007c0 0.004 0 0 0 0 -0.004 0.004 0 0.007 0 0.007h0.004a0.004 0.004 0 0 1 0.004 0v0.007h-0.007c0 -0.004 0 0 0 0h0.007v-0.007h-0.011zm0.022 0v0.004h-0.007v-0.004l0.004 -0.004a0.004 0.004 0 0 0 0 -0.004h-0.004v0.004h0.004c0.004 0 0 0 0 0zm0 0v-0.004h-0.007za0.007 0.007 0 0 0 0 -0.004zm-0.169 0.131 0.007 0.015h0.004zs-0.004 0 0 0v-0.007zm0.011 0a0.007 0.007 0 0 1 0.007 0 0.007 0.007 0 0 1 0 0.004 0.007 0.007 0 0 1 0 0.007 0.004 0.004 0 0 1 -0.004 0 0.007 0.007 0 0 1 -0.007 -0.007 0.007 0.007 0 0 1 0.004 -0.004m0 0a0.011 0.011 0 0 0 0.004 0.011h0.004v-0.007zm0.015 -0.011v0.004h-0.004s0 0.004 0 0h0.007a0.004 0.004 0 0 1 0 0.007v0.004h-0.007v-0.007h-0.007zm0.007 -0.011s0.004 0 0 0m0.004 0.004 0.007 0.011v0.007c-0.004 0 0 0 0 0v-0.011zm0.015 -0.007 0.007 0.007v0.004l-0.007 0.004 -0.007 -0.004v-0.007l0.007 0.007s0.004 0 0 0v-0.007zm0.019 0 -0.004 0.007h-0.007a0.007 0.007 0 0 1 0 -0.011h0.004v-0.007h-0.004zv0.004zm0 0h-0.007v-0.004c-0.004 0 -0.004 0 0 0.004v0.004h0.004zm-0.004 -0.019c0 0.004 0 0 0 0m0.004 0.007 0.007 0.007v0.004c-0.004 0 0 0 0 0h-0.004l-0.004 -0.007zm0.007 -0.007a0.007 0.007 0 0 1 0.007 0 0.007 0.007 0 0 1 0.004 0.007 0.007 0.007 0 0 1 0 0.004 0.004 0.004 0 0 1 -0.007 0 0.007 0.007 0 0 1 -0.004 -0.007 0.007 0.007 0 0 1 0 -0.004m0 0v0.004a0.011 0.011 0 0 0 0.004 0.007h0.007v-0.007h-0.007zm0.015 -0.007v0.004h0.007v0.007h-0.004s0 0.004 0 0h-0.004v-0.004h-0.011a0.004 0.004 0 0 1 0 -0.007zm0.019 -0.015 0.011 0.015v0.007c-0.004 0 0 0 0 0v-0.007h-0.015a0.007 0.007 0 0 1 0 -0.007v-0.004h0.004zm0.004 0.011h-0.007l0.004 0.007a0.004 0.004 0 0 0 0.004 0zm0.011 -0.019 0.004 0.011v0.004h-0.007l-0.004 -0.007h-0.004l0.004 0.007h0.004v-0.011h-0.004zm0.007 0 0.004 0.007 0.004 -0.004v0.004a0.004 0.004 0 0 1 -0.007 0 0.007 0.007 0 0 1 0 -0.004 0.007 0.007 0 0 1 0 -0.007 0.004 0.004 0 0 1 0.004 0l-0.004 0.007zm0.011 -0.019 0.011 0.015v0.004c-0.004 0 0 0 0 0l-0.004 -0.004 -0.007 -0.011zm0.011 0.007h0.007v-0.004h0.004v0.007a0.004 0.004 0 0 1 -0.007 0 0.007 0.007 0 0 1 -0.004 -0.004 0.007 0.007 0 0 1 0 -0.007 0.004 0.004 0 0 1 0.007 0zm0 0 0.007 -0.007h-0.004s-0.004 0 0 0.004zm-0.139 0.116 0.004 0.011 0.004 -0.007a0.004 0.004 0 0 1 0.004 0l0.004 0.007h0.004l-0.004 0.007v-0.007l-0.004 -0.004h-0.004v0.011h0.004v-0.004l-0.007 -0.011zm0.026 0.007c-0.004 0.004 -0.007 0.004 -0.007 0a0.037 0.037 0 0 1 0 -0.007c0 0.004 -0.004 0.004 -0.004 0 0.004 0 0.004 -0.004 0.007 0zc0.004 0 0 0 0 0q0 0.006 0 0m0 0 -0.004 -0.007zm0 -0.015h0.007a0.007 0.007 0 0 1 0 0.011c-0.004 0 -0.004 0.004 -0.007 0l-0.007 -0.011zm0 0 0.007 0.007h0.004v-0.007zm0.015 -0.011 0.007 0.011 -0.004 0.004v-0.004l-0.004 -0.004zm0.015 0.007h-0.007v-0.004a0.037 0.037 0 0 1 0.004 -0.004h-0.004l0.004 -0.004zs0 0.004 0 0m0 0v-0.007l-0.004 0.004v0.004zm0.004 -0.015h0.007l0.004 0.007v0.004zv0.007h0.004l-0.004 0.004 -0.004 -0.007h-0.004a0.007 0.007 0 0 1 0 -0.004zm0.03 -0.011a0.007 0.007 0 0 1 0 0.007 0.004 0.004 0 0 1 -0.007 0h-0.004v-0.011a0.004 0.004 0 0 1 0.007 0h-0.004l-0.004 0.004a0.007 0.007 0 0 0 0.004 0.007 0.004 0.004 0 0 0 0.007 0zm0 -0.011v0.004zv0.015h0.004l-0.004 0.004 -0.004 -0.007s-0.004 0 0 0v-0.007zm0.007 0 0.007 0.004v-0.004h0.004v0.007a0.004 0.004 0 0 1 -0.007 0 0.007 0.007 0 0 1 -0.004 -0.007 0.007 0.007 0 0 1 0 -0.004 0.004 0.004 0 0 1 0.007 0zm0 0h0.007zs-0.004 0 0 0a0.004 0.004 0 0 0 0 0.004zm0.007 -0.019v0.004zm0.004 0.007 0.007 0.007v0.007c-0.004 0 0 0 0 0l-0.004 -0.007zm0.019 0 -0.004 0.007h-0.007a0.007 0.007 0 0 1 0 -0.011h0.004v-0.007h-0.004zs0.004 0 0 0v0.004zm0 0h-0.004l-0.004 -0.004v0.007zm0 -0.015a0.007 0.007 0 0 1 0.011 0 0.007 0.007 0 0 1 0 0.007 0.007 0.007 0 0 1 0 0.007 0.007 0.007 0 0 1 -0.007 0 0.007 0.007 0 0 1 0 -0.011zm0 0v0.007a0.011 0.011 0 0 0 0.007 0.004h0.004v-0.004l-0.004 -0.004zm-0.037 -0.345 0.007 0.004a0.004 0.004 0 0 0 -0.011 0v0.004h0.011a0.004 0.004 0 0 1 0.004 0.007h-0.004l-0.004 0.004v-0.004h0.004v-0.004h-0.007c-0.004 -0.004 -0.004 -0.007 0 -0.007zm0.007 -0.004 0.007 0.011h0.004l-0.004 0.004 -0.004 -0.007v-0.004zm0.011 0 0.007 0.007v-0.011zm0.015 -0.011a0.004 0.004 0 0 1 0.007 0v0.011a0.007 0.007 0 0 1 -0.007 -0.004 0.004 0.004 0 0 1 0 -0.007m0 0v0.007h0.007v-0.004s-0.004 -0.004 -0.004 0zm0.015 -0.007h-0.004v0.004h0.007v0.007h-0.004c0.004 0 0 -0.004 0 -0.004h-0.004v-0.007zm0.007 -0.004a0.004 0.004 0 0 1 0.004 0l0.004 0.007s-0.004 0.004 -0.007 0a0.007 0.007 0 0 1 -0.004 0 0.004 0.004 0 0 1 0 -0.007zm0 0v0.007h0.007v-0.004zm0.004 -0.011h0.007v0.007c0.004 0 0 0 0 0 0 0.004 0 0 0 0zc-0.004 0 0 0 0 0m0.011 0s0.004 0 0 0v0.007h0.007l-0.007 0.004zh-0.004zm0.007 -0.004a0.004 0.004 0 0 1 0.004 0l0.004 0.007h-0.004a0.007 0.007 0 0 1 -0.007 0 0.004 0.004 0 0 1 0 -0.007 0.004 0.004 0 0 1 0.004 0m0 0 0.004 0.004h0.004v-0.004zm0.011 -0.007h0.004s0.004 0 0 0.004v0.004h-0.004l-0.004 -0.004h-0.004zm-0.075 0.09c0 -0.004 0.004 -0.004 0.004 0l0.004 0.004a0.004 0.004 0 0 1 -0.004 0.004v0.004h0.004l-0.004 0.004zm0 0h0.007q0 0.006 0 0v-0.004zm0.011 -0.007h0.007v0.004a0.004 0.004 0 0 1 -0.004 0 0.007 0.007 0 0 1 -0.004 -0.004 0.004 0.004 0 0 1 0 -0.007 0.004 0.004 0 0 1 0.007 0zm0 0 0.007 -0.004zm0.011 -0.011s0.004 0 0 0v0.007h0.007l-0.007 0.004zm0.007 0v-0.007h0.007c0 -0.004 0.004 0 0.004 0l0.004 0.004v0.004l-0.004 -0.004h-0.004v0.007h0.004l-0.004 0.004v-0.007zl0.004 0.007v0.004zm0.022 -0.007c-0.004 0.004 -0.007 0 -0.004 0v-0.004q0 -0.006 0 0h-0.004v-0.004h0.004zm0 0a0.011 0.011 0 0 0 -0.004 0za0.007 0.007 0 0 0 0.004 0m0.004 -0.011h0.007v0.007h0.004v-0.004zl0.004 0.007zm0.011 -0.004h0.007a0.004 0.004 0 0 1 -0.007 0 0.004 0.004 0 0 1 0 -0.007 0.004 0.004 0 0 1 0.004 0zm0 0 0.004 -0.004h-0.004zm0.019 -0.007a0.004 0.004 0 0 1 -0.007 0h-0.004a0.004 0.004 0 0 1 0 -0.007h0.007a0.007 0.007 0 0 0 0 0.007zm0 -0.007 0.004 0.004h0.004v-0.004a0.004 0.004 0 0 1 -0.007 0 0.007 0.007 0 0 1 0 -0.007 0.004 0.004 0 0 1 0 -0.004 0.004 0.004 0 0 1 0.004 0zm0 0c0 -0.004 0 -0.004 -0.004 0m0.007 -0.007v0.015h0.004c-0.004 0 0 0 0 0l-0.007 -0.007zm0.011 0h0.007a0.004 0.004 0 0 1 -0.007 0 0.007 0.007 0 0 1 -0.004 0 0.004 0.004 0 0 1 0 -0.007 0.004 0.004 0 0 1 0.007 0zm0 -0.019c0.004 0 0.007 0 0.004 0.004zm0.007 0.007 0.004 0.007h0.004zm0.007 -0.007c0 0.004 0 0 0 0h0.004s0.004 0.004 0 0.007h-0.004s0 -0.004 -0.004 0h-0.004zm-0.101 0.112h0.007v-0.004a0.004 0.004 0 0 1 -0.004 0 0.007 0.007 0 0 1 -0.004 0 0.004 0.004 0 0 1 0 -0.007 0.004 0.004 0 0 1 0.004 0zm0 -0.004c0 -0.004 0 -0.004 -0.004 0m0.011 -0.007 0.004 0.004v0.004zv0.007h0.004v0.004zm0.015 -0.011v-0.004h0.007v-0.004h0.004l0.004 0.007 -0.004 -0.007h-0.004v0.015h0.004v-0.004zl0.004 0.007h-0.004zm0.011 -0.019s0.004 0 0 0c0 0.004 0 0 0 0m0.004 0.004 0.007 0.011c-0.004 0 0 0 0 0h-0.004v-0.007zm0.007 0v-0.004h0.007s0.004 0.007 0 0.007a0.004 0.004 0 0 1 0 0.004v0.007zm0.007 0c0 0.004 0.004 0.004 0.004 0zm0.015 -0.004c-0.004 0.004 -0.004 0 -0.004 0v-0.007h-0.004v-0.004h0.007zs0 0.004 0 0m0 0v-0.004h-0.004c0 0.004 0 0.007 0.004 0.004m0 -0.019 0.007 0.011v0.004zm0.019 0.007v-0.007s-0.004 0 0 0v-0.004zm0 0 -0.004 -0.004za0.007 0.007 0 0 0 0 -0.004zm0 -0.011v-0.004h0.007a0.007 0.007 0 0 1 0 0.007 0.004 0.004 0 0 1 0 0.004h-0.004l-0.007 -0.011zm0 0 0.004 0.007h0.004v-0.007zm0.011 -0.007q0.006 0 0 0l0.004 0.007v0.004zm0.015 0h-0.007l0.004 -0.007h-0.004c0 0.004 0 0 0 0h0.004zm0 0s0 0.004 0 0m-0.098 0.09c-0.004 0.004 0 0.004 0 0.004h0.004v0.007h-0.004v-0.004h-0.007zm0.007 0h0.007v0.004a0.004 0.004 0 0 1 -0.007 0 0.007 0.007 0 0 1 0 -0.004 0.004 0.004 0 0 1 0 -0.004 0.004 0.004 0 0 1 0.004 0zm0 0v-0.004zm0.007 -0.011v0.007h0.004l-0.004 0.004 -0.004 -0.007zm0.007 0 0.004 0.004h0.004v-0.004a0.004 0.004 0 0 1 -0.004 0 0.007 0.007 0 0 1 -0.004 0 0.004 0.004 0 0 1 0 -0.007 0.004 0.004 0 0 1 0.007 0zm0 0q0 -0.006 0 0m0.015 -0.015 0.007 0.011zs-0.004 0 0 0m0.011 -0.004c-0.004 0.004 0 0.004 0 0.004h0.004v0.007h-0.004v-0.004h-0.007zm0.007 -0.004 0.004 -0.004 0.007 0.007v-0.007h-0.004v-0.004l0.004 0.011zm0.015 -0.007h0.004v-0.004a0.004 0.004 0 0 1 -0.007 0 0.007 0.007 0 0 1 0 -0.007 0.004 0.004 0 0 1 0 -0.004 0.004 0.004 0 0 1 0.004 0zm0 0c0 -0.004 0 -0.004 -0.004 0m0.007 -0.011v0.015h0.004c-0.004 0 0 0 0 0l-0.007 -0.007zm0.019 0a0.004 0.004 0 0 1 -0.004 0.007 0.007 0.007 0 0 1 -0.007 0 0.007 0.007 0 0 1 0 -0.011h0.004v-0.007zm0 0h-0.004c0 -0.004 -0.004 -0.004 -0.004 0v0.004zm0.007 0h-0.004v-0.007h-0.004c0 0.004 0.004 0 0.004 0zm0 0v-0.007l-0.004 0.004s0 0.004 0.004 0zm0.011 -0.011a0.004 0.004 0 0 1 0 0.004 0.007 0.007 0 0 1 -0.007 0 0.007 0.007 0 0 1 0 -0.007v-0.007zm0 0v-0.004h-0.007l0.004 0.007zm0 -0.007 0.007 0.004h0.004v-0.004a0.004 0.004 0 0 1 -0.007 0 0.004 0.004 0 0 1 0 -0.007 0.004 0.004 0 0 1 0.004 0zm0 0h0.007c0 -0.004 0 -0.004 -0.004 0zm0.011 -0.011v0.007h0.004l-0.004 0.007v-0.004zm0.015 0v0.007l-0.004 -0.004v-0.007h-0.004v-0.004h0.007zm0 0h-0.004c0 0.004 0 0.007 0.004 0.004zm0.004 -0.007v-0.004h0.007v-0.004h0.004l0.004 0.007c0.004 0 0 0 0 0l-0.004 -0.007h-0.004v0.015h0.004c-0.004 0 0 0 0 0h-0.004v-0.004zl0.004 0.007zm0.019 -0.007h0.007v0.004a0.004 0.004 0 0 1 -0.007 0 0.007 0.007 0 0 1 -0.004 -0.004 0.004 0.004 0 0 1 0 -0.007 0.004 0.004 0 0 1 0.007 0zm0 0v-0.004zm0.007 -0.007v-0.007h0.007v0.007h0.004v0.004l-0.004 -0.007zv0.015l-0.004 -0.007zm0.007 -0.015v0.007h0.007v-0.004h-0.004a0.007 0.007 0 0 0 0 -0.007m0.011 0.004h0.007v-0.004a0.004 0.004 0 0 1 -0.007 0 0.007 0.007 0 0 1 0 -0.007 0.004 0.004 0 0 1 0 -0.004zm0 0q0 -0.006 0 0m-0.169 0.142h0.007v-0.004h0.004l0.004 0.007 -0.004 -0.004h-0.004v0.007h0.004v-0.004zl0.004 0.007zh-0.004zm0.011 -0.019s0.004 0 0 0.004zm0.004 0.007 0.007 0.007c-0.004 0 0 0 0 0h-0.004zm0.011 -0.007c0 0.004 0 0 0 0l-0.004 0.004h0.007v0.007h-0.004c0.004 0 0 -0.004 0 0h-0.004v-0.011zm0.019 0a0.004 0.004 0 0 1 0 0.004 0.007 0.007 0 0 1 -0.007 0 0.007 0.007 0 0 1 0 -0.007v-0.007zs0.004 0 0 0m0 0c-0.004 0 -0.007 -0.004 -0.007 0l0.004 0.007zm0 -0.019c0 0.004 0 0 0 0m0 0.004 0.007 0.011 -0.004 -0.007h-0.004zm0.011 -0.004h-0.004v0.004h0.007v0.007h-0.004v-0.004h-0.007v-0.007zm0.015 0v0.004a0.004 0.004 0 0 1 -0.007 0 0.004 0.004 0 0 1 0 -0.007zh-0.007a0.007 0.007 0 0 0 0.004 0.007h0.004zm0 -0.011 0.007 0.011h0.004zm0.007 0h0.007v0.007a0.004 0.004 0 0 1 0 0.004h-0.004v0.004h0.004zm0 0 0.007 0.007c0.004 0 0 -0.004 0 -0.007zm0.007 -0.015s0.004 0 0 0c0 0.004 0 0 0 0m0.004 0.004 0.007 0.011 -0.007 -0.007zm0.004 -0.007 0.007 0.015h0.004zm0.011 0a0.004 0.004 0 0 1 0.004 0l0.004 0.007 -0.004 0.004a0.007 0.007 0 0 1 -0.007 -0.004 0.004 0.004 0 0 1 0 -0.007 0.004 0.004 0 0 1 0.004 0m0 0v0.007h0.007v-0.004zm0.011 -0.007c0 0.004 0 0 0 0v0.004h0.004s0.004 0.004 0 0.007h-0.004s0 -0.004 -0.004 0h-0.004zm-0.064 0.161v-0.007a0.004 0.004 0 0 1 0.004 0za0.004 0.004 0 0 1 0.007 0.004 0.007 0.007 0 0 1 0 0.007h-0.004c0.004 0 0 -0.004 0 -0.007zm0.022 -0.004 -0.007 0.007v-0.015h-0.004v0.004a0.004 0.004 0 0 1 0.004 0h0.004v0.011h0.004zm0.015 -0.026 0.007 -0.004v0.022l-0.004 -0.004 -0.011 -0.004zv0.004l0.007 0.004zm0.026 0a0.004 0.004 0 0 1 -0.004 0.004l-0.004 -0.004a0.004 0.004 0 0 1 0 -0.007h0.007s0 0.004 -0.004 0c0 0 -0.004 0 0 0.004a0.007 0.007 0 0 0 0 0.004zm0.004 -0.011a0.004 0.004 0 0 1 0.004 0l0.004 0.004 -0.004 0.007a0.007 0.007 0 0 1 -0.007 -0.007 0.004 0.004 0 0 1 0 -0.004 0.004 0.004 0 0 1 0.004 0m0 0v0.004l0.004 0.004h0.004v-0.007zm0.011 -0.004v-0.007h0.004l0.004 0.007v0.004zv0.007h0.004v0.004l-0.007 -0.007zm0.011 -0.011a0.004 0.004 0 0 1 0.004 0l0.004 0.007s0 0.004 -0.004 0a0.007 0.007 0 0 1 -0.007 0 0.004 0.004 0 0 1 0 -0.007zm0 0v0.011l0.007 -0.004v-0.004c-0.004 0 -0.007 -0.004 -0.007 0zm0.019 0a0.004 0.004 0 0 1 -0.007 0.004v-0.004a0.004 0.004 0 0 1 0 -0.007h0.004l-0.007 0.004a0.007 0.007 0 0 0 0.004 0.004zm0 -0.007h0.007v0.004a0.004 0.004 0 0 1 -0.004 0 0.007 0.007 0 0 1 -0.004 -0.004 0.004 0.004 0 0 1 0 -0.004 0.004 0.004 0 0 1 0.004 0zm0.007 -0.011v0.007h0.004v0.004c-0.004 0 0 0 0 0l-0.007 -0.007zm0.011 0v0.004h0.007v-0.004a0.004 0.004 0 0 1 -0.007 0 0.004 0.004 0 0 1 0 -0.007zm0 0q0 -0.006 0 0m0.004 -0.007 0.004 0.007h0.004l-0.004 0.004 -0.004 -0.007zm0.007 -0.004v0.004h0.004s0.004 0.004 0 0.004v0.004h-0.004l-0.004 -0.004h-0.004zm0.007 -0.015 0.011 0.015h-0.004zm0.019 0.011c-0.004 0.004 -0.007 0 -0.007 0zh-0.004v-0.004h0.007zm0 0v0.004zm-0.15 0.124 0.007 0.007v-0.011zm0.011 -0.007 0.004 0.004h0.004v-0.004a0.004 0.004 0 0 1 -0.004 0 0.007 0.007 0 0 1 -0.004 -0.007 0.004 0.004 0 0 1 0 -0.004 0.004 0.004 0 0 1 0.007 0zm0 0q0 -0.006 0 0m0.011 -0.011v0.004zv0.015h0.007v-0.007h-0.004zm0.015 0.004a0.004 0.004 0 0 1 0 0.004 0.007 0.007 0 0 1 -0.007 0 0.007 0.007 0 0 1 0 -0.007v-0.007zs0.004 0 0 0m0 0c-0.004 0 -0.007 -0.004 -0.007 0l0.004 0.007zm0.011 -0.007 -0.004 0.004h-0.004v-0.007s-0.004 0 0 0zc0 0.004 0 0 0 0v0.007zm0 0s0 0.004 0 0m0.011 -0.004a0.004 0.004 0 0 1 -0.004 0 0.007 0.007 0 0 1 -0.007 0 0.007 0.007 0 0 1 0 -0.007h0.004v-0.007h-0.004zm0 0 -0.004 -0.007h-0.007v0.004zm0.007 0q0.006 0 0 0v0.004zm0 -0.019 0.007 0.007v-0.007zl0.004 0.011v0.007s-0.004 0 0 0v-0.007zm0.015 -0.019 0.011 0.015h-0.004l-0.007 -0.011zm0.019 0.007 -0.004 0.004s-0.004 0 0 0zh-0.004v-0.004h0.004zm0 0 -0.004 0.004s0 0.004 0 0zm0 -0.011 0.007 -0.004 0.007 0.007v-0.007h-0.004v-0.004l0.004 0.011 -0.007 -0.004zm0.019 -0.007h0.007v0.004a0.004 0.004 0 0 1 -0.007 0 0.004 0.004 0 0 1 0 -0.007 0.004 0.004 0 0 1 0.004 0zm0 0a0.004 0.004 0 0 0 0 0.004m0.007 -0.011v0.007h0.004l-0.004 0.007v-0.004l-0.004 -0.007zm0.019 0a0.004 0.004 0 0 1 -0.004 0.007 0.007 0.007 0 0 1 -0.007 0 0.007 0.007 0 0 1 0 -0.011h0.004v-0.007zv0.004zm0 0c0 -0.004 -0.004 -0.004 -0.004 0v0.004h0.007zm0.007 0v-0.007s-0.004 0 0 0h-0.004v-0.004h0.007zm0 -0.004v0.007a0.007 0.007 0 0 0 0.004 -0.004m0.011 -0.007a0.004 0.004 0 0 1 0 0.004 0.007 0.007 0 0 1 -0.007 0 0.007 0.007 0 0 1 0 -0.007v-0.007zm0 0h-0.007l0.004 0.007h0.004zm0.011 -0.019c0.007 0 0.007 0.004 0.007 0.007 0 0 -0.004 0.007 -0.007 0.004a0.007 0.007 0 0 1 -0.004 -0.004 0.004 0.004 0 0 1 0 -0.004zm0 0v0.015h0.007l-0.004 -0.007h-0.004zm0.011 -0.007v0.004h-0.004v0.007l-0.004 0.004c0 -0.004 0 0 0 0l0.004 -0.004h-0.007v-0.007zm-0.172 0.142v0.007l0.007 -0.004 0.007 0.007h-0.004l-0.004 -0.007zv0.004l0.004 0.007h-0.004zm0.022 0.004 -0.004 0.004h-0.004v-0.007c0 0.004 0 0 0 0zm0 0s0 0.004 0 0m0 -0.011v0.007h0.004l-0.004 0.004 -0.004 -0.007zm0.015 0v0.007l-0.007 -0.004zs-0.004 0 0 0c-0.004 0.004 -0.004 0 -0.004 0zs0 0.004 0 0m0 0a0.011 0.011 0 0 0 -0.004 0v0.004a0.007 0.007 0 0 0 0.004 0zm0.004 -0.019 0.007 0.011h0.004l-0.004 0.004 -0.007 -0.011zm0.007 -0.004 0.007 0.011v0.004l-0.004 -0.004s-0.004 0 0 0zm0.011 0h0.007a0.007 0.007 0 0 1 0 0.007 0.004 0.004 0 0 1 -0.004 0l-0.011 -0.007v-0.004zm0 0v0.007h0.007v-0.007zm0.007 -0.007v0.007h0.004l-0.004 0.004 -0.004 -0.007zm0.007 0 0.004 0.004h0.007v-0.004a0.004 0.004 0 0 1 -0.007 0 0.007 0.007 0 0 1 -0.004 0 0.004 0.004 0 0 1 0 -0.007 0.004 0.004 0 0 1 0.007 0zm0 0q0 -0.006 0 0m0.015 -0.011v0.004h0.007v0.007h-0.004v-0.004h-0.004zm0.007 0.004" stroke-width="0.0375"/></g></g></svg>