<?xml version="1.0" encoding="UTF-8"?>
<svg xmlns="http://www.w3.org/2000/svg" xmlns:xlink="http://www.w3.org/1999/xlink" width="24px" height="16px" viewBox="0 0 32 16" version="1.1">
<g id="surface1">
<rect x="0" y="0" width="32" height="16" style="fill:rgb(91.764706%,1.568627%,21.568627%);fill-opacity:1;stroke:none;"/>
<path style=" stroke:none;fill-rule:nonzero;fill:rgb(25.490196%,53.72549%,86.666667%);fill-opacity:1;" d="M 0 16 L 32 16 L 32 8 "/>
<path style=" stroke:none;fill-rule:nonzero;fill:rgb(7.058824%,67.843137%,16.862745%);fill-opacity:1;" d="M 0 0 L 32 0 L 32 8 "/>
<path style=" stroke:none;fill-rule:nonzero;fill:rgb(100%,78.039216%,14.901961%);fill-opacity:1;" d="M 7.367188 11.8125 C 7.023438 11.910156 6.824219 12.175781 6.828125 12.429688 L 8.53125 12.421875 C 8.546875 12.152344 8.324219 11.898438 7.980469 11.800781 C 9.648438 11.765625 11.097656 11.140625 11.359375 10.742188 C 11.101562 10.628906 10.800781 10.808594 10.585938 10.769531 C 11.09375 10.53125 12.621094 9.542969 12.371094 8.484375 C 12.179688 9.074219 11.59375 9.558594 11.347656 9.691406 C 11.917969 8.824219 12.695312 7.921875 12.019531 7.222656 C 12.054688 7.628906 11.761719 8.074219 11.632812 8.109375 C 11.964844 7.191406 12.28125 6.042969 11.5625 5.285156 C 11.65625 5.558594 11.621094 6.332031 11.492188 6.367188 C 11.449219 5.746094 11.34375 4.4375 10.6875 4.453125 C 10.898438 4.640625 10.988281 5.144531 10.992188 5.65625 C 10.84375 5.304688 10.671875 5.042969 10.308594 4.785156 C 10.015625 4.222656 9.496094 3.753906 8.972656 3.421875 C 9.03125 3.832031 9.078125 4.152344 9.652344 4.578125 C 9.351562 4.558594 9.054688 3.996094 8.734375 3.980469 C 8.480469 3.964844 8.28125 4.207031 7.867188 4.070312 C 7.914062 4.207031 8.105469 4.265625 8.148438 4.367188 C 8.058594 4.429688 7.847656 4.359375 7.671875 4.265625 C 7.914062 4.597656 8.289062 4.789062 8.605469 4.722656 C 8.980469 4.652344 9.386719 4.691406 9.773438 4.910156 C 9.675781 4.960938 9.289062 4.960938 9.042969 4.929688 C 9.269531 5.15625 9.417969 5.304688 9.808594 5.300781 C 10.15625 5.300781 10.335938 5.117188 10.425781 5.230469 C 10.644531 5.488281 10.789062 5.746094 10.972656 6.050781 C 10.570312 6.09375 10.691406 5.59375 10.242188 5.339844 C 9.992188 5.859375 10.53125 6.480469 10.902344 6.734375 C 10.90625 7.128906 10.964844 7.457031 11.128906 7.753906 C 11.242188 7.964844 11.386719 8.179688 11.332031 8.65625 C 11.109375 8.492188 10.894531 7.953125 10.976562 7.523438 C 10.699219 7.597656 10.589844 8.082031 10.722656 8.328125 C 10.816406 8.511719 10.882812 8.871094 10.769531 9.027344 C 10.660156 9.175781 10.648438 9.160156 10.652344 9.480469 C 10.65625 9.667969 10.550781 9.894531 10.375 10.050781 C 10.410156 9.917969 10.453125 9.6875 10.414062 9.542969 C 10.277344 9.773438 9.933594 10.015625 9.824219 10.265625 C 9.71875 10.515625 9.691406 10.949219 9.175781 11.050781 C 8.515625 11.179688 8.285156 11.296875 7.859375 11.46875 C 7.8125 11.148438 7.953125 10.472656 8.222656 10.511719 C 8.488281 10.558594 9.289062 10.234375 9.003906 9.558594 C 8.945312 9.773438 8.757812 9.980469 8.554688 9.988281 C 8.773438 9.703125 9.167969 9.40625 8.976562 8.929688 C 8.871094 9.132812 8.703125 9.375 8.449219 9.515625 C 8.71875 8.992188 8.480469 8.835938 8.15625 9.265625 C 8.035156 9.429688 7.960938 9.765625 7.882812 10.1875 C 7.753906 9.84375 7.765625 9.390625 7.613281 9.023438 C 7.457031 8.628906 7.820312 8.523438 7.996094 8.554688 C 8.414062 8.667969 9.121094 8.667969 9.066406 7.96875 C 8.886719 8.207031 8.566406 8.277344 8.222656 8.195312 C 8.609375 7.910156 8.914062 7.378906 8.484375 7.101562 C 8.46875 7.394531 8.242188 7.726562 7.9375 7.878906 C 7.867188 7.628906 7.867188 7.367188 7.925781 7.078125 C 7.757812 7.253906 7.632812 7.628906 7.535156 8.050781 C 7.527344 7.632812 7.605469 7.332031 7.664062 7.105469 C 7.753906 6.777344 7.972656 6.992188 8.3125 7.015625 C 8.636719 7.035156 9.085938 6.855469 9 6.410156 C 8.890625 6.585938 8.660156 6.65625 8.429688 6.636719 C 8.710938 6.464844 9.199219 6.164062 8.929688 5.699219 C 8.816406 5.875 8.78125 6.027344 8.453125 6.078125 C 8.539062 5.882812 8.554688 5.605469 8.808594 5.496094 C 8.355469 5.40625 8.097656 5.703125 7.964844 6.164062 C 7.910156 5.84375 7.847656 5.726562 7.835938 5.488281 C 8.082031 5.21875 8.105469 4.6875 7.578125 4.570312 C 7.546875 4.84375 7.554688 4.90625 7.613281 5.128906 C 7.367188 4.984375 7.015625 4.902344 6.785156 5.109375 C 6.941406 5.28125 7.1875 5.429688 7.5625 5.246094 C 7.472656 5.535156 7.242188 5.484375 6.925781 5.375 C 7.117188 5.738281 7.363281 5.804688 7.632812 5.761719 C 7.777344 6.136719 7.78125 6.421875 7.367188 6.964844 C 7.386719 6.625 7.363281 6.375 7.09375 6.101562 C 6.863281 5.875 6.675781 6.109375 7.039062 6.613281 C 6.820312 6.449219 6.570312 6.125 6.496094 5.800781 C 6.425781 6.203125 6.492188 6.675781 6.714844 6.941406 C 6.609375 7.054688 6.488281 6.929688 6.3125 6.65625 C 6.378906 7.539062 6.753906 7.707031 7.261719 7.511719 C 7.273438 7.996094 7.273438 8.445312 7.304688 9.027344 C 7.007812 8.605469 6.632812 8.289062 6.425781 8.207031 C 6.359375 8.445312 6.605469 8.753906 6.742188 8.929688 C 6.535156 8.886719 6.082031 8.539062 6.082031 8.539062 C 6.035156 8.933594 6.542969 9.296875 6.871094 9.460938 C 6.484375 9.445312 6.316406 9.296875 6.066406 9.058594 C 6.070312 10.148438 7.25 9.960938 7.46875 9.792969 C 7.496094 10.328125 7.539062 10.949219 7.566406 11.488281 C 7.234375 11.429688 7.261719 11.328125 6.976562 11.300781 C 6.1875 11.269531 5.558594 10.351562 5.351562 9.679688 C 5.292969 9.789062 5.339844 9.90625 5.285156 10.042969 C 5.15625 9.710938 4.992188 9.28125 4.773438 9.082031 C 4.828125 9.277344 4.835938 9.472656 4.816406 9.832031 C 4.738281 9.601562 4.667969 9.527344 4.664062 9.253906 C 4.667969 9.042969 4.867188 8.886719 4.855469 8.589844 C 4.847656 8.375 4.652344 7.90625 4.621094 7.542969 C 4.527344 7.914062 4.464844 8.308594 4.320312 8.539062 C 4.390625 8.140625 4.367188 7.867188 4.492188 7.597656 C 4.632812 7.3125 4.753906 7.0625 4.660156 6.777344 C 4.570312 6.886719 4.601562 6.988281 4.371094 7.253906 C 4.324219 6.964844 4.667969 6.496094 5.003906 6.308594 C 5.238281 6.183594 5.535156 5.738281 5.34375 5.433594 C 5.121094 5.59375 5.019531 5.808594 4.707031 6.179688 C 4.929688 5.304688 5.511719 5.074219 6.207031 5.074219 C 6.359375 5.070312 6.671875 5.015625 6.757812 4.8125 C 6.5625 4.886719 6.328125 4.898438 6.125 4.855469 C 6.273438 4.636719 6.589844 4.664062 6.882812 4.664062 C 7.117188 4.664062 7.476562 4.632812 7.621094 4.300781 C 7.339844 4.425781 6.902344 4.449219 6.625 4.363281 C 7.0625 4.136719 7.753906 4.109375 8.105469 3.8125 C 7.703125 3.511719 6.695312 3.882812 6.058594 4.316406 C 6.238281 4.15625 6.519531 3.867188 6.671875 3.632812 C 6.324219 3.464844 5.445312 4.441406 5.140625 5.023438 C 4.851562 5.183594 4.738281 5.441406 4.625 5.617188 C 4.777344 5.097656 4.792969 4.722656 4.921875 4.296875 C 3.933594 4.636719 4.34375 6.460938 4.128906 6.898438 C 4.15625 6.414062 4.136719 5.796875 3.9375 5.476562 C 3.632812 5.710938 3.609375 7.074219 3.894531 8.214844 C 3.789062 7.910156 3.597656 7.625 3.535156 7.253906 C 3.082031 8.074219 3.796875 9.042969 4.394531 9.808594 C 3.945312 9.574219 3.5 9.070312 3.207031 8.648438 C 3.289062 10.121094 4.824219 10.425781 5.0625 10.785156 C 4.738281 10.636719 4.121094 10.339844 3.859375 10.652344 C 4.285156 10.75 4.625 10.863281 4.902344 11.042969 C 5.300781 11.539062 6.054688 11.757812 7.367188 11.8125 Z M 7.367188 11.8125 "/>
</g>
</svg>
