<?xml version="1.0" encoding="UTF-8"?>
<svg xmlns="http://www.w3.org/2000/svg" xmlns:xlink="http://www.w3.org/1999/xlink" width="24px" height="16px" viewBox="0 0 32 16" version="1.1">
<g id="surface1">
<rect x="0" y="0" width="32" height="16" style="fill:rgb(85.490196%,7.058824%,10.196078%);fill-opacity:1;stroke:none;"/>
<path style=" stroke:none;fill-rule:nonzero;fill:rgb(98.823529%,86.666667%,3.529412%);fill-opacity:1;" d="M 0 0 L 32 0 L 32 10.667969 L 0 10.667969 Z M 0 0 "/>
<path style=" stroke:none;fill-rule:nonzero;fill:rgb(2.745098%,53.72549%,18.823529%);fill-opacity:1;" d="M 0 0 L 32 0 L 32 5.332031 L 0 5.332031 Z M 0 0 "/>
<path style=" stroke:none;fill-rule:nonzero;fill:rgb(5.882353%,27.843137%,68.627451%);fill-opacity:1;" d="M 21.332031 8 C 21.332031 10.945312 18.945312 13.332031 16 13.332031 C 13.054688 13.332031 10.667969 10.945312 10.667969 8 C 10.667969 5.054688 13.054688 2.667969 16 2.667969 C 18.945312 2.667969 21.332031 5.054688 21.332031 8 Z M 21.332031 8 "/>
<path style=" stroke:none;fill-rule:nonzero;fill:rgb(98.823529%,86.666667%,3.529412%);fill-opacity:1;" d="M 16 3.734375 L 15.8125 4.308594 L 16.585938 6.679688 L 15.554688 6.679688 L 15.441406 7.035156 L 18.738281 7.035156 L 19.226562 6.679688 L 16.957031 6.679688 Z M 16 3.734375 "/>
<path style="fill-rule:nonzero;fill:rgb(0%,0%,0%);fill-opacity:1;stroke-width:4;stroke-linecap:butt;stroke-linejoin:miter;stroke:rgb(98.823529%,86.666667%,3.529412%);stroke-opacity:1;stroke-miterlimit:4;" d="M 25.839844 -35.595703 L 56.425781 -77.695312 " transform="matrix(0.0444444,0,0,0.0444444,16,8)"/>
<path style=" stroke:none;fill-rule:nonzero;fill:rgb(98.823529%,86.666667%,3.529412%);fill-opacity:1;" d="M 20.058594 6.679688 L 19.453125 6.679688 L 17.433594 8.148438 L 17.117188 7.171875 L 16.742188 7.171875 L 17.761719 10.304688 L 18.25 10.660156 L 17.550781 8.503906 Z M 20.058594 6.679688 "/>
<path style="fill-rule:nonzero;fill:rgb(0%,0%,0%);fill-opacity:1;stroke-width:4;stroke-linecap:butt;stroke-linejoin:miter;stroke:rgb(98.823529%,86.666667%,3.529412%);stroke-opacity:1;stroke-miterlimit:4;" d="M 25.884303 -35.578588 L 56.471991 -77.668943 " transform="matrix(0.0137341,0.0422692,-0.0422692,0.0137341,16,8)"/>
<path style=" stroke:none;fill-rule:nonzero;fill:rgb(98.823529%,86.666667%,3.529412%);fill-opacity:1;" d="M 18.507812 11.453125 L 18.320312 10.875 L 16.300781 9.410156 L 17.132812 8.804688 L 17.019531 8.449219 L 14.351562 10.386719 L 14.164062 10.964844 L 16 9.628906 Z M 18.507812 11.453125 "/>
<path style="fill:none;stroke-width:4;stroke-linecap:butt;stroke-linejoin:miter;stroke:rgb(98.823529%,86.666667%,3.529412%);stroke-opacity:1;stroke-miterlimit:4;" d="M 25.882067 -35.62361 L 56.413608 -77.64667 " transform="matrix(-0.0359563,0.0261238,-0.0261238,-0.0359563,16,8)"/>
<path style=" stroke:none;fill-rule:nonzero;fill:rgb(98.823529%,86.666667%,3.529412%);fill-opacity:1;" d="M 13.492188 11.453125 L 13.980469 11.097656 L 14.753906 8.722656 L 15.585938 9.328125 L 15.886719 9.109375 L 13.21875 7.171875 L 12.613281 7.171875 L 14.449219 8.503906 Z M 13.492188 11.453125 "/>
<path style="fill-rule:nonzero;fill:rgb(0%,0%,0%);fill-opacity:1;stroke-width:4;stroke-linecap:butt;stroke-linejoin:miter;stroke:rgb(98.823529%,86.666667%,3.529412%);stroke-opacity:1;stroke-miterlimit:4;" d="M 25.838558 -35.611824 L 56.41675 -77.709078 " transform="matrix(-0.0359563,-0.0261238,0.0261238,-0.0359563,16,8)"/>
<path style=" stroke:none;fill-rule:nonzero;fill:rgb(98.823529%,86.666667%,3.529412%);fill-opacity:1;" d="M 11.941406 6.679688 L 12.429688 7.035156 L 14.925781 7.035156 L 14.609375 8.015625 L 14.910156 8.234375 L 15.929688 5.101562 L 15.742188 4.523438 L 15.042969 6.679688 Z M 11.941406 6.679688 "/>
<path style="fill-rule:nonzero;fill:rgb(0%,0%,0%);fill-opacity:1;stroke-width:4;stroke-linecap:butt;stroke-linejoin:miter;stroke:rgb(98.823529%,86.666667%,3.529412%);stroke-opacity:1;stroke-miterlimit:4;" d="M 25.868575 -35.574829 L 56.456108 -77.673279 " transform="matrix(0.0137341,-0.0422692,0.0422692,0.0137341,16,8)"/>
</g>
</svg>
