<svg xmlns="http://www.w3.org/2000/svg" id="flag-icons-fj" viewBox="0 0 24 18" width="24" height="16"><path fill="#68bfe5" d="M0 0v18h24V0z"/><g stroke-miterlimit="4.8"><path fill="#fff" d="M15.784 7.245v5.115c0 1.673 3.022 2.663 3.022 2.663s3.019 -0.99 3.019 -2.663V7.245z"/><path fill="#d21034" d="M18.386 9.045v2.302h-2.603v0.836h2.603v2.681l0.42 0.161 0.416 -0.161V12.188H21.825v-0.84h-2.603v-2.302z"/><path fill="#d21034" d="M15.784 7.245H21.825V9.225H15.78z"/><g stroke-miterlimit="3"><g fill="#fff" stroke="#000" stroke-width=".8" transform="translate(-96.9 97.5)scale(.66486)"><path cx="798.2" cy="192.2" rx="13.6" ry="11" d="M30.443 7.207A0.51 0.412 0 0 1 29.933 7.62A0.51 0.412 0 0 1 29.422 7.207A0.51 0.412 0 0 1 30.443 7.207z"/><path cx="798.2" cy="186.5" rx="12.1" ry="6.1" d="M30.386 6.994A0.454 0.229 0 0 1 29.933 7.222A0.454 0.229 0 0 1 29.479 6.994A0.454 0.229 0 0 1 30.386 6.994z"/><path cx="798.2" cy="198.8" rx="12.1" ry="6.1" d="M30.386 7.455A0.454 0.229 0 0 1 29.933 7.684A0.454 0.229 0 0 1 29.479 7.455A0.454 0.229 0 0 1 30.386 7.455z"/><path cx="798.2" cy="192.2" rx="12.1" ry="6.1" d="M30.386 7.207A0.454 0.229 0 0 1 29.933 7.436A0.454 0.229 0 0 1 29.479 7.207A0.454 0.229 0 0 1 30.386 7.207z"/></g><path fill="#ffd100" stroke="#000" stroke-width="0.03" d="m21.675 8.828 -0.049 -0.135s-0.135 -0.056 -0.146 -0.128c-0.022 -0.191 -0.09 -0.263 -0.195 -0.292a0.225 0.225 0 0 0 -0.169 0.019c-0.03 0.045 -0.188 0.045 -0.27 0.049 -0.086 0 -0.09 -0.037 -0.09 -0.037 -0.064 0 -0.094 -0.049 -0.094 -0.049 -0.041 -0.086 -0.075 -0.12 -0.098 -0.131 0.112 0 0.195 -0.049 0.322 -0.18 0.135 -0.142 0.232 -0.09 0.232 -0.09 -0.068 0.135 0.022 0.124 0.022 0.124 0.18 -0.094 0.022 -0.326 -0.03 -0.315 -0.056 0.011 -0.071 -0.026 -0.071 -0.026 0 0.041 -0.06 0.06 -0.06 0.06 0.045 -0.266 -0.112 -0.337 -0.112 -0.337 -0.022 0.022 -0.037 0.071 -0.037 0.071 -0.045 0.161 -0.191 0.135 -0.356 0.056 -0.165 -0.075 -0.6 0.083 -0.739 0.139s-0.39 0.139 -0.615 0.015c-0.225 -0.128 -0.281 -0.105 -0.371 -0.079 -0.086 0.022 -0.244 0.06 -0.3 0.03a0.319 0.319 0 0 0 -0.128 -0.034c0.015 -0.007 -0.007 -0.045 -0.007 -0.045 -0.071 -0.094 0.007 -0.15 0.007 -0.15s-0.128 0.037 -0.075 0.255l0.022 0.03s0.015 0.071 0.052 0.09v0.015s0.034 -0.015 0.041 0.03c0.011 0.045 0.06 0 0.079 -0.037 0 0 -0.034 0.203 0.214 0.251 0 0 -0.026 -0.034 -0.019 -0.052 0.011 -0.022 -0.03 -0.037 -0.026 -0.068 0.004 -0.034 -0.06 -0.045 -0.011 -0.071 0.052 -0.022 0.075 -0.071 0.188 -0.004 0.109 0.064 0.195 0.049 0.195 0.049s-0.068 -0.135 -0.03 -0.135 0.203 0.203 0.281 0.195c0.083 -0.011 0.24 -0.105 0.319 -0.071 0 0 0.007 -0.037 0.307 -0.09s0.675 -0.203 0.814 -0.071c0 0 0.015 0.105 0.075 0.131 0 0 -0.011 0.217 -0.382 0.098l-0.135 -0.037s-0.022 -0.064 -0.731 0.12c0 0 -0.041 0.015 -0.071 0.034 -0.026 0.019 -0.064 -0.011 -0.206 0.037 -0.139 0.056 -0.664 0.225 -0.986 0.165 -0.071 -0.022 -0.135 -0.011 -0.139 -0.022 0 -0.011 0.037 0.004 0.037 0.004 -0.022 -0.026 -0.034 -0.03 -0.034 -0.03 -0.27 -0.03 -0.225 -0.15 -0.225 -0.15l0.015 0.037c0.045 -0.06 -0.015 -0.195 -0.015 -0.195h-0.004a0.15 0.15 0 0 0 0 -0.011l0.019 -0.015c0.131 -0.112 0.281 -0.131 0.281 -0.131 -0.09 -0.112 -0.278 -0.052 -0.278 -0.052 0.004 -0.131 -0.052 -0.289 -0.052 -0.289a0.45 0.45 0 0 0 -0.289 0.176c-0.007 -0.139 -0.184 -0.217 -0.184 -0.217 0.068 0.079 0.026 0.27 0.026 0.27h0.007l-0.004 0.041h-0.007s-0.064 0.022 -0.139 0.195c0 0 -0.007 0.037 -0.037 0.075v-0.015s-0.086 0.112 -0.278 0c0 0 -0.263 -0.154 -0.36 -0.15 -0.09 0.007 -0.15 0.049 -0.146 0.075 0 0 -0.214 -0.015 -0.285 0.105 0 0 -0.161 0.06 -0.022 0.188 0 0 0.019 0.06 0.056 0.09 0 0 -0.004 -0.12 0.026 -0.086l0.019 0.022c0.004 0.015 0.019 0.06 0.045 0.086l0.022 -0.007c0 -0.03 0.007 -0.068 0.015 -0.083h0.007l0.037 0.06 0.037 -0.022c0.022 0 0.049 0.019 0.049 0.019l0.049 -0.041c0.049 0.007 0.064 -0.09 0.064 -0.09a0.15 0.15 0 0 0 0.116 -0.019c0.022 0.075 0.195 0.161 0.195 0.161h0.007l-0.022 0.015c0.079 0.056 0.225 0.041 0.225 0.041 -0.06 0.022 -0.052 0.139 -0.052 0.139 -0.037 0.015 -0.037 0.049 -0.037 0.049 0.12 0.049 0.199 0.007 0.199 0.007 0.007 0.037 0 0.045 0 0.045 -0.049 0.101 -0.071 0.203 -0.071 0.203h0.004v0.007s-0.214 0.075 -0.304 0.176c0 0 -0.011 -0.03 -0.037 -0.03s-0.105 -0.068 -0.142 -0.079 -0.094 0.011 -0.112 -0.007c-0.011 -0.015 -0.004 -0.135 -0.03 -0.15l-0.026 -0.075c-0.015 0.037 -0.09 0.03 -0.09 0.03l-0.03 0.022 -0.03 -0.004c-0.007 0 -0.015 0.019 -0.019 0.037l-0.011 0.011v-0.022c-0.011 0.011 -0.041 -0.004 -0.052 -0.004 -0.007 0 -0.015 0.015 -0.019 0.034l-0.071 0.004c-0.011 0.007 0 0.098 0 0.098 -0.086 0.045 -0.045 0.116 -0.045 0.116 0.045 0.225 0.431 0.124 0.461 0.154s0.098 0.037 0.131 0.037c0.037 0 0.079 0.083 0.128 0.09s0 -0.068 0.229 -0.12c0.229 -0.056 0.307 -0.15 0.307 -0.15 0.071 -0.015 0.09 -0.101 0.094 -0.135l0.007 0.052c0.011 0.079 -0.045 0.112 -0.045 0.112l0.199 -0.064c0.079 -0.019 0.068 -0.09 0.068 -0.09 0.075 0.217 0.214 0.232 0.214 0.232 0.026 -0.083 0.022 -0.109 0.022 -0.109h0.064c0 -0.049 -0.037 -0.083 -0.064 -0.098l0.098 0.056 0.037 -0.004c0 0.034 0.049 0.064 0.049 0.064l0.007 -0.045c0.045 0.06 0.128 0.037 0.128 0.037a0.263 0.263 0 0 0 -0.007 -0.03c0.176 0.109 0.457 -0.03 0.457 -0.03 0.075 0.015 0.086 -0.03 0.086 -0.03 0.083 0.011 0.105 -0.049 0.105 -0.049 0.199 -0.015 0.341 -0.158 0.341 -0.158 0.101 -0.007 0.105 -0.079 0.105 -0.079s0.098 0.019 0.195 -0.101c0.225 -0.319 0.555 -0.15 0.555 -0.15l-0.191 0.011c-0.506 -0.004 -0.296 0.337 -0.296 0.337h0.03c0.049 0.007 0.214 0.139 0.15 0.232v0.007c-0.105 0.139 -0.292 0.007 -0.349 -0.112 -0.052 -0.12 -0.165 -0.094 -0.165 -0.094s-0.281 0.049 -0.165 0.274c0.004 0.056 0.037 0.12 0.142 0.18 0.056 0.083 0.244 0.09 0.379 0.06C19.65 9.15 19.988 9 19.988 9c0.026 -0.075 0.112 -0.056 0.188 -0.165 0.075 -0.105 -0.109 -0.142 -0.15 -0.203 -0.037 -0.056 0.011 -0.045 0.011 -0.045 0.165 0.086 0.18 -0.195 0.18 -0.195a0.247 0.247 0 0 0 0.161 0.206c0.086 -0.086 0.022 -0.27 0.022 -0.27 0.214 0.382 0.341 0.319 0.341 0.319 -0.112 -0.068 -0.056 -0.165 -0.056 -0.165 0.101 0.405 0.525 0.052 0.525 0.052 -0.022 0.06 0 0.094 0.037 0.131s0.083 0.052 0.06 0.124c-0.019 0.068 -0.217 0.052 -0.217 0.052s-0.188 -0.007 -0.172 0.15c0.011 0.037 0.135 0.052 0.188 0.041 0 0 -0.022 0.007 0.049 0.015h0.083c0.079 0 0.169 -0.015 0.169 -0.015 0.109 -0.022 0.09 -0.06 0.09 -0.06 0.169 -0.03 0.188 -0.142 0.188 -0.142z"/><path d="M16.11 8.126s0.011 -0.019 0.026 -0.022c0.015 0 0.03 0.007 0.045 0.03l0.011 -0.007s-0.045 -0.068 -0.03 -0.112c0.011 -0.022 0.03 -0.037 0.06 -0.041v-0.011c-0.037 0.007 -0.06 0.022 -0.068 0.049a0.075 0.075 0 0 0 -0.007 0.026c0 0.022 0.007 0.045 0.019 0.064a0.041 0.041 0 0 0 -0.03 -0.007 0.037 0.037 0 0 0 -0.03 0.022zm5.287 0.9c-0.112 0.019 -0.281 0.026 -0.296 -0.007 0 -0.007 0 -0.03 0.09 -0.09l-0.007 -0.019c-0.079 0.052 -0.112 0.086 -0.101 0.112 0.026 0.068 0.27 0.03 0.319 0.022zm-2.19 0.064c-0.026 -0.037 -0.011 -0.094 0.037 -0.161l-0.019 -0.011c-0.052 0.075 -0.064 0.135 -0.037 0.188z"/><path d="M19.054 8.918c0 0.071 0.052 0.135 0.146 0.191l0.011 -0.019c-0.09 -0.052 -0.135 -0.112 -0.135 -0.172 -0.007 -0.094 0.094 -0.169 0.098 -0.169l-0.011 -0.015c-0.007 0 -0.112 0.079 -0.109 0.188zm1.95 0.026c-0.03 0.049 -0.019 0.105 -0.019 0.105h0.019c0 -0.004 -0.007 -0.052 0.019 -0.094a0.112 0.112 0 0 1 0.075 -0.045v-0.019c-0.041 0.007 -0.075 0.026 -0.09 0.052zM16.537 8.066h-0.007v0.007s-0.007 0.06 -0.037 0.075a0.03 0.03 0 0 1 -0.022 0l-0.049 -0.026c-0.007 -0.007 -0.015 -0.011 -0.03 -0.007a0.068 0.068 0 0 1 -0.015 -0.052c0.004 -0.026 0.022 -0.052 0.06 -0.075l-0.007 -0.011c-0.037 0.026 -0.06 0.056 -0.064 0.086 0 0.037 0.019 0.06 0.019 0.06v0.004h0.007c0.011 -0.004 0.011 0 0.022 0.007l0.052 0.03h0.037c0.026 -0.019 0.037 -0.071 0.037 -0.083 0.12 0.026 0.217 -0.124 0.225 -0.128l-0.011 -0.007s-0.101 0.15 -0.217 0.12"/><path d="M16.241 8.044a0.112 0.112 0 0 0 0.015 0.075c0.011 0.019 0.026 0.03 0.037 0.034 0.019 0 0.03 -0.011 0.045 -0.022 0.007 -0.007 0.015 -0.015 0.022 -0.015l0.011 0.007 0.007 -0.007 -0.019 -0.011c-0.011 0 -0.022 0.007 -0.03 0.019s-0.022 0.019 -0.037 0.019c-0.007 0 -0.019 -0.011 -0.03 -0.03a0.083 0.083 0 0 1 -0.011 -0.064c0.015 -0.052 0.079 -0.094 0.079 -0.094l-0.004 -0.011c-0.004 0 -0.071 0.045 -0.086 0.101m-0.165 0.776c0.004 -0.022 0.022 -0.037 0.049 -0.052 -0.007 0 0.022 0.022 0.049 0.022l0.019 -0.011c0.007 0.007 0.052 0.049 0.052 0.101 0 0.011 0 0.022 -0.007 0.034l0.011 0.004c0.034 -0.079 -0.052 -0.15 -0.052 -0.15h-0.007l-0.015 0.011c-0.022 0 -0.049 -0.022 -0.049 -0.022 -0.037 0.015 -0.052 0.037 -0.06 0.06zm0.386 -0.203c-0.026 0.004 -0.094 0.015 -0.116 0.052 -0.007 0.015 -0.011 0.03 -0.004 0.045l0.007 0.022c0.022 0.06 0.045 0.12 0.071 0.135l0.004 -0.011c-0.022 -0.011 -0.045 -0.075 -0.064 -0.128l-0.007 -0.022a0.037 0.037 0 0 1 0 -0.037c0.019 -0.026 0.083 -0.037 0.112 -0.041 0.015 0 0.019 0.056 0.022 0.09h0.011c-0.004 -0.052 -0.011 -0.105 -0.037 -0.105"/><path d="M16.271 8.678c-0.015 0.011 -0.011 0.03 -0.011 0.034s0.007 0.15 0.075 0.18l0.004 -0.011c-0.06 -0.026 -0.068 -0.169 -0.068 -0.172 0 0 0 -0.015 0.007 -0.022 0.011 -0.007 0.03 -0.011 0.06 0l0.004 -0.011c-0.034 -0.011 -0.056 -0.007 -0.071 0z"/><path d="M16.215 8.689c-0.03 0.022 -0.026 0.083 -0.026 0.086h0.011s0 -0.06 0.022 -0.075c0.011 -0.007 0.022 -0.007 0.037 0l0.004 -0.015c-0.019 -0.007 -0.037 -0.007 -0.049 0z"/><g transform="translate(-96.9 97.5)scale(.66486)"><path d="M32.336 6.356s0.049 0.112 0.049 0.199c0 0.015 -0.007 0.026 -0.011 0.037l-0.019 -0.049 -0.011 0.037s-0.022 0.052 0.011 0.109c0.045 0.075 0.158 0.12 0.337 0.139v0.004a0.03 0.03 0 0 0 -0.015 0.004l-0.007 0.007v0.015c0.007 0.019 0.026 0.019 0.068 0.019l0.026 0.004 0.022 0.007 -0.004 -0.004c0.037 0 0.086 0.011 0.135 0.03l-0.037 0.007 0.041 0.019c0.004 0 0.326 0.131 0.457 0.236 -0.037 0.034 -0.199 0.15 -0.476 0.083l-0.045 -0.011 0.03 0.037s0.184 0.21 0.221 0.337c-0.064 0 -0.307 0 -0.394 -0.075l-0.019 0.019s0.112 0.172 0.142 0.304c-0.037 0.007 -0.112 0.011 -0.161 -0.052l-0.022 -0.026 -0.011 0.075c-0.022 -0.019 -0.052 -0.041 -0.052 -0.071v-0.015l-0.068 0.011 -0.142 -0.086a0.3 0.3 0 0 0 -0.022 -0.015l-0.015 0.026 0.022 0.011c0.03 0.022 0.083 0.064 0.086 0.124H32.362v0.019c0 0.011 0 0.052 -0.034 0.139 -0.041 -0.007 -0.199 -0.064 -0.292 -0.33l-0.03 0.007v0.007c0 0.026 -0.007 0.086 -0.09 0.109l-0.244 0.075a0.169 0.169 0 0 0 0.03 -0.105v-0.03a0.75 0.75 0 0 1 -0.007 -0.098c0 -0.056 0.011 -0.09 0.052 -0.112l-0.015 -0.03c-0.004 0 -0.36 0.146 -0.536 0.086 0.007 -0.037 0.037 -0.158 0.098 -0.285l-0.007 0.007c0.011 -0.007 0.022 -0.022 0.011 -0.083v-0.019l-0.019 0.007s-0.112 0.052 -0.278 -0.007c0 -0.015 0.011 -0.037 0.045 -0.052l0.011 -0.004v-0.03c0 -0.045 0.004 -0.15 0.068 -0.172l-0.007 -0.03s-0.191 0.015 -0.307 -0.049a0.412 0.412 0 0 1 0.169 -0.071h0.011v-0.015a0.225 0.225 0 0 0 -0.019 -0.086c0.045 0.015 0.098 0.026 0.116 0.011l0.007 -0.004 -0.007 -0.116h-0.03l0.004 0.098 -0.112 -0.026 -0.045 -0.015 0.03 0.037a0.15 0.15 0 0 1 0.026 0.09 0.476 0.476 0 0 0 -0.188 0.086l-0.019 0.015 0.019 0.011c0.09 0.06 0.229 0.068 0.3 0.064a0.315 0.315 0 0 0 -0.049 0.169v0.015a0.116 0.116 0 0 0 -0.056 0.083v0.011l0.007 0.004a0.412 0.412 0 0 0 0.296 0.019v0.034c-0.075 0.158 -0.112 0.311 -0.112 0.311v0.015h0.011c0.146 0.06 0.401 -0.019 0.517 -0.06 -0.015 0.026 -0.026 0.056 -0.026 0.094a0.825 0.825 0 0 0 0.011 0.128c0 0.086 -0.056 0.12 -0.06 0.12l0.011 0.03 0.3 -0.09c0.068 -0.019 0.094 -0.06 0.105 -0.094 0.116 0.278 0.3 0.3 0.311 0.304h0.011l0.004 -0.011a0.525 0.525 0 0 0 0.037 -0.15 16.5 16.5 0 0 0 0.09 -0.004v-0.019c0 -0.026 -0.004 -0.049 -0.015 -0.068l0.052 0.03 0.049 -0.007c0.011 0.049 0.071 0.09 0.079 0.094l0.019 0.011 0.011 -0.064c0.075 0.064 0.176 0.045 0.184 0.045l0.011 -0.004v-0.015c-0.015 -0.101 -0.083 -0.221 -0.124 -0.285 0.131 0.06 0.371 0.056 0.382 0.056h0.015v-0.019a1.125 1.125 0 0 0 -0.21 -0.337c0.307 0.056 0.472 -0.105 0.48 -0.112l0.011 -0.011 -0.015 -0.007a2.017 2.017 0 0 0 -0.435 -0.236l0.034 -0.007 -0.037 -0.019a0.48 0.48 0 0 0 -0.217 -0.052c-0.037 -0.045 -0.056 -0.049 -0.06 -0.052 -0.21 -0.022 -0.285 -0.079 -0.315 -0.124v-0.011l0.007 -0.011c0.019 -0.026 0.026 -0.06 0.026 -0.098 0 -0.098 -0.049 -0.206 -0.049 -0.21z"/><path d="M31.38 6.296s-0.022 0.112 -0.12 0.169c-0.075 0.037 -0.169 0.037 -0.285 -0.011l-0.015 -0.004v0.015a0.188 0.188 0 0 0 0.075 0.12c0.049 0.037 0.124 0.052 0.221 0.045 -0.034 0.037 -0.135 0.165 -0.135 0.292v0.019c0.015 0.007 0.172 0.052 0.247 -0.041 0 0.037 0.015 0.169 0.064 0.217 0.03 0.03 0.037 0.068 0.037 0.101 0 0.03 -0.007 0.052 -0.007 0.052l-0.007 0.022 0.019 -0.015c0.007 -0.004 0.154 -0.112 0.199 -0.251 0 0 0.026 -0.037 0.071 -0.049v0.019c0 0.056 0.022 0.154 0.18 0.214l0.011 0.004v-0.011a0.263 0.263 0 0 1 0 -0.026c0 -0.041 0 -0.112 0.041 -0.15a0.105 0.105 0 0 0 0.022 -0.124c0.034 0.007 0.109 0.034 0.139 0.09 0.045 0.083 0.199 0.015 0.206 0.015l-0.004 -0.019s-0.068 0.015 -0.109 -0.011a0.079 0.079 0 0 1 -0.03 -0.056l-0.007 -0.09c0 -0.037 -0.007 -0.064 -0.026 -0.083 0.019 0 0.06 0 0.075 0.037 0.03 0.06 0.124 0.064 0.128 0.064l0.034 0.004 -0.026 -0.019s-0.083 -0.052 -0.068 -0.124l0.011 -0.052c0.022 -0.094 0.06 -0.247 0.026 -0.345l-0.015 0.007c0.007 0.022 0.011 0.052 0.011 0.083 0 0.083 -0.026 0.188 -0.037 0.251l-0.015 0.052a0.098 0.098 0 0 0 0 0.019c0 0.049 0.026 0.083 0.049 0.101 -0.026 -0.004 -0.064 -0.019 -0.075 -0.049 -0.026 -0.052 -0.086 -0.052 -0.112 -0.049l-0.022 0.004 0.015 0.015c0.026 0.015 0.03 0.037 0.03 0.086l0.007 0.086c0.004 0.03 0.019 0.052 0.037 0.068 0.022 0.015 0.045 0.015 0.064 0.019 -0.045 0.011 -0.109 0.019 -0.131 -0.022 -0.041 -0.083 -0.161 -0.101 -0.165 -0.105h-0.019l0.007 0.015s0.015 0.022 0.015 0.052c0 0.019 -0.007 0.045 -0.026 0.064 -0.041 0.041 -0.049 0.12 -0.049 0.161v0.015c-0.135 -0.056 -0.158 -0.139 -0.158 -0.188v-0.037l0.007 -0.011h-0.015a0.131 0.131 0 0 0 -0.094 0.068 0.563 0.563 0 0 1 -0.176 0.232 0.263 0.263 0 0 0 0.004 -0.037c0 -0.034 -0.007 -0.075 -0.037 -0.109 -0.056 -0.052 -0.064 -0.225 -0.064 -0.225v-0.03l-0.015 0.026c-0.06 0.105 -0.232 0.052 -0.236 0.052 -0.007 -0.131 0.15 -0.304 0.15 -0.307l0.015 -0.015h-0.022c-0.101 0.015 -0.18 0 -0.232 -0.037a0.172 0.172 0 0 1 -0.06 -0.094c0.112 0.041 0.21 0.045 0.285 0.004a0.278 0.278 0 0 0 0.128 -0.18c0.112 -0.247 0.206 -0.289 0.206 -0.289l-0.004 -0.015c-0.007 0 -0.105 0.037 -0.217 0.3"/><path d="M31.631 5.925h-0.007l-0.09 0.124h0.026a1.162 1.162 0 0 1 0.739 0.345l0.011 0.011 0.086 -0.094 -0.007 -0.011c-0.244 -0.382 -0.754 -0.375 -0.761 -0.375zm0.007 0.034c0.06 0 0.495 0.011 0.72 0.349l-0.049 0.052a1.238 1.238 0 0 0 -0.724 -0.334 23.662 23.662 0 0 1 0.052 -0.068"/><path d="M31.56 6.18a0.412 0.412 0 0 0 -0.079 0.18l0.004 0.015a0.274 0.274 0 0 0 -0.075 0.206c0 0.049 0.007 0.098 0.022 0.142l0.011 0.026c0.045 0.128 0.086 0.24 0.292 0.172 0.195 -0.06 0.203 -0.075 0.251 -0.158l0.015 -0.019c0.026 -0.045 0.056 -0.052 0.086 -0.064 0.037 -0.011 0.075 -0.022 0.112 -0.09l0.03 -0.049c0.037 -0.049 0.083 -0.112 0.086 -0.188h-0.015a0.367 0.367 0 0 1 -0.083 0.176l-0.037 0.052a0.135 0.135 0 0 1 -0.098 0.083 0.146 0.146 0 0 0 -0.098 0.068l-0.015 0.022c-0.045 0.079 -0.052 0.09 -0.244 0.15 -0.188 0.06 -0.225 -0.034 -0.27 -0.165l-0.011 -0.026c-0.052 -0.142 -0.011 -0.285 0.06 -0.337l0.022 -0.019 -0.034 0.004v-0.004c0 -0.026 0.026 -0.098 0.075 -0.169 0.045 -0.06 0.15 -0.116 0.15 -0.12l-0.007 -0.015c-0.007 0.004 -0.109 0.064 -0.154 0.124"/><path d="M31.47 6.701c0.034 0.022 0.079 0.019 0.139 0 0 0.019 0 0.064 0.037 0.094 0.045 0.037 0.112 0.045 0.206 0.022v-0.019c-0.09 0.022 -0.158 0.015 -0.195 -0.019a0.112 0.112 0 0 1 -0.034 -0.09v-0.015l-0.011 0.007c-0.056 0.022 -0.101 0.026 -0.135 0 -0.056 -0.037 -0.052 -0.139 -0.052 -0.139h-0.015s-0.007 0.112 0.06 0.158"/><path d="M31.575 6.563c-0.022 0.007 -0.03 0.026 -0.03 0.041v0.011c0.007 0.045 0.056 0.075 0.098 0.086 0.045 0.011 0.098 0.015 0.116 -0.011 0.007 -0.011 0.015 -0.03 0 -0.064a0.139 0.139 0 0 0 -0.18 -0.064zm0.075 0.124c-0.037 -0.011 -0.083 -0.037 -0.086 -0.075 0 0 -0.004 -0.026 0.019 -0.034a0.124 0.124 0 0 1 0.158 0.06c0.011 0.015 0.011 0.03 0.004 0.037 -0.011 0.019 -0.052 0.022 -0.094 0.011m-0.015 0.101c-0.011 0.094 0 0.098 0.004 0.098h0.007l0.007 -0.004 0.052 -0.075 -0.068 -0.03v0.011zm0.019 0.015 0.026 0.011 -0.03 0.041zm-0.158 -0.09 -0.004 0.086 0.075 -0.09 -0.075 -0.007zm0.015 0.007h0.022l-0.022 0.03z"/><path d="M31.444 6.682s0.056 0.109 0.068 0.15c0.004 0.022 0.037 0.052 0.075 0.064 0.037 0.015 0.075 0.015 0.101 -0.004l0.049 -0.041c0.015 -0.019 0.022 -0.022 0.037 -0.019v-0.019c-0.022 0 -0.034 0.007 -0.049 0.022l-0.049 0.037c-0.03 0.022 -0.064 0.015 -0.083 0.007 -0.037 -0.011 -0.064 -0.037 -0.068 -0.056 -0.011 -0.037 -0.064 -0.146 -0.068 -0.15zm0.075 -0.322a0.188 0.188 0 0 0 -0.09 0.105l0.015 0.004s0.026 -0.068 0.079 -0.094a0.109 0.109 0 0 1 0.09 0l0.004 -0.015c-0.037 -0.015 -0.068 -0.015 -0.101 0zm0.405 0.195c0.007 0 0.12 0.09 0.056 0.195l0.011 0.011c0.075 -0.124 -0.056 -0.221 -0.056 -0.225zm-0.345 0.015s-0.019 0.064 0.075 0.086c0 0 -0.086 0 -0.094 -0.022 -0.004 -0.022 0 -0.071 0.019 -0.064m0.281 0.075c0 0.007 -0.007 0.011 -0.011 0.011a0.011 0.011 0 0 1 -0.011 -0.007q0 -0.011 0.011 -0.011c0.004 0 0.011 0.004 0.011 0.011zm0.007 0.045c0 0.004 0 0.007 -0.007 0.007a0.011 0.011 0 0 1 -0.011 -0.007 0.011 0.011 0 0 1 0.011 -0.011c0.004 0 0.007 0.004 0.007 0.011"/><path cx="848" cy="177.8" r=".3" d="M31.811 6.668A0.011 0.011 0 0 1 31.8 6.679A0.011 0.011 0 0 1 31.789 6.668A0.011 0.011 0 0 1 31.811 6.668z"/><path d="M31.83 6.728a0.011 0.011 0 1 1 -0.022 0c0 -0.004 0.004 -0.007 0.011 -0.007zm-0.266 -0.274a0.011 0.011 0 0 1 -0.022 0 0.011 0.011 0 0 1 0.019 0z"/><path cx="841.6" cy="173.2" r=".3" d="M31.571 6.495A0.011 0.011 0 0 1 31.56 6.506A0.011 0.011 0 0 1 31.549 6.495A0.011 0.011 0 0 1 31.571 6.495z"/><path cx="840.1" cy="172.7" r=".3" d="M31.515 6.476A0.011 0.011 0 0 1 31.504 6.487A0.011 0.011 0 0 1 31.492 6.476A0.011 0.011 0 0 1 31.515 6.476z"/><path d="M31.53 6.536a0.011 0.011 0 0 1 -0.007 0.011 0.011 0.011 0 0 1 0 -0.022 0.011 0.011 0 0 1 0.007 0.011m0.18 -0.36s0.131 0.083 0.004 0.236c0 0 0.064 -0.049 0.068 -0.128 0.007 -0.079 -0.045 -0.142 -0.075 -0.109zm0.506 0.221c-0.045 0.022 -0.105 -0.019 -0.135 -0.056s-0.094 -0.049 -0.135 0.022c-0.037 0.068 -0.094 0.094 -0.094 0.094s0.056 -0.03 0.112 -0.094c0.056 -0.06 0.09 -0.011 0.146 0.019 0.052 0.03 0.064 0.037 0.101 0.019v-0.004z"/><path d="M32.205 6.409a0.064 0.064 0 0 1 -0.083 -0.004c-0.037 -0.03 -0.064 -0.068 -0.105 -0.045 -0.045 0.022 -0.124 0.083 -0.124 0.083s0.131 -0.09 0.158 -0.068c0.022 0.019 0.083 0.068 0.116 0.052z"/><path d="M32.104 6.461c-0.041 -0.03 -0.083 0.037 -0.116 0.03 -0.037 -0.007 -0.064 -0.068 -0.064 -0.068s0.03 0.06 0.075 0.049c0.049 -0.015 0.079 -0.045 0.109 -0.022 0.026 0.022 -0.004 0.011 -0.004 0.011"/><path d="M32.04 6.472a0.075 0.075 0 0 1 -0.09 -0.071s0.026 0.068 0.098 0.056z"/><path d="M32.036 6.42c0.004 0.019 0.004 0.03 -0.019 0.03s-0.037 -0.007 -0.037 -0.03c0 -0.019 0.052 -0.015 0.056 0m-0.292 -0.112a0.026 0.026 0 0 1 -0.026 0.022c-0.015 0 -0.019 -0.007 -0.019 -0.022s0 -0.026 0.019 -0.026 0.026 0.011 0.026 0.026"/><path d="M31.65 6.214s0.142 0 0.075 0.176c0 0 0.052 -0.086 0.019 -0.15 -0.037 -0.06 -0.086 -0.045 -0.086 -0.045s-0.015 0.011 -0.007 0.019"/><path d="M31.65 6.285c0 0.037 0.022 0.071 0.068 0.109l0.011 -0.015c-0.041 -0.034 -0.064 -0.064 -0.064 -0.094s0.022 -0.049 0.022 -0.049l-0.011 -0.011s-0.026 0.022 -0.03 0.06z"/><path d="M31.68 6.315c0.004 0.019 0.022 0.037 0.045 0.045l0.007 -0.015c-0.019 -0.007 -0.034 -0.022 -0.037 -0.037 -0.007 -0.03 0.015 -0.064 0.015 -0.064l-0.015 -0.011s-0.026 0.045 -0.015 0.083m0.191 0.098s0.026 0.056 -0.011 0.116l-0.037 0.06s0.045 -0.086 0.026 -0.12c-0.015 -0.037 0.022 -0.056 0.022 -0.056m0.547 0.593c0.142 0.026 0.469 0.281 0.469 0.281l0.019 -0.022c-0.011 -0.011 -0.334 -0.263 -0.484 -0.289zm0.128 0.356c0.007 0.131 0.15 0.21 0.15 0.214l0.019 -0.026s-0.131 -0.075 -0.139 -0.188zm-0.349 0.03c0 0.142 0.135 0.315 0.142 0.322l0.022 -0.019s-0.135 -0.172 -0.135 -0.304zm-0.454 0.015c0.022 0.049 0.022 0.071 0.015 0.083 -0.007 0.015 -0.022 0.015 -0.022 0.015l0.004 0.03c0.011 0 0.034 -0.007 0.045 -0.03 0.015 -0.026 0.011 -0.064 -0.015 -0.112z"/></g><g fill="#fff" stroke="#000" stroke-width=".2"><path d="M16.11 8.111s0.004 0.064 0.052 0.101c0 0 -0.004 -0.068 0.011 -0.098 0 0 -0.026 -0.03 -0.064 -0.004zm0.098 0.037s0.011 0.06 0.045 0.086l0.022 -0.004s0.007 -0.075 0.019 -0.083 -0.049 0.026 -0.086 0z"/><path d="m16.294 8.149 0.037 0.06 0.045 -0.026 -0.007 -0.068s-0.026 -0.007 -0.075 0.034zm0.176 0.011 -0.049 0.041s-0.026 -0.019 -0.045 -0.019l0.007 -0.064s0.037 -0.026 0.086 0.041zm-0.349 0.6s-0.007 -0.09 0 -0.094c0 0 0.037 0.011 0.052 0 0 0 0.019 0.068 0.015 0.098 -0.007 0.03 -0.041 0.019 -0.068 0zm0.225 -0.09s-0.004 -0.075 0.007 -0.086c0 0 0.075 0.011 0.09 -0.03l0.026 0.075s-0.079 -0.011 -0.128 0.037z"/><path d="M16.267 8.685s0.011 -0.079 0.026 -0.083c0 0 0.037 0.011 0.049 -0.004v0.098s0 -0.041 -0.075 -0.011zm-0.086 0.011s0.019 -0.071 0.03 -0.071 0.037 0.019 0.052 0.007v0.052s-0.06 -0.015 -0.071 0.071z"/></g></g><g fill="#00a651" stroke="#000" stroke-width=".8"><path stroke-width="0.01875" d="M17.314 10.14s0.195 0.184 0.146 0.345c0 0 0.124 -0.274 -0.011 -0.356 -0.135 -0.075 -0.139 -0.019 -0.135 0.011z"/><path fill="#964b36" stroke-width="0.01875" d="M17.063 10.316s-0.049 0.075 0.007 0.124c0 0 -0.064 0.09 -0.015 0.165 0 0 -0.037 0.079 -0.03 0.165 0 0 -0.03 0.131 0.037 0.191 0 0 0.075 0.037 0.112 0.004 0 0 0.064 -0.098 0.022 -0.199 0 0 0.045 -0.086 -0.007 -0.195 0 0 0.015 -0.06 -0.026 -0.131 0 0 0.026 -0.045 0.004 -0.083 0 0 -0.094 -0.101 -0.105 -0.037z"/><path stroke-width="0.01875" d="M17.119 10.088s-0.232 -0.45 -0.397 -0.469 -0.172 -0.18 -0.172 -0.18 0.019 0.075 0.15 0.075 0.382 0.188 0.412 0.326c0.026 0.139 0.056 0.12 0.056 0.12z"/><path stroke-width="0.01875" d="M17.119 10.054s0.086 -0.566 0.457 -0.578c0.371 -0.007 0.247 0.03 0.337 -0.03 0 0 -0.247 0.128 -0.401 0.15 -0.158 0.015 -0.285 0.319 -0.278 0.375 0 0.056 -0.086 0.165 -0.128 0.128 -0.045 -0.037 0.011 -0.045 0.011 -0.045z"/><path stroke-width="0.01875" d="M17.205 10.268s0.086 -0.225 0.229 -0.15c0 0 -0.112 -0.217 -0.315 -0.03 0 0 0.09 0.124 0.086 0.18zm-0.281 -0.225s0.12 0.502 -0.068 0.656c0 0 0.007 -0.259 -0.109 -0.412 -0.112 -0.158 0.112 -0.326 0.176 -0.244z"/><path stroke-width="0.01875" d="M16.939 10.129s0.221 0.214 0.232 0.285c0.015 0.068 0.068 -0.214 -0.037 -0.292s-0.214 -0.094 -0.214 -0.094l0.019 0.105z"/><path fill="#964b36" stroke-width="0.01875" d="M16.53 10.688s0.019 0.086 0.075 0.105c0 0 0 0.064 0.052 0.083 0 0 -0.026 0.056 0.015 0.09 0 0 -0.007 0.112 0.03 0.131 0 0 0.101 -0.004 0.135 -0.034 0 0 0.019 -0.071 -0.037 -0.142 0 0 0.011 -0.068 -0.045 -0.105 0 0 0.019 -0.094 -0.052 -0.128 0 0 -0.011 -0.075 -0.052 -0.112 0 0 -0.083 0.116 -0.12 0.112z"/><path stroke-width="0.01875" d="M16.639 10.575s-0.289 -0.105 -0.45 0.045c0 0 0.247 0.037 0.278 0.086s0.184 -0.083 0.172 -0.131z"/><path stroke-width="0.01875" d="m16.549 10.755 -0.052 -0.037c-0.026 -0.022 -0.27 -0.086 -0.304 0.15 0 0 -0.09 -0.236 0.037 -0.263 0.131 -0.037 0.232 0.037 0.319 0.15m-0.188 -0.48s0.086 0.195 0.12 0.203c0.034 0.011 0.056 -0.022 0.056 -0.022s-0.116 -0.172 -0.18 -0.18zm-0.068 -0.296s-0.075 -0.247 -0.165 -0.18c-0.09 0.064 -0.068 0.244 -0.068 0.244s-0.176 -0.188 -0.075 -0.33c0.105 -0.146 0.307 0.015 0.307 0.266z"/><path fill="#964b36" stroke-width="0.01875" d="M16.496 10.492s0 0.049 0.034 0.06c0.03 0.015 0.094 0.037 0.094 0.011s-0.049 -0.139 -0.068 -0.124 -0.052 0.015 -0.06 0.052z"/><path stroke-width="0.01875" d="M16.44 10.2s-0.011 -0.214 0.131 -0.296c0 0 0.026 0.007 0.041 -0.037 0 0 -0.112 0.274 -0.079 0.412l-0.004 0.015"/><path stroke-width="0.01875" d="M16.466 9.938s0.255 -0.525 0.563 -0.341c0 0 -0.322 0.064 -0.439 0.296l-0.116 0.172z"/><path stroke-width="0.01875" d="M16.331 10.129s-0.075 -0.352 -0.124 -0.397c-0.045 -0.049 -0.124 -0.098 -0.221 -0.019 0 0 0.165 -0.146 0.337 -0.022 0.176 0.12 0.139 0.315 0.139 0.315l-0.019 0.244 -0.116 -0.109"/><path stroke-width="0.01875" d="M16.605 10.549s-0.311 -0.589 -0.514 -0.169c0 0 -0.037 0.109 0.004 0.15 0 0 -0.112 -0.086 -0.06 -0.292s0.394 -0.112 0.495 0.056c0.098 0.169 0.124 0.255 0.112 0.263 -0.015 0.011 -0.037 -0.007 -0.037 -0.007zm0.874 0.169s0.225 -0.465 0.356 -0.255c0 0 0.037 0.105 -0.019 0.15 0 0 -0.09 -0.112 -0.169 0.022 -0.083 0.131 -0.049 0.12 -0.049 0.12s-0.083 0.022 -0.12 -0.037z"/><path stroke-width="0.01875" d="M17.813 10.612s0.124 0.064 0.083 0.195c0 0 0.165 -0.315 -0.06 -0.345 0 0 0.041 0.101 -0.019 0.15zm0.019 -0.322s0.296 0.086 0.304 0.214c0 0 0.052 -0.247 -0.116 -0.322 0 0 -0.203 0.037 -0.188 0.112z"/><path stroke-width="0.01875" d="M17.962 9.9c0.128 -0.247 0.285 0.079 0.285 0.079s0.056 -0.259 -0.101 -0.304c-0.161 -0.049 -0.263 0.551 -0.263 0.551l-0.188 0.037s0.049 -0.517 0.33 -0.563h0.037"/><path stroke-width="0.01875" d="M17.738 10.05s-0.18 -0.367 -0.3 -0.405 0.064 -0.094 0.139 -0.022 0.217 0.161 0.203 0.349zm-0.188 0.502s0.052 -0.247 0.195 -0.322 0.274 -0.049 0.274 -0.049 -0.169 0.037 -0.199 0.124c-0.026 0.083 -0.075 0.09 -0.075 0.09z"/><path fill="#964b36" stroke-width="0.01875" d="M17.475 10.717s-0.075 0.15 -0.06 0.172c0 0 -0.083 0.124 -0.049 0.188 0 0 0.083 0.064 0.12 0.037 0 0 0.098 -0.139 0.071 -0.214 0 0 0.068 -0.09 0.041 -0.146 0 0 -0.098 0.004 -0.12 -0.037z"/><path fill="#000001" stroke="none" d="M17.063 10.447c0.007 0.004 0.056 0.026 0.086 0.015l0.022 -0.019 -0.019 -0.007c-0.011 0.022 -0.064 0.004 -0.079 -0.004l-0.007 0.015zm-0.004 0.15 -0.007 0.019c0.004 0 0.101 0.019 0.146 -0.022l-0.015 -0.015c-0.037 0.034 -0.124 0.015 -0.128 0.015zm-0.026 0.165 -0.011 0.015s0.112 0.079 0.184 -0.007l-0.019 -0.011c-0.056 0.071 -0.15 0.007 -0.154 0zm-0.431 0.022 0.004 0.011c0.004 0 0.098 -0.037 0.105 -0.109h-0.011c-0.004 0.06 -0.094 0.098 -0.098 0.098m0.052 0.086v0.011c0.007 0 0.094 -0.007 0.109 -0.068h-0.011c-0.015 0.049 -0.094 0.056 -0.098 0.056m0.019 0.09v0.011c0.004 0 0.101 0.004 0.135 -0.049l-0.011 -0.007c-0.03 0.049 -0.124 0.045 -0.124 0.045m0.739 -0.064s0.041 0.045 0.09 0.041a0.086 0.086 0 0 0 0.064 -0.03l-0.015 -0.015c-0.015 0.019 -0.03 0.026 -0.049 0.026 -0.037 0 -0.075 -0.037 -0.075 -0.037z" stroke-width="0.0375"/></g><g fill="#964b36" stroke="#000" stroke-width=".3"><path d="M20.325 11.242a0.041 0.041 0 0 0 -0.011 0.011l0.015 -0.011zm0.349 -0.086c-0.004 -0.007 -0.007 -0.004 -0.011 -0.007l-0.015 -0.03h-0.011l-0.026 -0.052a0.015 0.015 0 0 0 0 -0.011 0.3 0.3 0 0 0 0 -0.015s-0.007 0 -0.011 -0.007v-0.06l-0.004 -0.019a0.075 0.075 0 0 1 -0.011 -0.041v-0.037c0.004 -0.015 -0.004 -0.022 -0.004 -0.037l0.004 -0.034v-0.203l-0.004 -0.037 -0.004 -0.015v-0.06l-0.007 -0.161 -0.128 -0.06s-0.011 0.232 -0.007 0.263c0 0.034 0.015 0.251 0.007 0.278l-0.019 0.161s-0.06 0.045 -0.083 0.09c-0.026 0.049 -0.019 0.064 -0.026 0.064l0.056 -0.007 -0.041 0.03a0.026 0.026 0 0 1 0.026 0.004l0.007 0.007 0.007 -0.007c0.011 0 0.019 0.015 0.026 0.011l0.015 -0.007 0.007 -0.015c0.004 -0.004 0.011 0 0.015 0h0.026c0.011 0 0.022 -0.019 0.034 -0.026 0.007 -0.007 0.015 -0.011 0.026 -0.011s0.022 0.011 0.037 0.011c0.007 0 0.011 0 0.019 -0.007l0.015 -0.022 0.03 -0.004 0.015 0.004h0.022l0.011 0.007 0.007 -0.015z"/><path d="M20.419 11.239h0.022v0.007a0.007 0.007 0 0 0 0.007 0l0.011 0.007h0.011l0.015 0.004c0.007 0.004 0.015 0 0.022 -0.004 0.007 -0.007 0.011 0 0.022 0.007 0.004 0.004 0.004 0.004 0.007 0l0.004 -0.004 0.011 -0.004 0.011 -0.004 0.015 -0.007 0.015 0.007a0.03 0.03 0 0 1 0.007 0l0.026 -0.019c0.011 -0.007 0.019 0 0.026 0h0.011c0.004 -0.004 0.007 0 0.015 0 0 -0.004 0 -0.007 0.007 -0.011l0.026 0.015c0.004 0.004 0.026 0.007 0.022 -0.007 0 -0.015 -0.015 -0.004 -0.019 -0.015v-0.022a0.026 0.026 0 0 0 -0.011 -0.015c-0.007 0 -0.007 0.004 -0.015 0l-0.007 -0.022 -0.011 0.007c-0.007 0 -0.007 -0.004 -0.011 -0.011 -0.011 -0.011 -0.015 0.007 -0.026 0.004 -0.007 0 -0.015 -0.019 -0.019 -0.026 -0.004 -0.004 -0.011 -0.019 -0.019 -0.015s0 0.019 0 0.026h-0.019c-0.007 0 -0.007 0 -0.011 0.007 -0.007 0.015 -0.011 0.026 -0.026 0.022 -0.004 0 -0.011 -0.004 -0.015 0l-0.019 0.007a0.037 0.037 0 0 1 -0.015 0l-0.015 -0.015a0.004 0.004 0 0 0 -0.007 0l-0.004 -0.007c-0.007 0 -0.007 0 -0.011 0.011l-0.004 0.019 -0.011 0.015 -0.015 0.004c-0.007 0 -0.015 0.011 -0.015 0 -0.007 -0.015 0.011 -0.041 -0.007 -0.037 -0.004 0 -0.007 0 -0.011 0.007v0.026c-0.004 0.011 -0.026 0.03 -0.022 0.037 0 0.011 0.015 0 0.015 0l0.007 0.015c0.007 0.011 0.026 -0.015 0.026 0m-0.079 -0.101v-0.007l-0.015 -0.004c-0.007 0 -0.015 0.011 -0.019 0.015 -0.007 0.015 -0.007 0.037 -0.022 0.037h-0.019v0.037s-0.007 0 -0.007 0.007c-0.004 0.015 0.007 0.007 0.015 0.007h0.037l0.019 -0.004c0.007 0 0.015 0 0.019 -0.007a0.083 0.083 0 0 0 0.007 -0.015v-0.015c0 -0.007 0.011 -0.004 0.011 -0.015 0.004 -0.026 -0.022 -0.007 -0.019 -0.034"/></g><g stroke="#000" stroke-width=".5"><path d="M20.655 10.421c0 0.034 -0.022 0.06 -0.052 0.06 -0.026 0 -0.052 -0.026 -0.052 -0.06s0.026 -0.06 0.052 -0.06c0.03 0 0.052 0.026 0.052 0.06zm-0.169 -0.075c0 0.034 -0.022 0.06 -0.052 0.06s-0.052 -0.026 -0.052 -0.06c0 -0.037 0.026 -0.06 0.052 -0.06s0.052 0.026 0.052 0.06z"/><path d="M20.576 10.369c0 0.037 -0.022 0.06 -0.052 0.06s-0.052 -0.026 -0.052 -0.06 0.022 -0.06 0.052 -0.06 0.052 0.026 0.052 0.06z"/><path d="M20.49 10.425c0 0.034 -0.022 0.06 -0.052 0.06s-0.052 -0.026 -0.052 -0.06 0.022 -0.06 0.052 -0.06 0.052 0.026 0.052 0.06z"/><path d="M20.569 10.474c0 0.03 -0.022 0.06 -0.052 0.06 -0.026 0 -0.052 -0.026 -0.052 -0.06 0 -0.037 0.026 -0.064 0.052 -0.064 0.03 0 0.052 0.026 0.052 0.06z"/></g><path fill="#00a651" stroke="#000" stroke-width="0.01875" d="M20.595 9.806s0.521 -0.727 1.08 0.026c0 0 0.004 0.075 -0.049 0.158l-0.011 -0.064 -0.037 0.011 -0.007 -0.037 -0.06 -0.004 0.019 -0.083 -0.064 0.052 0.007 -0.056 -0.075 0.075 0.011 -0.161 -0.083 0.139 0.011 -0.094 -0.03 0.041 -0.015 -0.056 -0.026 0.056 -0.037 -0.026v0.037l-0.068 -0.056 -0.022 0.075 -0.034 -0.083 -0.007 0.056 -0.034 -0.064 -0.004 0.071 -0.109 -0.049 0.022 0.068 -0.049 -0.037 0.007 0.037 -0.071 -0.015 0.007 0.041 -0.075 -0.015 0.011 0.037 -0.101 -0.011 0.037 0.037 -0.011 0.022s0.563 -0.188 0.6 0.517l-0.101 0.049 0.03 -0.056 -0.03 -0.019 -0.086 -0.064 0.026 -0.09 -0.03 0.011 -0.004 -0.052 -0.015 0.007 -0.034 -0.049 -0.007 0.019 -0.022 -0.064 -0.026 0.045 -0.011 -0.105 -0.037 0.068 -0.007 -0.037 -0.011 0.022 -0.049 -0.056 -0.015 0.037 -0.019 -0.03 -0.011 0.037 -0.052 -0.052v0.037l-0.037 -0.026 -0.011 0.019 -0.079 -0.041 -0.004 0.037 -0.045 -0.037 -0.011 0.037s0.51 0.292 0.352 0.765l-0.03 0.06 -0.007 -0.158 -0.049 0.083 0.034 -0.184 -0.034 0.037 -0.004 -0.075 -0.041 0.075 -0.015 -0.083 -0.019 0.022 -0.03 -0.12 -0.022 0.049 -0.037 -0.135 -0.03 0.056 -0.019 -0.116 -0.019 0.071 -0.056 -0.105 -0.007 0.041 -0.034 -0.083 -0.019 0.026s-0.094 -0.004 -0.124 -0.026c-0.026 -0.026 -0.105 0.139 -0.105 0.139l0.007 -0.098 -0.034 0.068v-0.068l-0.06 0.199 -0.015 -0.142 -0.03 0.124 -0.015 -0.037 -0.011 0.049 -0.019 -0.019 -0.015 0.056 -0.03 -0.022v0.075l-0.03 -0.037 -0.022 0.112 -0.015 -0.045v0.049l-0.022 -0.026 -0.022 0.112 -0.037 -0.049v0.083l0.011 0.06 -0.037 -0.019 0.015 0.098s-0.146 -0.27 0.03 -0.532c0.172 -0.263 0.409 -0.337 0.409 -0.337l-0.026 -0.022v-0.022l-0.142 0.071v-0.041l-0.037 0.03 -0.007 -0.045 -0.022 0.041 -0.004 -0.019 -0.037 0.052 -0.015 -0.075 -0.022 0.09 -0.022 -0.064 -0.049 0.131V10.125l-0.037 0.105 -0.015 -0.112 -0.026 0.128v-0.112l-0.045 0.112 -0.026 -0.112 -0.019 0.112 -0.03 -0.086 -0.026 0.128 -0.045 -0.112 -0.022 0.169 -0.026 -0.068 -0.007 0.124 -0.03 -0.075 0.03 0.158 -0.037 -0.06 0.011 0.098 -0.06 -0.109v0.128l-0.03 -0.041 -0.015 0.049s-0.011 -0.487 0.322 -0.585c0.334 -0.094 0.547 0.03 0.547 0.03l-0.128 -0.105 0.015 -0.034h-0.045l0.019 -0.037 -0.101 0.004 0.03 -0.037 -0.075 0.011v-0.022l-0.049 0.037 0.019 -0.045 -0.064 0.045 -0.004 -0.064 -0.037 0.052 -0.015 -0.056 -0.15 0.15 0.037 -0.154 -0.026 0.034 -0.004 -0.037 -0.041 0.068 -0.011 -0.045 -0.019 0.056 -0.015 -0.068 -0.03 0.068 -0.037 -0.06 -0.011 0.079 -0.022 -0.041 -0.03 0.06 -0.037 -0.037v0.037l-0.075 -0.034 0.015 0.056 -0.056 -0.045 -0.015 0.075 -0.03 -0.037 -0.026 0.094 -0.022 -0.09 -0.022 0.071s0.292 -0.757 1.035 -0.263c0 0 0.083 0.079 0.101 0.135s0.004 0.007 0.004 0.007l-0.015 -0.521 0.03 0.225 0.019 -0.075 -0.004 0.112 0.075 -0.161s-0.09 0.27 -0.056 0.371c0 0 0.034 -0.315 0.146 -0.352l-0.105 0.225 0.034 -0.004 -0.022 0.045h0.026l-0.034 0.075 -0.019 0.037 0.019 0.037z"/><path d="m20.516 10.11 0.015 0.015s0.049 -0.052 0.128 0.015l0.011 -0.015c-0.094 -0.079 -0.15 -0.015 -0.15 -0.015zm-0.022 -0.255v0.019l0.034 -0.015 -0.026 0.045 0.056 -0.019 -0.068 0.086 0.015 0.011 0.109 -0.139 -0.068 0.022 0.03 -0.049 -0.06 0.022 0.011 -0.071h-0.019z"/><path d="m20.396 9.862 0.022 0.049 -0.037 -0.015 0.109 0.195 0.015 -0.019 -0.022 0.056 0.019 0.007 0.045 -0.12 -0.015 -0.011 -0.037 0.049 -0.068 -0.116 0.03 0.011 -0.03 -0.064 0.041 0.022v-0.071h-0.019v0.037l-0.068 -0.041zm-0.071 0.24 0.007 0.019c0.03 -0.011 0.056 -0.015 0.075 -0.007 0.019 0.011 0.026 0.034 0.026 0.037l0.019 -0.007s-0.007 -0.034 -0.037 -0.045c-0.022 -0.011 -0.052 -0.011 -0.09 0.004m0.086 0.203 -0.019 -0.105h0.022l0.015 0.101zm0.142 -0.015 -0.026 -0.083 0.019 -0.004 0.026 0.075zm0.052 0.056 -0.019 -0.079 0.019 -0.004 0.022 0.079z"/><path fill="#00a651" stroke="#000" stroke-width="0.01875" d="M16.598 12.757s-0.09 -0.037 -0.131 -0.007c-0.037 0.026 -0.034 0.071 -0.068 0.068 0 0 0.135 0.03 0.161 -0.004l0.037 -0.045m0.015 0.026s-0.06 0.075 -0.037 0.124c0.019 0.045 0.064 0.049 0.052 0.083 0 0 0.056 -0.124 0.03 -0.161s-0.037 -0.041 -0.037 -0.041m-0.105 -0.217s-0.094 0.03 -0.105 0.075c-0.007 0.052 0.022 0.079 -0.004 0.101 0 0 0.12 -0.068 0.116 -0.112v-0.056m0.045 0.026s0.045 -0.086 0.019 -0.128c-0.03 -0.045 -0.075 -0.037 -0.068 -0.075 0 0 -0.037 0.131 0 0.165l0.041 0.037m-0.083 -0.034s0 -0.098 -0.037 -0.12c-0.045 -0.026 -0.083 -0.004 -0.094 -0.037 0 0 0.026 0.135 0.068 0.15l0.056 0.011m0.165 0.158s0.101 -0.037 0.112 0.075c0.007 0.112 -0.007 0.075 -0.007 0.075s-0.052 -0.12 -0.112 -0.139z"/><path d="m16.613 12.799 0.007 0.083h0.015l-0.011 -0.083 0.037 -0.184h-0.015l-0.037 0.184z"/><path d="m16.519 12.773 -0.004 0.011c0.049 0.019 0.112 -0.037 0.116 -0.037l-0.007 -0.011s-0.064 0.049 -0.105 0.037m0.128 -0.109 -0.225 -0.112 0.007 -0.019 0.225 0.112z"/><path d="m16.481 12.637 -0.015 -0.015 0.045 -0.045 0.015 0.015zm0.079 -0.022 -0.049 -0.105 0.019 -0.007 0.049 0.105zm0.068 0.128v0.022c0.064 -0.004 0.075 0.037 0.075 0.037l0.022 -0.007c0 -0.011 -0.026 -0.056 -0.098 -0.052"/><path fill="#fff" stroke="#000" stroke-width="0.02625" d="M17.67 12.787c0.075 -0.037 0.09 -0.188 0.09 -0.188 -0.019 0.052 -0.158 0.109 -0.158 0.109 0.101 -0.064 0.225 -0.352 0.225 -0.352 -0.03 0.101 -0.3 0.188 -0.472 0.285s-0.083 0.375 -0.083 0.375c-0.049 -0.034 -0.142 -0.18 -0.161 -0.311s-0.068 -0.184 -0.188 -0.199c-0.116 -0.015 -0.188 0.12 -0.188 0.12l-0.176 0.09 0.18 0.007s0.128 0.041 0.128 0.142c0 0.098 -0.112 0.499 0.075 0.724 0.124 0.154 0.6 0.244 0.6 0.244"/><path fill="#fff" stroke="#000" stroke-width="0.02625" d="M17.321 13.099s0.037 -0.18 0.154 -0.172 0.15 -0.135 0.221 -0.154c0.071 -0.022 0.431 -0.12 0.469 -0.292 0 0 -0.034 0.285 -0.364 0.427 0 0 0.266 -0.086 0.3 -0.146 0 0 -0.12 0.255 -0.409 0.296 0 0 0.27 -0.022 0.307 -0.094 0 0 -0.12 0.158 -0.319 0.18 0 0 0.188 0.075 0.232 0.011 0 0 -0.101 0.12 -0.225 0.128l0.037 0.007s-0.12 0.142 -0.251 0.049 -0.135 0.022 -0.135 0.022"/><path fill="#fff" stroke="#000" stroke-width="0.02625" d="M17.587 13.369s0.154 0.255 0.169 0.39c0 0 0.292 0.319 0.401 0.337 0 0 -0.052 0.022 -0.15 -0.056 0 0 0.083 0.083 0.098 0.086 0.015 0 -0.064 -0.007 -0.075 -0.03a0.225 0.225 0 0 0 0.052 0.056l-0.019 -0.007s-0.037 -0.004 -0.06 -0.019c-0.019 -0.015 -0.004 0.037 -0.004 0.037s-0.045 -0.011 -0.06 -0.026 0.004 0.034 0.004 0.034l-0.037 -0.011 -0.03 0.019s0 0.019 -0.019 0c-0.019 -0.011 -0.052 0 -0.052 0s-0.022 0.022 -0.037 0.007c-0.011 -0.015 -0.056 0.06 -0.056 0.06l-0.188 -0.461"/><path d="m17.771 14.201 -0.24 -0.457 0.022 -0.015 0.24 0.461zm0.21 -0.03 -0.412 -0.461 0.022 -0.019 0.412 0.461zm0.094 -0.037L17.606 13.688l0.019 -0.019 0.469 0.439z"/><g transform="translate(-96.9 97.5)scale(.66486)"><path d="M30.877 13.53s-0.045 -0.083 -0.086 -0.049c-0.037 0.03 -0.06 0.037 -0.068 0.034 0 0 0.037 0 0.064 -0.019 0.022 -0.022 0.06 -0.011 0.09 0.037zm-0.247 -0.037 0.026 0.052 -0.03 0.086 0.022 0.007 0.026 -0.094 -0.026 -0.06z"/><path d="M30.87 13.519s-0.037 0.037 -0.083 0.03l-0.049 -0.011h0.068c0.026 0 0.06 -0.011 0.064 -0.019"/><path d="M30.859 13.526s-0.045 -0.045 -0.075 -0.03c0 0 0.052 -0.019 0.083 0.026z"/><path d="M30.851 13.519s-0.049 0.034 -0.101 0l-0.004 -0.007h0.007s0.064 0.026 0.098 0.007"/><path cx="821.6" cy="360.3" r=".4" d="M30.825 13.511A0.015 0.015 0 0 1 30.81 13.526A0.015 0.015 0 0 1 30.795 13.511A0.015 0.015 0 0 1 30.825 13.511z"/></g><path d="M16.875 13.485s-0.026 0.045 -0.011 0.075c0.011 0.026 0.075 0.037 0.079 0.075 0.007 0.037 0.03 0.037 0.056 0.037l0.034 -0.011s-0.116 -0.06 -0.15 -0.161z"/><g fill="#964b36" stroke="#000" stroke-width=".5"><path stroke-width="0.01125" d="M20.602 12.555s0.21 -0.278 0.397 -0.206c0.188 0.075 0.304 0.112 0.304 0.112s0.004 0.184 -0.094 0.184 -0.195 -0.188 -0.285 -0.131a0.487 0.487 0 0 0 -0.169 0.158c-0.004 0.026 -0.236 0.03 -0.154 -0.116z"/><path d="M19.808 13.89s-0.06 0.06 -0.034 0.075 0.079 0 0.079 -0.022 -0.037 -0.06 -0.045 -0.052z"/><path d="M19.762 13.95s-0.112 -0.064 -0.195 0.083c-0.086 0.142 -0.154 0.379 -0.203 0.412 -0.049 0.03 0.48 -0.232 0.487 -0.345 0 0 0.034 -0.142 -0.022 -0.139 -0.056 0 -0.06 0.007 -0.071 -0.015z"/><path stroke-width="0.01125" d="M19.774 13.965s-0.112 0.026 -0.135 0.184 -0.176 0.236 -0.188 0.244m1.852 -1.935s-0.165 0.06 -0.139 0.176"/></g><path fill="#fff200" stroke="#000" stroke-width="0.01125" d="M20.014 12.799s0.007 -0.397 0.334 -0.382c0.06 0.007 0.03 0.079 0.03 0.079s0.075 -0.049 0.105 0.03c0 0 0.101 -0.045 0.112 0.056 0 0 0.112 -0.015 0.098 0.075 0 0 0.075 -0.019 0.075 0.045 0 0 0.086 -0.034 0.075 0.056 0 0 0.098 -0.064 0.086 0.052 0 0 0.098 -0.071 0.131 0.045 0.037 0.12 -0.098 0.367 -0.229 0.431"/><path d="M20.921 12.825s0.041 0.307 -0.131 0.424l0.004 0.007c0.184 -0.112 0.139 -0.431 0.139 -0.435h-0.011zm-0.214 0.337 0.007 0.007c0.112 -0.109 0.139 -0.397 0.139 -0.412h-0.011s-0.026 0.3 -0.135 0.405m-0.101 -0.071h0.011a0.975 0.975 0 0 1 0.154 -0.386l-0.007 -0.004s-0.142 0.206 -0.158 0.39m-0.083 -0.052h0.011c0.019 -0.214 0.165 -0.375 0.165 -0.379l-0.007 -0.007s-0.15 0.169 -0.169 0.386m-0.112 -0.075h0.011c0.011 -0.251 0.18 -0.375 0.18 -0.375l-0.007 -0.011s-0.172 0.128 -0.188 0.39zm-0.105 -0.06h0.011c-0.007 -0.232 0.169 -0.375 0.172 -0.375l-0.007 -0.007s-0.188 0.142 -0.176 0.382m-0.188 -0.086h0.011a0.382 0.382 0 0 1 0.255 -0.315v-0.011a0.394 0.394 0 0 0 -0.266 0.326"/><path fill="#00a651" stroke="#000" stroke-width="0.01125" d="M19.823 13.282s-0.056 -0.371 0.165 -0.487c0 0 0.041 -0.007 0.064 0.045 0 0 0.116 -0.049 0.12 0.049 0 0 0.06 -0.045 0.075 0.019 0 0 0.124 -0.026 0.101 0.068 0 0 0.105 -0.03 0.094 0.06 0 0 0.105 -0.037 0.09 0.037 0 0 0.112 -0.022 0.083 0.068 0 0 0.139 -0.015 0.098 0.079 0 0 0.101 -0.026 0.075 0.052 0 0 0.135 0.026 0.075 0.112a0.904 0.904 0 0 1 -0.367 0.263"/><path fill="#00a651" stroke="#000" stroke-width="0.01125" d="M19.702 13.654s-0.09 -0.307 0.083 -0.386c0 0 0.034 -0.007 0.037 0.022 0 0 0.037 -0.049 0.068 -0.004 0 0 0.086 -0.041 0.109 0.022 0 0 0.056 -0.049 0.086 0.022 0 0 0.056 -0.022 0.056 0.037 0 0 0.075 -0.037 0.075 0.037 0 0 0.075 -0.03 0.056 0.045 0 0 0.112 0.019 0.079 0.071 0 0 0.101 0.026 0.064 0.068 0 0 0.105 -0.011 0.049 0.06 0 0 0.083 -0.026 0.037 0.064 -0.049 0.09 -0.195 0.188 -0.3 0.203"/><path fill="#00a651" stroke="#000" stroke-width="0.01125" d="M19.811 13.898s-0.191 -0.188 -0.101 -0.24c0 0 0.037 0.011 0.056 0.052 0 0 0.045 -0.068 0.075 0 0 0 0.068 -0.022 0.068 0.026l0.052 0.037s0.064 -0.004 0.052 0.037c0 0 0.071 -0.011 0.068 0.026 0 0 0.06 0.004 0.056 0.045 0 0 0.105 0.019 0.056 0.071 0 0 -0.18 0.037 -0.311 -0.015 0 0 -0.064 -0.022 -0.071 -0.041z"/><path d="M20.471 13.59v0.011a1.35 1.35 0 0 0 0.322 -0.326l-0.011 -0.007c0 0.004 -0.203 0.281 -0.311 0.322m-0.068 -0.049 0.007 0.011c0.098 -0.056 0.296 -0.319 0.3 -0.33l-0.004 -0.007c-0.004 0.004 -0.206 0.27 -0.3 0.326zm-0.056 -0.022 0.007 0.007a1.8 1.8 0 0 0 0.263 -0.386l-0.007 -0.004s-0.158 0.296 -0.263 0.382m-0.049 -0.068h0.011c0.019 -0.142 0.225 -0.371 0.225 -0.375l-0.011 -0.004c-0.007 0.007 -0.206 0.232 -0.225 0.379m-0.409 -0.176h0.011c-0.015 -0.206 0.154 -0.431 0.158 -0.431l-0.011 -0.007s-0.176 0.232 -0.158 0.439m0.109 0.019h0.011c-0.03 -0.165 0.165 -0.397 0.165 -0.401l-0.007 -0.007c-0.007 0.011 -0.199 0.24 -0.169 0.409m0.165 0.06h0.011c-0.007 -0.188 0.172 -0.375 0.176 -0.375l-0.007 -0.011c0 0.004 -0.188 0.195 -0.18 0.386m-0.394 0.337h0.011c-0.068 -0.176 0.045 -0.397 0.049 -0.397l-0.011 -0.007s-0.116 0.229 -0.049 0.409zm0.075 0.015 0.011 -0.004c-0.06 -0.176 0.037 -0.412 0.037 -0.412l-0.007 -0.007s-0.101 0.244 -0.041 0.424m0.311 0.176v0.007c0.188 -0.064 0.311 -0.236 0.311 -0.236l-0.011 -0.007s-0.12 0.169 -0.3 0.236m-0.037 -0.041v0.011c0.15 -0.068 0.289 -0.255 0.289 -0.255l-0.007 -0.007s-0.139 0.188 -0.281 0.251m-0.037 -0.015 0.007 0.011c0.112 -0.086 0.263 -0.3 0.263 -0.3l-0.007 -0.007s-0.15 0.214 -0.263 0.296m-0.188 -0.109h0.015a0.787 0.787 0 0 1 0.094 -0.409l-0.011 -0.004s-0.12 0.225 -0.094 0.412zm0.083 0.052 0.007 0.007c0.12 -0.109 0.161 -0.397 0.161 -0.412h-0.011s-0.037 0.3 -0.158 0.405m0.083 0.03 0.007 0.011a0.637 0.637 0 0 0 0.214 -0.356h-0.011s-0.045 0.225 -0.21 0.349zm0.019 -0.502v0.034l-0.128 0.412 0.011 0.004 0.128 -0.412c-0.019 -0.203 0.158 -0.424 0.161 -0.424l-0.011 -0.007s-0.161 0.199 -0.161 0.394"/><path d="M20.212 13.399c0 0.007 -0.041 0.289 -0.195 0.394l0.007 0.011c0.158 -0.109 0.195 -0.386 0.195 -0.401 0.068 -0.079 0.225 -0.364 0.225 -0.364l-0.007 -0.007s-0.158 0.285 -0.225 0.367m-0.45 0.311c0 0.004 0.022 0.15 0.052 0.195l0.011 -0.004c-0.03 -0.049 -0.056 -0.191 -0.056 -0.195l-0.011 0.004zm0.071 0 -0.004 0.199h0.011v-0.199z"/><path d="m19.837 13.912 0.011 0.004c0.049 -0.105 0.064 -0.18 0.064 -0.18h-0.011s-0.015 0.071 -0.064 0.176m0.011 0.004 0.007 0.011a0.247 0.247 0 0 0 0.112 -0.15h-0.011s-0.022 0.09 -0.109 0.139m0.019 0.007v0.011c0.09 -0.007 0.15 -0.116 0.15 -0.124h-0.007s-0.06 0.105 -0.142 0.112"/><path d="M19.875 13.931v0.011c0.146 -0.011 0.21 -0.098 0.21 -0.101l-0.007 -0.004s-0.064 0.083 -0.203 0.094"/><path d="M19.886 13.931v0.011c0.004 0 0.188 0.041 0.251 -0.052l-0.011 -0.007c-0.056 0.09 -0.24 0.052 -0.24 0.049"/><path fill="none" stroke="#000" stroke-width="0.105" d="M15.784 7.245v5.115c0 1.673 3.022 2.663 3.022 2.663s3.019 -0.99 3.019 -2.663V7.245z"/></g><path fill="#012169" d="M0 0h12v9H0z"/><path fill="#FFF" d="m1.406 0 4.575 3.394L10.537 0h1.462v1.162l-4.5 3.356 4.5 3.337V9h-1.5l-4.5 -3.356L1.519 9H0v-1.125l4.481 -3.337L0 1.2V0z"/><path fill="#C8102E" d="M7.95 5.269 12 8.25v0.75l-5.081 -3.731zm-3.45 0.375 0.112 0.656 -3.6 2.7H0zM12 0v0.056l-4.669 3.525 0.037 -0.825L11.063 0zM0 0l4.481 3.3h-1.125L0 0.787z"/><path fill="#FFF" d="M4.519 0v9h3V0zM0 3v3h12V3z"/><path fill="#C8102E" d="M0 3.619v1.8h12v-1.8zM5.119 0v9h1.8V0z"/></svg>