<?xml version="1.0" encoding="UTF-8"?>
<svg xmlns="http://www.w3.org/2000/svg" xmlns:xlink="http://www.w3.org/1999/xlink" width="24px" height="16px" viewBox="0 0 30 16" version="1.1">
<g id="surface1">
<rect x="0" y="0" width="30" height="16" style="fill:rgb(45.882353%,69.803922%,86.666667%);fill-opacity:1;stroke:none;"/>
<path style=" stroke:none;fill-rule:nonzero;fill:rgb(100%,100%,100%);fill-opacity:1;" d="M 15 1.601562 L 14.511719 3.121094 L 15.261719 3.367188 "/>
<path style=" stroke:none;fill-rule:nonzero;fill:rgb(100%,100%,100%);fill-opacity:1;" d="M 15 1.601562 L 15.488281 3.121094 L 14.738281 3.367188 "/>
<path style=" stroke:none;fill-rule:nonzero;fill:rgb(100%,100%,100%);fill-opacity:1;" d="M 16.5 2.707031 L 14.921875 2.707031 L 14.921875 3.503906 "/>
<path style=" stroke:none;fill-rule:nonzero;fill:rgb(100%,100%,100%);fill-opacity:1;" d="M 16.5 2.707031 L 15.222656 3.644531 L 14.761719 3 "/>
<path style=" stroke:none;fill-rule:nonzero;fill:rgb(100%,100%,100%);fill-opacity:1;" d="M 15.929688 4.496094 L 15.441406 2.972656 L 14.6875 3.21875 "/>
<path style=" stroke:none;fill-rule:nonzero;fill:rgb(100%,100%,100%);fill-opacity:1;" d="M 15.929688 4.496094 L 14.652344 3.554688 L 15.113281 2.90625 "/>
<path style=" stroke:none;fill-rule:nonzero;fill:rgb(100%,100%,100%);fill-opacity:1;" d="M 14.070312 4.496094 L 15.347656 3.554688 L 14.886719 2.90625 "/>
<path style=" stroke:none;fill-rule:nonzero;fill:rgb(100%,100%,100%);fill-opacity:1;" d="M 14.070312 4.496094 L 14.558594 2.972656 L 15.3125 3.21875 "/>
<path style=" stroke:none;fill-rule:nonzero;fill:rgb(100%,100%,100%);fill-opacity:1;" d="M 13.5 2.707031 L 14.777344 3.644531 L 15.238281 3 "/>
<path style=" stroke:none;fill-rule:nonzero;fill:rgb(100%,100%,100%);fill-opacity:1;" d="M 13.5 2.707031 L 15.078125 2.707031 L 15.078125 3.503906 "/>
<path style=" stroke:none;fill-rule:nonzero;fill:rgb(100%,100%,100%);fill-opacity:1;" d="M 21.316406 8 L 19.8125 7.503906 L 19.570312 8.265625 "/>
<path style=" stroke:none;fill-rule:nonzero;fill:rgb(100%,100%,100%);fill-opacity:1;" d="M 21.316406 8 L 19.8125 8.496094 L 19.570312 7.734375 "/>
<path style=" stroke:none;fill-rule:nonzero;fill:rgb(100%,100%,100%);fill-opacity:1;" d="M 20.226562 9.523438 L 20.226562 7.921875 L 19.433594 7.921875 "/>
<path style=" stroke:none;fill-rule:nonzero;fill:rgb(100%,100%,100%);fill-opacity:1;" d="M 20.226562 9.523438 L 19.296875 8.226562 L 19.933594 7.757812 "/>
<path style=" stroke:none;fill-rule:nonzero;fill:rgb(100%,100%,100%);fill-opacity:1;" d="M 18.460938 8.941406 L 19.960938 8.445312 L 19.71875 7.683594 "/>
<path style=" stroke:none;fill-rule:nonzero;fill:rgb(100%,100%,100%);fill-opacity:1;" d="M 18.460938 8.941406 L 19.386719 7.644531 L 20.027344 8.117188 "/>
<path style=" stroke:none;fill-rule:nonzero;fill:rgb(100%,100%,100%);fill-opacity:1;" d="M 18.460938 7.058594 L 19.386719 8.355469 L 20.027344 7.882812 "/>
<path style=" stroke:none;fill-rule:nonzero;fill:rgb(100%,100%,100%);fill-opacity:1;" d="M 18.460938 7.058594 L 19.960938 7.554688 L 19.71875 8.316406 "/>
<path style=" stroke:none;fill-rule:nonzero;fill:rgb(100%,100%,100%);fill-opacity:1;" d="M 20.226562 6.476562 L 19.296875 7.773438 L 19.933594 8.242188 "/>
<path style=" stroke:none;fill-rule:nonzero;fill:rgb(100%,100%,100%);fill-opacity:1;" d="M 20.226562 6.476562 L 20.226562 8.078125 L 19.433594 8.078125 "/>
<path style=" stroke:none;fill-rule:nonzero;fill:rgb(100%,100%,100%);fill-opacity:1;" d="M 15 14.398438 L 15.488281 12.878906 L 14.738281 12.632812 "/>
<path style=" stroke:none;fill-rule:nonzero;fill:rgb(100%,100%,100%);fill-opacity:1;" d="M 15 14.398438 L 14.511719 12.878906 L 15.261719 12.632812 "/>
<path style=" stroke:none;fill-rule:nonzero;fill:rgb(100%,100%,100%);fill-opacity:1;" d="M 13.5 13.292969 L 15.078125 13.292969 L 15.078125 12.496094 "/>
<path style=" stroke:none;fill-rule:nonzero;fill:rgb(100%,100%,100%);fill-opacity:1;" d="M 13.5 13.292969 L 14.777344 12.355469 L 15.238281 13 "/>
<path style=" stroke:none;fill-rule:nonzero;fill:rgb(100%,100%,100%);fill-opacity:1;" d="M 14.070312 11.503906 L 14.558594 13.027344 L 15.3125 12.78125 "/>
<path style=" stroke:none;fill-rule:nonzero;fill:rgb(100%,100%,100%);fill-opacity:1;" d="M 14.070312 11.503906 L 15.347656 12.445312 L 14.886719 13.09375 "/>
<path style=" stroke:none;fill-rule:nonzero;fill:rgb(100%,100%,100%);fill-opacity:1;" d="M 15.929688 11.503906 L 14.652344 12.445312 L 15.113281 13.09375 "/>
<path style=" stroke:none;fill-rule:nonzero;fill:rgb(100%,100%,100%);fill-opacity:1;" d="M 15.929688 11.503906 L 15.441406 13.027344 L 14.6875 12.78125 "/>
<path style=" stroke:none;fill-rule:nonzero;fill:rgb(100%,100%,100%);fill-opacity:1;" d="M 16.5 13.292969 L 15.222656 12.355469 L 14.761719 13 "/>
<path style=" stroke:none;fill-rule:nonzero;fill:rgb(100%,100%,100%);fill-opacity:1;" d="M 16.5 13.292969 L 14.921875 13.292969 L 14.921875 12.496094 "/>
<path style=" stroke:none;fill-rule:nonzero;fill:rgb(100%,100%,100%);fill-opacity:1;" d="M 8.683594 8 L 10.1875 8.496094 L 10.429688 7.734375 "/>
<path style=" stroke:none;fill-rule:nonzero;fill:rgb(100%,100%,100%);fill-opacity:1;" d="M 8.683594 8 L 10.1875 7.503906 L 10.429688 8.265625 "/>
<path style=" stroke:none;fill-rule:nonzero;fill:rgb(100%,100%,100%);fill-opacity:1;" d="M 9.773438 6.476562 L 9.773438 8.078125 L 10.566406 8.078125 "/>
<path style=" stroke:none;fill-rule:nonzero;fill:rgb(100%,100%,100%);fill-opacity:1;" d="M 9.773438 6.476562 L 10.703125 7.773438 L 10.066406 8.242188 "/>
<path style=" stroke:none;fill-rule:nonzero;fill:rgb(100%,100%,100%);fill-opacity:1;" d="M 11.539062 7.058594 L 10.039062 7.554688 L 10.28125 8.316406 "/>
<path style=" stroke:none;fill-rule:nonzero;fill:rgb(100%,100%,100%);fill-opacity:1;" d="M 11.539062 7.058594 L 10.613281 8.355469 L 9.972656 7.882812 "/>
<path style=" stroke:none;fill-rule:nonzero;fill:rgb(100%,100%,100%);fill-opacity:1;" d="M 11.539062 8.941406 L 10.613281 7.644531 L 9.972656 8.117188 "/>
<path style=" stroke:none;fill-rule:nonzero;fill:rgb(100%,100%,100%);fill-opacity:1;" d="M 11.539062 8.941406 L 10.039062 8.445312 L 10.28125 7.683594 "/>
<path style=" stroke:none;fill-rule:nonzero;fill:rgb(100%,100%,100%);fill-opacity:1;" d="M 9.773438 9.523438 L 10.703125 8.226562 L 10.066406 7.757812 "/>
<path style=" stroke:none;fill-rule:nonzero;fill:rgb(100%,100%,100%);fill-opacity:1;" d="M 9.773438 9.523438 L 9.773438 7.921875 L 10.566406 7.921875 "/>
</g>
</svg>
