<?xml version="1.0" encoding="UTF-8"?>
<svg xmlns="http://www.w3.org/2000/svg" xmlns:xlink="http://www.w3.org/1999/xlink" width="24px" height="16px" viewBox="0 0 26 16" version="1.1">
<g id="surface1">
<path style=" stroke:none;fill-rule:nonzero;fill:rgb(0%,67.058824%,22.352941%);fill-opacity:1;" d="M 0 8 L 26 8 L 26 16 L 0 16 Z M 0 8 "/>
<path style=" stroke:none;fill-rule:nonzero;fill:rgb(100%,100%,100%);fill-opacity:1;" d="M 0 0 L 26 0 L 26 8 L 0 8 Z M 0 0 "/>
<path style="fill-rule:nonzero;fill:rgb(82.352941%,6.27451%,20.392157%);fill-opacity:1;stroke-width:1.8;stroke-linecap:butt;stroke-linejoin:miter;stroke:rgb(0%,0%,0%);stroke-opacity:1;stroke-miterlimit:4;" d="M 541.595805 28.574434 C 541.595805 28.574434 541.595805 28.574434 541.471106 28.574434 C 541.595805 28.574434 541.595805 28.574434 541.595805 28.574434 Z M 541.471106 28.574434 C 489.346707 57.510957 442.584387 87.541719 396.570264 125.840059 C 374.49845 145.171602 380.733425 160.490938 379.860529 177.755586 C 380.608726 189.427461 377.366538 200.248262 370.258666 206.692109 C 353.923029 210.096406 337.462692 213.379121 321.127055 216.661836 C 319.630661 212.163301 318.009567 207.664766 316.513173 203.16623 C 318.009567 196.236055 323.745745 192.831758 335.841599 197.087129 C 336.714495 188.211641 329.606623 184.56418 321.127055 181.524629 C 318.258966 179.21457 314.64268 177.512422 315.141478 169.731172 C 313.769784 152.344941 341.827175 171.068574 342.076575 171.068574 C 342.325974 171.068574 341.078978 153.43918 328.234928 149.913301 C 321.251755 147.360078 318.258966 139.943574 320.877656 134.472383 C 326.489135 123.286836 337.088594 135.323457 345.194062 135.809785 C 344.944663 128.514863 342.824772 123.286836 336.465096 117.329316 C 333.098209 115.262422 324.743341 113.681855 324.618642 110.277559 C 324.369243 105.414277 332.350012 103.468965 343.32357 104.806367 C 341.078978 98.119355 333.721707 93.742402 323.496346 90.702852 C 321.501154 87.176973 319.505962 83.651094 317.510769 80.246797 C 314.64268 75.01877 313.395685 74.775605 320.00476 64.805879 C 325.865637 61.036836 333.721707 55.565645 339.707284 51.796602 C 337.462692 51.553438 335.3428 51.310273 333.098209 50.945527 C 333.971106 43.89377 334.095805 41.462129 335.841599 29.668672 C 329.481923 38.300996 321.501154 36.72043 314.393281 40.367891 C 314.393281 40.367891 294.06726 43.89377 287.458185 52.526094 C 287.208786 52.526094 236.331382 49.972871 236.331382 49.972871 C 225.482524 51.431855 216.25476 54.592988 214.508966 65.049043 C 189.693762 67.602266 163.756262 65.413789 144.801935 89.122285 C 157.645986 88.514375 168.993642 85.474824 183.458786 87.298555 C 183.458786 87.298555 195.679339 87.541719 198.298029 100.550996 C 198.547428 101.037324 202.413113 101.037324 202.413113 101.037324 C 204.034207 102.253145 205.530601 103.590547 207.151695 104.806367 C 207.775192 103.104219 208.39869 101.40207 209.022187 99.821504 C 210.393882 100.79416 211.765577 101.645234 213.137272 102.617891 C 213.63607 100.79416 214.010168 98.97043 214.508966 97.146699 C 215.880661 98.119355 217.252356 99.092012 218.62405 100.064668 C 218.74875 97.876191 218.87345 95.687715 218.87345 93.499238 C 220.743942 94.836641 222.489736 96.174043 224.360228 97.389863 L 224.360228 88.879121 C 224.360228 88.879121 244.56155 88.757539 250.671827 101.645234 C 250.921226 101.888398 194.058245 112.101289 139.065757 107.35959 C 144.427837 104.806367 149.665216 102.131563 155.027296 99.57834 C 134.950673 95.444551 116.121046 91.79709 98.413714 77.815156 C 105.022788 102.982637 139.564555 132.52707 146.672428 132.405488 C 146.672428 132.648652 139.813954 120.125703 139.813954 120.125703 C 159.765877 120.976777 179.7178 121.827852 199.545024 122.800508 C 201.789615 129.365938 200.792019 136.782441 206.154099 142.618379 C 206.154099 142.618379 202.787212 153.560762 210.144483 157.937715 C 210.393882 158.545625 218.87345 135.809785 218.87345 135.809785 C 218.87345 135.809785 221.492139 141.888887 224.110829 146.022676 C 227.976514 126.447969 249.175433 123.286836 249.175433 123.286836 C 249.175433 123.286836 253.539916 133.499727 253.539916 133.742891 C 246.930841 134.715547 238.700673 148.211152 243.189856 155.627656 C 238.700673 155.749238 230.844603 168.758516 233.213894 175.931855 C 229.472909 179.700898 220.245144 184.685762 222.614435 200.248262 C 215.257163 201.828828 210.89268 215.202852 213.137272 229.427949 C 201.789615 240.005586 204.533005 259.458711 214.758365 267.239961 C 210.518582 271.009004 207.899892 273.926973 207.899892 278.54709 C 203.909507 276.966523 200.293221 278.303926 198.547428 280.857148 C 193.684147 275.872285 186.576274 271.495332 181.588293 276.115449 C 180.341298 270.15793 172.609928 263.714082 164.130361 264.443574 C 164.629159 258.121309 161.386971 250.461641 152.408606 247.665254 C 152.408606 247.665254 150.538113 218.363984 141.684447 208.880586 C 140.81155 203.530977 142.183245 199.883516 149.540517 195.506563 C 156.773089 191.615938 158.394183 188.576387 157.895385 177.512422 C 160.763474 170.095918 162.883365 162.557832 153.905 157.451387 C 154.154399 166.205293 151.535709 170.460664 147.919423 174.351289 C 143.679639 173.743379 142.183245 178.728242 139.315156 180.916719 C 135.324772 175.567109 147.794724 167.177949 138.566959 155.141328 C 138.068161 154.533418 132.082584 139.335664 117.368041 139.70041 C 124.351214 143.834199 127.344002 150.642793 127.344002 157.694551 C 122.73012 170.703828 120.360829 180.795137 124.974712 195.871309 C 118.864435 186.631074 115.372849 169.366426 110.384868 166.326875 C 105.895685 165.475801 103.775793 155.019746 86.56726 157.937715 C 94.049231 160.004609 96.418522 165.597383 98.413714 170.703828 C 93.799832 173.135469 96.044423 179.21457 99.41131 183.591523 C 98.787812 193.56125 104.773389 199.397188 113.751755 203.16623 C 112.255361 216.783418 110.758966 230.400605 109.262572 244.017793 C 105.770986 243.653047 100.284207 257.513398 98.039615 257.878145 C 94.548029 260.066621 88.562452 265.902559 95.545625 267.604707 C 93.425733 275.021211 91.55524 279.519746 80.332284 281.100313 C 80.332284 281.100313 92.178738 288.15207 101.9053 276.115449 C 112.38006 275.872285 108.888474 263.349336 114.001154 257.878145 C 114.001154 257.63498 116.869243 255.81125 121.109026 244.868867 C 122.85482 254.717012 132.955481 284.747773 155.775493 299.702363 C 175.602716 320.857637 191.938353 341.040254 191.688954 369.368867 C 199.545024 362.073945 204.158906 350.645234 207.650493 339.824434 C 218.499351 336.055391 233.837392 334.596406 247.679038 335.204316 C 245.309748 340.18918 242.566358 344.930879 246.057945 348.213594 C 236.456082 351.496309 234.33619 358.426484 238.201875 365.35666 C 228.101214 372.286836 227.353017 376.663789 227.228317 388.0925 C 208.523389 412.04416 197.051034 411.314668 178.470805 405.113984 C 172.360529 401.466523 163.008065 396.360078 158.643582 399.034883 C 150.662812 393.685273 139.065757 392.955781 137.195264 405.113984 C 143.180841 400.129121 146.797127 401.101777 151.535709 405.843477 C 150.662812 408.275117 149.789916 410.706758 153.406202 412.04416 C 151.785108 413.867891 150.288714 415.570039 148.66762 417.272188 C 140.063353 415.934785 128.466298 416.056367 125.47351 428.579316 C 129.962692 424.810273 139.689255 423.959199 147.670024 427.485078 C 149.166418 427.971406 150.662812 428.579316 152.034507 429.065645 C 152.283906 431.010957 152.408606 433.077852 152.658005 435.023164 C 152.658005 435.023164 140.93625 433.199434 137.694062 452.287813 C 148.79232 440.615938 156.52369 443.655488 156.52369 443.655488 C 160.763474 449.856172 176.350913 448.883516 187.57387 438.670625 C 203.410709 429.916719 207.899892 442.56125 218.125252 434.293672 C 226.60482 427.971406 236.580781 432.226777 243.439255 439.521699 C 251.295325 442.439668 259.650192 444.871309 266.134567 439.521699 C 266.134567 439.521699 274.115337 434.415254 281.971406 442.682832 C 282.096106 433.321016 275.611731 428.457734 266.633365 428.336152 L 264.014675 425.661348 C 255.659808 423.959199 246.307344 424.567109 238.950072 420.43332 C 242.441659 407.424043 247.429639 395.509004 257.280901 385.417695 C 269.376755 372.53 278.230421 366.57248 293.443762 346.754609 C 292.944964 357.940156 301.549231 370.463105 306.038413 381.891816 C 306.038413 381.891816 315.141478 367.301973 316.513173 355.508516 C 316.762572 355.508516 327.860829 349.672578 332.599411 344.687715 C 342.700072 351.00998 359.160409 339.702852 369.635168 330.462617 C 376.244243 332.894258 381.107524 332.772676 388.714195 330.462617 C 382.603918 342.863984 392.330481 354.292695 407.543822 359.155977 C 408.915517 370.098359 420.013774 372.408418 436.72351 372.408418 C 437.471707 378.852266 447.447668 379.70334 447.447668 379.70334 C 441.087993 382.742891 437.845805 385.660859 438.095204 392.226289 C 431.610829 392.347871 426.747548 393.928438 425.001755 401.466523 C 416.148089 401.588105 407.045024 402.196016 399.438353 406.572969 C 391.208185 405.357148 381.356923 401.952852 374.872548 395.387422 C 371.630361 392.591035 370.757464 388.578828 365.021286 387.119844 C 361.2803 382.742891 356.915817 383.715547 355.544123 387.849336 C 351.803137 384.931367 337.587392 383.472383 335.218101 396.967988 C 341.827175 392.104707 347.812752 390.280977 351.927837 396.238496 C 349.683245 400.250703 357.539315 402.682344 364.273089 404.26291 C 369.011671 404.627656 377.491238 408.883027 380.109928 416.299531 C 373.999651 418.123262 364.647187 417.515352 358.412212 412.895234 C 353.050132 408.275117 345.568161 408.883027 341.577776 411.800996 C 335.841599 408.275117 322.49875 415.083711 321.999952 425.904512 C 327.61143 420.676484 332.724111 418.244844 337.836791 421.527559 C 335.3428 422.135469 336.340397 422.378633 336.589796 423.837617 C 340.954279 426.39084 345.194062 428.944063 349.558546 431.375703 C 343.19887 433.077852 337.213293 435.631074 339.956683 447.546113 C 339.956683 447.546113 345.194062 437.211641 356.915817 441.102266 C 357.165216 440.859102 358.536911 444.749727 361.903798 442.074922 C 366.891779 436.360566 378.613534 433.685762 388.714195 432.713105 C 396.944363 431.740449 405.049832 429.308809 412.157704 434.050508 C 418.51738 430.767793 425.625252 428.579316 432.857825 433.807344 C 441.337392 436.482148 447.572368 446.330293 458.421226 441.831758 C 463.783305 438.062715 470.39238 437.941133 477.126154 445.479219 C 477.250853 435.99582 470.142981 432.713105 459.91762 430.646211 C 457.673029 429.187227 455.303738 427.849824 452.934447 426.39084 C 446.450072 425.539766 439.840998 426.634004 433.356623 423.594453 C 467.524291 414.718965 491.466599 395.752168 508.301034 368.517793 C 513.663113 370.463105 519.025192 372.286836 524.387272 374.232148 C 528.252957 374.475313 528.502356 375.812715 536.358425 378.244355 C 536.732524 366.57248 531.744543 354.657441 510.795024 353.441621 L 483.485829 342.985566 C 477.624952 336.784883 475.006262 323.775605 482.363534 316.115938 C 489.720805 309.67209 490.9678 310.401582 495.706382 302.49875 C 501.56726 302.012422 507.054038 307.969941 512.416118 307.969941 C 514.910108 315.629609 529.624651 322.316621 538.977115 320.006563 C 544.837993 325.23459 556.06095 328.030977 568.281502 323.897188 C 575.139976 329.976289 584.243041 332.529512 594.8425 327.787813 C 597.710589 330.584199 603.571466 332.894258 610.554639 331.435273 C 611.053437 331.435273 613.921526 338.973359 621.528197 341.648164 C 618.16131 344.809297 620.156502 358.669648 623.523389 363.53293 C 621.278798 368.882539 620.530601 374.475313 622.525793 379.946504 C 614.919123 384.809785 613.422728 388.457246 616.789615 396.724824 C 606.938353 412.65207 595.091899 414.354219 583.868942 409.490938 C 579.878558 406.937715 575.888173 404.384492 571.897788 401.952852 C 567.658005 397.69748 563.418221 393.563691 559.178437 389.429902 C 556.933846 387.363008 552.444663 386.755098 551.571767 391.253633 C 551.571767 391.253633 535.11143 387.606172 533.864435 401.466523 C 540.598209 394.779512 550.200072 400.615449 550.200072 400.858613 C 550.200072 401.101777 547.955481 402.682344 549.701274 405.357148 C 550.075373 404.992402 561.672428 409.61252 572.022488 414.111055 C 577.633966 416.177949 578.880962 416.907441 581.250252 418.244844 C 578.631562 416.907441 575.389375 415.570039 572.022488 414.111055 C 565.662812 411.679414 559.552536 409.855684 557.806743 410.22043 C 551.945865 409.734102 545.835589 409.004609 542.9675 413.381563 C 536.607825 416.056367 526.881262 418.244844 527.255361 429.795137 C 531.495144 422.864961 537.356022 423.229707 544.713293 423.837617 C 544.588594 424.323945 544.463894 424.931855 544.214495 425.418184 C 552.319964 429.065645 550.82357 424.445527 558.305541 423.716035 C 564.540517 423.108125 573.394183 425.418184 578.132764 426.99875 C 572.271887 428.700898 564.166418 427.971406 560.425433 432.226777 C 559.677236 433.56418 557.307945 432.95627 558.305541 436.360566 C 558.305541 436.360566 546.833185 435.99582 543.715697 452.044648 C 555.437452 444.506563 564.291118 444.749727 564.540517 444.749727 C 564.914615 444.749727 568.281502 445.479219 568.281502 445.479219 C 568.281502 445.479219 582.372548 436.117402 582.621947 436.117402 C 582.871346 436.117402 596.214195 430.159883 602.449171 436.846895 C 607.81125 439.521699 613.547428 439.643281 619.158906 436.360566 C 630.132464 431.618867 640.357825 431.254121 650.458486 437.941133 L 659.56155 443.412324 C 660.808546 442.56125 662.18024 441.710176 663.427236 440.73752 C 663.427236 440.73752 673.777296 437.819551 681.383966 447.059785 C 678.266478 431.132539 666.918822 430.646211 666.918822 430.646211 C 666.045925 429.795137 665.173029 429.065645 664.300132 428.336152 C 658.813353 426.147676 653.451274 424.080781 648.089195 422.013887 C 645.719904 416.177949 639.859026 411.557832 645.719904 404.506074 C 651.705481 374.596895 658.938053 352.104219 647.340998 321.830293 C 658.189856 326.45041 666.295325 341.040254 679.887572 335.933809 C 679.887572 323.775605 635.120445 300.553438 600.828077 282.072969 C 656.942861 279.155 724.4053 237.695527 698.4678 185.17209 C 702.582885 172.405977 706.573269 159.761445 710.688353 146.995332 C 716.424531 158.667207 728.146286 167.542695 738.621046 171.311738 C 730.016779 154.776582 725.028798 104.320039 730.016779 69.547578 C 707.446166 97.511445 682.381562 122.192598 655.945264 147.360078 C 668.914014 150.399629 680.38637 148.332734 692.981022 146.752168 C 689.364736 154.04709 685.997849 161.342012 682.381562 168.636934 C 647.839796 148.454316 607.437151 163.65207 607.063053 190.643281 C 608.310048 222.011445 647.091599 226.50998 669.537512 215.567598 C 665.173029 244.139375 599.331683 233.68332 599.331683 233.68332 C 575.888173 225.537324 553.691659 226.996309 529.125853 227.117891 C 534.238534 211.433809 562.545325 197.451875 584.118341 203.652559 C 553.941058 169.731172 588.482825 127.663789 630.007764 114.654512 C 584.741839 99.699922 623.772788 65.049043 657.691058 40.367891 C 657.691058 40.367891 560.051334 81.462617 551.197668 81.341035 C 523.389675 79.152559 530.996346 46.32541 541.471106 28.574434 Z M 234.959687 68.088594 C 237.328978 68.088594 239.947668 68.331758 242.06756 68.818086 C 246.432043 69.912324 251.794123 70.520234 251.794123 71.857637 C 249.674231 75.261934 244.68625 79.395723 239.822969 79.152559 C 234.834988 78.909395 231.966899 75.869844 230.345805 68.574922 C 230.844603 68.210176 232.715096 68.088594 234.959687 68.088594 Z M 646.094002 183.95627 C 652.453678 183.834688 660.185048 186.631074 667.667019 194.533906 C 664.050733 204.868379 632.875853 210.217988 630.755962 194.898652 C 630.132464 190.278535 636.741538 184.077852 646.094002 183.95627 Z M 646.094002 183.95627 " transform="matrix(0.0313253,0,0,0.0321285,0.0538795,0.0311647)"/>
<path style="fill:none;stroke-width:1.8;stroke-linecap:butt;stroke-linejoin:round;stroke:rgb(0%,0%,0%);stroke-opacity:1;stroke-miterlimit:4;" d="M 267.256863 158.788789 L 271.995445 165.597383 M 271.746046 165.840547 C 271.746046 165.840547 271.746046 175.080781 273.741238 175.323945 M 269.376755 180.308809 C 269.626154 180.551973 274.364736 188.454805 274.364736 188.454805 M 260.772488 190.643281 C 261.021887 190.643281 266.882764 197.330293 266.882764 197.330293 M 271.870745 192.102266 C 271.870745 192.34543 277.357524 202.679902 277.856322 202.679902 M 264.638173 199.275605 C 264.638173 199.275605 266.633365 211.676973 268.379159 211.312227 M 256.532704 222.133027 L 262.144183 230.400605 M 266.882764 213.257539 C 266.882764 213.257539 269.875553 225.050996 272.244844 223.956758 M 274.614135 206.084199 C 274.738834 206.327363 280.225613 214.108613 281.722007 213.014375 M 280.350312 216.053926 L 285.587692 226.388398 M 271.746046 223.956758 C 271.995445 224.443086 276.110529 236.236543 276.110529 236.236543 M 261.894784 230.279023 C 261.894784 230.279023 265.760469 243.409883 269.252055 241.221406 M 260.398389 247.665254 C 260.398389 247.665254 260.523089 254.59543 264.014675 254.960176 M 266.383966 244.260957 C 266.383966 244.504121 269.875553 249.24582 269.875553 249.24582 M 276.235228 235.993379 L 279.103317 240.613496 M 285.338293 227.604219 L 289.702776 233.07541 M 265.38637 165.962129 C 265.635769 171.676484 274.863534 163.895234 278.47982 158.910371 M 261.395986 186.144746 C 261.395986 186.144746 271.621346 178.971406 279.352716 168.272188 M 258.153798 203.044648 C 265.261671 201.220918 278.35512 185.293672 280.97381 176.904512 M 256.657404 218.850313 C 258.652596 219.701387 283.093702 202.071992 283.7172 189.184297 M 256.033906 232.345918 C 256.033906 232.224336 278.35512 226.753145 287.707584 202.193574 M 254.911611 250.947969 C 254.911611 250.947969 290.575673 229.549531 292.446166 213.865449 M 533.240937 286.93625 C 533.240937 286.93625 530.871647 305.295137 512.416118 308.091523 M 539.101815 319.88498 C 539.226514 319.641816 556.684447 300.431855 552.195264 294.595918 M 579.504459 301.28293 C 579.504459 301.28293 579.25506 314.656953 568.281502 323.897188 M 601.326875 305.173555 C 601.326875 305.173555 601.700974 321.343965 594.8425 327.787813 M 621.278798 314.900117 C 621.278798 314.900117 613.547428 329.976289 610.804038 331.556855 M 621.029399 341.648164 C 621.029399 341.648164 631.13006 344.201387 634.372248 337.514375 M 623.648089 363.654512 C 623.648089 363.654512 633.000553 365.35666 637.365036 356.238008 M 622.650493 380.554414 C 622.650493 380.554414 630.257163 386.998262 635.369844 378.609102 M 513.413714 256.054414 C 513.413714 256.054414 512.540817 288.881563 558.679639 295.568574 C 610.180541 309.793672 634.496947 302.255586 637.489736 359.885469 C 635.494543 381.891816 632.751154 406.694551 616.914315 397.211152 M 464.531502 286.32834 C 464.531502 286.32834 471.888774 299.459199 480.74244 298.486543 C 492.339495 295.082246 496.579279 302.255586 496.579279 302.255586 M 433.107224 299.459199 C 433.107224 299.459199 452.435649 308.942598 469.020685 293.623262 M 435.227115 285.842012 C 436.972909 308.45627 409.164916 321.343965 398.191358 319.27707 M 436.59881 372.53 C 436.848209 372.53 451.687452 363.53293 448.569964 357.332246 M 407.045024 359.277559 C 407.419123 358.79123 431.984928 356.481172 436.59881 347.605684 M 395.697368 323.046113 C 395.697368 322.924531 430.488534 323.167695 432.857825 329.611543 M 441.960889 302.377168 C 441.960889 302.377168 407.917921 360.614961 470.766478 360.614961 M 405.922728 301.526094 C 405.922728 301.526094 398.690156 323.289277 388.340096 330.584199 M 369.759868 293.988008 C 369.759868 293.988008 382.479219 318.425996 369.759868 330.584199 M 336.839195 300.918184 C 337.088594 301.404512 340.954279 335.569063 332.350012 345.295625 M 320.503558 302.012422 C 320.503558 302.012422 321.750553 323.775605 315.266178 331.435273 C 308.906502 339.216523 316.762572 355.386934 316.762572 355.386934 M 238.326575 365.842988 C 238.326575 365.842988 242.940457 373.867402 249.424832 371.071016 M 246.182644 348.092012 C 246.182644 348.092012 256.532704 352.590547 259.899591 350.888398 M 257.405601 311.49582 C 257.405601 311.49582 242.06756 315.751191 247.928437 333.866914 C 256.782103 340.918672 265.38637 339.946016 265.38637 339.946016 M 227.228317 388.335664 C 226.978918 388.335664 228.974111 402.560762 238.825373 391.739961 C 245.683846 377.393281 267.506262 336.663301 272.494243 322.681367 M 282.594904 315.994355 C 282.594904 315.994355 271.995445 307.848359 272.494243 319.27707 C 272.244844 326.328828 275.73643 328.030977 275.73643 328.030977 C 276.110529 333.259004 280.599712 340.553926 284.340697 333.866914 C 285.837091 327.423066 283.218401 324.62668 283.218401 324.62668 M 289.203978 312.954805 C 279.726815 312.346895 274.614135 333.259004 292.944964 320.128145 M 299.17994 305.903047 C 299.17994 305.903047 296.810649 309.06418 293.069663 305.659883 C 291.199171 302.255586 284.340697 321.100801 296.311851 321.830293 C 298.556442 316.23752 305.165517 314.656953 305.165517 314.656953 M 310.776995 296.784395 C 310.776995 296.784395 305.414916 299.459199 303.419724 298.972871 C 297.060048 300.431855 298.307043 315.508027 306.537212 314.656953 C 309.280601 311.49582 312.273389 306.997285 312.273389 306.997285 M 260.024291 277.088105 C 259.774892 277.088105 238.575974 310.401582 271.746046 319.155488 M 528.502356 226.996309 C 528.502356 226.996309 515.533606 238.060273 527.629459 255.689668 C 487.600913 255.081758 466.027897 273.562227 464.282103 286.085176 C 413.28 282.437715 422.507764 297.513887 405.922728 302.377168 C 383.726214 283.896699 351.304339 294.231172 353.424231 312.711641 C 338.584988 291.799531 315.764976 302.012422 312.896887 307.118867 C 310.153498 312.346895 311.151094 281.465059 311.151094 281.465059 C 311.151094 281.465059 296.311851 288.15207 285.961791 300.431855 C 286.21119 292.285859 285.961791 278.911836 285.961791 274.656465 C 273.616538 277.088105 261.645385 277.33127 248.801334 276.966523 M 215.132464 267.483125 C 215.132464 267.483125 233.712692 277.817598 256.532704 263.835664 M 213.63607 230.279023 C 213.63607 230.279023 228.101214 243.166719 255.16101 239.154512 M 222.739135 200.491426 C 222.739135 200.491426 225.981322 211.069063 256.906803 211.798555 M 233.213894 176.17502 C 233.213894 176.17502 244.935649 190.400117 260.647788 188.211641 M 243.189856 155.749238 C 243.189856 155.749238 247.679038 163.530488 264.887572 164.746309 M 253.290517 133.13498 C 253.290517 133.13498 262.268882 143.104707 272.618942 141.280977 M 307.03601 52.647676 C 307.03601 52.647676 311.151094 48.635469 317.760168 50.580781 M 304.167921 73.802949 C 304.167921 73.802949 291.697969 73.316621 292.570865 68.45334 C 293.568462 62.860566 305.789014 58.848359 305.789014 58.848359 C 305.789014 58.848359 321.999952 48.392305 324.493942 44.866426 M 251.045925 101.766816 L 266.758065 132.040742 L 274.364736 120.733613 L 278.35512 128.514863 L 284.839495 117.207734 L 295.937752 124.259492 L 291.697969 110.520723 L 301.050433 109.79123 C 301.050433 109.79123 298.681142 103.104219 290.201575 101.766816 C 292.446166 100.064668 300.177536 94.958223 300.177536 94.958223 C 300.177536 94.958223 295.688353 89.730195 288.82988 89.608613 C 291.074471 87.055391 294.191959 81.097871 293.94256 81.097871 C 293.693161 81.097871 287.084087 79.517305 287.084087 79.517305 C 287.084087 79.517305 302.920925 84.62375 315.141478 77.571992 M 284.839495 53.134004 C 285.088894 53.255586 283.966599 59.334688 280.599712 62.860566 M 223.86143 69.790742 C 223.86143 69.790742 233.712692 67.115938 240.945264 68.574922 C 248.177837 70.033906 257.904399 72.708711 257.904399 72.708711 C 257.904399 72.708711 269.501454 71.128145 273.24244 68.45334 M 199.669724 76.23459 C 199.669724 76.23459 198.298029 80.854707 197.799231 84.01584 C 197.799231 86.204316 190.691358 89.122285 190.691358 89.122285 M 204.034207 66.629609 C 204.034207 66.629609 210.269183 74.410859 210.518582 78.909395 C 210.767981 83.286348 205.9047 86.690645 205.9047 86.690645 M 139.813954 119.882539 L 133.329579 109.426484 L 139.065757 107.35959 M 256.283305 264.078828 C 251.170625 257.391816 260.14899 154.898164 279.352716 128.150117 C 272.618942 176.418184 294.815457 225.780488 300.426935 225.537324 M 198.04863 99.57834 C 198.04863 99.57834 206.777596 102.861055 224.859026 88.514375 M 249.300132 123.286836 L 262.268882 123.408418 M 651.705481 42.921113 C 651.705481 42.921113 435.601214 143.955781 432.483726 149.305391 C 468.895986 138.241426 623.772788 112.466035 627.513774 114.654512 C 618.410709 116.842988 430.488534 160.004609 421.759567 170.339082 C 468.646587 168.758516 566.785108 185.415254 582.247849 201.464082 C 548.828377 193.925996 449.068762 179.21457 418.51738 185.78 C 440.963293 191.129609 526.507163 246.571016 526.507163 255.324922 C 513.663113 243.045137 410.66131 200.613008 406.670925 204.625215 C 430.239135 218.850313 463.533906 271.37375 463.533906 284.261445 C 456.675433 273.319063 397.193762 209.366914 393.702175 213.500703 C 400.061851 222.254609 412.531803 297.635469 406.047428 301.161348 C 406.047428 292.042695 382.978017 226.023652 381.107524 224.199922 C 376.368942 225.415742 346.939856 304.687227 352.800733 312.10373 C 349.059748 285.598848 353.424231 230.522188 360.656803 232.710664 C 347.812752 234.534395 306.537212 288.881563 311.026394 297.392305 C 312.273389 283.775117 314.143882 274.778047 337.337993 229.792695 C 311.525192 231.373262 258.029099 265.051484 248.926034 277.088105 C 256.158606 255.689668 301.549231 219.458223 321.376454 216.905 M 414.651695 138.241426 C 437.471707 125.475313 508.051635 99.57834 555.188053 80.611543 M 370.258666 206.448945 C 370.258666 206.448945 385.846106 206.205781 401.433546 163.895234 C 416.771587 106.022188 538.478317 41.583711 540.972308 29.54709 M 164.25506 264.565156 C 164.25506 264.565156 160.638774 272.346406 156.274291 274.534883 M 181.712993 276.237031 C 181.712993 276.237031 176.974411 285.598848 175.852115 290.097383 M 198.422728 280.857148 C 198.422728 280.857148 202.537812 293.623262 199.170925 299.702363 M 151.909808 247.665254 C 139.689255 254.473848 158.892981 298.121797 217.002957 302.377168 M 207.650493 278.790254 C 207.650493 278.790254 206.029399 286.571504 217.002957 302.134004 C 213.885469 319.520234 230.221106 333.137422 236.580781 335.325898 M 202.911911 122.31418 C 202.911911 122.071016 204.782404 117.694063 204.782404 117.694063 L 206.777596 122.800508 L 209.895084 122.678926 L 212.014976 117.57248 L 213.760769 122.678926 L 216.878257 122.678926 L 218.87345 116.96457 L 221.866238 122.435762 L 224.360228 122.557344 L 226.355421 115.870332 L 230.470505 120.612031 L 231.8422 120.125703 L 233.213894 113.438691 L 237.204279 118.058809 L 238.326575 117.450898 L 240.197067 110.885469 L 243.563954 115.74875 L 245.185048 115.14084 L 246.806142 109.669648 L 249.92363 114.776094 M 199.420325 122.92209 L 223.612031 122.557344 C 231.343401 122.435762 244.062752 111.736543 258.403197 115.019258 M 148.168822 174.837617 C 148.168822 174.837617 152.283906 183.469941 157.770685 178.60666 M 138.816358 180.673555 C 138.816358 180.673555 131.084988 201.585664 140.437452 206.448945 M 127.718101 157.451387 C 127.718101 157.451387 127.718101 162.314668 137.943462 154.776582 M 95.919724 267.361543 C 95.919724 267.361543 104.149892 269.793184 102.778197 276.115449 M 99.037212 171.311738 C 99.037212 171.311738 104.149892 173.743379 109.013173 166.205293 M 153.281502 412.04416 C 161.386971 411.557832 163.008065 415.205293 170.365337 415.205293 C 178.720204 415.448457 186.950373 412.04416 197.549832 409.126191 M 266.383966 428.457734 C 266.134567 428.457734 262.518281 436.117402 265.635769 439.886445 M 152.159207 429.187227 C 152.159207 429.187227 164.878558 418.731172 171.612332 425.17502 C 177.972007 427.363496 181.588293 426.99875 181.588293 426.99875 M 158.892981 399.399629 C 158.892981 399.399629 162.010469 407.424043 151.535709 406.208223 M 148.418221 417.880098 C 148.418221 417.880098 155.151995 422.013887 147.545325 427.60666 M 152.408606 435.144746 C 152.408606 435.144746 161.511671 436.482148 156.274291 443.898652 M 447.07357 379.70334 C 447.07357 379.70334 471.888774 382.256563 473.01107 384.201875 C 475.879159 381.162324 497.950974 363.289766 470.766478 360.736543 C 466.277296 379.338594 447.572368 380.068086 447.07357 379.70334 Z M 438.344603 392.104707 C 447.572368 399.521211 443.706683 404.019746 472.761671 384.445039 M 425.001755 401.344941 C 425.001755 401.344941 438.718702 416.056367 448.694663 398.305391 M 398.939555 406.694551 L 380.484026 416.299531 M 347.189255 430.038301 C 347.189255 430.038301 358.412212 420.311738 363.649591 425.418184 C 368.886971 430.524629 391.332885 421.04123 391.332885 421.04123 M 355.544123 387.970918 C 355.544123 387.970918 359.409808 395.752168 352.052536 396.724824 M 340.954279 412.04416 C 340.954279 412.04416 344.819964 419.339082 337.213293 421.284395 M 349.558546 431.740449 C 349.558546 431.740449 361.2803 432.348359 357.165216 441.102266 M 458.795325 430.159883 C 458.795325 430.159883 452.435649 435.509492 457.049531 441.710176 M 551.821166 391.253633 C 551.821166 391.253633 559.178437 394.901094 550.324772 400.980195 M 542.9675 413.746309 C 542.9675 413.746309 548.454279 419.582246 544.837993 424.445527 M 558.43024 436.117402 C 558.43024 436.117402 566.161611 438.305879 565.288714 444.628145 M 666.170625 430.403047 C 666.170625 430.403047 659.68625 435.144746 663.177837 441.223848 M 551.945865 243.288301 C 567.408606 241.46457 589.480421 275.629121 600.703377 282.316133 M 667.916418 194.898652 C 667.916418 194.898652 675.772488 201.707246 668.914014 218.12082 M 682.381562 168.758516 C 684.626154 170.460664 692.981022 174.837617 698.4678 185.17209 M 703.82988 117.57248 C 703.82988 117.694063 692.981022 146.752168 692.981022 146.752168 M 715.925733 116.113496 C 715.925733 116.113496 713.805841 142.010469 710.563654 147.360078 M 667.667019 194.533906 C 664.050733 204.868379 632.875853 210.217988 630.755962 194.898652 C 629.633666 186.99582 649.21149 174.959199 667.667019 194.533906 Z M 667.667019 194.533906 " transform="matrix(0.0313253,0,0,0.0321285,0.0538795,0.0311647)"/>
<path style="fill-rule:nonzero;fill:rgb(0%,0%,0%);fill-opacity:1;stroke-width:1.8;stroke-linecap:butt;stroke-linejoin:round;stroke:rgb(0%,0%,0%);stroke-opacity:1;stroke-miterlimit:4;" d="M 234.710288 68.210176 L 246.806142 70.398652 C 246.806142 70.398652 238.326575 81.705781 234.710288 68.210176 Z M 234.710288 68.210176 " transform="matrix(0.0313253,0,0,0.0321285,0.0538795,0.0311647)"/>
</g>
</svg>
