<?xml version="1.0" encoding="UTF-8"?>
<svg xmlns="http://www.w3.org/2000/svg" xmlns:xlink="http://www.w3.org/1999/xlink" width="24px" height="16px" viewBox="0 0 26 16" version="1.1">
<g id="surface1">
<rect x="0" y="0" width="26" height="16" style="fill:rgb(80.784314%,6.666667%,14.901961%);fill-opacity:1;stroke:none;"/>
<path style=" stroke:none;fill-rule:nonzero;fill:rgb(0%,47.843137%,36.862745%);fill-opacity:1;" d="M 2.183594 2.238281 L 23.816406 2.238281 L 23.816406 13.761719 L 2.183594 13.761719 Z M 2.183594 2.238281 "/>
<path style=" stroke:none;fill-rule:nonzero;fill:rgb(98.823529%,81.960784%,8.627451%);fill-opacity:1;" d="M 2.183594 2.238281 L 23.816406 2.238281 L 2.183594 13.761719 L 23.816406 13.761719 Z M 2.183594 2.238281 "/>
<path style=" stroke:none;fill-rule:nonzero;fill:rgb(80.784314%,6.666667%,14.901961%);fill-opacity:1;" d="M 14.871094 8 C 14.871094 9.058594 14.035156 9.921875 13 9.921875 C 11.964844 9.921875 11.128906 9.058594 11.128906 8 C 11.128906 6.941406 11.964844 6.078125 13 6.078125 C 14.035156 6.078125 14.871094 6.941406 14.871094 8 Z M 14.871094 8 "/>
<path style=" stroke:none;fill-rule:nonzero;fill:rgb(80.784314%,6.666667%,14.901961%);fill-opacity:1;" d="M 3.523438 8.023438 C 3.757812 8.46875 4.210938 8.957031 4.609375 9.128906 C 4.617188 8.671875 4.460938 8.089844 4.246094 7.625 Z M 3.523438 8.023438 "/>
<path style=" stroke:none;fill-rule:nonzero;fill:rgb(98.823529%,81.960784%,8.627451%);fill-opacity:1;" d="M 3.125 6.488281 C 3.464844 7.210938 2.246094 8.945312 4.277344 9.351562 C 4.027344 9 3.867188 8.421875 3.925781 7.957031 C 4.351562 8.121094 4.800781 8.609375 4.984375 8.980469 C 5.515625 7 3.617188 7.121094 3.125 6.488281 Z M 7.800781 13.839844 L 7.203125 15.722656 L 8.765625 14.558594 L 6.835938 14.558594 L 8.394531 15.722656 Z M 13 13.839844 L 12.402344 15.722656 L 13.964844 14.558594 L 12.035156 14.558594 L 13.597656 15.722656 Z M 18.199219 13.839844 L 17.605469 15.722656 L 19.164062 14.558594 L 17.234375 14.558594 L 18.796875 15.722656 Z M 18.199219 0.078125 L 17.605469 1.960938 L 19.164062 0.796875 L 17.234375 0.796875 L 18.796875 1.960938 Z M 13 0.078125 L 12.402344 1.960938 L 13.964844 0.796875 L 12.035156 0.796875 L 13.597656 1.960938 Z M 7.800781 0.078125 L 7.203125 1.960938 L 8.765625 0.796875 L 6.835938 0.796875 L 8.394531 1.960938 Z M 13 6.238281 L 11.992188 9.425781 L 14.632812 7.457031 L 11.367188 7.457031 L 14.007812 9.425781 Z M 13 6.238281 "/>
</g>
</svg>
