<?xml version="1.0" encoding="UTF-8"?>
<svg xmlns="http://www.w3.org/2000/svg" xmlns:xlink="http://www.w3.org/1999/xlink" width="24px" height="16px" viewBox="0 0 32 16" version="1.1">
<g id="surface1">
<rect x="0" y="0" width="32" height="16" style="fill:rgb(85.490196%,0%,4.705882%);fill-opacity:1;stroke:none;"/>
<path style=" stroke:none;fill-rule:nonzero;fill:rgb(100%,100%,100%);fill-opacity:1;" d="M 0 0 L 32 0 L 32 10.71875 L 0 10.71875 Z M 0 0 "/>
<path style=" stroke:none;fill-rule:nonzero;fill:rgb(0%,0%,0%);fill-opacity:1;" d="M 12.285156 7.269531 L 16.285156 7.269531 L 16.285156 10.019531 L 12.285156 10.019531 Z M 12.285156 7.269531 "/>
<path style="fill-rule:nonzero;fill:rgb(85.490196%,0%,4.705882%);fill-opacity:1;stroke-width:1;stroke-linecap:square;stroke-linejoin:miter;stroke:rgb(0%,0%,0%);stroke-opacity:1;stroke-miterlimit:4;" d="M 229.8125 153.875 L 190.75 153.875 L 182.0625 159.5625 L 182.0625 165.625 L 229.8125 165.625 " transform="matrix(0.0625,0,0,0.0625,0,0)"/>
<path style="fill-rule:nonzero;fill:rgb(85.490196%,0%,4.705882%);fill-opacity:1;stroke-width:1;stroke-linecap:square;stroke-linejoin:miter;stroke:rgb(0%,0%,0%);stroke-opacity:1;stroke-miterlimit:4;" d="M 213.5 128.5625 C 219.0625 128.5625 223.6875 133.3125 223.6875 139.0625 L 223.6875 153.8125 L 231 153.8125 L 231 97.875 L 190.75 97.875 L 190.75 153.8125 L 203.25 153.8125 L 203.25 139.0625 C 203.25 133.5 207.75 128.5625 213.5 128.5625 Z M 213.5 128.5625 " transform="matrix(0.0625,0,0,0.0625,0,0)"/>
<path style=" stroke:none;fill-rule:nonzero;fill:rgb(0%,0%,0%);fill-opacity:1;" d="M 12.78125 3.746094 L 13.941406 3.746094 L 13.941406 5.871094 L 12.78125 5.871094 Z M 12.78125 3.746094 "/>
<path style="fill-rule:nonzero;fill:rgb(85.490196%,0%,4.705882%);fill-opacity:1;stroke-width:1;stroke-linecap:square;stroke-linejoin:miter;stroke:rgb(0%,0%,0%);stroke-opacity:1;stroke-miterlimit:4;" d="M 223 88.625 L 206.8125 88.625 L 206.8125 82.9375 L 194.875 82.9375 L 194.875 88.625 L 186.8125 88.625 L 186.8125 82.9375 L 182 82.9375 L 182 93.375 L 223 93.375 M 186.8125 93.3125 L 221.8125 93.3125 L 221.8125 97.875 L 186.8125 97.875 Z M 186.8125 93.3125 " transform="matrix(0.0625,0,0,0.0625,0,0)"/>
<path style="fill-rule:nonzero;fill:rgb(85.490196%,0%,4.705882%);fill-opacity:1;stroke-width:1;stroke-linecap:square;stroke-linejoin:miter;stroke:rgb(0%,0%,0%);stroke-opacity:1;stroke-miterlimit:4;" d="M 200.6875 47.625 L 200.6875 82.9375 L 206.8125 82.9375 L 206.8125 73.25 C 206.8125 69.5625 209.375 66.625 212.9375 66.4375 C 213.0625 66.4375 213.1875 66.4375 213.25 66.4375 C 217 66.4375 220.0625 69.5 220.0625 73.25 L 220.0625 82.9375 L 225.8125 82.9375 L 225.8125 47.625 Z M 200.6875 47.625 " transform="matrix(0.0625,0,0,0.0625,0,0)"/>
<path style="fill-rule:nonzero;fill:rgb(85.490196%,0%,4.705882%);fill-opacity:1;stroke-width:1;stroke-linecap:square;stroke-linejoin:miter;stroke:rgb(0%,0%,0%);stroke-opacity:1;stroke-miterlimit:4;" d="M 198.5 42.875 L 198.5 47.625 L 227.75 47.625 L 227.75 42.875 Z M 198.5 42.875 " transform="matrix(0.0625,0,0,0.0625,0,0)"/>
<path style="fill-rule:nonzero;fill:rgb(85.490196%,0%,4.705882%);fill-opacity:1;stroke-width:1;stroke-linecap:square;stroke-linejoin:miter;stroke:rgb(0%,0%,0%);stroke-opacity:1;stroke-miterlimit:4;" d="M 194.75 33.6875 L 194.75 42.875 L 229.875 42.875 L 229.875 33.6875 L 224.5 33.6875 L 224.5 38.375 L 217.9375 38.375 L 217.9375 33.6875 L 208 33.6875 L 208 38.375 L 201.4375 38.375 L 201.4375 33.6875 Z M 194.75 33.6875 " transform="matrix(0.0625,0,0,0.0625,0,0)"/>
<path style="fill:none;stroke-width:1;stroke-linecap:square;stroke-linejoin:miter;stroke:rgb(0%,0%,0%);stroke-opacity:1;stroke-miterlimit:4;" d="M 182.0625 159.5625 L 230 159.5625 " transform="matrix(0.0625,0,0,0.0625,0,0)"/>
<path style="fill-rule:nonzero;fill:rgb(85.490196%,0%,4.705882%);fill-opacity:1;stroke-width:1;stroke-linecap:square;stroke-linejoin:miter;stroke:rgb(0%,0%,0%);stroke-opacity:1;stroke-miterlimit:4;" d="M 261 156.8125 L 228.5625 156.8125 L 218.75 161.5 L 218.75 168.5625 L 261 168.5625 " transform="matrix(0.0625,0,0,0.0625,0,0)"/>
<path style="fill:none;stroke-width:1;stroke-linecap:butt;stroke-linejoin:miter;stroke:rgb(0%,0%,0%);stroke-opacity:1;stroke-miterlimit:4;" d="M 218.75 161.5 L 262 161.5 " transform="matrix(0.0625,0,0,0.0625,0,0)"/>
<path style=" stroke:none;fill-rule:nonzero;fill:rgb(0%,0%,0%);fill-opacity:1;" d="M 19.714844 7.269531 L 15.714844 7.269531 L 15.714844 10.019531 L 19.714844 10.019531 Z M 19.714844 7.269531 "/>
<path style="fill-rule:nonzero;fill:rgb(85.490196%,0%,4.705882%);fill-opacity:1;stroke-width:1;stroke-linecap:square;stroke-linejoin:miter;stroke:rgb(0%,0%,0%);stroke-opacity:1;stroke-miterlimit:4;" d="M 229.8125 153.875 L 190.75 153.875 L 182.0625 159.5625 L 182.0625 165.625 L 229.8125 165.625 " transform="matrix(-0.0625,0,0,0.0625,32,0)"/>
<path style="fill-rule:nonzero;fill:rgb(85.490196%,0%,4.705882%);fill-opacity:1;stroke-width:1;stroke-linecap:square;stroke-linejoin:miter;stroke:rgb(0%,0%,0%);stroke-opacity:1;stroke-miterlimit:4;" d="M 213.5 128.5625 C 219.0625 128.5625 223.6875 133.3125 223.6875 139.0625 L 223.6875 153.8125 L 231 153.8125 L 231 97.875 L 190.75 97.875 L 190.75 153.8125 L 203.25 153.8125 L 203.25 139.0625 C 203.25 133.5 207.75 128.5625 213.5 128.5625 Z M 213.5 128.5625 " transform="matrix(-0.0625,0,0,0.0625,32,0)"/>
<path style=" stroke:none;fill-rule:nonzero;fill:rgb(0%,0%,0%);fill-opacity:1;" d="M 19.21875 3.746094 L 18.058594 3.746094 L 18.058594 5.871094 L 19.21875 5.871094 Z M 19.21875 3.746094 "/>
<path style="fill-rule:nonzero;fill:rgb(85.490196%,0%,4.705882%);fill-opacity:1;stroke-width:1;stroke-linecap:square;stroke-linejoin:miter;stroke:rgb(0%,0%,0%);stroke-opacity:1;stroke-miterlimit:4;" d="M 223 88.625 L 206.8125 88.625 L 206.8125 82.9375 L 194.875 82.9375 L 194.875 88.625 L 186.875 88.625 L 186.875 82.9375 L 182 82.9375 L 182 93.375 L 223 93.375 M 186.875 93.3125 L 221.8125 93.3125 L 221.8125 97.875 L 186.875 97.875 Z M 186.875 93.3125 " transform="matrix(-0.0625,0,0,0.0625,32,0)"/>
<path style="fill-rule:nonzero;fill:rgb(85.490196%,0%,4.705882%);fill-opacity:1;stroke-width:1;stroke-linecap:square;stroke-linejoin:miter;stroke:rgb(0%,0%,0%);stroke-opacity:1;stroke-miterlimit:4;" d="M 200.75 47.625 L 200.75 82.9375 L 206.8125 82.9375 L 206.8125 73.25 C 206.8125 69.5625 209.375 66.625 212.9375 66.4375 C 213.0625 66.4375 213.1875 66.4375 213.25 66.4375 C 217 66.4375 220.0625 69.5 220.0625 73.25 L 220.0625 82.9375 L 225.875 82.9375 L 225.875 47.625 Z M 200.75 47.625 " transform="matrix(-0.0625,0,0,0.0625,32,0)"/>
<path style="fill-rule:nonzero;fill:rgb(85.490196%,0%,4.705882%);fill-opacity:1;stroke-width:1;stroke-linecap:square;stroke-linejoin:miter;stroke:rgb(0%,0%,0%);stroke-opacity:1;stroke-miterlimit:4;" d="M 198.5 42.875 L 198.5 47.625 L 227.75 47.625 L 227.75 42.875 Z M 198.5 42.875 " transform="matrix(-0.0625,0,0,0.0625,32,0)"/>
<path style="fill-rule:nonzero;fill:rgb(85.490196%,0%,4.705882%);fill-opacity:1;stroke-width:1;stroke-linecap:square;stroke-linejoin:miter;stroke:rgb(0%,0%,0%);stroke-opacity:1;stroke-miterlimit:4;" d="M 194.75 33.6875 L 194.75 42.875 L 229.875 42.875 L 229.875 33.6875 L 224.5 33.6875 L 224.5 38.375 L 217.9375 38.375 L 217.9375 33.6875 L 208 33.6875 L 208 38.375 L 201.4375 38.375 L 201.4375 33.6875 Z M 194.75 33.6875 " transform="matrix(-0.0625,0,0,0.0625,32,0)"/>
<path style="fill:none;stroke-width:1;stroke-linecap:square;stroke-linejoin:miter;stroke:rgb(0%,0%,0%);stroke-opacity:1;stroke-miterlimit:4;" d="M 182.0625 159.5625 L 230 159.5625 " transform="matrix(-0.0625,0,0,0.0625,32,0)"/>
<path style="fill-rule:nonzero;fill:rgb(85.490196%,0%,4.705882%);fill-opacity:1;stroke-width:1;stroke-linecap:square;stroke-linejoin:miter;stroke:rgb(0%,0%,0%);stroke-opacity:1;stroke-miterlimit:4;" d="M 261 156.8125 L 228.5625 156.8125 L 218.75 161.5 L 218.75 168.5625 L 261 168.5625 " transform="matrix(-0.0625,0,0,0.0625,32,0)"/>
<path style="fill:none;stroke-width:1;stroke-linecap:butt;stroke-linejoin:miter;stroke:rgb(0%,0%,0%);stroke-opacity:1;stroke-miterlimit:4;" d="M 218.75 161.5 L 262 161.5 " transform="matrix(-0.0625,0,0,0.0625,32,0)"/>
<path style="fill-rule:nonzero;fill:rgb(97.254902%,84.705882%,5.490196%);fill-opacity:1;stroke-width:0.768;stroke-linecap:round;stroke-linejoin:miter;stroke:rgb(0%,0%,0%);stroke-opacity:1;stroke-miterlimit:4;" d="M 273.3125 150 C 270.625 150.9375 268.25 152.375 265.8125 153.8125 C 262.75 155.625 259.75 157.625 256.9375 159.875 C 255.9375 160.5625 255 161.25 254.25 162.125 C 253.1875 163.0625 252.1875 164.1875 252.375 165.6875 C 252.4375 166.3125 253.25 164.9375 253.75 164.875 C 254.75 164.3125 255.875 164.125 256.9375 164.375 C 258.1875 163.0625 259.8125 162.125 261.25 160.9375 C 264.25 158.75 267.5 156.8125 270.75 155 C 271.9375 154.4375 273.0625 153.8125 274.3125 153.375 C 273.9375 152.25 273.625 151.125 273.3125 150 Z M 273.3125 150 " transform="matrix(0.0625,0,0,0.0625,0,0)"/>
<path style="fill:none;stroke-width:1;stroke-linecap:round;stroke-linejoin:miter;stroke:rgb(0%,0%,0%);stroke-opacity:1;stroke-miterlimit:4;" d="M 260.375 157.375 L 260.375 161.3125 " transform="matrix(0.0625,0,0,0.0625,0,0)"/>
<path style="fill:none;stroke-width:1;stroke-linecap:round;stroke-linejoin:miter;stroke:rgb(0%,0%,0%);stroke-opacity:1;stroke-miterlimit:4;" d="M 262.8125 155.6875 L 262.8125 159.5625 " transform="matrix(0.0625,0,0,0.0625,0,0)"/>
<path style="fill:none;stroke-width:1;stroke-linecap:round;stroke-linejoin:miter;stroke:rgb(0%,0%,0%);stroke-opacity:1;stroke-miterlimit:4;" d="M 265.25 154.1875 L 265.25 158.0625 " transform="matrix(0.0625,0,0,0.0625,0,0)"/>
<path style="fill:none;stroke-width:1;stroke-linecap:round;stroke-linejoin:miter;stroke:rgb(0%,0%,0%);stroke-opacity:1;stroke-miterlimit:4;" d="M 267.625 152.6875 L 267.625 156.6875 " transform="matrix(0.0625,0,0,0.0625,0,0)"/>
<path style="fill-rule:nonzero;fill:rgb(97.254902%,84.705882%,5.490196%);fill-opacity:1;stroke-width:0.768;stroke-linecap:round;stroke-linejoin:miter;stroke:rgb(0%,0%,0%);stroke-opacity:1;stroke-miterlimit:4;" d="M 238.875 150.125 C 238.5 151.25 238.125 152.375 237.6875 153.4375 C 243.25 155.5625 248.5 158.375 253.5 161.5 C 255.1875 162.6875 256.9375 163.8125 258.3125 165.375 C 258.5625 166.1875 257.8125 166.875 257 166.625 C 256.25 166.375 255.5 166.0625 254.75 166.625 C 253.625 167.125 252.625 168.75 254.3125 169.3125 C 256.625 170.875 260.4375 170.1875 261.5 167.4375 C 262.125 166.0625 262.125 164.25 261 163.125 C 258.9375 160.75 256.25 159.125 253.625 157.4375 C 248.9375 154.625 244 152.0625 238.875 150.1875 Z M 238.875 150.125 " transform="matrix(0.0625,0,0,0.0625,0,0)"/>
<path style="fill-rule:nonzero;fill:rgb(97.254902%,84.705882%,5.490196%);fill-opacity:1;stroke-width:1;stroke-linecap:round;stroke-linejoin:miter;stroke:rgb(0%,0%,0%);stroke-opacity:1;stroke-miterlimit:4;" d="M 254.0625 158.0625 L 253.75 161.375 " transform="matrix(0.0625,0,0,0.0625,0,0)"/>
<path style="fill-rule:nonzero;fill:rgb(97.254902%,84.705882%,5.490196%);fill-opacity:1;stroke-width:1;stroke-linecap:round;stroke-linejoin:miter;stroke:rgb(0%,0%,0%);stroke-opacity:1;stroke-miterlimit:4;" d="M 256.8125 159.75 L 256 163 " transform="matrix(0.0625,0,0,0.0625,0,0)"/>
<path style="fill-rule:nonzero;fill:rgb(97.254902%,84.705882%,5.490196%);fill-opacity:1;stroke-width:1;stroke-linecap:round;stroke-linejoin:miter;stroke:rgb(0%,0%,0%);stroke-opacity:1;stroke-miterlimit:4;" d="M 259.8125 162 L 258 164.5625 " transform="matrix(0.0625,0,0,0.0625,0,0)"/>
<path style="fill-rule:nonzero;fill:rgb(97.254902%,84.705882%,5.490196%);fill-opacity:1;stroke-width:1;stroke-linecap:round;stroke-linejoin:miter;stroke:rgb(0%,0%,0%);stroke-opacity:1;stroke-miterlimit:4;" d="M 260.6875 168.1875 L 258.125 166.75 " transform="matrix(0.0625,0,0,0.0625,0,0)"/>
<path style="fill-rule:nonzero;fill:rgb(97.254902%,84.705882%,5.490196%);fill-opacity:1;stroke-width:1;stroke-linecap:round;stroke-linejoin:miter;stroke:rgb(0%,0%,0%);stroke-opacity:1;stroke-miterlimit:4;" d="M 261.5 165.4375 L 258.5625 165.6875 " transform="matrix(0.0625,0,0,0.0625,0,0)"/>
<path style="fill-rule:nonzero;fill:rgb(97.254902%,84.705882%,5.490196%);fill-opacity:1;stroke-width:1;stroke-linecap:round;stroke-linejoin:miter;stroke:rgb(0%,0%,0%);stroke-opacity:1;stroke-miterlimit:4;" d="M 257.6875 169.75 L 257.4375 167.125 " transform="matrix(0.0625,0,0,0.0625,0,0)"/>
<path style="fill-rule:nonzero;fill:rgb(97.254902%,84.705882%,5.490196%);fill-opacity:1;stroke-width:1;stroke-linecap:round;stroke-linejoin:miter;stroke:rgb(0%,0%,0%);stroke-opacity:1;stroke-miterlimit:4;" d="M 256.5625 166.75 L 254.125 168.5625 " transform="matrix(0.0625,0,0,0.0625,0,0)"/>
<path style="fill:none;stroke-width:1;stroke-linecap:round;stroke-linejoin:miter;stroke:rgb(0%,0%,0%);stroke-opacity:1;stroke-miterlimit:4;" d="M 244.6875 152.9375 L 244.6875 156.0625 " transform="matrix(0.0625,0,0,0.0625,0,0)"/>
<path style="fill:none;stroke-width:1;stroke-linecap:round;stroke-linejoin:miter;stroke:rgb(0%,0%,0%);stroke-opacity:1;stroke-miterlimit:4;" d="M 250.9375 156.25 L 250.9375 159.75 " transform="matrix(0.0625,0,0,0.0625,0,0)"/>
<path style="fill:none;stroke-width:1;stroke-linecap:round;stroke-linejoin:miter;stroke:rgb(0%,0%,0%);stroke-opacity:1;stroke-miterlimit:4;" d="M 247.8125 154.5625 L 247.8125 157.9375 " transform="matrix(0.0625,0,0,0.0625,0,0)"/>
<path style="fill-rule:nonzero;fill:rgb(97.254902%,84.705882%,5.490196%);fill-opacity:1;stroke-width:1;stroke-linecap:butt;stroke-linejoin:miter;stroke:rgb(0%,0%,0%);stroke-opacity:1;stroke-miterlimit:4;" d="M 235.75 227.5625 L 235.75 235.5625 L 240.8125 235.5625 L 240.8125 231.5625 L 247.625 231.5625 L 247.625 235.5625 L 253.0625 235.5625 L 253.0625 227.5625 Z M 235.75 238.625 L 235.75 246.6875 L 253.0625 246.6875 L 253.0625 238.625 L 247.625 238.625 L 247.625 242.625 L 240.8125 242.625 L 240.8125 238.625 Z M 235.75 238.625 " transform="matrix(0.0625,0,0,0.0625,0,0)"/>
<path style="fill-rule:nonzero;fill:rgb(97.254902%,84.705882%,5.490196%);fill-opacity:1;stroke-width:1;stroke-linecap:butt;stroke-linejoin:miter;stroke:rgb(0%,0%,0%);stroke-opacity:1;stroke-miterlimit:4;" d="M 253.0625 193.625 L 258.0625 193.625 L 258.0625 251.75 L 253.0625 251.75 Z M 253.0625 193.625 " transform="matrix(0.0625,0,0,0.0625,0,0)"/>
<path style="fill-rule:nonzero;fill:rgb(97.254902%,84.705882%,5.490196%);fill-opacity:1;stroke-width:1;stroke-linecap:butt;stroke-linejoin:miter;stroke:rgb(0%,0%,0%);stroke-opacity:1;stroke-miterlimit:4;" d="M 253.0625 198.6875 L 258.0625 198.6875 L 258.0625 248.75 L 253.0625 248.75 Z M 253.0625 198.6875 " transform="matrix(0.0625,0,0,0.0625,0,0)"/>
<path style="fill-rule:nonzero;fill:rgb(97.254902%,84.705882%,5.490196%);fill-opacity:1;stroke-width:1.024;stroke-linecap:butt;stroke-linejoin:miter;stroke:rgb(0%,0%,0%);stroke-opacity:1;stroke-miterlimit:4;" d="M 255.5625 179.375 L 266.1875 185.5625 L 255.5625 191.75 L 244.9375 185.5625 Z M 241.3125 183.375 L 238.5625 183.375 L 238.5625 187.8125 L 241.3125 187.8125 L 255.5625 196.0625 L 269.75 187.8125 L 272.5625 187.8125 L 272.5625 183.375 L 269.75 183.375 L 255.5625 175.125 Z M 241.3125 183.375 " transform="matrix(0.0625,0,0,0.0625,0,0)"/>
<path style="fill-rule:nonzero;fill:rgb(97.254902%,84.705882%,5.490196%);fill-opacity:1;stroke-width:1.024;stroke-linecap:butt;stroke-linejoin:miter;stroke:rgb(0%,0%,0%);stroke-opacity:1;stroke-miterlimit:4;" d="M 255.375 164.25 C 252.9375 164.625 251.125 167 251.25 169.4375 C 251.25 173.125 251.25 176.875 251.25 180.625 C 251.375 183.0625 253.5 185.1875 255.9375 185.1875 C 257.9375 185.375 259.9375 184.25 260.75 182.4375 C 260.1875 182.0625 259.625 181.75 259.0625 181.375 C 258.5625 182.5625 257.3125 183.3125 256.0625 183.1875 C 254.4375 183.25 253.125 181.625 253.25 180.0625 C 253.25 176.3125 253.25 172.625 253.25 168.9375 C 253.375 167.375 254.8125 166.1875 256.3125 166.3125 C 256.9375 166.125 257.8125 167 258.1875 166.25 C 258.75 165.4375 257.75 164.75 257.25 164.3125 C 256.625 164.25 255.9375 164.3125 255.375 164.25 Z M 261.125 168.1875 C 260.75 168.9375 259.9375 169.375 259.25 169.75 L 259.25 177.25 C 259.9375 177.6875 260.5625 178.0625 261.25 178.4375 C 261.25 175.25 261.25 172 261.25 168.8125 C 261.1875 168.625 261.25 168.3125 261.125 168.1875 Z M 261.125 168.1875 " transform="matrix(0.0625,0,0,0.0625,0,0)"/>
<path style=" stroke:none;fill-rule:nonzero;fill:rgb(0%,0%,0%);fill-opacity:1;" d="M 15.050781 2.398438 L 16.882812 2.398438 L 16.882812 5.726562 L 15.050781 5.726562 Z M 15.050781 2.398438 "/>
<path style="fill-rule:nonzero;fill:rgb(85.490196%,0%,4.705882%);fill-opacity:1;stroke-width:1;stroke-linecap:butt;stroke-linejoin:miter;stroke:rgb(0%,0%,0%);stroke-opacity:1;stroke-miterlimit:4;" d="M 238.75 38.375 L 238.75 82.9375 L 248.0625 82.9375 L 248.0625 69.75 C 248.0625 66.6875 250 62.4375 256 62.4375 C 262 62.4375 263.9375 66.6875 263.9375 69.75 L 263.9375 82.9375 L 273.25 82.9375 L 273.25 38.375 Z M 254.5625 43.375 L 257.4375 43.375 L 257.4375 58.625 L 254.5625 58.625 Z M 246.3125 46.375 L 249.1875 46.375 L 249.1875 57.5 L 246.3125 57.5 Z M 262.75 46.375 L 265.6875 46.375 L 265.6875 57.5 L 262.75 57.5 Z M 262.75 46.375 " transform="matrix(0.0625,0,0,0.0625,0,0)"/>
<path style="fill-rule:nonzero;fill:rgb(85.490196%,0%,4.705882%);fill-opacity:1;stroke-width:1;stroke-linecap:butt;stroke-linejoin:miter;stroke:rgb(0%,0%,0%);stroke-opacity:1;stroke-miterlimit:4;" d="M 235.5625 31.9375 L 235.5625 38.3125 L 276.375 38.3125 L 276.375 31.9375 Z M 235.5625 31.9375 " transform="matrix(0.0625,0,0,0.0625,0,0)"/>
<path style="fill-rule:nonzero;fill:rgb(85.490196%,0%,4.705882%);fill-opacity:1;stroke-width:1;stroke-linecap:butt;stroke-linejoin:miter;stroke:rgb(0%,0%,0%);stroke-opacity:1;stroke-miterlimit:4;" d="M 231.75 24.625 L 231.75 31.9375 L 280.25 31.9375 L 280.25 24.625 L 274.125 24.625 L 274.125 28.6875 L 267.25 28.6875 L 267.25 24.625 L 259.4375 24.625 L 259.4375 28.6875 L 252.5625 28.6875 L 252.5625 24.625 L 244.6875 24.625 L 244.6875 28.6875 L 237.8125 28.6875 L 237.8125 24.625 Z M 231.75 24.625 " transform="matrix(0.0625,0,0,0.0625,0,0)"/>
<path style="fill-rule:nonzero;fill:rgb(85.490196%,0%,4.705882%);fill-opacity:1;stroke-width:1;stroke-linecap:butt;stroke-linejoin:miter;stroke:rgb(0%,0%,0%);stroke-opacity:1;stroke-miterlimit:4;" d="M 222.75 97.875 L 222.75 102.4375 L 289.25 102.4375 L 289.25 97.875 Z M 222.75 97.875 " transform="matrix(0.0625,0,0,0.0625,0,0)"/>
<path style="fill-rule:nonzero;fill:rgb(85.490196%,0%,4.705882%);fill-opacity:1;stroke-width:1;stroke-linecap:butt;stroke-linejoin:miter;stroke:rgb(0%,0%,0%);stroke-opacity:1;stroke-miterlimit:4;" d="M 220 82.9375 L 220 97.875 L 291.9375 97.875 L 291.9375 82.9375 L 285.125 82.9375 L 285.125 88.625 L 276.0625 88.625 L 276.0625 82.9375 L 263.9375 82.9375 L 263.9375 88.625 L 248.0625 88.625 L 248.0625 82.9375 L 235.875 82.9375 L 235.875 88.625 L 226.8125 88.625 L 226.8125 82.9375 Z M 220 82.9375 " transform="matrix(0.0625,0,0,0.0625,0,0)"/>
<path style="fill-rule:nonzero;fill:rgb(85.490196%,0%,4.705882%);fill-opacity:1;stroke-width:1;stroke-linecap:butt;stroke-linejoin:round;stroke:rgb(0%,0%,0%);stroke-opacity:1;stroke-miterlimit:4;" d="M 228.6875 102.4375 L 228.6875 156.75 L 241.5 156.75 L 241.5 136.4375 C 241.5 126.875 247.9375 122.375 256 122.375 C 263.75 122.375 270.4375 126.875 270.4375 136.4375 L 270.4375 156.75 L 283.3125 156.75 L 283.3125 102.4375 Z M 228.6875 102.4375 " transform="matrix(0.0625,0,0,0.0625,0,0)"/>
</g>
</svg>
