<?xml version="1.0" encoding="UTF-8"?>
<svg xmlns="http://www.w3.org/2000/svg" xmlns:xlink="http://www.w3.org/1999/xlink" width="24px" height="16px" viewBox="0 0 29 16" version="1.1">
<g id="surface1">
<rect x="0" y="0" width="29" height="16" style="fill:rgb(77.647059%,12.941176%,22.352941%);fill-opacity:1;stroke:none;"/>
<path style=" stroke:none;fill-rule:evenodd;fill:rgb(0%,16.078431%,48.235294%);fill-opacity:1;" d="M 0.707031 0.726562 L 28.292969 0.726562 L 28.292969 15.273438 L 0.707031 15.273438 Z M 0.707031 0.726562 "/>
<path style=" stroke:none;fill-rule:evenodd;fill:rgb(57.254902%,85.882353%,98.823529%);fill-opacity:1;" d="M 14.507812 3.933594 C 14.507812 3.933594 12.085938 5.914062 12.085938 7.972656 C 12.085938 10.03125 14.507812 12.066406 14.507812 12.066406 C 14.507812 12.066406 16.914062 10.179688 16.914062 7.972656 C 16.914062 5.765625 14.507812 3.933594 14.507812 3.933594 Z M 14.507812 3.933594 "/>
<path style=" stroke:none;fill-rule:evenodd;fill:rgb(0%,54.901961%,90.588235%);fill-opacity:1;" d="M 12.351562 9.230469 C 12.984375 10.785156 14.507812 12.066406 14.507812 12.066406 C 14.507812 12.066406 16.058594 10.851562 16.671875 9.230469 "/>
<path style=" stroke:none;fill-rule:evenodd;fill:rgb(61.176471%,51.764706%,19.215686%);fill-opacity:1;" d="M 16.679688 8.78125 C 16.304688 9.054688 14.203125 8.921875 14.203125 8.921875 L 14.085938 9.230469 L 16.589844 9.238281 C 16.597656 9.195312 16.625 9.148438 16.632812 9.105469 Z M 16.679688 8.78125 "/>
<path style=" stroke:none;fill-rule:evenodd;fill:rgb(100%,87.058824%,32.156863%);fill-opacity:1;" d="M 12.917969 10.054688 C 13.027344 10.058594 13.132812 10.082031 13.226562 10.132812 C 13.398438 10.226562 13.496094 10.222656 13.679688 10.226562 C 13.871094 10.230469 14.019531 10.375 14.230469 10.382812 C 14.609375 10.390625 14.773438 10.585938 14.472656 10.585938 C 14.335938 10.585938 14.035156 10.492188 13.886719 10.511719 C 13.667969 10.535156 13.539062 10.550781 13.375 10.683594 C 13.21875 10.492188 13.0625 10.28125 12.917969 10.054688 Z M 13.675781 11.035156 C 13.769531 10.96875 13.835938 10.914062 13.925781 10.910156 C 14.105469 10.90625 14.167969 10.792969 14.375 10.792969 C 14.609375 10.835938 14.925781 10.765625 15.113281 10.722656 C 15.441406 10.644531 15.285156 10.40625 15.085938 10.320312 C 14.925781 10.246094 14.621094 10.316406 14.433594 10.246094 C 14.289062 10.1875 14.40625 10.097656 14.484375 10.078125 C 14.5625 10.0625 14.644531 10.089844 14.742188 10.105469 C 14.914062 10.121094 15.128906 10.105469 15.277344 10.078125 C 15.589844 10.03125 15.578125 9.9375 15.726562 9.933594 C 15.835938 9.929688 15.921875 9.894531 15.996094 9.839844 C 16.085938 9.78125 16.175781 9.65625 16.28125 9.660156 L 16.34375 9.664062 C 15.6875 10.972656 14.507812 11.828125 14.507812 11.828125 C 14.507812 11.828125 14.125 11.527344 13.675781 11.035156 Z M 13.675781 11.035156 "/>
<path style=" stroke:none;fill-rule:evenodd;fill:rgb(54.901961%,25.882353%,0%);fill-opacity:1;" d="M 15.1875 10.078125 C 15.226562 10.238281 15.269531 10.292969 15.433594 10.335938 C 15.597656 10.375 15.847656 10.214844 15.695312 10.054688 C 15.546875 9.90625 15.390625 9.871094 15.257812 9.734375 C 15.054688 9.527344 14.773438 9.09375 14.640625 8.6875 C 14.492188 8.242188 14.519531 6.984375 14.527344 6.347656 C 14.527344 6.339844 14.542969 6.335938 14.546875 6.332031 C 14.554688 6.320312 14.5625 6.335938 14.550781 6.242188 C 14.546875 6.21875 14.527344 6.195312 14.527344 6.171875 C 14.527344 6.128906 14.382812 6.21875 14.34375 6.296875 C 14.335938 6.3125 14.371094 6.363281 14.371094 6.371094 C 14.375 6.984375 14.3125 8.1875 14.46875 8.734375 C 14.566406 9.074219 14.746094 9.335938 14.90625 9.574219 C 15.003906 9.730469 15.144531 9.898438 15.1875 10.078125 Z M 15.1875 10.078125 "/>
<path style=" stroke:none;fill-rule:nonzero;fill:rgb(100%,100%,100%);fill-opacity:1;" d="M 13.378906 8.289062 C 13.375 8.289062 13.367188 8.285156 13.363281 8.285156 C 13.3125 8.28125 13.257812 8.257812 13.21875 8.226562 C 13.160156 8.183594 13.125 8.117188 13.113281 8.03125 C 13.109375 8.007812 13.109375 7.945312 13.113281 7.921875 C 13.121094 7.859375 13.144531 7.800781 13.179688 7.757812 C 13.1875 7.746094 13.207031 7.726562 13.21875 7.71875 C 13.246094 7.695312 13.28125 7.679688 13.320312 7.671875 C 13.347656 7.664062 13.363281 7.660156 13.394531 7.660156 C 13.441406 7.660156 13.472656 7.664062 13.507812 7.675781 C 13.550781 7.691406 13.585938 7.714844 13.609375 7.75 C 13.628906 7.773438 13.648438 7.824219 13.652344 7.847656 C 13.65625 7.859375 13.648438 7.867188 13.636719 7.875 C 13.636719 7.875 13.617188 7.878906 13.601562 7.886719 C 13.5625 7.894531 13.558594 7.894531 13.550781 7.890625 C 13.546875 7.882812 13.542969 7.878906 13.539062 7.867188 C 13.535156 7.859375 13.53125 7.847656 13.527344 7.835938 C 13.519531 7.824219 13.515625 7.820312 13.507812 7.808594 C 13.5 7.800781 13.496094 7.796875 13.480469 7.789062 C 13.449219 7.773438 13.417969 7.769531 13.378906 7.773438 C 13.347656 7.777344 13.316406 7.789062 13.296875 7.804688 C 13.253906 7.839844 13.230469 7.90625 13.230469 7.984375 C 13.234375 8.09375 13.28125 8.152344 13.371094 8.171875 C 13.386719 8.175781 13.425781 8.175781 13.445312 8.171875 C 13.472656 8.164062 13.511719 8.148438 13.535156 8.132812 L 13.542969 8.128906 L 13.542969 8.058594 L 13.398438 8.058594 L 13.394531 8.054688 C 13.390625 8.054688 13.386719 8.050781 13.386719 8.046875 C 13.382812 8.042969 13.382812 8.042969 13.382812 8.003906 C 13.382812 7.960938 13.382812 7.960938 13.386719 7.957031 C 13.390625 7.953125 13.390625 7.949219 13.394531 7.949219 L 13.398438 7.945312 L 13.644531 7.945312 L 13.652344 7.949219 C 13.652344 7.949219 13.65625 7.957031 13.660156 7.957031 L 13.660156 7.964844 L 13.664062 8.070312 C 13.664062 8.179688 13.664062 8.183594 13.65625 8.191406 C 13.652344 8.195312 13.644531 8.203125 13.636719 8.210938 C 13.578125 8.253906 13.515625 8.28125 13.453125 8.285156 C 13.4375 8.289062 13.386719 8.289062 13.378906 8.289062 Z M 14.023438 8.292969 C 13.960938 8.289062 13.910156 8.269531 13.875 8.234375 C 13.839844 8.199219 13.824219 8.15625 13.816406 8.082031 C 13.8125 8.0625 13.8125 8.042969 13.8125 7.878906 C 13.8125 7.699219 13.8125 7.695312 13.816406 7.6875 C 13.816406 7.683594 13.820312 7.679688 13.824219 7.679688 L 13.828125 7.675781 L 13.871094 7.675781 C 13.910156 7.675781 13.914062 7.675781 13.917969 7.675781 C 13.921875 7.679688 13.925781 7.683594 13.929688 7.6875 L 13.933594 7.691406 L 13.933594 7.878906 C 13.933594 8.046875 13.933594 8.074219 13.933594 8.085938 C 13.941406 8.121094 13.945312 8.132812 13.960938 8.148438 C 13.980469 8.167969 14 8.175781 14.039062 8.175781 C 14.074219 8.179688 14.101562 8.175781 14.121094 8.164062 C 14.144531 8.152344 14.15625 8.132812 14.164062 8.089844 C 14.167969 8.074219 14.167969 8.070312 14.167969 7.882812 C 14.171875 7.671875 14.167969 7.6875 14.179688 7.679688 L 14.1875 7.675781 L 14.230469 7.675781 C 14.277344 7.675781 14.277344 7.675781 14.285156 7.6875 L 14.289062 7.691406 L 14.289062 7.863281 C 14.289062 8.03125 14.289062 8.066406 14.285156 8.101562 C 14.273438 8.167969 14.253906 8.210938 14.210938 8.246094 C 14.195312 8.257812 14.191406 8.261719 14.175781 8.269531 C 14.15625 8.28125 14.128906 8.285156 14.101562 8.292969 C 14.085938 8.292969 14.039062 8.292969 14.023438 8.292969 Z M 14.601562 8.285156 C 14.597656 8.285156 14.59375 8.28125 14.59375 8.277344 C 14.585938 8.269531 14.582031 8.265625 14.585938 8.253906 C 14.585938 8.246094 14.796875 7.691406 14.800781 7.683594 C 14.808594 7.675781 14.808594 7.675781 14.859375 7.675781 C 14.90625 7.675781 14.910156 7.675781 14.914062 7.683594 C 14.917969 7.6875 14.96875 7.816406 15.03125 7.972656 C 15.128906 8.21875 15.140625 8.257812 15.140625 8.261719 C 15.140625 8.269531 15.140625 8.277344 15.132812 8.28125 C 15.125 8.285156 15.125 8.285156 15.078125 8.285156 L 15.027344 8.285156 L 15.023438 8.28125 C 15.015625 8.277344 15.015625 8.277344 14.984375 8.191406 C 14.96875 8.152344 14.957031 8.121094 14.957031 8.117188 C 14.957031 8.117188 14.949219 8.117188 14.859375 8.117188 C 14.769531 8.113281 14.761719 8.117188 14.761719 8.117188 C 14.761719 8.117188 14.75 8.152344 14.734375 8.195312 C 14.71875 8.234375 14.707031 8.269531 14.703125 8.273438 C 14.703125 8.277344 14.699219 8.28125 14.695312 8.28125 C 14.691406 8.285156 14.691406 8.285156 14.648438 8.285156 C 14.625 8.285156 14.601562 8.285156 14.601562 8.285156 Z M 14.914062 8 C 14.914062 7.996094 14.859375 7.851562 14.859375 7.847656 C 14.859375 7.847656 14.859375 7.847656 14.855469 7.851562 C 14.855469 7.859375 14.800781 8.003906 14.800781 8.003906 C 14.800781 8.003906 14.828125 8.003906 14.859375 8.007812 L 14.917969 8.007812 Z M 15.359375 8.285156 C 15.351562 8.28125 15.34375 8.273438 15.34375 8.269531 C 15.34375 8.265625 15.339844 8.171875 15.34375 7.976562 L 15.34375 7.691406 L 15.347656 7.683594 C 15.355469 7.675781 15.355469 7.675781 15.421875 7.675781 C 15.476562 7.675781 15.480469 7.675781 15.484375 7.679688 C 15.488281 7.679688 15.492188 7.683594 15.492188 7.6875 C 15.496094 7.6875 15.527344 7.78125 15.5625 7.894531 C 15.597656 8.007812 15.628906 8.097656 15.628906 8.097656 C 15.628906 8.097656 15.660156 8.007812 15.699219 7.894531 C 15.742188 7.769531 15.769531 7.691406 15.769531 7.6875 C 15.777344 7.675781 15.777344 7.675781 15.839844 7.675781 C 15.890625 7.675781 15.894531 7.675781 15.898438 7.679688 C 15.902344 7.679688 15.90625 7.683594 15.90625 7.6875 L 15.910156 7.695312 L 15.910156 7.980469 C 15.910156 8.25 15.910156 8.269531 15.90625 8.273438 C 15.90625 8.277344 15.902344 8.28125 15.898438 8.28125 L 15.894531 8.285156 L 15.851562 8.285156 C 15.808594 8.285156 15.808594 8.285156 15.804688 8.28125 C 15.800781 8.28125 15.796875 8.277344 15.796875 8.273438 L 15.792969 8.269531 L 15.792969 7.941406 L 15.785156 7.960938 C 15.78125 7.972656 15.753906 8.046875 15.730469 8.128906 C 15.679688 8.265625 15.679688 8.273438 15.675781 8.277344 C 15.671875 8.28125 15.667969 8.285156 15.664062 8.285156 C 15.660156 8.285156 15.644531 8.285156 15.625 8.285156 C 15.589844 8.285156 15.589844 8.285156 15.582031 8.28125 C 15.578125 8.28125 15.574219 8.277344 15.574219 8.273438 C 15.570312 8.273438 15.546875 8.195312 15.515625 8.101562 C 15.484375 8.011719 15.460938 7.933594 15.460938 7.933594 C 15.460938 7.933594 15.457031 8.011719 15.457031 8.101562 C 15.457031 8.285156 15.457031 8.273438 15.449219 8.28125 L 15.441406 8.285156 L 15.402344 8.285156 C 15.378906 8.285156 15.359375 8.285156 15.359375 8.285156 Z M 15.359375 8.285156 "/>
<path style=" stroke:none;fill-rule:nonzero;fill:rgb(74.117647%,2.745098%,15.686275%);fill-opacity:1;" d="M 13.375 8.261719 C 13.300781 8.253906 13.238281 8.222656 13.199219 8.171875 C 13.164062 8.132812 13.144531 8.078125 13.136719 8.019531 C 13.132812 8 13.132812 7.953125 13.136719 7.933594 C 13.144531 7.867188 13.167969 7.808594 13.207031 7.765625 C 13.265625 7.695312 13.394531 7.664062 13.496094 7.699219 C 13.5625 7.722656 13.601562 7.761719 13.625 7.832031 C 13.625 7.84375 13.628906 7.851562 13.628906 7.851562 C 13.628906 7.851562 13.574219 7.867188 13.566406 7.867188 C 13.566406 7.867188 13.566406 7.867188 13.5625 7.855469 C 13.550781 7.824219 13.535156 7.796875 13.519531 7.785156 C 13.480469 7.753906 13.425781 7.742188 13.363281 7.75 C 13.324219 7.757812 13.285156 7.777344 13.261719 7.804688 C 13.226562 7.847656 13.210938 7.898438 13.207031 7.960938 C 13.207031 8.027344 13.21875 8.078125 13.242188 8.121094 C 13.285156 8.1875 13.386719 8.214844 13.476562 8.1875 C 13.503906 8.179688 13.535156 8.164062 13.558594 8.148438 L 13.570312 8.140625 L 13.570312 8.035156 L 13.40625 8.035156 L 13.40625 7.96875 L 13.636719 7.96875 L 13.636719 8.175781 L 13.625 8.1875 C 13.574219 8.226562 13.519531 8.25 13.464844 8.261719 C 13.445312 8.265625 13.394531 8.265625 13.375 8.261719 Z M 14.015625 8.269531 C 13.960938 8.261719 13.921875 8.246094 13.890625 8.214844 C 13.867188 8.1875 13.851562 8.15625 13.84375 8.109375 C 13.835938 8.074219 13.835938 8.058594 13.835938 7.875 L 13.835938 7.699219 L 13.90625 7.699219 L 13.910156 7.886719 C 13.910156 8.089844 13.910156 8.085938 13.917969 8.117188 C 13.925781 8.15625 13.953125 8.183594 13.992188 8.195312 C 14.027344 8.207031 14.070312 8.207031 14.105469 8.195312 C 14.148438 8.1875 14.171875 8.160156 14.183594 8.117188 C 14.191406 8.082031 14.191406 8.085938 14.195312 7.882812 L 14.195312 7.699219 L 14.265625 7.699219 L 14.265625 7.871094 C 14.265625 7.96875 14.265625 8.050781 14.261719 8.066406 C 14.257812 8.152344 14.234375 8.199219 14.183594 8.234375 C 14.164062 8.25 14.136719 8.257812 14.105469 8.265625 C 14.09375 8.269531 14.027344 8.269531 14.015625 8.269531 Z M 14.613281 8.253906 C 14.613281 8.246094 14.660156 8.121094 14.71875 7.972656 L 14.820312 7.703125 L 14.859375 7.699219 L 14.894531 7.699219 L 15.003906 7.976562 C 15.066406 8.128906 15.117188 8.257812 15.117188 8.257812 C 15.117188 8.261719 15.113281 8.261719 15.078125 8.261719 L 15.039062 8.261719 L 15.03125 8.242188 C 15.027344 8.230469 15.011719 8.195312 15 8.15625 L 14.972656 8.09375 L 14.859375 8.09375 L 14.742188 8.089844 L 14.714844 8.175781 L 14.683594 8.261719 L 14.609375 8.261719 Z M 14.949219 8.027344 C 14.949219 8.027344 14.933594 7.984375 14.917969 7.933594 C 14.898438 7.882812 14.875 7.820312 14.871094 7.800781 C 14.863281 7.777344 14.855469 7.761719 14.855469 7.757812 C 14.855469 7.757812 14.851562 7.769531 14.851562 7.78125 C 14.839844 7.820312 14.832031 7.847656 14.800781 7.9375 C 14.78125 7.984375 14.765625 8.027344 14.765625 8.027344 C 14.765625 8.03125 14.769531 8.03125 14.859375 8.03125 C 14.945312 8.03125 14.953125 8.03125 14.949219 8.027344 Z M 15.367188 7.980469 L 15.367188 7.699219 L 15.472656 7.699219 L 15.546875 7.925781 C 15.585938 8.046875 15.621094 8.15625 15.625 8.164062 C 15.625 8.175781 15.628906 8.179688 15.628906 8.179688 C 15.628906 8.179688 15.636719 8.152344 15.648438 8.121094 C 15.660156 8.089844 15.695312 7.980469 15.730469 7.882812 L 15.789062 7.703125 L 15.839844 7.703125 L 15.886719 7.699219 L 15.886719 8.261719 L 15.816406 8.261719 L 15.816406 8.027344 C 15.816406 7.894531 15.816406 7.792969 15.816406 7.792969 C 15.816406 7.792969 15.78125 7.890625 15.742188 8.007812 C 15.703125 8.128906 15.667969 8.234375 15.664062 8.242188 L 15.65625 8.261719 L 15.59375 8.261719 L 15.515625 8.023438 C 15.472656 7.894531 15.4375 7.785156 15.4375 7.785156 C 15.4375 7.78125 15.433594 7.890625 15.433594 8.019531 L 15.433594 8.261719 L 15.367188 8.261719 Z M 15.367188 7.980469 "/>
<path style=" stroke:none;fill-rule:evenodd;fill:rgb(6.27451%,58.039216%,12.941176%);fill-opacity:1;" d="M 13.003906 6.167969 C 13.011719 6.179688 13.011719 6.246094 13.011719 6.246094 C 13.019531 6.25 13.15625 6.125 13.15625 6.128906 C 13.15625 6.15625 13.160156 6.210938 13.160156 6.210938 C 13.160156 6.210938 13.300781 6.074219 13.304688 6.085938 C 13.3125 6.101562 13.304688 6.183594 13.304688 6.183594 C 13.304688 6.183594 13.398438 6.078125 13.417969 6.058594 C 13.429688 6.042969 13.429688 6.074219 13.429688 6.125 C 13.429688 6.132812 13.582031 6.007812 13.59375 6.007812 C 13.613281 6 13.617188 6.070312 13.617188 6.089844 C 13.617188 6.101562 13.757812 6.003906 13.753906 6.019531 L 13.765625 6.09375 C 13.804688 6.085938 13.898438 6.050781 13.957031 6.058594 C 13.972656 6.0625 13.972656 6.070312 13.957031 6.078125 C 13.683594 6.195312 13.46875 6.367188 13.347656 6.605469 C 13.304688 6.6875 13.292969 6.761719 13.304688 6.777344 C 13.304688 6.777344 13.351562 6.667969 13.410156 6.652344 C 13.414062 6.648438 13.421875 6.722656 13.429688 6.71875 C 13.429688 6.71875 13.46875 6.609375 13.5 6.566406 C 13.507812 6.554688 13.523438 6.625 13.53125 6.613281 C 13.53125 6.613281 13.554688 6.542969 13.597656 6.492188 C 13.601562 6.484375 13.613281 6.558594 13.621094 6.554688 C 13.664062 6.511719 13.707031 6.40625 13.722656 6.398438 C 13.734375 6.386719 13.738281 6.484375 13.75 6.476562 C 13.75 6.476562 13.8125 6.347656 13.851562 6.320312 C 13.875 6.304688 13.875 6.394531 13.875 6.394531 C 13.921875 6.34375 13.976562 6.261719 14 6.226562 C 14.011719 6.210938 14.003906 6.335938 14.019531 6.339844 C 14.035156 6.347656 14.136719 6.246094 14.148438 6.242188 C 14.15625 6.242188 14.167969 6.273438 14.144531 6.296875 C 14.144531 6.296875 14.015625 6.449219 14.015625 6.449219 C 14.042969 6.453125 14.050781 6.445312 14.070312 6.453125 C 14.121094 6.464844 13.96875 6.554688 13.972656 6.570312 C 13.972656 6.570312 14.046875 6.570312 14.023438 6.585938 C 14.003906 6.597656 13.90625 6.722656 13.90625 6.71875 C 13.90625 6.71875 13.957031 6.71875 13.957031 6.734375 C 13.957031 6.761719 13.875 6.898438 13.875 6.898438 C 13.871094 6.890625 13.917969 6.890625 13.925781 6.90625 C 13.9375 6.929688 13.84375 7.039062 13.859375 7.058594 C 13.863281 7.0625 13.914062 7.058594 13.9375 7.066406 C 13.949219 7.066406 13.976562 7.265625 13.96875 7.257812 C 13.96875 7.257812 14.003906 7.070312 14.023438 7.015625 C 14.039062 6.980469 14.078125 7.066406 14.082031 7.058594 C 14.078125 7.058594 14.074219 6.9375 14.078125 6.882812 C 14.082031 6.867188 14.109375 6.898438 14.109375 6.882812 C 14.109375 6.851562 14.105469 6.816406 14.113281 6.78125 C 14.117188 6.757812 14.144531 6.828125 14.152344 6.808594 C 14.152344 6.808594 14.121094 6.6875 14.136719 6.65625 C 14.144531 6.632812 14.164062 6.710938 14.175781 6.710938 C 14.175781 6.710938 14.167969 6.617188 14.183594 6.59375 L 14.226562 6.640625 C 14.234375 6.625 14.234375 6.480469 14.242188 6.46875 C 14.25 6.457031 14.292969 6.523438 14.300781 6.511719 C 14.304688 6.503906 14.28125 6.394531 14.285156 6.386719 C 14.292969 6.375 14.34375 6.417969 14.34375 6.414062 C 14.363281 6.394531 14.363281 6.34375 14.371094 6.324219 C 14.394531 6.273438 14.519531 6.269531 14.535156 6.304688 C 14.542969 6.320312 14.539062 6.34375 14.535156 6.371094 C 14.535156 6.371094 14.597656 6.378906 14.597656 6.371094 C 14.597656 6.371094 14.589844 6.433594 14.59375 6.5 C 14.597656 6.507812 14.660156 6.496094 14.660156 6.503906 C 14.664062 6.566406 14.652344 6.574219 14.652344 6.574219 C 14.652344 6.578125 14.695312 6.566406 14.695312 6.570312 C 14.699219 6.601562 14.691406 6.640625 14.671875 6.675781 C 14.667969 6.679688 14.730469 6.667969 14.730469 6.675781 C 14.738281 6.722656 14.742188 6.757812 14.734375 6.824219 C 14.734375 6.832031 14.792969 6.777344 14.796875 6.785156 C 14.804688 6.839844 14.792969 6.898438 14.800781 6.957031 C 14.800781 6.96875 14.839844 6.917969 14.84375 6.933594 C 14.847656 6.949219 14.835938 7.058594 14.839844 7.0625 C 14.839844 7.0625 14.90625 7.0625 14.914062 7.066406 C 14.964844 7.117188 14.957031 7.207031 14.957031 7.207031 C 14.972656 7.195312 14.964844 7.089844 14.949219 6.992188 C 14.949219 6.980469 15 6.984375 15 6.972656 C 15 6.972656 14.941406 6.9375 14.921875 6.839844 C 14.917969 6.816406 14.980469 6.820312 14.980469 6.820312 C 14.960938 6.78125 14.933594 6.777344 14.910156 6.738281 C 14.902344 6.726562 14.972656 6.71875 14.972656 6.714844 C 14.972656 6.679688 14.910156 6.660156 14.882812 6.621094 C 14.867188 6.605469 14.945312 6.605469 14.945312 6.605469 C 14.921875 6.570312 14.847656 6.558594 14.808594 6.515625 C 14.789062 6.492188 14.886719 6.46875 14.882812 6.464844 C 14.875 6.429688 14.785156 6.421875 14.738281 6.382812 C 14.730469 6.375 14.796875 6.347656 14.796875 6.347656 C 14.789062 6.332031 14.644531 6.234375 14.71875 6.242188 C 14.75 6.246094 14.8125 6.292969 14.816406 6.285156 C 14.816406 6.285156 14.816406 6.230469 14.820312 6.222656 C 14.847656 6.195312 14.929688 6.332031 14.957031 6.324219 C 14.957031 6.324219 14.96875 6.230469 14.980469 6.226562 C 15.011719 6.21875 15.046875 6.367188 15.078125 6.367188 C 15.082031 6.367188 15.085938 6.28125 15.101562 6.277344 C 15.117188 6.273438 15.136719 6.375 15.160156 6.394531 C 15.179688 6.417969 15.179688 6.316406 15.191406 6.335938 C 15.214844 6.367188 15.21875 6.429688 15.246094 6.457031 C 15.265625 6.476562 15.265625 6.371094 15.289062 6.382812 C 15.3125 6.402344 15.304688 6.457031 15.332031 6.480469 C 15.34375 6.496094 15.351562 6.414062 15.367188 6.425781 C 15.378906 6.433594 15.386719 6.535156 15.402344 6.550781 C 15.417969 6.574219 15.441406 6.5 15.457031 6.511719 C 15.46875 6.519531 15.46875 6.605469 15.480469 6.625 C 15.503906 6.664062 15.515625 6.578125 15.53125 6.589844 C 15.542969 6.601562 15.570312 6.699219 15.578125 6.707031 C 15.601562 6.726562 15.613281 6.664062 15.632812 6.671875 C 15.644531 6.679688 15.671875 6.808594 15.679688 6.804688 C 15.6875 6.800781 15.703125 6.507812 15.59375 6.386719 C 15.417969 6.183594 15.097656 6.070312 14.835938 6.066406 C 14.835938 6.066406 14.96875 6.039062 14.972656 6.015625 C 14.980469 5.972656 15.042969 5.976562 15.089844 5.988281 C 15.097656 5.992188 15.09375 5.910156 15.09375 5.910156 C 15.132812 5.910156 15.171875 5.933594 15.210938 5.957031 C 15.222656 5.964844 15.183594 5.878906 15.199219 5.882812 C 15.246094 5.914062 15.300781 5.921875 15.335938 5.957031 C 15.34375 5.96875 15.324219 5.890625 15.324219 5.890625 C 15.351562 5.882812 15.398438 5.921875 15.417969 5.957031 C 15.429688 5.972656 15.417969 5.867188 15.425781 5.886719 C 15.425781 5.886719 15.511719 5.914062 15.523438 5.953125 C 15.523438 5.953125 15.527344 5.886719 15.539062 5.886719 C 15.574219 5.898438 15.605469 5.957031 15.632812 5.964844 C 15.632812 5.964844 15.621094 5.90625 15.628906 5.910156 C 15.695312 5.925781 15.765625 5.96875 15.765625 5.964844 C 15.730469 5.871094 15.589844 5.773438 15.34375 5.746094 C 15.300781 5.742188 15.117188 5.734375 14.960938 5.769531 C 14.835938 5.800781 14.734375 5.820312 14.753906 5.796875 C 14.839844 5.714844 14.976562 5.703125 15.011719 5.683594 C 15.039062 5.667969 14.921875 5.621094 14.945312 5.617188 C 14.96875 5.609375 15.074219 5.601562 15.074219 5.601562 C 15.09375 5.582031 14.996094 5.546875 15.011719 5.523438 C 15.042969 5.46875 15.214844 5.515625 15.230469 5.496094 C 15.234375 5.492188 15.15625 5.441406 15.160156 5.433594 C 15.171875 5.40625 15.328125 5.453125 15.328125 5.429688 C 15.328125 5.429688 15.28125 5.394531 15.25 5.367188 C 15.246094 5.363281 15.386719 5.324219 15.386719 5.324219 C 15.386719 5.320312 15.363281 5.304688 15.332031 5.292969 C 15.300781 5.28125 15.457031 5.238281 15.457031 5.238281 C 15.257812 5.144531 14.75 5.40625 14.648438 5.679688 C 14.625 5.746094 14.625 5.675781 14.628906 5.617188 C 14.632812 5.558594 14.640625 5.507812 14.636719 5.453125 C 14.632812 5.4375 14.59375 5.496094 14.589844 5.480469 C 14.582031 5.421875 14.609375 5.359375 14.597656 5.296875 C 14.59375 5.273438 14.539062 5.359375 14.53125 5.335938 C 14.511719 5.277344 14.546875 5.195312 14.535156 5.113281 C 14.527344 5.082031 14.476562 5.183594 14.460938 5.152344 C 14.441406 5.121094 14.449219 4.996094 14.441406 4.980469 C 14.433594 4.964844 14.390625 5.039062 14.386719 5.023438 C 14.324219 4.800781 14.40625 4.769531 14.289062 4.898438 C 14.285156 4.902344 14.261719 4.765625 14.257812 4.769531 C 14.207031 4.875 14.132812 4.695312 14.105469 4.710938 C 14.085938 4.722656 14.160156 4.792969 14.160156 4.824219 C 14.160156 4.839844 14.089844 4.839844 14.089844 4.839844 C 14.09375 4.867188 14.222656 4.9375 14.226562 4.964844 C 14.230469 4.988281 14.132812 4.984375 14.132812 4.984375 C 14.136719 5.015625 14.246094 5.046875 14.25 5.078125 C 14.253906 5.097656 14.199219 5.101562 14.203125 5.121094 C 14.203125 5.148438 14.304688 5.207031 14.308594 5.234375 C 14.3125 5.253906 14.246094 5.261719 14.242188 5.28125 C 14.242188 5.304688 14.375 5.382812 14.378906 5.402344 C 14.378906 5.433594 14.324219 5.417969 14.296875 5.433594 C 14.265625 5.457031 14.410156 5.542969 14.414062 5.566406 C 14.421875 5.589844 14.355469 5.570312 14.355469 5.589844 C 14.351562 5.617188 14.425781 5.65625 14.445312 5.699219 C 14.460938 5.746094 14.441406 5.757812 14.417969 5.738281 C 14.371094 5.703125 14.171875 5.488281 14.121094 5.429688 C 14.046875 5.347656 13.890625 5.253906 13.734375 5.25 C 13.71875 5.253906 13.816406 5.328125 13.820312 5.351562 C 13.820312 5.359375 13.773438 5.371094 13.777344 5.371094 C 13.804688 5.398438 13.890625 5.433594 13.890625 5.433594 L 13.863281 5.480469 C 13.871094 5.492188 13.910156 5.496094 13.976562 5.519531 C 13.976562 5.519531 13.925781 5.550781 13.929688 5.550781 C 13.964844 5.582031 14.03125 5.601562 14.03125 5.601562 L 13.964844 5.625 C 13.960938 5.636719 14.113281 5.699219 14.113281 5.699219 C 14.113281 5.699219 14.066406 5.742188 14.070312 5.742188 C 14.082031 5.753906 14.191406 5.78125 14.191406 5.78125 C 14.195312 5.785156 14.113281 5.808594 14.113281 5.808594 C 14.144531 5.839844 14.222656 5.851562 14.242188 5.898438 C 14.242188 5.898438 14.253906 5.929688 14.222656 5.921875 C 14.097656 5.875 13.902344 5.777344 13.523438 5.816406 C 13.136719 5.867188 12.84375 6.214844 12.851562 6.25 C 12.851562 6.25 12.988281 6.144531 13.003906 6.167969 Z M 13.003906 6.167969 "/>
<path style=" stroke:none;fill-rule:evenodd;fill:rgb(54.901961%,25.882353%,0%);fill-opacity:1;" d="M 14.46875 6.148438 C 14.441406 6.105469 14.390625 6.09375 14.351562 6.117188 C 14.3125 6.140625 14.304688 6.195312 14.328125 6.238281 C 14.355469 6.277344 14.40625 6.292969 14.445312 6.265625 C 14.484375 6.242188 14.492188 6.1875 14.46875 6.148438 Z M 14.46875 6.148438 "/>
<path style=" stroke:none;fill-rule:evenodd;fill:rgb(54.901961%,25.882353%,0%);fill-opacity:1;" d="M 14.457031 6.21875 C 14.484375 6.171875 14.542969 6.15625 14.585938 6.1875 C 14.628906 6.214844 14.640625 6.277344 14.613281 6.324219 C 14.582031 6.371094 14.523438 6.386719 14.480469 6.359375 C 14.4375 6.328125 14.425781 6.265625 14.457031 6.21875 Z M 14.457031 6.21875 "/>
<path style=" stroke:none;fill-rule:evenodd;fill:rgb(54.901961%,25.882353%,0%);fill-opacity:1;" d="M 14.339844 6.296875 C 14.371094 6.246094 14.433594 6.230469 14.480469 6.261719 C 14.527344 6.289062 14.539062 6.355469 14.507812 6.40625 C 14.476562 6.457031 14.414062 6.472656 14.367188 6.441406 C 14.320312 6.410156 14.308594 6.347656 14.339844 6.296875 Z M 14.339844 6.296875 "/>
<path style=" stroke:none;fill-rule:evenodd;fill:rgb(0%,0%,0%);fill-opacity:1;" d="M 13.660156 9.582031 L 13.785156 9.582031 L 13.785156 9.675781 L 13.660156 9.675781 Z M 13.660156 9.582031 "/>
<path style=" stroke:none;fill-rule:evenodd;fill:rgb(54.901961%,25.882353%,0%);fill-opacity:1;" d="M 13.046875 9.640625 C 13.046875 9.640625 13.851562 9.703125 14.347656 9.59375 C 14.347656 9.59375 14.390625 9.625 14.328125 9.695312 C 14.269531 9.765625 14.117188 9.78125 14.035156 9.796875 C 14.035156 9.796875 14.015625 9.84375 14.019531 9.867188 C 14.019531 9.890625 14.070312 9.890625 14.09375 9.882812 L 14.121094 9.878906 C 14.121094 9.878906 14.109375 9.96875 13.804688 9.980469 C 13.703125 9.984375 13.371094 9.992188 13.300781 9.890625 C 13.300781 9.890625 13.363281 9.894531 13.378906 9.890625 C 13.394531 9.886719 13.382812 9.820312 13.375 9.8125 C 13.371094 9.800781 13.164062 9.8125 13.054688 9.707031 C 13.027344 9.679688 13.011719 9.644531 13.011719 9.636719 C 13.011719 9.632812 13.046875 9.640625 13.046875 9.640625 Z M 13.46875 9.816406 C 13.46875 9.816406 13.6875 9.84375 13.941406 9.816406 C 13.941406 9.816406 13.949219 9.863281 13.9375 9.882812 C 13.925781 9.902344 13.632812 9.917969 13.484375 9.890625 C 13.460938 9.882812 13.460938 9.851562 13.46875 9.816406 Z M 13.46875 9.816406 "/>
<path style=" stroke:none;fill-rule:evenodd;fill:rgb(99.215686%,97.647059%,100%);fill-opacity:1;" d="M 13.160156 9.601562 C 13.160156 9.601562 13.457031 9.273438 13.367188 8.589844 C 13.367188 8.589844 13.679688 8.671875 13.996094 9.144531 C 13.996094 9.144531 14.089844 9.242188 14.199219 9.582031 Z M 13.160156 9.601562 "/>
<path style=" stroke:none;fill-rule:evenodd;fill:rgb(77.647059%,12.941176%,22.352941%);fill-opacity:1;" d="M 14.507812 3.695312 C 14.507812 3.695312 11.945312 5.65625 11.945312 7.972656 C 11.945312 10.285156 14.507812 12.304688 14.507812 12.304688 C 14.507812 12.304688 17.054688 10.453125 17.054688 7.972656 C 17.054688 5.492188 14.507812 3.695312 14.507812 3.695312 Z M 14.507812 4.171875 C 14.507812 4.171875 12.226562 5.917969 12.226562 7.976562 C 12.226562 10.035156 14.507812 11.828125 14.507812 11.828125 C 14.507812 11.828125 16.773438 10.183594 16.773438 7.976562 C 16.773438 5.769531 14.507812 4.171875 14.507812 4.171875 Z M 14.507812 4.171875 "/>
</g>
</svg>
