<?xml version="1.0" encoding="UTF-8"?>
<svg xmlns="http://www.w3.org/2000/svg" xmlns:xlink="http://www.w3.org/1999/xlink" width="24px" height="16px" viewBox="0 0 32 16" version="1.1">
<defs>
<clipPath id="clip1">
  <path d="M 0 0 L 16 0 L 16 8 L 0 8 Z M 0 0 "/>
</clipPath>
<clipPath id="clip2">
  <path d="M 0 0 L 16 0 L 16 8 L 0 8 Z M 0 0 "/>
</clipPath>
<clipPath id="clip3">
  <path d="M 0 0 L 0 4 L 16 4 L 16 8 Z M 16 0 L 8 0 L 8 8 L 0 8 Z M 16 0 "/>
</clipPath>
</defs>
<g id="surface1">
<rect x="0" y="0" width="32" height="16" style="fill:rgb(0.392157%,12.941176%,41.176471%);fill-opacity:1;stroke:none;"/>
<path style=" stroke:none;fill-rule:nonzero;fill:rgb(0%,0%,0%);fill-opacity:1;" d="M 0 0 L 16 8 M 16 0 L 0 8 "/>
<g clip-path="url(#clip1)" clip-rule="nonzero">
<path style="fill:none;stroke-width:0.6;stroke-linecap:butt;stroke-linejoin:miter;stroke:rgb(100%,100%,100%);stroke-opacity:1;stroke-miterlimit:4;" d="M 0 0 L 6 3 M 6 0 L 0 3 " transform="matrix(2.666667,0,0,2.666667,0,0)"/>
</g>
<g clip-path="url(#clip2)" clip-rule="nonzero">
<g clip-path="url(#clip3)" clip-rule="nonzero">
<path style="fill-rule:nonzero;fill:rgb(0%,0%,0%);fill-opacity:1;stroke-width:0.4;stroke-linecap:butt;stroke-linejoin:miter;stroke:rgb(89.411765%,0%,16.862745%);stroke-opacity:1;stroke-miterlimit:4;" d="M 0 0 L 6 3 M 6 0 L 0 3 " transform="matrix(2.666667,0,0,2.666667,0,0)"/>
</g>
</g>
<path style="fill-rule:nonzero;fill:rgb(0%,0%,0%);fill-opacity:1;stroke-width:840;stroke-linecap:butt;stroke-linejoin:miter;stroke:rgb(100%,100%,100%);stroke-opacity:1;stroke-miterlimit:4;" d="M 2520 0 L 2520 2520 M 0 1260 L 5040 1260 " transform="matrix(0.0031746,0,0,0.0031746,0,0)"/>
<path style="fill-rule:nonzero;fill:rgb(0%,0%,0%);fill-opacity:1;stroke-width:504;stroke-linecap:butt;stroke-linejoin:miter;stroke:rgb(89.411765%,0%,16.862745%);stroke-opacity:1;stroke-miterlimit:4;" d="M 2520 0 L 2520 2520 M 0 1260 L 5040 1260 " transform="matrix(0.0031746,0,0,0.0031746,0,0)"/>
<path style=" stroke:none;fill-rule:nonzero;fill:rgb(100%,100%,100%);fill-opacity:1;" d="M 8 9.601562 L 8.460938 11.039062 L 9.875 10.503906 L 9.039062 11.761719 L 10.339844 12.535156 L 8.832031 12.664062 L 9.042969 14.164062 L 8 13.066406 L 6.957031 14.164062 L 7.167969 12.664062 L 5.660156 12.535156 L 6.960938 11.761719 L 6.125 10.503906 L 7.539062 11.039062 Z M 8 9.601562 "/>
<path style=" stroke:none;fill-rule:nonzero;fill:rgb(100%,100%,100%);fill-opacity:1;" d="M 24 12.191406 L 24.21875 12.875 L 24.894531 12.621094 L 24.496094 13.21875 L 25.113281 13.585938 L 24.398438 13.648438 L 24.496094 14.363281 L 24 13.839844 L 23.503906 14.363281 L 23.601562 13.648438 L 22.886719 13.585938 L 23.503906 13.21875 L 23.105469 12.621094 L 23.78125 12.875 Z M 24 12.191406 "/>
<path style=" stroke:none;fill-rule:nonzero;fill:rgb(100%,100%,100%);fill-opacity:1;" d="M 20 5.855469 L 20.21875 6.542969 L 20.894531 6.289062 L 20.496094 6.886719 L 21.113281 7.253906 L 20.398438 7.316406 L 20.496094 8.03125 L 20 7.507812 L 19.503906 8.03125 L 19.601562 7.316406 L 18.886719 7.253906 L 19.503906 6.886719 L 19.105469 6.289062 L 19.78125 6.542969 Z M 20 5.855469 "/>
<path style=" stroke:none;fill-rule:nonzero;fill:rgb(100%,100%,100%);fill-opacity:1;" d="M 24 1.523438 L 24.21875 2.210938 L 24.894531 1.953125 L 24.496094 2.554688 L 25.113281 2.921875 L 24.398438 2.984375 L 24.496094 3.695312 L 24 3.175781 L 23.503906 3.695312 L 23.601562 2.984375 L 22.886719 2.921875 L 23.503906 2.554688 L 23.105469 1.953125 L 23.78125 2.210938 Z M 24 1.523438 "/>
<path style=" stroke:none;fill-rule:nonzero;fill:rgb(100%,100%,100%);fill-opacity:1;" d="M 27.554688 4.789062 L 27.777344 5.476562 L 28.449219 5.222656 L 28.050781 5.820312 L 28.667969 6.1875 L 27.953125 6.25 L 28.050781 6.964844 L 27.554688 6.441406 L 27.058594 6.964844 L 27.160156 6.25 L 26.441406 6.1875 L 27.058594 5.820312 L 26.660156 5.222656 L 27.335938 5.476562 Z M 27.554688 4.789062 "/>
<path style=" stroke:none;fill-rule:nonzero;fill:rgb(100%,100%,100%);fill-opacity:1;" d="M 25.601562 8 L 25.773438 8.425781 L 26.234375 8.460938 L 25.882812 8.757812 L 25.992188 9.207031 L 25.601562 8.964844 L 25.207031 9.207031 L 25.316406 8.757812 L 24.964844 8.460938 L 25.425781 8.425781 Z M 25.601562 8 "/>
</g>
</svg>
