<?xml version="1.0" encoding="UTF-8"?>
<svg xmlns="http://www.w3.org/2000/svg" xmlns:xlink="http://www.w3.org/1999/xlink" width="24px" height="16px" viewBox="0 0 32 16" version="1.1">
<g id="surface1">
<rect x="0" y="0" width="32" height="16" style="fill:rgb(5.098039%,23.137255%,60%);fill-opacity:1;stroke:none;"/>
<path style=" stroke:none;fill-rule:nonzero;fill:rgb(100%,100%,100%);fill-opacity:1;" d="M 32 5.332031 L 0 5.332031 L 0 10.667969 L 32 10.667969 Z M 32 5.332031 "/>
<path style=" stroke:none;fill-rule:nonzero;fill:rgb(5.098039%,23.137255%,60%);fill-opacity:1;" d="M 16 7.109375 L 16.523438 8.71875 L 15.15625 7.726562 L 16.84375 7.726562 L 15.476562 8.71875 Z M 16 7.109375 "/>
<path style=" stroke:none;fill-rule:nonzero;fill:rgb(5.098039%,23.137255%,60%);fill-opacity:1;" d="M 11.554688 5.777344 L 12.078125 7.386719 L 10.710938 6.394531 L 12.402344 6.394531 L 11.03125 7.386719 Z M 11.554688 5.777344 "/>
<path style=" stroke:none;fill-rule:nonzero;fill:rgb(5.098039%,23.137255%,60%);fill-opacity:1;" d="M 11.554688 8.445312 L 12.078125 10.054688 L 10.710938 9.058594 L 12.402344 9.058594 L 11.03125 10.054688 Z M 11.554688 8.445312 "/>
<path style=" stroke:none;fill-rule:nonzero;fill:rgb(5.098039%,23.137255%,60%);fill-opacity:1;" d="M 20.445312 5.777344 L 20.96875 7.386719 L 19.597656 6.394531 L 21.289062 6.394531 L 19.921875 7.386719 Z M 20.445312 5.777344 "/>
<path style=" stroke:none;fill-rule:nonzero;fill:rgb(5.098039%,23.137255%,60%);fill-opacity:1;" d="M 20.445312 8.445312 L 20.96875 10.054688 L 19.597656 9.058594 L 21.289062 9.058594 L 19.921875 10.054688 Z M 20.445312 8.445312 "/>
</g>
</svg>
