<?xml version="1.0" encoding="UTF-8"?>
<svg xmlns="http://www.w3.org/2000/svg" xmlns:xlink="http://www.w3.org/1999/xlink" width="24px" height="16px" viewBox="0 0 32 16" version="1.1">
<g id="surface1">
<rect x="0" y="0" width="32" height="16" style="fill:rgb(81.176471%,7.843137%,16.862745%);fill-opacity:1;stroke:none;"/>
<path style="fill-rule:nonzero;fill:rgb(97.647059%,86.666667%,8.627451%);fill-opacity:1;stroke-width:1;stroke-linecap:butt;stroke-linejoin:miter;stroke:rgb(0%,0%,0%);stroke-opacity:1;stroke-miterlimit:4;" d="M 225.980831 126.36283 C 226.195314 126.567245 228.811222 128.172838 228.878194 128.100126 C 228.942906 127.956987 235.754061 126.392471 235.756322 126.462896 C 235.691611 126.606035 231.885492 131.102797 232.095454 131.166362 C 232.238443 131.302639 236.057056 135.829518 236.12855 135.897657 C 236.197784 135.89537 228.970365 135.288124 228.970365 135.288124 L 224.103133 139.114937 L 223.042555 134.144443 C 223.042555 134.144443 217.011594 131.946663 216.942361 131.94895 C 216.801633 131.883098 222.082867 130.157622 222.082867 130.157622 L 223.682558 126.015751 C 223.682558 126.015751 225.706158 126.442404 225.980831 126.36283 Z M 225.980831 126.36283 " transform="matrix(0.0563616,0.0018304,-0.0018096,0.0554075,-0.7736,-1.661173)"/>
<path style="fill-rule:nonzero;fill:rgb(100%,100%,100%);fill-opacity:1;stroke-width:1.3;stroke-linecap:butt;stroke-linejoin:miter;stroke:rgb(0%,0%,0%);stroke-opacity:1;stroke-miterlimit:4;" d="M 314.45512 136.200636 C 314.457917 131.970518 306.148919 112.78689 304.736253 109.80204 C 302.209067 106.642506 299.482362 101.586052 298.301407 97.183539 C 297.605086 92.765015 295.207323 89.319205 291.910386 88.088612 C 288.034708 86.101633 284.247216 86.861257 280.653857 87.191466 C 278.865092 87.603061 277.369088 88.498487 276.514276 89.936734 C 274.594689 92.749665 273.477909 92.504556 272.131678 93.747537 C 261.028046 95.453856 250.537934 101.158432 242.555194 105.088166 C 238.283929 108.049285 234.733532 109.717583 233.083234 110.124603 C 228.5093 110.134703 225.252202 107.986289 223.690625 106.839369 L 208.341884 92.893831 C 203.93861 89.584774 202.843904 94.344466 203.699579 95.091703 C 205.119029 98.287831 201.923844 100.226396 214.142648 111.666816 L 218.742643 121.102912 C 218.742643 121.102912 218.480138 123.720099 218.692361 123.85409 C 220.87198 129.140118 224.433683 127.823949 226.117036 126.28783 L 229.68466 122.997453 C 229.68466 122.997453 236.890866 120.785382 236.953316 120.571818 C 244.681197 121.656033 264.451722 117.90089 267.729708 116.382593 C 270.657003 114.734879 270.840693 116.13882 273.336759 114.011849 C 275.50927 112.600572 274.299245 113.768552 278.273225 110.18275 C 279.485511 109.085195 280.442075 110.816105 280.688216 112.006481 C 280.907011 123.138321 282.245385 130.28515 283.294983 141.389544 L 299.997274 150.002835 Z M 314.45512 136.200636 " transform="matrix(0.0563616,0.0018304,-0.0018096,0.0554075,-0.7736,-1.661173)"/>
<path style=" stroke:none;fill-rule:nonzero;fill:rgb(97.647059%,86.666667%,8.627451%);fill-opacity:1;" d="M 11.320312 4.40625 C 11.328125 4.414062 11.144531 4.933594 11.144531 4.933594 C 11.144531 4.933594 11 4.78125 11 4.777344 L 11.125 4.226562 Z M 11.320312 4.40625 "/>
<path style="fill:none;stroke-width:1.13;stroke-linecap:butt;stroke-linejoin:miter;stroke:rgb(0%,0%,0%);stroke-opacity:1;stroke-miterlimit:4;" d="M 217.919908 101.953975 C 217.801791 102.592381 217.199902 105.432282 216.947841 106.216113 C 216.767274 107.068083 216.517474 107.922341 216.408402 108.84245 C 216.160863 109.767133 216.042747 110.405538 215.725974 111.332509 C 215.614641 112.182192 215.431813 112.963736 215.251246 113.815706 M 213.344249 97.593106 C 213.418005 97.73167 213.652839 98.569918 213.670929 99.133323 C 213.550551 99.701304 213.408424 101.750511 213.223335 102.46163 C 213.040507 103.243174 212.857679 104.024719 212.746346 104.874402 C 212.56578 105.726372 212.445402 106.294352 212.195602 107.148609 C 212.151241 107.92558 212.035385 108.634411 211.850296 109.34553 " transform="matrix(0.0563616,0.0018304,-0.0018096,0.0554075,-0.7736,-1.661173)"/>
<path style="fill:none;stroke-width:1;stroke-linecap:butt;stroke-linejoin:miter;stroke:rgb(0%,0%,0%);stroke-opacity:1;stroke-miterlimit:4;" d="M 262.243455 96.612212 C 265.836277 100.582547 266.9466 107.102407 266.300351 110.719277 M 248.376844 120.194439 L 248.443817 120.121726 C 248.247422 120.480716 248.379106 120.264864 248.005804 119.431191 C 247.643809 118.949647 247.296779 116.775598 247.950674 115.555489 C 248.209519 114.982935 248.595525 114.053678 248.923603 113.478836 C 248.986053 113.265272 249.258465 113.115272 249.323176 112.972133 M 222.788328 106.798676 L 222.721356 106.871389 L 222.46025 107.373518 C 222.134433 108.018785 221.670149 108.668626 221.409043 109.170755 C 221.083226 109.816022 220.545186 110.3273 220.219368 110.972567 C 219.822057 111.549696 219.431528 112.338101 219.034217 112.91523 C 218.641427 113.63321 218.172621 114.1422 217.782092 114.930606 C 217.454014 115.505448 217.186125 115.796299 216.791074 116.443854 L 217.782092 114.930606 C 217.454014 115.505448 217.186125 115.796299 216.791074 116.443854 M 209.785344 94.679157 C 209.856839 94.747296 210.091673 95.585543 210.176735 96.076236 C 210.056357 96.644216 209.981202 98.620711 209.793852 99.261404 C 209.677997 99.970235 209.562141 100.679067 209.448547 101.458324 C 209.265719 102.239869 209.212314 102.735136 208.962514 103.589393 C 208.915892 104.295938 208.867009 104.932056 208.68192 105.643175 M 225.421252 117.568762 C 224.561055 116.680674 224.085465 116.978386 223.529336 116.926258 C 222.910756 117.087694 221.816587 117.546842 220.742769 118.639823 C 220.340934 119.0761 220.006073 119.439664 219.465772 119.880516 C 219.202404 120.312219 218.996965 120.389506 218.729076 120.680357 M 288.504377 87.778127 L 288.437405 87.85084 C 288.633799 87.49185 288.432882 87.709989 288.669978 88.618662 C 288.90029 89.316058 288.913857 89.738612 289.211141 90.363295 M 275.447241 91.240992 C 275.380268 91.313705 275.254295 100.341921 275.638902 101.527722 C 275.730748 102.229692 275.958798 102.856662 276.057427 103.76991 C 276.075516 104.333316 276.158317 104.753583 276.243378 105.244276 C 276.540663 105.868959 276.558752 106.432365 276.920748 106.913909 C 277.079565 107.543166 277.5642 107.527156 277.861484 108.151839 C 278.221218 108.562958 278.869193 109.317056 279.224405 109.587324 M 269.172305 115.982434 C 268.890849 115.850731 268.180425 115.310197 267.546017 114.978652 C 266.840115 114.57897 265.182171 112.589228 265.067715 111.183 " transform="matrix(0.0563616,0.0018304,-0.0018096,0.0554075,-0.7736,-1.661173)"/>
<path style="fill:none;stroke-width:1;stroke-linecap:butt;stroke-linejoin:miter;stroke:rgb(0%,0%,0%);stroke-opacity:1;stroke-miterlimit:4;" d="M 275.89861 103.140653 C 275.89861 103.140653 274.958736 104.088207 273.483083 105.617465 C 271.529579 107.374009 266.291306 110.437574 265.677249 110.739862 C 265.060931 110.971723 264.319713 111.630713 263.698873 111.721723 C 263.015582 112.026298 262.325508 112.119595 261.706929 112.281031 C 260.880649 112.449328 260.192837 112.613051 259.638969 112.631348 C 257.792275 113.397358 248.079234 113.083727 247.520844 112.961173 C 246.966976 112.97947 246.410847 112.927342 245.854717 112.875213 C 245.374605 113.032075 244.818476 112.979946 244.195374 113.00053 C 243.500778 112.952976 243.020666 113.109838 242.397564 113.130422 C 241.921974 113.428135 241.097956 113.666858 240.488421 114.109996 C 239.735897 114.416858 239.262568 114.784997 238.717745 115.084997 C 238.177444 115.525848 230.625933 119.93484 230.284288 120.087127 C 229.464791 120.466701 226.65109 121.335157 225.893182 119.315683 C 225.729842 118.545574 225.356541 117.711901 225.33619 117.078069 C 225.105878 116.380673 225.219473 115.601416 225.268356 114.965297 C 225.921389 111.559704 227.055396 110.182734 227.314241 109.610179 L 227.640058 108.964912 M 297.861133 96.422579 L 297.796422 96.565717 C 297.992817 96.206727 297.930367 96.420292 297.463821 96.999707 C 296.921259 97.370133 296.318508 98.024549 295.914413 98.390401 C 295.443345 98.828965 295.048295 99.476519 294.637416 99.631094 C 294.240104 100.208222 293.690758 100.367371 293.145935 100.667371 C 292.529617 100.899233 291.846326 101.203807 291.303764 101.574233 C 290.484268 101.953807 289.943967 102.394659 289.195965 102.842372 C 288.72942 103.421788 288.256091 103.789926 287.863302 104.507907 C 287.468251 105.155461 287.070939 105.73259 286.67815 106.45057 L 285.763148 108.172807 L 286.67815 106.45057 L 285.763148 108.172807 M 291.564028 144.218393 L 291.695711 144.002541 C 291.432344 144.434244 291.566289 144.288818 291.749117 143.507274 C 291.788955 142.589452 291.960477 141.455779 292.004838 140.678809 C 292.11391 139.7587 292.292215 138.836304 292.265082 137.991196 C 292.231164 136.93481 292.271003 136.016988 292.100879 135.035602 C 292.071484 134.120068 291.970595 133.136395 291.9412 132.22086 C 291.914066 131.375752 291.889193 130.601069 291.654359 129.762821 C 291.631747 129.058564 291.604613 128.213455 291.439012 127.372921 C 291.55939 126.804941 291.331339 126.177971 291.246278 125.687278 C 291.006921 124.708179 290.919598 124.14706 290.611008 123.170249 C 290.456713 122.681843 290.364868 121.979873 290.130033 121.141625 C 290.038188 120.439655 289.58887 119.396992 289.430052 118.767735 C 289.206524 118.281616 288.978473 117.654646 288.89115 117.093528 C 288.66536 116.536983 288.368076 115.9123 288.209259 115.283043 C 287.987991 114.86735 287.757679 114.169954 287.458133 113.474845 C 287.232344 112.918301 287.071265 112.218618 286.778503 111.734787 C 286.548191 111.037391 286.250906 110.412708 286.092089 109.78345 C 285.80611 109.510896 285.797066 109.229193 285.651815 109.02249 " transform="matrix(0.0563616,0.0018304,-0.0018096,0.0554075,-0.7736,-1.661173)"/>
<path style="fill-rule:nonzero;fill:rgb(97.647059%,86.666667%,8.627451%);fill-opacity:1;stroke-width:1;stroke-linecap:butt;stroke-linejoin:miter;stroke:rgb(0%,0%,0%);stroke-opacity:1;stroke-miterlimit:4;" d="M 289.879466 91.751225 C 289.040482 93.682453 286.843961 96.504532 286.846222 96.574958 L 284.759636 100.662413 C 283.862724 102.948056 284.445987 103.845294 284.814766 104.538115 C 285.623819 105.991897 285.787159 106.762006 286.446439 107.868233 C 286.630129 109.272173 284.218262 109.704352 284.15129 109.777065 C 279.010783 111.568393 276.427068 106.648216 276.420285 106.436939 C 275.713521 103.851771 275.838421 103.424643 277.414963 102.879058 C 279.203729 102.467464 279.896064 102.444592 280.775749 101.781028 C 282.468147 100.526612 283.663742 96.750592 283.730715 96.677879 C 283.728453 96.607454 283.937553 94.485533 283.937553 94.485533 C 284.113597 93.492712 283.599567 92.593187 284.101429 90.955098 C 284.813252 89.380574 285.217347 89.014722 286.807457 88.891692 C 288.87994 88.682226 290.450561 90.110849 289.879466 91.751225 Z M 289.879466 91.751225 " transform="matrix(0.0563616,0.0018304,-0.0018096,0.0554075,-0.7736,-1.661173)"/>
<path style="fill-rule:nonzero;fill:rgb(97.647059%,86.666667%,8.627451%);fill-opacity:1;stroke-width:1;stroke-linecap:butt;stroke-linejoin:miter;stroke:rgb(0%,0%,0%);stroke-opacity:1;stroke-miterlimit:4;" d="M 225.949747 126.350768 C 226.192595 126.607669 228.817094 128.158009 228.840357 128.062024 C 228.960076 127.987682 235.794623 126.434475 235.734763 126.471646 C 235.711501 126.567632 231.874244 131.070493 232.043896 131.209765 C 232.236811 131.253051 236.065916 135.806223 236.102513 135.865037 C 236.19897 135.88668 228.924958 135.266573 228.924958 135.266573 L 224.11972 139.147416 L 223.054394 134.10113 C 223.054394 134.10113 217.007361 131.985245 216.910904 131.963602 C 216.837709 131.845973 222.082413 130.138444 222.082413 130.138444 L 223.684703 126.044943 C 223.684703 126.044943 225.67371 126.440638 225.949747 126.350768 Z M 225.949747 126.350768 " transform="matrix(-0.029748,0.0470691,-0.0479058,-0.0292889,31.973694,-2.52832)"/>
<path style="fill-rule:nonzero;fill:rgb(100%,100%,100%);fill-opacity:1;stroke-width:1.3;stroke-linecap:butt;stroke-linejoin:miter;stroke:rgb(0%,0%,0%);stroke-opacity:1;stroke-miterlimit:4;" d="M 314.485616 136.197332 C 314.498064 131.949509 306.129393 112.765646 304.745208 109.874328 C 302.226797 106.627305 299.488506 101.559854 298.3568 97.207111 C 297.597589 92.786141 295.185563 89.309975 291.866007 88.109703 C 288.034086 86.086029 284.28588 86.86428 280.690583 87.221419 C 278.924568 87.584195 277.368211 88.550643 276.513725 89.978195 C 274.575242 92.731196 273.514211 92.493119 272.140841 93.75364 C 261.059058 95.416496 250.5535 101.20625 242.535386 105.12522 C 238.312004 108.073966 234.703668 109.743846 233.03411 110.128266 C 228.557362 110.135815 225.217655 107.969572 223.667522 106.812108 L 208.375254 92.906062 C 203.894506 89.572943 202.827843 94.39386 203.676104 95.090221 C 205.146819 98.253968 201.974245 100.224035 214.093051 111.697526 L 218.721372 121.136066 C 218.721372 121.136066 218.442519 123.755433 218.672032 123.857534 C 220.858249 129.104725 224.433395 127.781616 226.106065 126.335241 L 229.70077 123.04302 C 229.70077 123.04302 236.817873 120.743573 236.960856 120.573245 C 244.624105 121.685511 264.449431 117.936344 267.685273 116.334691 C 270.66834 114.726922 270.788356 116.120121 273.382186 114.020194 C 275.500545 112.62322 274.306755 113.772227 278.283882 110.160994 C 279.454409 109.107973 280.419279 110.791947 280.645679 111.956004 C 280.884078 123.142064 282.255815 130.281205 283.2758 141.389626 L 300.003818 150.000943 Z M 314.485616 136.197332 " transform="matrix(-0.029748,0.0470691,-0.0479058,-0.0292889,31.973694,-2.52832)"/>
<path style=" stroke:none;fill-rule:nonzero;fill:rgb(97.647059%,86.666667%,8.627451%);fill-opacity:1;" d="M 20.59375 4.730469 C 20.582031 4.734375 20.214844 4.316406 20.214844 4.316406 C 20.214844 4.316406 20.421875 4.269531 20.425781 4.273438 L 20.847656 4.652344 Z M 20.59375 4.730469 "/>
<path style="fill:none;stroke-width:1.13;stroke-linecap:butt;stroke-linejoin:miter;stroke:rgb(0%,0%,0%);stroke-opacity:1;stroke-miterlimit:4;" d="M 217.886008 101.922056 C 217.783031 102.556783 217.241476 105.42082 216.995516 106.225875 C 216.786155 107.089745 216.576793 107.953614 216.367431 108.817483 C 216.134807 109.777338 216.03183 110.412065 215.702749 111.350277 C 215.649704 112.198619 215.463605 112.966502 215.254243 113.830372 M 213.348512 97.564153 C 213.421707 97.681781 213.658034 98.595053 213.674777 99.155438 C 213.595063 99.69418 213.395924 101.774805 213.173227 102.483875 C 212.987128 103.251758 212.897486 104.041286 212.747984 104.867984 C 212.538623 105.731853 212.458908 106.270595 212.189686 107.171636 C 212.159904 107.923992 211.997068 108.59589 211.810968 109.363774 " transform="matrix(-0.029748,0.0470691,-0.0479058,-0.0292889,31.973694,-2.52832)"/>
<path style="fill:none;stroke-width:1;stroke-linecap:butt;stroke-linejoin:miter;stroke:rgb(0%,0%,0%);stroke-opacity:1;stroke-miterlimit:4;" d="M 262.236697 96.642186 C 265.796285 100.628857 266.921767 107.105512 266.253972 110.700261 M 248.378831 120.250889 L 248.461953 120.117732 C 248.272446 120.480031 248.378831 120.250889 248.022784 119.411959 C 247.633546 118.919801 247.290538 116.76813 247.942182 115.548078 C 248.178213 114.993808 248.567155 114.018425 248.899644 113.485799 C 248.946169 113.293828 249.245468 113.107973 249.328591 112.974816 M 222.812741 106.772118 L 222.729618 106.905275 L 222.456989 107.40073 C 222.101238 108.029342 221.649029 108.63631 221.353137 109.227751 C 221.057245 109.819191 220.568439 110.367346 220.212687 110.995957 C 219.820338 111.565755 219.477921 112.349166 219.025712 112.956135 C 218.610101 113.621918 218.181154 114.132901 217.778878 114.953483 C 217.446389 115.48611 217.160424 115.826765 216.804673 116.455377 L 217.778878 114.953483 C 217.446389 115.48611 217.160424 115.826765 216.804673 116.455377 M 209.785813 94.639438 C 209.859008 94.757067 210.118598 95.574353 210.135341 96.134738 C 210.055626 96.67348 209.99947 98.583777 209.800035 99.196861 C 209.613936 99.964745 209.547557 100.658287 209.457915 101.447814 C 209.271815 102.215698 209.192101 102.75444 208.946142 103.559495 C 208.97622 104.27468 208.813383 104.946578 208.710406 105.581306 M 225.382563 117.570461 C 224.580826 116.68213 224.042087 117.01667 223.499941 116.945624 C 222.911269 117.06655 221.820456 117.580829 220.746386 118.655494 C 220.340701 119.070491 219.994877 119.448318 219.469473 119.937657 C 219.183509 120.278313 219.040527 120.44864 218.741227 120.634496 M 288.493406 87.757772 L 288.410284 87.890929 C 288.599791 87.52863 288.456809 87.698958 288.633277 88.6494 C 288.879532 89.311886 288.88294 89.717472 289.189054 90.342787 M 275.45299 91.207659 C 275.369868 91.340816 275.265258 100.375205 275.647976 101.523734 C 275.774511 102.260562 275.984168 102.864234 276.064179 103.793033 C 276.044324 104.294604 276.180787 104.780647 276.220792 105.245047 C 276.526907 105.870362 276.60351 106.393576 276.896289 106.864091 C 277.046087 107.504934 277.588234 107.575979 277.857751 108.14248 C 278.210391 108.575824 278.842475 109.324884 279.278237 109.625071 M 269.102056 115.944155 C 268.872544 115.842054 268.134075 115.322137 267.505398 114.978663 C 266.840123 114.576374 265.186717 112.586097 265.066702 111.192898 " transform="matrix(-0.029748,0.0470691,-0.0479058,-0.0292889,31.973694,-2.52832)"/>
<path style="fill:none;stroke-width:1;stroke-linecap:butt;stroke-linejoin:miter;stroke:rgb(0%,0%,0%);stroke-opacity:1;stroke-miterlimit:4;" d="M 275.914381 103.15219 C 275.854521 103.189362 274.983293 104.056528 273.443679 105.583361 C 271.521643 107.429206 266.263899 110.449476 265.688563 110.725201 C 265.016769 110.979283 264.288523 111.676122 263.663254 111.738233 C 262.99146 111.992315 262.306331 112.091597 261.6578 112.249694 C 260.852951 112.423318 260.20442 112.581414 259.63901 112.606354 C 257.756684 113.449058 248.078053 113.099038 247.535906 113.027993 C 246.993759 112.956947 246.42835 112.981887 245.886203 112.910842 C 245.393989 113.053411 244.851842 112.982365 244.226573 113.044476 C 243.491512 112.930144 242.999297 113.072713 242.410626 113.193638 C 241.895149 113.432192 241.067038 113.701802 240.468439 114.073513 C 239.736785 114.364766 239.271241 114.816935 238.755765 115.055489 C 238.193763 115.486014 230.661344 119.918785 230.265588 120.082997 C 229.450811 120.507407 226.617246 121.288478 225.878481 119.301019 C 225.715348 118.505376 225.395898 117.725261 225.342558 117.106062 C 225.119565 116.34759 225.245805 115.616877 225.252324 114.960507 C 225.933454 111.520557 227.017452 110.195107 227.313343 109.603666 L 227.669095 108.975054 M 297.881033 96.442523 L 297.79791 96.57568 C 297.987417 96.213381 297.940893 96.405352 297.392226 96.990678 C 296.986542 97.405675 296.378016 98.028171 295.875874 98.421525 C 295.47019 98.836523 295.054579 99.502306 294.658822 99.666518 C 294.229875 100.177501 293.737661 100.320069 293.198922 100.654609 C 292.490531 100.849877 291.855334 101.162773 291.256735 101.534484 C 290.441959 101.958894 289.976415 102.411062 289.161639 102.835472 C 288.70943 103.44244 288.267149 103.798623 287.851537 104.464406 C 287.435925 105.130189 287.043576 105.699987 286.664562 106.424584 L 285.776887 108.198906 L 286.664562 106.424584 L 285.776887 108.198906 M 291.591284 144.216922 L 291.697669 143.98778 C 291.4849 144.446064 291.568022 144.312907 291.754121 143.545023 C 291.770568 142.637867 291.95326 141.464398 292.006304 140.616056 C 292.155806 139.789358 292.291973 138.80786 292.285157 137.99669 C 292.228409 136.971905 292.208259 136.005934 292.091651 135.018321 C 292.108098 134.111165 291.99149 133.123551 291.948077 132.253566 C 291.904664 131.383581 291.837989 130.609582 291.698118 129.717953 C 291.644778 129.098754 291.601365 128.228769 291.438232 127.433126 C 291.541209 126.798399 291.331552 126.194727 291.195089 125.708684 C 291.018622 124.758241 290.905421 124.176213 290.632496 123.204127 C 290.459436 122.65927 290.369498 121.981256 290.109908 121.16397 C 290.043233 120.38997 289.613991 119.433412 289.464193 118.792569 C 289.231273 118.284883 288.985018 117.622397 288.908415 117.099183 C 288.638898 116.532682 288.332783 115.907367 288.219583 115.325338 C 287.986663 114.817652 287.740408 114.155166 287.457555 113.433865 C 287.224635 112.926179 287.03824 112.226522 286.80532 111.718835 C 286.522468 110.997535 286.25295 110.431034 286.066555 109.731377 C 285.860305 109.53329 285.773775 109.260862 285.627385 109.025604 " transform="matrix(-0.029748,0.0470691,-0.0479058,-0.0292889,31.973694,-2.52832)"/>
<path style="fill-rule:nonzero;fill:rgb(97.647059%,86.666667%,8.627451%);fill-opacity:1;stroke-width:1;stroke-linecap:butt;stroke-linejoin:miter;stroke:rgb(0%,0%,0%);stroke-opacity:1;stroke-miterlimit:4;" d="M 289.874479 91.711046 C 289.036737 93.698982 286.882076 96.504682 286.822216 96.541853 L 284.750974 100.681938 C 283.843444 102.957831 284.429004 103.898861 284.831576 104.54582 C 285.650056 105.994536 285.813189 106.790179 286.412084 107.886009 C 286.628557 109.300852 284.177413 109.76291 284.177413 109.76291 C 279.065764 111.550897 276.437265 106.659889 276.447192 106.409104 C 275.751544 103.824089 275.807996 103.381333 277.404359 102.879284 C 279.193636 102.420522 279.8921 102.47604 280.813261 101.822488 C 282.499265 100.530912 283.682536 96.697609 283.682536 96.697609 C 283.705799 96.601623 283.964797 94.483827 283.964797 94.483827 C 284.100964 93.502329 283.611861 92.582942 284.10378 90.972832 C 284.788613 89.406008 285.194297 88.991011 286.794067 88.894548 C 288.886051 88.655516 290.462855 90.122579 289.874479 91.711046 Z M 289.874479 91.711046 " transform="matrix(-0.029748,0.0470691,-0.0479058,-0.0292889,31.973694,-2.52832)"/>
<path style="fill-rule:nonzero;fill:rgb(97.647059%,86.666667%,8.627451%);fill-opacity:1;stroke-width:1;stroke-linecap:butt;stroke-linejoin:miter;stroke:rgb(0%,0%,0%);stroke-opacity:1;stroke-miterlimit:4;" d="M 225.972458 126.318547 C 226.15567 126.573768 228.823724 128.159176 228.85636 128.098074 C 228.921632 127.975871 235.767324 126.376166 235.702052 126.498369 C 235.669416 126.55947 231.904568 131.06557 232.090931 131.165334 C 232.277294 131.265098 236.016262 135.780955 236.140504 135.847464 C 236.202625 135.880719 228.930413 135.287793 228.930413 135.287793 L 224.142143 139.167462 L 223.082707 134.121705 C 223.082707 134.121705 217.034909 131.984209 216.910667 131.917699 C 216.848546 131.884445 222.095972 130.136306 222.095972 130.136306 L 223.655073 126.020871 C 223.655073 126.020871 225.688186 126.402087 225.972458 126.318547 Z M 225.972458 126.318547 " transform="matrix(-0.0266136,-0.0488995,0.0497154,-0.0261186,16.390226,25.786693)"/>
<path style="fill-rule:nonzero;fill:rgb(100%,100%,100%);fill-opacity:1;stroke-width:1.3;stroke-linecap:butt;stroke-linejoin:miter;stroke:rgb(0%,0%,0%);stroke-opacity:1;stroke-miterlimit:4;" d="M 314.469952 136.214061 C 314.492908 131.983448 306.121641 112.809126 304.769607 109.806759 C 302.22782 106.638927 299.504846 101.56694 298.338049 97.170861 C 297.579765 92.757751 295.201159 89.284412 291.896139 88.143746 C 288.044634 86.081958 284.260653 86.884919 280.675639 87.165813 C 278.878406 87.539446 277.382325 88.545726 276.536939 89.978909 C 274.597684 92.712255 273.502688 92.518943 272.160334 93.686088 C 261.07263 95.4507 250.501028 101.184488 242.572045 105.11146 C 238.305951 108.013504 234.722064 109.787874 233.052223 110.072559 C 228.561728 110.104447 225.213493 107.99778 223.666769 106.855499 L 208.3447 92.917512 C 203.890891 89.590431 202.78982 94.34392 203.653213 95.1204 C 205.158974 98.283633 201.980448 100.196428 214.087978 111.627885 L 218.700018 121.089735 C 218.700018 121.089735 218.489573 123.727109 218.675936 123.826873 C 220.892489 129.099196 224.404802 127.757945 226.067215 126.2907 L 229.712098 123.056109 C 229.712098 123.056109 236.854665 120.751032 236.952573 120.567727 C 244.653331 121.704351 264.416596 117.905299 267.713062 116.369928 C 270.666286 114.729386 270.794805 116.133913 273.348969 114.044028 C 275.544137 112.626261 274.29654 113.765559 278.294117 110.169767 C 279.476442 109.152672 280.448322 110.77295 280.674749 111.994173 C 280.85639 123.170099 282.25074 130.280876 283.249408 141.42274 L 299.998908 149.996222 Z M 314.469952 136.214061 " transform="matrix(-0.0266136,-0.0488995,0.0497154,-0.0261186,16.390226,25.786693)"/>
<path style=" stroke:none;fill-rule:nonzero;fill:rgb(97.647059%,86.666667%,8.627451%);fill-opacity:1;" d="M 15.675781 12.464844 C 15.679688 12.453125 16.230469 12.347656 16.230469 12.347656 C 16.230469 12.347656 16.167969 12.546875 16.164062 12.546875 L 15.621094 12.714844 Z M 15.675781 12.464844 "/>
<path style="fill:none;stroke-width:1.13;stroke-linecap:butt;stroke-linejoin:miter;stroke:rgb(0%,0%,0%);stroke-opacity:1;stroke-miterlimit:4;" d="M 217.927324 101.897324 C 217.787327 102.608103 217.227338 105.451221 216.959948 106.250949 C 216.754679 107.083931 216.516773 107.978015 216.373625 108.844253 C 216.13572 109.738337 216.028359 110.388015 215.725182 111.404302 C 215.61467 112.209437 215.442037 112.981318 215.236767 113.814301 M 213.368178 97.570987 C 213.459784 97.698598 213.630392 98.575651 213.650424 99.13638 C 213.575699 99.724956 213.439979 101.773754 213.205225 102.51238 C 213.032592 103.284261 212.859959 104.056142 212.749447 104.861278 C 212.544177 105.69426 212.469452 106.282837 212.169426 107.143666 C 212.153671 107.920955 212.013674 108.631734 211.841041 109.403615 " transform="matrix(-0.0266136,-0.0488995,0.0497154,-0.0261186,16.390226,25.786693)"/>
<path style="fill:none;stroke-width:1;stroke-linecap:butt;stroke-linejoin:miter;stroke:rgb(0%,0%,0%);stroke-opacity:1;stroke-miterlimit:4;" d="M 262.210841 96.610013 C 265.802384 100.65409 266.928218 107.071119 266.257717 110.719372 M 248.387795 120.246305 L 248.453067 120.124102 C 248.257251 120.490711 248.387795 120.246305 248.027673 119.424946 C 247.628612 118.975605 247.35897 116.788381 247.94957 115.533095 C 248.181173 114.949927 248.575956 114.06125 248.902317 113.450235 C 249.000225 113.26693 249.222375 113.150135 249.320283 112.96683 M 222.820257 106.795205 L 222.493897 107.406221 C 222.134901 108.078338 221.684298 108.622844 221.390574 109.172758 C 221.031578 109.844875 220.518855 110.356127 220.254615 111.000397 C 219.804013 111.544903 219.474502 112.311376 219.053384 112.950239 C 218.599631 113.650203 218.181665 114.133607 217.757396 114.927927 C 217.431036 115.538943 217.143614 115.777941 216.846739 116.483313 L 217.757396 114.927927 C 217.431036 115.538943 217.143614 115.777941 216.846739 116.483313 M 209.816699 94.64837 C 209.846184 94.742726 210.11155 95.591932 210.164218 96.09156 C 210.089493 96.680136 210.019045 98.60673 209.754805 99.251001 C 209.614808 99.96178 209.536932 100.705814 209.459056 101.449848 C 209.286423 102.221729 209.182213 102.715949 208.976944 103.548932 C 208.931704 104.231864 208.824343 104.881542 208.684345 105.592321 M 225.397159 117.524773 C 224.566403 116.687191 224.089466 116.981883 223.524075 116.993507 C 222.926047 117.066232 221.847933 117.589107 220.727729 118.639457 C 220.309762 119.122862 219.989704 119.422962 219.476981 119.934213 C 219.219043 120.267568 219.059014 120.417618 218.771592 120.656616 M 288.513243 87.747115 L 288.447971 87.869318 C 288.643788 87.502709 288.451122 87.713861 288.683852 88.624168 C 288.890247 89.284661 288.91343 89.689933 289.214582 90.322579 M 275.413584 91.184716 C 275.348312 91.306919 275.260311 100.295621 275.643616 101.522252 C 275.755254 102.210592 275.96165 102.871086 276.037501 103.775985 C 276.057533 104.336715 276.175473 104.714139 276.195505 105.274869 C 276.529293 105.846414 276.611446 106.440398 276.915749 106.917586 C 277.060023 107.544825 277.530658 107.561048 277.864446 108.132593 C 278.201385 108.54868 278.845779 109.286499 279.215354 109.641484 M 269.134418 115.952225 C 268.853298 115.880308 268.143632 115.264693 267.551907 115.026502 C 266.83909 114.566345 265.183879 112.580266 265.05536 111.175738 " transform="matrix(-0.0266136,-0.0488995,0.0497154,-0.0261186,16.390226,25.786693)"/>
<path style="fill:none;stroke-width:1;stroke-linecap:butt;stroke-linejoin:miter;stroke:rgb(0%,0%,0%);stroke-opacity:1;stroke-miterlimit:4;" d="M 275.893227 103.148746 C 275.893227 103.148746 274.995173 104.082301 273.457003 105.616056 C 271.536653 107.416656 266.293504 110.502813 265.630204 110.697741 C 265.058511 111.02028 264.323637 111.648327 263.72561 111.721052 C 263.029674 111.977082 262.33689 112.077654 261.67359 112.272583 C 260.886049 112.401002 260.222749 112.59593 259.595237 112.574299 C 257.78855 113.414306 248.062107 113.079026 247.561987 112.968446 C 246.996596 112.98007 246.431205 112.991694 245.836328 112.908961 C 245.395179 112.987094 244.862423 112.937616 244.202275 112.977087 C 243.480005 112.983303 243.038856 113.061436 242.408192 113.195263 C 241.901771 113.395599 241.078442 113.740577 240.506749 114.063116 C 239.778177 114.380248 239.29809 114.830398 238.696912 115.058581 C 238.216824 115.508731 230.592144 119.912891 230.242601 120.118635 C 229.481393 120.496868 226.638681 121.332275 225.895254 119.284286 C 225.754131 118.501589 225.361372 117.741332 225.311855 117.086246 C 225.138096 116.364652 225.215972 115.620617 225.261212 114.937685 C 225.958047 111.539246 226.989796 110.205827 227.316156 109.594812 L 227.642516 108.983796 M 297.850534 96.438451 L 297.785262 96.560654 C 297.981078 96.194045 297.945291 96.410604 297.462052 97.016212 C 296.95248 97.372006 296.374484 98.00546 295.927033 98.394509 C 295.446946 98.844659 295.025828 99.483521 294.614164 99.65601 C 294.258319 100.17267 293.689776 100.339751 293.21284 100.634443 C 292.516904 100.890473 291.88309 101.179758 291.27876 101.563398 C 290.484917 102.002733 289.942708 102.419628 289.181501 102.797861 C 288.698262 103.403469 288.250811 103.792517 287.859179 104.525736 C 287.438061 105.164598 287.04958 105.742359 286.690584 106.414476 L 285.744139 108.186421 L 286.690584 106.414476 L 285.744139 108.186421 M 291.575653 144.229928 L 291.706197 143.985522 C 291.477745 144.413233 291.543017 144.29103 291.777771 143.552404 C 291.796677 142.619657 292.008249 141.475759 291.961883 140.665216 C 292.105031 139.798979 292.280815 138.87164 292.299721 137.938894 C 292.194385 136.939638 292.213291 136.006891 292.107955 135.007636 C 292.032104 134.102736 291.988889 133.136735 291.913038 132.231835 C 291.899308 131.360191 291.820306 130.610749 291.649697 129.733696 C 291.662301 129.111865 291.58645 128.206966 291.445327 127.424269 C 291.552688 126.774591 291.375778 126.208454 291.228353 125.736673 C 290.966139 124.73201 290.85135 124.199127 290.651257 123.227718 C 290.474347 122.661581 290.362709 121.973241 290.064707 121.185137 C 290.018341 120.374593 289.628734 119.458878 289.422339 118.798385 C 289.212793 118.293349 289.006398 117.632856 288.891608 117.099973 C 288.714698 116.533836 288.318789 115.929037 288.236636 115.335053 C 288.02709 114.830017 287.758574 114.136269 287.457421 113.503623 C 287.21839 112.904231 287.011995 112.243737 286.802449 111.738702 C 286.533933 111.044954 286.23278 110.412307 286.088506 109.785069 C 285.843173 109.496592 285.816839 109.246778 285.663112 109.085913 " transform="matrix(-0.0266136,-0.0488995,0.0497154,-0.0261186,16.390226,25.786693)"/>
<path style="fill-rule:nonzero;fill:rgb(97.647059%,86.666667%,8.627451%);fill-opacity:1;stroke-width:1;stroke-linecap:butt;stroke-linejoin:miter;stroke:rgb(0%,0%,0%);stroke-opacity:1;stroke-miterlimit:4;" d="M 289.908492 91.715483 C 289.021018 93.67614 286.892248 96.465181 286.859612 96.526282 L 284.79724 100.686595 C 283.841343 102.924913 284.449949 103.879291 284.813222 104.545192 C 285.664011 105.943503 285.772498 106.787301 286.41059 107.836035 C 286.60123 109.273817 284.205969 109.720176 284.173333 109.781277 C 279.050149 111.595926 276.418781 106.651549 276.392447 106.401735 C 275.753229 103.859526 275.824803 103.426407 277.406189 102.858654 C 279.203422 102.48502 279.863571 102.44555 280.787958 101.761809 C 282.476705 100.544378 283.653627 96.695788 283.686263 96.634687 C 283.718899 96.573585 283.949376 94.496941 283.949376 94.496941 C 284.095675 93.475246 283.611311 92.587378 284.146091 90.987922 C 284.83775 89.393874 285.22308 88.971571 286.795012 88.87019 C 288.902851 88.66283 290.505394 90.149282 289.908492 91.715483 Z M 289.908492 91.715483 " transform="matrix(-0.0266136,-0.0488995,0.0497154,-0.0261186,16.390226,25.786693)"/>
<path style="fill-rule:nonzero;fill:rgb(97.647059%,86.666667%,8.627451%);fill-opacity:1;stroke-width:1.3;stroke-linecap:butt;stroke-linejoin:miter;stroke:rgb(0%,0%,0%);stroke-opacity:1;stroke-miterlimit:4;" d="M 304.639158 169.378107 C 302.876664 168.449325 301.485211 168.283791 300.875676 168.72693 C 299.790226 162.981753 298.912476 157.229715 297.619325 151.4914 C 286.732112 146.986532 284.411227 145.935196 280.826051 144.361623 C 282.455999 143.320772 283.322117 142.234653 283.294983 141.389544 C 288.765292 143.394344 294.168629 145.471857 299.837595 147.188093 C 309.172486 140.041171 311.204268 138.564042 314.388147 136.273349 C 314.45146 138.245269 314.976795 139.496922 315.680436 139.826179 C 311.228605 143.639269 306.700756 147.243368 302.394176 151.263161 C 303.948758 162.985376 304.168627 165.516128 304.639158 169.378107 Z M 304.639158 169.378107 " transform="matrix(0.0563616,0.0018304,-0.0018096,0.0554075,-0.7736,-1.661173)"/>
</g>
</svg>
