<?xml version="1.0" encoding="UTF-8"?>
<svg xmlns="http://www.w3.org/2000/svg" xmlns:xlink="http://www.w3.org/1999/xlink" width="24px" height="16px" viewBox="0 0 28 16" version="1.1">
<g id="surface1">
<rect x="0" y="0" width="28" height="16" style="fill:rgb(85.490196%,0%,0%);fill-opacity:1;stroke:none;"/>
<path style=" stroke:none;fill-rule:nonzero;fill:rgb(100%,100%,100%);fill-opacity:1;" d="M 0 0 L 28 0 L 28 10.667969 L 0 10.667969 Z M 0 0 "/>
<path style=" stroke:none;fill-rule:nonzero;fill:rgb(13.72549%,62.352941%,25.098039%);fill-opacity:1;" d="M 0 0 L 28 0 L 28 5.332031 L 0 5.332031 Z M 0 0 "/>
<path style="fill:none;stroke-width:2;stroke-linecap:butt;stroke-linejoin:miter;stroke:rgb(100%,100%,100%);stroke-opacity:1;stroke-miterlimit:4;" d="M 0.0267857 0.983817 L 26.017299 0.983817 M 1.03125 10.023996 L 1.03125 5.001674 L 9.004185 5.001674 L 9.004185 9.019531 L 16.977121 9.019531 L 16.977121 5.001674 L 12.017578 5.001674 M 3.981864 9.019531 L 5.990792 9.019531 M 26.017299 9.019531 L 20.994978 9.019531 L 20.994978 5.001674 L 29.030692 5.001674 M 29.030692 -0.0206473 L 29.030692 9.019531 L 37.003627 9.019531 L 37.003627 -0.0206473 M 32.98577 -0.0206473 L 32.98577 9.019531 " transform="matrix(0.0622222,0,0,0.0622222,0.373333,4.462222)"/>
<path style="fill:none;stroke-width:2;stroke-linecap:butt;stroke-linejoin:miter;stroke:rgb(100%,100%,100%);stroke-opacity:1;stroke-miterlimit:4;" d="M 0.0133929 6.989537 L 8.990792 6.989537 M 9.995257 6.989537 L 19.004046 6.989537 " transform="matrix(0.124444,0,0,0.124444,0.373333,4.462222)"/>
<path style="fill:none;stroke-width:2;stroke-linecap:butt;stroke-linejoin:miter;stroke:rgb(100%,100%,100%);stroke-opacity:1;stroke-miterlimit:4;" d="M 0.0133929 7.010463 L 8.990792 7.010463 M 9.995257 7.010463 L 19.004046 7.010463 " transform="matrix(0.124444,0,0,0.124444,0.373333,9.795556)"/>
<path style="fill:none;stroke-width:2;stroke-linecap:butt;stroke-linejoin:miter;stroke:rgb(100%,100%,100%);stroke-opacity:1;stroke-miterlimit:4;" d="M 0.0267857 0.980469 L 26.017299 0.980469 M 1.03125 10.020647 L 1.03125 4.998326 L 9.004185 4.998326 L 9.004185 9.016183 L 16.977121 9.016183 L 16.977121 4.998326 L 12.017578 4.998326 M 3.981864 9.016183 L 5.990792 9.016183 M 26.017299 9.016183 L 20.994978 9.016183 L 20.994978 4.998326 L 29.030692 4.998326 M 29.030692 -0.0239955 L 29.030692 9.016183 L 37.003627 9.016183 L 37.003627 -0.0239955 M 32.98577 -0.0239955 L 32.98577 9.016183 " transform="matrix(0.0622222,0,0,0.0622222,0.373333,10.915556)"/>
<path style="fill:none;stroke-width:2;stroke-linecap:butt;stroke-linejoin:miter;stroke:rgb(100%,100%,100%);stroke-opacity:1;stroke-miterlimit:4;" d="M 0.0170201 0.983817 L 26.007533 0.983817 M 1.021484 10.023996 L 1.021484 5.001674 L 8.99442 5.001674 L 8.99442 9.019531 L 17.030134 9.019531 L 17.030134 5.001674 L 12.007812 5.001674 M 3.972098 9.019531 L 5.981027 9.019531 M 26.007533 9.019531 L 20.985212 9.019531 L 20.985212 5.001674 L 29.020926 5.001674 M 29.020926 -0.0206473 L 29.020926 9.019531 L 36.993862 9.019531 L 36.993862 -0.0206473 M 32.976004 -0.0206473 L 32.976004 9.019531 " transform="matrix(0.0622222,0,0,0.0622222,2.862222,4.462222)"/>
<path style="fill:none;stroke-width:2;stroke-linecap:butt;stroke-linejoin:miter;stroke:rgb(100%,100%,100%);stroke-opacity:1;stroke-miterlimit:4;" d="M 0.00851004 6.989537 L 8.98591 6.989537 M 9.990374 6.989537 L 18.999163 6.989537 " transform="matrix(0.124444,0,0,0.124444,2.862222,4.462222)"/>
<path style="fill:none;stroke-width:2;stroke-linecap:butt;stroke-linejoin:miter;stroke:rgb(100%,100%,100%);stroke-opacity:1;stroke-miterlimit:4;" d="M 0.00851004 7.010463 L 8.98591 7.010463 M 9.990374 7.010463 L 18.999163 7.010463 " transform="matrix(0.124444,0,0,0.124444,2.862222,9.795556)"/>
<path style="fill:none;stroke-width:2;stroke-linecap:butt;stroke-linejoin:miter;stroke:rgb(100%,100%,100%);stroke-opacity:1;stroke-miterlimit:4;" d="M 0.0170201 0.980469 L 26.007533 0.980469 M 1.021484 10.020647 L 1.021484 4.998326 L 8.99442 4.998326 L 8.99442 9.016183 L 17.030134 9.016183 L 17.030134 4.998326 L 12.007812 4.998326 M 3.972098 9.016183 L 5.981027 9.016183 M 26.007533 9.016183 L 20.985212 9.016183 L 20.985212 4.998326 L 29.020926 4.998326 M 29.020926 -0.0239955 L 29.020926 9.016183 L 36.993862 9.016183 L 36.993862 -0.0239955 M 32.976004 -0.0239955 L 32.976004 9.016183 " transform="matrix(0.0622222,0,0,0.0622222,2.862222,10.915556)"/>
<path style="fill:none;stroke-width:2;stroke-linecap:butt;stroke-linejoin:miter;stroke:rgb(100%,100%,100%);stroke-opacity:1;stroke-miterlimit:4;" d="M 0.00725446 0.983817 L 25.997768 0.983817 M 1.011719 10.023996 L 1.011719 5.001674 L 8.984654 5.001674 L 8.984654 9.019531 L 17.020368 9.019531 L 17.020368 5.001674 L 11.998047 5.001674 M 4.025112 9.019531 L 5.971261 9.019531 M 25.997768 9.019531 L 20.975446 9.019531 L 20.975446 5.001674 L 29.011161 5.001674 M 29.011161 -0.0206473 L 29.011161 9.019531 L 36.984096 9.019531 L 36.984096 -0.0206473 M 33.029018 -0.0206473 L 33.029018 9.019531 " transform="matrix(0.0622222,0,0,0.0622222,5.351111,4.462222)"/>
<path style="fill:none;stroke-width:2;stroke-linecap:butt;stroke-linejoin:miter;stroke:rgb(100%,100%,100%);stroke-opacity:1;stroke-miterlimit:4;" d="M 0.00362723 6.989537 L 9.012416 6.989537 M 9.985491 6.989537 L 18.99428 6.989537 " transform="matrix(0.124444,0,0,0.124444,5.351111,4.462222)"/>
<path style="fill:none;stroke-width:2;stroke-linecap:butt;stroke-linejoin:miter;stroke:rgb(100%,100%,100%);stroke-opacity:1;stroke-miterlimit:4;" d="M 0.00362723 7.010463 L 9.012416 7.010463 M 9.985491 7.010463 L 18.99428 7.010463 " transform="matrix(0.124444,0,0,0.124444,5.351111,9.795556)"/>
<path style="fill:none;stroke-width:2;stroke-linecap:butt;stroke-linejoin:miter;stroke:rgb(100%,100%,100%);stroke-opacity:1;stroke-miterlimit:4;" d="M 0.00725446 0.980469 L 25.997768 0.980469 M 1.011719 10.020647 L 1.011719 4.998326 L 8.984654 4.998326 L 8.984654 9.016183 L 17.020368 9.016183 L 17.020368 4.998326 L 11.998047 4.998326 M 4.025112 9.016183 L 5.971261 9.016183 M 25.997768 9.016183 L 20.975446 9.016183 L 20.975446 4.998326 L 29.011161 4.998326 M 29.011161 -0.0239955 L 29.011161 9.016183 L 36.984096 9.016183 L 36.984096 -0.0239955 M 33.029018 -0.0239955 L 33.029018 9.016183 " transform="matrix(0.0622222,0,0,0.0622222,5.351111,10.915556)"/>
<path style="fill:none;stroke-width:2;stroke-linecap:butt;stroke-linejoin:miter;stroke:rgb(100%,100%,100%);stroke-opacity:1;stroke-miterlimit:4;" d="M -0.00251116 0.983817 L 25.988002 0.983817 M 1.001953 10.023996 L 1.001953 5.001674 L 8.974888 5.001674 L 8.974888 9.019531 L 17.010603 9.019531 L 17.010603 5.001674 L 11.988281 5.001674 M 4.015346 9.019531 L 6.024275 9.019531 M 25.988002 9.019531 L 21.02846 9.019531 L 21.02846 5.001674 L 29.001395 5.001674 M 29.001395 -0.0206473 L 29.001395 9.019531 L 36.97433 9.019531 L 36.97433 -0.0206473 M 33.019252 -0.0206473 L 33.019252 9.019531 " transform="matrix(0.0622222,0,0,0.0622222,7.84,4.462222)"/>
<path style="fill:none;stroke-width:2;stroke-linecap:butt;stroke-linejoin:miter;stroke:rgb(100%,100%,100%);stroke-opacity:1;stroke-miterlimit:4;" d="M -0.00125558 6.989537 L 9.007533 6.989537 M 10.011998 6.989537 L 18.989397 6.989537 " transform="matrix(0.124444,0,0,0.124444,7.84,4.462222)"/>
<path style="fill:none;stroke-width:2;stroke-linecap:butt;stroke-linejoin:miter;stroke:rgb(100%,100%,100%);stroke-opacity:1;stroke-miterlimit:4;" d="M -0.00125558 7.010463 L 9.007533 7.010463 M 10.011998 7.010463 L 18.989397 7.010463 " transform="matrix(0.124444,0,0,0.124444,7.84,9.795556)"/>
<path style="fill:none;stroke-width:2;stroke-linecap:butt;stroke-linejoin:miter;stroke:rgb(100%,100%,100%);stroke-opacity:1;stroke-miterlimit:4;" d="M -0.00251116 0.980469 L 25.988002 0.980469 M 1.001953 10.020647 L 1.001953 4.998326 L 8.974888 4.998326 L 8.974888 9.016183 L 17.010603 9.016183 L 17.010603 4.998326 L 11.988281 4.998326 M 4.015346 9.016183 L 6.024275 9.016183 M 25.988002 9.016183 L 21.02846 9.016183 L 21.02846 4.998326 L 29.001395 4.998326 M 29.001395 -0.0239955 L 29.001395 9.016183 L 36.97433 9.016183 L 36.97433 -0.0239955 M 33.019252 -0.0239955 L 33.019252 9.016183 " transform="matrix(0.0622222,0,0,0.0622222,7.84,10.915556)"/>
<path style="fill:none;stroke-width:2;stroke-linecap:butt;stroke-linejoin:miter;stroke:rgb(100%,100%,100%);stroke-opacity:1;stroke-miterlimit:4;" d="M -0.0122768 0.983817 L 25.978237 0.983817 M 0.992188 10.023996 L 0.992188 5.001674 L 9.027902 5.001674 L 9.027902 9.019531 L 17.000837 9.019531 L 17.000837 5.001674 L 11.978516 5.001674 M 4.00558 9.019531 L 6.014509 9.019531 M 25.978237 9.019531 L 21.018694 9.019531 L 21.018694 5.001674 L 28.991629 5.001674 M 28.991629 -0.0206473 L 28.991629 9.019531 L 37.027344 9.019531 L 37.027344 -0.0206473 M 33.009487 -0.0206473 L 33.009487 9.019531 " transform="matrix(0.0622222,0,0,0.0622222,10.328889,4.462222)"/>
<path style="fill:none;stroke-width:2;stroke-linecap:butt;stroke-linejoin:miter;stroke:rgb(100%,100%,100%);stroke-opacity:1;stroke-miterlimit:4;" d="M -0.00613839 6.989537 L 9.002651 6.989537 M 10.007115 6.989537 L 18.984515 6.989537 " transform="matrix(0.124444,0,0,0.124444,10.328889,4.462222)"/>
<path style="fill:none;stroke-width:2;stroke-linecap:butt;stroke-linejoin:miter;stroke:rgb(100%,100%,100%);stroke-opacity:1;stroke-miterlimit:4;" d="M -0.00613839 7.010463 L 9.002651 7.010463 M 10.007115 7.010463 L 18.984515 7.010463 " transform="matrix(0.124444,0,0,0.124444,10.328889,9.795556)"/>
<path style="fill:none;stroke-width:2;stroke-linecap:butt;stroke-linejoin:miter;stroke:rgb(100%,100%,100%);stroke-opacity:1;stroke-miterlimit:4;" d="M -0.0122768 0.980469 L 25.978237 0.980469 M 0.992188 10.020647 L 0.992188 4.998326 L 9.027902 4.998326 L 9.027902 9.016183 L 17.000837 9.016183 L 17.000837 4.998326 L 11.978516 4.998326 M 4.00558 9.016183 L 6.014509 9.016183 M 25.978237 9.016183 L 21.018694 9.016183 L 21.018694 4.998326 L 28.991629 4.998326 M 28.991629 -0.0239955 L 28.991629 9.016183 L 37.027344 9.016183 L 37.027344 -0.0239955 M 33.009487 -0.0239955 L 33.009487 9.016183 " transform="matrix(0.0622222,0,0,0.0622222,10.328889,10.915556)"/>
<path style="fill:none;stroke-width:2;stroke-linecap:butt;stroke-linejoin:miter;stroke:rgb(100%,100%,100%);stroke-opacity:1;stroke-miterlimit:4;" d="M -0.0220424 0.983817 L 26.03125 0.983817 M 0.982422 10.023996 L 0.982422 5.001674 L 9.018136 5.001674 L 9.018136 9.019531 L 16.991071 9.019531 L 16.991071 5.001674 L 11.96875 5.001674 M 3.995815 9.019531 L 6.004743 9.019531 M 26.03125 9.019531 L 21.008929 9.019531 L 21.008929 5.001674 L 28.981864 5.001674 M 28.981864 -0.0206473 L 28.981864 9.019531 L 37.017578 9.019531 L 37.017578 -0.0206473 M 32.999721 -0.0206473 L 32.999721 9.019531 " transform="matrix(0.0622222,0,0,0.0622222,12.817778,4.462222)"/>
<path style="fill:none;stroke-width:2;stroke-linecap:butt;stroke-linejoin:miter;stroke:rgb(100%,100%,100%);stroke-opacity:1;stroke-miterlimit:4;" d="M -0.0110212 6.989537 L 8.997768 6.989537 M 10.002232 6.989537 L 19.011021 6.989537 " transform="matrix(0.124444,0,0,0.124444,12.817778,4.462222)"/>
<path style="fill:none;stroke-width:2;stroke-linecap:butt;stroke-linejoin:miter;stroke:rgb(100%,100%,100%);stroke-opacity:1;stroke-miterlimit:4;" d="M -0.0110212 7.010463 L 8.997768 7.010463 M 10.002232 7.010463 L 19.011021 7.010463 " transform="matrix(0.124444,0,0,0.124444,12.817778,9.795556)"/>
<path style="fill:none;stroke-width:2;stroke-linecap:butt;stroke-linejoin:miter;stroke:rgb(100%,100%,100%);stroke-opacity:1;stroke-miterlimit:4;" d="M -0.0220424 0.980469 L 26.03125 0.980469 M 0.982422 10.020647 L 0.982422 4.998326 L 9.018136 4.998326 L 9.018136 9.016183 L 16.991071 9.016183 L 16.991071 4.998326 L 11.96875 4.998326 M 3.995815 9.016183 L 6.004743 9.016183 M 26.03125 9.016183 L 21.008929 9.016183 L 21.008929 4.998326 L 28.981864 4.998326 M 28.981864 -0.0239955 L 28.981864 9.016183 L 37.017578 9.016183 L 37.017578 -0.0239955 M 32.999721 -0.0239955 L 32.999721 9.016183 " transform="matrix(0.0622222,0,0,0.0622222,12.817778,10.915556)"/>
<path style="fill:none;stroke-width:2;stroke-linecap:butt;stroke-linejoin:miter;stroke:rgb(100%,100%,100%);stroke-opacity:1;stroke-miterlimit:4;" d="M 0.030971 0.983817 L 26.021484 0.983817 M 0.972656 10.023996 L 0.972656 5.001674 L 9.008371 5.001674 L 9.008371 9.019531 L 16.981306 9.019531 L 16.981306 5.001674 L 12.021763 5.001674 M 3.986049 9.019531 L 5.994978 9.019531 M 26.021484 9.019531 L 20.999163 9.019531 L 20.999163 5.001674 L 28.972098 5.001674 M 28.972098 -0.0206473 L 28.972098 9.019531 L 37.007812 9.019531 L 37.007812 -0.0206473 M 32.989955 -0.0206473 L 32.989955 9.019531 " transform="matrix(0.0622222,0,0,0.0622222,15.306667,4.462222)"/>
<path style="fill:none;stroke-width:2;stroke-linecap:butt;stroke-linejoin:miter;stroke:rgb(100%,100%,100%);stroke-opacity:1;stroke-miterlimit:4;" d="M 0.0154855 6.989537 L 8.992885 6.989537 M 9.997349 6.989537 L 19.006138 6.989537 " transform="matrix(0.124444,0,0,0.124444,15.306667,4.462222)"/>
<path style="fill:none;stroke-width:2;stroke-linecap:butt;stroke-linejoin:miter;stroke:rgb(100%,100%,100%);stroke-opacity:1;stroke-miterlimit:4;" d="M 0.0154855 7.010463 L 8.992885 7.010463 M 9.997349 7.010463 L 19.006138 7.010463 " transform="matrix(0.124444,0,0,0.124444,15.306667,9.795556)"/>
<path style="fill:none;stroke-width:2;stroke-linecap:butt;stroke-linejoin:miter;stroke:rgb(100%,100%,100%);stroke-opacity:1;stroke-miterlimit:4;" d="M 0.030971 0.980469 L 26.021484 0.980469 M 0.972656 10.020647 L 0.972656 4.998326 L 9.008371 4.998326 L 9.008371 9.016183 L 16.981306 9.016183 L 16.981306 4.998326 L 12.021763 4.998326 M 3.986049 9.016183 L 5.994978 9.016183 M 26.021484 9.016183 L 20.999163 9.016183 L 20.999163 4.998326 L 28.972098 4.998326 M 28.972098 -0.0239955 L 28.972098 9.016183 L 37.007812 9.016183 L 37.007812 -0.0239955 M 32.989955 -0.0239955 L 32.989955 9.016183 " transform="matrix(0.0622222,0,0,0.0622222,15.306667,10.915556)"/>
<path style="fill:none;stroke-width:2;stroke-linecap:butt;stroke-linejoin:miter;stroke:rgb(100%,100%,100%);stroke-opacity:1;stroke-miterlimit:4;" d="M 0.0212054 0.983817 L 26.011719 0.983817 M 1.02567 10.023996 L 1.02567 5.001674 L 8.998605 5.001674 L 8.998605 9.019531 L 16.97154 9.019531 L 16.97154 5.001674 L 12.011998 5.001674 M 3.976283 9.019531 L 5.985212 9.019531 M 26.011719 9.019531 L 20.989397 9.019531 L 20.989397 5.001674 L 29.025112 5.001674 M 29.025112 -0.0206473 L 29.025112 9.019531 L 36.998047 9.019531 L 36.998047 -0.0206473 M 32.98019 -0.0206473 L 32.98019 9.019531 " transform="matrix(0.0622222,0,0,0.0622222,17.795556,4.462222)"/>
<path style="fill:none;stroke-width:2;stroke-linecap:butt;stroke-linejoin:miter;stroke:rgb(100%,100%,100%);stroke-opacity:1;stroke-miterlimit:4;" d="M 0.0106027 6.989537 L 8.988002 6.989537 M 9.992467 6.989537 L 19.001256 6.989537 " transform="matrix(0.124444,0,0,0.124444,17.795556,4.462222)"/>
<path style="fill:none;stroke-width:2;stroke-linecap:butt;stroke-linejoin:miter;stroke:rgb(100%,100%,100%);stroke-opacity:1;stroke-miterlimit:4;" d="M 0.0106027 7.010463 L 8.988002 7.010463 M 9.992467 7.010463 L 19.001256 7.010463 " transform="matrix(0.124444,0,0,0.124444,17.795556,9.795556)"/>
<path style="fill:none;stroke-width:2;stroke-linecap:butt;stroke-linejoin:miter;stroke:rgb(100%,100%,100%);stroke-opacity:1;stroke-miterlimit:4;" d="M 0.0212054 0.980469 L 26.011719 0.980469 M 1.02567 10.020647 L 1.02567 4.998326 L 8.998605 4.998326 L 8.998605 9.016183 L 16.97154 9.016183 L 16.97154 4.998326 L 12.011998 4.998326 M 3.976283 9.016183 L 5.985212 9.016183 M 26.011719 9.016183 L 20.989397 9.016183 L 20.989397 4.998326 L 29.025112 4.998326 M 29.025112 -0.0239955 L 29.025112 9.016183 L 36.998047 9.016183 L 36.998047 -0.0239955 M 32.98019 -0.0239955 L 32.98019 9.016183 " transform="matrix(0.0622222,0,0,0.0622222,17.795556,10.915556)"/>
<path style="fill:none;stroke-width:2;stroke-linecap:butt;stroke-linejoin:miter;stroke:rgb(100%,100%,100%);stroke-opacity:1;stroke-miterlimit:4;" d="M 0.0114397 0.983817 L 26.001953 0.983817 M 1.015904 10.023996 L 1.015904 5.001674 L 8.988839 5.001674 L 8.988839 9.019531 L 17.024554 9.019531 L 17.024554 5.001674 L 12.002232 5.001674 M 4.029297 9.019531 L 5.975446 9.019531 M 26.001953 9.019531 L 20.979632 9.019531 L 20.979632 5.001674 L 29.015346 5.001674 M 29.015346 -0.0206473 L 29.015346 9.019531 L 36.988281 9.019531 L 36.988281 -0.0206473 M 32.970424 -0.0206473 L 32.970424 9.019531 " transform="matrix(0.0622222,0,0,0.0622222,20.284444,4.462222)"/>
<path style="fill:none;stroke-width:2;stroke-linecap:butt;stroke-linejoin:miter;stroke:rgb(100%,100%,100%);stroke-opacity:1;stroke-miterlimit:4;" d="M 0.00571987 6.989537 L 9.014509 6.989537 M 9.987584 6.989537 L 18.996373 6.989537 " transform="matrix(0.124444,0,0,0.124444,20.284444,4.462222)"/>
<path style="fill:none;stroke-width:2;stroke-linecap:butt;stroke-linejoin:miter;stroke:rgb(100%,100%,100%);stroke-opacity:1;stroke-miterlimit:4;" d="M 0.00571987 7.010463 L 9.014509 7.010463 M 9.987584 7.010463 L 18.996373 7.010463 " transform="matrix(0.124444,0,0,0.124444,20.284444,9.795556)"/>
<path style="fill:none;stroke-width:2;stroke-linecap:butt;stroke-linejoin:miter;stroke:rgb(100%,100%,100%);stroke-opacity:1;stroke-miterlimit:4;" d="M 0.0114397 0.980469 L 26.001953 0.980469 M 1.015904 10.020647 L 1.015904 4.998326 L 8.988839 4.998326 L 8.988839 9.016183 L 17.024554 9.016183 L 17.024554 4.998326 L 12.002232 4.998326 M 4.029297 9.016183 L 5.975446 9.016183 M 26.001953 9.016183 L 20.979632 9.016183 L 20.979632 4.998326 L 29.015346 4.998326 M 29.015346 -0.0239955 L 29.015346 9.016183 L 36.988281 9.016183 L 36.988281 -0.0239955 M 32.970424 -0.0239955 L 32.970424 9.016183 " transform="matrix(0.0622222,0,0,0.0622222,20.284444,10.915556)"/>
<path style="fill:none;stroke-width:2;stroke-linecap:butt;stroke-linejoin:miter;stroke:rgb(100%,100%,100%);stroke-opacity:1;stroke-miterlimit:4;" d="M 0.00167411 0.983817 L 25.992187 0.983817 M 1.006138 10.023996 L 1.006138 5.001674 L 8.979074 5.001674 L 8.979074 9.019531 L 17.014788 9.019531 L 17.014788 5.001674 L 11.992467 5.001674 M 4.019531 9.019531 L 6.02846 9.019531 M 25.992187 9.019531 L 20.969866 9.019531 L 20.969866 5.001674 L 29.00558 5.001674 M 29.00558 -0.0206473 L 29.00558 9.019531 L 36.978516 9.019531 L 36.978516 -0.0206473 M 33.023437 -0.0206473 L 33.023437 9.019531 " transform="matrix(0.0622222,0,0,0.0622222,22.773333,4.462222)"/>
<path style="fill:none;stroke-width:2;stroke-linecap:butt;stroke-linejoin:miter;stroke:rgb(100%,100%,100%);stroke-opacity:1;stroke-miterlimit:4;" d="M 0.000837054 6.989537 L 9.009626 6.989537 M 10.01409 6.989537 L 18.99149 6.989537 " transform="matrix(0.124444,0,0,0.124444,22.773333,4.462222)"/>
<path style="fill:none;stroke-width:2;stroke-linecap:butt;stroke-linejoin:miter;stroke:rgb(100%,100%,100%);stroke-opacity:1;stroke-miterlimit:4;" d="M 0.000837054 7.010463 L 9.009626 7.010463 M 10.01409 7.010463 L 18.99149 7.010463 " transform="matrix(0.124444,0,0,0.124444,22.773333,9.795556)"/>
<path style="fill:none;stroke-width:2;stroke-linecap:butt;stroke-linejoin:miter;stroke:rgb(100%,100%,100%);stroke-opacity:1;stroke-miterlimit:4;" d="M 0.00167411 0.980469 L 25.992187 0.980469 M 1.006138 10.020647 L 1.006138 4.998326 L 8.979074 4.998326 L 8.979074 9.016183 L 17.014788 9.016183 L 17.014788 4.998326 L 11.992467 4.998326 M 4.019531 9.016183 L 6.02846 9.016183 M 25.992187 9.016183 L 20.969866 9.016183 L 20.969866 4.998326 L 29.00558 4.998326 M 29.00558 -0.0239955 L 29.00558 9.016183 L 36.978516 9.016183 L 36.978516 -0.0239955 M 33.023437 -0.0239955 L 33.023437 9.016183 " transform="matrix(0.0622222,0,0,0.0622222,22.773333,10.915556)"/>
<path style="fill:none;stroke-width:2;stroke-linecap:butt;stroke-linejoin:miter;stroke:rgb(100%,100%,100%);stroke-opacity:1;stroke-miterlimit:4;" d="M -0.00809152 0.983817 L 25.982422 0.983817 M 0.996373 10.023996 L 0.996373 5.001674 L 8.969308 5.001674 L 8.969308 9.019531 L 17.005022 9.019531 L 17.005022 5.001674 L 11.982701 5.001674 M 4.009766 9.019531 L 6.018694 9.019531 M 25.982422 9.019531 L 21.022879 9.019531 L 21.022879 5.001674 L 28.995815 5.001674 M 28.995815 -0.0206473 L 28.995815 9.019531 L 36.96875 9.019531 L 36.96875 -0.0206473 M 33.013672 -0.0206473 L 33.013672 9.019531 " transform="matrix(0.0622222,0,0,0.0622222,25.262222,4.462222)"/>
<path style="fill:none;stroke-width:2;stroke-linecap:butt;stroke-linejoin:miter;stroke:rgb(100%,100%,100%);stroke-opacity:1;stroke-miterlimit:4;" d="M -0.00404576 6.989537 L 9.004743 6.989537 M 10.009208 6.989537 L 18.986607 6.989537 " transform="matrix(0.124444,0,0,0.124444,25.262222,4.462222)"/>
<path style="fill:none;stroke-width:2;stroke-linecap:butt;stroke-linejoin:miter;stroke:rgb(100%,100%,100%);stroke-opacity:1;stroke-miterlimit:4;" d="M -0.00404576 7.010463 L 9.004743 7.010463 M 10.009208 7.010463 L 18.986607 7.010463 " transform="matrix(0.124444,0,0,0.124444,25.262222,9.795556)"/>
<path style="fill:none;stroke-width:2;stroke-linecap:butt;stroke-linejoin:miter;stroke:rgb(100%,100%,100%);stroke-opacity:1;stroke-miterlimit:4;" d="M -0.00809152 0.980469 L 25.982422 0.980469 M 0.996373 10.020647 L 0.996373 4.998326 L 8.969308 4.998326 L 8.969308 9.016183 L 17.005022 9.016183 L 17.005022 4.998326 L 11.982701 4.998326 M 4.009766 9.016183 L 6.018694 9.016183 M 25.982422 9.016183 L 21.022879 9.016183 L 21.022879 4.998326 L 28.995815 4.998326 M 28.995815 -0.0239955 L 28.995815 9.016183 L 36.96875 9.016183 L 36.96875 -0.0239955 M 33.013672 -0.0239955 L 33.013672 9.016183 " transform="matrix(0.0622222,0,0,0.0622222,25.262222,10.915556)"/>
<path style=" stroke:none;fill-rule:nonzero;fill:rgb(85.490196%,0%,0%);fill-opacity:1;" d="M 12.902344 9.671875 C 13.730469 9.941406 14.632812 9.589844 15.058594 8.832031 C 15.484375 8.074219 15.316406 7.121094 14.65625 6.554688 C 15.082031 7.183594 15.113281 7.996094 14.742188 8.65625 C 14.371094 9.316406 13.660156 9.710938 12.902344 9.671875 "/>
<path style=" stroke:none;fill-rule:nonzero;fill:rgb(85.490196%,0%,0%);fill-opacity:1;" d="M 15.238281 9.324219 C 15.777344 9.011719 16.070312 8.402344 15.984375 7.789062 C 15.898438 7.171875 15.445312 6.667969 14.84375 6.519531 C 15.269531 6.835938 15.546875 7.3125 15.621094 7.839844 C 15.695312 8.363281 15.558594 8.898438 15.238281 9.324219 "/>
<path style=" stroke:none;fill-rule:nonzero;fill:rgb(85.490196%,0%,0%);fill-opacity:1;" d="M 14 10 L 13.898438 8 L 14 6.425781 C 14.0625 6.511719 14.140625 6.578125 14.234375 6.625 L 14.234375 7.800781 L 14.15625 9.785156 Z M 14 10 "/>
<path style=" stroke:none;fill-rule:nonzero;fill:rgb(85.490196%,0%,0%);fill-opacity:1;" d="M 13.960938 6.300781 L 14 6.335938 C 14.085938 6.457031 14.246094 6.496094 14.375 6.425781 C 14.503906 6.355469 14.558594 6.199219 14.503906 6.066406 C 14.484375 6.175781 14.394531 6.265625 14.28125 6.28125 C 14.167969 6.300781 14.058594 6.25 14 6.152344 "/>
<path style=" stroke:none;fill-rule:nonzero;fill:rgb(85.490196%,0%,0%);fill-opacity:1;" d="M 15.097656 9.671875 C 14.269531 9.941406 13.367188 9.589844 12.941406 8.832031 C 12.515625 8.074219 12.683594 7.121094 13.34375 6.554688 C 12.917969 7.183594 12.886719 7.996094 13.257812 8.65625 C 13.628906 9.316406 14.339844 9.710938 15.097656 9.671875 "/>
<path style=" stroke:none;fill-rule:nonzero;fill:rgb(85.490196%,0%,0%);fill-opacity:1;" d="M 12.761719 9.324219 C 12.222656 9.011719 11.929688 8.402344 12.015625 7.789062 C 12.101562 7.171875 12.554688 6.667969 13.15625 6.519531 C 12.730469 6.835938 12.453125 7.3125 12.378906 7.839844 C 12.304688 8.363281 12.441406 8.898438 12.761719 9.324219 "/>
<path style=" stroke:none;fill-rule:nonzero;fill:rgb(85.490196%,0%,0%);fill-opacity:1;" d="M 14 10 L 14.101562 8 L 14 6.425781 C 13.9375 6.511719 13.859375 6.578125 13.765625 6.625 L 13.765625 7.800781 L 13.84375 9.785156 Z M 14 10 "/>
<path style=" stroke:none;fill-rule:nonzero;fill:rgb(85.490196%,0%,0%);fill-opacity:1;" d="M 14.039062 6.300781 L 14 6.335938 C 13.914062 6.457031 13.753906 6.496094 13.625 6.425781 C 13.496094 6.355469 13.441406 6.199219 13.496094 6.066406 C 13.515625 6.175781 13.605469 6.265625 13.71875 6.28125 C 13.832031 6.300781 13.941406 6.25 14 6.152344 "/>
</g>
</svg>
