<?xml version="1.0" encoding="UTF-8"?>
<svg xmlns="http://www.w3.org/2000/svg" xmlns:xlink="http://www.w3.org/1999/xlink" width="24px" height="16px" viewBox="0 0 26 16" version="1.1">
<g id="surface1">
<rect x="0" y="0" width="26" height="16" style="fill:rgb(100%,100%,100%);fill-opacity:1;stroke:none;"/>
<path style="fill-rule:nonzero;fill:rgb(0%,0%,0%);fill-opacity:1;stroke-width:2;stroke-linecap:butt;stroke-linejoin:miter;stroke:rgb(87.45098%,6.666667%,17.647059%);stroke-opacity:1;stroke-miterlimit:4;" d="M 0 0 L 30 18 M 0 18 L 30 0 " transform="matrix(0.866667,0,0,0.888889,0,0)"/>
<path style="fill-rule:nonzero;fill:rgb(90.980392%,6.666667%,17.647059%);fill-opacity:1;stroke-width:0.015;stroke-linecap:butt;stroke-linejoin:miter;stroke:rgb(0%,0%,0%);stroke-opacity:1;stroke-miterlimit:4;" d="M 16.56851 2.693848 C 16.95613 4.253906 16.744291 6.183105 15.004507 7.250977 C 13.260216 6.183105 13.048377 4.253906 13.435998 2.693848 C 13.846154 2.320312 15.712139 2.091797 16.56851 2.693848 Z M 16.56851 2.693848 " transform="matrix(0.866667,0,0,0.888889,0,0)"/>
<path style="fill-rule:nonzero;fill:rgb(97.647059%,86.666667%,8.627451%);fill-opacity:1;stroke-width:0.015;stroke-linecap:butt;stroke-linejoin:miter;stroke:rgb(0%,0%,0%);stroke-opacity:1;stroke-miterlimit:4;" d="M 15 2.381836 C 15.640024 2.381836 16.234976 2.548828 16.582031 2.768555 C 16.654147 2.228027 16.897536 1.691895 17.185998 1.283203 C 16.884014 1.278809 16.748798 1.437012 16.744291 1.604004 C 16.672175 1.393066 16.3747 1.401855 16.284555 1.520508 C 16.613582 1.740234 16.361178 2.135742 16.063702 2.052246 C 15.923978 2.01709 15.851863 1.92041 15.82482 1.775391 C 15.90595 1.770996 15.973558 1.705078 15.973558 1.621582 C 15.978065 1.538086 15.919471 1.467773 15.838341 1.45459 C 15.752704 1.441406 15.676082 1.494141 15.658053 1.573242 C 15.635517 1.656738 15.680589 1.73584 15.757212 1.766602 C 15.680589 1.902832 15.522837 1.96875 15.374099 1.933594 C 15.216346 1.889648 15.148738 1.749023 15.148738 1.621582 C 15.148738 1.296387 15.464243 1.248047 15.558894 1.305176 C 15.54988 1.085449 15.207332 0.909668 15.099159 1.089844 C 15.234375 0.856934 15.19381 0.5625 15 0.37793 C 14.788161 0.575684 14.779147 0.878906 14.900841 1.089844 C 14.792668 0.909668 14.45012 1.085449 14.441106 1.305176 C 14.535757 1.248047 14.851262 1.296387 14.851262 1.621582 C 14.855769 1.766602 14.765625 1.894043 14.625901 1.933594 C 14.477163 1.96875 14.323918 1.898438 14.242788 1.766602 C 14.323918 1.73584 14.364483 1.652344 14.341947 1.573242 C 14.319411 1.494141 14.242788 1.441406 14.161659 1.45459 C 14.080529 1.467773 14.021935 1.538086 14.021935 1.621582 C 14.026442 1.705078 14.09405 1.770996 14.17518 1.775391 C 14.148137 1.92041 14.076022 2.01709 13.936298 2.052246 C 13.638822 2.135742 13.386418 1.740234 13.715445 1.520508 C 13.6253 1.401855 13.327825 1.393066 13.255709 1.604004 C 13.251202 1.437012 13.115986 1.278809 12.814002 1.283203 C 13.102464 1.691895 13.345853 2.228027 13.417969 2.768555 C 13.765024 2.548828 14.359976 2.381836 15 2.381836 Z M 15 2.381836 " transform="matrix(0.866667,0,0,0.888889,0,0)"/>
<path style="fill-rule:nonzero;fill:rgb(97.647059%,86.666667%,8.627451%);fill-opacity:1;stroke-width:0.015;stroke-linecap:butt;stroke-linejoin:miter;stroke:rgb(0%,0%,0%);stroke-opacity:1;stroke-miterlimit:4;" d="M 16.32512 3.911133 C 16.284555 3.919922 16.284555 3.968262 16.266526 3.968262 C 16.365685 3.968262 16.415264 3.9375 16.446815 3.88916 C 16.424279 3.911133 16.442308 3.946289 16.433293 3.955078 C 16.509916 3.933105 16.541466 3.867188 16.51893 3.827637 C 16.532452 3.849609 16.582031 3.862793 16.595553 3.867188 C 16.545974 3.823242 16.582031 3.730957 16.500901 3.687012 C 16.527945 3.682617 16.577524 3.713379 16.595553 3.75293 C 16.582031 3.669434 16.56851 3.616699 16.500901 3.568359 C 16.509916 3.577148 16.545974 3.585938 16.564002 3.568359 C 16.527945 3.546387 16.505409 3.506836 16.509916 3.467285 C 16.514423 3.427734 16.48738 3.414551 16.4378 3.432129 C 16.365685 3.440918 16.29357 3.449707 16.221454 3.449707 C 16.095252 3.449707 15.982572 3.449707 15.874399 3.375 C 16.032151 3.440918 16.239483 3.300293 16.239483 3.186035 C 16.239483 3.058594 16.081731 2.953125 15.761719 3.023438 C 15.441707 3.09375 15.054087 3.062988 15.054087 2.95752 C 15.054087 2.847656 15.329026 2.834473 15.473257 2.856445 C 15.617488 2.878418 15.721154 2.891602 15.987079 2.799316 C 15.923978 2.825684 15.707632 2.830078 15.540865 2.781738 C 15.369591 2.733398 14.954928 2.733398 14.954928 2.95752 C 14.950421 3.181641 15.396635 3.164062 15.779748 3.106934 C 16.005108 3.071777 16.122296 3.098145 16.122296 3.168457 C 16.122296 3.23877 15.914964 3.269531 15.757212 3.247559 C 15.585937 3.225586 15.414663 3.243164 15.247897 3.291504 C 15.094651 3.335449 14.986478 3.291504 14.815204 3.317871 C 14.729567 3.335449 14.526743 3.317871 14.427584 3.155273 C 14.364483 3.199219 14.179687 3.291504 14.148137 3.379395 C 14.103065 3.462891 14.134615 3.546387 14.193209 3.625488 C 14.265325 3.726562 14.157151 3.713379 14.076022 3.717773 C 13.967849 3.722168 13.823618 3.70459 13.746995 3.621094 C 13.679387 3.541992 13.59375 3.480469 13.521635 3.537598 C 13.485577 3.568359 13.517127 3.603516 13.548678 3.594727 C 13.575721 3.585938 13.611779 3.603516 13.643329 3.621094 C 13.602764 3.603516 13.553185 3.60791 13.517127 3.634277 C 13.490084 3.660645 13.526142 3.708984 13.557692 3.691406 C 13.589243 3.678223 13.643329 3.669434 13.679387 3.700195 C 13.638822 3.695801 13.598257 3.695801 13.580228 3.717773 C 13.557692 3.739746 13.575721 3.770508 13.616286 3.766113 C 13.683894 3.766113 13.701923 3.810059 13.774038 3.80127 C 13.742488 3.805664 13.710937 3.818848 13.692909 3.845215 C 13.760517 3.814453 13.828125 3.897949 13.913762 3.875977 C 13.882212 3.88916 13.828125 3.924316 13.828125 3.946289 C 13.877704 3.88916 14.211238 3.990234 14.220252 3.867188 C 14.229267 3.902344 14.220252 3.9375 14.202224 3.963867 C 14.242788 3.9375 14.378005 3.928711 14.423077 3.832031 C 14.427584 3.858398 14.41857 3.897949 14.396034 3.906738 C 14.441106 3.919922 14.495192 3.88916 14.553786 3.80127 C 14.580829 3.766113 14.585337 3.744141 14.580829 3.717773 C 14.634916 3.722168 14.689002 3.700195 14.729567 3.665039 C 14.774639 3.625488 14.828726 3.700195 14.909856 3.647461 C 14.990986 3.594727 15.058594 3.638672 15.103666 3.612305 C 15.148738 3.585938 15.207332 3.621094 15.256911 3.594727 C 15.301983 3.563965 15.378606 3.60791 15.455228 3.546387 C 15.58143 3.590332 15.725661 3.673828 16.081731 3.60791 C 16.284555 3.572754 16.352163 3.643066 16.352163 3.735352 C 16.352163 3.796875 16.311599 3.805664 16.284555 3.805664 C 16.171875 3.814453 16.122296 3.761719 16.077224 3.779297 C 16.045673 3.788086 16.027644 3.84082 16.072716 3.854004 C 16.036659 3.875977 16.041166 3.906738 16.059195 3.919922 C 16.077224 3.933105 16.126803 3.919922 16.158353 3.906738 C 16.117788 3.924316 16.072716 3.959473 16.095252 3.994629 C 16.113281 4.016602 16.149339 4.03418 16.185397 3.990234 C 16.216947 3.941895 16.284555 3.906738 16.32512 3.911133 Z M 14.0625 2.939941 C 13.958834 2.900391 13.927284 2.895996 13.94982 2.979492 C 13.958834 3.019043 13.985877 3.067383 14.008413 3.089355 C 14.008413 3.054199 14.021935 2.95752 14.0625 2.939941 Z M 14.0625 2.939941 " transform="matrix(0.866667,0,0,0.888889,0,0)"/>
<path style="fill-rule:nonzero;fill:rgb(97.647059%,86.666667%,8.627451%);fill-opacity:1;stroke-width:0.015;stroke-linecap:butt;stroke-linejoin:miter;stroke:rgb(0%,0%,0%);stroke-opacity:1;stroke-miterlimit:4;" d="M 14.382512 2.939941 C 14.486178 2.900391 14.522236 2.895996 14.4997 2.979492 C 14.486178 3.023438 14.468149 3.058594 14.436599 3.089355 C 14.436599 3.054199 14.423077 2.95752 14.382512 2.939941 Z M 14.382512 2.939941 " transform="matrix(0.866667,0,0,0.888889,0,0)"/>
<path style="fill-rule:nonzero;fill:rgb(97.647059%,86.666667%,8.627451%);fill-opacity:1;stroke-width:0.015;stroke-linecap:butt;stroke-linejoin:miter;stroke:rgb(0%,0%,0%);stroke-opacity:1;stroke-miterlimit:4;" d="M 14.22476 2.882812 C 14.41857 2.882812 14.445613 2.975098 14.441106 3.089355 C 14.441106 3.212402 14.373498 3.168457 14.33744 3.331055 C 14.323918 3.388184 14.274339 3.392578 14.22476 3.392578 C 14.17518 3.392578 14.125601 3.388184 14.112079 3.331055 C 14.071514 3.172852 14.008413 3.212402 14.003906 3.089355 C 14.003906 2.975098 14.03095 2.882812 14.22476 2.882812 Z M 14.22476 2.882812 " transform="matrix(0.866667,0,0,0.888889,0,0)"/>
<path style="fill-rule:nonzero;fill:rgb(97.647059%,86.666667%,8.627451%);fill-opacity:1;stroke-width:0.015;stroke-linecap:butt;stroke-linejoin:miter;stroke:rgb(0%,0%,0%);stroke-opacity:1;stroke-miterlimit:4;" d="M 13.724459 3.335449 C 13.67488 3.304688 13.638822 3.32666 13.620793 3.331055 C 13.683894 3.348633 13.688401 3.432129 13.837139 3.47168 C 13.801082 3.458496 13.783053 3.480469 13.751502 3.462891 C 13.810096 3.51123 13.882212 3.563965 14.021935 3.568359 C 14.103065 3.568359 14.048978 3.60791 13.994892 3.585938 C 14.048978 3.643066 14.157151 3.594727 14.22476 3.700195 C 14.238281 3.616699 14.098558 3.493652 14.161659 3.405762 C 13.963341 3.396973 13.94982 3.287109 13.837139 3.199219 C 13.742488 3.128906 13.733474 3.054199 13.692909 2.917969 C 13.67488 2.856445 13.602764 2.821289 13.5622 2.834473 C 13.526142 2.847656 13.517127 2.878418 13.544171 2.900391 C 13.575721 2.922363 13.611779 2.926758 13.620793 2.983887 C 13.580228 2.935547 13.526142 2.917969 13.494591 2.94873 C 13.48107 2.966309 13.485577 3.005859 13.521635 3.010254 C 13.580228 3.019043 13.539663 3.076172 13.607272 3.133301 C 13.548678 3.062988 13.494591 3.058594 13.463041 3.09375 C 13.445012 3.115723 13.463041 3.155273 13.503606 3.150879 C 13.5622 3.146484 13.634315 3.295898 13.724459 3.335449 Z M 15.320012 3.902344 C 15.288462 3.911133 15.297476 3.959473 15.256911 3.963867 C 15.35607 3.963867 15.410156 3.941895 15.455228 3.902344 C 15.432692 3.915527 15.423678 3.946289 15.423678 3.963867 C 15.477764 3.919922 15.603966 3.915527 15.667067 3.928711 C 15.734675 3.941895 15.748197 3.911133 15.770733 3.867188 C 15.793269 3.827637 15.761719 3.80127 15.730168 3.770508 C 15.694111 3.735352 15.689603 3.691406 15.694111 3.612305 C 15.518329 3.379395 15.202825 3.493652 15.198317 3.594727 C 15.310998 3.726562 15.329026 3.713379 15.423678 3.730957 C 15.518329 3.748535 15.576923 3.748535 15.513822 3.80127 C 15.491286 3.818848 15.401142 3.810059 15.329026 3.814453 C 15.166767 3.823242 15.094651 3.70459 15.045072 3.766113 C 15.009014 3.814453 15.045072 3.836426 15.126202 3.836426 C 15.072115 3.836426 15 3.832031 15.013522 3.884766 C 15.03155 3.968262 15.117187 3.867188 15.148738 3.902344 C 15.121695 3.897949 15.076623 3.915527 15.076623 3.941895 C 15.072115 3.963867 15.135216 3.999023 15.207332 3.946289 C 15.238882 3.919922 15.279447 3.906738 15.320012 3.902344 Z M 15.320012 3.902344 " transform="matrix(0.866667,0,0,0.888889,0,0)"/>
<path style="fill-rule:nonzero;fill:rgb(97.647059%,86.666667%,8.627451%);fill-opacity:1;stroke-width:0.015;stroke-linecap:butt;stroke-linejoin:miter;stroke:rgb(0%,0%,0%);stroke-opacity:1;stroke-miterlimit:4;" d="M 15.455228 3.546387 C 15.401142 3.52002 15.338041 3.515625 15.279447 3.524414 M 14.594351 3.52002 C 14.544772 3.621094 14.571815 3.669434 14.580829 3.717773 M 14.089543 3.036621 C 14.121094 3.054199 14.139123 3.005859 14.188702 3.058594 C 14.17518 3.041016 14.157151 3.09375 14.121094 3.058594 M 14.355469 3.036621 C 14.323918 3.054199 14.305889 3.005859 14.25631 3.058594 C 14.269832 3.041016 14.287861 3.09375 14.323918 3.058594 " transform="matrix(0.866667,0,0,0.888889,0,0)"/>
<path style="fill-rule:nonzero;fill:rgb(97.647059%,86.666667%,8.627451%);fill-opacity:1;stroke-width:0.015;stroke-linecap:butt;stroke-linejoin:miter;stroke:rgb(0%,0%,0%);stroke-opacity:1;stroke-miterlimit:4;" d="M 14.25631 3.054199 C 14.247296 3.067383 14.242788 3.049805 14.251803 3.09375 C 14.269832 3.172852 14.287861 3.208008 14.22476 3.208008 C 14.157151 3.208008 14.17518 3.172852 14.193209 3.09375 C 14.202224 3.049805 14.202224 3.067383 14.188702 3.054199 " transform="matrix(0.866667,0,0,0.888889,0,0)"/>
<path style="fill-rule:nonzero;fill:rgb(100%,0%,8.627451%);fill-opacity:1;stroke-width:0.008;stroke-linecap:butt;stroke-linejoin:miter;stroke:rgb(0%,0%,0%);stroke-opacity:1;stroke-miterlimit:4;" d="M 14.22476 3.361816 C 14.274339 3.361816 14.305889 3.361816 14.296875 3.287109 C 14.296875 3.256348 14.332933 3.247559 14.319411 3.199219 C 14.332933 3.256348 14.22476 3.251953 14.22476 3.225586 C 14.22476 3.251953 14.112079 3.256348 14.125601 3.199219 C 14.112079 3.247559 14.152644 3.256348 14.148137 3.287109 C 14.139123 3.361816 14.170673 3.361816 14.22476 3.361816 Z M 14.17518 3.212402 L 14.048978 3.177246 M 14.17518 3.221191 L 14.035457 3.216797 M 14.179687 3.225586 L 14.057993 3.260742 M 14.269832 3.212402 L 14.396034 3.177246 M 14.269832 3.221191 L 14.409555 3.216797 M 14.269832 3.225586 L 14.391526 3.260742 " transform="matrix(0.866667,0,0,0.888889,0,0)"/>
<path style="fill-rule:nonzero;fill:rgb(0%,31.764706%,72.941176%);fill-opacity:1;stroke-width:0.002;stroke-linecap:butt;stroke-linejoin:miter;stroke:rgb(0%,0%,0%);stroke-opacity:1;stroke-miterlimit:4;" d="M 13.571214 2.838867 C 13.535156 2.790527 13.445012 2.830078 13.445012 2.887207 C 13.472055 2.852051 13.526142 2.904785 13.553185 2.891602 C 13.571214 2.882812 13.589243 2.856445 13.571214 2.838867 Z M 13.526142 2.944336 C 13.490084 2.900391 13.39994 2.939941 13.395433 2.99707 C 13.426983 2.95752 13.476562 3.010254 13.503606 2.99707 C 13.526142 2.992676 13.539663 2.961914 13.526142 2.944336 Z M 13.503606 3.089355 C 13.463041 3.049805 13.372897 3.098145 13.377404 3.150879 C 13.404447 3.111328 13.463041 3.159668 13.485577 3.146484 C 13.508113 3.137695 13.517127 3.106934 13.503606 3.089355 Z M 13.544171 3.537598 C 13.499099 3.502441 13.417969 3.55957 13.43149 3.616699 C 13.454026 3.572754 13.51262 3.612305 13.539663 3.594727 C 13.553185 3.585938 13.5622 3.550781 13.544171 3.537598 Z M 13.544171 3.634277 C 13.490084 3.616699 13.43149 3.695801 13.458534 3.744141 C 13.463041 3.700195 13.535156 3.717773 13.553185 3.691406 C 13.566707 3.678223 13.566707 3.643066 13.544171 3.634277 Z M 13.611779 3.708984 C 13.557692 3.687012 13.499099 3.770508 13.526142 3.818848 C 13.535156 3.770508 13.607272 3.788086 13.6253 3.766113 C 13.634315 3.748535 13.634315 3.717773 13.611779 3.708984 Z M 15.049579 3.849609 C 14.990986 3.832031 14.932392 3.911133 14.963942 3.959473 C 14.96845 3.911133 15.040565 3.933105 15.058594 3.911133 C 15.072115 3.893555 15.072115 3.858398 15.049579 3.849609 Z M 15.121695 3.919922 C 15.063101 3.902344 15.018029 3.990234 15.049579 4.03418 C 15.049579 3.98584 15.121695 3.999023 15.139724 3.972656 C 15.148738 3.955078 15.144231 3.924316 15.121695 3.919922 Z M 15.072115 3.757324 C 15.018029 3.726562 14.945913 3.796875 14.963942 3.849609 C 14.981971 3.805664 15.049579 3.836426 15.072115 3.814453 C 15.085637 3.80127 15.090144 3.770508 15.072115 3.757324 Z M 16.090745 3.871582 C 16.032151 3.858398 15.982572 3.941895 16.01863 3.990234 C 16.01863 3.941895 16.090745 3.955078 16.108774 3.928711 C 16.117788 3.911133 16.113281 3.875977 16.090745 3.871582 Z M 16.090745 3.783691 C 16.041166 3.75293 15.96905 3.827637 15.991587 3.875977 C 16.005108 3.832031 16.072716 3.862793 16.095252 3.84082 C 16.108774 3.827637 16.113281 3.79248 16.090745 3.783691 Z M 16.13131 3.950684 C 16.072716 3.941895 16.027644 4.029785 16.063702 4.07373 C 16.063702 4.025391 16.135817 4.03418 16.149339 4.007812 C 16.158353 3.990234 16.153846 3.955078 16.13131 3.950684 Z M 14.229267 3.317871 C 14.265325 3.317871 14.278846 3.32666 14.278846 3.392578 C 14.278846 3.528809 14.278846 3.590332 14.233774 3.590332 C 14.188702 3.590332 14.193209 3.533203 14.193209 3.432129 C 14.193209 3.379395 14.193209 3.353027 14.179687 3.357422 C 14.179687 3.322266 14.197716 3.317871 14.229267 3.317871 Z M 14.229267 3.317871 " transform="matrix(0.866667,0,0,0.888889,0,0)"/>
<path style="fill-rule:nonzero;fill:rgb(97.647059%,86.666667%,8.627451%);fill-opacity:1;stroke-width:0.015;stroke-linecap:butt;stroke-linejoin:miter;stroke:rgb(0%,0%,0%);stroke-opacity:1;stroke-miterlimit:4;" d="M 16.324257 3.909935 C 16.284193 3.919701 16.284193 3.968529 16.264161 3.968529 C 16.364322 3.968529 16.414402 3.939232 16.44445 3.890404 C 16.424418 3.909935 16.44445 3.948997 16.434434 3.95388 C 16.509554 3.929466 16.54461 3.86599 16.514562 3.826927 C 16.534594 3.851341 16.579666 3.861107 16.59469 3.86599 C 16.54461 3.826927 16.579666 3.734154 16.499538 3.685326 C 16.524578 3.685326 16.579666 3.714622 16.59469 3.748802 C 16.579666 3.665794 16.56965 3.616966 16.499538 3.568138 C 16.509554 3.577904 16.54461 3.582786 16.564642 3.568138 C 16.529586 3.548607 16.504546 3.509544 16.509554 3.465599 C 16.514562 3.426536 16.489522 3.416771 16.434434 3.431419 C 16.364322 3.441185 16.294209 3.446068 16.224097 3.446068 C 16.093889 3.446068 15.978705 3.446068 15.873536 3.372826 C 16.033793 3.441185 16.239121 3.299583 16.239121 3.187279 C 16.239121 3.055443 16.078865 2.952904 15.76336 3.021263 C 15.442847 3.089622 15.052222 3.060326 15.052222 2.957786 C 15.052222 2.850365 15.332671 2.835716 15.472895 2.855247 C 15.618128 2.879661 15.718288 2.89431 15.988721 2.796654 C 15.923616 2.825951 15.708272 2.830833 15.537999 2.782005 C 15.372735 2.733177 14.95707 2.733177 14.952062 2.957786 C 14.947054 3.182396 15.392767 3.162865 15.778384 3.104271 C 16.003745 3.074974 16.118929 3.094505 16.118929 3.167747 C 16.118929 3.24099 15.9136 3.270286 15.758352 3.250755 C 15.58808 3.226341 15.412799 3.24099 15.247535 3.289818 C 15.092286 3.333763 14.987118 3.289818 14.811838 3.319115 C 14.731709 3.333763 14.526381 3.319115 14.426221 3.153099 C 14.366124 3.197044 14.180828 3.289818 14.15078 3.377708 C 14.105708 3.460716 14.135756 3.543724 14.190844 3.626732 C 14.265964 3.729271 14.155788 3.70974 14.07566 3.714622 C 13.970491 3.719505 13.825259 3.704857 13.750139 3.616966 C 13.680027 3.543724 13.589882 3.480247 13.51977 3.538841 C 13.484714 3.568138 13.51977 3.607201 13.549818 3.597435 C 13.574858 3.582786 13.609915 3.607201 13.639963 3.616966 C 13.599899 3.602318 13.554826 3.607201 13.51977 3.631615 C 13.489722 3.660911 13.524778 3.70974 13.559834 3.690208 C 13.584874 3.67556 13.644971 3.665794 13.680027 3.699974 C 13.639963 3.695091 13.599899 3.695091 13.579866 3.714622 C 13.559834 3.739036 13.574858 3.768333 13.614923 3.768333 C 13.685035 3.763451 13.705067 3.812279 13.770171 3.802513 C 13.740123 3.802513 13.715083 3.822044 13.695051 3.846458 C 13.760155 3.817161 13.830267 3.895286 13.915403 3.875755 C 13.880347 3.890404 13.830267 3.924583 13.830267 3.948997 C 13.880347 3.890404 14.210876 3.992943 14.220892 3.86599 C 14.230908 3.900169 14.220892 3.939232 14.20086 3.963646 C 14.240924 3.939232 14.381149 3.929466 14.421213 3.83181 C 14.426221 3.861107 14.421213 3.900169 14.396173 3.905052 C 14.441245 3.919701 14.496333 3.890404 14.556429 3.79763 C 14.581469 3.763451 14.586477 3.743919 14.581469 3.714622 C 14.636557 3.719505 14.686637 3.699974 14.726701 3.665794 C 14.776782 3.626732 14.826862 3.699974 14.90699 3.646263 C 14.987118 3.597435 15.05723 3.64138 15.102302 3.612083 C 15.147374 3.587669 15.207471 3.621849 15.257551 3.592552 C 15.302623 3.563255 15.377743 3.607201 15.457871 3.543724 C 15.583072 3.587669 15.728304 3.67556 16.083873 3.607201 C 16.284193 3.573021 16.349298 3.64138 16.349298 3.734154 C 16.349298 3.79763 16.314241 3.802513 16.284193 3.807396 C 16.169009 3.812279 16.123937 3.763451 16.078865 3.778099 C 16.048817 3.787865 16.028785 3.836693 16.073857 3.856224 C 16.033793 3.875755 16.038801 3.909935 16.058833 3.919701 C 16.078865 3.934349 16.123937 3.919701 16.158993 3.905052 C 16.113921 3.924583 16.073857 3.958763 16.098897 3.992943 C 16.113921 4.017357 16.148977 4.032005 16.184033 3.98806 C 16.219089 3.944115 16.284193 3.905052 16.324257 3.909935 Z M 14.060636 2.943138 C 13.960475 2.899193 13.925419 2.899193 13.950459 2.982201 C 13.960475 3.01638 13.985515 3.070091 14.010556 3.089622 C 14.010556 3.055443 14.020572 2.957786 14.060636 2.943138 Z M 14.060636 2.943138 " transform="matrix(0.78,0,0,0.8,1.259267,1.485333)"/>
<path style="fill-rule:nonzero;fill:rgb(97.647059%,86.666667%,8.627451%);fill-opacity:1;stroke-width:0.015;stroke-linecap:butt;stroke-linejoin:miter;stroke:rgb(0%,0%,0%);stroke-opacity:1;stroke-miterlimit:4;" d="M 14.386157 2.943138 C 14.486317 2.899193 14.521373 2.899193 14.496333 2.982201 C 14.486317 3.021263 14.466285 3.060326 14.436237 3.089622 C 14.436237 3.055443 14.426221 2.957786 14.386157 2.943138 Z M 14.386157 2.943138 " transform="matrix(0.78,0,0,0.8,1.259267,1.485333)"/>
<path style="fill-rule:nonzero;fill:rgb(97.647059%,86.666667%,8.627451%);fill-opacity:1;stroke-width:0.015;stroke-linecap:butt;stroke-linejoin:miter;stroke:rgb(0%,0%,0%);stroke-opacity:1;stroke-miterlimit:4;" d="M 14.2259 2.884544 C 14.421213 2.884544 14.446253 2.977318 14.441245 3.089622 C 14.441245 3.211693 14.37614 3.167747 14.336076 3.32888 C 14.321052 3.392357 14.27598 3.392357 14.2259 3.392357 C 14.17582 3.392357 14.12574 3.392357 14.110716 3.32888 C 14.070652 3.17263 14.005548 3.211693 14.005548 3.089622 C 14.005548 2.977318 14.030588 2.884544 14.2259 2.884544 Z M 14.2259 2.884544 " transform="matrix(0.78,0,0,0.8,1.259267,1.485333)"/>
<path style="fill-rule:nonzero;fill:rgb(97.647059%,86.666667%,8.627451%);fill-opacity:1;stroke-width:0.015;stroke-linecap:butt;stroke-linejoin:miter;stroke:rgb(0%,0%,0%);stroke-opacity:1;stroke-miterlimit:4;" d="M 13.725099 3.333763 C 13.675019 3.304466 13.639963 3.323997 13.619931 3.333763 C 13.685035 3.348411 13.690043 3.431419 13.835275 3.470482 C 13.800219 3.460716 13.785195 3.480247 13.750139 3.460716 C 13.810235 3.509544 13.880347 3.568138 14.02558 3.568138 C 14.105708 3.568138 14.045612 3.607201 13.995532 3.587669 C 14.05062 3.64138 14.155788 3.597435 14.2259 3.699974 C 14.240924 3.616966 14.1007 3.494896 14.160796 3.402122 C 13.965483 3.39724 13.950459 3.284935 13.835275 3.197044 C 13.740123 3.128685 13.735115 3.055443 13.690043 2.918724 C 13.675019 2.86013 13.599899 2.821068 13.559834 2.835716 C 13.524778 2.845482 13.514762 2.879661 13.54481 2.899193 C 13.574858 2.923607 13.614923 2.923607 13.619931 2.982201 C 13.579866 2.938255 13.524778 2.918724 13.49473 2.948021 C 13.479706 2.967552 13.484714 3.006615 13.51977 3.011497 C 13.579866 3.01638 13.539802 3.074974 13.604907 3.133568 C 13.54481 3.065208 13.49473 3.060326 13.464682 3.094505 C 13.44465 3.118919 13.464682 3.157982 13.504746 3.153099 C 13.564842 3.148216 13.634955 3.294701 13.725099 3.333763 Z M 15.317647 3.905052 C 15.287599 3.909935 15.297615 3.958763 15.257551 3.963646 C 15.357711 3.963646 15.407791 3.939232 15.457871 3.900169 C 15.432831 3.914818 15.422815 3.948997 15.422815 3.963646 C 15.477903 3.919701 15.603104 3.914818 15.668208 3.929466 C 15.733312 3.944115 15.748336 3.909935 15.768368 3.870872 C 15.793408 3.826927 15.76336 3.802513 15.728304 3.768333 C 15.693248 3.734154 15.68824 3.690208 15.693248 3.612083 C 15.517967 3.377708 15.202463 3.490013 15.197455 3.597435 C 15.312639 3.729271 15.327663 3.70974 15.422815 3.729271 C 15.517967 3.748802 15.578064 3.748802 15.512959 3.802513 C 15.492927 3.822044 15.397775 3.812279 15.327663 3.817161 C 15.167407 3.822044 15.092286 3.704857 15.047214 3.763451 C 15.00715 3.817161 15.047214 3.836693 15.127342 3.836693 C 15.072254 3.836693 14.997134 3.83181 15.012158 3.885521 C 15.03219 3.968529 15.117326 3.86599 15.147374 3.905052 C 15.122334 3.895286 15.077262 3.914818 15.077262 3.939232 C 15.072254 3.963646 15.137358 3.997826 15.207471 3.944115 C 15.237519 3.919701 15.277583 3.905052 15.317647 3.905052 Z M 15.317647 3.905052 " transform="matrix(0.78,0,0,0.8,1.259267,1.485333)"/>
<path style="fill-rule:nonzero;fill:rgb(97.647059%,86.666667%,8.627451%);fill-opacity:1;stroke-width:0.015;stroke-linecap:butt;stroke-linejoin:miter;stroke:rgb(0%,0%,0%);stroke-opacity:1;stroke-miterlimit:4;" d="M 15.457871 3.543724 C 15.402783 3.51931 15.337679 3.514427 15.277583 3.524193 M 14.591485 3.51931 C 14.546413 3.616966 14.576461 3.670677 14.581469 3.714622 M 14.090684 3.035911 C 14.120732 3.055443 14.140764 3.006615 14.190844 3.055443 C 14.17582 3.040794 14.160796 3.094505 14.120732 3.060326 M 14.356108 3.035911 C 14.321052 3.055443 14.306028 3.006615 14.255948 3.055443 C 14.270972 3.040794 14.285996 3.094505 14.321052 3.060326 " transform="matrix(0.78,0,0,0.8,1.259267,1.485333)"/>
<path style="fill-rule:nonzero;fill:rgb(97.647059%,86.666667%,8.627451%);fill-opacity:1;stroke-width:0.015;stroke-linecap:butt;stroke-linejoin:miter;stroke:rgb(0%,0%,0%);stroke-opacity:1;stroke-miterlimit:4;" d="M 14.255948 3.055443 C 14.245932 3.065208 14.245932 3.05056 14.25094 3.089622 C 14.270972 3.17263 14.285996 3.20681 14.220892 3.20681 C 14.155788 3.20681 14.17582 3.17263 14.190844 3.089622 C 14.20086 3.05056 14.20086 3.065208 14.190844 3.055443 " transform="matrix(0.78,0,0,0.8,1.259267,1.485333)"/>
<path style="fill-rule:nonzero;fill:rgb(100%,0%,8.627451%);fill-opacity:1;stroke-width:0.008;stroke-linecap:butt;stroke-linejoin:miter;stroke:rgb(0%,0%,0%);stroke-opacity:1;stroke-miterlimit:4;" d="M 14.2259 3.36306 C 14.27598 3.36306 14.306028 3.36306 14.296012 3.284935 C 14.296012 3.255638 14.336076 3.245872 14.321052 3.197044 C 14.336076 3.255638 14.2259 3.250755 14.2259 3.226341 C 14.2259 3.250755 14.110716 3.255638 14.12574 3.197044 C 14.115724 3.245872 14.15078 3.255638 14.15078 3.289818 C 14.140764 3.36306 14.170812 3.36306 14.2259 3.36306 Z M 14.17582 3.211693 L 14.05062 3.177513 M 14.17582 3.221458 L 14.035596 3.216576 M 14.17582 3.226341 L 14.055628 3.260521 M 14.270972 3.211693 L 14.396173 3.177513 M 14.270972 3.221458 L 14.411197 3.216576 M 14.270972 3.226341 L 14.391165 3.260521 " transform="matrix(0.78,0,0,0.8,1.259267,1.485333)"/>
<path style="fill-rule:nonzero;fill:rgb(0%,31.764706%,72.941176%);fill-opacity:1;stroke-width:0.002;stroke-linecap:butt;stroke-linejoin:miter;stroke:rgb(0%,0%,0%);stroke-opacity:1;stroke-miterlimit:4;" d="M 13.574858 2.835716 C 13.534794 2.791771 13.44465 2.830833 13.44465 2.889427 C 13.474698 2.850365 13.524778 2.904076 13.554826 2.89431 C 13.56985 2.884544 13.589882 2.855247 13.574858 2.835716 Z M 13.524778 2.943138 C 13.489722 2.899193 13.399578 2.938255 13.39457 2.996849 C 13.424618 2.957786 13.474698 3.011497 13.504746 2.996849 C 13.524778 2.991966 13.539802 2.962669 13.524778 2.943138 Z M 13.499738 3.089622 C 13.459674 3.045677 13.374538 3.099388 13.379546 3.153099 C 13.404586 3.114036 13.459674 3.157982 13.484714 3.148216 C 13.504746 3.133568 13.51977 3.104271 13.499738 3.089622 Z M 13.54481 3.538841 C 13.499738 3.499779 13.41961 3.558372 13.429626 3.616966 C 13.449658 3.573021 13.514762 3.612083 13.539802 3.597435 C 13.554826 3.582786 13.564842 3.55349 13.54481 3.538841 Z M 13.54481 3.636497 C 13.489722 3.616966 13.429626 3.695091 13.459674 3.743919 C 13.464682 3.699974 13.534794 3.714622 13.554826 3.695091 C 13.564842 3.67556 13.564842 3.646263 13.54481 3.636497 Z M 13.614923 3.70974 C 13.559834 3.690208 13.499738 3.768333 13.529786 3.817161 C 13.534794 3.773216 13.604907 3.787865 13.624939 3.768333 C 13.634955 3.748802 13.634955 3.714622 13.614923 3.70974 Z M 15.047214 3.851341 C 14.992126 3.83181 14.93203 3.909935 14.962078 3.958763 C 14.967086 3.914818 15.042206 3.934349 15.05723 3.909935 C 15.072254 3.890404 15.072254 3.861107 15.047214 3.851341 Z M 15.122334 3.919701 C 15.067246 3.905052 15.017166 3.98806 15.047214 4.036888 C 15.052222 3.98806 15.122334 3.997826 15.137358 3.973411 C 15.147374 3.95388 15.147374 3.924583 15.122334 3.919701 Z M 15.072254 3.758568 C 15.017166 3.729271 14.947054 3.79763 14.967086 3.851341 C 14.98211 3.807396 15.047214 3.836693 15.072254 3.817161 C 15.087278 3.802513 15.092286 3.768333 15.072254 3.758568 Z M 16.088881 3.870872 C 16.033793 3.856224 15.983713 3.944115 16.018769 3.98806 C 16.018769 3.944115 16.088881 3.95388 16.108913 3.929466 C 16.118929 3.909935 16.113921 3.875755 16.088881 3.870872 Z M 16.088881 3.782982 C 16.038801 3.753685 15.968689 3.826927 15.988721 3.875755 C 16.003745 3.83181 16.073857 3.861107 16.093889 3.841576 C 16.108913 3.826927 16.113921 3.792747 16.088881 3.782982 Z M 16.128945 3.95388 C 16.073857 3.944115 16.028785 4.027122 16.063841 4.075951 C 16.063841 4.027122 16.133953 4.032005 16.148977 4.007591 C 16.158993 3.98806 16.153985 3.958763 16.128945 3.95388 Z M 14.2259 3.319115 C 14.265964 3.319115 14.27598 3.32888 14.27598 3.392357 C 14.27598 3.529076 14.27598 3.587669 14.230908 3.587669 C 14.185836 3.587669 14.190844 3.533958 14.190844 3.431419 C 14.190844 3.377708 14.190844 3.353294 14.180828 3.358177 C 14.180828 3.323997 14.195852 3.319115 14.2259 3.319115 Z M 14.2259 3.319115 " transform="matrix(0.78,0,0,0.8,1.259267,1.485333)"/>
<path style="fill-rule:nonzero;fill:rgb(97.647059%,86.666667%,8.627451%);fill-opacity:1;stroke-width:0.015;stroke-linecap:butt;stroke-linejoin:miter;stroke:rgb(0%,0%,0%);stroke-opacity:1;stroke-miterlimit:4;" d="M 16.325904 3.912766 C 16.285541 3.918625 16.285541 3.971359 16.26536 3.971359 C 16.366267 3.9655 16.413357 3.936203 16.446993 3.889328 C 16.420085 3.906906 16.440266 3.947922 16.433539 3.953781 C 16.507538 3.930344 16.541174 3.865891 16.514265 3.824875 C 16.534447 3.848313 16.581537 3.865891 16.594991 3.865891 C 16.547901 3.824875 16.581537 3.731125 16.500811 3.68425 C 16.52772 3.68425 16.581537 3.713547 16.594991 3.748703 C 16.581537 3.666672 16.568083 3.613938 16.500811 3.567063 C 16.507538 3.578781 16.547901 3.584641 16.561355 3.567063 C 16.52772 3.549484 16.507538 3.508469 16.507538 3.467453 C 16.514265 3.426438 16.487356 3.414719 16.433539 3.432297 C 16.366267 3.444016 16.292268 3.449875 16.224996 3.449875 C 16.090453 3.449875 15.982818 3.449875 15.875183 3.373703 C 16.036635 3.438156 16.238451 3.303391 16.238451 3.186203 C 16.238451 3.057297 16.076998 2.951828 15.760821 3.022141 C 15.437916 3.092453 15.054467 3.063156 15.054467 2.957688 C 15.054467 2.846359 15.330281 2.834641 15.471552 2.858078 C 15.61955 2.881516 15.720458 2.893234 15.989545 2.799484 C 15.922273 2.822922 15.707003 2.828781 15.538824 2.781906 C 15.370644 2.735031 14.953559 2.735031 14.953559 2.957688 C 14.946832 3.180344 15.397553 3.162766 15.781002 3.104172 C 16.002999 3.074875 16.124089 3.098313 16.124089 3.168625 C 16.124089 3.238938 15.915546 3.268234 15.754094 3.250656 C 15.585914 3.227219 15.411007 3.238938 15.249555 3.291672 C 15.09483 3.338547 14.987195 3.291672 14.812288 3.320969 C 14.731562 3.332688 14.529747 3.320969 14.428839 3.156906 C 14.368294 3.197922 14.179933 3.291672 14.146297 3.379563 C 14.105934 3.461594 14.132843 3.543625 14.193388 3.625656 C 14.267387 3.725266 14.153025 3.713547 14.079026 3.713547 C 13.971391 3.719406 13.823393 3.701828 13.749394 3.619797 C 13.682122 3.543625 13.594668 3.479172 13.520669 3.537766 C 13.487034 3.567063 13.520669 3.602219 13.547578 3.596359 C 13.574487 3.584641 13.608123 3.602219 13.641759 3.619797 C 13.601396 3.602219 13.554305 3.608078 13.520669 3.631516 C 13.487034 3.660813 13.520669 3.707688 13.561033 3.690109 C 13.587941 3.678391 13.641759 3.666672 13.682122 3.701828 C 13.641759 3.695969 13.601396 3.695969 13.581214 3.719406 C 13.561033 3.736984 13.574487 3.766281 13.61485 3.766281 C 13.688849 3.766281 13.702303 3.813156 13.769575 3.801438 C 13.742666 3.807297 13.715758 3.819016 13.695576 3.848313 C 13.756121 3.813156 13.83012 3.895188 13.910846 3.877609 C 13.883937 3.889328 13.83012 3.924484 13.83012 3.947922 C 13.87721 3.889328 14.213569 3.988938 14.220296 3.865891 C 14.227024 3.901047 14.220296 3.936203 14.200115 3.9655 C 14.240478 3.936203 14.381749 3.930344 14.422112 3.830734 C 14.428839 3.860031 14.422112 3.895188 14.395203 3.906906 C 14.442293 3.918625 14.496111 3.889328 14.556655 3.801438 C 14.576837 3.766281 14.583564 3.742844 14.583564 3.713547 C 14.637382 3.719406 14.691199 3.701828 14.731562 3.666672 C 14.778652 3.625656 14.825743 3.695969 14.906469 3.643234 C 14.987195 3.596359 15.061194 3.637375 15.101557 3.613938 C 15.148647 3.584641 15.209192 3.625656 15.256282 3.5905 C 15.303373 3.561203 15.377372 3.608078 15.458098 3.543625 C 15.579187 3.5905 15.727185 3.672531 16.083726 3.608078 C 16.285541 3.572922 16.352813 3.643234 16.352813 3.731125 C 16.352813 3.801438 16.31245 3.801438 16.285541 3.807297 C 16.171179 3.813156 16.124089 3.760422 16.076998 3.778 C 16.05009 3.789719 16.029908 3.836594 16.070271 3.854172 C 16.036635 3.87175 16.043363 3.906906 16.056817 3.918625 C 16.076998 3.936203 16.124089 3.924484 16.157725 3.906906 C 16.117362 3.924484 16.070271 3.959641 16.09718 3.994797 C 16.110634 4.012375 16.150997 4.035813 16.184633 3.988938 C 16.218269 3.942063 16.285541 3.906906 16.325904 3.912766 Z M 14.065571 2.940109 C 13.957936 2.899094 13.9243 2.899094 13.951209 2.981125 C 13.957936 3.016281 13.984845 3.069016 14.011754 3.092453 C 14.011754 3.057297 14.025208 2.957688 14.065571 2.940109 Z M 14.065571 2.940109 " transform="matrix(0.580667,0,0,0.666667,4.254467,2.981333)"/>
<path style="fill-rule:nonzero;fill:rgb(97.647059%,86.666667%,8.627451%);fill-opacity:1;stroke-width:0.015;stroke-linecap:butt;stroke-linejoin:miter;stroke:rgb(0%,0%,0%);stroke-opacity:1;stroke-miterlimit:4;" d="M 14.381749 2.940109 C 14.489384 2.899094 14.52302 2.899094 14.496111 2.981125 C 14.489384 3.022141 14.469202 3.057297 14.435566 3.092453 C 14.435566 3.057297 14.422112 2.957688 14.381749 2.940109 Z M 14.381749 2.940109 " transform="matrix(0.580667,0,0,0.666667,4.254467,2.981333)"/>
<path style="fill-rule:nonzero;fill:rgb(97.647059%,86.666667%,8.627451%);fill-opacity:1;stroke-width:0.015;stroke-linecap:butt;stroke-linejoin:miter;stroke:rgb(0%,0%,0%);stroke-opacity:1;stroke-miterlimit:4;" d="M 14.227024 2.887375 C 14.422112 2.887375 14.442293 2.975266 14.442293 3.092453 C 14.442293 3.2155 14.375022 3.168625 14.334658 3.326828 C 14.321204 3.391281 14.274114 3.391281 14.227024 3.391281 C 14.173206 3.391281 14.126116 3.391281 14.112661 3.326828 C 14.072298 3.168625 14.005027 3.2155 14.005027 3.086594 C 14.005027 2.975266 14.031935 2.887375 14.227024 2.887375 Z M 14.227024 2.887375 " transform="matrix(0.580667,0,0,0.666667,4.254467,2.981333)"/>
<path style="fill-rule:nonzero;fill:rgb(97.647059%,86.666667%,8.627451%);fill-opacity:1;stroke-width:0.015;stroke-linecap:butt;stroke-linejoin:miter;stroke:rgb(0%,0%,0%);stroke-opacity:1;stroke-miterlimit:4;" d="M 13.722485 3.338547 C 13.675395 3.303391 13.641759 3.326828 13.621577 3.332688 C 13.682122 3.350266 13.688849 3.432297 13.836847 3.467453 C 13.803211 3.461594 13.78303 3.479172 13.749394 3.461594 C 13.809938 3.508469 13.87721 3.567063 14.025208 3.567063 C 14.105934 3.567063 14.04539 3.608078 13.998299 3.584641 C 14.052117 3.643234 14.159752 3.596359 14.227024 3.695969 C 14.240478 3.619797 14.099207 3.49675 14.159752 3.403 C 13.964663 3.397141 13.951209 3.285813 13.836847 3.197922 C 13.742666 3.127609 13.735939 3.057297 13.688849 2.922531 C 13.675395 2.858078 13.601396 2.822922 13.561033 2.834641 C 13.527397 2.846359 13.513942 2.875656 13.547578 2.899094 C 13.574487 2.922531 13.61485 2.928391 13.621577 2.981125 C 13.581214 2.93425 13.520669 2.916672 13.493761 2.951828 C 13.480306 2.963547 13.487034 3.004563 13.520669 3.010422 C 13.581214 3.016281 13.540851 3.074875 13.608123 3.133469 C 13.547578 3.063156 13.493761 3.057297 13.460125 3.092453 C 13.439943 3.115891 13.460125 3.156906 13.507215 3.151047 C 13.561033 3.145188 13.635032 3.297531 13.722485 3.338547 Z M 15.316827 3.901047 C 15.289918 3.906906 15.296645 3.959641 15.256282 3.9655 C 15.35719 3.9655 15.411007 3.942063 15.458098 3.901047 C 15.431189 3.912766 15.424462 3.947922 15.424462 3.9655 C 15.478279 3.918625 15.606096 3.918625 15.66664 3.930344 C 15.733912 3.942063 15.747367 3.912766 15.767548 3.87175 C 15.794457 3.824875 15.760821 3.801438 15.727185 3.766281 C 15.693549 3.736984 15.686822 3.690109 15.693549 3.613938 C 15.518642 3.379563 15.202465 3.490891 15.195738 3.596359 C 15.3101 3.725266 15.330281 3.713547 15.424462 3.731125 C 15.518642 3.748703 15.579187 3.748703 15.511915 3.801438 C 15.491734 3.819016 15.397553 3.813156 15.330281 3.813156 C 15.168829 3.824875 15.09483 3.707688 15.04774 3.766281 C 15.007377 3.813156 15.04774 3.836594 15.128466 3.836594 C 15.074648 3.836594 15.000649 3.830734 15.014104 3.883469 C 15.034285 3.971359 15.115011 3.865891 15.148647 3.906906 C 15.121739 3.895188 15.074648 3.912766 15.074648 3.942063 C 15.074648 3.9655 15.135193 4.000656 15.209192 3.947922 C 15.236101 3.918625 15.276464 3.906906 15.316827 3.901047 Z M 15.316827 3.901047 " transform="matrix(0.580667,0,0,0.666667,4.254467,2.981333)"/>
<path style="fill-rule:nonzero;fill:rgb(97.647059%,86.666667%,8.627451%);fill-opacity:1;stroke-width:0.015;stroke-linecap:butt;stroke-linejoin:miter;stroke:rgb(0%,0%,0%);stroke-opacity:1;stroke-miterlimit:4;" d="M 15.458098 3.543625 C 15.40428 3.520188 15.337008 3.514328 15.283191 3.526047 M 14.590291 3.520188 C 14.543201 3.619797 14.576837 3.666672 14.583564 3.713547 M 14.09248 3.039719 C 14.126116 3.051438 14.13957 3.004563 14.18666 3.057297 C 14.173206 3.039719 14.159752 3.092453 14.126116 3.057297 M 14.35484 3.039719 C 14.321204 3.051438 14.30775 3.004563 14.253932 3.057297 C 14.267387 3.039719 14.287568 3.092453 14.321204 3.057297 " transform="matrix(0.580667,0,0,0.666667,4.254467,2.981333)"/>
<path style="fill-rule:nonzero;fill:rgb(97.647059%,86.666667%,8.627451%);fill-opacity:1;stroke-width:0.015;stroke-linecap:butt;stroke-linejoin:miter;stroke:rgb(0%,0%,0%);stroke-opacity:1;stroke-miterlimit:4;" d="M 14.253932 3.057297 C 14.247205 3.063156 14.247205 3.051438 14.253932 3.092453 C 14.267387 3.174484 14.287568 3.209641 14.220296 3.209641 C 14.159752 3.209641 14.179933 3.174484 14.193388 3.092453 C 14.200115 3.051438 14.200115 3.063156 14.18666 3.057297 " transform="matrix(0.580667,0,0,0.666667,4.254467,2.981333)"/>
<path style="fill-rule:nonzero;fill:rgb(100%,0%,8.627451%);fill-opacity:1;stroke-width:0.008;stroke-linecap:butt;stroke-linejoin:miter;stroke:rgb(0%,0%,0%);stroke-opacity:1;stroke-miterlimit:4;" d="M 14.227024 3.361984 C 14.274114 3.361984 14.30775 3.361984 14.301023 3.285813 C 14.294295 3.256516 14.334658 3.244797 14.321204 3.197922 C 14.334658 3.256516 14.227024 3.250656 14.227024 3.227219 C 14.227024 3.250656 14.112661 3.256516 14.126116 3.197922 C 14.112661 3.244797 14.153025 3.256516 14.146297 3.285813 C 14.13957 3.361984 14.173206 3.361984 14.227024 3.361984 Z M 14.179933 3.2155 L 14.052117 3.180344 M 14.179933 3.221359 L 14.038662 3.2155 M 14.179933 3.227219 L 14.058844 3.256516 M 14.267387 3.2155 L 14.395203 3.180344 M 14.267387 3.221359 L 14.408657 3.2155 M 14.267387 3.227219 L 14.388476 3.256516 " transform="matrix(0.580667,0,0,0.666667,4.254467,2.981333)"/>
<path style="fill-rule:nonzero;fill:rgb(0%,31.764706%,72.941176%);fill-opacity:1;stroke-width:0.002;stroke-linecap:butt;stroke-linejoin:miter;stroke:rgb(0%,0%,0%);stroke-opacity:1;stroke-miterlimit:4;" d="M 13.574487 2.834641 C 13.534124 2.793625 13.44667 2.828781 13.439943 2.887375 C 13.473579 2.852219 13.527397 2.904953 13.554305 2.893234 C 13.56776 2.881516 13.587941 2.858078 13.574487 2.834641 Z M 13.527397 2.945969 C 13.487034 2.899094 13.39958 2.940109 13.392853 2.992844 C 13.426489 2.957688 13.480306 3.010422 13.507215 2.998703 C 13.527397 2.992844 13.540851 2.963547 13.527397 2.945969 Z M 13.500488 3.092453 C 13.460125 3.045578 13.372671 3.098313 13.379399 3.151047 C 13.406307 3.115891 13.460125 3.162766 13.487034 3.145188 C 13.507215 3.133469 13.520669 3.104172 13.500488 3.092453 Z M 13.547578 3.537766 C 13.500488 3.502609 13.419762 3.561203 13.433216 3.613938 C 13.453398 3.572922 13.513942 3.613938 13.540851 3.596359 C 13.554305 3.584641 13.561033 3.549484 13.547578 3.537766 Z M 13.540851 3.637375 C 13.487034 3.613938 13.433216 3.695969 13.460125 3.742844 C 13.466852 3.695969 13.534124 3.719406 13.554305 3.690109 C 13.56776 3.678391 13.56776 3.643234 13.540851 3.637375 Z M 13.61485 3.707688 C 13.561033 3.690109 13.500488 3.766281 13.527397 3.819016 C 13.534124 3.772141 13.608123 3.789719 13.621577 3.766281 C 13.635032 3.748703 13.635032 3.719406 13.61485 3.707688 Z M 15.04774 3.848313 C 14.993922 3.830734 14.933378 3.912766 14.960286 3.959641 C 14.967013 3.912766 15.041012 3.930344 15.061194 3.906906 C 15.067921 3.889328 15.067921 3.860031 15.04774 3.848313 Z M 15.121739 3.918625 C 15.067921 3.906906 15.014104 3.988938 15.04774 4.035813 C 15.04774 3.988938 15.121739 4.000656 15.135193 3.971359 C 15.148647 3.953781 15.14192 3.924484 15.121739 3.918625 Z M 15.067921 3.754563 C 15.020831 3.725266 14.946832 3.795578 14.967013 3.848313 C 14.980468 3.807297 15.04774 3.836594 15.067921 3.813156 C 15.088103 3.801438 15.088103 3.766281 15.067921 3.754563 Z M 16.090453 3.87175 C 16.029908 3.860031 15.982818 3.942063 16.016454 3.988938 C 16.016454 3.942063 16.090453 3.953781 16.103907 3.930344 C 16.117362 3.912766 16.110634 3.877609 16.090453 3.87175 Z M 16.090453 3.783859 C 16.043363 3.754563 15.969364 3.824875 15.989545 3.877609 C 16.002999 3.830734 16.070271 3.860031 16.09718 3.842453 C 16.110634 3.824875 16.110634 3.795578 16.090453 3.783859 Z M 16.130816 3.953781 C 16.076998 3.942063 16.029908 4.029953 16.063544 4.076828 C 16.063544 4.024094 16.137543 4.035813 16.150997 4.006516 C 16.157725 3.988938 16.157725 3.959641 16.130816 3.953781 Z M 14.227024 3.315109 C 14.260659 3.315109 14.280841 3.326828 14.280841 3.391281 C 14.280841 3.531906 14.274114 3.5905 14.233751 3.5905 C 14.18666 3.5905 14.193388 3.531906 14.193388 3.432297 C 14.193388 3.379563 14.193388 3.350266 14.179933 3.356125 C 14.179933 3.320969 14.193388 3.315109 14.227024 3.315109 Z M 14.227024 3.315109 " transform="matrix(0.580667,0,0,0.666667,4.254467,2.981333)"/>
</g>
</svg>
