<?xml version="1.0" encoding="UTF-8"?>
<svg xmlns="http://www.w3.org/2000/svg" xmlns:xlink="http://www.w3.org/1999/xlink" width="24px" height="16px" viewBox="0 0 26 16" version="1.1">
<g id="surface1">
<rect x="0" y="0" width="26" height="16" style="fill:rgb(93.333333%,15.294118%,21.568627%);fill-opacity:1;stroke:none;"/>
<path style=" stroke:none;fill-rule:nonzero;fill:rgb(99.607843%,86.666667%,0%);fill-opacity:1;" d="M 11.828125 6.914062 C 11.535156 6.730469 11.230469 6.574219 10.910156 6.449219 C 10.628906 6.875 10.476562 7.382812 10.480469 7.898438 C 10.480469 8.160156 10.515625 8.417969 10.59375 8.667969 C 10.730469 8.347656 10.898438 8.042969 11.09375 7.761719 C 11.308594 7.453125 11.550781 7.167969 11.828125 6.914062 Z M 11.050781 6.257812 C 11.394531 6.382812 11.726562 6.539062 12.042969 6.722656 C 12.113281 6.660156 12.1875 6.605469 12.257812 6.550781 C 11.921875 6.363281 11.566406 6.207031 11.203125 6.09375 C 11.148438 6.144531 11.097656 6.199219 11.050781 6.257812 Z M 11.359375 5.9375 C 11.753906 6.042969 12.132812 6.195312 12.492188 6.390625 C 12.574219 6.335938 12.660156 6.285156 12.738281 6.238281 C 12.359375 6.039062 11.957031 5.890625 11.542969 5.789062 C 11.480469 5.832031 11.417969 5.882812 11.359375 5.9375 Z M 11.734375 5.667969 C 12.167969 5.757812 12.589844 5.902344 12.988281 6.101562 C 13.386719 5.902344 13.808594 5.757812 14.242188 5.667969 C 13.46875 5.203125 12.507812 5.203125 11.734375 5.667969 Z M 14.433594 5.792969 C 14.019531 5.894531 13.621094 6.042969 13.238281 6.238281 C 13.324219 6.285156 13.40625 6.335938 13.488281 6.390625 C 13.847656 6.199219 14.226562 6.046875 14.617188 5.9375 C 14.5625 5.882812 14.5 5.835938 14.433594 5.792969 Z M 14.777344 6.097656 C 14.410156 6.210938 14.054688 6.363281 13.71875 6.550781 C 13.796875 6.605469 13.867188 6.664062 13.941406 6.722656 C 14.253906 6.539062 14.582031 6.382812 14.925781 6.257812 C 14.882812 6.199219 14.832031 6.144531 14.777344 6.097656 Z M 15.066406 6.453125 C 14.75 6.574219 14.445312 6.730469 14.15625 6.914062 C 14.429688 7.167969 14.671875 7.453125 14.886719 7.761719 C 15.082031 8.046875 15.25 8.347656 15.386719 8.667969 C 15.460938 8.417969 15.496094 8.160156 15.5 7.898438 C 15.5 7.382812 15.351562 6.878906 15.066406 6.453125 Z M 14.851562 8.222656 C 14.59375 7.796875 14.28125 7.40625 13.917969 7.066406 C 13.839844 7.125 13.753906 7.183594 13.679688 7.242188 C 14.292969 7.828125 14.765625 8.550781 15.058594 9.355469 C 15.128906 9.25 15.191406 9.136719 15.246094 9.023438 C 15.136719 8.746094 15.003906 8.480469 14.851562 8.222656 Z M 13.457031 7.050781 C 13.535156 6.992188 13.613281 6.933594 13.699219 6.878906 C 13.628906 6.816406 13.550781 6.757812 13.476562 6.695312 C 13.394531 6.75 13.308594 6.804688 13.226562 6.863281 L 13.230469 6.863281 C 13.304688 6.921875 13.378906 6.984375 13.457031 7.050781 Z M 12.988281 6.6875 C 13.074219 6.632812 13.160156 6.578125 13.238281 6.53125 C 13.15625 6.476562 13.074219 6.421875 12.988281 6.371094 C 12.90625 6.421875 12.824219 6.476562 12.742188 6.53125 C 12.824219 6.578125 12.90625 6.632812 12.988281 6.6875 Z M 12.75 6.863281 C 12.667969 6.804688 12.589844 6.75 12.503906 6.695312 L 12.28125 6.871094 C 12.363281 6.929688 12.441406 6.984375 12.523438 7.042969 C 12.597656 6.980469 12.671875 6.921875 12.75 6.863281 Z M 12.988281 7.042969 C 12.914062 7.101562 12.839844 7.167969 12.761719 7.234375 C 12.839844 7.296875 12.914062 7.367188 12.988281 7.433594 C 13.0625 7.367188 13.140625 7.296875 13.21875 7.234375 C 13.144531 7.171875 13.066406 7.105469 12.988281 7.042969 Z M 12.988281 7.890625 C 12.644531 8.269531 12.351562 8.695312 12.121094 9.15625 C 11.960938 9.46875 11.832031 9.796875 11.734375 10.132812 C 12.511719 10.585938 13.464844 10.585938 14.242188 10.132812 C 14.144531 9.796875 14.015625 9.46875 13.855469 9.15625 C 13.625 8.695312 13.335938 8.269531 12.988281 7.890625 Z M 11.535156 9.601562 C 11.8125 8.875 12.230469 8.210938 12.765625 7.652344 C 12.691406 7.582031 12.613281 7.515625 12.535156 7.441406 C 11.914062 8.058594 11.441406 8.8125 11.152344 9.648438 C 11.234375 9.746094 11.324219 9.832031 11.421875 9.914062 C 11.457031 9.808594 11.496094 9.703125 11.535156 9.601562 Z M 13.214844 7.652344 C 13.746094 8.210938 14.167969 8.875 14.445312 9.601562 C 14.484375 9.703125 14.519531 9.808594 14.554688 9.914062 C 14.652344 9.832031 14.746094 9.746094 14.828125 9.648438 C 14.539062 8.816406 14.0625 8.058594 13.441406 7.441406 C 13.363281 7.515625 13.289062 7.582031 13.214844 7.652344 Z M 10.917969 9.355469 C 11.214844 8.550781 11.6875 7.832031 12.300781 7.246094 C 12.222656 7.183594 12.140625 7.125 12.058594 7.066406 C 11.699219 7.410156 11.386719 7.800781 11.125 8.226562 C 10.972656 8.480469 10.84375 8.746094 10.730469 9.023438 C 10.785156 9.140625 10.847656 9.25 10.917969 9.355469 Z M 13.003906 5.113281 C 14.554688 5.113281 15.816406 6.402344 15.816406 7.996094 C 15.816406 9.589844 14.554688 10.882812 13.003906 10.882812 C 11.449219 10.882812 10.1875 9.589844 10.1875 7.996094 C 10.191406 6.40625 11.449219 5.113281 13.003906 5.113281 Z M 14.242188 4.480469 C 14.140625 4.601562 14.054688 4.742188 13.988281 4.890625 C 13.96875 4.835938 13.964844 4.777344 13.980469 4.71875 C 14 4.511719 14.058594 4.382812 14.164062 4.207031 C 14.199219 4.144531 14.234375 4.089844 14.253906 4.023438 C 14.328125 3.792969 14.292969 3.539062 14.160156 3.335938 C 14.179688 3.53125 14.136719 3.730469 14.03125 3.898438 C 14.019531 3.917969 14.003906 3.933594 13.988281 3.953125 C 13.875 4.058594 13.773438 4.183594 13.695312 4.320312 C 13.609375 4.460938 13.542969 4.609375 13.5 4.769531 C 13.472656 4.71875 13.460938 4.664062 13.46875 4.605469 C 13.460938 4.394531 13.496094 4.261719 13.570312 4.070312 C 13.597656 4.003906 13.621094 3.9375 13.632812 3.871094 C 13.664062 3.664062 13.609375 3.394531 13.433594 3.210938 C 13.484375 3.402344 13.46875 3.601562 13.394531 3.785156 C 13.382812 3.804688 13.371094 3.824219 13.359375 3.84375 C 13.261719 3.96875 13.183594 4.105469 13.121094 4.253906 C 13.0625 4.40625 13.023438 4.566406 13.003906 4.726562 C 12.964844 4.683594 12.945312 4.628906 12.945312 4.570312 C 12.90625 4.363281 12.917969 4.226562 12.960938 4.023438 C 12.984375 3.957031 12.996094 3.890625 12.992188 3.820312 C 12.992188 3.578125 12.882812 3.347656 12.699219 3.199219 C 12.777344 3.378906 12.792969 3.582031 12.746094 3.773438 C 12.738281 3.792969 12.730469 3.816406 12.71875 3.835938 C 12.667969 3.945312 12.605469 4.054688 12.546875 4.28125 C 12.511719 4.441406 12.496094 4.605469 12.5 4.769531 C 12.464844 4.726562 12.4375 4.679688 12.421875 4.625 C 12.351562 4.421875 12.34375 4.289062 12.359375 4.078125 C 12.367188 4.011719 12.367188 3.941406 12.359375 3.875 C 12.324219 3.664062 12.191406 3.425781 11.972656 3.304688 C 12.074219 3.472656 12.121094 3.667969 12.105469 3.867188 L 12.089844 3.933594 C 12.039062 4.085938 12.003906 4.242188 11.988281 4.402344 C 11.976562 4.566406 11.984375 4.730469 12.015625 4.890625 C 11.972656 4.855469 11.9375 4.8125 11.914062 4.761719 C 11.8125 4.570312 11.785156 4.4375 11.769531 4.230469 C 11.769531 4.164062 11.757812 4.09375 11.734375 4.027344 C 11.671875 3.824219 11.503906 3.613281 11.265625 3.53125 C 11.421875 3.707031 11.484375 3.910156 11.484375 4.058594 C 11.484375 4.082031 11.484375 4.105469 11.480469 4.128906 C 11.453125 4.285156 11.441406 4.445312 11.453125 4.605469 C 11.464844 4.769531 11.5 4.929688 11.554688 5.085938 C 11.503906 5.058594 11.460938 5.019531 11.429688 4.972656 C 11.304688 4.804688 11.257812 4.679688 11.210938 4.476562 C 11.195312 4.40625 11.175781 4.339844 11.144531 4.277344 C 11.050781 4.089844 10.855469 3.90625 10.605469 3.859375 C 10.785156 4.015625 10.875 4.207031 10.902344 4.351562 C 10.90625 4.375 10.90625 4.398438 10.90625 4.421875 C 10.90625 4.582031 10.921875 4.742188 10.953125 4.898438 C 10.992188 5.058594 11.050781 5.210938 11.125 5.351562 C 11.074219 5.335938 11.027344 5.304688 10.988281 5.261719 C 10.835938 5.117188 10.769531 5 10.695312 4.804688 C 10.671875 4.738281 10.640625 4.679688 10.601562 4.621094 C 10.480469 4.453125 10.257812 4.304688 10.003906 4.300781 C 10.207031 4.421875 10.324219 4.59375 10.375 4.734375 L 10.386719 4.800781 C 10.410156 4.921875 10.421875 5.050781 10.503906 5.265625 C 10.566406 5.417969 10.648438 5.558594 10.746094 5.6875 C 10.691406 5.675781 10.640625 5.652344 10.597656 5.617188 C 10.425781 5.5 10.34375 5.390625 10.234375 5.214844 C 10.203125 5.152344 10.164062 5.097656 10.113281 5.050781 C 9.96875 4.898438 9.726562 4.785156 9.476562 4.824219 C 9.691406 4.914062 9.835938 5.066406 9.90625 5.199219 C 9.914062 5.214844 9.925781 5.238281 9.933594 5.261719 C 9.972656 5.375 10.003906 5.496094 10.117188 5.699219 C 10.203125 5.839844 10.304688 5.96875 10.421875 6.078125 C 10.367188 6.078125 10.3125 6.0625 10.261719 6.035156 C 10.074219 5.941406 9.976562 5.851562 9.84375 5.695312 C 9.800781 5.640625 9.753906 5.589844 9.699219 5.546875 C 9.53125 5.425781 9.277344 5.351562 9.035156 5.429688 C 9.265625 5.484375 9.429688 5.609375 9.515625 5.726562 C 9.53125 5.742188 9.542969 5.761719 9.550781 5.785156 C 9.617188 5.929688 9.703125 6.066406 9.804688 6.1875 C 9.90625 6.3125 10.027344 6.425781 10.15625 6.515625 C 10.101562 6.523438 10.046875 6.515625 9.996094 6.492188 C 9.796875 6.441406 9.6875 6.363281 9.53125 6.226562 C 9.480469 6.183594 9.425781 6.140625 9.371094 6.105469 C 9.15625 6 8.90625 5.996094 8.691406 6.097656 C 8.886719 6.105469 9.070312 6.183594 9.214844 6.3125 C 9.230469 6.332031 9.242188 6.347656 9.253906 6.367188 C 9.332031 6.460938 9.394531 6.570312 9.566406 6.722656 C 9.6875 6.832031 9.824219 6.921875 9.96875 6.992188 C 9.914062 7.007812 9.859375 7.011719 9.804688 6.996094 C 9.597656 6.972656 9.480469 6.914062 9.304688 6.804688 C 9.242188 6.769531 9.1875 6.734375 9.125 6.714844 C 8.898438 6.640625 8.652344 6.675781 8.457031 6.808594 C 8.648438 6.789062 8.839844 6.835938 9.003906 6.941406 C 9.023438 6.953125 9.039062 6.96875 9.054688 6.988281 C 9.140625 7.070312 9.222656 7.167969 9.414062 7.289062 C 9.550781 7.375 9.695312 7.445312 9.851562 7.488281 C 9.800781 7.515625 9.746094 7.527344 9.691406 7.523438 C 9.484375 7.527344 9.355469 7.492188 9.167969 7.414062 C 9.105469 7.386719 9.039062 7.363281 8.972656 7.351562 C 8.769531 7.320312 8.511719 7.375 8.332031 7.554688 C 8.554688 7.496094 8.761719 7.53125 8.890625 7.597656 C 8.910156 7.605469 8.929688 7.617188 8.945312 7.632812 C 9.195312 7.832031 9.496094 7.960938 9.808594 7.996094 C 9.769531 8.035156 9.714844 8.054688 9.660156 8.054688 C 9.453125 8.101562 9.324219 8.082031 9.125 8.039062 C 9.058594 8.019531 8.992188 8.007812 8.925781 8.007812 C 8.71875 8.007812 8.472656 8.101562 8.320312 8.308594 C 8.496094 8.230469 8.695312 8.210938 8.882812 8.261719 C 8.902344 8.269531 8.921875 8.277344 8.941406 8.285156 C 9.082031 8.363281 9.226562 8.421875 9.378906 8.464844 C 9.53125 8.5 9.691406 8.515625 9.851562 8.511719 C 9.808594 8.550781 9.761719 8.578125 9.707031 8.59375 C 9.515625 8.667969 9.382812 8.675781 9.179688 8.65625 C 9.113281 8.648438 9.046875 8.648438 8.976562 8.65625 C 8.773438 8.691406 8.546875 8.828125 8.425781 9.058594 C 8.589844 8.949219 8.78125 8.898438 8.972656 8.917969 C 8.996094 8.921875 9.011719 8.929688 9.035156 8.933594 C 9.332031 9.046875 9.65625 9.070312 9.96875 9.007812 C 9.933594 9.054688 9.890625 9.089844 9.839844 9.113281 C 9.660156 9.21875 9.527344 9.246094 9.324219 9.261719 C 9.257812 9.265625 9.191406 9.28125 9.128906 9.296875 C 8.902344 9.375 8.722656 9.550781 8.644531 9.777344 C 8.785156 9.644531 8.96875 9.566406 9.164062 9.554688 C 9.183594 9.554688 9.207031 9.554688 9.230469 9.558594 C 9.382812 9.589844 9.539062 9.597656 9.695312 9.585938 C 9.855469 9.574219 10.007812 9.539062 10.15625 9.484375 C 10.136719 9.535156 10.097656 9.582031 10.046875 9.609375 C 9.886719 9.742188 9.761719 9.785156 9.5625 9.835938 C 9.496094 9.847656 9.433594 9.871094 9.375 9.902344 C 9.164062 10.015625 9.015625 10.21875 8.96875 10.453125 C 9.089844 10.300781 9.257812 10.195312 9.445312 10.152344 C 9.464844 10.148438 9.488281 10.148438 9.511719 10.148438 C 9.667969 10.148438 9.824219 10.132812 9.976562 10.097656 C 10.132812 10.058594 10.28125 10 10.421875 9.921875 C 10.402344 9.976562 10.371094 10.023438 10.328125 10.0625 C 10.1875 10.21875 10.074219 10.289062 9.886719 10.363281 C 9.824219 10.390625 9.765625 10.421875 9.707031 10.460938 C 9.542969 10.585938 9.394531 10.8125 9.390625 11.074219 C 9.488281 10.898438 9.636719 10.765625 9.820312 10.695312 C 9.839844 10.6875 9.859375 10.683594 9.878906 10.679688 C 10 10.65625 10.121094 10.644531 10.332031 10.558594 C 10.480469 10.496094 10.621094 10.414062 10.746094 10.316406 C 10.738281 10.371094 10.714844 10.421875 10.675781 10.464844 C 10.5625 10.640625 10.460938 10.726562 10.285156 10.839844 C 10.226562 10.871094 10.171875 10.914062 10.121094 10.960938 C 9.957031 11.132812 9.878906 11.375 9.90625 11.613281 C 9.972656 11.429688 10.101562 11.273438 10.269531 11.171875 C 10.289062 11.164062 10.308594 11.15625 10.328125 11.144531 C 10.480469 11.101562 10.625 11.039062 10.757812 10.957031 C 10.894531 10.871094 11.015625 10.765625 11.125 10.644531 C 11.128906 10.703125 11.113281 10.757812 11.082031 10.808594 C 10.996094 11 10.90625 11.101562 10.753906 11.234375 C 10.699219 11.28125 10.652344 11.328125 10.609375 11.386719 C 10.492188 11.554688 10.421875 11.816406 10.496094 12.066406 C 10.546875 11.832031 10.667969 11.660156 10.789062 11.574219 C 10.804688 11.5625 10.820312 11.546875 10.839844 11.539062 C 10.980469 11.46875 11.113281 11.378906 11.238281 11.277344 C 11.359375 11.171875 11.464844 11.050781 11.554688 10.914062 C 11.558594 10.972656 11.554688 11.027344 11.535156 11.082031 C 11.480469 11.285156 11.410156 11.398438 11.273438 11.554688 C 11.226562 11.609375 11.1875 11.664062 11.15625 11.726562 C 11.066406 11.917969 11.035156 12.183594 11.144531 12.417969 C 11.160156 12.179688 11.257812 11.988281 11.359375 11.886719 C 11.375 11.867188 11.390625 11.851562 11.410156 11.839844 C 11.503906 11.765625 11.605469 11.695312 11.757812 11.519531 C 11.859375 11.394531 11.949219 11.257812 12.015625 11.109375 C 12.03125 11.164062 12.035156 11.222656 12.023438 11.277344 C 12 11.488281 11.945312 11.609375 11.839844 11.792969 C 11.800781 11.847656 11.769531 11.910156 11.746094 11.976562 C 11.6875 12.179688 11.699219 12.449219 11.84375 12.664062 C 11.824219 12.421875 11.886719 12.21875 11.972656 12.097656 C 11.984375 12.082031 11.996094 12.0625 12.011719 12.046875 C 12.09375 11.957031 12.1875 11.871094 12.3125 11.679688 C 12.394531 11.539062 12.457031 11.386719 12.5 11.230469 C 12.527344 11.28125 12.539062 11.335938 12.535156 11.394531 C 12.542969 11.605469 12.507812 11.738281 12.429688 11.929688 C 12.402344 11.996094 12.382812 12.0625 12.367188 12.128906 C 12.335938 12.335938 12.390625 12.605469 12.566406 12.789062 C 12.507812 12.558594 12.542969 12.347656 12.609375 12.214844 C 12.617188 12.195312 12.628906 12.175781 12.640625 12.15625 C 12.738281 12.03125 12.820312 11.890625 12.878906 11.742188 C 12.941406 11.59375 12.984375 11.433594 13.003906 11.273438 C 13.035156 11.316406 13.054688 11.371094 13.058594 11.425781 C 13.097656 11.636719 13.085938 11.769531 13.039062 11.976562 C 13.019531 12.042969 13.007812 12.109375 13.007812 12.179688 C 13.007812 12.421875 13.117188 12.652344 13.304688 12.796875 C 13.214844 12.582031 13.214844 12.371094 13.257812 12.226562 C 13.261719 12.203125 13.269531 12.183594 13.28125 12.160156 C 13.355469 12.019531 13.414062 11.871094 13.453125 11.714844 C 13.488281 11.554688 13.503906 11.394531 13.5 11.230469 C 13.539062 11.269531 13.566406 11.320312 13.578125 11.375 C 13.652344 11.574219 13.660156 11.710938 13.644531 11.921875 C 13.632812 11.988281 13.632812 12.058594 13.644531 12.125 C 13.679688 12.367188 13.824219 12.578125 14.03125 12.695312 C 13.910156 12.492188 13.878906 12.277344 13.898438 12.132812 C 13.902344 12.109375 13.90625 12.089844 13.914062 12.066406 C 13.964844 11.914062 14 11.757812 14.015625 11.597656 C 14.023438 11.433594 14.015625 11.269531 13.988281 11.109375 C 14.03125 11.144531 14.066406 11.191406 14.089844 11.242188 C 14.191406 11.425781 14.21875 11.5625 14.234375 11.769531 C 14.234375 11.835938 14.246094 11.90625 14.265625 11.972656 C 14.339844 12.203125 14.515625 12.386719 14.738281 12.46875 C 14.582031 12.289062 14.519531 12.085938 14.515625 11.9375 C 14.515625 11.914062 14.515625 11.890625 14.519531 11.867188 C 14.550781 11.710938 14.558594 11.550781 14.546875 11.390625 C 14.535156 11.226562 14.503906 11.066406 14.449219 10.914062 C 14.5 10.941406 14.539062 10.980469 14.570312 11.027344 C 14.695312 11.195312 14.746094 11.320312 14.792969 11.523438 C 14.804688 11.59375 14.828125 11.65625 14.855469 11.71875 C 14.953125 11.910156 15.144531 12.089844 15.398438 12.132812 C 15.246094 12.011719 15.140625 11.839844 15.097656 11.648438 C 15.09375 11.625 15.09375 11.601562 15.09375 11.578125 C 15.097656 11.417969 15.082031 11.257812 15.050781 11.101562 C 15.011719 10.941406 14.953125 10.789062 14.875 10.644531 C 14.925781 10.660156 14.976562 10.695312 15.011719 10.738281 C 15.164062 10.882812 15.230469 11 15.308594 11.195312 C 15.332031 11.257812 15.363281 11.320312 15.402344 11.375 C 15.523438 11.546875 15.746094 11.695312 15.996094 11.699219 C 15.828125 11.601562 15.699219 11.445312 15.628906 11.261719 C 15.621094 11.242188 15.617188 11.222656 15.613281 11.199219 C 15.59375 11.039062 15.554688 10.882812 15.496094 10.734375 C 15.433594 10.582031 15.355469 10.441406 15.257812 10.316406 C 15.3125 10.320312 15.363281 10.34375 15.40625 10.382812 C 15.578125 10.5 15.660156 10.605469 15.765625 10.785156 C 15.800781 10.84375 15.839844 10.902344 15.886719 10.953125 C 16.054688 11.121094 16.289062 11.203125 16.523438 11.171875 C 16.308594 11.085938 16.164062 10.933594 16.097656 10.800781 C 16.085938 10.78125 16.074219 10.761719 16.070312 10.738281 C 16.023438 10.585938 15.960938 10.4375 15.882812 10.300781 C 15.796875 10.160156 15.699219 10.035156 15.582031 9.921875 C 15.636719 9.921875 15.691406 9.9375 15.742188 9.96875 C 15.925781 10.058594 16.027344 10.148438 16.160156 10.304688 C 16.199219 10.359375 16.246094 10.410156 16.300781 10.449219 C 16.492188 10.59375 16.738281 10.636719 16.964844 10.570312 C 16.742188 10.519531 16.574219 10.390625 16.484375 10.269531 C 16.472656 10.253906 16.460938 10.234375 16.449219 10.214844 C 16.394531 10.105469 16.34375 9.988281 16.199219 9.808594 C 16.09375 9.6875 15.972656 9.578125 15.84375 9.484375 C 15.898438 9.476562 15.953125 9.484375 16.003906 9.5 C 16.203125 9.558594 16.3125 9.636719 16.472656 9.773438 C 16.519531 9.820312 16.574219 9.859375 16.632812 9.890625 C 16.820312 9.984375 17.078125 10.015625 17.308594 9.902344 C 17.074219 9.886719 16.894531 9.785156 16.789062 9.683594 C 16.773438 9.667969 16.757812 9.652344 16.746094 9.632812 C 16.65625 9.5 16.554688 9.382812 16.4375 9.277344 C 16.3125 9.171875 16.179688 9.082031 16.035156 9.007812 C 16.089844 8.992188 16.144531 8.988281 16.199219 9 C 16.402344 9.027344 16.523438 9.082031 16.695312 9.195312 C 16.753906 9.230469 16.8125 9.261719 16.875 9.285156 C 17.074219 9.347656 17.339844 9.335938 17.546875 9.183594 C 17.3125 9.207031 17.117188 9.140625 17 9.054688 L 16.949219 9.015625 C 16.839844 8.894531 16.71875 8.792969 16.585938 8.707031 C 16.449219 8.621094 16.304688 8.554688 16.148438 8.511719 C 16.199219 8.484375 16.253906 8.472656 16.308594 8.476562 C 16.519531 8.46875 16.648438 8.503906 16.832031 8.585938 C 16.894531 8.613281 16.960938 8.632812 17.027344 8.648438 C 17.230469 8.679688 17.488281 8.625 17.667969 8.445312 C 17.445312 8.503906 17.242188 8.46875 17.109375 8.398438 C 17.089844 8.390625 17.070312 8.378906 17.054688 8.367188 C 16.929688 8.269531 16.796875 8.1875 16.652344 8.125 C 16.503906 8.0625 16.347656 8.019531 16.191406 7.996094 C 16.234375 7.964844 16.289062 7.945312 16.34375 7.9375 C 16.546875 7.898438 16.679688 7.910156 16.878906 7.960938 C 16.941406 7.980469 17.007812 7.992188 17.074219 7.992188 C 17.3125 7.992188 17.535156 7.878906 17.683594 7.691406 C 17.46875 7.78125 17.261719 7.78125 17.125 7.734375 C 17.101562 7.730469 17.082031 7.722656 17.0625 7.714844 C 16.953125 7.660156 16.847656 7.597656 16.625 7.539062 C 16.46875 7.5 16.308594 7.484375 16.148438 7.488281 C 16.1875 7.449219 16.238281 7.417969 16.292969 7.40625 C 16.488281 7.328125 16.621094 7.324219 16.824219 7.339844 C 16.890625 7.351562 16.960938 7.351562 17.027344 7.339844 C 17.261719 7.300781 17.460938 7.152344 17.578125 6.941406 C 17.378906 7.066406 17.175781 7.097656 17.03125 7.082031 C 17.007812 7.078125 16.984375 7.070312 16.964844 7.0625 C 16.820312 7.007812 16.667969 6.976562 16.511719 6.960938 C 16.351562 6.949219 16.191406 6.960938 16.035156 6.992188 C 16.066406 6.941406 16.109375 6.90625 16.164062 6.882812 C 16.34375 6.777344 16.472656 6.75 16.675781 6.734375 C 16.742188 6.730469 16.808594 6.722656 16.871094 6.703125 C 17.070312 6.632812 17.277344 6.46875 17.355469 6.21875 C 17.214844 6.351562 17.035156 6.433594 16.839844 6.445312 C 16.820312 6.445312 16.796875 6.445312 16.777344 6.441406 C 16.65625 6.421875 16.535156 6.394531 16.308594 6.414062 C 16.148438 6.425781 15.992188 6.460938 15.84375 6.515625 C 15.867188 6.464844 15.90625 6.421875 15.953125 6.390625 C 16.113281 6.257812 16.238281 6.210938 16.4375 6.160156 C 16.503906 6.148438 16.570312 6.125 16.628906 6.097656 C 16.8125 5.996094 16.992188 5.796875 17.035156 5.542969 C 16.886719 5.726562 16.699219 5.820312 16.554688 5.847656 C 16.535156 5.851562 16.511719 5.855469 16.488281 5.851562 C 16.335938 5.847656 16.179688 5.863281 16.027344 5.898438 C 15.871094 5.9375 15.722656 5.996094 15.582031 6.078125 C 15.597656 6.023438 15.628906 5.976562 15.671875 5.9375 C 15.8125 5.78125 15.925781 5.710938 16.113281 5.632812 C 16.179688 5.609375 16.242188 5.578125 16.296875 5.535156 C 16.457031 5.410156 16.605469 5.183594 16.609375 4.925781 C 16.488281 5.128906 16.320312 5.253906 16.183594 5.300781 C 16.164062 5.308594 16.140625 5.316406 16.121094 5.320312 C 16 5.34375 15.878906 5.355469 15.664062 5.441406 C 15.519531 5.503906 15.382812 5.585938 15.257812 5.6875 C 15.265625 5.628906 15.289062 5.578125 15.324219 5.53125 C 15.4375 5.355469 15.542969 5.269531 15.714844 5.160156 C 15.773438 5.128906 15.828125 5.089844 15.878906 5.039062 C 16.023438 4.890625 16.132812 4.644531 16.097656 4.386719 C 16.007812 4.605469 15.859375 4.753906 15.730469 4.828125 C 15.714844 4.835938 15.695312 4.84375 15.675781 4.851562 C 15.523438 4.898438 15.378906 4.964844 15.242188 5.042969 C 15.109375 5.128906 14.984375 5.234375 14.875 5.351562 C 14.875 5.296875 14.890625 5.242188 14.917969 5.195312 C 15.003906 5 15.09375 4.898438 15.246094 4.761719 C 15.300781 4.71875 15.351562 4.667969 15.394531 4.617188 C 15.511719 4.445312 15.582031 4.183594 15.507812 3.933594 C 15.453125 4.164062 15.332031 4.335938 15.214844 4.425781 C 15.199219 4.441406 15.179688 4.453125 15.160156 4.460938 C 15.054688 4.519531 14.9375 4.570312 14.769531 4.71875 C 14.644531 4.824219 14.539062 4.949219 14.449219 5.085938 C 14.441406 5.027344 14.445312 4.96875 14.46875 4.917969 C 14.527344 4.714844 14.597656 4.601562 14.726562 4.4375 C 14.773438 4.386719 14.816406 4.339844 14.847656 4.273438 C 14.953125 4.054688 14.953125 3.800781 14.855469 3.582031 C 14.847656 3.777344 14.773438 3.96875 14.644531 4.113281 C 14.628906 4.128906 14.613281 4.144531 14.597656 4.160156 C 14.464844 4.25 14.347656 4.355469 14.242188 4.480469 Z M 14.242188 4.480469 "/>
</g>
</svg>
