<?xml version="1.0" encoding="UTF-8"?>
<svg xmlns="http://www.w3.org/2000/svg" xmlns:xlink="http://www.w3.org/1999/xlink" width="24px" height="16px" viewBox="0 0 25 16" version="1.1">
<g id="surface1">
<rect x="0" y="0" width="25" height="16" style="fill:rgb(1.176471%,18.039216%,63.137255%);fill-opacity:1;stroke:none;"/>
<path style=" stroke:none;fill-rule:nonzero;fill:rgb(87.843137%,0%,14.509804%);fill-opacity:1;" d="M 0 4 L 25 4 L 25 12 L 0 12 Z M 0 4 "/>
<path style="fill-rule:nonzero;fill:rgb(100%,100%,100%);fill-opacity:1;stroke-width:0.96;stroke-linecap:butt;stroke-linejoin:bevel;stroke:rgb(0%,0%,0%);stroke-opacity:1;stroke-miterlimit:4;" d="M 139.009484 623.507819 L 252.779015 623.507819 L 252.779015 667.257819 L 139.009484 667.257819 Z M 139.009484 623.507819 " transform="matrix(0.04,0,0,0.04,4.685714,-17.397344)"/>
<path style="fill-rule:nonzero;fill:rgb(100%,100%,100%);fill-opacity:1;stroke-width:0.96;stroke-linecap:butt;stroke-linejoin:bevel;stroke:rgb(0%,0%,0%);stroke-opacity:1;stroke-miterlimit:4;" d="M 246.91964 647.628913 L 250.532921 647.628913 L 250.532921 664.132819 L 246.91964 664.132819 Z M 246.91964 647.628913 " transform="matrix(0.04,0,0,0.04,4.685714,-17.397344)"/>
<path style="fill-rule:nonzero;fill:rgb(100%,100%,100%);fill-opacity:1;stroke-width:0.96;stroke-linecap:butt;stroke-linejoin:bevel;stroke:rgb(0%,0%,0%);stroke-opacity:1;stroke-miterlimit:4;" d="M 139.009484 639.523444 L 252.779015 639.523444 L 252.779015 644.601569 L 139.009484 644.601569 Z M 139.009484 639.523444 " transform="matrix(0.04,0,0,0.04,4.685714,-17.397344)"/>
<path style="fill-rule:nonzero;fill:rgb(100%,100%,100%);fill-opacity:1;stroke-width:0.96;stroke-linecap:butt;stroke-linejoin:bevel;stroke:rgb(0%,0%,0%);stroke-opacity:1;stroke-miterlimit:4;" d="M 139.009484 632.58985 L 252.779015 632.58985 L 252.779015 637.082038 L 139.009484 637.082038 Z M 139.009484 632.58985 " transform="matrix(0.04,0,0,0.04,4.685714,-17.397344)"/>
<path style="fill-rule:nonzero;fill:rgb(100%,100%,100%);fill-opacity:1;stroke-width:0.94545;stroke-linecap:butt;stroke-linejoin:bevel;stroke:rgb(0%,0%,0%);stroke-opacity:1;stroke-miterlimit:4;" d="M 139.009484 625.656256 L 252.779015 625.656256 L 252.779015 630.050788 L 139.009484 630.050788 Z M 139.009484 625.656256 " transform="matrix(0.04,0,0,0.04,4.685714,-17.397344)"/>
<path style="fill-rule:nonzero;fill:rgb(100%,100%,100%);fill-opacity:1;stroke-width:0.96;stroke-linecap:butt;stroke-linejoin:bevel;stroke:rgb(0%,0%,0%);stroke-opacity:1;stroke-miterlimit:4;" d="M 168.989953 647.628913 L 172.603234 647.628913 L 172.603234 664.132819 L 168.989953 664.132819 Z M 168.989953 647.628913 " transform="matrix(0.04,0,0,0.04,4.685714,-17.397344)"/>
<path style="fill-rule:nonzero;fill:rgb(100%,100%,100%);fill-opacity:1;stroke-width:0.96;stroke-linecap:butt;stroke-linejoin:bevel;stroke:rgb(0%,0%,0%);stroke-opacity:1;stroke-miterlimit:4;" d="M 218.01339 647.628913 L 221.529015 647.628913 L 221.529015 664.132819 L 218.01339 664.132819 Z M 218.01339 647.628913 " transform="matrix(0.04,0,0,0.04,4.685714,-17.397344)"/>
<path style="fill-rule:nonzero;fill:rgb(100%,100%,100%);fill-opacity:1;stroke-width:0.96;stroke-linecap:butt;stroke-linejoin:bevel;stroke:rgb(0%,0%,0%);stroke-opacity:1;stroke-miterlimit:4;" d="M 139.88839 647.628913 L 143.501671 647.628913 L 143.501671 664.132819 L 139.88839 664.132819 Z M 139.88839 647.628913 " transform="matrix(0.04,0,0,0.04,4.685714,-17.397344)"/>
<path style="fill-rule:nonzero;fill:rgb(100%,100%,100%);fill-opacity:1;stroke-width:0.96;stroke-linecap:butt;stroke-linejoin:bevel;stroke:rgb(0%,0%,0%);stroke-opacity:1;stroke-miterlimit:4;" d="M 146.91964 647.628913 L 150.532921 647.628913 L 150.532921 664.132819 L 146.91964 664.132819 Z M 146.91964 647.628913 " transform="matrix(0.04,0,0,0.04,4.685714,-17.397344)"/>
<path style="fill-rule:nonzero;fill:rgb(100%,100%,100%);fill-opacity:1;stroke-width:0.96;stroke-linecap:butt;stroke-linejoin:bevel;stroke:rgb(0%,0%,0%);stroke-opacity:1;stroke-miterlimit:4;" d="M 154.439171 647.628913 L 158.052453 647.628913 L 158.052453 664.132819 L 154.439171 664.132819 Z M 154.439171 647.628913 " transform="matrix(0.04,0,0,0.04,4.685714,-17.397344)"/>
<path style="fill-rule:nonzero;fill:rgb(100%,100%,100%);fill-opacity:1;stroke-width:0.96;stroke-linecap:butt;stroke-linejoin:bevel;stroke:rgb(0%,0%,0%);stroke-opacity:1;stroke-miterlimit:4;" d="M 161.958703 647.628913 L 165.571984 647.628913 L 165.571984 664.132819 L 161.958703 664.132819 Z M 161.958703 647.628913 " transform="matrix(0.04,0,0,0.04,4.685714,-17.397344)"/>
<path style="fill-rule:nonzero;fill:rgb(100%,100%,100%);fill-opacity:1;stroke-width:0.96;stroke-linecap:butt;stroke-linejoin:bevel;stroke:rgb(0%,0%,0%);stroke-opacity:1;stroke-miterlimit:4;" d="M 224.751671 647.628913 L 228.364953 647.628913 L 228.364953 664.132819 L 224.751671 664.132819 Z M 224.751671 647.628913 " transform="matrix(0.04,0,0,0.04,4.685714,-17.397344)"/>
<path style="fill-rule:nonzero;fill:rgb(100%,100%,100%);fill-opacity:1;stroke-width:0.96;stroke-linecap:butt;stroke-linejoin:bevel;stroke:rgb(0%,0%,0%);stroke-opacity:1;stroke-miterlimit:4;" d="M 232.271203 647.628913 L 235.884484 647.628913 L 235.884484 664.132819 L 232.271203 664.132819 Z M 232.271203 647.628913 " transform="matrix(0.04,0,0,0.04,4.685714,-17.397344)"/>
<path style="fill-rule:nonzero;fill:rgb(100%,100%,100%);fill-opacity:1;stroke-width:0.96;stroke-linecap:butt;stroke-linejoin:bevel;stroke:rgb(0%,0%,0%);stroke-opacity:1;stroke-miterlimit:4;" d="M 239.790734 647.628913 L 243.404015 647.628913 L 243.404015 664.132819 L 239.790734 664.132819 Z M 239.790734 647.628913 " transform="matrix(0.04,0,0,0.04,4.685714,-17.397344)"/>
<path style="fill-rule:nonzero;fill:rgb(100%,100%,100%);fill-opacity:1;stroke-width:0.96;stroke-linecap:butt;stroke-linejoin:miter;stroke:rgb(0%,0%,0%);stroke-opacity:1;stroke-miterlimit:4;" d="M 94.478234 669.503913 C 96.236046 668.625006 98.286828 666.574225 98.970421 664.230475 L 292.036828 664.230475 C 292.622765 666.574225 294.673546 668.625006 296.431359 669.503913 Z M 94.478234 669.503913 " transform="matrix(0.04,0,0,0.04,4.685714,-17.397344)"/>
<path style="fill-rule:nonzero;fill:rgb(100%,100%,100%);fill-opacity:1;stroke-width:0.96;stroke-linecap:butt;stroke-linejoin:miter;stroke:rgb(0%,0%,0%);stroke-opacity:1;stroke-miterlimit:4;" d="M 193.01339 556.8086 C 193.01339 556.8086 192.818078 552.707038 195.259484 552.609381 C 197.603234 552.707038 197.505578 556.8086 197.505578 556.8086 Z M 193.01339 556.8086 " transform="matrix(0.04,0,0,0.04,4.685714,-17.397344)"/>
<path style="fill-rule:nonzero;fill:rgb(100%,100%,100%);fill-opacity:1;stroke-width:0.96;stroke-linecap:butt;stroke-linejoin:miter;stroke:rgb(0%,0%,0%);stroke-opacity:1;stroke-miterlimit:4;" d="M 180.51339 611.300788 L 180.51339 605.832038 C 180.415734 603.000006 177.779015 602.804694 177.681359 600.851569 C 177.681359 600.851569 177.290734 597.824225 178.16964 596.457038 C 179.243859 600.460944 181.196984 599.679694 181.196984 598.019538 C 181.196984 596.554694 180.025109 595.285163 177.779015 591.671881 C 176.997765 590.597663 177.486046 587.082038 178.560265 585.812506 C 178.95089 588.83985 179.341515 590.304694 180.708703 590.304694 C 181.489953 590.304694 182.173546 589.816413 182.173546 588.253913 C 182.173546 586.300788 180.806359 585.324225 180.220421 583.566413 C 179.439171 581.515631 179.927453 579.367194 181.196984 578.195319 C 181.782921 581.222663 181.587609 582.394538 182.954796 582.394538 C 185.591515 581.515631 182.954796 577.609381 182.368859 576.632819 C 181.685265 575.460944 183.247765 573.21485 183.247765 573.21485 C 184.126671 575.851569 184.41964 576.046881 185.298546 575.851569 C 186.470421 575.5586 186.372765 573.800788 184.907921 572.335944 C 184.029015 571.457038 184.126671 570.187506 185.103234 569.113288 C 186.079796 570.968756 187.251671 570.8711 187.446984 569.796881 L 186.665734 565.40235 L 203.853234 565.40235 L 203.071984 569.601569 C 202.779015 570.8711 204.439171 571.066413 205.415734 569.113288 C 206.392296 570.187506 206.489953 571.457038 205.611046 572.335944 C 204.146203 573.800788 204.048546 575.5586 205.220421 575.851569 C 206.099328 576.046881 206.392296 575.851569 207.271203 573.21485 C 207.271203 573.21485 208.63839 574.77735 208.150109 576.632819 C 207.564171 577.609381 204.829796 581.515631 207.564171 582.394538 C 208.931359 582.394538 208.736046 581.222663 209.321984 578.195319 C 210.591515 579.367194 211.079796 581.515631 210.298546 583.566413 C 209.712609 585.324225 208.345421 586.300788 208.345421 588.253913 C 208.345421 589.816413 209.029015 590.304694 209.810265 590.304694 C 211.177453 590.304694 211.568078 588.83985 211.958703 585.812506 C 213.032921 587.082038 213.423546 590.597663 212.739953 591.671881 C 210.396203 595.285163 209.321984 596.554694 209.321984 598.019538 C 209.321984 599.679694 211.275109 600.460944 212.349328 596.457038 C 213.228234 597.824225 212.837609 600.851569 212.837609 600.851569 C 212.739953 602.804694 210.103234 603.000006 210.005578 605.832038 L 210.005578 611.300788 Z M 180.51339 611.300788 " transform="matrix(0.04,0,0,0.04,4.685714,-17.397344)"/>
<path style="fill-rule:nonzero;fill:rgb(100%,100%,100%);fill-opacity:1;stroke-width:0.96;stroke-linecap:butt;stroke-linejoin:miter;stroke:rgb(0%,0%,0%);stroke-opacity:1;stroke-miterlimit:4;" d="M 187.739953 565.304694 L 187.349328 562.179694 L 203.16964 562.179694 L 202.779015 565.304694 Z M 187.739953 565.304694 " transform="matrix(0.04,0,0,0.04,4.685714,-17.397344)"/>
<path style="fill-rule:nonzero;fill:rgb(100%,100%,100%);fill-opacity:1;stroke-width:0.96;stroke-linecap:butt;stroke-linejoin:miter;stroke:rgb(0%,0%,0%);stroke-opacity:1;stroke-miterlimit:4;" d="M 188.814171 562.082038 L 188.423546 559.542975 L 202.095421 559.542975 L 201.704796 562.082038 Z M 188.814171 562.082038 " transform="matrix(0.04,0,0,0.04,4.685714,-17.397344)"/>
<path style="fill-rule:nonzero;fill:rgb(100%,100%,100%);fill-opacity:1;stroke-width:0.96;stroke-linecap:butt;stroke-linejoin:miter;stroke:rgb(0%,0%,0%);stroke-opacity:1;stroke-miterlimit:4;" d="M 190.962609 559.445319 L 190.767296 556.906256 L 199.751671 556.906256 L 199.556359 559.445319 Z M 190.962609 559.445319 " transform="matrix(0.04,0,0,0.04,4.685714,-17.397344)"/>
<path style="fill-rule:nonzero;fill:rgb(100%,100%,100%);fill-opacity:1;stroke-width:0.96;stroke-linecap:butt;stroke-linejoin:miter;stroke:rgb(0%,0%,0%);stroke-opacity:1;stroke-miterlimit:4;" d="M 223.970421 669.503913 C 221.91964 668.722663 218.989953 666.671881 218.989953 664.523444 L 218.989953 640.207038 L 221.626671 636.789069 L 168.892296 636.789069 L 171.431359 640.207038 L 171.431359 664.523444 C 171.431359 666.671881 169.380578 668.722663 167.329796 669.503913 Z M 223.970421 669.503913 " transform="matrix(0.04,0,0,0.04,4.685714,-17.397344)"/>
<path style="fill-rule:nonzero;fill:rgb(100%,100%,100%);fill-opacity:1;stroke-width:0.96;stroke-linecap:butt;stroke-linejoin:bevel;stroke:rgb(0%,0%,0%);stroke-opacity:1;stroke-miterlimit:4;" d="M 178.267296 647.628913 L 181.782921 647.628913 L 181.782921 664.132819 L 178.267296 664.132819 Z M 178.267296 647.628913 " transform="matrix(0.04,0,0,0.04,4.685714,-17.397344)"/>
<path style="fill-rule:nonzero;fill:rgb(100%,100%,100%);fill-opacity:1;stroke-width:0.96;stroke-linecap:butt;stroke-linejoin:bevel;stroke:rgb(0%,0%,0%);stroke-opacity:1;stroke-miterlimit:4;" d="M 208.540734 647.628913 L 212.154015 647.628913 L 212.154015 664.132819 L 208.540734 664.132819 Z M 208.540734 647.628913 " transform="matrix(0.04,0,0,0.04,4.685714,-17.397344)"/>
<path style="fill-rule:nonzero;fill:rgb(100%,100%,100%);fill-opacity:1;stroke-width:0.96;stroke-linecap:butt;stroke-linejoin:miter;stroke:rgb(0%,0%,0%);stroke-opacity:1;stroke-miterlimit:4;" d="M 167.915734 609.15235 L 167.915734 636.789069 L 221.91964 636.789069 L 221.91964 630.832038 L 222.017296 609.15235 C 219.771203 610.031256 219.380578 612.082038 219.380578 612.082038 L 219.380578 623.800788 L 170.650109 623.800788 L 170.650109 612.082038 C 170.650109 612.082038 170.161828 610.031256 167.915734 609.15235 Z M 167.915734 609.15235 " transform="matrix(0.04,0,0,0.04,4.685714,-17.397344)"/>
<path style="fill-rule:nonzero;fill:rgb(100%,100%,100%);fill-opacity:1;stroke-width:0.96;stroke-linecap:butt;stroke-linejoin:miter;stroke:rgb(0%,0%,0%);stroke-opacity:1;stroke-miterlimit:4;" d="M 214.595421 669.503913 C 212.837609 668.722663 209.029015 666.671881 209.029015 664.523444 L 209.029015 637.27735 C 209.321984 635.812506 211.470421 634.835944 212.739953 633.957038 L 176.900109 633.957038 C 178.657921 634.835944 180.51339 635.617194 181.196984 637.27735 L 181.196984 664.523444 C 181.196984 666.671881 178.16964 668.722663 176.411828 669.503913 Z M 214.595421 669.503913 " transform="matrix(0.04,0,0,0.04,4.685714,-17.397344)"/>
<path style="fill-rule:nonzero;fill:rgb(100%,100%,100%);fill-opacity:1;stroke-width:0.96;stroke-linecap:butt;stroke-linejoin:miter;stroke:rgb(0%,0%,0%);stroke-opacity:1;stroke-miterlimit:4;" d="M 219.380578 634.250006 L 219.380578 614.6211 L 214.497765 614.6211 L 214.497765 612.765631 L 175.630578 612.765631 L 175.630578 614.6211 L 170.747765 614.6211 L 170.747765 634.250006 Z M 219.380578 634.250006 " transform="matrix(0.04,0,0,0.04,4.685714,-17.397344)"/>
<path style="fill-rule:nonzero;fill:rgb(100%,100%,100%);fill-opacity:1;stroke-width:0.96;stroke-linecap:butt;stroke-linejoin:miter;stroke:rgb(0%,0%,0%);stroke-opacity:1;stroke-miterlimit:4;" d="M 206.880578 669.503913 C 205.122765 668.722663 202.583703 666.671881 202.583703 664.523444 L 202.583703 641.281256 L 204.048546 639.132819 L 186.372765 639.132819 L 187.739953 641.281256 L 187.739953 664.523444 C 187.739953 666.671881 185.20089 668.722663 183.540734 669.503913 Z M 206.880578 669.503913 " transform="matrix(0.04,0,0,0.04,4.685714,-17.397344)"/>
<path style="fill-rule:nonzero;fill:rgb(100%,100%,100%);fill-opacity:1;stroke-width:0.981;stroke-linecap:butt;stroke-linejoin:miter;stroke:rgb(0%,0%,0%);stroke-opacity:1;stroke-miterlimit:4;" d="M 190.66964 639.132819 L 199.654015 639.132819 L 199.654015 669.503913 L 190.66964 669.503913 Z M 190.66964 639.132819 " transform="matrix(0.04,0,0,0.04,4.685714,-17.397344)"/>
<path style="fill-rule:nonzero;fill:rgb(100%,100%,100%);fill-opacity:1;stroke-width:0.96;stroke-linecap:butt;stroke-linejoin:bevel;stroke:rgb(0%,0%,0%);stroke-opacity:1;stroke-miterlimit:4;" d="M 204.341515 632.492194 C 204.439171 630.441413 210.20089 630.343756 213.228234 628.6836 L 177.290734 628.6836 C 180.220421 630.343756 185.98214 630.539069 185.98214 632.492194 L 187.154015 636.398444 L 201.997765 636.984381 Z M 204.341515 632.492194 " transform="matrix(0.04,0,0,0.04,4.685714,-17.397344)"/>
<path style="fill-rule:nonzero;fill:rgb(100%,100%,100%);fill-opacity:1;stroke-width:0.96;stroke-linecap:butt;stroke-linejoin:miter;stroke:rgb(0%,0%,0%);stroke-opacity:1;stroke-miterlimit:4;" d="M 211.372765 611.300788 C 211.372765 606.417975 211.568078 604.562506 213.130578 604.562506 L 213.130578 620.08985 C 209.41964 621.457038 206.782921 626.144538 206.782921 626.144538 L 183.540734 626.144538 C 183.540734 626.144538 180.904015 621.457038 177.290734 620.08985 L 177.290734 604.562506 C 179.146203 604.562506 179.146203 606.515631 179.146203 611.300788 Z M 211.372765 611.300788 " transform="matrix(0.04,0,0,0.04,4.685714,-17.397344)"/>
<path style="fill-rule:nonzero;fill:rgb(100%,100%,100%);fill-opacity:1;stroke-width:0.96;stroke-linecap:butt;stroke-linejoin:miter;stroke:rgb(0%,0%,0%);stroke-opacity:1;stroke-miterlimit:4;" d="M 213.130578 609.347663 C 213.130578 603.6836 218.01339 603.097663 218.01339 603.097663 L 218.01339 608.078131 C 216.157921 607.980475 215.279015 609.640631 215.279015 612.082038 C 215.279015 614.6211 216.743859 614.6211 216.743859 614.6211 L 216.743859 628.781256 L 213.130578 628.781256 Z M 213.130578 609.347663 " transform="matrix(0.04,0,0,0.04,4.685714,-17.397344)"/>
<path style="fill-rule:nonzero;fill:rgb(100%,100%,100%);fill-opacity:1;stroke-width:0.96;stroke-linecap:butt;stroke-linejoin:miter;stroke:rgb(0%,0%,0%);stroke-opacity:1;stroke-miterlimit:4;" d="M 177.290734 609.347663 C 177.290734 603.6836 172.407921 603.097663 172.407921 603.097663 L 172.407921 608.078131 C 174.26339 607.980475 175.142296 609.640631 175.142296 612.082038 C 175.142296 614.6211 173.677453 614.6211 173.677453 614.6211 L 173.677453 628.781256 L 177.290734 628.781256 Z M 177.290734 609.347663 " transform="matrix(0.04,0,0,0.04,4.685714,-17.397344)"/>
<path style="fill:none;stroke-width:0.8;stroke-linecap:butt;stroke-linejoin:miter;stroke:rgb(0%,0%,0%);stroke-opacity:1;stroke-miterlimit:4;" d="M 186.861046 570.578131 L 203.95089 570.578131 " transform="matrix(0.04,0,0,0.04,4.685714,-17.397344)"/>
<path style="fill:none;stroke-width:0.8;stroke-linecap:butt;stroke-linejoin:miter;stroke:rgb(0%,0%,0%);stroke-opacity:1;stroke-miterlimit:4;" d="M 184.810265 575.949225 L 205.708703 575.949225 " transform="matrix(0.04,0,0,0.04,4.685714,-17.397344)"/>
<path style="fill:none;stroke-width:0.8;stroke-linecap:butt;stroke-linejoin:miter;stroke:rgb(0%,0%,0%);stroke-opacity:1;stroke-miterlimit:4;" d="M 182.759484 582.492194 L 207.661828 582.492194 " transform="matrix(0.04,0,0,0.04,4.685714,-17.397344)"/>
<path style="fill:none;stroke-width:0.8;stroke-linecap:butt;stroke-linejoin:miter;stroke:rgb(0%,0%,0%);stroke-opacity:1;stroke-miterlimit:4;" d="M 180.708703 590.40235 L 210.20089 590.40235 " transform="matrix(0.04,0,0,0.04,4.685714,-17.397344)"/>
<path style="fill:none;stroke-width:0.8;stroke-linecap:butt;stroke-linejoin:miter;stroke:rgb(0%,0%,0%);stroke-opacity:1;stroke-miterlimit:4;" d="M 180.025109 599.386725 L 210.396203 599.386725 " transform="matrix(0.04,0,0,0.04,4.685714,-17.397344)"/>
<path style="fill:none;stroke-width:0.96;stroke-linecap:butt;stroke-linejoin:miter;stroke:rgb(0%,0%,0%);stroke-opacity:1;stroke-miterlimit:4;" d="M 170.747765 628.878913 L 219.380578 628.878913 " transform="matrix(0.04,0,0,0.04,4.685714,-17.397344)"/>
<path style="fill:none;stroke-width:0.96;stroke-linecap:butt;stroke-linejoin:miter;stroke:rgb(0%,0%,0%);stroke-opacity:1;stroke-miterlimit:4;" d="M 186.177453 628.976569 L 204.243859 628.976569 L 204.243859 635.519538 L 186.177453 635.519538 Z M 186.177453 628.976569 " transform="matrix(0.04,0,0,0.04,4.685714,-17.397344)"/>
<path style="fill-rule:nonzero;fill:rgb(100%,100%,100%);fill-opacity:1;stroke-width:0.96;stroke-linecap:butt;stroke-linejoin:miter;stroke:rgb(0%,0%,0%);stroke-opacity:1;stroke-miterlimit:4;" d="M 183.931359 614.230475 C 186.958703 617.843756 186.665734 623.898444 186.568078 627.511725 L 203.95089 627.511725 C 203.95089 623.898444 203.657921 617.843756 206.587609 614.230475 Z M 183.931359 614.230475 " transform="matrix(0.04,0,0,0.04,4.685714,-17.397344)"/>
<path style="fill-rule:nonzero;fill:rgb(100%,100%,100%);fill-opacity:1;stroke-width:0.96;stroke-linecap:butt;stroke-linejoin:miter;stroke:rgb(0%,0%,0%);stroke-opacity:1;stroke-miterlimit:4;" d="M 193.696984 573.117194 L 191.255578 571.847663 L 191.255578 568.429694 C 192.23214 568.722663 193.404015 568.820319 193.501671 570.382819 C 193.79464 568.136725 194.380578 568.234381 195.35714 567.355475 C 196.333703 568.234381 196.91964 568.136725 197.310265 570.382819 C 197.407921 568.820319 198.48214 568.722663 199.458703 568.429694 L 199.458703 571.847663 L 197.114953 573.117194 Z M 193.696984 573.117194 " transform="matrix(0.04,0,0,0.04,4.685714,-17.397344)"/>
<path style="fill-rule:nonzero;fill:rgb(100%,100%,100%);fill-opacity:1;stroke-width:0.96;stroke-linecap:butt;stroke-linejoin:miter;stroke:rgb(0%,0%,0%);stroke-opacity:1;stroke-miterlimit:4;" d="M 193.501671 578.878913 L 189.595421 576.144538 L 189.595421 572.921881 C 190.962609 573.21485 192.525109 573.410163 192.622765 575.070319 C 193.111046 572.628913 193.989953 571.359381 195.35714 570.480475 C 196.724328 571.359381 197.603234 572.628913 198.091515 575.070319 C 198.286828 573.410163 199.751671 573.21485 201.216515 572.921881 L 201.216515 576.144538 L 197.212609 578.878913 Z M 193.501671 578.878913 " transform="matrix(0.04,0,0,0.04,4.685714,-17.397344)"/>
<path style="fill-rule:nonzero;fill:rgb(100%,100%,100%);fill-opacity:1;stroke-width:0.96;stroke-linecap:butt;stroke-linejoin:miter;stroke:rgb(0%,0%,0%);stroke-opacity:1;stroke-miterlimit:4;" d="M 193.208703 587.765631 L 188.716515 583.859381 L 188.716515 579.074225 C 190.279015 579.562506 192.036828 579.757819 192.23214 582.199225 C 192.818078 578.6836 193.79464 576.828131 195.35714 575.460944 C 196.91964 576.828131 197.896203 578.6836 198.48214 582.199225 C 198.677453 579.757819 200.435265 579.562506 202.095421 579.074225 L 202.095421 583.859381 L 197.505578 587.765631 Z M 193.208703 587.765631 " transform="matrix(0.04,0,0,0.04,4.685714,-17.397344)"/>
<path style="fill-rule:nonzero;fill:rgb(100%,100%,100%);fill-opacity:1;stroke-width:0.96;stroke-linecap:butt;stroke-linejoin:miter;stroke:rgb(0%,0%,0%);stroke-opacity:1;stroke-miterlimit:4;" d="M 201.60714 593.136725 L 197.505578 598.800788 L 192.818078 598.800788 L 188.716515 593.136725 Z M 201.60714 593.136725 " transform="matrix(0.04,0,0,0.04,4.685714,-17.397344)"/>
<path style="fill-rule:nonzero;fill:rgb(100%,100%,100%);fill-opacity:1;stroke-width:0.96;stroke-linecap:butt;stroke-linejoin:miter;stroke:rgb(0%,0%,0%);stroke-opacity:1;stroke-miterlimit:4;" d="M 186.372765 602.609381 C 188.423546 603.781256 189.204796 605.929694 189.400109 610.128913 L 200.923546 610.128913 C 201.216515 605.929694 201.900109 603.781256 203.95089 602.609381 Z M 186.372765 602.609381 " transform="matrix(0.04,0,0,0.04,4.685714,-17.397344)"/>
<path style="fill-rule:nonzero;fill:rgb(100%,100%,100%);fill-opacity:1;stroke-width:0.96;stroke-linecap:butt;stroke-linejoin:bevel;stroke:rgb(0%,0%,0%);stroke-opacity:1;stroke-miterlimit:4;" d="M 204.146203 593.136725 L 204.146203 587.375006 C 202.193078 587.960944 200.923546 589.035163 200.435265 590.597663 C 200.435265 588.742194 197.896203 584.347663 195.161828 582.199225 C 192.427453 584.640631 189.88839 588.644538 189.986046 590.597663 C 189.497765 589.132819 188.130578 587.960944 186.177453 587.375006 L 186.177453 593.136725 Z M 204.146203 593.136725 " transform="matrix(0.04,0,0,0.04,4.685714,-17.397344)"/>
<path style="fill-rule:nonzero;fill:rgb(100%,100%,100%);fill-opacity:1;stroke-width:0.96;stroke-linecap:butt;stroke-linejoin:bevel;stroke:rgb(0%,0%,0%);stroke-opacity:1;stroke-miterlimit:4;" d="M 205.025109 602.609381 L 205.025109 596.945319 C 202.876671 597.4336 201.509484 598.605475 200.923546 600.167975 C 200.923546 598.312506 198.189171 593.917975 195.161828 591.769538 C 192.23214 594.210944 189.400109 598.117194 189.497765 600.167975 C 189.009484 598.703131 187.446984 597.4336 185.298546 596.945319 L 185.298546 602.609381 Z M 205.025109 602.609381 " transform="matrix(0.04,0,0,0.04,4.685714,-17.397344)"/>
<path style="fill-rule:nonzero;fill:rgb(100%,100%,100%);fill-opacity:1;stroke-width:0.96;stroke-linecap:butt;stroke-linejoin:bevel;stroke:rgb(0%,0%,0%);stroke-opacity:1;stroke-miterlimit:4;" d="M 207.466515 614.328131 L 207.466515 607.785163 C 204.73214 608.468756 203.16964 610.421881 202.290734 611.4961 C 202.290734 607.980475 198.286828 602.511725 195.161828 600.753913 C 192.036828 602.609381 188.130578 608.175788 188.130578 611.4961 C 187.251671 610.421881 185.591515 608.468756 182.954796 607.785163 L 182.954796 614.328131 Z M 207.466515 614.328131 " transform="matrix(0.04,0,0,0.04,4.685714,-17.397344)"/>
<path style="fill-rule:nonzero;fill:rgb(100%,100%,100%);fill-opacity:1;stroke-width:0.96;stroke-linecap:butt;stroke-linejoin:bevel;stroke:rgb(0%,0%,0%);stroke-opacity:1;stroke-miterlimit:4;" d="M 206.001671 628.878913 L 206.001671 622.140631 C 203.657921 623.117194 202.974328 625.363288 202.193078 626.828131 C 202.486046 619.992194 198.384484 612.667975 195.161828 610.812506 C 192.036828 612.667975 187.837609 620.187506 188.130578 626.828131 C 187.446984 625.363288 186.76339 623.117194 184.41964 622.140631 L 184.41964 628.878913 Z M 206.001671 628.878913 " transform="matrix(0.04,0,0,0.04,4.685714,-17.397344)"/>
<path style="fill-rule:nonzero;fill:rgb(100%,100%,100%);fill-opacity:1;stroke-width:0.96;stroke-linecap:butt;stroke-linejoin:miter;stroke:rgb(0%,0%,0%);stroke-opacity:1;stroke-miterlimit:4;" d="M 204.341515 639.132819 L 204.341515 632.394538 C 201.900109 632.980475 201.704796 633.859381 200.923546 635.421881 C 201.216515 631.320319 198.384484 626.632819 195.161828 624.77735 C 192.036828 626.632819 189.10714 631.320319 189.400109 635.421881 C 188.618859 633.859381 188.521203 632.980475 185.98214 632.394538 L 185.98214 639.132819 Z M 204.341515 639.132819 " transform="matrix(0.04,0,0,0.04,4.685714,-17.397344)"/>
<path style="fill-rule:nonzero;fill:rgb(100%,100%,100%);fill-opacity:1;stroke-width:0.96;stroke-linecap:butt;stroke-linejoin:miter;stroke:rgb(0%,0%,0%);stroke-opacity:1;stroke-miterlimit:4;" d="M 98.970421 664.230475 L 98.970421 643.820319 C 98.286828 641.1836 96.040734 638.83985 94.380578 638.449225 L 94.380578 620.382819 L 98.091515 622.4336 L 102.38839 641.281256 L 102.38839 664.230475 Z M 98.970421 664.230475 " transform="matrix(0.04,0,0,0.04,4.685714,-17.397344)"/>
<path style="fill-rule:nonzero;fill:rgb(100%,100%,100%);fill-opacity:1;stroke-width:0.96;stroke-linecap:butt;stroke-linejoin:miter;stroke:rgb(0%,0%,0%);stroke-opacity:1;stroke-miterlimit:4;" d="M 98.970421 664.328131 L 98.970421 643.820319 C 98.286828 641.1836 96.040734 638.83985 94.380578 638.449225 L 94.380578 619.210944 C 96.91964 619.210944 98.091515 622.4336 98.091515 622.4336 L 102.38839 641.281256 L 102.38839 664.132819 Z M 98.970421 664.328131 " transform="matrix(0.04,0,0,0.04,4.685714,-17.397344)"/>
<path style="fill-rule:nonzero;fill:rgb(100%,100%,100%);fill-opacity:1;stroke-width:0.96;stroke-linecap:butt;stroke-linejoin:miter;stroke:rgb(0%,0%,0%);stroke-opacity:1;stroke-miterlimit:4;" d="M 96.236046 669.503913 C 97.993859 668.722663 100.532921 666.671881 100.532921 664.523444 L 100.532921 638.937506 L 99.361046 636.789069 L 142.818078 636.789069 L 141.157921 638.937506 L 141.157921 664.523444 C 141.157921 666.671881 142.915734 668.722663 144.57589 669.503913 Z M 96.236046 669.503913 " transform="matrix(0.04,0,0,0.04,4.685714,-17.397344)"/>
<path style="fill-rule:nonzero;fill:rgb(100%,100%,100%);fill-opacity:1;stroke-width:0.96;stroke-linecap:butt;stroke-linejoin:miter;stroke:rgb(0%,0%,0%);stroke-opacity:1;stroke-miterlimit:4;" d="M 135.884484 669.503913 C 134.126671 668.722663 131.587609 666.671881 131.587609 664.523444 L 131.587609 640.207038 L 135.20089 636.789069 L 105.611046 636.789069 L 109.224328 640.207038 L 109.224328 664.523444 C 109.224328 666.671881 106.685265 668.722663 105.025109 669.503913 Z M 135.884484 669.503913 " transform="matrix(0.04,0,0,0.04,4.685714,-17.397344)"/>
<path style="fill-rule:nonzero;fill:rgb(100%,100%,100%);fill-opacity:1;stroke-width:0.96;stroke-linecap:butt;stroke-linejoin:miter;stroke:rgb(0%,0%,0%);stroke-opacity:1;stroke-miterlimit:4;" d="M 131.685265 669.503913 C 129.927453 668.722663 127.486046 666.671881 127.486046 664.523444 L 127.486046 642.550788 L 129.829796 639.132819 L 110.98214 639.132819 L 113.423546 642.550788 L 113.423546 664.523444 C 113.423546 666.671881 110.884484 668.722663 109.126671 669.503913 Z M 131.685265 669.503913 " transform="matrix(0.04,0,0,0.04,4.685714,-17.397344)"/>
<path style="fill-rule:nonzero;fill:rgb(100%,100%,100%);fill-opacity:1;stroke-width:0.96;stroke-linecap:butt;stroke-linejoin:miter;stroke:rgb(0%,0%,0%);stroke-opacity:1;stroke-miterlimit:4;" d="M 115.962609 639.132819 L 124.946984 639.132819 L 124.946984 669.601569 L 115.962609 669.601569 Z M 115.962609 639.132819 " transform="matrix(0.04,0,0,0.04,4.685714,-17.397344)"/>
<path style="fill-rule:nonzero;fill:rgb(100%,100%,100%);fill-opacity:1;stroke-width:0.96;stroke-linecap:butt;stroke-linejoin:bevel;stroke:rgb(0%,0%,0%);stroke-opacity:1;stroke-miterlimit:4;" d="M 103.657921 647.628913 L 107.271203 647.628913 L 107.271203 664.132819 L 103.657921 664.132819 Z M 103.657921 647.628913 " transform="matrix(0.04,0,0,0.04,4.685714,-17.397344)"/>
<path style="fill-rule:nonzero;fill:rgb(100%,100%,100%);fill-opacity:1;stroke-width:0.96;stroke-linecap:butt;stroke-linejoin:bevel;stroke:rgb(0%,0%,0%);stroke-opacity:1;stroke-miterlimit:4;" d="M 134.41964 647.628913 L 138.032921 647.628913 L 138.032921 664.132819 L 134.41964 664.132819 Z M 134.41964 647.628913 " transform="matrix(0.04,0,0,0.04,4.685714,-17.397344)"/>
<path style="fill-rule:nonzero;fill:rgb(100%,100%,100%);fill-opacity:1;stroke-width:0.96;stroke-linecap:butt;stroke-linejoin:bevel;stroke:rgb(0%,0%,0%);stroke-opacity:1;stroke-miterlimit:4;" d="M 100.630578 619.796881 L 104.927453 619.796881 L 104.927453 636.691413 L 100.630578 636.691413 Z M 100.630578 619.796881 " transform="matrix(0.04,0,0,0.04,4.685714,-17.397344)"/>
<path style="fill-rule:nonzero;fill:rgb(100%,100%,100%);fill-opacity:1;stroke-width:0.96;stroke-linecap:butt;stroke-linejoin:bevel;stroke:rgb(0%,0%,0%);stroke-opacity:1;stroke-miterlimit:4;" d="M 100.630578 616.671881 L 104.927453 616.671881 L 104.927453 619.796881 L 100.630578 619.796881 Z M 100.630578 616.671881 " transform="matrix(0.04,0,0,0.04,4.685714,-17.397344)"/>
<path style="fill-rule:nonzero;fill:rgb(100%,100%,100%);fill-opacity:1;stroke-width:1.0337;stroke-linecap:butt;stroke-linejoin:bevel;stroke:rgb(0%,0%,0%);stroke-opacity:1;stroke-miterlimit:4;" d="M 136.177453 623.507819 L 142.329796 623.507819 L 142.329796 636.4961 L 136.177453 636.4961 Z M 136.177453 623.507819 " transform="matrix(0.04,0,0,0.04,4.685714,-17.397344)"/>
<path style="fill-rule:nonzero;fill:rgb(100%,100%,100%);fill-opacity:1;stroke-width:0.96;stroke-linecap:butt;stroke-linejoin:miter;stroke:rgb(0%,0%,0%);stroke-opacity:1;stroke-miterlimit:4;" d="M 104.927453 636.593756 L 104.927453 607.687506 C 106.099328 607.687506 106.29464 611.886725 109.126671 611.886725 C 110.591515 611.886725 110.493859 610.128913 109.614953 608.664069 C 108.931359 607.492194 107.954796 605.734381 109.224328 602.414069 C 110.103234 604.953131 112.349328 605.734381 111.958703 604.171881 C 111.177453 601.437506 109.126671 601.046881 110.689171 596.847663 C 111.177453 600.363288 113.423546 600.167975 112.935265 598.117194 C 112.251671 595.8711 111.079796 594.992194 112.54464 591.769538 C 113.423546 595.382819 114.595421 595.187506 114.595421 592.941413 C 114.595421 589.523444 114.497765 585.910163 118.892296 584.640631 C 118.892296 584.640631 119.087609 581.515631 120.650109 581.515631 C 122.212609 581.515631 122.505578 584.640631 122.505578 584.640631 C 126.802453 585.910163 126.704796 589.523444 126.704796 592.941413 C 126.704796 595.187506 127.876671 595.382819 128.755578 591.769538 C 130.318078 594.992194 129.048546 595.8711 128.364953 598.117194 C 127.876671 600.167975 130.122765 600.363288 130.611046 596.847663 C 132.173546 601.046881 130.122765 601.437506 129.439171 604.171881 C 128.95089 605.734381 131.29464 604.953131 132.07589 602.414069 C 133.345421 605.734381 132.466515 607.492194 131.685265 608.664069 C 130.904015 610.128913 130.708703 611.886725 132.173546 611.886725 C 135.005578 611.886725 135.20089 607.687506 136.470421 607.687506 L 136.470421 636.593756 Z M 104.927453 636.593756 " transform="matrix(0.04,0,0,0.04,4.685714,-17.397344)"/>
<path style="fill-rule:nonzero;fill:rgb(100%,100%,100%);fill-opacity:1;stroke-width:0.96;stroke-linecap:butt;stroke-linejoin:miter;stroke:rgb(0%,0%,0%);stroke-opacity:1;stroke-miterlimit:4;" d="M 98.091515 614.718756 L 98.091515 636.789069 L 100.630578 636.789069 L 100.630578 614.718756 C 99.751671 614.230475 98.872765 614.132819 98.091515 614.718756 Z M 98.091515 614.718756 " transform="matrix(0.04,0,0,0.04,4.685714,-17.397344)"/>
<path style="fill-rule:nonzero;fill:rgb(100%,100%,100%);fill-opacity:1;stroke-width:0.96;stroke-linecap:butt;stroke-linejoin:miter;stroke:rgb(0%,0%,0%);stroke-opacity:1;stroke-miterlimit:4;" d="M 98.189171 629.074225 C 101.314171 630.636725 104.439171 632.492194 105.220421 636.789069 L 98.189171 636.789069 Z M 98.189171 629.074225 " transform="matrix(0.04,0,0,0.04,4.685714,-17.397344)"/>
<path style="fill-rule:nonzero;fill:rgb(100%,100%,100%);fill-opacity:1;stroke-width:0.96;stroke-linecap:butt;stroke-linejoin:miter;stroke:rgb(0%,0%,0%);stroke-opacity:1;stroke-miterlimit:4;" d="M 141.353234 622.4336 L 141.353234 636.789069 L 143.404015 636.789069 L 143.404015 622.335944 C 142.818078 622.042975 141.939171 622.042975 141.353234 622.4336 Z M 141.353234 622.4336 " transform="matrix(0.04,0,0,0.04,4.685714,-17.397344)"/>
<path style="fill-rule:nonzero;fill:rgb(100%,100%,100%);fill-opacity:1;stroke-width:0.96;stroke-linecap:butt;stroke-linejoin:miter;stroke:rgb(0%,0%,0%);stroke-opacity:1;stroke-miterlimit:4;" d="M 143.404015 628.878913 C 140.279015 630.539069 137.251671 632.394538 136.470421 636.691413 L 143.404015 636.691413 Z M 143.404015 628.878913 " transform="matrix(0.04,0,0,0.04,4.685714,-17.397344)"/>
<path style="fill-rule:nonzero;fill:rgb(100%,100%,100%);fill-opacity:1;stroke-width:0.96;stroke-linecap:butt;stroke-linejoin:miter;stroke:rgb(0%,0%,0%);stroke-opacity:1;stroke-miterlimit:4;" d="M 122.798546 595.285163 L 124.654015 593.722663 L 124.654015 591.769538 C 123.970421 591.867194 123.579796 592.062506 123.091515 592.7461 C 122.70089 591.476569 121.821984 590.40235 120.552453 589.816413 C 119.380578 590.40235 118.404015 591.378913 118.01339 592.648444 C 117.525109 592.062506 117.134484 591.867194 116.45089 591.769538 L 116.45089 593.722663 L 118.306359 595.285163 Z M 122.798546 595.285163 " transform="matrix(0.04,0,0,0.04,4.685714,-17.397344)"/>
<path style="fill-rule:nonzero;fill:rgb(100%,100%,100%);fill-opacity:1;stroke-width:0.96;stroke-linecap:butt;stroke-linejoin:miter;stroke:rgb(0%,0%,0%);stroke-opacity:1;stroke-miterlimit:4;" d="M 123.775109 600.167975 L 124.654015 598.312506 L 124.654015 595.773444 C 123.970421 595.8711 123.579796 596.066413 123.091515 596.750006 C 122.70089 595.480475 121.821984 594.406256 120.552453 593.722663 C 119.380578 594.406256 118.404015 595.382819 118.01339 596.65235 C 117.525109 596.066413 117.134484 595.8711 116.45089 595.773444 L 116.45089 598.312506 L 117.329796 600.167975 Z M 123.775109 600.167975 " transform="matrix(0.04,0,0,0.04,4.685714,-17.397344)"/>
<path style="fill-rule:nonzero;fill:rgb(100%,100%,100%);fill-opacity:1;stroke-width:0.96;stroke-linecap:butt;stroke-linejoin:miter;stroke:rgb(0%,0%,0%);stroke-opacity:1;stroke-miterlimit:4;" d="M 123.970421 606.8086 L 126.60714 603.488288 L 126.60714 600.265631 C 125.630578 600.363288 125.142296 600.753913 124.361046 601.828131 C 123.775109 599.679694 122.407921 599.191413 120.552453 598.117194 C 118.696984 599.191413 117.427453 599.582038 116.743859 601.828131 C 116.060265 600.656256 115.474328 600.363288 114.497765 600.265631 L 114.497765 603.488288 L 117.23214 606.8086 Z M 123.970421 606.8086 " transform="matrix(0.04,0,0,0.04,4.685714,-17.397344)"/>
<path style="fill-rule:nonzero;fill:rgb(100%,100%,100%);fill-opacity:1;stroke-width:0.96;stroke-linecap:butt;stroke-linejoin:miter;stroke:rgb(0%,0%,0%);stroke-opacity:1;stroke-miterlimit:4;" d="M 124.751671 613.253913 C 124.751671 613.253913 127.876671 610.519538 128.071984 609.054694 L 128.071984 605.636725 C 126.802453 605.734381 125.630578 606.02735 124.751671 607.492194 C 123.970421 604.562506 122.798546 603.781256 120.552453 602.414069 C 118.306359 603.781256 117.134484 604.562506 116.353234 607.492194 C 115.474328 606.02735 114.302453 605.734381 113.130578 605.636725 L 113.130578 609.054694 C 113.521203 610.519538 116.45089 613.253913 116.45089 613.253913 Z M 124.751671 613.253913 " transform="matrix(0.04,0,0,0.04,4.685714,-17.397344)"/>
<path style="fill-rule:nonzero;fill:rgb(100%,100%,100%);fill-opacity:1;stroke-width:0.96;stroke-linecap:butt;stroke-linejoin:miter;stroke:rgb(0%,0%,0%);stroke-opacity:1;stroke-miterlimit:4;" d="M 126.021203 625.363288 C 126.021203 625.363288 130.318078 620.578131 130.415734 618.722663 L 130.415734 613.253913 C 128.853234 613.546881 127.290734 614.6211 126.118859 616.867194 C 125.142296 612.375006 123.579796 609.250006 120.552453 607.101569 C 117.622765 609.250006 115.962609 612.375006 114.986046 616.867194 C 113.814171 614.6211 112.251671 613.546881 110.689171 613.253913 L 110.689171 618.722663 C 110.98214 620.578131 115.083703 625.363288 115.083703 625.363288 Z M 126.021203 625.363288 " transform="matrix(0.04,0,0,0.04,4.685714,-17.397344)"/>
<path style="fill-rule:nonzero;fill:rgb(100%,100%,100%);fill-opacity:1;stroke-width:0.96;stroke-linecap:butt;stroke-linejoin:miter;stroke:rgb(0%,0%,0%);stroke-opacity:1;stroke-miterlimit:4;" d="M 126.021203 632.394538 C 126.021203 632.394538 129.73214 628.6836 130.415734 627.023444 L 130.415734 621.65235 C 128.853234 621.847663 127.290734 623.019538 126.118859 625.167975 C 125.142296 620.773444 123.579796 618.136725 120.552453 615.988288 C 117.622765 618.136725 115.962609 620.773444 114.986046 625.167975 C 113.814171 623.019538 112.251671 621.847663 110.689171 621.65235 L 110.689171 627.023444 C 111.568078 628.6836 115.083703 632.394538 115.083703 632.394538 Z M 126.021203 632.394538 " transform="matrix(0.04,0,0,0.04,4.685714,-17.397344)"/>
<path style="fill-rule:nonzero;fill:rgb(100%,100%,100%);fill-opacity:1;stroke-width:0.96;stroke-linecap:butt;stroke-linejoin:miter;stroke:rgb(0%,0%,0%);stroke-opacity:1;stroke-miterlimit:4;" d="M 127.583703 636.593756 C 126.509484 631.906256 125.532921 628.390631 120.35714 624.875006 C 115.181359 628.390631 114.302453 631.906256 113.228234 636.593756 Z M 127.583703 636.593756 " transform="matrix(0.04,0,0,0.04,4.685714,-17.397344)"/>
<path style="fill-rule:nonzero;fill:rgb(100%,100%,100%);fill-opacity:1;stroke-width:0.96;stroke-linecap:butt;stroke-linejoin:miter;stroke:rgb(0%,0%,0%);stroke-opacity:1;stroke-miterlimit:4;" d="M 130.220421 639.132819 L 130.220421 632.394538 C 127.876671 633.273444 125.728234 634.640631 124.946984 636.203131 C 124.068078 632.394538 122.407921 630.832038 120.259484 628.488288 C 118.208703 630.832038 116.841515 632.394538 115.962609 636.203131 C 115.181359 634.640631 113.032921 633.273444 110.689171 632.394538 L 110.689171 639.132819 Z M 130.220421 639.132819 " transform="matrix(0.04,0,0,0.04,4.685714,-17.397344)"/>
<path style="fill-rule:nonzero;fill:rgb(100%,100%,100%);fill-opacity:1;stroke-width:0.96;stroke-linecap:butt;stroke-linejoin:miter;stroke:rgb(0%,0%,0%);stroke-opacity:1;stroke-miterlimit:4;" d="M 98.898275 664.230475 L 98.898275 643.820319 C 98.312338 641.1836 96.066244 638.83985 94.406088 638.449225 L 94.406088 620.382819 L 98.117025 622.4336 L 102.4139 641.281256 L 102.4139 664.230475 Z M 98.898275 664.230475 " transform="matrix(-0.04,0,0,0.04,20.315306,-17.397344)"/>
<path style="fill-rule:nonzero;fill:rgb(100%,100%,100%);fill-opacity:1;stroke-width:0.96;stroke-linecap:butt;stroke-linejoin:miter;stroke:rgb(0%,0%,0%);stroke-opacity:1;stroke-miterlimit:4;" d="M 98.898275 664.328131 L 98.898275 643.820319 C 98.312338 641.1836 96.066244 638.83985 94.406088 638.449225 L 94.406088 619.210944 C 96.94515 619.210944 98.117025 622.4336 98.117025 622.4336 L 102.4139 641.281256 L 102.4139 664.132819 Z M 98.898275 664.328131 " transform="matrix(-0.04,0,0,0.04,20.315306,-17.397344)"/>
<path style="fill-rule:nonzero;fill:rgb(100%,100%,100%);fill-opacity:1;stroke-width:0.96;stroke-linecap:butt;stroke-linejoin:miter;stroke:rgb(0%,0%,0%);stroke-opacity:1;stroke-miterlimit:4;" d="M 96.261556 669.503913 C 98.019369 668.722663 100.558431 666.671881 100.558431 664.523444 L 100.558431 638.937506 L 99.386556 636.789069 L 142.843588 636.789069 L 141.183431 638.937506 L 141.183431 664.523444 C 141.183431 666.671881 142.843588 668.722663 144.6014 669.503913 Z M 96.261556 669.503913 " transform="matrix(-0.04,0,0,0.04,20.315306,-17.397344)"/>
<path style="fill-rule:nonzero;fill:rgb(100%,100%,100%);fill-opacity:1;stroke-width:0.96;stroke-linecap:butt;stroke-linejoin:miter;stroke:rgb(0%,0%,0%);stroke-opacity:1;stroke-miterlimit:4;" d="M 135.812338 669.503913 C 134.152181 668.722663 131.613119 666.671881 131.613119 664.523444 L 131.613119 640.207038 L 135.2264 636.789069 L 105.636556 636.789069 L 109.249838 640.207038 L 109.249838 664.523444 C 109.249838 666.671881 106.710775 668.722663 104.952963 669.503913 Z M 135.812338 669.503913 " transform="matrix(-0.04,0,0,0.04,20.315306,-17.397344)"/>
<path style="fill-rule:nonzero;fill:rgb(100%,100%,100%);fill-opacity:1;stroke-width:0.96;stroke-linecap:butt;stroke-linejoin:miter;stroke:rgb(0%,0%,0%);stroke-opacity:1;stroke-miterlimit:4;" d="M 131.710775 669.503913 C 129.952963 668.722663 127.4139 666.671881 127.4139 664.523444 L 127.4139 642.550788 L 129.855306 639.132819 L 111.00765 639.132819 L 113.3514 642.550788 L 113.3514 664.523444 C 113.3514 666.671881 110.909994 668.722663 109.152181 669.503913 Z M 131.710775 669.503913 " transform="matrix(-0.04,0,0,0.04,20.315306,-17.397344)"/>
<path style="fill-rule:nonzero;fill:rgb(100%,100%,100%);fill-opacity:1;stroke-width:0.96;stroke-linecap:butt;stroke-linejoin:miter;stroke:rgb(0%,0%,0%);stroke-opacity:1;stroke-miterlimit:4;" d="M 115.890463 639.132819 L 124.874838 639.132819 L 124.874838 669.601569 L 115.890463 669.601569 Z M 115.890463 639.132819 " transform="matrix(-0.04,0,0,0.04,20.315306,-17.397344)"/>
<path style="fill-rule:nonzero;fill:rgb(100%,100%,100%);fill-opacity:1;stroke-width:0.96;stroke-linecap:butt;stroke-linejoin:bevel;stroke:rgb(0%,0%,0%);stroke-opacity:1;stroke-miterlimit:4;" d="M 103.683431 647.628913 L 107.296713 647.628913 L 107.296713 664.132819 L 103.683431 664.132819 Z M 103.683431 647.628913 " transform="matrix(-0.04,0,0,0.04,20.315306,-17.397344)"/>
<path style="fill-rule:nonzero;fill:rgb(100%,100%,100%);fill-opacity:1;stroke-width:0.96;stroke-linecap:butt;stroke-linejoin:bevel;stroke:rgb(0%,0%,0%);stroke-opacity:1;stroke-miterlimit:4;" d="M 134.44515 647.628913 L 138.058431 647.628913 L 138.058431 664.132819 L 134.44515 664.132819 Z M 134.44515 647.628913 " transform="matrix(-0.04,0,0,0.04,20.315306,-17.397344)"/>
<path style="fill-rule:nonzero;fill:rgb(100%,100%,100%);fill-opacity:1;stroke-width:0.96;stroke-linecap:butt;stroke-linejoin:bevel;stroke:rgb(0%,0%,0%);stroke-opacity:1;stroke-miterlimit:4;" d="M 100.656088 619.796881 L 104.952963 619.796881 L 104.952963 636.691413 L 100.656088 636.691413 Z M 100.656088 619.796881 " transform="matrix(-0.04,0,0,0.04,20.315306,-17.397344)"/>
<path style="fill-rule:nonzero;fill:rgb(100%,100%,100%);fill-opacity:1;stroke-width:0.96;stroke-linecap:butt;stroke-linejoin:bevel;stroke:rgb(0%,0%,0%);stroke-opacity:1;stroke-miterlimit:4;" d="M 100.656088 616.671881 L 104.952963 616.671881 L 104.952963 619.796881 L 100.656088 619.796881 Z M 100.656088 616.671881 " transform="matrix(-0.04,0,0,0.04,20.315306,-17.397344)"/>
<path style="fill-rule:nonzero;fill:rgb(100%,100%,100%);fill-opacity:1;stroke-width:1.0337;stroke-linecap:butt;stroke-linejoin:bevel;stroke:rgb(0%,0%,0%);stroke-opacity:1;stroke-miterlimit:4;" d="M 136.202963 623.507819 L 142.355306 623.507819 L 142.355306 636.4961 L 136.202963 636.4961 Z M 136.202963 623.507819 " transform="matrix(-0.04,0,0,0.04,20.315306,-17.397344)"/>
<path style="fill-rule:nonzero;fill:rgb(100%,100%,100%);fill-opacity:1;stroke-width:0.96;stroke-linecap:butt;stroke-linejoin:miter;stroke:rgb(0%,0%,0%);stroke-opacity:1;stroke-miterlimit:4;" d="M 104.855306 636.593756 L 104.855306 607.687506 C 106.124838 607.687506 106.32015 611.886725 109.152181 611.886725 C 110.617025 611.886725 110.421713 610.128913 109.640463 608.664069 C 108.859213 607.492194 107.980306 605.734381 109.249838 602.414069 C 110.031088 604.953131 112.374838 605.734381 111.886556 604.171881 C 111.202963 601.437506 109.152181 601.046881 110.714681 596.847663 C 111.202963 600.363288 113.449056 600.167975 112.863119 598.117194 C 112.277181 595.8711 111.00765 594.992194 112.57015 591.769538 C 113.449056 595.382819 114.620931 595.187506 114.620931 592.941413 C 114.620931 589.523444 114.523275 585.910163 118.82015 584.640631 C 118.82015 584.640631 119.113119 581.515631 120.675619 581.515631 C 122.238119 581.515631 122.433431 584.640631 122.433431 584.640631 C 126.827963 585.910163 126.63265 589.523444 126.63265 592.941413 C 126.63265 595.187506 127.804525 595.382819 128.683431 591.769538 C 130.245931 594.992194 128.9764 595.8711 128.390463 598.117194 C 127.902181 600.167975 130.050619 600.363288 130.636556 596.847663 C 132.199056 601.046881 130.148275 601.437506 129.367025 604.171881 C 128.9764 605.734381 131.222494 604.953131 132.1014 602.414069 C 133.370931 605.734381 132.394369 607.492194 131.710775 608.664069 C 130.831869 610.128913 130.734213 611.886725 132.199056 611.886725 C 135.031088 611.886725 135.2264 607.687506 136.398275 607.687506 L 136.398275 636.593756 Z M 104.855306 636.593756 " transform="matrix(-0.04,0,0,0.04,20.315306,-17.397344)"/>
<path style="fill-rule:nonzero;fill:rgb(100%,100%,100%);fill-opacity:1;stroke-width:0.96;stroke-linecap:butt;stroke-linejoin:miter;stroke:rgb(0%,0%,0%);stroke-opacity:1;stroke-miterlimit:4;" d="M 98.117025 614.718756 L 98.117025 636.789069 L 100.656088 636.789069 L 100.656088 614.718756 C 99.777181 614.230475 98.898275 614.132819 98.117025 614.718756 Z M 98.117025 614.718756 " transform="matrix(-0.04,0,0,0.04,20.315306,-17.397344)"/>
<path style="fill-rule:nonzero;fill:rgb(100%,100%,100%);fill-opacity:1;stroke-width:0.96;stroke-linecap:butt;stroke-linejoin:miter;stroke:rgb(0%,0%,0%);stroke-opacity:1;stroke-miterlimit:4;" d="M 98.214681 629.074225 C 101.339681 630.636725 104.367025 632.492194 105.148275 636.789069 L 98.214681 636.789069 Z M 98.214681 629.074225 " transform="matrix(-0.04,0,0,0.04,20.315306,-17.397344)"/>
<path style="fill-rule:nonzero;fill:rgb(100%,100%,100%);fill-opacity:1;stroke-width:0.96;stroke-linecap:butt;stroke-linejoin:miter;stroke:rgb(0%,0%,0%);stroke-opacity:1;stroke-miterlimit:4;" d="M 141.378744 622.4336 L 141.378744 636.789069 L 143.429525 636.789069 L 143.429525 622.335944 C 142.745931 622.042975 141.867025 622.042975 141.378744 622.4336 Z M 141.378744 622.4336 " transform="matrix(-0.04,0,0,0.04,20.315306,-17.397344)"/>
<path style="fill-rule:nonzero;fill:rgb(100%,100%,100%);fill-opacity:1;stroke-width:0.96;stroke-linecap:butt;stroke-linejoin:miter;stroke:rgb(0%,0%,0%);stroke-opacity:1;stroke-miterlimit:4;" d="M 143.429525 628.878913 C 140.304525 630.539069 137.179525 632.394538 136.398275 636.691413 L 143.429525 636.691413 Z M 143.429525 628.878913 " transform="matrix(-0.04,0,0,0.04,20.315306,-17.397344)"/>
<path style="fill-rule:nonzero;fill:rgb(100%,100%,100%);fill-opacity:1;stroke-width:0.96;stroke-linecap:butt;stroke-linejoin:miter;stroke:rgb(0%,0%,0%);stroke-opacity:1;stroke-miterlimit:4;" d="M 122.824056 595.285163 L 124.679525 593.722663 L 124.679525 591.769538 C 123.995931 591.867194 123.605306 592.062506 123.117025 592.7461 C 122.7264 591.476569 121.749838 590.40235 120.577963 589.816413 C 119.308431 590.40235 118.429525 591.378913 118.0389 592.648444 C 117.550619 592.062506 117.159994 591.867194 116.4764 591.769538 L 116.4764 593.722663 L 118.331869 595.285163 Z M 122.824056 595.285163 " transform="matrix(-0.04,0,0,0.04,20.315306,-17.397344)"/>
<path style="fill-rule:nonzero;fill:rgb(100%,100%,100%);fill-opacity:1;stroke-width:0.96;stroke-linecap:butt;stroke-linejoin:miter;stroke:rgb(0%,0%,0%);stroke-opacity:1;stroke-miterlimit:4;" d="M 123.800619 600.167975 L 124.679525 598.312506 L 124.679525 595.773444 C 123.995931 595.8711 123.605306 596.066413 123.117025 596.750006 C 122.7264 595.480475 121.749838 594.406256 120.577963 593.722663 C 119.308431 594.406256 118.429525 595.382819 118.0389 596.65235 C 117.550619 596.066413 117.159994 595.8711 116.4764 595.773444 L 116.4764 598.312506 L 117.355306 600.167975 Z M 123.800619 600.167975 " transform="matrix(-0.04,0,0,0.04,20.315306,-17.397344)"/>
<path style="fill-rule:nonzero;fill:rgb(100%,100%,100%);fill-opacity:1;stroke-width:0.96;stroke-linecap:butt;stroke-linejoin:miter;stroke:rgb(0%,0%,0%);stroke-opacity:1;stroke-miterlimit:4;" d="M 123.898275 606.8086 L 126.63265 603.488288 L 126.63265 600.265631 C 125.656088 600.363288 125.07015 600.753913 124.386556 601.828131 C 123.800619 599.679694 122.433431 599.191413 120.577963 598.117194 C 118.722494 599.191413 117.355306 599.582038 116.769369 601.828131 C 115.988119 600.656256 115.499838 600.363288 114.523275 600.265631 L 114.523275 603.488288 L 117.159994 606.8086 Z M 123.898275 606.8086 " transform="matrix(-0.04,0,0,0.04,20.315306,-17.397344)"/>
<path style="fill-rule:nonzero;fill:rgb(100%,100%,100%);fill-opacity:1;stroke-width:0.96;stroke-linecap:butt;stroke-linejoin:miter;stroke:rgb(0%,0%,0%);stroke-opacity:1;stroke-miterlimit:4;" d="M 124.679525 613.253913 C 124.679525 613.253913 127.902181 610.519538 127.999838 609.054694 L 127.999838 605.636725 C 126.827963 605.734381 125.656088 606.02735 124.777181 607.492194 C 123.995931 604.562506 122.824056 603.781256 120.577963 602.414069 C 118.331869 603.781256 117.159994 604.562506 116.378744 607.492194 C 115.499838 606.02735 114.327963 605.734381 113.058431 605.636725 L 113.058431 609.054694 C 113.449056 610.519538 116.378744 613.253913 116.378744 613.253913 Z M 124.679525 613.253913 " transform="matrix(-0.04,0,0,0.04,20.315306,-17.397344)"/>
<path style="fill-rule:nonzero;fill:rgb(100%,100%,100%);fill-opacity:1;stroke-width:0.96;stroke-linecap:butt;stroke-linejoin:miter;stroke:rgb(0%,0%,0%);stroke-opacity:1;stroke-miterlimit:4;" d="M 126.046713 625.363288 C 126.046713 625.363288 130.343588 620.578131 130.441244 618.722663 L 130.441244 613.253913 C 128.878744 613.546881 127.316244 614.6211 126.144369 616.867194 C 125.167806 612.375006 123.50765 609.250006 120.577963 607.101569 C 117.550619 609.250006 115.988119 612.375006 115.011556 616.867194 C 113.839681 614.6211 112.277181 613.546881 110.714681 613.253913 L 110.714681 618.722663 C 111.00765 620.578131 115.109213 625.363288 115.109213 625.363288 Z M 126.046713 625.363288 " transform="matrix(-0.04,0,0,0.04,20.315306,-17.397344)"/>
<path style="fill-rule:nonzero;fill:rgb(100%,100%,100%);fill-opacity:1;stroke-width:0.96;stroke-linecap:butt;stroke-linejoin:miter;stroke:rgb(0%,0%,0%);stroke-opacity:1;stroke-miterlimit:4;" d="M 126.046713 632.394538 C 126.046713 632.394538 129.75765 628.6836 130.441244 627.023444 L 130.441244 621.65235 C 128.878744 621.847663 127.316244 623.019538 126.144369 625.167975 C 125.167806 620.773444 123.50765 618.136725 120.577963 615.988288 C 117.550619 618.136725 115.988119 620.773444 115.011556 625.167975 C 113.839681 623.019538 112.277181 621.847663 110.714681 621.65235 L 110.714681 627.023444 C 111.593588 628.6836 115.109213 632.394538 115.109213 632.394538 Z M 126.046713 632.394538 " transform="matrix(-0.04,0,0,0.04,20.315306,-17.397344)"/>
<path style="fill-rule:nonzero;fill:rgb(100%,100%,100%);fill-opacity:1;stroke-width:0.96;stroke-linecap:butt;stroke-linejoin:miter;stroke:rgb(0%,0%,0%);stroke-opacity:1;stroke-miterlimit:4;" d="M 127.511556 636.593756 C 126.437338 631.906256 125.558431 628.390631 120.38265 624.875006 C 115.206869 628.390631 114.327963 631.906256 113.253744 636.593756 Z M 127.511556 636.593756 " transform="matrix(-0.04,0,0,0.04,20.315306,-17.397344)"/>
<path style="fill-rule:nonzero;fill:rgb(100%,100%,100%);fill-opacity:1;stroke-width:0.96;stroke-linecap:butt;stroke-linejoin:miter;stroke:rgb(0%,0%,0%);stroke-opacity:1;stroke-miterlimit:4;" d="M 130.245931 639.132819 L 130.245931 632.394538 C 127.902181 633.273444 125.753744 634.640631 124.972494 636.203131 C 124.093588 632.394538 122.433431 630.832038 120.284994 628.488288 C 118.234213 630.832038 116.769369 632.394538 115.890463 636.203131 C 115.109213 634.640631 113.058431 633.273444 110.714681 632.394538 L 110.714681 639.132819 Z M 130.245931 639.132819 " transform="matrix(-0.04,0,0,0.04,20.315306,-17.397344)"/>
<path style="fill-rule:nonzero;fill:rgb(100%,100%,100%);fill-opacity:1;stroke-width:0.96;stroke-linecap:butt;stroke-linejoin:miter;stroke:rgb(0%,0%,0%);stroke-opacity:1;stroke-miterlimit:4;" d="M 72.70089 694.210944 L 318.01339 694.210944 L 318.01339 706.8086 L 72.70089 706.8086 Z M 72.70089 694.210944 " transform="matrix(0.04,0,0,0.04,4.685714,-17.397344)"/>
<path style="fill-rule:nonzero;fill:rgb(100%,100%,100%);fill-opacity:1;stroke-width:0.96;stroke-linecap:butt;stroke-linejoin:miter;stroke:rgb(0%,0%,0%);stroke-opacity:1;stroke-miterlimit:4;" d="M 66.255578 706.8086 L 324.458703 706.8086 L 324.458703 719.3086 L 66.255578 719.3086 Z M 66.255578 706.8086 " transform="matrix(0.04,0,0,0.04,4.685714,-17.397344)"/>
<path style="fill-rule:nonzero;fill:rgb(100%,100%,100%);fill-opacity:1;stroke-width:0.96;stroke-linecap:butt;stroke-linejoin:miter;stroke:rgb(0%,0%,0%);stroke-opacity:1;stroke-miterlimit:4;" d="M 85.591515 675.5586 L 305.122765 675.5586 L 305.122765 683.664069 L 85.591515 683.664069 Z M 85.591515 675.5586 " transform="matrix(0.04,0,0,0.04,4.685714,-17.397344)"/>
<path style="fill-rule:nonzero;fill:rgb(100%,100%,100%);fill-opacity:1;stroke-width:0.96;stroke-linecap:butt;stroke-linejoin:miter;stroke:rgb(0%,0%,0%);stroke-opacity:1;stroke-miterlimit:4;" d="M 79.146203 683.566413 L 311.568078 683.566413 L 311.568078 694.210944 L 79.146203 694.210944 Z M 79.146203 683.566413 " transform="matrix(0.04,0,0,0.04,4.685714,-17.397344)"/>
<path style="fill-rule:nonzero;fill:rgb(100%,100%,100%);fill-opacity:1;stroke-width:0.96;stroke-linecap:butt;stroke-linejoin:miter;stroke:rgb(0%,0%,0%);stroke-opacity:1;stroke-miterlimit:4;" d="M 89.400109 669.3086 L 301.314171 669.3086 L 301.314171 675.460944 L 89.400109 675.460944 Z M 89.400109 669.3086 " transform="matrix(0.04,0,0,0.04,4.685714,-17.397344)"/>
<path style="fill-rule:nonzero;fill:rgb(100%,100%,100%);fill-opacity:1;stroke-width:1.0446;stroke-linecap:butt;stroke-linejoin:miter;stroke:rgb(0%,0%,0%);stroke-opacity:1;stroke-miterlimit:4;" d="M 112.446984 669.3086 L 128.462609 669.3086 L 128.462609 719.210944 L 112.446984 719.210944 Z M 112.446984 669.3086 " transform="matrix(0.04,0,0,0.04,4.685714,-17.397344)"/>
<path style="fill-rule:nonzero;fill:rgb(100%,100%,100%);fill-opacity:1;stroke-width:1.0429;stroke-linecap:butt;stroke-linejoin:miter;stroke:rgb(0%,0%,0%);stroke-opacity:1;stroke-miterlimit:4;" d="M 115.962609 669.3086 L 124.849328 669.3086 L 124.849328 719.210944 L 115.962609 719.210944 Z M 115.962609 669.3086 " transform="matrix(0.04,0,0,0.04,4.685714,-17.397344)"/>
<path style="fill-rule:nonzero;fill:rgb(100%,100%,100%);fill-opacity:1;stroke-width:1.0446;stroke-linecap:butt;stroke-linejoin:miter;stroke:rgb(0%,0%,0%);stroke-opacity:1;stroke-miterlimit:4;" d="M 187.056359 669.3086 L 203.071984 669.3086 L 203.071984 719.210944 L 187.056359 719.210944 Z M 187.056359 669.3086 " transform="matrix(0.04,0,0,0.04,4.685714,-17.397344)"/>
<path style="fill-rule:nonzero;fill:rgb(100%,100%,100%);fill-opacity:1;stroke-width:1.0429;stroke-linecap:butt;stroke-linejoin:miter;stroke:rgb(0%,0%,0%);stroke-opacity:1;stroke-miterlimit:4;" d="M 190.767296 669.3086 L 199.654015 669.3086 L 199.654015 719.210944 L 190.767296 719.210944 Z M 190.767296 669.3086 " transform="matrix(0.04,0,0,0.04,4.685714,-17.397344)"/>
<path style="fill-rule:nonzero;fill:rgb(100%,100%,100%);fill-opacity:1;stroke-width:1.0446;stroke-linecap:butt;stroke-linejoin:miter;stroke:rgb(0%,0%,0%);stroke-opacity:1;stroke-miterlimit:4;" d="M 262.154015 669.3086 L 278.16964 669.3086 L 278.16964 719.210944 L 262.154015 719.210944 Z M 262.154015 669.3086 " transform="matrix(0.04,0,0,0.04,4.685714,-17.397344)"/>
<path style="fill-rule:nonzero;fill:rgb(100%,100%,100%);fill-opacity:1;stroke-width:1.0429;stroke-linecap:butt;stroke-linejoin:miter;stroke:rgb(0%,0%,0%);stroke-opacity:1;stroke-miterlimit:4;" d="M 265.767296 669.3086 L 274.654015 669.3086 L 274.654015 719.210944 L 265.767296 719.210944 Z M 265.767296 669.3086 " transform="matrix(0.04,0,0,0.04,4.685714,-17.397344)"/>
<path style="fill:none;stroke-width:0.96;stroke-linecap:butt;stroke-linejoin:miter;stroke:rgb(0%,0%,0%);stroke-opacity:1;stroke-miterlimit:4;" d="M 98.970421 664.230475 L 292.036828 664.230475 " transform="matrix(0.04,0,0,0.04,4.685714,-17.397344)"/>
<path style="fill:none;stroke-width:0.96;stroke-linecap:butt;stroke-linejoin:miter;stroke:rgb(0%,0%,0%);stroke-opacity:1;stroke-miterlimit:4;" d="M 115.767296 712.960944 L 125.04464 712.960944 M 115.767296 706.710944 L 125.04464 706.710944 M 115.767296 700.460944 L 125.04464 700.460944 M 115.767296 694.210944 L 125.04464 694.210944 M 115.767296 687.960944 L 125.04464 687.960944 M 115.767296 681.710944 L 125.04464 681.710944 M 115.767296 675.460944 L 125.04464 675.460944 " transform="matrix(0.04,0,0,0.04,4.685714,-17.397344)"/>
<path style="fill:none;stroke-width:0.96;stroke-linecap:butt;stroke-linejoin:miter;stroke:rgb(0%,0%,0%);stroke-opacity:1;stroke-miterlimit:4;" d="M 190.767296 712.960944 L 199.361046 712.960944 M 190.767296 706.710944 L 199.361046 706.710944 M 190.767296 700.460944 L 199.361046 700.460944 M 190.767296 694.210944 L 199.361046 694.210944 M 190.767296 687.960944 L 199.361046 687.960944 M 190.767296 681.710944 L 199.361046 681.710944 M 190.767296 675.460944 L 199.361046 675.460944 " transform="matrix(0.04,0,0,0.04,4.685714,-17.397344)"/>
<path style="fill:none;stroke-width:0.96;stroke-linecap:butt;stroke-linejoin:miter;stroke:rgb(0%,0%,0%);stroke-opacity:1;stroke-miterlimit:4;" d="M 265.571984 712.960944 L 274.849328 712.960944 M 265.571984 706.710944 L 274.849328 706.710944 M 265.571984 700.460944 L 274.849328 700.460944 M 265.571984 694.210944 L 274.849328 694.210944 M 265.571984 687.960944 L 274.849328 687.960944 M 265.571984 681.710944 L 274.849328 681.710944 M 265.571984 675.460944 L 274.849328 675.460944 " transform="matrix(0.04,0,0,0.04,4.685714,-17.397344)"/>
</g>
</svg>
