<svg xmlns="http://www.w3.org/2000/svg" xmlns:xlink="http://www.w3.org/1999/xlink" viewBox="0 0 24 12" width="24" height="12"><defs><style>.str1{stroke:#000;stroke-width:.46;stroke-miterlimit:22.9256}.fil3{fill:none}</style></defs><path fill="#c81010" d="M0 0h24v6.48H0z"/><g id="bird"><path id="bird_outline" class="str1" d="M12.23 1.094c-0.763 -0.316 -1.23 -0.374 -1.752 -0.379 -0.756 0.005 -1.117 0.33 -1.838 0.36 0.286 0.308 1.321 0.383 1.757 -0.021 0.649 0.068 0.796 0.243 0.97 0.461 -0.271 -0.043 -0.583 -0.121 -0.842 0.166 -0.218 0.044 -0.32 0 -0.693 0 -0.174 0 -0.235 0.086 -0.232 0.24 0.113 -0.156 0.892 -0.064 1.084 0 0.147 0.049 0.303 0.253 0.489 0.286 0.488 0.087 1.187 -0.168 1.832 -0.342L14.4 1.68h-0.957L14.64 1.44h-1.302c-0.028 -0.032 -0.094 -0.072 -0.146 -0.107 0.335 -0.216 0.631 -0.608 0.706 -0.797 0.604 -0.006 0.993 -0.062 1.462 -0.172 -3.087 -0.342 -2.384 0.027 -3.13 0.729z" fill="#f8d000"/><path id="eye" d="M10.802 1.596c0.033 0 0.06 0.027 0.06 0.06s-0.027 0.06 -0.06 0.06c-0.033 0 -0.06 -0.027 -0.06 -0.06s0.027 -0.06 0.06 -0.06z" fill="#000"/><path id="eye_outline" d="M10.802 1.596c0.033 0 0.06 0.027 0.06 0.06s-0.027 0.06 -0.06 0.06c-0.033 0 -0.06 -0.027 -0.06 -0.06s0.027 -0.06 0.06 -0.06z" fill="none" fill-rule="nonzero" stroke="#000" stroke-width="0.006" stroke-miterlimit="22.926"/><path class="fil3 str1" d="M11.605 1.532S11.354 1.68 11.188 1.68m1.817 0.184S13.234 1.68 13.443 1.68M9.353 0.984s0.186 -0.098 0.274 -0.124m0.498 -0.016s0.296 -0.128 0.625 -0.121m0.174 0.152s0.388 -0.065 0.746 0.014m-0.3 0.079s0.322 -0.054 0.63 0.033m-0.299 0.065s0.328 0.004 0.49 0.068M8.64 1.075s0.46 0.126 0.833 -0.054m-0.775 0.108s0.597 0.147 0.87 -0.126m-0.67 0.229s0.45 0.145 0.803 -0.229m-0.386 0.32s0.363 -0.104 0.501 -0.318m-0.217 0.324s0.244 -0.169 0.331 -0.319m2.807 0.129s0.095 0.12 0.454 0.194m-0.39 -0.25s0.154 0.154 0.475 0.192m-0.397 -0.264s0.156 0.134 0.497 0.184m-0.42 -0.262s0.239 0.16 0.512 0.178m-0.417 -0.279s0.168 0.156 0.5 0.195m-0.43 -0.276s0.196 0.169 0.505 0.192m-0.436 -0.276s0.12 0.139 0.518 0.176m-0.447 -0.266s0.134 0.147 0.511 0.179m-0.456 -0.254s0.236 0.178 0.509 0.174m-0.462 -0.242s0.312 0.187 0.498 0.181m-0.441 -0.268s0.248 0.154 0.479 0.188m-1.545 0.679s0.1 0.076 0.194 0.072m-0.136 -0.128s0.087 0.074 0.206 0.074m-0.136 -0.142s0.098 0.092 0.216 0.075m-0.15 -0.142s0.118 0.08 0.223 0.078m-0.149 -0.153s0.087 0.076 0.225 0.083m-0.16 -0.166s0.102 0.091 0.233 0.094m-0.164 -0.154s0.099 0.064 0.24 0.076m-0.177 -0.146s0.134 0.047 0.257 0.059m-0.184 -0.144s0.092 0.065 0.256 0.061m-0.191 -0.146s0.11 0.073 0.25 0.074m-0.202 -0.156s0.147 0.082 0.274 0.064m-0.22 -0.161s0.093 0.102 0.267 0.098m-0.229 -0.142s0.167 0.094 0.28 0.07m-0.21 -0.123s0.127 0.077 0.243 0.074m-0.114 -0.113s0.226 0.115 0.532 -0.01m-0.339 0.092s0.457 0.105 0.655 -0.078m-0.296 0.106s0.314 0.033 0.665 -0.078m-0.456 0.08s0.477 0.096 1.305 0.004M9.73 1.318s0.213 -0.14 0.302 -0.302m-0.142 0.276s0.172 -0.166 0.222 -0.27m-0.063 0.227s0.141 -0.127 0.172 -0.216m-0.862 -0.008s0.306 -0.067 1.039 0.027m-0.756 -0.15s0.257 -0.124 0.486 -0.162m-0.23 0.111s0.188 -0.088 0.464 -0.132m-0.038 0.116s0.26 -0.111 0.577 -0.1m-0.249 0.102s0.356 -0.08 0.684 -0.035m0.269 0.209s0.272 -0.012 0.584 0.065m-1.048 -0.174s0.389 -0.021 0.656 0.028m1.751 -0.588s0.134 0.116 0.509 0.19m-0.298 -0.172s0.21 0.12 0.542 0.161m-0.322 -0.16s0.295 0.128 0.607 0.136m-0.28 -0.108s0.301 0.072 0.674 0.053m-4.483 0.387s0.204 -0.084 0.566 -0.077m0.78 0.383s0.122 -0.015 0.274 0.058"/><path class="fil3 str1" d="M11.367 1.514c0.084 0.013 0.165 0.023 0.238 0.017 0.286 -0.156 0.482 -0.303 0.625 -0.438"/></g><g fill="#f8d000" stroke="#000" stroke-width=".46" stroke-miterlimit="22.926"><g id="rays_6"><g id="rays_2" transform="rotate(-84.706 300 156)"><path id="wavy" d="M11.625 4.235A2 2 0 0 1 12 2.64a2 2 0 0 0 0.375 1.595" transform="rotate(13.4 300 156)"/><path id="straight" d="M11.625 4.235 12 2.52l0.375 1.715"/></g><use xlink:href="#rays_2" transform="rotate(21.18 300 156)"/><use xlink:href="#rays_2" transform="rotate(42.35 300 156)"/></g><use xlink:href="#rays_6" transform="rotate(63.53 300 156)"/><use xlink:href="#rays_6" transform="rotate(127.06 300 156)"/><path cx="300" cy="156" r="51" d="M14.04 6.24A2.04 2.04 0 0 1 12 8.28A2.04 2.04 0 0 1 9.96 6.24A2.04 2.04 0 0 1 14.04 6.24z"/></g><path fill="#183070" d="M0 6.48h24v5.52H0z"/><path d="M-1.44 6.72q1.2 -0.48 2.4 0t2.4 0 2.4 0 2.4 0q1.2 -0.48 2.52 0t2.64 0q1.32 -0.48 2.52 0t2.4 0 2.4 0 2.4 0 2.4 0" fill="none" stroke="#fff" stroke-width="0.96" id="wave"/><use xlink:href="#wave" y="48"/><use xlink:href="#wave" y="96"/></svg>