<?xml version="1.0" encoding="UTF-8"?>
<svg xmlns="http://www.w3.org/2000/svg" xmlns:xlink="http://www.w3.org/1999/xlink" width="24px" height="16px" viewBox="0 0 26 16" version="1.1">
<g id="surface1">
<rect x="0" y="0" width="26" height="16" style="fill:rgb(22.745098%,45.882353%,76.862745%);fill-opacity:1;stroke:none;"/>
<path style=" stroke:none;fill-rule:nonzero;fill:rgb(80.784314%,6.666667%,14.901961%);fill-opacity:1;" d="M 0 0 L 26 0 L 26 12 L 0 12 Z M 0 0 "/>
<path style=" stroke:none;fill-rule:nonzero;fill:rgb(100%,100%,100%);fill-opacity:1;" d="M 0 0 L 26 0 L 26 8 L 0 8 Z M 0 0 "/>
<path style=" stroke:none;fill-rule:nonzero;fill:rgb(100%,77.647059%,11.764706%);fill-opacity:1;" d="M 0 0 L 26 0 L 26 4 L 0 4 Z M 0 0 "/>
<path style=" stroke:none;fill-rule:nonzero;fill:rgb(23.921569%,55.686275%,20%);fill-opacity:1;" d="M 0 16 L 13 8 L 0 0 Z M 0 16 "/>
<path style=" stroke:none;fill-rule:nonzero;fill:rgb(100%,100%,100%);fill-opacity:1;" d="M 7.929688 8 C 7.929688 9.988281 6.359375 11.601562 4.421875 11.601562 C 2.480469 11.601562 0.910156 9.988281 0.910156 8 C 0.910156 6.011719 2.480469 4.398438 4.421875 4.398438 C 6.359375 4.398438 7.929688 6.011719 7.929688 8 Z M 7.929688 8 "/>
<path style=" stroke:none;fill-rule:nonzero;fill:rgb(23.921569%,55.686275%,20%);fill-opacity:1;" d="M 9.488281 8 C 9.488281 9.988281 7.917969 11.601562 5.980469 11.601562 C 4.042969 11.601562 2.46875 9.988281 2.46875 8 C 2.46875 6.011719 4.042969 4.398438 5.980469 4.398438 C 7.917969 4.398438 9.488281 6.011719 9.488281 8 Z M 9.488281 8 "/>
<path style=" stroke:none;fill-rule:nonzero;fill:rgb(100%,100%,100%);fill-opacity:1;" d="M 5.199219 4.757812 L 5.582031 5.960938 L 4.582031 5.21875 L 5.816406 5.21875 L 4.816406 5.960938 Z M 5.199219 4.757812 "/>
<path style=" stroke:none;fill-rule:nonzero;fill:rgb(100%,100%,100%);fill-opacity:1;" d="M 5.199219 6.476562 L 5.582031 7.679688 L 4.582031 6.9375 L 5.816406 6.9375 L 4.816406 7.679688 Z M 5.199219 6.476562 "/>
<path style=" stroke:none;fill-rule:nonzero;fill:rgb(100%,100%,100%);fill-opacity:1;" d="M 5.199219 8.191406 L 5.582031 9.398438 L 4.582031 8.652344 L 5.816406 8.652344 L 4.816406 9.398438 Z M 5.199219 8.191406 "/>
<path style=" stroke:none;fill-rule:nonzero;fill:rgb(100%,100%,100%);fill-opacity:1;" d="M 5.199219 9.910156 L 5.582031 11.117188 L 4.582031 10.371094 L 5.816406 10.371094 L 4.816406 11.117188 Z M 5.199219 9.910156 "/>
</g>
</svg>
