<?xml version="1.0" encoding="UTF-8"?>
<svg xmlns="http://www.w3.org/2000/svg" xmlns:xlink="http://www.w3.org/1999/xlink" width="24px" height="16px" viewBox="0 0 24 16" version="1.1">
<g id="surface1">
<rect x="0" y="0" width="24" height="16" style="fill:rgb(100%,100%,100%);fill-opacity:1;stroke:none;"/>
<path style="fill-rule:nonzero;fill:rgb(0%,0%,0%);fill-opacity:1;stroke-width:2;stroke-linecap:butt;stroke-linejoin:miter;stroke:rgb(0%,0%,0%);stroke-opacity:1;stroke-miterlimit:4;" d="M -6.003083 -24.997268 L 5.996642 -24.997254 M -6.003087 -21.997337 L 5.996638 -21.997323 M -6.00309 -18.997405 L 5.996635 -18.997391 " transform="matrix(0.1849,-0.27735,0.27735,0.1849,12,8)"/>
<path style="fill-rule:nonzero;fill:rgb(0%,0%,0%);fill-opacity:1;stroke-width:2;stroke-linecap:butt;stroke-linejoin:miter;stroke:rgb(0%,0%,0%);stroke-opacity:1;stroke-miterlimit:4;" d="M -5.996635 -25.002609 L 6.00309 -25.002595 M -5.996638 -22.002677 L 6.003087 -22.002663 M -5.996642 -19.002746 L 6.003083 -19.002732 " transform="matrix(0.1849,-0.27735,0.27735,0.1849,24.203414,16.135588)"/>
<path style="fill-rule:nonzero;fill:rgb(0%,0%,0%);fill-opacity:1;stroke-width:1;stroke-linecap:butt;stroke-linejoin:miter;stroke:rgb(100%,100%,100%);stroke-opacity:1;stroke-miterlimit:4;" d="M -0.00327023 17.001778 L -0.0000318201 26.999382 " transform="matrix(0.1849,-0.27735,0.27735,0.1849,12,8)"/>
<path style=" stroke:none;fill-rule:nonzero;fill:rgb(80.392157%,18.039216%,22.745098%);fill-opacity:1;" d="M 14.21875 4.671875 C 16.058594 5.898438 16.554688 8.378906 15.328125 10.21875 C 14.101562 12.058594 11.621094 12.554688 9.78125 11.328125 C 7.941406 10.101562 7.445312 7.621094 8.671875 5.78125 C 9.898438 3.941406 12.378906 3.445312 14.21875 4.671875 Z M 14.21875 4.671875 "/>
<path style=" stroke:none;fill-rule:nonzero;fill:rgb(0%,27.843137%,62.745098%);fill-opacity:1;" d="M 8.671875 5.78125 C 8.058594 6.699219 8.308594 7.941406 9.226562 8.554688 C 10.144531 9.167969 11.386719 8.917969 12 8 C 11.695312 6.46875 12.6875 4.976562 14.21875 4.671875 C 15.75 4.367188 17.242188 5.359375 17.546875 6.890625 Z M 8.671875 5.78125 "/>
<path style="fill-rule:nonzero;fill:rgb(0%,0%,0%);fill-opacity:1;stroke-width:2;stroke-linecap:butt;stroke-linejoin:miter;stroke:rgb(0%,0%,0%);stroke-opacity:1;stroke-miterlimit:4;" d="M -5.996642 -24.997254 L 6.003083 -24.997268 M -5.996638 -21.997323 L 6.003087 -21.997337 M -5.996635 -18.997391 L 6.00309 -18.997405 " transform="matrix(-0.1849,-0.27735,0.27735,-0.1849,12,8)"/>
<path style="fill-rule:nonzero;fill:rgb(0%,0%,0%);fill-opacity:1;stroke-width:2;stroke-linecap:butt;stroke-linejoin:miter;stroke:rgb(0%,0%,0%);stroke-opacity:1;stroke-miterlimit:4;" d="M -6.00309 -25.002595 L 5.996635 -25.002609 M -6.003087 -22.002663 L 5.996638 -22.002677 M -6.003083 -19.002732 L 5.996642 -19.002746 " transform="matrix(-0.1849,-0.27735,0.27735,-0.1849,24.203414,-0.135588)"/>
<path style="fill-rule:nonzero;fill:rgb(0%,0%,0%);fill-opacity:1;stroke-width:1;stroke-linecap:butt;stroke-linejoin:miter;stroke:rgb(100%,100%,100%);stroke-opacity:1;stroke-miterlimit:4;" d="M 0.00647269 -23.502171 L 0.00647623 -20.502239 M 0.00327023 17.001778 L -0.00647623 20.502239 M -0.00647269 23.502171 L -0.00646916 26.502102 " transform="matrix(-0.1849,-0.27735,0.27735,-0.1849,12,8)"/>
</g>
</svg>
