<?xml version="1.0" encoding="UTF-8"?>
<svg xmlns="http://www.w3.org/2000/svg" xmlns:xlink="http://www.w3.org/1999/xlink" width="24px" height="16px" viewBox="0 0 32 16" version="1.1">
<g id="surface1">
<rect x="0" y="0" width="32" height="16" style="fill:rgb(0%,68.627451%,79.215686%);fill-opacity:1;stroke:none;"/>
<path style=" stroke:none;fill-rule:nonzero;fill:rgb(99.607843%,77.254902%,4.705882%);fill-opacity:1;" d="M 19.441406 6.71875 C 19.441406 7.910156 18.476562 8.871094 17.289062 8.871094 C 16.097656 8.871094 15.132812 7.910156 15.132812 6.71875 C 15.132812 5.53125 16.097656 4.566406 17.289062 4.566406 C 18.476562 4.566406 19.441406 5.53125 19.441406 6.71875 Z M 19.441406 6.71875 "/>
<path style=" stroke:none;fill-rule:nonzero;fill:rgb(99.607843%,77.254902%,4.705882%);fill-opacity:1;" d="M 17.289062 4.273438 C 17.414062 4.273438 17.464844 4.191406 17.464844 4.097656 C 17.464844 3.96875 17.289062 3.359375 17.289062 3.359375 C 17.289062 3.359375 17.113281 3.96875 17.113281 4.097656 C 17.113281 4.191406 17.160156 4.273438 17.289062 4.273438 Z M 17.289062 4.273438 "/>
<path style=" stroke:none;fill-rule:nonzero;fill:rgb(99.607843%,77.254902%,4.705882%);fill-opacity:1;" d="M 19.734375 6.71875 C 19.734375 6.847656 19.816406 6.894531 19.910156 6.894531 C 20.039062 6.894531 20.648438 6.71875 20.648438 6.71875 C 20.648438 6.71875 20.039062 6.542969 19.910156 6.542969 C 19.816406 6.542969 19.734375 6.59375 19.734375 6.71875 Z M 19.734375 6.71875 "/>
<path style=" stroke:none;fill-rule:nonzero;fill:rgb(99.607843%,77.254902%,4.705882%);fill-opacity:1;" d="M 17.289062 9.167969 C 17.160156 9.167969 17.113281 9.246094 17.113281 9.34375 C 17.113281 9.472656 17.289062 10.082031 17.289062 10.082031 C 17.289062 10.082031 17.464844 9.472656 17.464844 9.34375 C 17.464844 9.246094 17.414062 9.167969 17.289062 9.167969 Z M 17.289062 9.167969 "/>
<path style=" stroke:none;fill-rule:nonzero;fill:rgb(99.607843%,77.254902%,4.705882%);fill-opacity:1;" d="M 14.839844 6.71875 C 14.839844 6.59375 14.757812 6.542969 14.664062 6.542969 C 14.535156 6.542969 13.925781 6.71875 13.925781 6.71875 C 13.925781 6.71875 14.535156 6.894531 14.664062 6.894531 C 14.757812 6.894531 14.839844 6.847656 14.839844 6.71875 Z M 14.839844 6.71875 "/>
<path style=" stroke:none;fill-rule:nonzero;fill:rgb(99.607843%,77.254902%,4.705882%);fill-opacity:1;" d="M 18.222656 4.460938 C 18.34375 4.507812 18.417969 4.453125 18.453125 4.363281 C 18.503906 4.246094 18.574219 3.613281 18.574219 3.613281 C 18.574219 3.613281 18.179688 4.109375 18.128906 4.226562 C 18.09375 4.316406 18.105469 4.410156 18.222656 4.460938 Z M 18.222656 4.460938 "/>
<path style=" stroke:none;fill-rule:nonzero;fill:rgb(99.607843%,77.254902%,4.705882%);fill-opacity:1;" d="M 19.546875 7.65625 C 19.5 7.773438 19.554688 7.851562 19.644531 7.886719 C 19.761719 7.9375 20.394531 8.007812 20.394531 8.007812 C 20.394531 8.007812 19.898438 7.609375 19.777344 7.5625 C 19.691406 7.523438 19.597656 7.539062 19.546875 7.65625 Z M 19.546875 7.65625 "/>
<path style=" stroke:none;fill-rule:nonzero;fill:rgb(99.607843%,77.254902%,4.705882%);fill-opacity:1;" d="M 16.351562 8.980469 C 16.234375 8.933594 16.15625 8.988281 16.121094 9.078125 C 16.070312 9.195312 16 9.824219 16 9.824219 C 16 9.824219 16.398438 9.328125 16.445312 9.210938 C 16.484375 9.121094 16.46875 9.027344 16.351562 8.980469 Z M 16.351562 8.980469 "/>
<path style=" stroke:none;fill-rule:nonzero;fill:rgb(99.607843%,77.254902%,4.705882%);fill-opacity:1;" d="M 15.027344 5.785156 C 15.074219 5.664062 15.019531 5.589844 14.929688 5.554688 C 14.8125 5.503906 14.183594 5.433594 14.183594 5.433594 C 14.183594 5.433594 14.675781 5.828125 14.796875 5.878906 C 14.882812 5.914062 14.976562 5.902344 15.027344 5.785156 Z M 15.027344 5.785156 "/>
<path style=" stroke:none;fill-rule:nonzero;fill:rgb(99.607843%,77.254902%,4.705882%);fill-opacity:1;" d="M 19.015625 4.988281 C 19.109375 5.078125 19.199219 5.058594 19.265625 4.988281 C 19.359375 4.898438 19.664062 4.34375 19.664062 4.34375 C 19.664062 4.34375 19.109375 4.648438 19.019531 4.738281 C 18.949219 4.808594 18.925781 4.898438 19.015625 4.988281 Z M 19.015625 4.988281 "/>
<path style=" stroke:none;fill-rule:nonzero;fill:rgb(99.607843%,77.254902%,4.705882%);fill-opacity:1;" d="M 19.015625 8.449219 C 18.929688 8.542969 18.949219 8.632812 19.019531 8.699219 C 19.109375 8.789062 19.664062 9.097656 19.664062 9.097656 C 19.664062 9.097656 19.359375 8.542969 19.265625 8.449219 C 19.199219 8.382812 19.109375 8.359375 19.015625 8.449219 Z M 19.015625 8.449219 "/>
<path style=" stroke:none;fill-rule:nonzero;fill:rgb(99.607843%,77.254902%,4.705882%);fill-opacity:1;" d="M 15.558594 8.449219 C 15.464844 8.359375 15.375 8.382812 15.308594 8.449219 C 15.21875 8.542969 14.910156 9.097656 14.910156 9.097656 C 14.910156 9.097656 15.464844 8.789062 15.554688 8.699219 C 15.625 8.632812 15.648438 8.539062 15.558594 8.449219 Z M 15.558594 8.449219 "/>
<path style=" stroke:none;fill-rule:nonzero;fill:rgb(99.607843%,77.254902%,4.705882%);fill-opacity:1;" d="M 15.558594 4.988281 C 15.648438 4.898438 15.625 4.808594 15.554688 4.738281 C 15.464844 4.648438 14.910156 4.34375 14.910156 4.34375 C 14.910156 4.34375 15.21875 4.898438 15.308594 4.988281 C 15.375 5.058594 15.46875 5.082031 15.558594 4.988281 Z M 15.558594 4.988281 "/>
<path style=" stroke:none;fill-rule:nonzero;fill:rgb(99.607843%,77.254902%,4.705882%);fill-opacity:1;" d="M 19.546875 5.785156 C 19.597656 5.902344 19.691406 5.914062 19.777344 5.878906 C 19.898438 5.828125 20.394531 5.433594 20.394531 5.433594 C 20.394531 5.433594 19.761719 5.503906 19.644531 5.554688 C 19.554688 5.589844 19.5 5.664062 19.546875 5.785156 Z M 19.546875 5.785156 "/>
<path style=" stroke:none;fill-rule:nonzero;fill:rgb(99.607843%,77.254902%,4.705882%);fill-opacity:1;" d="M 18.222656 8.980469 C 18.105469 9.03125 18.09375 9.121094 18.128906 9.210938 C 18.179688 9.328125 18.574219 9.824219 18.574219 9.824219 C 18.574219 9.824219 18.503906 9.195312 18.453125 9.078125 C 18.417969 8.988281 18.34375 8.929688 18.222656 8.980469 Z M 18.222656 8.980469 "/>
<path style=" stroke:none;fill-rule:nonzero;fill:rgb(99.607843%,77.254902%,4.705882%);fill-opacity:1;" d="M 15.027344 7.65625 C 14.976562 7.539062 14.882812 7.523438 14.796875 7.5625 C 14.675781 7.609375 14.183594 8.007812 14.183594 8.007812 C 14.183594 8.007812 14.8125 7.9375 14.929688 7.886719 C 15.019531 7.851562 15.078125 7.773438 15.027344 7.65625 Z M 15.027344 7.65625 "/>
<path style=" stroke:none;fill-rule:nonzero;fill:rgb(99.607843%,77.254902%,4.705882%);fill-opacity:1;" d="M 16.351562 4.460938 C 16.46875 4.410156 16.484375 4.316406 16.445312 4.226562 C 16.398438 4.109375 16 3.613281 16 3.613281 C 16 3.613281 16.070312 4.246094 16.121094 4.363281 C 16.15625 4.453125 16.234375 4.507812 16.351562 4.460938 Z M 16.351562 4.460938 "/>
<path style=" stroke:none;fill-rule:nonzero;fill:rgb(99.607843%,77.254902%,4.705882%);fill-opacity:1;" d="M 17.765625 4.320312 C 17.890625 4.34375 17.953125 4.273438 17.972656 4.179688 C 17.996094 4.054688 17.945312 3.421875 17.945312 3.421875 C 17.945312 3.421875 17.652344 3.988281 17.625 4.113281 C 17.609375 4.207031 17.640625 4.296875 17.765625 4.320312 Z M 17.765625 4.320312 "/>
<path style=" stroke:none;fill-rule:nonzero;fill:rgb(99.607843%,77.254902%,4.705882%);fill-opacity:1;" d="M 19.6875 7.199219 C 19.664062 7.324219 19.734375 7.386719 19.828125 7.40625 C 19.953125 7.429688 20.585938 7.375 20.585938 7.375 C 20.585938 7.375 20.019531 7.085938 19.894531 7.058594 C 19.800781 7.039062 19.710938 7.070312 19.6875 7.199219 Z M 19.6875 7.199219 "/>
<path style=" stroke:none;fill-rule:nonzero;fill:rgb(99.607843%,77.254902%,4.705882%);fill-opacity:1;" d="M 16.808594 9.121094 C 16.683594 9.097656 16.621094 9.164062 16.601562 9.257812 C 16.578125 9.386719 16.632812 10.015625 16.632812 10.015625 C 16.632812 10.015625 16.921875 9.453125 16.949219 9.328125 C 16.96875 9.234375 16.9375 9.144531 16.808594 9.121094 Z M 16.808594 9.121094 "/>
<path style=" stroke:none;fill-rule:nonzero;fill:rgb(99.607843%,77.254902%,4.705882%);fill-opacity:1;" d="M 14.886719 6.242188 C 14.910156 6.117188 14.84375 6.054688 14.75 6.035156 C 14.621094 6.011719 13.992188 6.0625 13.992188 6.0625 C 13.992188 6.0625 14.554688 6.355469 14.679688 6.378906 C 14.773438 6.398438 14.863281 6.367188 14.886719 6.242188 Z M 14.886719 6.242188 "/>
<path style=" stroke:none;fill-rule:nonzero;fill:rgb(99.607843%,77.254902%,4.705882%);fill-opacity:1;" d="M 18.648438 4.6875 C 18.753906 4.753906 18.839844 4.714844 18.890625 4.636719 C 18.960938 4.53125 19.15625 3.925781 19.15625 3.925781 C 19.15625 3.925781 18.671875 4.335938 18.597656 4.441406 C 18.546875 4.519531 18.539062 4.613281 18.648438 4.6875 Z M 18.648438 4.6875 "/>
<path style=" stroke:none;fill-rule:nonzero;fill:rgb(99.607843%,77.254902%,4.705882%);fill-opacity:1;" d="M 19.320312 8.078125 C 19.25 8.1875 19.292969 8.269531 19.371094 8.324219 C 19.476562 8.394531 20.082031 8.585938 20.082031 8.585938 C 20.082031 8.585938 19.671875 8.101562 19.566406 8.03125 C 19.488281 7.976562 19.394531 7.972656 19.320312 8.078125 Z M 19.320312 8.078125 "/>
<path style=" stroke:none;fill-rule:nonzero;fill:rgb(99.607843%,77.254902%,4.705882%);fill-opacity:1;" d="M 15.929688 8.753906 C 15.820312 8.683594 15.738281 8.722656 15.683594 8.804688 C 15.613281 8.910156 15.421875 9.515625 15.421875 9.515625 C 15.421875 9.515625 15.90625 9.105469 15.976562 9 C 16.03125 8.917969 16.035156 8.824219 15.929688 8.753906 Z M 15.929688 8.753906 "/>
<path style=" stroke:none;fill-rule:nonzero;fill:rgb(99.607843%,77.254902%,4.705882%);fill-opacity:1;" d="M 15.253906 5.359375 C 15.324219 5.253906 15.285156 5.167969 15.203125 5.117188 C 15.097656 5.042969 14.492188 4.851562 14.492188 4.851562 C 14.492188 4.851562 14.902344 5.335938 15.007812 5.410156 C 15.085938 5.460938 15.183594 5.46875 15.253906 5.359375 Z M 15.253906 5.359375 "/>
<path style=" stroke:none;fill-rule:nonzero;fill:rgb(99.607843%,77.254902%,4.705882%);fill-opacity:1;" d="M 19.320312 5.359375 C 19.394531 5.464844 19.488281 5.460938 19.566406 5.410156 C 19.671875 5.335938 20.082031 4.851562 20.082031 4.851562 C 20.082031 4.851562 19.476562 5.042969 19.371094 5.117188 C 19.292969 5.167969 19.25 5.253906 19.320312 5.359375 Z M 19.320312 5.359375 "/>
<path style=" stroke:none;fill-rule:nonzero;fill:rgb(99.607843%,77.254902%,4.705882%);fill-opacity:1;" d="M 18.648438 8.753906 C 18.542969 8.828125 18.546875 8.917969 18.597656 9 C 18.671875 9.105469 19.15625 9.515625 19.15625 9.515625 C 19.15625 9.515625 18.960938 8.910156 18.890625 8.804688 C 18.839844 8.722656 18.753906 8.683594 18.648438 8.753906 Z M 18.648438 8.753906 "/>
<path style=" stroke:none;fill-rule:nonzero;fill:rgb(99.607843%,77.254902%,4.705882%);fill-opacity:1;" d="M 15.253906 8.078125 C 15.179688 7.972656 15.085938 7.976562 15.007812 8.03125 C 14.902344 8.101562 14.492188 8.585938 14.492188 8.585938 C 14.492188 8.585938 15.097656 8.394531 15.203125 8.324219 C 15.285156 8.269531 15.324219 8.1875 15.253906 8.078125 Z M 15.253906 8.078125 "/>
<path style=" stroke:none;fill-rule:nonzero;fill:rgb(99.607843%,77.254902%,4.705882%);fill-opacity:1;" d="M 15.929688 4.6875 C 16.035156 4.613281 16.03125 4.519531 15.976562 4.441406 C 15.90625 4.335938 15.421875 3.925781 15.421875 3.925781 C 15.421875 3.925781 15.613281 4.53125 15.683594 4.636719 C 15.738281 4.714844 15.820312 4.757812 15.929688 4.6875 Z M 15.929688 4.6875 "/>
<path style=" stroke:none;fill-rule:nonzero;fill:rgb(99.607843%,77.254902%,4.705882%);fill-opacity:1;" d="M 19.6875 6.242188 C 19.714844 6.367188 19.800781 6.398438 19.894531 6.378906 C 20.019531 6.355469 20.585938 6.0625 20.585938 6.0625 C 20.585938 6.0625 19.953125 6.011719 19.828125 6.035156 C 19.734375 6.054688 19.660156 6.117188 19.6875 6.242188 Z M 19.6875 6.242188 "/>
<path style=" stroke:none;fill-rule:nonzero;fill:rgb(99.607843%,77.254902%,4.705882%);fill-opacity:1;" d="M 17.765625 9.121094 C 17.640625 9.144531 17.609375 9.234375 17.625 9.328125 C 17.652344 9.453125 17.945312 10.015625 17.945312 10.015625 C 17.945312 10.015625 17.996094 9.386719 17.972656 9.257812 C 17.953125 9.164062 17.890625 9.09375 17.765625 9.121094 Z M 17.765625 9.121094 "/>
<path style=" stroke:none;fill-rule:nonzero;fill:rgb(99.607843%,77.254902%,4.705882%);fill-opacity:1;" d="M 14.886719 7.199219 C 14.863281 7.070312 14.773438 7.039062 14.679688 7.058594 C 14.554688 7.085938 13.992188 7.375 13.992188 7.375 C 13.992188 7.375 14.621094 7.429688 14.75 7.40625 C 14.84375 7.386719 14.914062 7.324219 14.886719 7.199219 Z M 14.886719 7.199219 "/>
<path style=" stroke:none;fill-rule:nonzero;fill:rgb(99.607843%,77.254902%,4.705882%);fill-opacity:1;" d="M 16.808594 4.320312 C 16.933594 4.292969 16.96875 4.207031 16.949219 4.113281 C 16.921875 3.988281 16.632812 3.421875 16.632812 3.421875 C 16.632812 3.421875 16.578125 4.054688 16.601562 4.179688 C 16.621094 4.273438 16.683594 4.34375 16.808594 4.320312 Z M 16.808594 4.320312 "/>
<path style=" stroke:none;fill-rule:nonzero;fill:rgb(99.607843%,77.254902%,4.705882%);fill-opacity:1;" d="M 16.902344 11.382812 C 16.847656 11.386719 16.789062 11.394531 16.734375 11.410156 C 16.660156 11.421875 16.585938 11.449219 16.511719 11.460938 L 16.484375 11.464844 L 16.433594 11.46875 C 16.4375 11.484375 16.4375 11.496094 16.4375 11.511719 C 16.4375 11.527344 16.4375 11.539062 16.433594 11.550781 C 16.429688 11.5625 16.417969 11.578125 16.410156 11.585938 C 16.402344 11.597656 16.390625 11.605469 16.375 11.613281 C 16.363281 11.621094 16.347656 11.621094 16.335938 11.625 C 16.320312 11.625 16.304688 11.625 16.292969 11.617188 C 16.277344 11.613281 16.265625 11.605469 16.25 11.59375 C 16.238281 11.597656 16.222656 11.601562 16.207031 11.601562 C 16.191406 11.601562 16.179688 11.601562 16.164062 11.601562 C 16.148438 11.597656 16.132812 11.59375 16.121094 11.585938 C 16.105469 11.582031 16.089844 11.574219 16.078125 11.566406 C 16.023438 11.597656 15.964844 11.628906 15.929688 11.683594 C 15.910156 11.707031 15.90625 11.738281 15.902344 11.769531 C 15.902344 11.804688 15.910156 11.84375 15.925781 11.878906 C 15.933594 11.890625 15.9375 11.84375 15.957031 11.835938 C 15.984375 11.8125 16.023438 11.792969 16.0625 11.785156 C 16.09375 11.765625 16.089844 11.785156 16.078125 11.808594 C 16.074219 11.824219 16.054688 11.875 16.078125 11.847656 C 16.1875 11.800781 16.308594 11.789062 16.425781 11.78125 C 16.59375 11.765625 16.765625 11.761719 16.933594 11.757812 C 17.09375 11.761719 17.253906 11.761719 17.414062 11.769531 C 17.492188 11.769531 17.566406 11.789062 17.644531 11.773438 C 17.660156 11.769531 17.691406 11.769531 17.699219 11.757812 C 17.667969 11.738281 17.625 11.738281 17.589844 11.734375 L 17.28125 11.734375 C 17.199219 11.726562 17.109375 11.722656 17.03125 11.691406 C 17.007812 11.683594 16.988281 11.664062 16.96875 11.683594 C 16.9375 11.695312 16.90625 11.703125 16.875 11.703125 C 16.816406 11.710938 16.761719 11.699219 16.710938 11.675781 C 16.746094 11.625 16.792969 11.578125 16.832031 11.53125 C 16.800781 11.527344 16.769531 11.519531 16.734375 11.511719 C 16.792969 11.472656 16.847656 11.425781 16.902344 11.382812 Z M 16.902344 11.382812 "/>
<path style=" stroke:none;fill-rule:nonzero;fill:rgb(99.607843%,77.254902%,4.705882%);fill-opacity:1;" d="M 19.394531 11.9375 C 19.277344 12.003906 19.191406 11.882812 19.09375 11.84375 C 19.023438 11.882812 19.019531 12.007812 18.953125 12.066406 C 18.875 12.15625 18.78125 12.042969 18.789062 11.957031 C 18.695312 12.035156 18.648438 12.210938 18.5 12.1875 C 18.429688 12.128906 18.375 12.007812 18.320312 12.148438 C 18.277344 12.214844 18.160156 12.3125 18.097656 12.207031 C 18.082031 12.117188 18.035156 12.011719 17.984375 12.15625 C 17.953125 12.257812 17.84375 12.332031 17.738281 12.285156 C 17.683594 12.242188 17.785156 12.066406 17.714844 12.078125 C 17.605469 12.152344 17.542969 12.332031 17.390625 12.316406 C 17.332031 12.25 17.425781 12.136719 17.359375 12.0625 C 17.285156 12.160156 17.199219 12.304688 17.066406 12.316406 C 17.003906 12.265625 17.070312 12.117188 17.027344 12.09375 C 16.894531 12.175781 16.75 12.320312 16.582031 12.273438 C 16.648438 12.019531 16.925781 11.929688 17.15625 11.910156 C 17.558594 11.863281 17.980469 11.953125 18.367188 11.808594 C 18.429688 11.769531 18.582031 11.714844 18.527344 11.628906 C 18.480469 11.558594 18.652344 11.585938 18.667969 11.503906 C 18.65625 11.402344 18.746094 11.417969 18.832031 11.40625 C 19.222656 11.390625 19.609375 11.472656 19.996094 11.484375 C 20.027344 11.675781 19.816406 11.808594 19.648438 11.75 C 19.566406 11.761719 19.445312 11.566406 19.46875 11.710938 C 19.453125 11.785156 19.464844 11.886719 19.394531 11.9375 M 16.078125 11.546875 C 16.167969 11.632812 16.230469 11.53125 16.316406 11.496094 C 16.597656 11.398438 16.84375 11.230469 17.089844 11.058594 C 17.234375 10.9375 17.363281 10.777344 17.5625 10.738281 C 17.949219 10.621094 18.359375 10.636719 18.746094 10.527344 C 19.042969 10.125 19.542969 9.980469 19.964844 9.746094 C 20.058594 9.71875 20.09375 9.640625 20.125 9.554688 C 20.285156 9.300781 20.503906 9.078125 20.761719 8.921875 C 20.886719 8.855469 21.03125 8.820312 21.167969 8.847656 C 21.160156 9.015625 21.066406 9.160156 20.949219 9.273438 C 21.042969 9.273438 21.125 9.214844 21.21875 9.214844 C 21.25 9.386719 21.070312 9.472656 20.972656 9.578125 C 21.027344 9.59375 21.234375 9.609375 21.121094 9.660156 C 20.976562 9.761719 20.8125 9.832031 20.679688 9.945312 C 20.800781 9.96875 20.816406 9.996094 20.691406 10.039062 C 20.625 10.085938 20.492188 10.101562 20.480469 10.191406 C 20.574219 10.246094 20.4375 10.304688 20.386719 10.324219 C 20.285156 10.34375 20.179688 10.390625 20.3125 10.464844 C 20.261719 10.539062 20.15625 10.558594 20.066406 10.550781 C 20.09375 10.636719 20.132812 10.730469 20.023438 10.769531 C 19.773438 10.957031 19.476562 11.097656 19.164062 11.128906 C 19.554688 11.15625 19.960938 11.085938 20.296875 10.871094 C 20.339844 10.820312 20.574219 10.761719 20.441406 10.71875 C 20.382812 10.691406 20.25 10.664062 20.242188 10.617188 C 20.421875 10.507812 20.652344 10.546875 20.847656 10.480469 C 20.851562 10.414062 20.699219 10.433594 20.640625 10.417969 C 20.503906 10.40625 20.511719 10.375 20.644531 10.359375 C 20.8125 10.316406 21 10.308594 21.140625 10.199219 C 21.027344 10.144531 20.882812 10.191406 20.761719 10.148438 C 20.96875 10.058594 21.210938 10.050781 21.398438 9.914062 C 21.480469 9.820312 21.289062 9.847656 21.234375 9.851562 C 21.117188 9.871094 21.066406 9.816406 21.195312 9.769531 C 21.417969 9.605469 21.699219 9.5 21.855469 9.261719 C 21.890625 9.207031 21.941406 9.050781 21.824219 9.105469 C 21.667969 9.15625 21.53125 9.332031 21.355469 9.277344 C 21.703125 9.007812 22.035156 8.703125 22.273438 8.328125 C 22.285156 8.222656 22.117188 8.210938 22.070312 8.292969 C 21.847656 8.507812 21.644531 8.761719 21.359375 8.898438 C 21.632812 8.632812 21.859375 8.320312 22.058594 7.996094 C 22.101562 7.898438 22.214844 7.785156 22.152344 7.675781 C 22.050781 7.59375 21.929688 7.667969 21.875 7.769531 C 21.703125 7.996094 21.570312 8.261719 21.347656 8.445312 C 21.542969 8.070312 21.746094 7.675781 21.75 7.242188 C 21.75 7.15625 21.730469 7.023438 21.613281 7.042969 C 21.515625 7.058594 21.539062 7.199219 21.5 7.273438 C 21.414062 7.566406 21.371094 7.886719 21.195312 8.144531 C 21.234375 7.902344 21.304688 7.65625 21.25 7.414062 C 21.226562 7.304688 21.050781 7.351562 21.074219 7.460938 C 20.867188 8.511719 20.160156 9.433594 19.234375 9.96875 C 18.8125 10.207031 18.335938 10.363281 17.855469 10.433594 C 17.726562 10.460938 17.585938 10.441406 17.464844 10.488281 C 17.164062 10.71875 16.980469 11.101562 16.601562 11.222656 C 16.433594 11.308594 16.210938 11.324219 16.089844 11.480469 C 16.078125 11.503906 16.078125 11.527344 16.078125 11.546875 "/>
<path style=" stroke:none;fill-rule:nonzero;fill:rgb(99.607843%,77.254902%,4.705882%);fill-opacity:1;" d="M 17.210938 10.480469 C 17.15625 10.582031 17.125 10.699219 17.050781 10.789062 C 16.835938 10.589844 16.519531 10.597656 16.246094 10.585938 C 16.019531 10.574219 15.773438 10.550781 15.597656 10.390625 C 15.414062 10.238281 15.261719 10.042969 15.054688 9.917969 C 14.867188 9.867188 14.675781 9.804688 14.527344 9.675781 C 14.203125 9.410156 14.015625 9.019531 13.703125 8.75 C 13.640625 8.6875 13.570312 8.644531 13.503906 8.59375 C 13.4375 8.609375 13.46875 8.746094 13.390625 8.675781 C 13.347656 8.644531 13.238281 8.644531 13.230469 8.6875 C 13.324219 8.8125 13.421875 8.957031 13.4375 9.121094 C 13.371094 9.128906 13.253906 9.105469 13.21875 9.132812 C 13.308594 9.261719 13.421875 9.378906 13.546875 9.472656 C 13.488281 9.480469 13.367188 9.476562 13.34375 9.5 C 13.46875 9.605469 13.605469 9.710938 13.769531 9.734375 C 13.804688 9.78125 13.722656 9.867188 13.792969 9.90625 C 13.832031 9.921875 13.964844 9.949219 13.875 9.996094 C 13.808594 10.039062 13.832031 10.140625 13.914062 10.136719 C 13.964844 10.164062 14.082031 10.167969 14.089844 10.214844 C 14.046875 10.261719 13.902344 10.316406 14.023438 10.359375 C 14.136719 10.421875 14.265625 10.460938 14.394531 10.46875 C 14.328125 10.519531 14.25 10.550781 14.183594 10.601562 C 14.480469 10.777344 14.808594 10.890625 15.132812 11 C 15.265625 11.046875 15.394531 11.085938 15.527344 11.109375 C 15.140625 11.089844 14.761719 10.972656 14.40625 10.816406 C 14.222656 10.734375 14.039062 10.65625 13.847656 10.585938 C 13.933594 10.542969 14.027344 10.53125 14.113281 10.496094 C 13.933594 10.460938 13.742188 10.449219 13.585938 10.351562 C 13.609375 10.308594 13.699219 10.304688 13.75 10.285156 C 13.84375 10.261719 13.902344 10.234375 13.769531 10.226562 C 13.632812 10.1875 13.480469 10.207031 13.363281 10.125 C 13.371094 10.074219 13.492188 10.09375 13.542969 10.070312 C 13.609375 10.0625 13.679688 10.050781 13.730469 10.007812 C 13.519531 9.921875 13.25 9.984375 13.085938 9.800781 C 13.050781 9.730469 13.203125 9.785156 13.246094 9.773438 C 13.359375 9.773438 13.480469 9.808594 13.585938 9.765625 C 13.28125 9.632812 12.957031 9.507812 12.726562 9.261719 C 12.699219 9.222656 12.625 9.113281 12.6875 9.101562 C 12.867188 9.125 12.996094 9.320312 13.1875 9.289062 C 13.214844 9.253906 13.078125 9.199219 13.042969 9.148438 C 12.761719 8.910156 12.488281 8.648438 12.292969 8.332031 C 12.28125 8.226562 12.445312 8.210938 12.488281 8.292969 C 12.703125 8.5 12.898438 8.742188 13.164062 8.882812 C 13.257812 8.929688 13.109375 8.828125 13.089844 8.792969 C 12.84375 8.503906 12.609375 8.203125 12.433594 7.863281 C 12.40625 7.804688 12.351562 7.691406 12.445312 7.660156 C 12.539062 7.613281 12.628906 7.675781 12.675781 7.757812 C 12.859375 7.984375 12.992188 8.257812 13.21875 8.449219 C 13.023438 8.074219 12.820312 7.679688 12.8125 7.25 C 12.820312 7.167969 12.824219 7.042969 12.9375 7.046875 C 13.03125 7.03125 13.015625 7.152344 13.046875 7.210938 C 13.140625 7.527344 13.183594 7.867188 13.371094 8.148438 C 13.328125 7.914062 13.269531 7.671875 13.308594 7.433594 C 13.316406 7.355469 13.40625 7.332031 13.464844 7.378906 C 13.507812 7.492188 13.519531 7.632812 13.5625 7.753906 C 13.800781 8.578125 14.34375 9.304688 15.046875 9.789062 C 15.628906 10.1875 16.320312 10.425781 17.023438 10.46875 C 17.085938 10.472656 17.148438 10.476562 17.210938 10.480469 "/>
<path style=" stroke:none;fill-rule:nonzero;fill:rgb(99.607843%,77.254902%,4.705882%);fill-opacity:1;" d="M 16.359375 11.535156 C 16.359375 11.554688 16.339844 11.570312 16.320312 11.570312 C 16.300781 11.570312 16.28125 11.554688 16.28125 11.535156 C 16.28125 11.511719 16.300781 11.496094 16.320312 11.496094 C 16.339844 11.496094 16.359375 11.511719 16.359375 11.535156 Z M 16.359375 11.535156 "/>
<path style="fill-rule:nonzero;fill:rgb(99.607843%,77.254902%,4.705882%);fill-opacity:1;stroke-width:0.381274;stroke-linecap:butt;stroke-linejoin:miter;stroke:rgb(0%,68.627451%,79.215686%);stroke-opacity:1;stroke-miterlimit:4;" d="M 1020.751953 720.458984 C 1020.751953 720.947266 1020.263672 721.435547 1019.775391 721.435547 C 1019.287109 721.435547 1018.798828 720.947266 1018.798828 720.458984 C 1018.798828 719.970703 1019.287109 719.482422 1019.775391 719.482422 C 1020.263672 719.482422 1020.751953 719.970703 1020.751953 720.458984 Z M 1020.751953 720.458984 " transform="matrix(0.016,0,0,0.016,0,0)"/>
<path style=" stroke:none;fill-rule:nonzero;fill:rgb(99.607843%,77.254902%,4.705882%);fill-opacity:1;" d="M 1.921875 1.167969 C 1.921875 1.167969 1.765625 1.039062 1.714844 1.101562 C 1.628906 1.207031 1.972656 1.726562 1.972656 1.910156 C 1.972656 2.207031 1.773438 2.289062 1.523438 2.332031 C 1.359375 2.363281 1.089844 2.320312 1.089844 2.320312 C 1.140625 2.253906 1.171875 2.234375 1.257812 2.226562 C 1.164062 2.179688 1.066406 2.070312 1.066406 1.902344 C 1.066406 1.644531 1.171875 1.539062 1.171875 1.246094 C 1.171875 1.085938 1.039062 0.878906 1.039062 0.878906 C 1.273438 0.902344 1.390625 1.121094 1.324219 1.292969 C 1.359375 1.296875 1.394531 1.289062 1.421875 1.261719 C 1.441406 1.3125 1.414062 1.367188 1.378906 1.414062 C 1.40625 1.429688 1.429688 1.421875 1.472656 1.410156 C 1.46875 1.460938 1.441406 1.511719 1.367188 1.5625 C 1.578125 1.507812 1.707031 1.65625 1.707031 1.808594 C 1.707031 1.925781 1.625 2.007812 1.546875 2.007812 C 1.523438 2.007812 1.484375 1.996094 1.460938 1.980469 C 1.449219 2.011719 1.457031 2.054688 1.472656 2.085938 C 1.414062 2.070312 1.375 2.039062 1.402344 1.964844 C 1.355469 1.960938 1.320312 1.945312 1.296875 1.917969 C 1.320312 1.886719 1.359375 1.867188 1.402344 1.871094 C 1.371094 1.800781 1.40625 1.765625 1.457031 1.734375 C 1.457031 1.734375 1.425781 1.871094 1.511719 1.871094 C 1.550781 1.871094 1.585938 1.855469 1.585938 1.800781 C 1.585938 1.75 1.542969 1.683594 1.441406 1.6875 C 1.339844 1.691406 1.257812 1.753906 1.257812 1.914062 C 1.257812 2.0625 1.378906 2.136719 1.535156 2.140625 C 1.675781 2.144531 1.785156 2.066406 1.785156 1.921875 C 1.785156 1.726562 1.503906 1.285156 1.503906 1.113281 C 1.503906 0.984375 1.621094 0.910156 1.734375 0.910156 C 1.882812 0.910156 2.007812 1.058594 2.007812 1.058594 Z M 1.921875 1.167969 "/>
<path style=" stroke:none;fill-rule:nonzero;fill:rgb(99.607843%,77.254902%,4.705882%);fill-opacity:1;" d="M 1.953125 4.675781 C 1.953125 5 1.660156 5.164062 1.433594 5.164062 C 1.125 5.164062 0.960938 4.980469 0.960938 4.738281 C 0.960938 4.601562 0.984375 4.515625 1.046875 4.386719 C 1.046875 4.386719 1.554688 3.328125 1.753906 2.917969 C 1.777344 2.867188 1.789062 2.8125 1.789062 2.726562 C 1.789062 2.59375 1.660156 2.488281 1.527344 2.484375 C 1.402344 2.480469 1.269531 2.597656 1.269531 2.730469 C 1.269531 2.890625 1.355469 2.964844 1.441406 2.964844 C 1.546875 2.964844 1.589844 2.917969 1.589844 2.84375 C 1.589844 2.792969 1.5625 2.769531 1.527344 2.769531 C 1.4375 2.769531 1.460938 2.894531 1.460938 2.894531 C 1.417969 2.882812 1.378906 2.835938 1.402344 2.78125 C 1.367188 2.773438 1.339844 2.753906 1.3125 2.726562 C 1.339844 2.703125 1.367188 2.6875 1.402344 2.679688 C 1.378906 2.609375 1.410156 2.574219 1.46875 2.5625 C 1.457031 2.585938 1.457031 2.613281 1.460938 2.636719 C 1.558594 2.609375 1.707031 2.652344 1.707031 2.820312 C 1.707031 2.984375 1.589844 3.125 1.375 3.089844 C 1.425781 3.113281 1.453125 3.164062 1.457031 3.222656 C 1.417969 3.207031 1.375 3.203125 1.375 3.203125 C 1.402344 3.246094 1.4375 3.285156 1.433594 3.375 C 1.394531 3.355469 1.355469 3.320312 1.304688 3.34375 C 1.386719 3.5 1.289062 3.71875 1.035156 3.769531 C 1.128906 3.664062 1.171875 3.546875 1.171875 3.429688 C 1.171875 3.054688 1.070312 2.992188 1.070312 2.730469 C 1.070312 2.621094 1.125 2.503906 1.238281 2.421875 L 1.238281 2.425781 C 1.164062 2.40625 1.117188 2.371094 1.089844 2.320312 C 1.257812 2.273438 1.5 2.273438 1.632812 2.324219 C 1.785156 2.34375 1.890625 2.460938 1.921875 2.519531 C 1.949219 2.578125 2.011719 2.789062 1.921875 2.980469 C 1.820312 3.191406 1.347656 4.191406 1.203125 4.503906 C 1.171875 4.570312 1.152344 4.640625 1.152344 4.71875 C 1.152344 4.910156 1.328125 4.976562 1.429688 4.976562 C 1.546875 4.976562 1.667969 4.886719 1.667969 4.773438 C 1.667969 4.699219 1.628906 4.65625 1.574219 4.65625 C 1.4375 4.65625 1.445312 4.773438 1.472656 4.84375 C 1.390625 4.804688 1.339844 4.738281 1.355469 4.667969 C 1.304688 4.660156 1.261719 4.636719 1.21875 4.589844 C 1.253906 4.550781 1.292969 4.519531 1.355469 4.515625 C 1.328125 4.40625 1.402344 4.359375 1.472656 4.332031 C 1.449219 4.414062 1.4375 4.507812 1.574219 4.507812 C 1.675781 4.507812 1.753906 4.527344 1.800781 4.589844 C 1.804688 4.503906 1.8125 4.160156 1.8125 4.160156 C 1.816406 4.03125 1.636719 4.035156 1.523438 4.070312 C 1.566406 3.921875 1.65625 3.84375 1.859375 3.863281 C 1.808594 3.839844 1.757812 3.796875 1.757812 3.707031 C 1.757812 3.582031 1.855469 3.449219 1.921875 3.410156 Z M 1.953125 4.675781 "/>
<path style=" stroke:none;fill-rule:nonzero;fill:rgb(99.607843%,77.254902%,4.705882%);fill-opacity:1;" d="M 1.953125 5.648438 C 1.953125 5.324219 1.660156 5.15625 1.433594 5.15625 C 1.125 5.15625 0.960938 5.339844 0.960938 5.582031 C 0.960938 5.71875 0.984375 5.804688 1.046875 5.933594 C 1.046875 5.933594 1.554688 6.992188 1.753906 7.402344 C 1.777344 7.453125 1.789062 7.511719 1.789062 7.597656 C 1.789062 7.726562 1.660156 7.835938 1.527344 7.839844 C 1.402344 7.839844 1.269531 7.722656 1.269531 7.589844 C 1.269531 7.429688 1.355469 7.359375 1.441406 7.359375 C 1.546875 7.359375 1.589844 7.402344 1.589844 7.476562 C 1.589844 7.527344 1.5625 7.550781 1.527344 7.550781 C 1.4375 7.550781 1.460938 7.425781 1.460938 7.425781 C 1.417969 7.4375 1.378906 7.484375 1.402344 7.542969 C 1.367188 7.546875 1.339844 7.566406 1.3125 7.59375 C 1.339844 7.617188 1.367188 7.636719 1.402344 7.640625 C 1.378906 7.710938 1.410156 7.746094 1.46875 7.761719 C 1.457031 7.734375 1.457031 7.707031 1.460938 7.683594 C 1.558594 7.710938 1.707031 7.667969 1.707031 7.5 C 1.707031 7.335938 1.589844 7.195312 1.375 7.230469 C 1.425781 7.207031 1.453125 7.15625 1.457031 7.101562 C 1.417969 7.117188 1.375 7.117188 1.375 7.117188 C 1.402344 7.074219 1.4375 7.035156 1.433594 6.949219 C 1.394531 6.964844 1.355469 7 1.304688 6.976562 C 1.386719 6.820312 1.289062 6.601562 1.035156 6.550781 C 1.128906 6.660156 1.171875 6.773438 1.171875 6.890625 C 1.171875 7.265625 1.070312 7.328125 1.070312 7.589844 C 1.070312 7.699219 1.125 7.820312 1.238281 7.898438 L 1.238281 7.894531 C 1.164062 7.914062 1.117188 7.949219 1.089844 8 C 1.257812 8.046875 1.5 8.046875 1.632812 7.996094 C 1.785156 7.976562 1.890625 7.863281 1.921875 7.804688 C 1.949219 7.746094 2.011719 7.53125 1.921875 7.339844 C 1.820312 7.132812 1.347656 6.132812 1.203125 5.816406 C 1.171875 5.75 1.152344 5.679688 1.152344 5.601562 C 1.152344 5.410156 1.328125 5.34375 1.429688 5.34375 C 1.546875 5.34375 1.667969 5.433594 1.667969 5.550781 C 1.667969 5.621094 1.628906 5.664062 1.574219 5.664062 C 1.4375 5.664062 1.445312 5.550781 1.472656 5.476562 C 1.390625 5.515625 1.339844 5.582031 1.355469 5.652344 C 1.304688 5.660156 1.261719 5.683594 1.21875 5.730469 C 1.253906 5.773438 1.292969 5.804688 1.355469 5.804688 C 1.328125 5.914062 1.402344 5.960938 1.472656 5.988281 C 1.449219 5.90625 1.4375 5.8125 1.574219 5.8125 C 1.675781 5.8125 1.753906 5.796875 1.800781 5.730469 C 1.804688 5.816406 1.8125 6.160156 1.8125 6.160156 C 1.816406 6.292969 1.636719 6.289062 1.523438 6.25 C 1.566406 6.398438 1.65625 6.480469 1.859375 6.457031 C 1.808594 6.480469 1.757812 6.527344 1.757812 6.617188 C 1.757812 6.738281 1.855469 6.871094 1.921875 6.910156 Z M 1.953125 5.648438 "/>
<path style=" stroke:none;fill-rule:nonzero;fill:rgb(99.607843%,77.254902%,4.705882%);fill-opacity:1;" d="M 1.921875 1.167969 C 1.921875 1.167969 2.074219 1.039062 2.125 1.101562 C 2.210938 1.207031 1.867188 1.726562 1.867188 1.910156 C 1.867188 2.207031 2.066406 2.289062 2.316406 2.332031 C 2.480469 2.363281 2.75 2.320312 2.75 2.320312 C 2.699219 2.253906 2.667969 2.234375 2.582031 2.226562 C 2.675781 2.179688 2.773438 2.070312 2.773438 1.902344 C 2.773438 1.644531 2.667969 1.539062 2.667969 1.246094 C 2.667969 1.085938 2.800781 0.878906 2.800781 0.878906 C 2.566406 0.902344 2.449219 1.121094 2.515625 1.292969 C 2.480469 1.296875 2.445312 1.289062 2.417969 1.261719 C 2.398438 1.3125 2.425781 1.367188 2.460938 1.414062 C 2.433594 1.429688 2.410156 1.421875 2.367188 1.410156 C 2.371094 1.460938 2.398438 1.511719 2.472656 1.5625 C 2.261719 1.507812 2.132812 1.65625 2.132812 1.808594 C 2.132812 1.925781 2.214844 2.007812 2.292969 2.007812 C 2.320312 2.007812 2.355469 1.996094 2.378906 1.980469 C 2.390625 2.011719 2.382812 2.054688 2.371094 2.085938 C 2.425781 2.070312 2.464844 2.039062 2.4375 1.964844 C 2.484375 1.960938 2.519531 1.945312 2.542969 1.917969 C 2.519531 1.886719 2.480469 1.867188 2.4375 1.871094 C 2.46875 1.800781 2.433594 1.765625 2.382812 1.734375 C 2.382812 1.734375 2.414062 1.871094 2.328125 1.871094 C 2.289062 1.871094 2.253906 1.855469 2.253906 1.800781 C 2.253906 1.75 2.296875 1.683594 2.398438 1.6875 C 2.5 1.691406 2.582031 1.753906 2.582031 1.914062 C 2.582031 2.0625 2.460938 2.136719 2.304688 2.140625 C 2.164062 2.144531 2.054688 2.066406 2.054688 1.921875 C 2.054688 1.726562 2.335938 1.285156 2.335938 1.113281 C 2.335938 0.984375 2.21875 0.910156 2.105469 0.910156 C 1.957031 0.910156 1.832031 1.058594 1.832031 1.058594 L 1.917969 1.167969 Z M 1.921875 1.167969 "/>
<path style=" stroke:none;fill-rule:nonzero;fill:rgb(99.607843%,77.254902%,4.705882%);fill-opacity:1;" d="M 1.886719 4.675781 C 1.886719 5 2.179688 5.164062 2.40625 5.164062 C 2.714844 5.164062 2.878906 4.980469 2.878906 4.738281 C 2.878906 4.601562 2.855469 4.515625 2.792969 4.386719 C 2.792969 4.386719 2.285156 3.328125 2.085938 2.917969 C 2.0625 2.867188 2.054688 2.8125 2.054688 2.726562 C 2.054688 2.59375 2.179688 2.488281 2.3125 2.484375 C 2.4375 2.480469 2.570312 2.597656 2.570312 2.730469 C 2.570312 2.890625 2.484375 2.964844 2.398438 2.964844 C 2.292969 2.964844 2.25 2.917969 2.25 2.84375 C 2.25 2.792969 2.277344 2.769531 2.3125 2.769531 C 2.402344 2.769531 2.378906 2.894531 2.378906 2.894531 C 2.421875 2.882812 2.460938 2.835938 2.4375 2.78125 C 2.472656 2.773438 2.503906 2.753906 2.527344 2.726562 C 2.5 2.703125 2.472656 2.6875 2.4375 2.679688 C 2.460938 2.609375 2.429688 2.574219 2.371094 2.5625 C 2.382812 2.585938 2.382812 2.613281 2.378906 2.636719 C 2.28125 2.609375 2.132812 2.652344 2.132812 2.820312 C 2.132812 2.984375 2.25 3.125 2.464844 3.089844 C 2.414062 3.113281 2.386719 3.164062 2.382812 3.222656 C 2.421875 3.207031 2.464844 3.203125 2.464844 3.203125 C 2.4375 3.246094 2.402344 3.285156 2.40625 3.375 C 2.445312 3.355469 2.484375 3.320312 2.535156 3.34375 C 2.453125 3.5 2.550781 3.71875 2.804688 3.769531 C 2.710938 3.664062 2.667969 3.546875 2.667969 3.429688 C 2.667969 3.054688 2.769531 2.992188 2.769531 2.730469 C 2.769531 2.621094 2.714844 2.503906 2.605469 2.421875 L 2.605469 2.425781 C 2.675781 2.40625 2.722656 2.371094 2.75 2.320312 C 2.582031 2.273438 2.339844 2.273438 2.207031 2.324219 C 2.054688 2.34375 1.949219 2.460938 1.921875 2.519531 C 1.890625 2.578125 1.828125 2.789062 1.921875 2.980469 C 2.019531 3.191406 2.492188 4.191406 2.636719 4.503906 C 2.667969 4.570312 2.6875 4.640625 2.6875 4.71875 C 2.6875 4.910156 2.511719 4.976562 2.410156 4.976562 C 2.292969 4.976562 2.171875 4.886719 2.171875 4.773438 C 2.171875 4.699219 2.210938 4.65625 2.265625 4.65625 C 2.402344 4.65625 2.394531 4.773438 2.367188 4.84375 C 2.449219 4.804688 2.5 4.738281 2.484375 4.667969 C 2.535156 4.660156 2.578125 4.636719 2.621094 4.589844 C 2.589844 4.550781 2.546875 4.519531 2.484375 4.515625 C 2.511719 4.40625 2.4375 4.359375 2.367188 4.332031 C 2.390625 4.414062 2.40625 4.507812 2.265625 4.507812 C 2.164062 4.507812 2.085938 4.527344 2.039062 4.589844 C 2.035156 4.503906 2.027344 4.160156 2.027344 4.160156 C 2.023438 4.03125 2.203125 4.035156 2.316406 4.070312 C 2.273438 3.921875 2.183594 3.84375 1.980469 3.863281 C 2.03125 3.839844 2.082031 3.796875 2.082031 3.707031 C 2.082031 3.582031 1.984375 3.449219 1.921875 3.410156 Z M 1.886719 4.675781 "/>
<path style=" stroke:none;fill-rule:nonzero;fill:rgb(99.607843%,77.254902%,4.705882%);fill-opacity:1;" d="M 1.886719 5.648438 C 1.886719 5.324219 2.179688 5.15625 2.40625 5.15625 C 2.714844 5.15625 2.878906 5.339844 2.878906 5.582031 C 2.878906 5.71875 2.855469 5.804688 2.792969 5.933594 C 2.792969 5.933594 2.285156 6.992188 2.085938 7.402344 C 2.0625 7.453125 2.054688 7.511719 2.054688 7.597656 C 2.054688 7.726562 2.179688 7.835938 2.3125 7.839844 C 2.4375 7.839844 2.570312 7.722656 2.570312 7.589844 C 2.570312 7.429688 2.484375 7.359375 2.398438 7.359375 C 2.292969 7.359375 2.25 7.402344 2.25 7.476562 C 2.25 7.527344 2.277344 7.550781 2.3125 7.550781 C 2.402344 7.550781 2.378906 7.425781 2.378906 7.425781 C 2.421875 7.4375 2.460938 7.484375 2.4375 7.542969 C 2.472656 7.546875 2.503906 7.566406 2.527344 7.59375 C 2.5 7.617188 2.472656 7.636719 2.4375 7.640625 C 2.460938 7.710938 2.429688 7.746094 2.371094 7.761719 C 2.382812 7.734375 2.382812 7.707031 2.378906 7.683594 C 2.28125 7.710938 2.132812 7.667969 2.132812 7.5 C 2.132812 7.335938 2.25 7.195312 2.464844 7.230469 C 2.414062 7.207031 2.386719 7.15625 2.382812 7.101562 C 2.421875 7.117188 2.464844 7.117188 2.464844 7.117188 C 2.4375 7.074219 2.402344 7.035156 2.40625 6.949219 C 2.445312 6.964844 2.484375 7 2.535156 6.976562 C 2.453125 6.820312 2.550781 6.601562 2.804688 6.550781 C 2.710938 6.660156 2.667969 6.773438 2.667969 6.890625 C 2.667969 7.265625 2.769531 7.328125 2.769531 7.589844 C 2.769531 7.699219 2.714844 7.820312 2.605469 7.898438 L 2.605469 7.894531 C 2.675781 7.914062 2.722656 7.949219 2.75 8 C 2.582031 8.046875 2.339844 8.046875 2.207031 7.996094 C 2.054688 7.976562 1.949219 7.863281 1.921875 7.804688 C 1.890625 7.746094 1.828125 7.53125 1.921875 7.339844 C 2.019531 7.132812 2.492188 6.132812 2.636719 5.816406 C 2.667969 5.75 2.6875 5.679688 2.6875 5.601562 C 2.6875 5.410156 2.511719 5.34375 2.410156 5.34375 C 2.292969 5.34375 2.171875 5.433594 2.171875 5.550781 C 2.171875 5.621094 2.210938 5.664062 2.265625 5.664062 C 2.402344 5.664062 2.394531 5.550781 2.367188 5.476562 C 2.449219 5.515625 2.5 5.582031 2.484375 5.652344 C 2.535156 5.660156 2.578125 5.683594 2.621094 5.730469 C 2.589844 5.773438 2.546875 5.804688 2.484375 5.804688 C 2.511719 5.914062 2.4375 5.960938 2.367188 5.988281 C 2.390625 5.90625 2.40625 5.8125 2.265625 5.8125 C 2.164062 5.8125 2.085938 5.796875 2.039062 5.730469 C 2.035156 5.816406 2.027344 6.160156 2.027344 6.160156 C 2.023438 6.292969 2.203125 6.289062 2.316406 6.25 C 2.273438 6.398438 2.183594 6.480469 1.980469 6.457031 C 2.03125 6.480469 2.082031 6.527344 2.082031 6.617188 C 2.082031 6.738281 1.984375 6.871094 1.921875 6.910156 Z M 1.886719 5.648438 "/>
<path style=" stroke:none;fill-rule:nonzero;fill:rgb(99.607843%,77.254902%,4.705882%);fill-opacity:1;" d="M 1.921875 14.832031 C 1.921875 14.832031 1.765625 14.960938 1.714844 14.898438 C 1.628906 14.792969 1.972656 14.273438 1.972656 14.089844 C 1.972656 13.792969 1.773438 13.710938 1.523438 13.667969 C 1.359375 13.636719 1.089844 13.679688 1.089844 13.679688 C 1.140625 13.746094 1.171875 13.765625 1.257812 13.773438 C 1.164062 13.820312 1.066406 13.929688 1.066406 14.097656 C 1.066406 14.355469 1.171875 14.460938 1.171875 14.753906 C 1.171875 14.914062 1.039062 15.121094 1.039062 15.121094 C 1.273438 15.097656 1.390625 14.878906 1.324219 14.707031 C 1.359375 14.703125 1.394531 14.710938 1.421875 14.738281 C 1.441406 14.6875 1.414062 14.632812 1.378906 14.585938 C 1.40625 14.570312 1.429688 14.578125 1.472656 14.589844 C 1.46875 14.539062 1.441406 14.488281 1.367188 14.4375 C 1.578125 14.492188 1.707031 14.34375 1.707031 14.191406 C 1.707031 14.074219 1.625 13.992188 1.546875 13.992188 C 1.523438 13.992188 1.484375 14.003906 1.460938 14.019531 C 1.449219 13.988281 1.457031 13.945312 1.472656 13.914062 C 1.414062 13.929688 1.375 13.960938 1.402344 14.035156 C 1.355469 14.039062 1.320312 14.054688 1.296875 14.082031 C 1.320312 14.113281 1.359375 14.132812 1.402344 14.128906 C 1.371094 14.199219 1.40625 14.234375 1.457031 14.265625 C 1.457031 14.265625 1.425781 14.128906 1.511719 14.128906 C 1.550781 14.128906 1.585938 14.144531 1.585938 14.199219 C 1.585938 14.25 1.542969 14.316406 1.441406 14.3125 C 1.339844 14.308594 1.257812 14.246094 1.257812 14.085938 C 1.257812 13.9375 1.378906 13.863281 1.535156 13.859375 C 1.675781 13.855469 1.785156 13.933594 1.785156 14.078125 C 1.785156 14.273438 1.503906 14.714844 1.503906 14.886719 C 1.503906 15.015625 1.621094 15.089844 1.734375 15.089844 C 1.882812 15.089844 2.007812 14.941406 2.007812 14.941406 Z M 1.921875 14.832031 "/>
<path style=" stroke:none;fill-rule:nonzero;fill:rgb(99.607843%,77.254902%,4.705882%);fill-opacity:1;" d="M 1.953125 11.324219 C 1.953125 11 1.660156 10.835938 1.433594 10.835938 C 1.125 10.835938 0.960938 11.019531 0.960938 11.261719 C 0.960938 11.398438 0.984375 11.484375 1.046875 11.613281 C 1.046875 11.613281 1.554688 12.671875 1.753906 13.082031 C 1.777344 13.132812 1.789062 13.1875 1.789062 13.273438 C 1.789062 13.40625 1.660156 13.511719 1.527344 13.515625 C 1.402344 13.519531 1.269531 13.402344 1.269531 13.269531 C 1.269531 13.109375 1.355469 13.035156 1.441406 13.035156 C 1.546875 13.035156 1.589844 13.082031 1.589844 13.15625 C 1.589844 13.207031 1.5625 13.230469 1.527344 13.230469 C 1.4375 13.230469 1.460938 13.105469 1.460938 13.105469 C 1.417969 13.117188 1.378906 13.164062 1.402344 13.21875 C 1.367188 13.226562 1.339844 13.246094 1.3125 13.273438 C 1.339844 13.296875 1.367188 13.3125 1.402344 13.320312 C 1.378906 13.390625 1.410156 13.425781 1.46875 13.4375 C 1.457031 13.414062 1.457031 13.386719 1.460938 13.363281 C 1.558594 13.390625 1.707031 13.347656 1.707031 13.179688 C 1.707031 13.015625 1.589844 12.875 1.375 12.910156 C 1.425781 12.886719 1.453125 12.835938 1.457031 12.777344 C 1.417969 12.792969 1.375 12.796875 1.375 12.796875 C 1.402344 12.753906 1.4375 12.714844 1.433594 12.625 C 1.394531 12.644531 1.355469 12.679688 1.304688 12.65625 C 1.386719 12.5 1.289062 12.28125 1.035156 12.230469 C 1.128906 12.335938 1.171875 12.453125 1.171875 12.570312 C 1.171875 12.945312 1.070312 13.007812 1.070312 13.269531 C 1.070312 13.378906 1.125 13.496094 1.238281 13.578125 L 1.238281 13.574219 C 1.164062 13.59375 1.117188 13.628906 1.089844 13.679688 C 1.257812 13.726562 1.5 13.726562 1.632812 13.675781 C 1.785156 13.65625 1.890625 13.539062 1.921875 13.480469 C 1.949219 13.421875 2.011719 13.210938 1.921875 13.019531 C 1.820312 12.808594 1.347656 11.808594 1.203125 11.496094 C 1.171875 11.429688 1.152344 11.359375 1.152344 11.28125 C 1.152344 11.089844 1.328125 11.023438 1.429688 11.023438 C 1.546875 11.023438 1.667969 11.113281 1.667969 11.226562 C 1.667969 11.300781 1.628906 11.34375 1.574219 11.34375 C 1.4375 11.34375 1.445312 11.226562 1.472656 11.15625 C 1.390625 11.195312 1.339844 11.261719 1.355469 11.332031 C 1.304688 11.339844 1.261719 11.363281 1.21875 11.410156 C 1.253906 11.449219 1.292969 11.480469 1.355469 11.484375 C 1.328125 11.59375 1.402344 11.640625 1.472656 11.667969 C 1.449219 11.585938 1.4375 11.492188 1.574219 11.492188 C 1.675781 11.492188 1.753906 11.472656 1.800781 11.410156 C 1.804688 11.496094 1.8125 11.839844 1.8125 11.839844 C 1.816406 11.96875 1.636719 11.964844 1.523438 11.929688 C 1.566406 12.078125 1.65625 12.15625 1.859375 12.136719 C 1.808594 12.160156 1.757812 12.203125 1.757812 12.292969 C 1.757812 12.417969 1.855469 12.550781 1.921875 12.589844 Z M 1.953125 11.324219 "/>
<path style=" stroke:none;fill-rule:nonzero;fill:rgb(99.607843%,77.254902%,4.705882%);fill-opacity:1;" d="M 1.953125 10.351562 C 1.953125 10.675781 1.660156 10.84375 1.433594 10.84375 C 1.125 10.84375 0.960938 10.660156 0.960938 10.417969 C 0.960938 10.28125 0.984375 10.195312 1.046875 10.066406 C 1.046875 10.066406 1.554688 9.007812 1.753906 8.597656 C 1.777344 8.546875 1.789062 8.488281 1.789062 8.402344 C 1.789062 8.273438 1.660156 8.164062 1.527344 8.160156 C 1.402344 8.160156 1.269531 8.277344 1.269531 8.410156 C 1.269531 8.570312 1.355469 8.640625 1.441406 8.640625 C 1.546875 8.640625 1.589844 8.597656 1.589844 8.523438 C 1.589844 8.472656 1.5625 8.449219 1.527344 8.449219 C 1.4375 8.449219 1.460938 8.574219 1.460938 8.574219 C 1.417969 8.5625 1.378906 8.515625 1.402344 8.457031 C 1.367188 8.453125 1.339844 8.433594 1.3125 8.40625 C 1.339844 8.382812 1.367188 8.363281 1.402344 8.359375 C 1.378906 8.289062 1.410156 8.253906 1.46875 8.238281 C 1.457031 8.265625 1.457031 8.292969 1.460938 8.316406 C 1.558594 8.289062 1.707031 8.332031 1.707031 8.5 C 1.707031 8.664062 1.589844 8.804688 1.375 8.769531 C 1.425781 8.792969 1.453125 8.84375 1.457031 8.898438 C 1.417969 8.882812 1.375 8.882812 1.375 8.882812 C 1.402344 8.925781 1.4375 8.964844 1.433594 9.050781 C 1.394531 9.035156 1.355469 9 1.304688 9.023438 C 1.386719 9.179688 1.289062 9.398438 1.035156 9.449219 C 1.128906 9.339844 1.171875 9.226562 1.171875 9.109375 C 1.171875 8.734375 1.070312 8.671875 1.070312 8.410156 C 1.070312 8.300781 1.125 8.179688 1.238281 8.101562 L 1.238281 8.105469 C 1.164062 8.085938 1.117188 8.050781 1.089844 8 C 1.257812 7.953125 1.5 7.953125 1.632812 8.003906 C 1.785156 8.023438 1.890625 8.136719 1.921875 8.195312 C 1.949219 8.253906 2.011719 8.46875 1.921875 8.660156 C 1.820312 8.867188 1.347656 9.867188 1.203125 10.183594 C 1.171875 10.25 1.152344 10.320312 1.152344 10.398438 C 1.152344 10.589844 1.328125 10.65625 1.429688 10.65625 C 1.546875 10.65625 1.667969 10.566406 1.667969 10.449219 C 1.667969 10.378906 1.628906 10.335938 1.574219 10.335938 C 1.4375 10.335938 1.445312 10.449219 1.472656 10.523438 C 1.390625 10.484375 1.339844 10.417969 1.355469 10.347656 C 1.304688 10.339844 1.261719 10.316406 1.21875 10.269531 C 1.253906 10.226562 1.292969 10.195312 1.355469 10.195312 C 1.328125 10.085938 1.402344 10.039062 1.472656 10.011719 C 1.449219 10.09375 1.4375 10.1875 1.574219 10.1875 C 1.675781 10.1875 1.753906 10.203125 1.800781 10.269531 C 1.804688 10.183594 1.8125 9.839844 1.8125 9.839844 C 1.816406 9.707031 1.636719 9.710938 1.523438 9.75 C 1.566406 9.601562 1.65625 9.519531 1.859375 9.542969 C 1.808594 9.519531 1.757812 9.472656 1.757812 9.382812 C 1.757812 9.261719 1.855469 9.128906 1.921875 9.089844 Z M 1.953125 10.351562 "/>
<path style=" stroke:none;fill-rule:nonzero;fill:rgb(99.607843%,77.254902%,4.705882%);fill-opacity:1;" d="M 1.921875 14.832031 C 1.921875 14.832031 2.074219 14.960938 2.125 14.898438 C 2.210938 14.792969 1.867188 14.273438 1.867188 14.089844 C 1.867188 13.792969 2.066406 13.710938 2.316406 13.667969 C 2.480469 13.636719 2.75 13.679688 2.75 13.679688 C 2.699219 13.746094 2.667969 13.765625 2.582031 13.773438 C 2.675781 13.820312 2.773438 13.929688 2.773438 14.097656 C 2.773438 14.355469 2.667969 14.460938 2.667969 14.753906 C 2.667969 14.914062 2.800781 15.121094 2.800781 15.121094 C 2.566406 15.097656 2.449219 14.878906 2.515625 14.707031 C 2.480469 14.703125 2.445312 14.710938 2.417969 14.738281 C 2.398438 14.6875 2.425781 14.632812 2.460938 14.585938 C 2.433594 14.570312 2.410156 14.578125 2.367188 14.589844 C 2.371094 14.539062 2.398438 14.488281 2.472656 14.4375 C 2.261719 14.492188 2.132812 14.34375 2.132812 14.191406 C 2.132812 14.074219 2.214844 13.992188 2.292969 13.992188 C 2.320312 13.992188 2.355469 14.003906 2.378906 14.019531 C 2.390625 13.988281 2.382812 13.945312 2.371094 13.914062 C 2.425781 13.929688 2.464844 13.960938 2.4375 14.035156 C 2.484375 14.039062 2.519531 14.054688 2.542969 14.082031 C 2.519531 14.113281 2.480469 14.132812 2.4375 14.128906 C 2.46875 14.199219 2.433594 14.234375 2.382812 14.265625 C 2.382812 14.265625 2.414062 14.128906 2.328125 14.128906 C 2.289062 14.128906 2.253906 14.144531 2.253906 14.199219 C 2.253906 14.25 2.296875 14.316406 2.398438 14.3125 C 2.5 14.308594 2.582031 14.246094 2.582031 14.085938 C 2.582031 13.9375 2.460938 13.863281 2.304688 13.859375 C 2.164062 13.855469 2.054688 13.933594 2.054688 14.078125 C 2.054688 14.273438 2.335938 14.714844 2.335938 14.886719 C 2.335938 15.015625 2.21875 15.089844 2.105469 15.089844 C 1.957031 15.089844 1.832031 14.941406 1.832031 14.941406 L 1.917969 14.832031 Z M 1.921875 14.832031 "/>
<path style=" stroke:none;fill-rule:nonzero;fill:rgb(99.607843%,77.254902%,4.705882%);fill-opacity:1;" d="M 1.886719 11.324219 C 1.886719 11 2.179688 10.835938 2.40625 10.835938 C 2.714844 10.835938 2.878906 11.019531 2.878906 11.261719 C 2.878906 11.398438 2.855469 11.484375 2.792969 11.613281 C 2.792969 11.613281 2.285156 12.671875 2.085938 13.082031 C 2.0625 13.132812 2.054688 13.1875 2.054688 13.273438 C 2.054688 13.40625 2.179688 13.511719 2.3125 13.515625 C 2.4375 13.519531 2.570312 13.402344 2.570312 13.269531 C 2.570312 13.109375 2.484375 13.035156 2.398438 13.035156 C 2.292969 13.035156 2.25 13.082031 2.25 13.15625 C 2.25 13.207031 2.277344 13.230469 2.3125 13.230469 C 2.402344 13.230469 2.378906 13.105469 2.378906 13.105469 C 2.421875 13.117188 2.460938 13.164062 2.4375 13.21875 C 2.472656 13.226562 2.503906 13.246094 2.527344 13.273438 C 2.5 13.296875 2.472656 13.3125 2.4375 13.320312 C 2.460938 13.390625 2.429688 13.425781 2.371094 13.4375 C 2.382812 13.414062 2.382812 13.386719 2.378906 13.363281 C 2.28125 13.390625 2.132812 13.347656 2.132812 13.179688 C 2.132812 13.015625 2.25 12.875 2.464844 12.910156 C 2.414062 12.886719 2.386719 12.835938 2.382812 12.777344 C 2.421875 12.792969 2.464844 12.796875 2.464844 12.796875 C 2.4375 12.753906 2.402344 12.714844 2.40625 12.625 C 2.445312 12.644531 2.484375 12.679688 2.535156 12.65625 C 2.453125 12.5 2.550781 12.28125 2.804688 12.230469 C 2.710938 12.335938 2.667969 12.453125 2.667969 12.570312 C 2.667969 12.945312 2.769531 13.007812 2.769531 13.269531 C 2.769531 13.378906 2.714844 13.496094 2.605469 13.578125 L 2.605469 13.574219 C 2.675781 13.59375 2.722656 13.628906 2.75 13.679688 C 2.582031 13.726562 2.339844 13.726562 2.207031 13.675781 C 2.054688 13.65625 1.949219 13.539062 1.921875 13.480469 C 1.890625 13.421875 1.828125 13.210938 1.921875 13.019531 C 2.019531 12.808594 2.492188 11.808594 2.636719 11.496094 C 2.667969 11.429688 2.6875 11.359375 2.6875 11.28125 C 2.6875 11.089844 2.511719 11.023438 2.410156 11.023438 C 2.292969 11.023438 2.171875 11.113281 2.171875 11.226562 C 2.171875 11.300781 2.210938 11.34375 2.265625 11.34375 C 2.402344 11.34375 2.394531 11.226562 2.367188 11.15625 C 2.449219 11.195312 2.5 11.261719 2.484375 11.332031 C 2.535156 11.339844 2.578125 11.363281 2.621094 11.410156 C 2.589844 11.449219 2.546875 11.480469 2.484375 11.484375 C 2.511719 11.59375 2.4375 11.640625 2.367188 11.667969 C 2.390625 11.585938 2.40625 11.492188 2.265625 11.492188 C 2.164062 11.492188 2.085938 11.472656 2.039062 11.410156 C 2.035156 11.496094 2.027344 11.839844 2.027344 11.839844 C 2.023438 11.96875 2.203125 11.964844 2.316406 11.929688 C 2.273438 12.078125 2.183594 12.15625 1.980469 12.136719 C 2.03125 12.160156 2.082031 12.203125 2.082031 12.292969 C 2.082031 12.417969 1.984375 12.550781 1.921875 12.589844 Z M 1.886719 11.324219 "/>
<path style=" stroke:none;fill-rule:nonzero;fill:rgb(99.607843%,77.254902%,4.705882%);fill-opacity:1;" d="M 1.886719 10.351562 C 1.886719 10.675781 2.179688 10.84375 2.40625 10.84375 C 2.714844 10.84375 2.878906 10.660156 2.878906 10.417969 C 2.878906 10.28125 2.855469 10.195312 2.792969 10.066406 C 2.792969 10.066406 2.285156 9.007812 2.085938 8.597656 C 2.0625 8.546875 2.054688 8.488281 2.054688 8.402344 C 2.054688 8.273438 2.179688 8.164062 2.3125 8.160156 C 2.4375 8.160156 2.570312 8.277344 2.570312 8.410156 C 2.570312 8.570312 2.484375 8.640625 2.398438 8.640625 C 2.292969 8.640625 2.25 8.597656 2.25 8.523438 C 2.25 8.472656 2.277344 8.449219 2.3125 8.449219 C 2.402344 8.449219 2.378906 8.574219 2.378906 8.574219 C 2.421875 8.5625 2.460938 8.515625 2.4375 8.457031 C 2.472656 8.453125 2.503906 8.433594 2.527344 8.40625 C 2.5 8.382812 2.472656 8.363281 2.4375 8.359375 C 2.460938 8.289062 2.429688 8.253906 2.371094 8.238281 C 2.382812 8.265625 2.382812 8.292969 2.378906 8.316406 C 2.28125 8.289062 2.132812 8.332031 2.132812 8.5 C 2.132812 8.664062 2.25 8.804688 2.464844 8.769531 C 2.414062 8.792969 2.386719 8.84375 2.382812 8.898438 C 2.421875 8.882812 2.464844 8.882812 2.464844 8.882812 C 2.4375 8.925781 2.402344 8.964844 2.40625 9.050781 C 2.445312 9.035156 2.484375 9 2.535156 9.023438 C 2.453125 9.179688 2.550781 9.398438 2.804688 9.449219 C 2.710938 9.339844 2.667969 9.226562 2.667969 9.109375 C 2.667969 8.734375 2.769531 8.671875 2.769531 8.410156 C 2.769531 8.300781 2.714844 8.179688 2.605469 8.101562 L 2.605469 8.105469 C 2.675781 8.085938 2.722656 8.050781 2.75 8 C 2.582031 7.953125 2.339844 7.953125 2.207031 8.003906 C 2.054688 8.023438 1.949219 8.136719 1.921875 8.195312 C 1.890625 8.253906 1.828125 8.46875 1.921875 8.660156 C 2.019531 8.867188 2.492188 9.867188 2.636719 10.183594 C 2.667969 10.25 2.6875 10.320312 2.6875 10.398438 C 2.6875 10.589844 2.511719 10.65625 2.410156 10.65625 C 2.292969 10.65625 2.171875 10.566406 2.171875 10.449219 C 2.171875 10.378906 2.210938 10.335938 2.265625 10.335938 C 2.402344 10.335938 2.394531 10.449219 2.367188 10.523438 C 2.449219 10.484375 2.5 10.417969 2.484375 10.347656 C 2.535156 10.339844 2.578125 10.316406 2.621094 10.269531 C 2.589844 10.226562 2.546875 10.195312 2.484375 10.195312 C 2.511719 10.085938 2.4375 10.039062 2.367188 10.011719 C 2.390625 10.09375 2.40625 10.1875 2.265625 10.1875 C 2.164062 10.1875 2.085938 10.203125 2.039062 10.269531 C 2.035156 10.183594 2.027344 9.839844 2.027344 9.839844 C 2.023438 9.707031 2.203125 9.710938 2.316406 9.75 C 2.273438 9.601562 2.183594 9.519531 1.980469 9.542969 C 2.03125 9.519531 2.082031 9.472656 2.082031 9.382812 C 2.082031 9.261719 1.984375 9.128906 1.921875 9.089844 Z M 1.886719 10.351562 "/>
</g>
</svg>
