<?xml version="1.0" encoding="UTF-8"?>
<svg xmlns="http://www.w3.org/2000/svg" xmlns:xlink="http://www.w3.org/1999/xlink" width="24px" height="16px" viewBox="0 0 26 16" version="1.1">
<g id="surface1">
<rect x="0" y="0" width="26" height="16" style="fill:rgb(0%,16.862745%,49.803922%);fill-opacity:1;stroke:none;"/>
<path style=" stroke:none;fill-rule:nonzero;fill:rgb(80.784314%,6.666667%,14.901961%);fill-opacity:1;" d="M 0 8 L 26 8 L 26 16 L 0 16 Z M 0 8 "/>
<path style=" stroke:none;fill-rule:nonzero;fill:rgb(100%,84.705882%,23.921569%);fill-opacity:1;" d="M 5.625 3.261719 L 5.578125 4.925781 L 3.929688 4.925781 C 3.726562 4.523438 3.558594 4.179688 3.558594 3.714844 C 3.558594 3.324219 3.855469 3.015625 4.289062 3.015625 C 4.742188 3.015625 5.242188 3.171875 5.625 3.261719 Z M 5.625 3.261719 "/>
<path style="fill:none;stroke-width:1.5;stroke-linecap:round;stroke-linejoin:round;stroke:rgb(0%,0%,0%);stroke-opacity:1;stroke-miterlimit:4;" d="M 144.38101 125.097656 L 144.38101 161.279297 " transform="matrix(0.026,0,0,0.0266667,0,0)"/>
<path style="fill:none;stroke-width:1.5;stroke-linecap:round;stroke-linejoin:round;stroke:rgb(0%,0%,0%);stroke-opacity:1;stroke-miterlimit:4;" d="M 149.489183 121.435547 L 149.489183 169.482422 " transform="matrix(0.026,0,0,0.0266667,0,0)"/>
<path style="fill:none;stroke-width:1.5;stroke-linecap:round;stroke-linejoin:round;stroke:rgb(0%,0%,0%);stroke-opacity:1;stroke-miterlimit:4;" d="M 154.597356 118.945312 L 154.597356 176.220703 " transform="matrix(0.026,0,0,0.0266667,0,0)"/>
<path style="fill:none;stroke-width:1.5;stroke-linecap:round;stroke-linejoin:round;stroke:rgb(0%,0%,0%);stroke-opacity:1;stroke-miterlimit:4;" d="M 159.705529 117.773438 L 159.705529 162.597656 " transform="matrix(0.026,0,0,0.0266667,0,0)"/>
<path style="fill:none;stroke-width:1.5;stroke-linecap:round;stroke-linejoin:round;stroke:rgb(0%,0%,0%);stroke-opacity:1;stroke-miterlimit:4;" d="M 164.813702 117.480469 L 164.813702 162.890625 " transform="matrix(0.026,0,0,0.0266667,0,0)"/>
<path style="fill:none;stroke-width:1.5;stroke-linecap:round;stroke-linejoin:round;stroke:rgb(0%,0%,0%);stroke-opacity:1;stroke-miterlimit:4;" d="M 169.921875 116.015625 L 169.921875 162.890625 " transform="matrix(0.026,0,0,0.0266667,0,0)"/>
<path style="fill:none;stroke-width:1.5;stroke-linecap:round;stroke-linejoin:round;stroke:rgb(0%,0%,0%);stroke-opacity:1;stroke-miterlimit:4;" d="M 175.030048 116.015625 L 175.030048 162.890625 " transform="matrix(0.026,0,0,0.0266667,0,0)"/>
<path style="fill:none;stroke-width:1.5;stroke-linecap:round;stroke-linejoin:round;stroke:rgb(0%,0%,0%);stroke-opacity:1;stroke-miterlimit:4;" d="M 180.138221 116.455078 L 180.138221 163.330078 " transform="matrix(0.026,0,0,0.0266667,0,0)"/>
<path style="fill:none;stroke-width:1.5;stroke-linecap:round;stroke-linejoin:round;stroke:rgb(0%,0%,0%);stroke-opacity:1;stroke-miterlimit:4;" d="M 185.246394 116.894531 L 185.246394 163.769531 " transform="matrix(0.026,0,0,0.0266667,0,0)"/>
<path style="fill:none;stroke-width:1.5;stroke-linecap:round;stroke-linejoin:round;stroke:rgb(0%,0%,0%);stroke-opacity:1;stroke-miterlimit:4;" d="M 190.354567 119.824219 L 190.354567 166.699219 " transform="matrix(0.026,0,0,0.0266667,0,0)"/>
<path style="fill:none;stroke-width:1.5;stroke-linecap:round;stroke-linejoin:round;stroke:rgb(0%,0%,0%);stroke-opacity:1;stroke-miterlimit:4;" d="M 195.46274 120.263672 L 195.46274 173.144531 " transform="matrix(0.026,0,0,0.0266667,0,0)"/>
<path style="fill:none;stroke-width:1.5;stroke-linecap:round;stroke-linejoin:round;stroke:rgb(0%,0%,0%);stroke-opacity:1;stroke-miterlimit:4;" d="M 200.420673 120.263672 L 200.420673 167.285156 " transform="matrix(0.026,0,0,0.0266667,0,0)"/>
<path style="fill:none;stroke-width:1.5;stroke-linecap:round;stroke-linejoin:round;stroke:rgb(0%,0%,0%);stroke-opacity:1;stroke-miterlimit:4;" d="M 205.528846 120.263672 L 205.528846 167.285156 " transform="matrix(0.026,0,0,0.0266667,0,0)"/>
<path style="fill-rule:nonzero;fill:rgb(0%,0%,0%);fill-opacity:1;stroke-width:1.5;stroke-linecap:round;stroke-linejoin:round;stroke:rgb(0%,0%,0%);stroke-opacity:1;stroke-miterlimit:4;" d="M 176.382212 117.919922 C 187.199519 119.677734 210.78726 130.810547 208.082933 145.751953 C 204.326923 166.992188 191.856971 158.496094 175.480769 155.419922 L 163.010817 159.521484 C 158.653846 164.0625 152.043269 168.164062 147.686298 162.744141 L 140.324519 162.744141 L 140.324519 191.455078 L 221.604567 191.455078 L 221.604567 122.021484 Z M 176.382212 117.919922 " transform="matrix(0.026,0,0,0.0266667,0,0)"/>
<path style="fill-rule:nonzero;fill:rgb(100%,84.705882%,23.921569%);fill-opacity:1;stroke-width:2;stroke-linecap:round;stroke-linejoin:round;stroke:rgb(0%,0%,0%);stroke-opacity:1;stroke-miterlimit:4;" d="M 217.698317 112.939453 C 217.698317 115.722656 215.594952 117.919922 212.740385 117.919922 C 210.036058 117.919922 207.932692 115.722656 207.932692 112.939453 C 207.932692 110.302734 210.036058 108.105469 212.740385 108.105469 C 215.594952 108.105469 217.698317 110.302734 217.698317 112.939453 Z M 217.698317 112.939453 " transform="matrix(0.026,0,0,0.0266667,0,0)"/>
<path style="fill-rule:nonzero;fill:rgb(100%,84.705882%,23.921569%);fill-opacity:1;stroke-width:2;stroke-linecap:round;stroke-linejoin:round;stroke:rgb(0%,0%,0%);stroke-opacity:1;stroke-miterlimit:4;" d="M 206.580529 110.302734 C 206.580529 113.085938 204.477163 115.283203 201.772837 115.283203 C 198.918269 115.283203 196.814904 113.085938 196.814904 110.302734 C 196.814904 107.519531 198.918269 105.322266 201.772837 105.322266 C 204.477163 105.322266 206.580529 107.519531 206.580529 110.302734 Z M 206.580529 110.302734 " transform="matrix(0.026,0,0,0.0266667,0,0)"/>
<path style="fill-rule:nonzero;fill:rgb(100%,84.705882%,23.921569%);fill-opacity:1;stroke-width:2;stroke-linecap:round;stroke-linejoin:round;stroke:rgb(0%,0%,0%);stroke-opacity:1;stroke-miterlimit:4;" d="M 195.46274 107.519531 C 195.46274 110.15625 193.209135 112.353516 190.504808 112.353516 C 187.65024 112.353516 185.546875 110.15625 185.546875 107.519531 C 185.546875 104.736328 187.65024 102.539062 190.504808 102.539062 C 193.209135 102.539062 195.46274 104.736328 195.46274 107.519531 Z M 195.46274 107.519531 " transform="matrix(0.026,0,0,0.0266667,0,0)"/>
<path style="fill-rule:nonzero;fill:rgb(100%,84.705882%,23.921569%);fill-opacity:1;stroke-width:2;stroke-linecap:round;stroke-linejoin:round;stroke:rgb(0%,0%,0%);stroke-opacity:1;stroke-miterlimit:4;" d="M 184.044471 105.615234 C 184.044471 108.251953 181.941106 110.595703 179.086538 110.595703 C 176.382212 110.595703 174.128606 108.251953 174.128606 105.615234 C 174.128606 102.832031 176.382212 100.634766 179.086538 100.634766 C 181.941106 100.634766 184.044471 102.832031 184.044471 105.615234 Z M 184.044471 105.615234 " transform="matrix(0.026,0,0,0.0266667,0,0)"/>
<path style="fill-rule:nonzero;fill:rgb(100%,84.705882%,23.921569%);fill-opacity:1;stroke-width:2;stroke-linecap:round;stroke-linejoin:round;stroke:rgb(0%,0%,0%);stroke-opacity:1;stroke-miterlimit:4;" d="M 172.776442 104.443359 C 172.776442 107.226562 170.522837 109.423828 167.81851 109.423828 C 165.114183 109.423828 162.860577 107.226562 162.860577 104.443359 C 162.860577 101.806641 165.114183 99.609375 167.81851 99.609375 C 170.522837 99.609375 172.776442 101.806641 172.776442 104.443359 Z M 172.776442 104.443359 " transform="matrix(0.026,0,0,0.0266667,0,0)"/>
<path style="fill-rule:nonzero;fill:rgb(100%,84.705882%,23.921569%);fill-opacity:1;stroke-width:2;stroke-linecap:round;stroke-linejoin:round;stroke:rgb(0%,0%,0%);stroke-opacity:1;stroke-miterlimit:4;" d="M 161.658654 105.175781 C 161.658654 107.8125 159.405048 110.009766 156.700721 110.009766 C 153.996394 110.009766 151.742788 107.8125 151.742788 105.175781 C 151.742788 102.392578 153.996394 100.195312 156.700721 100.195312 C 159.405048 100.195312 161.658654 102.392578 161.658654 105.175781 Z M 161.658654 105.175781 " transform="matrix(0.026,0,0,0.0266667,0,0)"/>
<path style="fill-rule:nonzero;fill:rgb(100%,84.705882%,23.921569%);fill-opacity:1;stroke-width:2;stroke-linecap:round;stroke-linejoin:round;stroke:rgb(0%,0%,0%);stroke-opacity:1;stroke-miterlimit:4;" d="M 151.141827 108.691406 C 151.141827 111.474609 148.888221 113.671875 146.183894 113.671875 C 143.479567 113.671875 141.225962 111.474609 141.225962 108.691406 C 141.225962 106.054688 143.479567 103.857422 146.183894 103.857422 C 148.888221 103.857422 151.141827 106.054688 151.141827 108.691406 Z M 151.141827 108.691406 " transform="matrix(0.026,0,0,0.0266667,0,0)"/>
<path style="fill-rule:nonzero;fill:rgb(100%,84.705882%,23.921569%);fill-opacity:1;stroke-width:2;stroke-linecap:round;stroke-linejoin:round;stroke:rgb(0%,0%,0%);stroke-opacity:1;stroke-miterlimit:4;" d="M 142.277644 115.283203 C 142.277644 118.066406 140.024038 120.263672 137.319712 120.263672 C 134.615385 120.263672 132.361779 118.066406 132.361779 115.283203 C 132.361779 112.5 134.615385 110.302734 137.319712 110.302734 C 140.024038 110.302734 142.277644 112.5 142.277644 115.283203 Z M 142.277644 115.283203 " transform="matrix(0.026,0,0,0.0266667,0,0)"/>
<path style="fill-rule:nonzero;fill:rgb(100%,84.705882%,23.921569%);fill-opacity:1;stroke-width:2;stroke-linecap:round;stroke-linejoin:round;stroke:rgb(0%,0%,0%);stroke-opacity:1;stroke-miterlimit:4;" d="M 135.967548 124.365234 C 135.967548 127.148438 133.713942 129.345703 131.009615 129.345703 C 128.155048 129.345703 126.051683 127.148438 126.051683 124.365234 C 126.051683 121.728516 128.155048 119.53125 131.009615 119.53125 C 133.713942 119.53125 135.967548 121.728516 135.967548 124.365234 Z M 135.967548 124.365234 " transform="matrix(0.026,0,0,0.0266667,0,0)"/>
<path style="fill-rule:nonzero;fill:rgb(100%,84.705882%,23.921569%);fill-opacity:1;stroke-width:2;stroke-linecap:round;stroke-linejoin:round;stroke:rgb(0%,0%,0%);stroke-opacity:1;stroke-miterlimit:4;" d="M 132.8125 135.205078 C 132.8125 137.841797 130.709135 140.039062 127.854567 140.039062 C 125.15024 140.039062 122.896635 137.841797 122.896635 135.205078 C 122.896635 132.421875 125.15024 130.224609 127.854567 130.224609 C 130.709135 130.224609 132.8125 132.421875 132.8125 135.205078 Z M 132.8125 135.205078 " transform="matrix(0.026,0,0,0.0266667,0,0)"/>
<path style="fill-rule:nonzero;fill:rgb(100%,84.705882%,23.921569%);fill-opacity:1;stroke-width:2;stroke-linecap:round;stroke-linejoin:round;stroke:rgb(0%,0%,0%);stroke-opacity:1;stroke-miterlimit:4;" d="M 132.96274 146.337891 C 132.96274 148.974609 130.709135 151.171875 128.004808 151.171875 C 125.300481 151.171875 123.046875 148.974609 123.046875 146.337891 C 123.046875 143.554688 125.300481 141.357422 128.004808 141.357422 C 130.709135 141.357422 132.96274 143.554688 132.96274 146.337891 Z M 132.96274 146.337891 " transform="matrix(0.026,0,0,0.0266667,0,0)"/>
<path style="fill-rule:nonzero;fill:rgb(100%,84.705882%,23.921569%);fill-opacity:1;stroke-width:2;stroke-linecap:round;stroke-linejoin:round;stroke:rgb(0%,0%,0%);stroke-opacity:1;stroke-miterlimit:4;" d="M 135.066106 157.177734 C 135.066106 159.960938 132.8125 162.158203 130.108173 162.158203 C 127.403846 162.158203 125.15024 159.960938 125.15024 157.177734 C 125.15024 154.541016 127.403846 152.34375 130.108173 152.34375 C 132.8125 152.34375 135.066106 154.541016 135.066106 157.177734 Z M 135.066106 157.177734 " transform="matrix(0.026,0,0,0.0266667,0,0)"/>
<path style="fill-rule:nonzero;fill:rgb(100%,84.705882%,23.921569%);fill-opacity:1;stroke-width:2;stroke-linecap:round;stroke-linejoin:round;stroke:rgb(0%,0%,0%);stroke-opacity:1;stroke-miterlimit:4;" d="M 214.99399 119.53125 L 214.543269 125.976562 C 202.223558 124.072266 184.795673 117.1875 168.569712 117.1875 C 153.545673 117.1875 141.977163 123.193359 141.977163 138.427734 C 141.977163 153.222656 148.28726 166.845703 156.700721 180.615234 L 147.836538 184.716797 C 140.174279 169.628906 133.713942 156.738281 133.713942 139.306641 C 133.713942 124.658203 145.132212 110.302734 164.963942 110.302734 C 182.391827 110.302734 200.270433 116.308594 214.99399 119.53125 Z M 214.99399 119.53125 " transform="matrix(0.026,0,0,0.0266667,0,0)"/>
<path style=" stroke:none;fill-rule:nonzero;fill:rgb(100%,84.705882%,23.921569%);fill-opacity:1;" d="M 5.917969 3.261719 L 5.964844 4.925781 L 7.613281 4.925781 C 7.816406 4.523438 7.984375 4.179688 7.984375 3.714844 C 7.984375 3.324219 7.683594 3.015625 7.253906 3.015625 C 6.800781 3.015625 6.296875 3.171875 5.917969 3.261719 Z M 5.917969 3.261719 "/>
<path style="fill:none;stroke-width:1.5;stroke-linecap:round;stroke-linejoin:round;stroke:rgb(0%,0%,0%);stroke-opacity:1;stroke-miterlimit:4;" d="M 144.508413 125.097656 L 144.508413 161.279297 " transform="matrix(-0.026,0,0,0.0266667,11.542375,0)"/>
<path style="fill:none;stroke-width:1.5;stroke-linecap:round;stroke-linejoin:round;stroke:rgb(0%,0%,0%);stroke-opacity:1;stroke-miterlimit:4;" d="M 149.616587 121.435547 L 149.616587 169.482422 " transform="matrix(-0.026,0,0,0.0266667,11.542375,0)"/>
<path style="fill:none;stroke-width:1.5;stroke-linecap:round;stroke-linejoin:round;stroke:rgb(0%,0%,0%);stroke-opacity:1;stroke-miterlimit:4;" d="M 154.574519 118.945312 L 154.574519 176.220703 " transform="matrix(-0.026,0,0,0.0266667,11.542375,0)"/>
<path style="fill:none;stroke-width:1.5;stroke-linecap:round;stroke-linejoin:round;stroke:rgb(0%,0%,0%);stroke-opacity:1;stroke-miterlimit:4;" d="M 159.682692 117.773438 L 159.682692 162.597656 " transform="matrix(-0.026,0,0,0.0266667,11.542375,0)"/>
<path style="fill:none;stroke-width:1.5;stroke-linecap:round;stroke-linejoin:round;stroke:rgb(0%,0%,0%);stroke-opacity:1;stroke-miterlimit:4;" d="M 164.790865 117.480469 L 164.790865 162.890625 " transform="matrix(-0.026,0,0,0.0266667,11.542375,0)"/>
<path style="fill:none;stroke-width:1.5;stroke-linecap:round;stroke-linejoin:round;stroke:rgb(0%,0%,0%);stroke-opacity:1;stroke-miterlimit:4;" d="M 169.899038 116.015625 L 169.899038 162.890625 " transform="matrix(-0.026,0,0,0.0266667,11.542375,0)"/>
<path style="fill:none;stroke-width:1.5;stroke-linecap:round;stroke-linejoin:round;stroke:rgb(0%,0%,0%);stroke-opacity:1;stroke-miterlimit:4;" d="M 175.007212 116.015625 L 175.007212 162.890625 " transform="matrix(-0.026,0,0,0.0266667,11.542375,0)"/>
<path style="fill:none;stroke-width:1.5;stroke-linecap:round;stroke-linejoin:round;stroke:rgb(0%,0%,0%);stroke-opacity:1;stroke-miterlimit:4;" d="M 180.115385 116.455078 L 180.115385 163.330078 " transform="matrix(-0.026,0,0,0.0266667,11.542375,0)"/>
<path style="fill:none;stroke-width:1.5;stroke-linecap:round;stroke-linejoin:round;stroke:rgb(0%,0%,0%);stroke-opacity:1;stroke-miterlimit:4;" d="M 185.223558 116.894531 L 185.223558 163.769531 " transform="matrix(-0.026,0,0,0.0266667,11.542375,0)"/>
<path style="fill:none;stroke-width:1.5;stroke-linecap:round;stroke-linejoin:round;stroke:rgb(0%,0%,0%);stroke-opacity:1;stroke-miterlimit:4;" d="M 190.331731 119.824219 L 190.331731 166.699219 " transform="matrix(-0.026,0,0,0.0266667,11.542375,0)"/>
<path style="fill:none;stroke-width:1.5;stroke-linecap:round;stroke-linejoin:round;stroke:rgb(0%,0%,0%);stroke-opacity:1;stroke-miterlimit:4;" d="M 195.439904 120.263672 L 195.439904 173.144531 " transform="matrix(-0.026,0,0,0.0266667,11.542375,0)"/>
<path style="fill:none;stroke-width:1.5;stroke-linecap:round;stroke-linejoin:round;stroke:rgb(0%,0%,0%);stroke-opacity:1;stroke-miterlimit:4;" d="M 200.548077 120.263672 L 200.548077 167.285156 " transform="matrix(-0.026,0,0,0.0266667,11.542375,0)"/>
<path style="fill:none;stroke-width:1.5;stroke-linecap:round;stroke-linejoin:round;stroke:rgb(0%,0%,0%);stroke-opacity:1;stroke-miterlimit:4;" d="M 205.50601 120.263672 L 205.50601 167.285156 " transform="matrix(-0.026,0,0,0.0266667,11.542375,0)"/>
<path style="fill-rule:nonzero;fill:rgb(0%,0%,0%);fill-opacity:1;stroke-width:1.5;stroke-linecap:round;stroke-linejoin:round;stroke:rgb(0%,0%,0%);stroke-opacity:1;stroke-miterlimit:4;" d="M 176.359375 117.919922 C 187.176683 119.677734 210.764423 130.810547 208.060096 145.751953 C 204.304087 166.992188 191.834135 158.496094 175.457933 155.419922 L 163.138221 159.521484 C 158.63101 164.0625 152.020433 168.164062 147.663462 162.744141 L 140.301683 162.744141 L 140.301683 191.455078 L 221.731971 191.455078 L 221.731971 122.021484 Z M 176.359375 117.919922 " transform="matrix(-0.026,0,0,0.0266667,11.542375,0)"/>
<path style="fill-rule:nonzero;fill:rgb(100%,84.705882%,23.921569%);fill-opacity:1;stroke-width:2;stroke-linecap:round;stroke-linejoin:round;stroke:rgb(0%,0%,0%);stroke-opacity:1;stroke-miterlimit:4;" d="M 217.825721 112.939453 C 217.825721 115.722656 215.572115 117.919922 212.867788 117.919922 C 210.013221 117.919922 207.909856 115.722656 207.909856 112.939453 C 207.909856 110.302734 210.013221 108.105469 212.867788 108.105469 C 215.572115 108.105469 217.825721 110.302734 217.825721 112.939453 Z M 217.825721 112.939453 " transform="matrix(-0.026,0,0,0.0266667,11.542375,0)"/>
<path style="fill-rule:nonzero;fill:rgb(100%,84.705882%,23.921569%);fill-opacity:1;stroke-width:2;stroke-linecap:round;stroke-linejoin:round;stroke:rgb(0%,0%,0%);stroke-opacity:1;stroke-miterlimit:4;" d="M 206.707933 110.302734 C 206.707933 113.085938 204.454327 115.283203 201.75 115.283203 C 199.045673 115.283203 196.792067 113.085938 196.792067 110.302734 C 196.792067 107.519531 199.045673 105.322266 201.75 105.322266 C 204.454327 105.322266 206.707933 107.519531 206.707933 110.302734 Z M 206.707933 110.302734 " transform="matrix(-0.026,0,0,0.0266667,11.542375,0)"/>
<path style="fill-rule:nonzero;fill:rgb(100%,84.705882%,23.921569%);fill-opacity:1;stroke-width:2;stroke-linecap:round;stroke-linejoin:round;stroke:rgb(0%,0%,0%);stroke-opacity:1;stroke-miterlimit:4;" d="M 195.439904 107.519531 C 195.439904 110.15625 193.186298 112.353516 190.481971 112.353516 C 187.777644 112.353516 185.524038 110.15625 185.524038 107.519531 C 185.524038 104.736328 187.777644 102.539062 190.481971 102.539062 C 193.186298 102.539062 195.439904 104.736328 195.439904 107.519531 Z M 195.439904 107.519531 " transform="matrix(-0.026,0,0,0.0266667,11.542375,0)"/>
<path style="fill-rule:nonzero;fill:rgb(100%,84.705882%,23.921569%);fill-opacity:1;stroke-width:2;stroke-linecap:round;stroke-linejoin:round;stroke:rgb(0%,0%,0%);stroke-opacity:1;stroke-miterlimit:4;" d="M 184.021635 105.615234 C 184.021635 108.251953 181.918269 110.595703 179.213942 110.595703 C 176.359375 110.595703 174.25601 108.251953 174.25601 105.615234 C 174.25601 102.832031 176.359375 100.634766 179.213942 100.634766 C 181.918269 100.634766 184.021635 102.832031 184.021635 105.615234 Z M 184.021635 105.615234 " transform="matrix(-0.026,0,0,0.0266667,11.542375,0)"/>
<path style="fill-rule:nonzero;fill:rgb(100%,84.705882%,23.921569%);fill-opacity:1;stroke-width:2;stroke-linecap:round;stroke-linejoin:round;stroke:rgb(0%,0%,0%);stroke-opacity:1;stroke-miterlimit:4;" d="M 172.753606 104.443359 C 172.753606 107.226562 170.5 109.423828 167.795673 109.423828 C 165.091346 109.423828 162.83774 107.226562 162.83774 104.443359 C 162.83774 101.806641 165.091346 99.609375 167.795673 99.609375 C 170.5 99.609375 172.753606 101.806641 172.753606 104.443359 Z M 172.753606 104.443359 " transform="matrix(-0.026,0,0,0.0266667,11.542375,0)"/>
<path style="fill-rule:nonzero;fill:rgb(100%,84.705882%,23.921569%);fill-opacity:1;stroke-width:2;stroke-linecap:round;stroke-linejoin:round;stroke:rgb(0%,0%,0%);stroke-opacity:1;stroke-miterlimit:4;" d="M 161.635817 105.175781 C 161.635817 107.8125 159.532452 110.009766 156.677885 110.009766 C 153.973558 110.009766 151.870192 107.8125 151.870192 105.175781 C 151.870192 102.392578 153.973558 100.195312 156.677885 100.195312 C 159.532452 100.195312 161.635817 102.392578 161.635817 105.175781 Z M 161.635817 105.175781 " transform="matrix(-0.026,0,0,0.0266667,11.542375,0)"/>
<path style="fill-rule:nonzero;fill:rgb(100%,84.705882%,23.921569%);fill-opacity:1;stroke-width:2;stroke-linecap:round;stroke-linejoin:round;stroke:rgb(0%,0%,0%);stroke-opacity:1;stroke-miterlimit:4;" d="M 151.11899 108.691406 C 151.11899 111.474609 148.865385 113.671875 146.161058 113.671875 C 143.456731 113.671875 141.203125 111.474609 141.203125 108.691406 C 141.203125 106.054688 143.456731 103.857422 146.161058 103.857422 C 148.865385 103.857422 151.11899 106.054688 151.11899 108.691406 Z M 151.11899 108.691406 " transform="matrix(-0.026,0,0,0.0266667,11.542375,0)"/>
<path style="fill-rule:nonzero;fill:rgb(100%,84.705882%,23.921569%);fill-opacity:1;stroke-width:2;stroke-linecap:round;stroke-linejoin:round;stroke:rgb(0%,0%,0%);stroke-opacity:1;stroke-miterlimit:4;" d="M 142.254808 115.283203 C 142.254808 118.066406 140.001202 120.263672 137.296875 120.263672 C 134.592548 120.263672 132.338942 118.066406 132.338942 115.283203 C 132.338942 112.5 134.592548 110.302734 137.296875 110.302734 C 140.001202 110.302734 142.254808 112.5 142.254808 115.283203 Z M 142.254808 115.283203 " transform="matrix(-0.026,0,0,0.0266667,11.542375,0)"/>
<path style="fill-rule:nonzero;fill:rgb(100%,84.705882%,23.921569%);fill-opacity:1;stroke-width:2;stroke-linecap:round;stroke-linejoin:round;stroke:rgb(0%,0%,0%);stroke-opacity:1;stroke-miterlimit:4;" d="M 135.944712 124.365234 C 135.944712 127.148438 133.691106 129.345703 130.986779 129.345703 C 128.282452 129.345703 126.028846 127.148438 126.028846 124.365234 C 126.028846 121.728516 128.282452 119.53125 130.986779 119.53125 C 133.691106 119.53125 135.944712 121.728516 135.944712 124.365234 Z M 135.944712 124.365234 " transform="matrix(-0.026,0,0,0.0266667,11.542375,0)"/>
<path style="fill-rule:nonzero;fill:rgb(100%,84.705882%,23.921569%);fill-opacity:1;stroke-width:2;stroke-linecap:round;stroke-linejoin:round;stroke:rgb(0%,0%,0%);stroke-opacity:1;stroke-miterlimit:4;" d="M 132.789663 135.205078 C 132.789663 137.841797 130.686298 140.039062 127.981971 140.039062 C 125.127404 140.039062 123.024038 137.841797 123.024038 135.205078 C 123.024038 132.421875 125.127404 130.224609 127.981971 130.224609 C 130.686298 130.224609 132.789663 132.421875 132.789663 135.205078 Z M 132.789663 135.205078 " transform="matrix(-0.026,0,0,0.0266667,11.542375,0)"/>
<path style="fill-rule:nonzero;fill:rgb(100%,84.705882%,23.921569%);fill-opacity:1;stroke-width:2;stroke-linecap:round;stroke-linejoin:round;stroke:rgb(0%,0%,0%);stroke-opacity:1;stroke-miterlimit:4;" d="M 132.939904 146.337891 C 132.939904 148.974609 130.686298 151.171875 127.981971 151.171875 C 125.277644 151.171875 123.024038 148.974609 123.024038 146.337891 C 123.024038 143.554688 125.277644 141.357422 127.981971 141.357422 C 130.686298 141.357422 132.939904 143.554688 132.939904 146.337891 Z M 132.939904 146.337891 " transform="matrix(-0.026,0,0,0.0266667,11.542375,0)"/>
<path style="fill-rule:nonzero;fill:rgb(100%,84.705882%,23.921569%);fill-opacity:1;stroke-width:2;stroke-linecap:round;stroke-linejoin:round;stroke:rgb(0%,0%,0%);stroke-opacity:1;stroke-miterlimit:4;" d="M 135.043269 157.177734 C 135.043269 159.960938 132.939904 162.158203 130.085337 162.158203 C 127.38101 162.158203 125.277644 159.960938 125.277644 157.177734 C 125.277644 154.541016 127.38101 152.34375 130.085337 152.34375 C 132.939904 152.34375 135.043269 154.541016 135.043269 157.177734 Z M 135.043269 157.177734 " transform="matrix(-0.026,0,0,0.0266667,11.542375,0)"/>
<path style="fill-rule:nonzero;fill:rgb(100%,84.705882%,23.921569%);fill-opacity:1;stroke-width:2;stroke-linecap:round;stroke-linejoin:round;stroke:rgb(0%,0%,0%);stroke-opacity:1;stroke-miterlimit:4;" d="M 214.971154 119.53125 L 214.520433 125.976562 C 202.200721 124.072266 184.772837 117.1875 168.546875 117.1875 C 153.522837 117.1875 141.954327 123.193359 141.954327 138.427734 C 141.954327 153.222656 148.264423 166.845703 156.677885 180.615234 L 147.963942 184.716797 C 140.151442 169.628906 133.691106 156.738281 133.691106 139.306641 C 133.691106 124.658203 145.109375 110.302734 164.941106 110.302734 C 182.36899 110.302734 200.247596 116.308594 214.971154 119.53125 Z M 214.971154 119.53125 " transform="matrix(-0.026,0,0,0.0266667,11.542375,0)"/>
<path style="fill-rule:nonzero;fill:rgb(100%,84.705882%,23.921569%);fill-opacity:1;stroke-width:2;stroke-linecap:round;stroke-linejoin:round;stroke:rgb(0%,0%,0%);stroke-opacity:1;stroke-miterlimit:4;" d="M 221.905048 53.173828 L 216.796875 62.841797 L 221.905048 72.363281 L 227.163462 62.841797 Z M 221.905048 77.490234 L 216.796875 87.158203 L 221.905048 96.826172 L 227.163462 87.158203 Z M 221.905048 77.490234 " transform="matrix(0.026,0,0,0.0266667,0,0)"/>
<path style="fill-rule:nonzero;fill:rgb(100%,84.705882%,23.921569%);fill-opacity:1;stroke-width:2;stroke-linecap:round;stroke-linejoin:round;stroke:rgb(0%,0%,0%);stroke-opacity:1;stroke-miterlimit:4;" d="M 203.575721 75 L 211.688702 80.126953 L 219.801683 75 L 211.688702 69.726562 Z M 224.158654 75 L 232.271635 80.126953 L 240.384615 75 L 232.271635 69.726562 Z M 224.158654 75 " transform="matrix(0.026,0,0,0.0266667,0,0)"/>
<path style="fill-rule:nonzero;fill:rgb(100%,84.705882%,23.921569%);fill-opacity:1;stroke-width:2;stroke-linecap:round;stroke-linejoin:round;stroke:rgb(0%,0%,0%);stroke-opacity:1;stroke-miterlimit:4;" d="M 225.811298 75 C 225.811298 77.197266 224.158654 78.955078 221.905048 78.955078 C 219.801683 78.955078 217.998798 77.197266 217.998798 75 C 217.998798 72.949219 219.801683 71.191406 221.905048 71.191406 C 224.158654 71.191406 225.811298 72.949219 225.811298 75 Z M 225.811298 75 " transform="matrix(0.026,0,0,0.0266667,0,0)"/>
<path style="fill-rule:nonzero;fill:rgb(100%,84.705882%,23.921569%);fill-opacity:1;stroke-width:2;stroke-linecap:round;stroke-linejoin:round;stroke:rgb(0%,0%,0%);stroke-opacity:1;stroke-miterlimit:4;" d="M 232.421875 100.048828 C 232.421875 105.761719 227.764423 110.449219 221.905048 110.449219 C 216.195913 110.449219 211.538462 105.761719 211.538462 100.048828 C 211.538462 94.189453 216.195913 89.501953 221.905048 89.501953 C 227.764423 89.501953 232.421875 94.189453 232.421875 100.048828 Z M 232.421875 100.048828 " transform="matrix(0.026,0,0,0.0266667,0,0)"/>
<path style="fill:none;stroke-width:1.5;stroke-linecap:round;stroke-linejoin:round;stroke:rgb(0%,0%,0%);stroke-opacity:1;stroke-miterlimit:4;" d="M 219.350962 89.941406 C 219.350962 93.017578 219.350962 94.775391 219.350962 96.533203 C 216.796875 96.679688 214.242788 96.826172 211.838942 97.265625 M 232.121394 97.265625 C 229.567308 96.826172 227.163462 96.679688 224.609375 96.533203 C 224.609375 94.775391 224.609375 93.017578 224.609375 89.941406 M 211.838942 102.539062 C 215.144231 101.953125 218.449519 101.660156 221.905048 101.660156 C 225.360577 101.660156 228.816106 101.953125 232.121394 102.539062 " transform="matrix(0.026,0,0,0.0266667,0,0)"/>
<path style="fill-rule:nonzero;fill:rgb(100%,84.705882%,23.921569%);fill-opacity:1;stroke-width:2;stroke-linecap:round;stroke-linejoin:round;stroke:rgb(0%,0%,0%);stroke-opacity:1;stroke-miterlimit:4;" d="M 211.688702 117.626953 C 210.78726 134.765625 208.683894 152.197266 202.073317 164.794922 L 212.890625 160.400391 C 216.646635 146.044922 217.548077 127.587891 218.59976 118.798828 Z M 232.121394 117.626953 L 225.360577 118.798828 C 226.41226 127.587891 227.313702 146.044922 231.069712 160.400391 L 241.887019 164.794922 C 235.126202 152.197266 233.173077 134.765625 232.121394 117.626953 Z M 232.121394 117.626953 " transform="matrix(0.026,0,0,0.0266667,0,0)"/>
<path style="fill-rule:nonzero;fill:rgb(100%,84.705882%,23.921569%);fill-opacity:1;stroke-width:2;stroke-linecap:round;stroke-linejoin:round;stroke:rgb(0%,0%,0%);stroke-opacity:1;stroke-miterlimit:4;" d="M 221.905048 154.6875 C 208.984375 154.6875 199.519231 160.839844 198.918269 176.220703 C 195.763221 170.654297 182.542067 153.222656 170.072115 155.566406 C 162.560096 157.03125 156.09976 167.285156 157.151442 179.003906 C 150.991587 161.425781 133.112981 158.496094 119.891827 168.896484 C 131.610577 178.564453 136.71875 206.835938 146.634615 218.994141 L 297.325721 218.994141 C 307.091346 206.835938 312.34976 178.564453 323.918269 168.896484 C 310.847356 158.496094 292.96875 161.425781 286.808894 179.003906 C 287.860577 167.285156 281.25 157.03125 273.888221 155.566406 C 261.418269 153.222656 248.046875 170.654297 244.891827 176.220703 C 244.441106 160.839844 234.825721 154.6875 221.905048 154.6875 Z M 221.905048 154.6875 " transform="matrix(0.026,0,0,0.0266667,0,0)"/>
<path style="fill-rule:nonzero;fill:rgb(0%,0%,0%);fill-opacity:1;stroke-width:1.5;stroke-linecap:round;stroke-linejoin:round;stroke:rgb(0%,0%,0%);stroke-opacity:1;stroke-miterlimit:4;" d="M 297.175481 218.994141 C 297.175481 224.560547 263.371394 230.712891 221.905048 230.712891 C 180.438702 230.712891 146.784856 224.560547 146.784856 218.994141 C 146.784856 213.427734 180.438702 210.498047 221.905048 210.498047 C 263.371394 210.498047 297.175481 213.427734 297.175481 218.994141 Z M 297.175481 218.994141 " transform="matrix(0.026,0,0,0.0266667,0,0)"/>
<path style="fill-rule:nonzero;fill:rgb(100%,84.705882%,23.921569%);fill-opacity:1;stroke-width:1.5;stroke-linecap:round;stroke-linejoin:round;stroke:rgb(0%,0%,0%);stroke-opacity:1;stroke-miterlimit:4;" d="M 225.510817 114.404297 C 225.510817 116.308594 223.858173 117.919922 221.905048 117.919922 C 220.102163 117.919922 218.449519 116.308594 218.449519 114.404297 C 218.449519 112.5 220.102163 110.888672 221.905048 110.888672 C 223.858173 110.888672 225.510817 112.5 225.510817 114.404297 Z M 225.510817 114.404297 " transform="matrix(0.026,0,0,0.0266667,0,0)"/>
<path style="fill-rule:nonzero;fill:rgb(100%,84.705882%,23.921569%);fill-opacity:1;stroke-width:1.5;stroke-linecap:round;stroke-linejoin:round;stroke:rgb(0%,0%,0%);stroke-opacity:1;stroke-miterlimit:4;" d="M 225.661058 122.021484 C 225.661058 124.072266 224.008413 125.830078 221.905048 125.830078 C 219.951923 125.830078 218.299279 124.072266 218.299279 122.021484 C 218.299279 119.970703 219.951923 118.359375 221.905048 118.359375 C 224.008413 118.359375 225.661058 119.970703 225.661058 122.021484 Z M 225.661058 122.021484 " transform="matrix(0.026,0,0,0.0266667,0,0)"/>
<path style="fill-rule:nonzero;fill:rgb(100%,84.705882%,23.921569%);fill-opacity:1;stroke-width:1.5;stroke-linecap:round;stroke-linejoin:round;stroke:rgb(0%,0%,0%);stroke-opacity:1;stroke-miterlimit:4;" d="M 226.111779 130.224609 C 226.111779 132.421875 224.158654 134.326172 221.905048 134.326172 C 219.651442 134.326172 217.848558 132.421875 217.848558 130.224609 C 217.848558 127.880859 219.651442 126.123047 221.905048 126.123047 C 224.158654 126.123047 226.111779 127.880859 226.111779 130.224609 Z M 226.111779 130.224609 " transform="matrix(0.026,0,0,0.0266667,0,0)"/>
<path style="fill-rule:nonzero;fill:rgb(100%,84.705882%,23.921569%);fill-opacity:1;stroke-width:1.5;stroke-linecap:round;stroke-linejoin:round;stroke:rgb(0%,0%,0%);stroke-opacity:1;stroke-miterlimit:4;" d="M 226.5625 139.306641 C 226.5625 141.796875 224.609375 143.847656 221.905048 143.847656 C 219.350962 143.847656 217.247596 141.796875 217.247596 139.306641 C 217.247596 136.669922 219.350962 134.619141 221.905048 134.619141 C 224.609375 134.619141 226.5625 136.669922 226.5625 139.306641 Z M 226.5625 139.306641 " transform="matrix(0.026,0,0,0.0266667,0,0)"/>
<path style="fill-rule:nonzero;fill:rgb(100%,84.705882%,23.921569%);fill-opacity:1;stroke-width:1.5;stroke-linecap:round;stroke-linejoin:round;stroke:rgb(0%,0%,0%);stroke-opacity:1;stroke-miterlimit:4;" d="M 227.013221 149.414062 C 227.013221 152.197266 224.759615 154.541016 221.905048 154.541016 C 219.200721 154.541016 216.796875 152.197266 216.796875 149.414062 C 216.796875 146.484375 219.200721 144.287109 221.905048 144.287109 C 224.759615 144.287109 227.013221 146.484375 227.013221 149.414062 Z M 227.013221 149.414062 " transform="matrix(0.026,0,0,0.0266667,0,0)"/>
<path style=" stroke:none;fill-rule:nonzero;fill:rgb(0%,0%,0%);fill-opacity:1;" d="M 5.71875 4.246094 C 5.703125 4.246094 5.691406 4.257812 5.695312 4.28125 C 5.699219 4.308594 5.703125 4.359375 5.707031 4.394531 C 5.714844 4.4375 5.738281 4.425781 5.742188 4.394531 C 5.75 4.363281 5.746094 4.34375 5.746094 4.289062 C 5.75 4.257812 5.734375 4.246094 5.71875 4.246094 Z M 5.824219 4.246094 C 5.808594 4.246094 5.792969 4.257812 5.792969 4.289062 C 5.796875 4.34375 5.792969 4.363281 5.800781 4.394531 C 5.804688 4.425781 5.828125 4.4375 5.832031 4.394531 C 5.839844 4.359375 5.84375 4.308594 5.847656 4.28125 C 5.851562 4.257812 5.839844 4.246094 5.824219 4.246094 Z M 5.625 4.261719 C 5.609375 4.261719 5.597656 4.277344 5.597656 4.289062 C 5.597656 4.316406 5.605469 4.347656 5.609375 4.390625 C 5.613281 4.429688 5.640625 4.414062 5.644531 4.390625 C 5.648438 4.367188 5.648438 4.332031 5.648438 4.285156 C 5.644531 4.269531 5.636719 4.261719 5.628906 4.261719 C 5.628906 4.261719 5.625 4.261719 5.625 4.261719 Z M 5.914062 4.261719 C 5.902344 4.261719 5.898438 4.269531 5.894531 4.285156 C 5.894531 4.332031 5.894531 4.367188 5.898438 4.390625 C 5.902344 4.414062 5.929688 4.429688 5.933594 4.390625 C 5.9375 4.347656 5.941406 4.316406 5.945312 4.289062 C 5.945312 4.277344 5.929688 4.261719 5.917969 4.261719 C 5.917969 4.261719 5.914062 4.261719 5.914062 4.261719 Z M 5.511719 4.308594 C 5.5 4.308594 5.488281 4.324219 5.492188 4.34375 C 5.5 4.375 5.503906 4.414062 5.503906 4.449219 C 5.503906 4.476562 5.53125 4.46875 5.53125 4.445312 C 5.53125 4.425781 5.535156 4.382812 5.535156 4.34375 C 5.535156 4.3125 5.523438 4.304688 5.511719 4.308594 Z M 6.023438 4.308594 C 6.015625 4.308594 6.007812 4.320312 6.007812 4.34375 C 6.007812 4.382812 6.007812 4.425781 6.011719 4.445312 C 6.011719 4.46875 6.035156 4.476562 6.035156 4.449219 C 6.035156 4.414062 6.042969 4.375 6.050781 4.34375 C 6.054688 4.324219 6.042969 4.308594 6.03125 4.308594 C 6.027344 4.304688 6.027344 4.304688 6.023438 4.308594 Z M 4.488281 4.3125 C 4.472656 4.3125 4.460938 4.332031 4.472656 4.351562 C 4.488281 4.390625 4.503906 4.410156 4.519531 4.449219 C 4.535156 4.484375 4.558594 4.460938 4.550781 4.4375 C 4.542969 4.414062 4.535156 4.386719 4.511719 4.339844 C 4.503906 4.320312 4.496094 4.3125 4.488281 4.3125 Z M 7.054688 4.3125 C 7.046875 4.3125 7.035156 4.320312 7.027344 4.339844 C 7.007812 4.386719 7 4.414062 6.992188 4.4375 C 6.984375 4.460938 7.007812 4.484375 7.023438 4.449219 C 7.039062 4.410156 7.054688 4.390625 7.070312 4.351562 C 7.082031 4.332031 7.070312 4.3125 7.054688 4.3125 Z M 4.589844 4.3125 C 4.578125 4.316406 4.574219 4.332031 4.578125 4.347656 C 4.59375 4.378906 4.613281 4.414062 4.625 4.449219 C 4.636719 4.476562 4.660156 4.46875 4.652344 4.441406 C 4.644531 4.414062 4.640625 4.398438 4.625 4.34375 C 4.617188 4.316406 4.601562 4.308594 4.589844 4.3125 Z M 6.945312 4.3125 C 6.933594 4.316406 6.925781 4.324219 6.917969 4.34375 C 6.898438 4.398438 6.898438 4.414062 6.890625 4.441406 C 6.878906 4.46875 6.90625 4.476562 6.917969 4.449219 C 6.929688 4.414062 6.949219 4.378906 6.960938 4.347656 C 6.96875 4.332031 6.960938 4.316406 6.953125 4.3125 C 6.949219 4.3125 6.945312 4.3125 6.945312 4.3125 Z M 4.71875 4.339844 C 4.707031 4.34375 4.695312 4.363281 4.707031 4.386719 C 4.71875 4.421875 4.734375 4.453125 4.75 4.488281 C 4.761719 4.523438 4.785156 4.519531 4.78125 4.496094 C 4.773438 4.46875 4.769531 4.429688 4.75 4.371094 C 4.742188 4.347656 4.730469 4.335938 4.71875 4.339844 Z M 6.820312 4.339844 C 6.8125 4.335938 6.800781 4.347656 6.792969 4.371094 C 6.773438 4.429688 6.765625 4.46875 6.761719 4.496094 C 6.757812 4.519531 6.78125 4.523438 6.792969 4.488281 C 6.808594 4.453125 6.824219 4.421875 6.835938 4.386719 C 6.84375 4.363281 6.835938 4.34375 6.820312 4.339844 Z M 4.398438 4.359375 C 4.382812 4.359375 4.371094 4.382812 4.378906 4.402344 C 4.394531 4.429688 4.402344 4.441406 4.417969 4.472656 C 4.433594 4.503906 4.449219 4.480469 4.441406 4.460938 C 4.4375 4.4375 4.429688 4.414062 4.421875 4.386719 C 4.417969 4.363281 4.40625 4.355469 4.398438 4.359375 Z M 7.144531 4.359375 C 7.136719 4.355469 7.125 4.363281 7.121094 4.386719 C 7.113281 4.414062 7.105469 4.4375 7.101562 4.460938 C 7.09375 4.480469 7.109375 4.503906 7.125 4.472656 C 7.140625 4.441406 7.148438 4.429688 7.164062 4.402344 C 7.171875 4.382812 7.15625 4.359375 7.144531 4.359375 Z M 5.402344 4.433594 C 5.386719 4.433594 5.371094 4.453125 5.375 4.472656 C 5.382812 4.503906 5.398438 4.53125 5.40625 4.570312 C 5.414062 4.605469 5.441406 4.589844 5.4375 4.566406 C 5.4375 4.542969 5.433594 4.507812 5.421875 4.457031 C 5.417969 4.441406 5.410156 4.433594 5.402344 4.433594 Z M 6.140625 4.433594 C 6.132812 4.433594 6.125 4.441406 6.121094 4.457031 C 6.109375 4.507812 6.105469 4.542969 6.105469 4.566406 C 6.101562 4.589844 6.128906 4.605469 6.136719 4.570312 C 6.144531 4.53125 6.160156 4.503906 6.167969 4.472656 C 6.171875 4.453125 6.15625 4.433594 6.140625 4.433594 Z M 5.769531 4.464844 C 5.753906 4.464844 5.75 4.488281 5.75 4.511719 C 5.746094 4.578125 5.71875 4.644531 5.695312 4.679688 C 5.671875 4.710938 5.636719 4.703125 5.605469 4.683594 C 5.574219 4.667969 5.554688 4.65625 5.519531 4.628906 C 5.484375 4.601562 5.457031 4.617188 5.5 4.675781 C 5.617188 4.851562 5.75 5.003906 5.75 5.289062 C 5.75 5.324219 5.753906 5.335938 5.769531 5.335938 C 5.785156 5.335938 5.792969 5.324219 5.792969 5.289062 C 5.792969 5.003906 5.921875 4.851562 6.042969 4.675781 C 6.085938 4.617188 6.058594 4.601562 6.023438 4.628906 C 5.988281 4.65625 5.96875 4.667969 5.9375 4.683594 C 5.90625 4.703125 5.871094 4.710938 5.847656 4.679688 C 5.824219 4.644531 5.796875 4.578125 5.792969 4.511719 C 5.792969 4.488281 5.789062 4.464844 5.769531 4.464844 Z M 4.855469 4.421875 C 4.851562 4.421875 4.851562 4.421875 4.847656 4.421875 C 4.84375 4.425781 4.835938 4.433594 4.839844 4.449219 C 4.84375 4.472656 4.863281 4.527344 4.871094 4.550781 C 4.878906 4.578125 4.90625 4.570312 4.898438 4.539062 C 4.894531 4.503906 4.894531 4.492188 4.882812 4.453125 C 4.878906 4.433594 4.867188 4.421875 4.855469 4.421875 Z M 6.6875 4.421875 C 6.675781 4.421875 6.664062 4.433594 6.65625 4.453125 C 6.648438 4.492188 6.648438 4.503906 6.640625 4.539062 C 6.636719 4.570312 6.664062 4.578125 6.671875 4.550781 C 6.679688 4.527344 6.699219 4.472656 6.703125 4.449219 C 6.703125 4.433594 6.699219 4.425781 6.695312 4.421875 C 6.691406 4.421875 6.691406 4.421875 6.6875 4.421875 Z M 4.308594 4.433594 C 4.292969 4.433594 4.28125 4.453125 4.296875 4.480469 C 4.316406 4.511719 4.34375 4.550781 4.355469 4.574219 C 4.367188 4.59375 4.390625 4.578125 4.375 4.550781 C 4.359375 4.523438 4.355469 4.492188 4.335938 4.453125 C 4.328125 4.4375 4.316406 4.429688 4.308594 4.433594 Z M 7.234375 4.433594 C 7.226562 4.429688 7.214844 4.4375 7.207031 4.453125 C 7.1875 4.492188 7.183594 4.523438 7.167969 4.550781 C 7.152344 4.578125 7.171875 4.59375 7.1875 4.574219 C 7.199219 4.550781 7.226562 4.511719 7.246094 4.480469 C 7.257812 4.453125 7.25 4.433594 7.234375 4.433594 Z M 3.484375 4.519531 C 3.46875 4.519531 3.460938 4.550781 3.476562 4.574219 C 3.503906 4.605469 3.519531 4.621094 3.546875 4.644531 C 3.566406 4.664062 3.574219 4.640625 3.5625 4.621094 C 3.550781 4.601562 3.535156 4.578125 3.515625 4.546875 C 3.503906 4.527344 3.492188 4.519531 3.484375 4.519531 Z M 8.058594 4.519531 C 8.050781 4.519531 8.039062 4.527344 8.027344 4.546875 C 8.007812 4.578125 7.992188 4.601562 7.980469 4.621094 C 7.96875 4.640625 7.976562 4.664062 7.996094 4.644531 C 8.023438 4.621094 8.039062 4.605469 8.0625 4.574219 C 8.082031 4.550781 8.074219 4.519531 8.058594 4.519531 Z M 3.617188 4.546875 C 3.601562 4.546875 3.59375 4.558594 3.601562 4.582031 C 3.617188 4.617188 3.640625 4.65625 3.652344 4.683594 C 3.664062 4.710938 3.703125 4.71875 3.6875 4.675781 C 3.671875 4.636719 3.667969 4.613281 3.65625 4.578125 C 3.648438 4.558594 3.628906 4.546875 3.617188 4.546875 Z M 7.925781 4.546875 C 7.914062 4.546875 7.894531 4.558594 7.886719 4.578125 C 7.871094 4.613281 7.871094 4.636719 7.855469 4.675781 C 7.835938 4.71875 7.878906 4.710938 7.890625 4.683594 C 7.902344 4.65625 7.921875 4.617188 7.9375 4.582031 C 7.949219 4.558594 7.941406 4.546875 7.925781 4.546875 Z M 3.363281 4.554688 C 3.34375 4.554688 3.339844 4.578125 3.359375 4.589844 C 3.382812 4.609375 3.410156 4.628906 3.4375 4.652344 C 3.46875 4.675781 3.484375 4.652344 3.464844 4.628906 C 3.449219 4.609375 3.429688 4.585938 3.386719 4.5625 C 3.378906 4.558594 3.367188 4.554688 3.363281 4.554688 Z M 8.179688 4.554688 C 8.171875 4.554688 8.164062 4.558594 8.152344 4.5625 C 8.109375 4.585938 8.09375 4.609375 8.078125 4.628906 C 8.058594 4.652344 8.074219 4.675781 8.105469 4.652344 C 8.132812 4.628906 8.160156 4.609375 8.183594 4.589844 C 8.203125 4.578125 8.199219 4.554688 8.179688 4.554688 Z M 5.328125 4.574219 C 5.316406 4.578125 5.308594 4.589844 5.3125 4.605469 C 5.320312 4.636719 5.332031 4.671875 5.335938 4.703125 C 5.34375 4.734375 5.378906 4.734375 5.371094 4.707031 C 5.367188 4.679688 5.363281 4.644531 5.355469 4.601562 C 5.351562 4.585938 5.34375 4.578125 5.335938 4.574219 C 5.332031 4.574219 5.332031 4.574219 5.328125 4.574219 Z M 6.207031 4.574219 C 6.199219 4.578125 6.191406 4.585938 6.1875 4.601562 C 6.179688 4.644531 6.175781 4.679688 6.171875 4.707031 C 6.164062 4.734375 6.199219 4.734375 6.203125 4.703125 C 6.210938 4.671875 6.222656 4.636719 6.230469 4.605469 C 6.234375 4.589844 6.222656 4.578125 6.214844 4.574219 C 6.210938 4.574219 6.210938 4.574219 6.207031 4.574219 Z M 4.546875 4.523438 C 4.539062 4.523438 4.53125 4.542969 4.539062 4.566406 C 4.574219 4.703125 4.585938 4.773438 4.582031 4.804688 C 4.574219 4.839844 4.558594 4.84375 4.53125 4.832031 C 4.507812 4.820312 4.480469 4.804688 4.460938 4.789062 C 4.4375 4.773438 4.414062 4.792969 4.445312 4.820312 C 4.605469 4.953125 4.714844 5.105469 4.753906 5.289062 C 4.765625 5.324219 4.789062 5.328125 4.78125 5.289062 C 4.746094 5.054688 4.738281 4.867188 4.792969 4.746094 C 4.8125 4.699219 4.792969 4.65625 4.757812 4.730469 C 4.738281 4.78125 4.703125 4.796875 4.675781 4.757812 C 4.648438 4.714844 4.589844 4.601562 4.570312 4.550781 C 4.566406 4.53125 4.558594 4.523438 4.550781 4.523438 C 4.550781 4.523438 4.546875 4.523438 4.546875 4.523438 Z M 6.992188 4.523438 C 6.984375 4.523438 6.976562 4.53125 6.96875 4.550781 C 6.953125 4.601562 6.894531 4.714844 6.867188 4.757812 C 6.839844 4.796875 6.804688 4.78125 6.78125 4.730469 C 6.75 4.65625 6.730469 4.699219 6.75 4.746094 C 6.804688 4.867188 6.796875 5.054688 6.761719 5.289062 C 6.753906 5.328125 6.777344 5.324219 6.785156 5.289062 C 6.828125 5.105469 6.9375 4.953125 7.09375 4.820312 C 7.125 4.792969 7.105469 4.773438 7.082031 4.789062 C 7.0625 4.804688 7.03125 4.820312 7.007812 4.832031 C 6.984375 4.84375 6.96875 4.839844 6.960938 4.804688 C 6.953125 4.773438 6.964844 4.703125 7.003906 4.566406 C 7.007812 4.542969 7.003906 4.523438 6.996094 4.523438 C 6.996094 4.523438 6.992188 4.523438 6.992188 4.523438 Z M 3.753906 4.585938 C 3.742188 4.585938 3.730469 4.597656 3.734375 4.621094 C 3.746094 4.65625 3.769531 4.695312 3.773438 4.714844 C 3.78125 4.738281 3.804688 4.726562 3.800781 4.695312 C 3.796875 4.664062 3.792969 4.648438 3.789062 4.613281 C 3.785156 4.597656 3.769531 4.585938 3.753906 4.585938 Z M 7.785156 4.585938 C 7.773438 4.585938 7.757812 4.597656 7.753906 4.613281 C 7.746094 4.648438 7.746094 4.664062 7.742188 4.695312 C 7.738281 4.726562 7.761719 4.738281 7.765625 4.714844 C 7.773438 4.695312 7.796875 4.65625 7.804688 4.621094 C 7.8125 4.597656 7.800781 4.585938 7.785156 4.585938 Z M 4.242188 4.539062 C 4.226562 4.539062 4.226562 4.582031 4.238281 4.597656 C 4.257812 4.621094 4.285156 4.652344 4.308594 4.683594 C 4.332031 4.710938 4.34375 4.6875 4.332031 4.664062 C 4.320312 4.640625 4.300781 4.617188 4.265625 4.5625 C 4.257812 4.546875 4.25 4.542969 4.242188 4.539062 Z M 7.296875 4.539062 C 7.292969 4.542969 7.285156 4.546875 7.277344 4.5625 C 7.242188 4.617188 7.222656 4.640625 7.210938 4.664062 C 7.199219 4.6875 7.210938 4.710938 7.234375 4.683594 C 7.257812 4.652344 7.285156 4.621094 7.304688 4.597656 C 7.316406 4.582031 7.316406 4.539062 7.296875 4.539062 Z M 3.867188 4.644531 C 3.855469 4.644531 3.847656 4.652344 3.851562 4.675781 C 3.859375 4.707031 3.867188 4.730469 3.875 4.757812 C 3.882812 4.785156 3.898438 4.78125 3.898438 4.753906 C 3.898438 4.726562 3.894531 4.699219 3.890625 4.671875 C 3.890625 4.65625 3.875 4.648438 3.867188 4.644531 Z M 7.675781 4.644531 C 7.664062 4.648438 7.652344 4.65625 7.652344 4.671875 C 7.648438 4.699219 7.640625 4.726562 7.640625 4.753906 C 7.640625 4.78125 7.660156 4.785156 7.667969 4.757812 C 7.675781 4.730469 7.683594 4.707031 7.691406 4.675781 C 7.695312 4.652344 7.6875 4.644531 7.675781 4.644531 Z M 4.207031 4.683594 C 4.191406 4.6875 4.175781 4.703125 4.195312 4.726562 C 4.226562 4.765625 4.257812 4.796875 4.269531 4.808594 C 4.28125 4.824219 4.3125 4.820312 4.292969 4.789062 C 4.273438 4.757812 4.246094 4.71875 4.230469 4.695312 C 4.226562 4.6875 4.214844 4.683594 4.207031 4.683594 Z M 7.328125 4.683594 C 7.320312 4.683594 7.316406 4.6875 7.3125 4.695312 C 7.296875 4.71875 7.269531 4.757812 7.25 4.789062 C 7.230469 4.820312 7.261719 4.824219 7.273438 4.808594 C 7.285156 4.796875 7.316406 4.765625 7.347656 4.726562 C 7.367188 4.703125 7.351562 4.6875 7.335938 4.683594 C 7.332031 4.683594 7.332031 4.683594 7.328125 4.683594 Z M 3.671875 4.796875 C 3.65625 4.792969 3.652344 4.804688 3.671875 4.828125 C 3.707031 4.882812 3.75 4.964844 3.753906 5 C 3.757812 5.035156 3.742188 5.035156 3.722656 5.035156 C 3.675781 5.035156 3.652344 5 3.609375 4.992188 C 3.566406 4.980469 3.5625 5.003906 3.59375 5.027344 C 3.75 5.144531 3.910156 5.277344 3.972656 5.394531 C 4 5.445312 4.03125 5.460938 4.015625 5.414062 C 3.953125 5.273438 3.941406 5.152344 3.953125 5.078125 C 3.964844 5.007812 3.984375 4.957031 3.980469 4.914062 C 3.980469 4.875 3.957031 4.875 3.945312 4.914062 C 3.941406 4.941406 3.925781 4.976562 3.917969 4.992188 C 3.910156 5.003906 3.875 5.011719 3.84375 4.964844 C 3.808594 4.917969 3.726562 4.832031 3.699219 4.808594 C 3.6875 4.800781 3.675781 4.796875 3.671875 4.796875 Z M 7.871094 4.796875 C 7.863281 4.796875 7.855469 4.800781 7.84375 4.808594 C 7.816406 4.832031 7.734375 4.917969 7.699219 4.964844 C 7.667969 5.011719 7.632812 5.003906 7.625 4.992188 C 7.613281 4.976562 7.601562 4.941406 7.597656 4.914062 C 7.585938 4.875 7.5625 4.875 7.5625 4.914062 C 7.558594 4.957031 7.578125 5.007812 7.589844 5.078125 C 7.601562 5.152344 7.589844 5.273438 7.527344 5.414062 C 7.507812 5.460938 7.542969 5.445312 7.570312 5.394531 C 7.632812 5.277344 7.792969 5.144531 7.949219 5.027344 C 7.980469 5.003906 7.976562 4.980469 7.929688 4.992188 C 7.886719 5 7.867188 5.035156 7.816406 5.035156 C 7.800781 5.035156 7.785156 5.035156 7.789062 5 C 7.789062 4.964844 7.832031 4.882812 7.871094 4.828125 C 7.890625 4.804688 7.886719 4.792969 7.871094 4.796875 Z M 7.871094 4.796875 "/>
<path style="fill-rule:nonzero;fill:rgb(100%,84.705882%,23.921569%);fill-opacity:1;stroke-width:1.5;stroke-linecap:round;stroke-linejoin:round;stroke:rgb(0%,0%,0%);stroke-opacity:1;stroke-miterlimit:4;" d="M 150.090144 212.695312 L 152.043269 218.847656 M 154.146635 211.523438 L 155.799279 217.675781 M 158.503606 210.791016 L 159.705529 217.089844 M 162.560096 209.912109 L 163.762019 216.357422 M 167.668269 209.472656 L 168.719952 215.917969 M 173.076923 209.472656 L 174.278846 215.771484 M 178.485577 207.714844 L 179.236779 214.013672 M 183.59375 208.007812 L 184.344952 214.453125 M 188.401442 207.275391 L 189.152644 213.720703 M 193.359375 206.835938 L 193.659856 213.28125 M 198.467548 206.835938 L 198.918269 213.28125 M 203.27524 206.542969 L 203.575721 212.988281 M 208.533654 206.103516 L 208.683894 212.695312 M 214.543269 205.957031 L 214.69351 212.402344 M 293.870192 212.695312 L 291.917067 218.847656 M 289.813702 211.523438 L 288.010817 217.675781 M 285.456731 210.791016 L 284.254808 217.089844 M 281.40024 209.912109 L 280.198317 216.357422 M 276.292067 209.472656 L 275.240385 215.917969 M 270.733173 209.472656 L 269.68149 215.771484 M 265.47476 207.714844 L 264.723558 214.013672 M 260.366587 208.007812 L 259.615385 214.453125 M 255.558894 207.275391 L 254.807692 213.720703 M 250.600962 206.835938 L 250.15024 213.28125 M 245.492788 206.835938 L 245.042067 213.28125 M 240.685096 206.542969 L 240.384615 212.988281 M 235.426683 206.103516 L 235.126202 212.695312 M 229.417067 205.957031 L 229.116587 212.402344 M 221.905048 205.517578 L 221.905048 212.695312 " transform="matrix(0.026,0,0,0.0266667,0,0)"/>
</g>
</svg>
