<?xml version="1.0" encoding="UTF-8"?>
<svg xmlns="http://www.w3.org/2000/svg" xmlns:xlink="http://www.w3.org/1999/xlink" width="24px" height="16px" viewBox="0 0 32 16" version="1.1">
<g id="surface1">
<rect x="0" y="0" width="32" height="16" style="fill:rgb(100%,74.509804%,16.078431%);fill-opacity:1;stroke:none;"/>
<path style=" stroke:none;fill-rule:nonzero;fill:rgb(92.156863%,45.490196%,0%);fill-opacity:1;" d="M 1.492188 1.492188 L 9.8125 1.492188 L 9.8125 14.507812 L 1.492188 14.507812 Z M 1.492188 1.492188 "/>
<path style=" stroke:none;fill-rule:nonzero;fill:rgb(0%,32.54902%,30.588235%);fill-opacity:1;" d="M 1.492188 1.492188 L 5.652344 1.492188 L 5.652344 14.507812 L 1.492188 14.507812 Z M 1.492188 1.492188 "/>
<path style=" stroke:none;fill-rule:nonzero;fill:rgb(55.294118%,8.235294%,22.745098%);fill-opacity:1;" d="M 11.308594 1.492188 L 30.507812 1.492188 L 30.507812 14.507812 L 11.308594 14.507812 Z M 11.308594 1.492188 "/>
<path style="fill-rule:nonzero;fill:rgb(100%,74.509804%,16.078431%);fill-opacity:1;stroke-width:2.096;stroke-linecap:butt;stroke-linejoin:miter;stroke:rgb(0%,0%,0%);stroke-opacity:1;stroke-miterlimit:4;" d="M 502.294922 449.267578 C 502.294922 449.267578 495.703125 463.037109 488.378906 468.603516 C 477.539062 476.953125 455.273438 476.367188 445.898438 486.181641 C 434.472656 497.607422 446.777344 512.695312 446.630859 514.013672 L 446.044922 522.070312 C 446.044922 522.070312 453.662109 522.216797 456.884766 522.65625 C 461.572266 523.535156 463.476562 527.490234 472.558594 526.904297 C 495.117188 525.439453 494.238281 504.492188 495.410156 486.767578 C 496.582031 479.882812 499.21875 471.09375 500.683594 464.355469 C 502.001953 458.496094 502.294922 449.267578 502.294922 449.267578 Z M 502.294922 449.267578 " transform="matrix(0.0266667,0,0,0.0266667,0,0)"/>
<path style="fill-rule:nonzero;fill:rgb(100%,74.509804%,16.078431%);fill-opacity:1;stroke-width:5.56;stroke-linecap:butt;stroke-linejoin:miter;stroke:rgb(0%,0%,0%);stroke-opacity:1;stroke-miterlimit:4;" d="M 681.560766 479.614146 L 685.912315 477.024507 L 687.737158 479.614146 C 690.263864 482.923129 697.14212 482.923129 701.634041 479.470277 L 705.143355 476.880638 L 708.091179 479.470277 C 711.881238 482.923129 719.040238 482.923129 723.672532 479.470277 C 726.901101 477.168376 727.322219 477.024507 729.427807 478.894802 C 730.69116 479.901884 734.481219 481.196703 737.709788 481.62831 C 743.605435 482.347654 743.605435 482.347654 747.114749 477.168376 C 749.9222 472.852311 750.48369 471.125885 749.781827 466.953688 C 749.36071 464.076311 748.799219 459.616377 748.658847 457.026738 C 748.378102 452.135198 748.378102 452.135198 755.537102 449.545559 C 759.467534 448.250739 763.959455 446.380444 765.643926 445.517231 C 768.451377 444.078543 776.171868 434.870937 776.171868 433.000642 C 776.171868 432.569036 773.224044 431.849691 769.433985 431.418085 C 754.694867 429.691659 752.168161 421.778873 761.713494 406.960382 C 777.43522 382.790417 786.980554 359.339796 786.980554 344.377437 C 787.120927 337.615601 787.401672 335.457569 788.243907 336.896257 C 791.753221 342.79488 785.576829 367.828058 776.031495 385.667794 L 772.101063 392.861236 L 775.75075 391.998023 C 777.856338 391.566416 789.647633 386.531007 802.14079 380.920122 C 836.251321 365.526156 847.902243 362.504911 870.081106 363.368124 C 888.610283 364.231337 896.471146 367.828058 909.525794 381.495598 C 916.404049 388.68904 923.001559 393.868318 935.213971 401.493366 C 961.182894 417.750545 962.305874 419.189233 963.569227 438.323789 C 964.83258 457.746082 964.130717 458.753164 949.531972 462.062148 C 937.038814 464.795656 929.177951 470.550409 927.072363 478.750933 C 925.949383 483.066998 928.335716 483.210867 934.652481 479.18254 L 939.284775 476.161294 L 941.249991 479.18254 C 944.057442 483.066998 949.812717 483.066998 954.585384 479.18254 L 958.094697 476.161294 L 961.744384 479.18254 C 967.499659 483.786342 975.220149 482.635392 977.325737 476.880638 C 977.746855 475.729687 978.869835 476.161294 981.115796 478.031589 C 985.1866 481.772179 995.995287 483.354736 997.118268 480.477359 C 997.539385 479.326408 996.69715 476.5929 995.293424 474.434868 C 988.976659 465.083393 987.011444 460.623459 987.011444 455.58805 C 986.871071 448.394608 988.976659 445.085625 997.118268 439.187002 C 1006.803974 432.281298 1009.89217 423.217561 1002.452425 423.217561 C 997.82013 423.217561 993.187836 419.189233 990.240012 412.571267 C 984.203993 399.047596 985.467346 383.941368 994.451189 358.90819 C 1003.575405 333.443405 1004.558013 328.695733 1004.698385 311.575342 C 1004.698385 297.763933 1004.277268 295.462032 1001.189072 287.836983 C 999.223856 283.23318 995.433797 276.327476 992.485973 272.586886 L 987.432561 265.681182 L 994.030071 260.214166 C 1014.243719 243.381512 1010.032542 216.046432 985.748091 205.400138 C 978.308345 202.235024 976.483502 201.947286 963.288482 201.947286 C 955.567992 202.091155 943.636324 203.098237 936.758069 204.249187 C 929.879814 205.544007 918.228892 206.551089 910.227657 206.551089 C 897.453754 206.551089 895.348166 206.263351 890.435126 203.673712 C 885.381715 200.940204 884.399107 199.645384 883.416499 193.315155 C 883.276126 192.020336 882.293518 190.869385 881.451283 190.581648 C 879.766812 190.006172 871.625204 196.911876 870.502224 200.076991 C 869.940734 201.515679 869.379243 201.37181 867.694773 199.357647 C 866.571792 198.062827 865.027694 194.897713 864.185459 192.595811 C 862.079871 186.409451 864.606577 181.805648 871.765577 178.352796 L 877.380479 175.619288 L 874.15191 173.605124 C 867.273655 169.432928 855.763106 172.310305 851.551929 179.216009 C 850.428949 181.230173 849.025223 182.81273 848.744478 182.81273 C 848.32336 182.81273 846.077399 180.942435 843.691066 178.640534 C 834.847595 170.008403 837.935791 157.347946 849.727086 153.463487 C 855.903478 151.449323 861.51838 153.03188 862.641361 157.204077 C 864.466204 163.534306 869.940734 155.189913 868.958126 147.564865 C 868.256263 142.529455 868.396635 142.385586 871.905949 142.385586 C 876.678616 142.385586 887.066185 148.715815 890.154381 153.751225 C 893.94444 159.505978 893.663695 168.569715 889.592891 175.331551 L 886.364322 180.654698 L 890.575499 179.791485 C 896.611519 178.496665 902.647539 174.756075 905.735735 170.008403 C 908.823931 165.116863 909.245049 155.62152 906.437598 150.58611 C 903.630147 145.550701 903.910892 144.687488 907.981696 146.413914 C 914.859951 149.291291 918.65001 152.456405 921.317088 157.923421 C 923.843794 162.671093 923.984167 163.965912 922.580441 169.001322 C 921.738206 172.166436 919.913363 176.338632 918.509637 178.208927 C 916.263676 181.086304 916.263676 181.661779 917.948147 181.661779 C 921.317088 181.661779 928.195343 178.496665 930.581677 175.907026 C 931.84503 174.612206 933.669873 171.303223 934.652481 168.713584 L 936.477324 163.822043 L 938.44254 167.562633 C 941.249991 172.741911 946.864893 177.345714 953.602776 180.36696 C 960.902149 183.388206 963.990345 183.675943 960.200286 180.654698 C 957.533207 178.640534 952.900913 164.829125 954.304639 163.390437 C 955.146874 162.671093 964.972953 170.296141 976.34313 180.36696 C 987.011444 190.006172 993.749326 193.171287 1003.575405 193.171287 C 1016.068562 193.171287 1023.367935 182.237255 1017.753033 171.878698 C 1014.524464 165.836207 1007.225091 165.116863 1002.873542 170.152272 C 1000.908326 172.598043 1000.346836 174.468337 1000.908326 176.914108 C 1001.610189 179.935353 1001.329444 180.36696 998.662366 180.36696 C 995.012679 180.36696 987.713306 175.763157 975.079777 165.116863 C 955.567992 148.859684 931.84503 135.048275 914.859951 130.012866 C 903.770519 126.847752 880.468675 125.552932 869.238871 127.567096 C 857.166831 129.725128 842.989203 136.630833 835.12834 144.112012 C 821.37183 157.204077 821.231457 174.612206 834.56685 190.437779 L 838.497281 195.041582 L 835.830203 199.069909 C 832.040144 204.968531 832.320889 212.881318 836.672438 218.636071 C 838.497281 221.22571 840.462497 223.383743 840.883615 223.383743 C 841.304733 223.383743 841.72585 221.657317 841.866223 219.643153 C 842.28734 214.607744 844.533301 211.154892 848.182988 209.860072 C 851.551929 208.565252 853.79789 209.140728 869.238871 215.327088 C 885.522087 221.801186 912.333245 222.232792 940.828873 216.478039 C 954.866129 213.744531 971.289718 213.8884 978.448718 216.909645 C 991.78411 222.52053 994.872307 236.907414 985.046228 247.985314 C 980.835051 252.732986 976.764247 254.603281 963.148109 258.343871 C 952.76054 261.221248 950.233834 261.365117 926.510873 261.221248 C 906.297225 260.93351 899.138225 261.365117 890.856244 263.091543 C 881.872401 264.961838 876.397871 265.105706 850.007831 264.530231 L 819.687359 263.667018 L 823.056301 266.544395 C 824.881144 268.126952 827.40785 269.997247 828.811575 270.716591 C 831.057536 272.011411 831.057536 272.15528 827.688595 273.450099 C 825.583007 274.169443 821.231457 274.888787 817.722143 274.888787 L 811.545751 274.888787 L 810.703516 280.211935 C 810.142026 283.089311 810.282398 286.398295 810.703516 287.693114 C 811.545751 289.563409 811.265006 289.851147 809.29979 289.131803 C 807.896065 288.700196 804.246378 287.693114 801.158182 286.97377 C 797.929613 286.398295 793.718437 284.959606 791.753221 283.952524 C 788.243907 282.369967 787.822789 282.369967 786.699809 284.528 C 785.436456 286.542163 774.908515 294.45495 773.364416 294.45495 C 773.083671 294.45495 772.802926 292.872392 772.662554 291.145966 C 772.522181 289.275671 770.978083 284.384131 769.293612 280.355803 C 767.609142 276.327476 765.784299 271.867542 765.222808 270.572722 C 764.520946 268.558559 764.2402 268.41469 763.397965 269.997247 C 762.836475 271.004329 761.99424 273.737837 761.573122 276.039738 C 761.011632 278.485508 759.467534 282.226098 757.923435 284.528 L 755.256357 288.844065 L 753.571886 285.247344 C 751.606671 281.362885 748.518474 277.334558 747.395494 277.334558 C 747.114749 277.334558 746.412886 278.485508 745.991768 280.068066 C 745.149533 283.23318 737.85016 292.009179 736.025317 292.009179 C 735.323454 292.009179 734.761964 289.563409 734.761964 286.542163 C 734.761964 283.520918 734.200474 280.931279 733.498611 280.931279 C 732.796748 280.931279 732.235258 281.794492 732.235258 282.657705 C 732.235258 285.103475 725.918493 292.009179 723.812905 292.009179 C 722.97067 292.009179 721.426571 292.872392 720.584336 293.879474 C 718.198003 296.469113 716.37316 296.181376 717.355767 293.16013 C 717.776885 291.865311 717.49614 288.700196 716.653905 286.110557 L 714.688689 280.211935 C 714.407944 279.204853 712.161983 279.49259 707.389316 281.075148 C 699.809198 283.520918 697.14212 283.089311 701.072551 279.924197 C 702.616649 278.773246 704.722238 274.888787 705.985591 271.292066 C 707.248944 267.551477 709.073787 264.386362 710.056395 264.098625 C 711.46012 263.667018 711.46012 264.098625 709.775649 266.400526 C 708.512296 267.983083 707.670061 270.141116 707.670061 271.148198 C 707.670061 272.15528 706.687453 274.60105 705.704845 276.615214 C 704.581865 278.485508 703.880002 280.355803 704.160747 280.499672 C 704.441492 280.78741 707.248944 279.636459 710.617885 278.053902 L 716.653905 275.176525 L 716.653905 277.766164 C 716.653905 279.204853 717.49614 282.945442 718.338375 286.110557 L 719.882473 291.865311 L 724.09365 289.995016 C 728.164454 288.124721 732.235258 281.219016 732.235258 275.895869 C 732.235258 273.162361 733.779356 273.593968 734.340846 276.471345 C 734.481219 277.190689 735.463827 280.355803 736.446435 283.23318 L 738.271278 288.700196 L 741.078729 285.247344 C 742.622827 283.377049 744.588043 279.780328 745.430278 277.190689 C 746.834004 272.586886 749.079965 270.716591 749.079965 273.881706 C 749.079965 276.327476 755.537102 284.815737 756.800455 284.096393 C 757.361945 283.664787 758.625298 280.499672 759.467534 277.04682 C 761.152004 269.56564 764.099828 264.6741 765.924671 265.681182 C 766.626534 266.112788 766.907279 266.832132 766.626534 267.407608 C 766.205416 267.983083 767.749514 272.730755 769.855103 278.053902 C 2808.485704 1583.519752 3443.110021 4271.277411 2203.620369 6350.613748 C 964.130717 8430.093954 -1701.965201 9150.445234 -3819.906296 7978.20193 C -5937.987763 6805.958625 -6743.305105 4164.238994 -5639.555713 2009.803123 C -4535.806321 -144.632749 -1921.22713 -1034.173783 267.461732 -0.0445648 C 268.163595 1.969599 269.00583 1.681861 273.638124 -2.490335 C 276.585948 -5.079974 279.112654 -7.957351 279.533771 -8.820564 C 279.954889 -10.259252 280.656752 -10.259252 283.32383 -8.532826 C 287.113889 -6.230925 299.887792 -2.346466 301.010772 -3.353548 C 301.291517 -3.641286 301.712635 -6.950269 301.853008 -10.834728 L 301.99338 -17.596563 L 305.643067 -16.877219 C 307.608282 -16.445613 311.959831 -16.445613 315.048028 -16.877219 L 320.803302 -17.740432 L 315.74989 -21.193284 C 312.942439 -23.207448 309.994616 -25.653218 309.292753 -26.804169 C 308.59089 -28.098989 306.064184 -29.10607 303.256733 -29.249939 C 295.536243 -29.969283 281.920105 -37.594332 281.920105 -41.334922 C 281.920105 -42.054266 283.744948 -40.759446 286.131282 -38.745283 C 291.184693 -33.997611 298.343694 -30.976365 304.660459 -30.976365 L 309.292753 -30.976365 L 306.344929 -34.860824 C 304.660459 -37.018857 303.256733 -41.191053 302.835615 -44.643905 C 302.274125 -50.110921 301.712635 -51.118003 295.95736 -55.002461 C 292.588419 -57.448232 288.377242 -61.044953 286.552399 -63.059117 L 283.32383 -66.655837 L 281.63936 -62.339772 C 280.797124 -59.894002 279.674144 -58.023707 279.253026 -58.023707 C 278.831909 -58.023707 277.147438 -59.462396 275.462967 -61.044953 C 273.778497 -62.771379 272.094026 -64.210067 271.672908 -64.210067 C 271.251791 -64.066198 269.707693 -61.908166 268.303967 -59.030789 L 265.777261 -53.99538 L 263.812045 -57.016625 C 262.689065 -58.599182 260.162359 -61.33269 258.197143 -63.202985 C 256.091555 -65.07328 254.968575 -66.655837 255.81081 -66.655837 C 256.512673 -66.655837 259.039379 -64.641674 261.285339 -62.339772 L 265.636889 -58.023707 L 267.321359 -61.188822 C 268.44434 -63.059117 268.725085 -65.936493 268.303967 -68.238395 C 267.602104 -71.547378 267.742477 -71.835116 269.00583 -69.677083 C 269.848065 -68.382264 272.374771 -65.792624 274.620732 -63.92233 L 278.691536 -60.613346 L 281.498987 -65.792624 C 284.306438 -70.828034 284.306438 -70.828034 285.569791 -67.806788 C 287.254262 -63.778461 299.466674 -53.707642 309.994616 -47.80902 C 311.538714 -46.945806 310.836851 -49.967052 307.889027 -57.160494 C 307.187165 -59.030789 306.485302 -62.483641 306.485302 -64.785543 C 306.485302 -68.238395 305.502694 -69.677083 301.151145 -72.986066 C 294.974752 -77.733738 292.869164 -81.18659 291.746184 -88.811639 C 291.184693 -91.976753 290.202086 -95.429605 289.219478 -96.580556 C 287.956125 -98.163113 287.815752 -97.2999 288.096497 -91.401278 C 288.377242 -87.516819 287.815752 -82.769148 286.973517 -80.754984 L 285.429419 -77.014394 L 284.306438 -80.03564 C 283.604576 -81.762066 280.656752 -84.783311 277.849301 -86.653606 C 274.901477 -88.523901 272.936261 -90.394196 273.357379 -90.825803 C 273.778497 -91.11354 276.72632 -89.387114 279.954889 -86.941344 C 284.867929 -83.056885 285.850536 -82.769148 286.552399 -84.351705 C 287.394634 -86.365869 286.552399 -94.997999 285.008301 -100.896621 C 284.306438 -103.917867 284.306438 -103.917867 288.096497 -100.177277 C 290.763576 -97.443769 292.307674 -94.278655 293.430654 -88.523901 C 294.974752 -81.330459 295.676615 -80.179508 302.274125 -74.280886 C 306.344929 -70.828034 309.854243 -68.094526 310.134988 -68.382264 C 310.275361 -68.670001 310.836851 -77.733738 311.257969 -88.523901 C 311.959831 -109.384883 311.117596 -114.420292 306.064184 -120.750521 L 303.537478 -124.059504 L 307.608282 -128.519438 C 312.802067 -134.130323 315.328773 -138.734126 316.311381 -145.064355 L 317.153616 -150.099764 L 312.661694 -145.783699 C 308.871635 -142.186978 307.046792 -141.467634 302.695243 -141.467634 C 298.484066 -141.467634 296.799596 -142.186978 293.851772 -145.208224 C 290.342458 -148.948814 284.306438 -152.545535 278.270418 -154.271961 C 276.16483 -154.847436 275.462967 -154.559698 275.462967 -153.12101 C 275.462967 -151.970059 274.199614 -148.948814 272.655516 -146.215306 L 269.988438 -141.179896 L 264.373536 -146.790781 C 261.004594 -150.099764 256.93379 -152.833272 253.845594 -153.552617 C 245.984731 -155.56678 245.563613 -155.422911 245.563613 -149.668158 C 245.563613 -140.892159 241.913927 -139.165733 235.176044 -145.064355 C 229.98226 -149.524289 225.630711 -150.531371 215.945005 -149.38042 L 208.364887 -148.517207 L 209.768612 -145.208224 C 210.891593 -142.330847 210.610847 -141.179896 208.224514 -137.870913 C 204.294083 -132.691635 199.100298 -130.389733 191.239435 -130.389733 C 187.589749 -130.389733 183.097827 -129.670389 181.132611 -128.663307 C 179.167395 -127.800094 174.394729 -126.793012 170.464297 -126.361406 C 166.533865 -125.929799 162.463061 -125.354324 161.199708 -124.922717 C 159.374865 -124.203373 159.234493 -124.778849 159.795983 -128.951045 C 160.638218 -135.425143 156.146297 -140.172814 149.127669 -140.172814 C 140.003453 -140.172814 135.792276 -131.972291 139.441963 -121.325997 C 140.143825 -119.167964 140.986061 -115.858981 141.407178 -113.988686 C 141.828296 -111.974522 145.8991 -106.651375 150.952512 -101.759834 C 155.865551 -96.868294 160.357473 -91.832884 161.199708 -90.394196 C 161.901571 -89.099376 164.428277 -87.085213 166.674238 -85.790393 L 170.885415 -83.488492 L 170.323924 -87.948426 C 169.622062 -92.839966 170.745042 -93.55931 173.412121 -90.106458 C 174.254356 -88.811639 176.640689 -86.941344 178.605905 -85.646524 C 181.694101 -83.776229 182.115219 -83.776229 182.115219 -85.358787 C 182.115219 -86.509737 182.817082 -88.811639 183.518945 -90.681934 L 184.92267 -94.134786 L 187.449376 -89.530983 C 188.712729 -86.941344 193.064278 -81.042721 196.99471 -76.438919 C 204.7152 -67.519051 209.487867 -57.592101 206.961161 -55.290199 C 205.978553 -54.426986 203.311475 -54.426986 197.836945 -55.577937 C 193.625768 -56.44115 188.291611 -56.872756 186.186023 -56.585019 C 181.694101 -55.865675 181.272984 -56.44115 184.080435 -59.894002 C 187.028258 -63.490723 186.466768 -64.210067 180.851866 -64.210067 C 174.254356 -64.210067 157.97114 -67.375182 151.654375 -69.820952 C 145.618355 -72.266722 144.214629 -71.547378 142.389786 -65.792624 C 141.547551 -63.202985 140.143825 -58.455314 139.020845 -55.290199 L 137.196002 -49.535446 L 143.793512 -50.25479 C 147.443198 -50.542527 152.075492 -51.405741 154.181081 -51.981216 C 156.286669 -52.556691 158.111512 -52.988298 158.392257 -52.70056 C 158.673002 -52.556691 157.690395 -50.25479 156.286669 -47.80902 L 153.900336 -43.205217 L 157.97114 -43.924561 C 160.217101 -44.500036 163.586042 -45.507118 165.551258 -46.5142 C 168.920199 -48.096757 169.060571 -47.952888 171.72765 -43.780692 C 174.956219 -38.601414 177.482925 -38.889151 178.044415 -44.356167 C 178.605905 -49.967052 180.430748 -49.103839 183.940062 -41.622659 C 187.309003 -34.429217 190.818317 -31.983447 191.52018 -36.155644 C 191.660553 -37.594332 193.485396 -39.896233 195.450612 -41.334922 C 199.521416 -44.06843 202.469239 -43.349086 204.294083 -38.889151 C 206.118926 -34.285349 202.048122 -29.537677 190.3972 -22.488104 C 167.095356 -8.245089 153.479218 11.033336 149.689159 35.634907 C 146.179845 57.934578 157.128904 80.809723 178.88665 97.35464 C 189.414592 105.267426 205.978553 113.611818 204.995945 110.446704 C 200.504024 96.923033 200.644396 71.170511 205.27669 66.854446 C 205.978553 66.135101 205.697808 68.868609 204.7152 72.753068 C 201.065514 87.42769 202.609612 99.081066 212.014573 126.560014 C 220.436926 151.305454 219.313946 161.951748 207.382279 168.857453 C 203.451847 171.159354 201.065514 171.590961 190.677945 171.447092 C 179.44814 171.303223 178.184787 171.447092 174.675474 174.324469 C 171.16616 177.201845 166.674238 186.265582 166.674238 190.581648 C 166.674238 192.883549 169.200944 192.595811 174.254356 189.574566 Z M 681.560766 479.614146 " transform="matrix(0.0278277,0,0,0.0271515,-1.07176,-0.15504)"/>
<path style="fill-rule:nonzero;fill:rgb(100%,74.509804%,16.078431%);fill-opacity:1;stroke-width:5.56;stroke-linecap:butt;stroke-linejoin:miter;stroke:rgb(0%,0%,0%);stroke-opacity:1;stroke-miterlimit:4;" d="M 863.483596 479.038671 L 868.11589 476.017425 L 871.344459 479.038671 C 875.555636 483.066998 880.468675 482.923129 884.399107 478.894802 C 886.22395 477.024507 887.768048 475.729687 887.90842 476.017425 C 888.048793 476.305163 888.891028 477.599982 889.733264 479.038671 C 890.715872 480.765097 892.681087 481.62831 896.330774 481.772179 C 900.822695 482.203785 902.086048 481.772179 903.770519 479.18254 L 905.876107 476.161294 L 910.508402 479.038671 C 923.141932 487.239195 929.879814 478.750933 924.264912 461.630541 C 921.457461 452.998411 923.001559 448.250739 932.266148 437.172838 C 936.196579 432.569036 939.425148 427.533626 939.425148 426.094938 C 939.425148 423.936905 938.723285 423.649168 933.389128 423.649168 C 928.476089 423.793036 927.072363 423.217561 924.405285 420.340184 C 920.194108 415.736381 920.33448 410.269365 925.107147 404.370743 L 928.897206 399.623071 L 922.159324 395.019268 C 918.509637 392.429629 911.771755 386.531007 907.279833 381.783335 C 897.313382 370.993172 887.34693 365.957763 874.292283 364.806812 L 865.589184 363.943599 L 865.589184 370.561566 C 865.589184 379.193696 869.659988 387.250351 880.468675 401.205629 C 892.961832 417.031201 893.804068 419.476971 894.225185 440.050215 L 894.786676 457.458345 L 891.136989 460.911197 C 887.90842 463.932443 886.364322 464.364049 875.976753 464.939524 C 866.010302 465.515 863.904714 466.090475 860.95689 468.680114 C 857.026459 472.132966 855.903478 474.003261 854.780498 478.750933 C 854.078635 481.484441 854.35938 482.059916 856.324596 482.059916 C 857.587949 482.059916 860.816518 480.765097 863.483596 479.038671 Z M 598.881332 428.540708 C 598.881332 426.382675 599.86394 425.8072 604.636607 425.087856 L 610.532254 424.224643 L 606.601822 421.203397 C 601.969528 417.462807 601.54841 414.585431 605.619214 414.585431 C 609.690018 414.585431 616.568274 410.413234 617.550881 407.24812 C 618.112372 405.809431 617.831627 403.939136 616.849019 402.932055 C 614.603058 400.342416 610.391881 400.774022 609.549646 403.651399 C 608.707411 406.672644 607.303685 406.672644 604.075116 403.651399 C 599.162077 399.047596 599.021704 389.408384 603.794371 383.941368 C 606.040332 381.20786 606.040332 381.063991 603.232881 378.330483 C 600.144685 375.453106 597.898724 369.698353 599.302449 368.403533 C 599.86394 367.971927 602.250273 368.259664 604.776979 369.122877 C 608.286293 370.273828 609.690018 370.417697 611.234117 369.266746 C 615.585666 365.670025 610.812999 361.210091 603.653999 362.217173 C 600.846548 362.64878 599.583195 362.217173 599.162077 360.778485 C 598.881332 359.627534 596.354626 358.044977 593.547175 357.325633 C 588.493763 356.174682 588.493763 356.174682 588.493763 359.627534 C 588.493763 363.368124 586.247802 364.087468 582.176998 361.641698 C 578.808057 359.771403 575.579488 361.210091 575.579488 364.806812 C 575.579488 368.115795 578.948429 369.842222 584.984449 369.410615 C 589.476371 369.122877 589.757116 372.575729 585.265194 377.46727 L 582.176998 381.063991 L 584.703704 384.660712 C 588.35339 389.983859 588.072645 398.759858 584.001841 403.219792 L 580.773272 406.672644 L 578.808057 403.939136 C 575.860233 400.054678 571.929801 400.342416 570.806821 404.370743 C 570.104958 407.104251 570.666448 408.255202 574.03539 411.132578 C 576.281351 413.002873 579.650292 414.585431 581.334763 414.585431 C 585.686312 414.585431 585.545939 418.038283 581.054017 421.491135 L 577.404331 424.224643 L 583.019233 425.087856 C 585.967057 425.663331 588.493763 426.526544 588.493763 427.10202 C 588.493763 429.403921 589.897488 436.597363 593.547175 436.741232 C 596.775744 436.885101 598.740959 431.99356 598.881332 428.540708 Z M 598.881332 428.540708 " transform="matrix(0.0278277,0,0,0.0271515,-1.07176,-0.15504)"/>
<path style="fill-rule:nonzero;fill:rgb(100%,74.509804%,16.078431%);fill-opacity:1;stroke-width:5.56;stroke-linecap:butt;stroke-linejoin:miter;stroke:rgb(0%,0%,0%);stroke-opacity:1;stroke-miterlimit:4;" d="M 668.506119 402.932055 C 673.419158 400.917891 684.368217 391.854154 684.368217 389.552253 C 684.368217 388.832908 681.280021 385.523925 677.630335 382.214942 C 670.050217 375.309237 661.627863 363.511993 659.522275 356.750157 C 658.399295 353.153436 652.924765 347.110945 637.483784 332.148586 L 617.129764 312.294686 L 611.234117 313.733374 C 607.865175 314.596587 603.934744 315.315931 602.390646 315.315931 C 599.583195 315.315931 599.723567 315.603669 603.373254 318.337177 L 607.163312 321.358423 L 612.637842 318.337177 C 617.831627 315.4598 617.971999 315.4598 618.673862 317.761702 C 618.954607 319.056521 618.252744 321.502291 616.708646 323.228718 C 615.304921 324.955144 614.603058 326.825439 615.024176 327.544783 C 615.445293 328.120258 614.041568 329.558946 611.935979 330.566028 C 608.14592 332.436323 605.478842 338.622683 608.567038 338.622683 C 611.234117 338.622683 617.270136 331.141504 616.568274 328.695733 C 616.147156 327.400914 616.427901 326.106094 616.989391 325.674488 C 619.235352 324.379668 619.09498 330.134422 616.708646 333.011799 C 615.304921 334.738225 614.603058 336.60852 615.024176 337.327864 C 615.445293 337.903339 614.041568 339.342028 611.935979 340.349109 C 608.14592 342.219404 605.478842 348.405764 608.426665 348.405764 C 611.374489 348.405764 617.410509 341.356191 616.568274 338.622683 C 616.287529 337.327864 616.427901 335.889175 616.989391 335.601438 C 618.533489 334.594356 619.375725 339.198159 617.971999 341.50006 C 617.270136 342.651011 617.270136 344.377437 618.112372 345.672257 C 619.375725 347.974158 617.971999 352.577961 615.585666 354.016649 C 614.603058 354.592125 615.304921 355.743075 617.831627 357.61337 C 621.481313 360.346878 621.481313 360.634616 621.481313 372.719598 C 621.481313 382.934286 621.902431 385.523925 623.727274 387.250351 C 625.832862 389.264515 625.973235 389.264515 625.973235 387.39422 C 625.973235 385.236187 629.622921 382.790417 632.570745 382.790417 C 633.553353 382.790417 639.027882 387.39422 644.783157 393.005105 C 650.678804 398.759858 656.714824 403.651399 658.539667 403.939136 C 660.224138 404.226874 662.048981 404.514612 662.610471 404.658481 C 663.171962 404.80235 665.83904 403.939136 668.506119 402.932055 Z M 605.89996 354.016649 C 605.89996 350.707666 599.302449 347.254814 591.160841 346.391601 C 584.703704 345.672257 584.563331 345.672257 584.563331 348.98124 C 584.563331 351.570879 585.545939 352.72183 590.037861 354.592125 C 597.337234 357.757239 605.89996 357.469501 605.89996 354.016649 Z M 605.89996 354.016649 " transform="matrix(0.0278277,0,0,0.0271515,-1.07176,-0.15504)"/>
<path style="fill-rule:nonzero;fill:rgb(100%,74.509804%,16.078431%);fill-opacity:1;stroke-width:5.56;stroke-linecap:butt;stroke-linejoin:miter;stroke:rgb(0%,0%,0%);stroke-opacity:1;stroke-miterlimit:4;" d="M 613.339705 353.728912 C 616.568274 350.707666 618.112372 347.254814 616.147156 347.254814 C 613.901195 347.254814 607.865175 352.577961 607.865175 354.592125 C 607.865175 357.757239 608.988156 357.61337 613.339705 353.728912 Z M 606.321077 344.089699 C 606.601822 342.219404 605.478842 340.924585 602.109901 339.485896 C 594.670155 336.176913 585.967057 334.594356 583.861469 336.320782 C 579.931037 339.342028 582.457743 343.370355 588.774508 344.233568 C 591.301214 344.521306 594.810528 345.24065 596.494998 345.959994 C 601.267665 347.830289 605.89996 346.967076 606.321077 344.089699 Z M 606.321077 334.162749 C 606.742195 331.57311 605.057724 330.709897 591.301214 325.818357 C 581.19439 322.221636 576.562096 323.948062 579.931037 330.134422 C 581.054017 332.292454 582.878861 333.299536 587.23041 333.875012 C 590.458979 334.450487 594.810528 335.3137 596.916116 336.033044 C 602.531018 337.75947 605.89996 337.183995 606.321077 334.162749 Z M 613.199332 324.955144 C 615.304921 322.94098 616.989391 320.351341 616.989391 319.488128 C 616.989391 316.466882 608.847783 321.790029 607.724803 325.530619 C 606.46145 329.846684 608.567038 329.702815 613.199332 324.955144 Z M 606.321077 324.379668 C 606.742195 321.358423 601.829155 318.624915 592.003077 316.610751 C 584.844076 315.028194 581.75588 315.891407 582.31737 319.20039 C 582.598116 321.070685 584.984449 322.365505 591.722332 324.523537 C 602.531018 327.976389 605.759587 327.83252 606.321077 324.379668 Z M 615.866411 310.424391 C 628.359568 304.813506 629.482549 290.858229 617.691254 287.117639 C 612.778215 285.535082 609.690018 286.398295 607.724803 289.707278 C 606.321077 292.296917 607.303685 296.90072 609.268901 296.90072 C 609.970764 296.90072 610.532254 297.763933 610.532254 298.771015 C 610.532254 303.662555 591.301214 305.964457 583.580723 301.936129 C 580.773272 300.497441 579.509919 296.90072 581.896253 296.90072 C 583.580723 296.90072 584.703704 293.16013 583.861469 290.570491 C 582.738488 286.97377 579.088802 285.822819 573.895017 287.117639 C 562.103723 290.282753 562.52484 304.094162 574.456507 309.848915 C 584.282586 314.740456 605.759587 315.028194 615.866411 310.424391 Z M 615.866411 310.424391 " transform="matrix(0.0278277,0,0,0.0271515,-1.07176,-0.15504)"/>
<path style="fill-rule:nonzero;fill:rgb(100%,74.509804%,16.078431%);fill-opacity:1;stroke-width:5.56;stroke-linecap:butt;stroke-linejoin:miter;stroke:rgb(0%,0%,0%);stroke-opacity:1;stroke-miterlimit:4;" d="M 608.14592 299.634228 C 608.847783 298.914884 608.567038 297.907802 607.303685 296.90072 C 604.636607 294.886556 604.776979 291.721442 607.724803 288.124721 C 609.830391 285.535082 610.111136 281.506754 610.953371 241.07961 C 612.216724 171.447092 617.410509 119.078834 624.288764 106.562245 C 626.955843 101.526836 626.534725 101.526836 619.516097 106.274508 C 610.532254 112.460868 603.653999 120.517523 597.477606 131.883161 C 585.967057 153.607356 582.036625 182.668861 582.036625 244.964069 C 582.036625 280.211935 582.176998 284.815737 584.282586 288.124721 C 586.107429 291.289835 586.247802 292.440786 584.984449 295.893638 C 584.001841 298.051671 583.721096 300.065834 584.001841 300.497441 C 586.66892 302.943211 605.338469 302.223867 608.14592 299.634228 Z M 713.284963 233.310693 C 713.706081 232.591349 712.863846 229.570103 711.46012 226.548857 C 709.214159 221.657317 708.231551 220.794104 705.002983 220.794104 C 694.896159 220.794104 678.612942 216.33417 661.908609 208.85299 C 652.222902 204.536925 648.853961 203.529843 647.730981 204.680794 C 644.783157 207.558171 649.696196 214.176137 657.276314 217.628989 C 664.154569 220.794104 682.964492 224.534694 691.527217 224.534694 C 696.580629 224.534694 696.721002 224.822431 693.913551 228.850759 L 691.807963 231.872004 L 697.422865 232.015873 C 700.511061 232.159742 704.86261 232.591349 706.968198 233.166824 C 712.442728 234.461644 712.583101 234.461644 713.284963 233.310693 Z M 713.284963 233.310693 " transform="matrix(0.0278277,0,0,0.0271515,-1.07176,-0.15504)"/>
<path style="fill-rule:nonzero;fill:rgb(0%,0%,0%);fill-opacity:1;stroke-width:5.56;stroke-linecap:butt;stroke-linejoin:miter;stroke:rgb(0%,0%,0%);stroke-opacity:1;stroke-miterlimit:4;" d="M 772.381809 264.6741 C 772.381809 262.803805 767.047652 257.912264 761.713494 254.74715 C 757.502318 252.30138 756.800455 252.30138 756.800455 254.315543 C 756.800455 257.336789 754.133377 264.961838 753.010396 264.961838 C 752.448906 264.961838 751.466298 263.523149 751.04518 261.652854 C 750.48369 259.782559 748.518474 256.185838 746.553259 253.596199 L 742.903572 248.992396 L 739.955749 253.308462 C 737.429043 257.336789 732.796748 261.365117 730.69116 261.365117 C 730.270042 261.365117 730.12967 259.207084 730.550787 256.617445 C 730.971905 253.740068 730.69116 251.438167 729.708552 251.00656 C 729.006689 250.574954 728.304827 250.718822 728.304827 251.294298 C 728.304827 252.876855 721.988062 260.070297 720.584336 260.070297 C 720.022846 260.070297 719.320983 258.056133 718.899865 255.466494 C 718.478748 253.020724 717.776885 248.992396 717.355767 246.690495 C 716.93465 244.244725 717.917258 245.827282 719.461356 250.143347 L 722.128434 258.056133 L 725.21663 253.308462 C 726.901101 250.574954 728.304827 247.697577 728.304827 246.834364 C 728.304827 245.971151 728.866317 245.539544 729.56818 245.971151 C 730.270042 246.402757 731.25265 249.567872 731.673768 253.020724 L 732.656376 259.350953 L 736.025317 255.610363 C 737.85016 253.596199 739.955749 250.862691 740.797984 249.567872 C 742.201709 247.26597 742.342082 247.26597 745.149533 249.711741 C 746.693631 251.00656 749.220337 254.315543 750.624063 256.905183 C 752.027788 259.494822 753.291141 261.365117 753.571886 261.077379 C 753.712259 260.93351 754.273749 258.200002 754.694867 255.178756 C 755.115984 252.157511 755.39673 249.567872 755.39673 249.424003 C 755.677475 248.704659 765.643926 255.178756 769.293612 258.343871 C 771.679946 260.501904 773.925907 261.940592 774.206652 261.508985 C 774.627769 261.221248 774.908515 258.056133 774.908515 254.74715 C 774.908515 249.424003 774.347024 247.985314 771.118456 245.107938 C 767.328397 241.655086 767.328397 241.655086 765.924671 244.100856 C 764.099828 247.26597 761.99424 247.409839 761.99424 244.244725 C 761.99424 241.942823 754.975612 233.166824 753.150769 233.166824 C 752.589278 233.166824 751.185553 235.037119 749.781827 237.482889 C 748.378102 239.784791 746.974376 241.655086 746.553259 241.655086 C 744.728415 241.655086 734.761964 230.577185 734.761964 228.563021 C 734.761964 226.980464 735.463827 227.41207 737.28867 230.00171 C 738.552023 232.015873 741.219102 235.037119 743.043945 236.763545 C 746.974376 240.216397 748.378102 239.353184 749.9222 232.879086 C 750.343318 231.008791 751.04518 229.426234 751.466298 229.426234 C 753.150769 229.426234 761.853867 238.63384 763.11722 241.655086 L 764.2402 244.8202 L 765.222808 241.367348 C 766.345789 237.33902 767.609142 237.195152 769.433985 240.935741 C 770.135848 242.518299 773.925907 245.683413 777.715966 248.129183 L 784.594221 252.589117 L 785.997946 248.129183 C 786.840182 245.683413 787.822789 244.244725 788.243907 244.964069 C 788.94577 246.11502 787.261299 253.45233 785.857574 255.034888 C 785.576829 255.322625 783.330868 253.883937 780.804162 252.157511 L 776.171868 248.848528 L 776.171868 254.74715 C 776.171868 258.056133 775.891122 261.940592 775.470005 263.523149 C 774.627769 266.400526 772.381809 267.263739 772.381809 264.6741 Z M 737.85016 217.053514 C 729.56818 210.14781 728.304827 208.565252 728.585572 205.256269 L 728.725944 201.803417 L 729.287434 205.256269 C 729.56818 207.126564 731.81414 210.14781 734.481219 212.305842 L 739.253886 215.902563 L 742.201709 212.59358 C 743.745808 210.723285 745.149533 208.565252 745.149533 207.702039 C 745.149533 205.544007 745.570651 205.687876 751.185553 210.579416 C 756.098592 214.751613 756.238965 214.895481 756.940828 212.018105 C 757.361945 210.435547 757.221573 207.558171 756.660083 205.544007 C 754.975612 199.933122 755.256357 199.213778 757.783063 202.522761 C 758.906043 204.105318 760.871259 206.551089 762.134612 207.702039 C 764.099828 209.860072 764.2402 209.860072 765.082436 207.126564 C 765.503553 205.544007 765.784299 202.810499 765.924671 200.796335 L 765.924671 197.343483 L 770.27622 202.378892 C 774.487397 207.126564 774.908515 207.270433 776.171868 205.1124 C 776.87373 203.673712 777.575593 200.508597 777.575593 197.918958 C 777.575593 194.609975 777.856338 193.746762 778.698573 195.041582 C 780.242672 197.199614 779.260064 202.954368 776.592985 207.845908 L 774.768142 211.29876 L 772.241436 207.558171 C 769.15324 202.66663 768.030259 202.66663 766.065044 207.989777 C 764.099828 213.025186 762.976847 213.312924 761.011632 209.572334 C 759.888651 206.982695 759.607906 207.414302 758.765671 212.59358 L 757.783063 218.348334 L 752.168161 213.8884 L 746.412886 209.572334 L 743.88618 212.449711 C 742.482455 214.032268 741.359474 216.046432 741.359474 216.909645 C 741.219102 218.77994 739.955749 218.77994 737.85016 217.053514 Z M 810.984261 191.444861 C 808.036437 188.711353 805.930849 186.121713 806.492339 185.690107 C 806.913457 185.2585 807.474947 185.114632 807.61532 185.402369 C 807.755692 185.690107 810.282398 188.279746 813.089849 191.157123 C 819.546987 197.775089 818.283634 197.918958 810.984261 191.444861 Z M 713.565708 181.374042 C 710.758257 177.633452 711.039002 175.187682 714.267571 171.159354 C 716.653905 168.281977 717.776885 167.99424 721.988062 168.425846 C 724.65514 168.857453 730.410415 171.159354 734.761964 173.748993 C 739.815376 176.770239 745.149533 178.640534 749.079965 179.216009 C 752.589278 179.647616 755.537102 179.791485 755.537102 179.503747 C 755.537102 179.359878 754.133377 176.914108 752.308533 174.324469 C 748.097357 167.850371 748.237729 167.274896 753.010396 171.015485 C 757.923435 174.899944 763.67871 176.050895 776.87373 175.619288 L 783.190495 175.475419 L 779.540809 171.878698 C 774.347024 166.69942 775.891122 166.267814 781.646397 171.159354 C 786.980554 175.907026 786.699809 176.194764 775.329632 177.345714 C 770.556965 177.777321 765.363181 177.489583 761.152004 176.338632 C 754.694867 174.756075 754.414122 174.756075 755.677475 176.914108 C 756.379337 178.208927 757.502318 179.216009 758.204181 179.216009 C 758.906043 179.216009 759.467534 179.791485 759.467534 180.510829 C 759.467534 182.956599 745.570651 180.798566 738.832768 177.489583 C 723.812905 169.864535 721.847689 169.14519 718.198003 170.296141 C 716.232787 170.871617 714.267571 172.741911 713.565708 174.612206 C 711.179375 180.798566 720.022846 185.690107 723.672532 180.223091 C 724.65514 178.640534 724.374395 177.489583 722.549552 175.619288 C 720.022846 172.88578 720.303591 172.598043 723.672532 173.748993 C 726.058866 174.612206 726.479983 180.510829 724.234023 182.668861 C 721.566944 185.114632 715.671297 184.395287 713.565708 181.374042 Z M 713.565708 181.374042 " transform="matrix(0.0278277,0,0,0.0271515,-1.07176,-0.15504)"/>
<path style="fill-rule:nonzero;fill:rgb(0%,0%,0%);fill-opacity:1;stroke-width:5.56;stroke-linecap:butt;stroke-linejoin:miter;stroke:rgb(0%,0%,0%);stroke-opacity:1;stroke-miterlimit:4;" d="M 773.224044 166.123945 C 771.258828 164.25365 772.802926 163.822043 781.225279 163.678175 C 791.753221 163.534306 798.210358 161.664011 805.650104 156.916339 C 811.686124 153.175749 813.370594 153.895093 807.61532 157.923421 C 802.421535 161.520142 794.279927 164.25365 786.419064 165.116863 C 782.629005 165.548469 778.277456 166.123945 776.733358 166.411682 C 775.18926 166.69942 773.645162 166.555551 773.224044 166.123945 Z M 773.224044 166.123945 " transform="matrix(0.0278277,0,0,0.0271515,-1.07176,-0.15504)"/>
<path style=" stroke:none;fill-rule:nonzero;fill:rgb(100%,74.509804%,16.078431%);fill-opacity:1;" d="M 17.894531 12.867188 L 18.015625 12.796875 L 18.066406 12.867188 C 18.136719 12.957031 18.328125 12.957031 18.453125 12.863281 L 18.550781 12.792969 L 18.632812 12.863281 C 18.738281 12.957031 18.9375 12.957031 19.066406 12.863281 C 19.15625 12.800781 19.167969 12.796875 19.226562 12.847656 C 19.261719 12.875 19.367188 12.910156 19.457031 12.921875 C 19.621094 12.941406 19.621094 12.941406 19.71875 12.800781 C 19.796875 12.683594 19.8125 12.636719 19.792969 12.523438 C 19.78125 12.445312 19.765625 12.324219 19.761719 12.253906 C 19.753906 12.121094 19.753906 12.121094 19.953125 12.050781 C 20.0625 12.015625 20.1875 11.964844 20.234375 11.941406 C 20.3125 11.902344 20.527344 11.652344 20.527344 11.601562 C 20.527344 11.589844 20.445312 11.570312 20.339844 11.558594 C 19.929688 11.511719 19.859375 11.296875 20.125 10.894531 C 20.5625 10.238281 20.828125 9.601562 20.828125 9.195312 C 20.832031 9.011719 20.839844 8.953125 20.863281 8.992188 C 20.960938 9.152344 20.789062 9.832031 20.523438 10.316406 L 20.414062 10.511719 L 20.515625 10.488281 C 20.574219 10.476562 20.902344 10.339844 21.25 10.1875 C 22.199219 9.769531 22.523438 9.6875 23.140625 9.710938 C 23.65625 9.734375 23.875 9.832031 24.238281 10.203125 C 24.429688 10.398438 24.613281 10.539062 24.953125 10.746094 C 25.675781 11.1875 25.707031 11.226562 25.742188 11.746094 C 25.777344 12.273438 25.757812 12.300781 25.351562 12.390625 C 25.003906 12.464844 24.785156 12.621094 24.726562 12.84375 C 24.695312 12.960938 24.761719 12.964844 24.9375 12.855469 L 25.066406 12.773438 L 25.121094 12.855469 C 25.199219 12.960938 25.359375 12.960938 25.492188 12.855469 L 25.589844 12.773438 L 25.691406 12.855469 C 25.851562 12.980469 26.066406 12.949219 26.125 12.792969 C 26.136719 12.761719 26.167969 12.773438 26.230469 12.824219 C 26.34375 12.925781 26.644531 12.96875 26.675781 12.890625 C 26.6875 12.859375 26.664062 12.785156 26.625 12.726562 C 26.449219 12.472656 26.394531 12.351562 26.394531 12.214844 C 26.390625 12.019531 26.449219 11.929688 26.675781 11.769531 C 26.945312 11.582031 27.03125 11.335938 26.824219 11.335938 C 26.695312 11.335938 26.566406 11.226562 26.484375 11.046875 C 26.316406 10.679688 26.351562 10.269531 26.601562 9.589844 C 26.855469 8.898438 26.882812 8.769531 26.886719 8.304688 C 26.886719 7.929688 26.875 7.867188 26.789062 7.660156 C 26.734375 7.535156 26.628906 7.347656 26.546875 7.246094 L 26.40625 7.058594 L 26.589844 6.910156 C 27.152344 6.453125 27.035156 5.710938 26.359375 5.421875 C 26.152344 5.335938 26.101562 5.328125 25.734375 5.328125 C 25.519531 5.332031 25.1875 5.359375 24.996094 5.390625 C 24.804688 5.425781 24.480469 5.453125 24.257812 5.453125 C 23.902344 5.453125 23.84375 5.445312 23.707031 5.375 C 23.566406 5.300781 23.539062 5.265625 23.511719 5.09375 C 23.507812 5.058594 23.480469 5.027344 23.457031 5.019531 C 23.410156 5.003906 23.183594 5.191406 23.152344 5.277344 C 23.136719 5.316406 23.121094 5.3125 23.074219 5.257812 C 23.042969 5.222656 23 5.136719 22.976562 5.074219 C 22.917969 4.90625 22.988281 4.78125 23.1875 4.6875 L 23.34375 4.613281 L 23.253906 4.558594 C 23.0625 4.445312 22.742188 4.523438 22.625 4.710938 C 22.59375 4.765625 22.554688 4.808594 22.546875 4.808594 C 22.535156 4.808594 22.472656 4.757812 22.40625 4.695312 C 22.160156 4.460938 22.246094 4.117188 22.574219 4.011719 C 22.746094 3.957031 22.902344 4 22.933594 4.113281 C 22.984375 4.285156 23.136719 4.058594 23.109375 3.851562 C 23.089844 3.714844 23.09375 3.710938 23.191406 3.710938 C 23.324219 3.710938 23.613281 3.882812 23.699219 4.019531 C 23.804688 4.175781 23.796875 4.421875 23.683594 4.605469 L 23.59375 4.75 L 23.710938 4.726562 C 23.878906 4.691406 24.046875 4.589844 24.132812 4.460938 C 24.21875 4.328125 24.230469 4.070312 24.152344 3.933594 C 24.074219 3.796875 24.082031 3.773438 24.195312 3.820312 C 24.386719 3.898438 24.492188 3.984375 24.566406 4.132812 C 24.636719 4.261719 24.640625 4.296875 24.601562 4.433594 C 24.578125 4.519531 24.527344 4.632812 24.488281 4.683594 C 24.425781 4.761719 24.425781 4.777344 24.472656 4.777344 C 24.566406 4.777344 24.757812 4.691406 24.824219 4.621094 C 24.859375 4.585938 24.910156 4.496094 24.9375 4.425781 L 24.988281 4.292969 L 25.042969 4.394531 C 25.121094 4.535156 25.277344 4.660156 25.464844 4.742188 C 25.667969 4.824219 25.753906 4.832031 25.648438 4.75 C 25.574219 4.695312 25.445312 4.320312 25.484375 4.28125 C 25.507812 4.261719 25.78125 4.46875 26.097656 4.742188 C 26.394531 5.003906 26.582031 5.089844 26.855469 5.089844 C 27.203125 5.089844 27.40625 4.792969 27.25 4.511719 C 27.160156 4.347656 26.957031 4.328125 26.835938 4.464844 C 26.78125 4.53125 26.765625 4.582031 26.78125 4.648438 C 26.800781 4.730469 26.792969 4.742188 26.71875 4.742188 C 26.617188 4.742188 26.414062 4.617188 26.0625 4.328125 C 25.519531 3.886719 24.859375 3.511719 24.386719 3.375 C 24.078125 3.289062 23.429688 3.253906 23.117188 3.308594 C 22.78125 3.367188 22.386719 3.554688 22.167969 3.757812 C 21.785156 4.113281 21.78125 4.585938 22.152344 5.015625 L 22.261719 5.140625 L 22.1875 5.25 C 22.082031 5.410156 22.089844 5.625 22.210938 5.78125 C 22.261719 5.851562 22.316406 5.910156 22.328125 5.910156 C 22.339844 5.910156 22.351562 5.863281 22.355469 5.808594 C 22.367188 5.671875 22.429688 5.578125 22.53125 5.542969 C 22.625 5.507812 22.6875 5.523438 23.117188 5.691406 C 23.570312 5.867188 24.316406 5.878906 25.109375 5.722656 C 25.5 5.648438 25.957031 5.652344 26.15625 5.734375 C 26.527344 5.886719 26.613281 6.277344 26.339844 6.578125 C 26.222656 6.707031 26.109375 6.757812 25.730469 6.859375 C 25.441406 6.9375 25.371094 6.941406 24.710938 6.9375 C 24.148438 6.929688 23.949219 6.941406 23.71875 6.988281 C 23.46875 7.039062 23.316406 7.042969 22.582031 7.027344 L 21.738281 7.003906 L 21.832031 7.082031 C 21.882812 7.125 21.953125 7.175781 21.992188 7.195312 C 22.054688 7.230469 22.054688 7.234375 21.960938 7.269531 C 21.902344 7.289062 21.78125 7.308594 21.683594 7.308594 L 21.511719 7.308594 L 21.488281 7.453125 C 21.472656 7.53125 21.476562 7.621094 21.488281 7.65625 C 21.511719 7.707031 21.503906 7.714844 21.449219 7.695312 C 21.410156 7.683594 21.308594 7.65625 21.222656 7.636719 C 21.132812 7.621094 21.015625 7.582031 20.960938 7.554688 C 20.863281 7.511719 20.851562 7.511719 20.820312 7.570312 C 20.785156 7.625 20.492188 7.839844 20.449219 7.839844 C 20.441406 7.839844 20.433594 7.796875 20.429688 7.75 C 20.425781 7.699219 20.382812 7.566406 20.335938 7.457031 C 20.289062 7.347656 20.238281 7.226562 20.222656 7.191406 C 20.203125 7.136719 20.195312 7.132812 20.171875 7.175781 C 20.15625 7.203125 20.132812 7.277344 20.121094 7.339844 C 20.105469 7.40625 20.0625 7.507812 20.019531 7.570312 L 19.945312 7.6875 L 19.898438 7.589844 C 19.84375 7.484375 19.757812 7.375 19.726562 7.375 C 19.71875 7.375 19.699219 7.40625 19.6875 7.449219 C 19.664062 7.535156 19.460938 7.773438 19.410156 7.773438 C 19.390625 7.773438 19.375 7.707031 19.375 7.625 C 19.375 7.542969 19.359375 7.472656 19.339844 7.472656 C 19.320312 7.472656 19.304688 7.496094 19.304688 7.519531 C 19.304688 7.585938 19.128906 7.773438 19.070312 7.773438 C 19.046875 7.773438 19.003906 7.796875 18.980469 7.824219 C 18.914062 7.894531 18.863281 7.886719 18.890625 7.804688 C 18.902344 7.769531 18.894531 7.683594 18.871094 7.613281 L 18.816406 7.453125 C 18.808594 7.425781 18.746094 7.433594 18.613281 7.476562 C 18.402344 7.542969 18.328125 7.53125 18.4375 7.445312 C 18.480469 7.414062 18.539062 7.308594 18.574219 7.210938 C 18.609375 7.109375 18.660156 7.023438 18.6875 7.015625 C 18.726562 7.003906 18.726562 7.015625 18.679688 7.078125 C 18.644531 7.121094 18.621094 7.179688 18.621094 7.207031 C 18.621094 7.234375 18.59375 7.300781 18.566406 7.355469 C 18.535156 7.40625 18.515625 7.457031 18.523438 7.460938 C 18.53125 7.46875 18.609375 7.4375 18.703125 7.394531 L 18.871094 7.316406 L 18.871094 7.386719 C 18.871094 7.425781 18.894531 7.527344 18.917969 7.613281 L 18.960938 7.769531 L 19.078125 7.71875 C 19.191406 7.667969 19.304688 7.480469 19.304688 7.335938 C 19.304688 7.261719 19.347656 7.273438 19.363281 7.351562 C 19.367188 7.371094 19.394531 7.457031 19.421875 7.535156 L 19.472656 7.683594 L 19.550781 7.589844 C 19.59375 7.539062 19.648438 7.441406 19.671875 7.371094 C 19.710938 7.246094 19.773438 7.195312 19.773438 7.28125 C 19.773438 7.347656 19.953125 7.578125 19.988281 7.558594 C 20.003906 7.546875 20.039062 7.460938 20.0625 7.367188 C 20.109375 7.164062 20.191406 7.03125 20.242188 7.058594 C 20.261719 7.070312 20.269531 7.089844 20.261719 7.105469 C 20.25 7.121094 20.292969 7.25 20.351562 7.394531 C 77.082031 42.839844 94.742188 115.816406 60.25 172.273438 C 25.757812 228.734375 -48.433594 248.292969 -107.371094 216.464844 C -166.3125 184.636719 -188.722656 112.910156 -158.007812 54.414062 C -127.292969 -4.082031 -54.535156 -28.234375 6.371094 -0.15625 C 6.390625 -0.101562 6.414062 -0.109375 6.542969 -0.222656 C 6.625 -0.292969 6.695312 -0.371094 6.707031 -0.394531 C 6.71875 -0.433594 6.738281 -0.433594 6.8125 -0.386719 C 6.917969 -0.324219 7.273438 -0.21875 7.304688 -0.246094 C 7.3125 -0.253906 7.324219 -0.34375 7.328125 -0.449219 L 7.332031 -0.632812 L 7.433594 -0.613281 C 7.488281 -0.601562 7.609375 -0.601562 7.695312 -0.613281 L 7.855469 -0.636719 L 7.714844 -0.730469 C 7.636719 -0.785156 7.554688 -0.851562 7.535156 -0.882812 C 7.515625 -0.917969 7.445312 -0.945312 7.367188 -0.949219 C 7.152344 -0.96875 6.773438 -1.175781 6.773438 -1.277344 C 6.773438 -1.296875 6.824219 -1.261719 6.890625 -1.207031 C 7.03125 -1.078125 7.230469 -0.996094 7.40625 -0.996094 L 7.535156 -0.996094 L 7.453125 -1.101562 C 7.40625 -1.160156 7.367188 -1.273438 7.355469 -1.367188 C 7.339844 -1.515625 7.324219 -1.542969 7.164062 -1.648438 C 7.070312 -1.714844 6.953125 -1.8125 6.902344 -1.867188 L 6.8125 -1.964844 L 6.765625 -1.847656 C 6.742188 -1.78125 6.710938 -1.730469 6.699219 -1.730469 C 6.6875 -1.730469 6.640625 -1.769531 6.59375 -1.8125 C 6.546875 -1.859375 6.5 -1.898438 6.488281 -1.898438 C 6.476562 -1.894531 6.433594 -1.835938 6.394531 -1.757812 L 6.324219 -1.621094 L 6.269531 -1.703125 C 6.238281 -1.746094 6.167969 -1.820312 6.113281 -1.871094 C 6.054688 -1.921875 6.023438 -1.964844 6.046875 -1.964844 C 6.066406 -1.964844 6.136719 -1.910156 6.199219 -1.847656 L 6.320312 -1.730469 L 6.367188 -1.816406 C 6.398438 -1.867188 6.40625 -1.945312 6.394531 -2.007812 C 6.375 -2.097656 6.378906 -2.105469 6.414062 -2.046875 C 6.4375 -2.011719 6.507812 -1.941406 6.570312 -1.890625 L 6.683594 -1.800781 L 6.761719 -1.941406 C 6.839844 -2.078125 6.839844 -2.078125 6.875 -1.996094 C 6.921875 -1.886719 7.261719 -1.613281 7.554688 -1.453125 C 7.597656 -1.429688 7.578125 -1.511719 7.496094 -1.707031 C 7.476562 -1.757812 7.457031 -1.851562 7.457031 -1.914062 C 7.457031 -2.007812 7.429688 -2.046875 7.308594 -2.136719 C 7.136719 -2.265625 7.078125 -2.359375 7.046875 -2.566406 C 7.03125 -2.652344 7.003906 -2.746094 6.976562 -2.777344 C 6.941406 -2.820312 6.9375 -2.796875 6.945312 -2.636719 C 6.953125 -2.53125 6.9375 -2.402344 6.914062 -2.347656 L 6.871094 -2.246094 L 6.839844 -2.328125 C 6.820312 -2.375 6.738281 -2.457031 6.660156 -2.507812 C 6.578125 -2.558594 6.523438 -2.609375 6.535156 -2.621094 C 6.546875 -2.628906 6.628906 -2.582031 6.71875 -2.515625 C 6.855469 -2.410156 6.882812 -2.402344 6.902344 -2.445312 C 6.925781 -2.5 6.902344 -2.734375 6.859375 -2.894531 C 6.839844 -2.976562 6.839844 -2.976562 6.945312 -2.875 C 7.019531 -2.800781 7.0625 -2.714844 7.09375 -2.558594 C 7.136719 -2.363281 7.15625 -2.332031 7.339844 -2.171875 C 7.453125 -2.078125 7.550781 -2.003906 7.558594 -2.011719 C 7.5625 -2.019531 7.578125 -2.265625 7.589844 -2.558594 C 7.609375 -3.125 7.585938 -3.261719 7.445312 -3.433594 L 7.375 -3.523438 L 7.488281 -3.644531 C 7.632812 -3.796875 7.703125 -3.921875 7.730469 -4.09375 L 7.753906 -4.230469 L 7.628906 -4.113281 C 7.523438 -4.015625 7.472656 -3.996094 7.351562 -3.996094 C 7.234375 -3.996094 7.1875 -4.015625 7.105469 -4.097656 C 7.007812 -4.199219 6.839844 -4.296875 6.671875 -4.34375 C 6.613281 -4.359375 6.59375 -4.351562 6.59375 -4.3125 C 6.59375 -4.28125 6.558594 -4.199219 6.515625 -4.125 L 6.441406 -3.988281 L 6.285156 -4.140625 C 6.191406 -4.230469 6.078125 -4.304688 5.992188 -4.324219 C 5.773438 -4.378906 5.761719 -4.375 5.761719 -4.21875 C 5.761719 -3.980469 5.660156 -3.933594 5.472656 -4.09375 C 5.328125 -4.214844 5.207031 -4.242188 4.9375 -4.210938 L 4.726562 -4.1875 L 4.765625 -4.097656 C 4.796875 -4.019531 4.789062 -3.988281 4.722656 -3.898438 C 4.613281 -3.757812 4.46875 -3.695312 4.25 -3.695312 C 4.148438 -3.695312 4.023438 -3.675781 3.96875 -3.648438 C 3.914062 -3.625 3.78125 -3.597656 3.671875 -3.585938 C 3.5625 -3.574219 3.449219 -3.558594 3.414062 -3.546875 C 3.363281 -3.527344 3.359375 -3.542969 3.375 -3.65625 C 3.398438 -3.832031 3.273438 -3.960938 3.078125 -3.960938 C 2.824219 -3.960938 2.707031 -3.738281 2.808594 -3.449219 C 2.828125 -3.390625 2.851562 -3.300781 2.863281 -3.25 C 2.875 -3.195312 2.988281 -3.050781 3.128906 -2.917969 C 3.265625 -2.785156 3.390625 -2.648438 3.414062 -2.609375 C 3.433594 -2.574219 3.503906 -2.519531 3.566406 -2.484375 L 3.683594 -2.421875 L 3.667969 -2.542969 C 3.648438 -2.675781 3.679688 -2.695312 3.753906 -2.601562 C 3.777344 -2.566406 3.84375 -2.515625 3.898438 -2.480469 C 3.984375 -2.429688 3.996094 -2.429688 3.996094 -2.472656 C 3.996094 -2.503906 4.015625 -2.566406 4.035156 -2.617188 L 4.074219 -2.710938 L 4.144531 -2.585938 C 4.179688 -2.515625 4.300781 -2.355469 4.410156 -2.230469 C 4.625 -1.988281 4.757812 -1.71875 4.6875 -1.65625 C 4.660156 -1.632812 4.585938 -1.632812 4.433594 -1.664062 C 4.316406 -1.6875 4.167969 -1.699219 4.109375 -1.691406 C 3.984375 -1.671875 3.972656 -1.6875 4.050781 -1.78125 C 4.132812 -1.878906 4.117188 -1.898438 3.960938 -1.898438 C 3.777344 -1.898438 3.324219 -1.984375 3.148438 -2.050781 C 2.980469 -2.117188 2.941406 -2.097656 2.890625 -1.941406 C 2.867188 -1.871094 2.828125 -1.742188 2.796875 -1.65625 L 2.746094 -1.5 L 2.929688 -1.519531 C 3.03125 -1.527344 3.160156 -1.550781 3.21875 -1.566406 C 3.277344 -1.582031 3.328125 -1.59375 3.335938 -1.585938 C 3.34375 -1.582031 3.316406 -1.519531 3.277344 -1.453125 L 3.210938 -1.328125 L 3.324219 -1.347656 C 3.386719 -1.363281 3.480469 -1.390625 3.535156 -1.417969 C 3.628906 -1.460938 3.632812 -1.457031 3.707031 -1.34375 C 3.796875 -1.203125 3.867188 -1.210938 3.882812 -1.359375 C 3.898438 -1.511719 3.949219 -1.488281 4.046875 -1.285156 C 4.140625 -1.089844 4.238281 -1.023438 4.257812 -1.136719 C 4.261719 -1.175781 4.3125 -1.238281 4.367188 -1.277344 C 4.480469 -1.351562 4.5625 -1.332031 4.613281 -1.210938 C 4.664062 -1.085938 4.550781 -0.957031 4.226562 -0.765625 C 3.578125 -0.378906 3.199219 0.144531 3.09375 0.8125 C 2.996094 1.417969 3.300781 2.039062 3.90625 2.488281 C 4.199219 2.703125 4.660156 2.929688 4.632812 2.84375 C 4.507812 2.476562 4.511719 1.777344 4.640625 1.660156 C 4.660156 1.640625 4.652344 1.714844 4.625 1.820312 C 4.523438 2.21875 4.566406 2.535156 4.828125 3.28125 C 5.0625 3.953125 5.03125 4.242188 4.699219 4.429688 C 4.589844 4.492188 4.523438 4.503906 4.234375 4.5 C 3.921875 4.496094 3.886719 4.5 3.789062 4.578125 C 3.691406 4.65625 3.566406 4.902344 3.566406 5.019531 C 3.566406 5.082031 3.636719 5.074219 3.777344 4.992188 Z M 17.894531 12.867188 "/>
<path style=" stroke:none;fill-rule:nonzero;fill:rgb(100%,74.509804%,16.078431%);fill-opacity:1;" d="M 22.957031 12.851562 L 23.085938 12.769531 L 23.175781 12.851562 C 23.292969 12.960938 23.429688 12.957031 23.539062 12.847656 C 23.589844 12.796875 23.632812 12.761719 23.636719 12.769531 C 23.640625 12.777344 23.664062 12.8125 23.6875 12.851562 C 23.714844 12.898438 23.769531 12.921875 23.871094 12.925781 C 23.996094 12.9375 24.03125 12.925781 24.078125 12.855469 L 24.136719 12.773438 L 24.265625 12.851562 C 24.617188 13.074219 24.804688 12.84375 24.648438 12.378906 C 24.570312 12.144531 24.613281 12.015625 24.871094 11.714844 C 24.980469 11.589844 25.070312 11.453125 25.070312 11.414062 C 25.070312 11.355469 25.050781 11.347656 24.902344 11.347656 C 24.765625 11.351562 24.726562 11.335938 24.652344 11.257812 C 24.535156 11.132812 24.539062 10.984375 24.671875 10.824219 L 24.777344 10.695312 L 24.589844 10.570312 C 24.488281 10.5 24.300781 10.339844 24.175781 10.210938 C 23.898438 9.917969 23.621094 9.78125 23.257812 9.75 L 23.015625 9.726562 L 23.015625 9.90625 C 23.015625 10.140625 23.128906 10.359375 23.429688 10.738281 C 23.777344 11.167969 23.800781 11.234375 23.8125 11.792969 L 23.828125 12.265625 L 23.726562 12.359375 C 23.636719 12.441406 23.59375 12.453125 23.304688 12.46875 C 23.027344 12.484375 22.96875 12.5 22.886719 12.570312 C 22.777344 12.664062 22.746094 12.714844 22.714844 12.84375 C 22.695312 12.917969 22.703125 12.933594 22.757812 12.933594 C 22.792969 12.933594 22.882812 12.898438 22.957031 12.851562 Z M 15.59375 11.480469 C 15.59375 11.421875 15.621094 11.40625 15.753906 11.386719 L 15.917969 11.363281 L 15.808594 11.28125 C 15.679688 11.179688 15.667969 11.101562 15.78125 11.101562 C 15.894531 11.101562 16.085938 10.988281 16.113281 10.902344 C 16.128906 10.863281 16.121094 10.8125 16.09375 10.785156 C 16.03125 10.714844 15.914062 10.726562 15.890625 10.804688 C 15.867188 10.886719 15.828125 10.886719 15.738281 10.804688 C 15.601562 10.679688 15.597656 10.417969 15.730469 10.269531 C 15.792969 10.195312 15.792969 10.191406 15.714844 10.117188 C 15.628906 10.039062 15.566406 9.882812 15.605469 9.847656 C 15.621094 9.835938 15.6875 9.84375 15.757812 9.867188 C 15.855469 9.898438 15.894531 9.902344 15.9375 9.871094 C 16.058594 9.773438 15.925781 9.652344 15.726562 9.679688 C 15.648438 9.691406 15.613281 9.679688 15.601562 9.640625 C 15.59375 9.609375 15.523438 9.566406 15.445312 9.546875 C 15.304688 9.515625 15.304688 9.515625 15.304688 9.609375 C 15.304688 9.710938 15.242188 9.730469 15.128906 9.664062 C 15.035156 9.613281 14.945312 9.652344 14.945312 9.75 C 14.945312 9.839844 15.039062 9.886719 15.207031 9.875 C 15.332031 9.867188 15.339844 9.960938 15.214844 10.09375 L 15.128906 10.191406 L 15.199219 10.289062 C 15.300781 10.433594 15.292969 10.671875 15.179688 10.792969 L 15.089844 10.886719 L 15.035156 10.8125 C 14.953125 10.707031 14.84375 10.714844 14.8125 10.824219 C 14.792969 10.898438 14.808594 10.929688 14.902344 11.007812 C 14.964844 11.058594 15.058594 11.101562 15.105469 11.101562 C 15.226562 11.101562 15.222656 11.195312 15.097656 11.289062 L 14.996094 11.363281 L 15.152344 11.386719 C 15.234375 11.402344 15.304688 11.425781 15.304688 11.441406 C 15.304688 11.503906 15.34375 11.699219 15.445312 11.703125 C 15.535156 11.707031 15.589844 11.574219 15.59375 11.480469 Z M 15.59375 11.480469 "/>
<path style=" stroke:none;fill-rule:nonzero;fill:rgb(100%,74.509804%,16.078431%);fill-opacity:1;" d="M 17.53125 10.785156 C 17.667969 10.730469 17.972656 10.484375 17.972656 10.421875 C 17.972656 10.402344 17.886719 10.3125 17.785156 10.222656 C 17.574219 10.035156 17.339844 9.714844 17.28125 9.53125 C 17.25 9.433594 17.097656 9.269531 16.667969 8.863281 L 16.101562 8.324219 L 15.9375 8.363281 C 15.84375 8.386719 15.734375 8.40625 15.691406 8.40625 C 15.613281 8.40625 15.617188 8.414062 15.71875 8.488281 L 15.824219 8.570312 L 15.976562 8.488281 C 16.121094 8.410156 16.125 8.410156 16.144531 8.472656 C 16.152344 8.507812 16.132812 8.574219 16.089844 8.621094 C 16.050781 8.667969 16.03125 8.71875 16.042969 8.738281 C 16.054688 8.753906 16.015625 8.792969 15.957031 8.820312 C 15.851562 8.871094 15.777344 9.039062 15.863281 9.039062 C 15.9375 9.039062 16.105469 8.835938 16.085938 8.769531 C 16.074219 8.734375 16.082031 8.699219 16.097656 8.6875 C 16.160156 8.652344 16.15625 8.808594 16.089844 8.886719 C 16.050781 8.933594 16.03125 8.984375 16.042969 9.003906 C 16.054688 9.019531 16.015625 9.058594 15.957031 9.085938 C 15.851562 9.136719 15.777344 9.304688 15.859375 9.304688 C 15.941406 9.304688 16.109375 9.113281 16.085938 9.039062 C 16.078125 9.003906 16.082031 8.964844 16.097656 8.957031 C 16.140625 8.929688 16.164062 9.054688 16.125 9.117188 C 16.105469 9.148438 16.105469 9.195312 16.128906 9.230469 C 16.164062 9.292969 16.125 9.417969 16.058594 9.457031 C 16.03125 9.472656 16.050781 9.503906 16.121094 9.554688 C 16.222656 9.628906 16.222656 9.636719 16.222656 9.964844 C 16.222656 10.242188 16.234375 10.3125 16.285156 10.359375 C 16.34375 10.414062 16.347656 10.414062 16.347656 10.363281 C 16.347656 10.304688 16.449219 10.238281 16.53125 10.238281 C 16.558594 10.238281 16.710938 10.363281 16.871094 10.515625 C 17.035156 10.671875 17.203125 10.804688 17.253906 10.8125 C 17.300781 10.820312 17.351562 10.828125 17.367188 10.832031 C 17.382812 10.835938 17.457031 10.8125 17.53125 10.785156 Z M 15.789062 9.457031 C 15.789062 9.367188 15.605469 9.273438 15.378906 9.25 C 15.199219 9.230469 15.195312 9.230469 15.195312 9.320312 C 15.195312 9.390625 15.222656 9.421875 15.347656 9.472656 C 15.550781 9.558594 15.789062 9.550781 15.789062 9.457031 Z M 15.789062 9.457031 "/>
<path style=" stroke:none;fill-rule:nonzero;fill:rgb(100%,74.509804%,16.078431%);fill-opacity:1;" d="M 15.996094 9.449219 C 16.085938 9.367188 16.128906 9.273438 16.074219 9.273438 C 16.011719 9.273438 15.84375 9.417969 15.84375 9.472656 C 15.84375 9.558594 15.875 9.554688 15.996094 9.449219 Z M 15.800781 9.1875 C 15.808594 9.136719 15.777344 9.101562 15.683594 9.0625 C 15.476562 8.972656 15.234375 8.929688 15.175781 8.976562 C 15.066406 9.058594 15.136719 9.167969 15.3125 9.191406 C 15.382812 9.199219 15.480469 9.21875 15.527344 9.238281 C 15.660156 9.289062 15.789062 9.265625 15.800781 9.1875 Z M 15.800781 8.917969 C 15.8125 8.847656 15.765625 8.824219 15.382812 8.691406 C 15.101562 8.59375 14.972656 8.640625 15.066406 8.808594 C 15.097656 8.867188 15.148438 8.894531 15.269531 8.910156 C 15.359375 8.925781 15.480469 8.949219 15.539062 8.96875 C 15.695312 9.015625 15.789062 9 15.800781 8.917969 Z M 15.992188 8.667969 C 16.050781 8.613281 16.097656 8.542969 16.097656 8.519531 C 16.097656 8.4375 15.871094 8.582031 15.839844 8.683594 C 15.804688 8.800781 15.863281 8.796875 15.992188 8.667969 Z M 15.800781 8.652344 C 15.8125 8.570312 15.675781 8.496094 15.402344 8.441406 C 15.203125 8.398438 15.117188 8.421875 15.132812 8.511719 C 15.140625 8.5625 15.207031 8.597656 15.394531 8.65625 C 15.695312 8.75 15.785156 8.746094 15.800781 8.652344 Z M 16.066406 8.273438 C 16.414062 8.121094 16.445312 7.742188 16.117188 7.640625 C 15.980469 7.597656 15.894531 7.621094 15.839844 7.710938 C 15.800781 7.78125 15.828125 7.90625 15.882812 7.90625 C 15.902344 7.90625 15.917969 7.929688 15.917969 7.957031 C 15.917969 8.089844 15.382812 8.152344 15.167969 8.042969 C 15.089844 8.003906 15.054688 7.90625 15.121094 7.90625 C 15.167969 7.90625 15.199219 7.804688 15.175781 7.734375 C 15.144531 7.636719 15.042969 7.605469 14.898438 7.640625 C 14.570312 7.726562 14.582031 8.101562 14.914062 8.257812 C 15.1875 8.390625 15.785156 8.398438 16.066406 8.273438 Z M 16.066406 8.273438 "/>
<path style=" stroke:none;fill-rule:nonzero;fill:rgb(100%,74.509804%,16.078431%);fill-opacity:1;" d="M 15.851562 7.980469 C 15.871094 7.960938 15.863281 7.933594 15.828125 7.90625 C 15.753906 7.851562 15.757812 7.765625 15.839844 7.667969 C 15.898438 7.597656 15.90625 7.488281 15.929688 6.390625 C 15.964844 4.5 16.109375 3.078125 16.300781 2.738281 C 16.375 2.601562 16.363281 2.601562 16.167969 2.730469 C 15.917969 2.898438 15.726562 3.117188 15.554688 3.425781 C 15.234375 4.015625 15.125 4.804688 15.125 6.496094 C 15.125 7.453125 15.128906 7.578125 15.1875 7.667969 C 15.238281 7.753906 15.242188 7.785156 15.207031 7.878906 C 15.179688 7.9375 15.171875 7.992188 15.179688 8.003906 C 15.253906 8.070312 15.773438 8.050781 15.851562 7.980469 Z M 18.777344 6.179688 C 18.789062 6.160156 18.765625 6.078125 18.726562 5.996094 C 18.664062 5.863281 18.636719 5.839844 18.546875 5.839844 C 18.265625 5.839844 17.8125 5.71875 17.347656 5.515625 C 17.078125 5.398438 16.984375 5.371094 16.953125 5.402344 C 16.871094 5.480469 17.007812 5.660156 17.21875 5.753906 C 17.410156 5.839844 17.933594 5.941406 18.171875 5.941406 C 18.3125 5.941406 18.316406 5.949219 18.238281 6.058594 L 18.179688 6.140625 L 18.335938 6.144531 C 18.421875 6.148438 18.542969 6.160156 18.601562 6.175781 C 18.753906 6.210938 18.757812 6.210938 18.777344 6.179688 Z M 18.777344 6.179688 "/>
<path style=" stroke:none;fill-rule:nonzero;fill:rgb(0%,0%,0%);fill-opacity:1;" d="M 20.421875 7.03125 C 20.421875 6.980469 20.273438 6.847656 20.125 6.761719 C 20.007812 6.695312 19.988281 6.695312 19.988281 6.75 C 19.988281 6.832031 19.914062 7.039062 19.882812 7.039062 C 19.867188 7.039062 19.839844 7 19.828125 6.949219 C 19.8125 6.898438 19.757812 6.800781 19.703125 6.730469 L 19.601562 6.605469 L 19.519531 6.722656 C 19.449219 6.832031 19.320312 6.941406 19.261719 6.941406 C 19.25 6.941406 19.246094 6.882812 19.257812 6.8125 C 19.269531 6.734375 19.261719 6.671875 19.234375 6.660156 C 19.214844 6.648438 19.195312 6.652344 19.195312 6.667969 C 19.195312 6.710938 19.019531 6.90625 18.980469 6.90625 C 18.964844 6.90625 18.945312 6.851562 18.933594 6.78125 C 18.921875 6.714844 18.902344 6.605469 18.890625 6.542969 C 18.878906 6.476562 18.90625 6.519531 18.949219 6.636719 L 19.023438 6.851562 L 19.109375 6.722656 C 19.15625 6.648438 19.195312 6.570312 19.195312 6.546875 C 19.195312 6.523438 19.210938 6.511719 19.230469 6.523438 C 19.25 6.535156 19.277344 6.621094 19.289062 6.714844 L 19.316406 6.886719 L 19.410156 6.785156 C 19.460938 6.730469 19.519531 6.65625 19.542969 6.621094 C 19.582031 6.558594 19.585938 6.558594 19.664062 6.625 C 19.707031 6.660156 19.777344 6.75 19.816406 6.820312 C 19.855469 6.890625 19.890625 6.941406 19.898438 6.933594 C 19.902344 6.929688 19.917969 6.855469 19.929688 6.773438 C 19.941406 6.691406 19.949219 6.621094 19.949219 6.617188 C 19.957031 6.597656 20.234375 6.773438 20.335938 6.859375 C 20.402344 6.917969 20.464844 6.957031 20.472656 6.945312 C 20.484375 6.9375 20.492188 6.851562 20.492188 6.761719 C 20.492188 6.617188 20.476562 6.578125 20.386719 6.5 C 20.28125 6.40625 20.28125 6.40625 20.242188 6.472656 C 20.191406 6.558594 20.132812 6.5625 20.132812 6.476562 C 20.132812 6.414062 19.9375 6.175781 19.886719 6.175781 C 19.871094 6.175781 19.832031 6.226562 19.792969 6.292969 C 19.753906 6.355469 19.714844 6.40625 19.703125 6.40625 C 19.652344 6.40625 19.375 6.105469 19.375 6.050781 C 19.375 6.007812 19.394531 6.019531 19.445312 6.089844 C 19.480469 6.144531 19.554688 6.226562 19.605469 6.273438 C 19.714844 6.367188 19.753906 6.34375 19.796875 6.167969 C 19.808594 6.117188 19.828125 6.074219 19.839844 6.074219 C 19.886719 6.074219 20.128906 6.324219 20.164062 6.40625 L 20.195312 6.492188 L 20.222656 6.398438 C 20.253906 6.289062 20.289062 6.285156 20.339844 6.386719 C 20.359375 6.429688 20.464844 6.515625 20.570312 6.582031 L 20.761719 6.703125 L 20.800781 6.582031 C 20.824219 6.515625 20.851562 6.476562 20.863281 6.496094 C 20.882812 6.527344 20.835938 6.726562 20.796875 6.769531 C 20.789062 6.777344 20.726562 6.738281 20.65625 6.691406 L 20.527344 6.601562 L 20.527344 6.761719 C 20.527344 6.851562 20.519531 6.957031 20.507812 7 C 20.484375 7.078125 20.421875 7.101562 20.421875 7.03125 Z M 19.460938 5.738281 C 19.230469 5.550781 19.195312 5.507812 19.203125 5.417969 L 19.207031 5.324219 L 19.222656 5.417969 C 19.230469 5.46875 19.292969 5.550781 19.367188 5.609375 L 19.5 5.707031 L 19.582031 5.617188 C 19.625 5.566406 19.664062 5.507812 19.664062 5.484375 C 19.664062 5.425781 19.675781 5.429688 19.832031 5.5625 C 19.96875 5.675781 19.972656 5.679688 19.992188 5.601562 C 20.003906 5.558594 20 5.480469 19.984375 5.425781 C 19.9375 5.273438 19.945312 5.253906 20.015625 5.34375 C 20.046875 5.386719 20.101562 5.453125 20.136719 5.484375 C 20.191406 5.542969 20.195312 5.542969 20.21875 5.46875 C 20.230469 5.425781 20.238281 5.351562 20.242188 5.296875 L 20.242188 5.203125 L 20.363281 5.339844 C 20.480469 5.46875 20.492188 5.472656 20.527344 5.414062 C 20.546875 5.375 20.566406 5.289062 20.566406 5.21875 C 20.566406 5.128906 20.574219 5.105469 20.597656 5.140625 C 20.640625 5.199219 20.613281 5.355469 20.539062 5.488281 L 20.488281 5.582031 L 20.417969 5.480469 C 20.332031 5.347656 20.300781 5.347656 20.246094 5.492188 C 20.191406 5.628906 20.160156 5.636719 20.105469 5.535156 C 20.074219 5.464844 20.066406 5.476562 20.042969 5.617188 L 20.015625 5.773438 L 19.859375 5.652344 L 19.699219 5.535156 L 19.628906 5.613281 C 19.589844 5.65625 19.558594 5.710938 19.558594 5.734375 C 19.554688 5.785156 19.519531 5.785156 19.460938 5.738281 Z M 21.496094 5.042969 C 21.414062 4.96875 21.355469 4.898438 21.371094 4.886719 C 21.382812 4.875 21.398438 4.871094 21.402344 4.878906 C 21.40625 4.886719 21.476562 4.957031 21.554688 5.035156 C 21.734375 5.214844 21.699219 5.21875 21.496094 5.042969 Z M 18.785156 4.769531 C 18.707031 4.667969 18.714844 4.601562 18.804688 4.492188 C 18.871094 4.414062 18.902344 4.40625 19.019531 4.417969 C 19.09375 4.429688 19.253906 4.492188 19.375 4.5625 C 19.515625 4.644531 19.664062 4.695312 19.773438 4.710938 C 19.871094 4.722656 19.953125 4.726562 19.953125 4.71875 C 19.953125 4.714844 19.914062 4.648438 19.863281 4.578125 C 19.746094 4.402344 19.75 4.386719 19.882812 4.488281 C 20.019531 4.59375 20.179688 4.625 20.546875 4.613281 L 20.722656 4.609375 L 20.621094 4.511719 C 20.476562 4.371094 20.519531 4.359375 20.679688 4.492188 C 20.828125 4.621094 20.820312 4.628906 20.503906 4.660156 C 20.371094 4.671875 20.226562 4.664062 20.109375 4.632812 C 19.929688 4.589844 19.921875 4.589844 19.957031 4.648438 C 19.976562 4.683594 20.007812 4.710938 20.027344 4.710938 C 20.046875 4.710938 20.0625 4.726562 20.0625 4.746094 C 20.0625 4.8125 19.675781 4.753906 19.488281 4.664062 C 19.070312 4.457031 19.015625 4.4375 18.914062 4.46875 C 18.859375 4.484375 18.804688 4.535156 18.785156 4.585938 C 18.71875 4.753906 18.964844 4.886719 19.066406 4.738281 C 19.09375 4.695312 19.085938 4.664062 19.035156 4.613281 C 18.964844 4.539062 18.972656 4.53125 19.066406 4.5625 C 19.132812 4.585938 19.144531 4.746094 19.082031 4.804688 C 19.007812 4.871094 18.84375 4.851562 18.785156 4.769531 Z M 18.785156 4.769531 "/>
<path style=" stroke:none;fill-rule:nonzero;fill:rgb(0%,0%,0%);fill-opacity:1;" d="M 20.445312 4.355469 C 20.390625 4.304688 20.433594 4.292969 20.667969 4.289062 C 20.960938 4.285156 21.140625 4.234375 21.347656 4.105469 C 21.515625 4.003906 21.5625 4.023438 21.402344 4.132812 C 21.257812 4.230469 21.03125 4.304688 20.8125 4.328125 C 20.707031 4.339844 20.585938 4.355469 20.542969 4.363281 C 20.5 4.371094 20.457031 4.367188 20.445312 4.355469 Z M 20.445312 4.355469 "/>
<path style="fill-rule:nonzero;fill:rgb(100%,74.509804%,16.078431%);fill-opacity:1;stroke-width:2.094;stroke-linecap:butt;stroke-linejoin:miter;stroke:rgb(0%,0%,0%);stroke-opacity:1;stroke-miterlimit:4;" d="M 1065.820312 449.267578 C 1065.820312 449.267578 1072.412109 463.183594 1079.736328 468.75 C 1090.576172 477.099609 1112.695312 476.513672 1122.216797 486.181641 C 1133.496094 497.607422 1121.337891 512.841797 1121.337891 514.160156 L 1122.070312 522.070312 C 1122.070312 522.070312 1114.453125 522.216797 1111.230469 522.65625 C 1106.396484 523.535156 1104.492188 527.490234 1095.556641 526.904297 C 1072.998047 525.439453 1073.876953 504.638672 1072.558594 486.767578 C 1071.533203 480.029297 1068.896484 471.09375 1067.285156 464.355469 C 1066.113281 458.642578 1065.820312 449.267578 1065.820312 449.267578 Z M 1065.820312 449.267578 " transform="matrix(0.0266667,0,0,0.0266667,0,0)"/>
<path style="fill-rule:nonzero;fill:rgb(100%,74.509804%,16.078431%);fill-opacity:1;stroke-width:2.096;stroke-linecap:butt;stroke-linejoin:miter;stroke:rgb(0%,0%,0%);stroke-opacity:1;stroke-miterlimit:4;" d="M 1065.820312 150.732422 C 1065.820312 150.732422 1072.412109 136.962891 1079.736328 131.396484 C 1090.576172 123.046875 1112.695312 123.632812 1122.216797 113.818359 C 1133.496094 102.392578 1121.337891 87.158203 1121.337891 85.986328 L 1122.070312 77.929688 C 1122.070312 77.929688 1114.453125 77.783203 1111.230469 77.34375 C 1106.396484 76.464844 1104.492188 72.509766 1095.556641 73.095703 C 1072.851562 74.560547 1073.876953 95.507812 1072.558594 113.232422 C 1071.386719 120.117188 1068.75 128.90625 1067.285156 135.644531 C 1065.966797 141.503906 1065.820312 150.732422 1065.820312 150.732422 Z M 502.294922 150.732422 C 502.294922 150.732422 495.703125 136.962891 488.378906 131.396484 C 477.539062 123.046875 455.273438 123.632812 445.898438 113.818359 C 434.472656 102.392578 446.777344 87.304688 446.630859 85.986328 L 446.044922 77.929688 C 446.044922 77.929688 453.662109 77.783203 456.884766 77.34375 C 461.572266 76.464844 463.476562 72.509766 472.558594 73.095703 C 495.117188 74.560547 494.238281 95.507812 495.410156 113.232422 C 496.582031 120.117188 499.21875 128.90625 500.683594 135.644531 C 502.001953 141.503906 502.294922 150.732422 502.294922 150.732422 Z M 502.294922 150.732422 " transform="matrix(0.0266667,0,0,0.0266667,0,0)"/>
</g>
</svg>
