<svg xmlns="http://www.w3.org/2000/svg" xmlns:xlink="http://www.w3.org/1999/xlink" id="flag-icons-lk" viewBox="0 0 24 18" width="24" height="16"><path fill="#ffb700" d="M0 0h24v18H0z"/><path fill="#ff5b00" d="m1.001 9 3.3 -7.999h3.3v15.998h-3.3z"/><path fill="#005641" d="M1.001 1.001h3.3v15.998h-3.3z"/><path fill="#8d2029" d="M8.599 1.001H23.1v15.998H8.599z"/><path id="lk-a" fill="#ffb700" stroke="#000" stroke-width="0.04125" d="M21.724 15.322s0.135 0.274 0.285 0.39c0.225 0.165 0.675 0.15 0.874 0.349 0.229 0.229 -0.019 0.532 -0.019 0.563l0.015 0.158s-0.158 0 -0.225 0.011c-0.098 0.015 -0.135 0.098 -0.322 0.086 -0.461 -0.03 -0.443 -0.45 -0.469 -0.806 -0.022 -0.135 -0.075 -0.315 -0.109 -0.45 -0.026 -0.112 -0.03 -0.3 -0.03 -0.3z"/><use xlink:href="#lk-a" width="100%" height="100%" transform="matrix(-1 0 0 1 845.3 0)"/><use xlink:href="#lk-a" width="100%" height="100%" transform="matrix(1 0 0 -1 0 480)"/><use xlink:href="#lk-a" width="100%" height="100%" transform="rotate(180 422.7 240)"/><g transform="translate(0 -76)"><use xlink:href="#lk-b" width="100%" height="100%" stroke="#000" stroke-width="5.6"/><g id="lk-b" fill="#ffb700"><path d="m13.631 15.592 0.086 -0.052 0.037 0.052c0.049 0.068 0.188 0.064 0.278 0l0.071 -0.056 0.06 0.052c0.075 0.071 0.217 0.071 0.311 0 0.064 -0.045 0.075 -0.049 0.112 -0.011 0.026 0.022 0.101 0.045 0.165 0.056 0.12 0.015 0.12 0.015 0.188 -0.09 0.06 -0.086 0.068 -0.12 0.056 -0.206a2.212 2.212 0 0 1 -0.022 -0.199c-0.007 -0.098 -0.004 -0.098 0.135 -0.15a1.912 1.912 0 0 0 0.203 -0.075c0.056 -0.034 0.214 -0.217 0.214 -0.255 0 -0.007 -0.06 -0.022 -0.135 -0.03 -0.3 -0.037 -0.349 -0.195 -0.154 -0.487 0.311 -0.487 0.502 -0.956 0.502 -1.252 0 -0.135 0.011 -0.18 0.026 -0.15 0.071 0.116 -0.056 0.615 -0.244 0.975l-0.075 0.142 0.071 -0.015c0.037 -0.011 0.278 -0.112 0.525 -0.225 0.682 -0.307 0.915 -0.367 1.358 -0.349 0.371 0.015 0.525 0.086 0.787 0.36 0.139 0.15 0.274 0.251 0.517 0.405 0.517 0.322 0.54 0.352 0.566 0.735 0.026 0.386 0.011 0.409 -0.281 0.472 -0.251 0.056 -0.409 0.172 -0.45 0.337 -0.022 0.083 0.026 0.086 0.15 0.004l0.094 -0.06 0.041 0.06c0.056 0.079 0.169 0.079 0.263 0l0.075 -0.056 0.075 0.056c0.112 0.094 0.263 0.071 0.307 -0.045 0.007 -0.019 0.03 -0.015 0.075 0.026 0.086 0.075 0.3 0.105 0.322 0.045 0.007 -0.022 -0.007 -0.075 -0.037 -0.12 -0.124 -0.188 -0.165 -0.274 -0.165 -0.375 0 -0.142 0.037 -0.214 0.203 -0.326 0.195 -0.142 0.255 -0.322 0.105 -0.322 -0.09 0 -0.184 -0.083 -0.244 -0.214 -0.12 -0.27 -0.094 -0.57 0.086 -1.073a2.16 2.16 0 0 0 0.203 -0.945c0 -0.278 -0.007 -0.322 -0.068 -0.476a1.702 1.702 0 0 0 -0.172 -0.304l-0.105 -0.139 0.131 -0.112c0.405 -0.334 0.322 -0.881 -0.165 -1.091 -0.15 -0.068 -0.188 -0.071 -0.45 -0.071 -0.15 0 -0.394 0.022 -0.525 0.049a3.675 3.675 0 0 1 -0.532 0.045c-0.255 0 -0.3 -0.007 -0.397 -0.06 -0.101 -0.052 -0.12 -0.079 -0.139 -0.206a0.075 0.075 0 0 0 -0.041 -0.056c-0.037 -0.011 -0.195 0.128 -0.217 0.188 -0.015 0.034 -0.022 0.03 -0.056 -0.011a0.502 0.502 0 0 1 -0.075 -0.135c-0.037 -0.124 0.011 -0.214 0.158 -0.285l0.112 -0.052 -0.068 -0.041c-0.135 -0.086 -0.367 -0.026 -0.45 0.112 -0.026 0.037 -0.052 0.075 -0.06 0.075s-0.052 -0.037 -0.098 -0.086c-0.176 -0.172 -0.116 -0.427 0.12 -0.502 0.124 -0.041 0.236 -0.011 0.259 0.075 0.037 0.124 0.142 -0.041 0.124 -0.195 -0.011 -0.101 -0.011 -0.105 0.06 -0.105 0.098 0 0.3 0.128 0.367 0.225 0.075 0.116 0.068 0.3 -0.015 0.435l-0.064 0.105 0.086 -0.015c0.12 -0.026 0.24 -0.101 0.3 -0.195a0.45 0.45 0 0 0 0.015 -0.39c-0.056 -0.101 -0.049 -0.116 0.034 -0.083 0.135 0.056 0.21 0.12 0.263 0.229 0.052 0.098 0.056 0.12 0.03 0.225a0.637 0.637 0 0 1 -0.083 0.18c-0.045 0.06 -0.049 0.071 -0.011 0.071 0.068 0 0.203 -0.064 0.251 -0.112 0.026 -0.03 0.064 -0.094 0.083 -0.15l0.037 -0.094 0.037 0.075c0.056 0.101 0.169 0.195 0.304 0.255 0.146 0.06 0.206 0.064 0.131 0.007 -0.052 -0.037 -0.15 -0.319 -0.116 -0.345a1.912 1.912 0 0 1 0.439 0.337c0.214 0.191 0.349 0.255 0.544 0.255 0.251 0 0.397 -0.217 0.285 -0.424 -0.064 -0.12 -0.21 -0.139 -0.3 -0.037 -0.037 0.049 -0.049 0.086 -0.037 0.139 0.015 0.06 0.011 0.068 -0.045 0.068 -0.075 0 -0.217 -0.094 -0.472 -0.307a3.825 3.825 0 0 0 -1.204 -0.701 2.64 2.64 0 0 0 -0.911 -0.049c-0.24 0.045 -0.525 0.184 -0.682 0.33 -0.274 0.263 -0.278 0.611 -0.011 0.93l0.075 0.09 -0.049 0.083a0.349 0.349 0 0 0 0.015 0.39c0.037 0.052 0.075 0.094 0.086 0.094 0.007 0 0.015 -0.034 0.019 -0.075 0.007 -0.101 0.052 -0.169 0.128 -0.195 0.068 -0.026 0.112 -0.011 0.42 0.112 0.326 0.128 0.862 0.135 1.433 0.022a1.597 1.597 0 0 1 0.75 0.007c0.27 0.112 0.33 0.401 0.135 0.619 -0.086 0.098 -0.165 0.135 -0.439 0.21a2.036 2.036 0 0 1 -0.731 0.056c-0.405 -0.004 -0.551 0.004 -0.713 0.037 -0.184 0.037 -0.292 0.041 -0.818 0.03l-0.611 -0.015 0.068 0.052a0.825 0.825 0 0 0 0.116 0.086c0.049 0.026 0.045 0.03 -0.022 0.056 -0.037 0.015 -0.128 0.026 -0.199 0.026h-0.124l-0.015 0.105a0.375 0.375 0 0 0 0 0.15c0.015 0.037 0.007 0.045 -0.03 0.03 -0.026 -0.011 -0.098 -0.03 -0.161 -0.041a1.001 1.001 0 0 1 -0.188 -0.06c-0.071 -0.037 -0.079 -0.037 -0.105 0.011 -0.022 0.037 -0.232 0.195 -0.263 0.195a1.001 1.001 0 0 0 -0.083 -0.281c-0.037 -0.079 -0.071 -0.169 -0.083 -0.195 -0.011 -0.041 -0.019 -0.045 -0.037 -0.011 -0.011 0.019 -0.026 0.075 -0.037 0.12a0.581 0.581 0 0 1 -0.068 0.172l-0.056 0.083 -0.037 -0.071c-0.037 -0.075 -0.098 -0.158 -0.12 -0.158 -0.007 0 -0.019 0.022 -0.026 0.056 -0.019 0.06 -0.165 0.236 -0.203 0.236 -0.011 0 -0.022 -0.049 -0.022 -0.112 0 -0.056 -0.011 -0.109 -0.026 -0.109s-0.026 0.019 -0.026 0.037c0 0.045 -0.124 0.188 -0.169 0.188 -0.015 0 -0.045 0.015 -0.064 0.037 -0.045 0.049 -0.083 0.041 -0.064 -0.015a0.337 0.337 0 0 0 -0.015 -0.142l-0.037 -0.12c-0.007 -0.019 -0.052 -0.011 -0.15 0.019 -0.15 0.049 -0.203 0.037 -0.124 -0.022 0.03 -0.022 0.075 -0.101 0.098 -0.172 0.026 -0.075 0.064 -0.139 0.083 -0.146 0.026 -0.007 0.026 0 -0.007 0.045a0.214 0.214 0 0 0 -0.041 0.098c0 0.019 -0.019 0.068 -0.037 0.109 -0.022 0.037 -0.037 0.075 -0.034 0.079s0.064 -0.019 0.131 -0.049l0.12 -0.06v0.052c0 0.03 0.015 0.105 0.034 0.169l0.034 0.112 0.083 -0.037c0.083 -0.037 0.161 -0.172 0.161 -0.281 0 -0.052 0.03 -0.045 0.045 0.011 0 0.015 0.022 0.079 0.037 0.139l0.037 0.105 0.056 -0.068c0.034 -0.037 0.071 -0.112 0.086 -0.161 0.03 -0.09 0.075 -0.131 0.075 -0.064 0 0.045 0.128 0.217 0.15 0.203 0.015 -0.007 0.037 -0.071 0.056 -0.142 0.037 -0.15 0.094 -0.247 0.131 -0.225 0.015 0.007 0.019 0.022 0.011 0.037 -0.007 0.007 0.022 0.105 0.068 0.21a95.925 95.925 0 0 1 0.098 0.236c0.015 0.037 0.03 0.037 0.124 -0.049 0.056 -0.052 0.112 -0.109 0.116 -0.128 0.011 -0.03 0.022 -0.026 0.075 0.007a0.938 0.938 0 0 0 0.356 0.105c0.007 -0.007 0.015 -0.075 0.015 -0.15l0.004 -0.139 0.075 0.015c0.037 0.011 0.124 0.011 0.188 0l0.112 -0.015 -0.101 -0.075c-0.056 -0.037 -0.112 -0.086 -0.128 -0.109 -0.011 -0.022 -0.064 -0.045 -0.12 -0.049 -0.154 -0.015 -0.427 -0.165 -0.427 -0.24 0 -0.015 0.037 0.011 0.083 0.052 0.105 0.094 0.247 0.15 0.375 0.15h0.09l-0.056 -0.075a0.446 0.446 0 0 1 -0.075 -0.195c-0.007 -0.112 -0.019 -0.128 -0.135 -0.206a1.313 1.313 0 0 1 -0.188 -0.161l-0.064 -0.071 -0.034 0.086c-0.019 0.049 -0.037 0.086 -0.049 0.086 -0.007 0 -0.045 -0.03 -0.075 -0.064a0.263 0.263 0 0 0 -0.075 -0.06c-0.011 0 -0.037 0.045 -0.068 0.101l-0.052 0.101 -0.037 -0.056a0.9 0.9 0 0 0 -0.112 -0.128c-0.045 -0.037 -0.064 -0.068 -0.049 -0.068s0.064 0.037 0.112 0.086l0.083 0.086 0.037 -0.064a0.225 0.225 0 0 0 0.019 -0.142c-0.015 -0.068 -0.011 -0.071 0.011 -0.026a0.6 0.6 0 0 0 0.112 0.112l0.083 0.068 0.056 -0.101c0.056 -0.105 0.056 -0.105 0.079 -0.041 0.037 0.079 0.281 0.281 0.487 0.397 0.037 0.019 0.022 -0.041 -0.037 -0.188a0.476 0.476 0 0 1 -0.03 -0.15c0 -0.068 -0.019 -0.098 -0.105 -0.165a0.409 0.409 0 0 1 -0.188 -0.315c-0.011 -0.064 -0.034 -0.131 -0.052 -0.154 -0.022 -0.037 -0.03 -0.015 -0.022 0.098 0.007 0.079 -0.004 0.176 -0.022 0.217l-0.03 0.075 -0.022 -0.064c-0.015 -0.034 -0.075 -0.094 -0.131 -0.131s-0.098 -0.075 -0.09 -0.083 0.068 0.026 0.131 0.075c0.101 0.079 0.12 0.086 0.135 0.052 0.015 -0.037 0 -0.21 -0.03 -0.33 -0.015 -0.06 -0.015 -0.06 0.06 0.015 0.052 0.052 0.083 0.12 0.109 0.232 0.03 0.142 0.045 0.169 0.176 0.285 0.079 0.071 0.15 0.124 0.154 0.12 0.007 -0.007 0.015 -0.188 0.022 -0.405 0.015 -0.416 0 -0.517 -0.101 -0.645l-0.052 -0.068 0.083 -0.086a0.6 0.6 0 0 0 0.176 -0.33l0.015 -0.101 -0.09 0.086c-0.075 0.071 -0.112 0.086 -0.199 0.086s-0.12 -0.015 -0.176 -0.075a0.75 0.75 0 0 0 -0.311 -0.18c-0.045 -0.015 -0.06 -0.007 -0.06 0.022 0 0.022 -0.022 0.083 -0.052 0.139l-0.052 0.098 -0.112 -0.112c-0.071 -0.064 -0.15 -0.12 -0.214 -0.135 -0.154 -0.037 -0.161 -0.037 -0.161 0.079 0 0.176 -0.075 0.21 -0.21 0.094 -0.105 -0.09 -0.188 -0.112 -0.386 -0.086l-0.15 0.015 0.026 0.068c0.022 0.056 0.019 0.083 -0.03 0.146 -0.079 0.105 -0.18 0.15 -0.337 0.15 -0.075 0 -0.165 0.015 -0.203 0.034s-0.135 0.037 -0.214 0.045c-0.075 0.007 -0.161 0.022 -0.188 0.03 -0.037 0.015 -0.037 0 -0.026 -0.083 0.019 -0.128 -0.075 -0.225 -0.214 -0.225 -0.184 0 -0.266 0.165 -0.195 0.382a1.688 1.688 0 0 1 0.037 0.142 0.862 0.862 0 0 0 0.195 0.247c0.098 0.098 0.188 0.199 0.203 0.225a0.337 0.337 0 0 0 0.112 0.094l0.083 0.045 -0.011 -0.09c-0.011 -0.098 0.007 -0.112 0.06 -0.041 0.019 0.022 0.068 0.064 0.105 0.086 0.064 0.037 0.075 0.037 0.075 0.007 0 -0.022 0.011 -0.071 0.026 -0.109l0.026 -0.068 0.049 0.094c0.026 0.052 0.112 0.169 0.191 0.263 0.154 0.176 0.251 0.375 0.203 0.42 -0.022 0.019 -0.075 0.019 -0.188 -0.004 -0.083 -0.015 -0.188 -0.026 -0.232 -0.019 -0.086 0.011 -0.094 0 -0.037 -0.068 0.056 -0.075 0.045 -0.086 -0.068 -0.086 -0.131 0 -0.457 -0.064 -0.585 -0.112 -0.12 -0.049 -0.15 -0.037 -0.188 0.079l-0.064 0.21 -0.037 0.112 0.135 -0.011a1.387 1.387 0 0 0 0.206 -0.037 0.225 0.225 0 0 1 0.083 -0.011c0.007 0.004 -0.011 0.049 -0.037 0.101l-0.052 0.09 0.083 -0.015c0.045 -0.011 0.112 -0.034 0.15 -0.052 0.068 -0.03 0.075 -0.03 0.128 0.056 0.064 0.101 0.112 0.098 0.124 -0.011 0.011 -0.112 0.049 -0.098 0.12 0.052 0.068 0.142 0.135 0.195 0.15 0.112 0.004 -0.03 0.037 -0.075 0.079 -0.105 0.083 -0.056 0.142 -0.037 0.176 0.049 0.037 0.094 -0.045 0.188 -0.278 0.33a1.613 1.613 0 0 0 -0.814 1.162c-0.071 0.443 0.15 0.9 0.585 1.234 0.21 0.158 0.544 0.322 0.521 0.263 -0.09 -0.274 -0.086 -0.787 0.004 -0.874 0.015 -0.015 0.011 0.037 -0.011 0.116 -0.075 0.296 -0.037 0.529 0.15 1.076 0.165 0.495 0.142 0.709 -0.098 0.848 -0.075 0.045 -0.124 0.052 -0.33 0.049 -0.225 0 -0.251 0 -0.322 0.06a0.589 0.589 0 0 0 -0.161 0.322c0 0.049 0.052 0.041 0.15 -0.015z"/><path d="m17.269 15.581 0.094 -0.06 0.064 0.06c0.083 0.079 0.184 0.075 0.263 -0.004 0.037 -0.037 0.068 -0.06 0.071 -0.056l0.034 0.06c0.019 0.034 0.06 0.049 0.135 0.056 0.086 0.004 0.112 0 0.15 -0.052l0.037 -0.064 0.094 0.06c0.255 0.165 0.39 -0.007 0.274 -0.349 -0.056 -0.172 -0.022 -0.27 0.161 -0.487 0.079 -0.094 0.142 -0.195 0.142 -0.225 0 -0.041 -0.015 -0.049 -0.12 -0.045 -0.098 0 -0.128 -0.011 -0.18 -0.068 -0.086 -0.094 -0.079 -0.203 0.015 -0.322l0.075 -0.094 -0.135 -0.09a2.239 2.239 0 0 1 -0.3 -0.266 0.964 0.964 0 0 0 -0.656 -0.337l-0.176 -0.019v0.135c0 0.169 0.083 0.334 0.3 0.611 0.247 0.315 0.263 0.364 0.274 0.776l0.011 0.349 -0.075 0.068c-0.064 0.06 -0.09 0.071 -0.3 0.083 -0.199 0.011 -0.244 0.022 -0.3 0.075a0.326 0.326 0 0 0 -0.128 0.199c-0.011 0.056 -0.007 0.068 0.034 0.068 0.026 0 0.09 -0.026 0.142 -0.06m-5.332 -0.9a0.217 0.217 0 0 0 0.037 -0.112c0 -0.037 0.022 -0.052 0.12 -0.068l0.116 -0.015 -0.075 -0.064c-0.094 -0.075 -0.105 -0.131 -0.022 -0.131s0.217 -0.083 0.24 -0.146c0.011 -0.03 0 -0.068 -0.015 -0.086 -0.045 -0.052 -0.131 -0.045 -0.146 0.015 -0.019 0.06 -0.045 0.06 -0.112 0 -0.094 -0.094 -0.098 -0.285 0 -0.397 0.041 -0.052 0.041 -0.052 -0.015 -0.109 -0.06 -0.06 -0.105 -0.172 -0.075 -0.203 0.007 -0.007 0.056 0 0.105 0.019 0.075 0.022 0.101 0.022 0.131 0 0.086 -0.071 -0.007 -0.161 -0.15 -0.139 -0.06 0.007 -0.083 0 -0.09 -0.03 -0.007 -0.022 -0.056 -0.052 -0.112 -0.068 -0.101 -0.026 -0.101 -0.026 -0.101 0.045 0 0.075 -0.045 0.09 -0.128 0.041 -0.068 -0.037 -0.131 -0.007 -0.131 0.064 0 0.068 0.064 0.098 0.188 0.09 0.09 -0.004 0.094 0.064 0.007 0.161l-0.064 0.075 0.049 0.071c0.075 0.105 0.068 0.281 -0.011 0.371l-0.064 0.068 -0.041 -0.056c-0.06 -0.075 -0.139 -0.071 -0.161 0.011 -0.011 0.052 0 0.075 0.068 0.135 0.045 0.037 0.112 0.068 0.146 0.068 0.086 0 0.083 0.071 -0.007 0.139l-0.075 0.056 0.112 0.015c0.06 0.011 0.112 0.026 0.112 0.037 0 0.049 0.075 0.195 0.098 0.195 0.015 0 0.045 -0.026 0.068 -0.056z"/><path d="M13.369 14.059c0.101 -0.037 0.319 -0.225 0.319 -0.266 0 -0.015 -0.06 -0.083 -0.135 -0.15 -0.15 -0.135 -0.319 -0.371 -0.364 -0.506 -0.022 -0.075 -0.131 -0.195 -0.439 -0.495l-0.409 -0.394 -0.116 0.03c-0.068 0.015 -0.146 0.03 -0.176 0.03 -0.056 0 -0.056 0 0.019 0.06l0.075 0.06 0.112 -0.06c0.101 -0.06 0.105 -0.06 0.116 -0.011 0.007 0.026 -0.007 0.075 -0.037 0.109 -0.026 0.034 -0.041 0.075 -0.037 0.086 0.011 0.011 -0.015 0.037 -0.056 0.06 -0.075 0.037 -0.131 0.161 -0.071 0.161 0.056 0 0.176 -0.15 0.161 -0.199 -0.007 -0.026 0 -0.052 0.007 -0.06 0.049 -0.026 0.045 0.09 0 0.15 -0.03 0.03 -0.045 0.068 -0.037 0.083 0.007 0.011 -0.019 0.037 -0.06 0.06 -0.075 0.037 -0.131 0.161 -0.071 0.161s0.176 -0.142 0.165 -0.195c-0.007 -0.026 -0.007 -0.056 0.004 -0.064 0.034 -0.015 0.049 0.075 0.022 0.12a0.086 0.086 0 0 0 0 0.083c0.026 0.049 0 0.139 -0.049 0.169 -0.019 0.011 -0.007 0.037 0.045 0.075 0.075 0.052 0.075 0.06 0.075 0.3 0 0.203 0.007 0.255 0.045 0.289 0.037 0.037 0.045 0.037 0.045 0s0.075 -0.09 0.131 -0.09c0.019 0 0.128 0.094 0.244 0.206s0.24 0.214 0.274 0.217l0.083 0.015c0.011 0 0.064 -0.011 0.116 -0.037zm-1.249 -0.979c0 -0.064 -0.135 -0.135 -0.296 -0.15 -0.131 -0.019 -0.131 -0.015 -0.131 0.049 0 0.052 0.019 0.075 0.112 0.112 0.142 0.064 0.315 0.056 0.315 -0.011"/><path d="M12.266 13.072c0.068 -0.06 0.098 -0.128 0.056 -0.128 -0.045 0 -0.165 0.105 -0.165 0.15 0 0.06 0.022 0.056 0.112 -0.022zm-0.139 -0.191c0.004 -0.037 -0.019 -0.06 -0.086 -0.094 -0.15 -0.064 -0.322 -0.098 -0.364 -0.064 -0.079 0.064 -0.026 0.146 0.098 0.161 0.052 0.004 0.12 0.019 0.154 0.034 0.098 0.037 0.188 0.019 0.199 -0.037m0 -0.199c0.007 -0.049 -0.026 -0.068 -0.3 -0.165 -0.206 -0.075 -0.296 -0.037 -0.229 0.086 0.022 0.041 0.06 0.06 0.146 0.075 0.064 0.007 0.15 0.026 0.191 0.041 0.112 0.037 0.18 0.022 0.188 -0.037zm0.135 -0.184c0.041 -0.041 0.075 -0.09 0.075 -0.112 0 -0.056 -0.161 0.049 -0.184 0.124 -0.022 0.086 0.019 0.083 0.112 -0.011zm-0.135 -0.011c0.007 -0.06 -0.09 -0.112 -0.285 -0.154 -0.146 -0.034 -0.21 -0.015 -0.199 0.052 0.007 0.037 0.056 0.064 0.188 0.105 0.221 0.068 0.285 0.068 0.296 -0.004m0.188 -0.278c0.255 -0.112 0.274 -0.394 0.037 -0.469 -0.098 -0.03 -0.158 -0.011 -0.195 0.052 -0.03 0.052 -0.011 0.142 0.026 0.142 0.015 0 0.026 0.019 0.026 0.037 0 0.101 -0.382 0.142 -0.54 0.064 -0.056 -0.026 -0.075 -0.101 -0.034 -0.101 0.037 0 0.06 -0.075 0.041 -0.124 -0.022 -0.075 -0.098 -0.098 -0.199 -0.068 -0.236 0.06 -0.229 0.337 0.011 0.45a1.26 1.26 0 0 0 0.825 0.015"/><path d="M12.161 11.992c0.015 -0.015 0.007 -0.037 -0.015 -0.052 -0.052 -0.041 -0.049 -0.105 0.007 -0.176 0.045 -0.052 0.049 -0.135 0.064 -0.941 0.026 -1.391 0.131 -2.438 0.266 -2.692 0.056 -0.098 0.049 -0.098 -0.094 0a1.35 1.35 0 0 0 -0.439 0.51c-0.232 0.431 -0.311 1.012 -0.311 2.257 0 0.705 0.004 0.799 0.045 0.862 0.037 0.068 0.037 0.09 0.015 0.158 -0.019 0.041 -0.026 0.086 -0.019 0.094 0.052 0.049 0.427 0.037 0.48 -0.019m2.104 -1.327c0.011 -0.011 -0.007 -0.075 -0.037 -0.135 -0.045 -0.098 -0.064 -0.112 -0.128 -0.112a2.438 2.438 0 0 1 -0.862 -0.24c-0.191 -0.086 -0.263 -0.105 -0.281 -0.083 -0.06 0.056 0.037 0.188 0.188 0.259a2.4 2.4 0 0 0 0.686 0.139c0.101 0 0.105 0 0.045 0.086l-0.037 0.06h0.112l0.188 0.022c0.112 0.026 0.112 0.026 0.128 0.004"/><path fill="#000001" d="M15.45 11.291c0 -0.037 -0.109 -0.131 -0.214 -0.195 -0.086 -0.049 -0.101 -0.052 -0.101 -0.011 0 0.06 -0.052 0.214 -0.075 0.214 -0.011 0 -0.03 -0.03 -0.037 -0.064 -0.011 -0.037 -0.052 -0.112 -0.094 -0.161l-0.075 -0.094 -0.052 0.086c-0.052 0.083 -0.146 0.161 -0.188 0.161 -0.007 0 -0.011 -0.045 0 -0.094 0.004 -0.06 0 -0.105 -0.019 -0.112 -0.015 -0.011 -0.03 -0.007 -0.03 0.007 0 0.03 -0.128 0.172 -0.15 0.172 -0.015 0 -0.03 -0.037 -0.037 -0.09l-0.03 -0.18c-0.007 -0.045 0.011 -0.015 0.037 0.075l0.06 0.154 0.06 -0.094a0.412 0.412 0 0 0 0.06 -0.128c0 -0.019 0.011 -0.026 0.026 -0.019s0.034 0.071 0.041 0.139l0.019 0.128 0.068 -0.075a1.087 1.087 0 0 0 0.098 -0.12c0.026 -0.045 0.03 -0.045 0.086 0 0.03 0.03 0.079 0.094 0.109 0.146s0.056 0.09 0.06 0.086l0.022 -0.12 0.015 -0.112c0.004 -0.019 0.203 0.112 0.278 0.176 0.045 0.041 0.09 0.071 0.098 0.064s0.015 -0.068 0.015 -0.139c0 -0.105 -0.011 -0.135 -0.075 -0.191 -0.075 -0.068 -0.075 -0.068 -0.105 -0.019 -0.037 0.064 -0.079 0.064 -0.079 0 0 -0.045 -0.142 -0.221 -0.176 -0.221 -0.011 0 -0.041 0.037 -0.068 0.086s-0.056 0.086 -0.064 0.086c-0.037 0 -0.236 -0.225 -0.236 -0.263 0 -0.03 0.015 -0.022 0.049 0.03a0.787 0.787 0 0 0 0.116 0.135c0.075 0.068 0.105 0.052 0.135 -0.079 0.011 -0.037 0.026 -0.068 0.037 -0.068 0.03 0 0.203 0.184 0.225 0.244l0.026 0.06 0.019 -0.068c0.022 -0.083 0.049 -0.083 0.086 -0.007 0.015 0.03 0.09 0.098 0.165 0.142l0.139 0.09 0.026 -0.09c0.015 -0.049 0.037 -0.075 0.045 -0.06 0.015 0.019 -0.022 0.169 -0.049 0.199 0 0.004 -0.049 -0.022 -0.098 -0.056l-0.094 -0.068v0.12c0 0.064 -0.007 0.142 -0.015 0.172 -0.019 0.06 -0.064 0.075 -0.064 0.022zm-0.694 -0.952c-0.165 -0.135 -0.188 -0.165 -0.188 -0.232l0.004 -0.068 0.011 0.064c0.007 0.037 0.052 0.098 0.105 0.142l0.098 0.075 0.056 -0.068c0.034 -0.037 0.06 -0.083 0.06 -0.098 0 -0.045 0.007 -0.041 0.12 0.056 0.098 0.086 0.101 0.086 0.112 0.03 0.011 -0.03 0.007 -0.09 0 -0.131 -0.037 -0.112 -0.03 -0.128 0.019 -0.06l0.09 0.105c0.037 0.041 0.041 0.041 0.056 -0.011 0.011 -0.034 0.019 -0.09 0.019 -0.128v-0.071l0.086 0.101c0.086 0.098 0.094 0.101 0.116 0.052 0.019 -0.026 0.03 -0.09 0.03 -0.139 0 -0.068 0.007 -0.083 0.022 -0.06 0.03 0.045 0.011 0.158 -0.041 0.255l-0.037 0.075 -0.049 -0.079c-0.064 -0.098 -0.086 -0.098 -0.124 0.007 -0.037 0.101 -0.064 0.109 -0.101 0.03 -0.022 -0.049 -0.03 -0.041 -0.045 0.064l-0.019 0.112 -0.112 -0.086 -0.112 -0.086 -0.056 0.056c-0.026 0.034 -0.049 0.075 -0.049 0.09 0 0.037 -0.03 0.037 -0.071 0m1.462 -0.51c-0.056 -0.052 -0.098 -0.105 -0.09 -0.112 0.011 -0.011 0.019 -0.015 0.022 -0.007a2.512 2.512 0 0 0 0.112 0.112c0.128 0.135 0.101 0.139 -0.041 0.007zm-1.95 -0.203c-0.052 -0.075 -0.049 -0.12 0.019 -0.203 0.045 -0.056 0.068 -0.064 0.15 -0.052 0.056 0.004 0.172 0.052 0.259 0.105a0.795 0.795 0 0 0 0.412 0.112l-0.064 -0.105c-0.083 -0.124 -0.083 -0.139 0.015 -0.064 0.098 0.079 0.214 0.101 0.476 0.094l0.128 -0.004 -0.075 -0.075c-0.101 -0.101 -0.071 -0.112 0.045 -0.011 0.105 0.094 0.101 0.101 -0.128 0.124a0.862 0.862 0 0 1 -0.285 -0.019c-0.128 -0.037 -0.135 -0.034 -0.109 0.007 0.015 0.026 0.037 0.045 0.049 0.045 0.015 0 0.026 0.015 0.026 0.03 0 0.049 -0.278 0.004 -0.412 -0.06 -0.3 -0.154 -0.337 -0.169 -0.412 -0.146a0.161 0.161 0 0 0 -0.09 0.086c-0.049 0.124 0.128 0.221 0.199 0.112 0.022 -0.034 0.019 -0.052 -0.019 -0.094 -0.052 -0.052 -0.045 -0.06 0.022 -0.037 0.049 0.019 0.052 0.135 0.007 0.18 -0.049 0.049 -0.169 0.037 -0.214 -0.026"/><path fill="#000001" d="M15.465 9.322c-0.037 -0.037 -0.007 -0.045 0.161 -0.049 0.21 -0.004 0.337 -0.037 0.487 -0.135 0.12 -0.075 0.154 -0.06 0.037 0.019 -0.101 0.075 -0.263 0.128 -0.424 0.142l-0.191 0.026c-0.03 0.007 -0.064 0.004 -0.075 -0.004z"/></g></g></svg>