<?xml version="1.0" encoding="UTF-8"?>
<svg xmlns="http://www.w3.org/2000/svg" xmlns:xlink="http://www.w3.org/1999/xlink" width="24px" height="16px" viewBox="0 0 32 16" version="1.1">
<g id="surface1">
<rect x="0" y="0" width="32" height="16" style="fill:rgb(13.72549%,61.960784%,27.45098%);fill-opacity:1;stroke:none;"/>
<path style=" stroke:none;fill-rule:nonzero;fill:rgb(0%,0%,0%);fill-opacity:1;" d="M 0 0 L 32 0 L 32 12 L 0 12 Z M 0 0 "/>
<path style=" stroke:none;fill-rule:nonzero;fill:rgb(90.588235%,0%,7.45098%);fill-opacity:1;" d="M 0 0 L 32 0 L 32 4 L 0 4 Z M 0 0 "/>
<path style=" stroke:none;fill-rule:nonzero;fill:rgb(100%,100%,100%);fill-opacity:1;" d="M 18 8 C 18 9.105469 17.105469 10 16 10 C 14.894531 10 14 9.105469 14 8 C 14 6.894531 14.894531 6 16 6 C 17.105469 6 18 6.894531 18 8 Z M 18 8 "/>
<path style=" stroke:none;fill-rule:nonzero;fill:rgb(0%,0%,0%);fill-opacity:1;" d="M 18.140625 8 C 18.140625 8.960938 17.363281 9.738281 16.40625 9.738281 C 15.445312 9.738281 14.667969 8.960938 14.667969 8 C 14.667969 7.039062 15.445312 6.261719 16.40625 6.261719 C 17.363281 6.261719 18.140625 7.039062 18.140625 8 Z M 18.140625 8 "/>
<path style=" stroke:none;fill-rule:nonzero;fill:rgb(100%,100%,100%);fill-opacity:1;" d="M 16.972656 8 L 19.664062 7.125 L 18 9.414062 L 18 6.585938 L 19.664062 8.875 Z M 16.972656 8 "/>
</g>
</svg>
