<?xml version="1.0" encoding="UTF-8"?>
<svg xmlns="http://www.w3.org/2000/svg" xmlns:xlink="http://www.w3.org/1999/xlink" width="24px" height="16px" viewBox="0 0 32 16" version="1.1">
<g id="surface1">
<rect x="0" y="0" width="32" height="16" style="fill:rgb(78.431373%,6.27451%,18.039216%);fill-opacity:1;stroke:none;"/>
<path style=" stroke:none;fill-rule:nonzero;fill:rgb(100%,81.960784%,0%);fill-opacity:1;" d="M 0 0 L 21.332031 0 L 21.332031 16 L 0 16 Z M 0 0 "/>
<path style=" stroke:none;fill-rule:nonzero;fill:rgb(0%,23.921569%,64.705882%);fill-opacity:1;" d="M 0 0 L 10.667969 0 L 10.667969 16 L 0 16 Z M 0 0 "/>
<path style=" stroke:none;fill-rule:nonzero;fill:rgb(0%,0%,0%);fill-opacity:1;" d="M 15.070312 3.257812 C 15.011719 3.257812 14.960938 3.273438 14.933594 3.296875 C 14.980469 3.308594 15.011719 3.351562 15.011719 3.402344 L 15.011719 3.535156 L 14.882812 3.535156 C 14.828125 3.535156 14.789062 3.503906 14.773438 3.457031 C 14.75 3.484375 14.734375 3.535156 14.734375 3.59375 C 14.734375 3.648438 14.75 3.699219 14.773438 3.730469 C 14.785156 3.683594 14.828125 3.648438 14.882812 3.648438 L 15.011719 3.648438 L 15.011719 4.285156 C 15.011719 4.332031 14.984375 4.375 14.9375 4.390625 C 15 4.398438 15.054688 4.484375 15.070312 4.527344 C 15.085938 4.484375 15.140625 4.398438 15.203125 4.390625 C 13.992188 4.417969 12.984375 3.460938 12.953125 2.25 C 12.925781 1.035156 13.882812 0.03125 15.097656 0 L 15.097656 -0.632812 L 15.226562 -0.632812 C 15.28125 -0.632812 15.324219 -0.601562 15.335938 -0.554688 C 15.359375 -0.585938 15.375 -0.632812 15.375 -0.691406 C 15.375 -0.75 15.359375 -0.800781 15.335938 -0.828125 C 15.324219 -0.78125 15.28125 -0.75 15.226562 -0.75 L 15.097656 -0.75 L 15.097656 -0.878906 C 15.097656 -0.933594 15.128906 -0.972656 15.175781 -0.988281 C 15.148438 -1.011719 15.097656 -1.027344 15.039062 -1.027344 Z M 15.070312 3.257812 "/>
<path style=" stroke:none;fill-rule:nonzero;fill:rgb(100%,81.960784%,0%);fill-opacity:1;" d="M 15.070312 3.285156 C 15.039062 3.285156 15.015625 3.289062 14.992188 3.296875 C 15.019531 3.324219 15.039062 3.359375 15.039062 3.402344 L 15.039062 3.535156 C 15.039062 3.539062 15.039062 3.539062 15.039062 3.539062 L 15.039062 3.5625 L 15.019531 3.5625 C 15.015625 3.5625 15.015625 3.5625 15.011719 3.5625 L 14.882812 3.5625 C 14.839844 3.5625 14.800781 3.542969 14.777344 3.515625 C 14.769531 3.535156 14.761719 3.5625 14.761719 3.59375 C 14.761719 3.621094 14.769531 3.648438 14.777344 3.671875 C 14.800781 3.640625 14.839844 3.621094 14.882812 3.621094 L 15.039062 3.621094 C 15.039062 3.625 15.039062 3.628906 15.039062 3.628906 L 15.039062 3.644531 C 15.039062 3.644531 15.039062 3.648438 15.039062 3.648438 L 15.039062 4.285156 C 15.039062 4.324219 15.019531 4.355469 14.992188 4.382812 C 13.78125 7.3125 10.425781 8.707031 7.496094 7.496094 C 4.566406 6.285156 3.171875 2.929688 4.382812 0 C 4.394531 0.015625 4.402344 0.03125 4.410156 0.046875 C 4.417969 0.03125 4.425781 0.015625 4.4375 0 C 4.4375 1.226562 3.445312 2.21875 2.21875 2.21875 C 0.992188 2.21875 0 1.226562 0 0 C -0.0273438 -0.0273438 -0.0507812 -0.0585938 -0.0507812 -0.101562 L -0.0507812 -0.761719 L -0.0273438 -0.761719 C -0.0273438 -0.761719 -0.0234375 -0.761719 -0.0234375 -0.761719 L 0.109375 -0.761719 C 0.152344 -0.761719 0.1875 -0.742188 0.214844 -0.714844 C 0.222656 -0.734375 0.226562 -0.761719 0.226562 -0.792969 C 0.226562 -0.820312 0.222656 -0.847656 0.214844 -0.871094 C 0.191406 -0.839844 0.152344 -0.820312 0.109375 -0.820312 L -0.0234375 -0.820312 C -0.0234375 -0.820312 -0.0273438 -0.820312 -0.0273438 -0.820312 L -0.046875 -0.820312 L -0.046875 -0.84375 C -0.046875 -0.84375 -0.0507812 -0.847656 -0.0507812 -0.847656 L -0.0507812 -0.980469 C -0.0507812 -1.023438 -0.03125 -1.058594 0 -1.085938 C -0.0234375 -1.09375 -0.0507812 -1.097656 -0.078125 -1.097656 "/>
<path style=" stroke:none;fill-rule:nonzero;fill:rgb(0%,0%,0%);fill-opacity:1;" d="M 16.722656 5.582031 C 16.640625 5.523438 16.574219 5.460938 16.527344 5.382812 C 16.414062 5.203125 16.367188 4.980469 16.367188 4.753906 C 16.367188 4.65625 16.472656 4.550781 16.472656 4.472656 C 16.472656 4.355469 16.464844 4.285156 16.464844 4.285156 C 16.5 4.289062 16.566406 4.355469 16.566406 4.355469 C 16.566406 4.355469 16.566406 4.164062 16.503906 4.128906 C 16.503906 4.128906 16.527344 4.101562 16.617188 4.101562 C 16.59375 4.035156 16.46875 3.957031 16.46875 3.957031 C 16.476562 3.945312 16.488281 3.9375 16.5 3.929688 C 16.53125 3.910156 16.578125 3.902344 16.609375 3.894531 C 16.574219 3.886719 16.535156 3.875 16.488281 3.859375 C 16.382812 3.828125 16.261719 3.777344 16.148438 3.722656 C 15.9375 3.621094 15.78125 3.617188 15.691406 3.617188 C 15.628906 3.617188 15.535156 3.617188 15.480469 3.652344 C 15.429688 3.6875 15.433594 3.730469 15.417969 3.746094 C 15.375 3.78125 15.304688 3.78125 15.269531 3.78125 C 15.050781 3.78125 15.039062 4.015625 15.039062 4.015625 C 15.039062 4.015625 15.097656 3.929688 15.199219 3.929688 C 15.363281 3.929688 15.488281 4.023438 15.488281 4.054688 C 15.488281 4.070312 15.472656 4.070312 15.472656 4.070312 C 15.363281 4.070312 15.199219 4.007812 15.113281 4.007812 L 15.113281 4.050781 C 15.304688 4.117188 15.503906 4.210938 15.503906 4.632812 C 15.503906 4.898438 15.472656 5.171875 15.339844 5.382812 C 15.292969 5.460938 15.222656 5.523438 15.144531 5.582031 L 15.933594 5.722656 Z M 16.722656 5.582031 "/>
<path style=" stroke:none;fill-rule:nonzero;fill:rgb(0%,0%,0%);fill-opacity:1;" d="M 15.933594 5.402344 L 15.144531 5.582031 C 15.109375 5.570312 14.9375 5.519531 14.820312 5.453125 C 14.613281 5.335938 14.503906 5.222656 14.257812 5.210938 L 14.257812 5.019531 C 14.257812 4.921875 14.292969 4.828125 14.292969 4.734375 C 14.1875 4.707031 13.898438 4.351562 13.632812 4.195312 C 13.238281 4.449219 12.933594 4.867188 12.933594 5.058594 C 12.933594 5.058594 12.945312 9.191406 12.933594 10.632812 C 12.933594 10.714844 12.882812 10.832031 12.882812 10.832031 C 13.027344 10.773438 13.289062 10.414062 13.34375 10.277344 L 13.34375 10.339844 C 13.5625 10.242188 13.722656 9.980469 13.792969 9.847656 C 13.792969 9.867188 13.796875 9.914062 13.796875 9.914062 C 13.992188 9.746094 14.238281 8.742188 14.238281 8.742188 L 14.648438 9.144531 C 14.648438 9.144531 14.5 9.449219 14.441406 9.5 C 14.441406 9.5 14.480469 9.507812 14.523438 9.507812 C 14.496094 9.546875 14.289062 9.84375 14.226562 9.953125 C 14.164062 10.058594 14.121094 10.011719 14.03125 10.011719 C 13.953125 10.011719 13.777344 10.136719 13.75 10.1875 C 13.71875 10.238281 13.695312 10.300781 13.695312 10.355469 C 13.695312 10.414062 13.757812 10.492188 13.757812 10.492188 C 13.761719 10.464844 13.773438 10.453125 13.773438 10.453125 C 13.773438 10.453125 13.933594 10.652344 13.957031 10.679688 C 13.976562 10.699219 14.058594 10.714844 14.085938 10.6875 C 14.160156 10.621094 14.230469 10.574219 14.292969 10.480469 C 14.328125 10.429688 14.332031 10.375 14.367188 10.324219 C 14.496094 10.148438 14.75 9.8125 14.808594 9.734375 C 14.8125 9.753906 14.8125 9.773438 14.816406 9.792969 C 14.882812 9.664062 15.199219 9.410156 15.199219 9.410156 L 15.53125 9.5625 C 15.53125 9.5625 14.914062 10.976562 14.367188 11.195312 C 14.367188 11.195312 14.601562 11.296875 14.894531 11.449219 C 13.171875 7.953125 14.230469 3.726562 17.398438 1.453125 C 20.566406 -0.816406 24.910156 -0.460938 27.667969 2.296875 C 30.421875 5.050781 30.78125 9.398438 28.507812 12.566406 C 26.238281 15.734375 22.007812 16.792969 18.515625 15.066406 C 18.6875 14.832031 18.859375 14.5625 18.859375 14.5625 C 18.871094 14.632812 18.78125 14.851562 18.625 15.117188 C 18.59375 15.171875 18.5625 15.226562 18.523438 15.28125 C 21.3125 16.28125 22.9375 19.179688 22.335938 22.074219 C 21.734375 24.972656 19.085938 26.984375 16.132812 26.789062 C 13.179688 26.59375 10.824219 24.25 10.609375 21.300781 C 10.394531 18.347656 12.386719 15.6875 15.28125 15.066406 C 15.570312 15.242188 15.84375 15.441406 15.945312 15.625 L 16.015625 15.449219 L 15.945312 15.269531 L 15.945312 5.640625 L 15.980469 5.550781 Z M 15.933594 5.402344 "/>
<path style=" stroke:none;fill-rule:nonzero;fill:rgb(67.843137%,48.627451%,34.901961%);fill-opacity:1;" d="M 15.933594 11.863281 C 15.832031 11.75 15.617188 11.617188 15.375 11.492188 C 15.667969 10.96875 15.8125 10.144531 15.742188 9.980469 C 15.742188 9.980469 15.625 10.410156 15.476562 10.652344 C 15.34375 10.878906 15.175781 11.132812 15.015625 11.320312 C 14.886719 11.261719 14.757812 11.214844 14.648438 11.183594 C 15.128906 10.8125 15.621094 9.585938 15.621094 9.585938 L 15.113281 9.351562 C 15.113281 9.351562 14.921875 9.574219 14.859375 9.613281 C 14.859375 9.613281 14.832031 9.503906 14.816406 9.464844 C 14.816406 9.464844 14.746094 9.519531 14.703125 9.523438 C 14.703125 9.523438 14.691406 9.445312 14.683594 9.398438 C 14.632812 9.429688 14.550781 9.425781 14.550781 9.425781 C 14.625 9.390625 14.710938 9.175781 14.710938 9.175781 L 14.226562 8.53125 C 14.226562 8.53125 14.054688 9.351562 13.859375 9.519531 L 13.859375 5.988281 L 14.011719 6.132812 L 14.246094 5.914062 L 14.246094 5.75 L 14.039062 5.941406 L 14.039062 5.441406 C 12.539062 6.785156 10.230469 6.65625 8.886719 5.152344 C 7.542969 3.648438 7.675781 1.34375 9.175781 0 C 9.210938 0.0585938 9.320312 0.238281 9.445312 0.347656 C 9.464844 0.261719 9.605469 0.179688 9.605469 0.179688 C 9.605469 0.179688 9.652344 0.316406 9.726562 0.347656 C 9.753906 0.300781 9.914062 0.199219 9.914062 0.199219 C 9.914062 0.199219 9.777344 0.21875 9.722656 0.269531 C 9.675781 0.257812 9.664062 0.0742188 9.664062 0.0742188 C 9.664062 0.0742188 9.464844 0.167969 9.429688 0.238281 C 9.390625 0.230469 9.332031 0.078125 9.308594 0.0195312 C 9.304688 2.585938 7.21875 4.660156 4.65625 4.65625 C 2.089844 4.648438 0.0117188 2.566406 0.0195312 0 C 0.0742188 0 0.148438 0.0273438 0.222656 0.0625 C 0.308594 0.101562 0.394531 0.152344 0.472656 0.1875 C 0.574219 0.234375 0.726562 0.242188 0.769531 0.242188 C 0.71875 0.28125 0.664062 0.3125 0.601562 0.34375 C 0.601562 0.34375 0.839844 0.339844 1.007812 0.257812 C 1.066406 0.21875 1.128906 0.179688 1.183594 0.132812 C 1.160156 0.199219 1.125 0.273438 1.070312 0.339844 C 1.3125 0.316406 1.4375 0.175781 1.472656 0.128906 C 1.488281 0.171875 1.515625 0.238281 1.5625 0.296875 L 1.652344 0.296875 L 1.652344 6.34375 Z M 14.121094 4.753906 L 14.125 4.863281 L 14.125 5.195312 C 14.035156 5.167969 13.921875 5.019531 13.867188 4.941406 L 13.867188 4.898438 C 13.867188 4.855469 13.894531 4.824219 13.914062 4.804688 L 13.859375 4.785156 C 13.839844 4.808594 13.816406 4.84375 13.816406 4.890625 L 13.816406 4.914062 L 13.65625 5.085938 L 13.5 4.847656 L 13.5 4.792969 C 13.5 4.75 13.527344 4.707031 13.554688 4.679688 L 13.5 4.660156 C 13.472656 4.695312 13.445312 4.738281 13.445312 4.785156 L 13.445312 4.832031 C 8.277344 104.214844 -76.136719 180.796875 -175.550781 176.292969 C -274.96875 171.785156 -352.113281 87.886719 -348.269531 -11.558594 C -344.429688 -111.003906 -261.046875 -188.703125 -161.578125 -185.527344 C -62.109375 -182.351562 16.144531 -99.488281 13.632812 0 L 13.542969 -0.199219 C 13.652344 -0.351562 13.832031 -0.519531 14 -0.644531 C 14 -0.644531 14.363281 -0.308594 14.488281 -0.265625 Z M 13.195312 5.074219 L 13.195312 5.347656 L 13.066406 5.464844 L 13.066406 5.058594 C 13.066406 5.019531 13.082031 4.972656 13.109375 4.921875 Z M 13.195312 5.074219 "/>
<path style=" stroke:none;fill-rule:nonzero;fill:rgb(67.843137%,48.627451%,34.901961%);fill-opacity:1;" d="M 13.589844 5.179688 L 13.589844 5.347656 L 13.445312 5.488281 L 13.445312 4.957031 Z M 13.390625 5.484375 L 13.246094 5.347656 L 13.246094 5.152344 L 13.390625 4.996094 Z M 14.0625 5.28125 C 14.027344 5.328125 13.9375 5.445312 13.839844 5.496094 L 13.839844 5.03125 C 13.863281 5.070312 13.964844 5.234375 14.0625 5.28125 Z M 13.789062 5.054688 L 13.789062 5.484375 L 13.644531 5.347656 L 13.644531 5.195312 Z M 13.191406 5.515625 L 13.191406 5.941406 L 13.066406 5.824219 L 13.066406 5.632812 Z M 13.390625 5.652344 L 13.390625 5.804688 L 13.246094 5.941406 L 13.246094 5.515625 Z M 13.589844 5.515625 L 13.589844 5.941406 L 13.445312 5.804688 L 13.445312 5.652344 Z M 13.789062 5.652344 L 13.789062 5.804688 L 13.644531 5.941406 L 13.644531 5.515625 Z M 13.988281 5.941406 L 13.839844 5.804688 L 13.839844 5.660156 C 13.890625 5.632812 13.941406 5.574219 13.988281 5.515625 Z M 13.617188 6.132812 L 13.769531 5.988281 L 13.769531 9.519531 C 13.769531 9.519531 13.78125 9.695312 13.789062 9.808594 L 13.460938 10.140625 L 13.460938 5.988281 Z M 13.375 10.007812 C 13.375 10.121094 13.167969 10.386719 13.066406 10.445312 L 13.066406 5.988281 L 13.21875 6.132812 L 13.375 5.988281 Z M 13.375 10.007812 "/>
<path style=" stroke:none;fill-rule:nonzero;fill:rgb(78.431373%,6.27451%,18.039216%);fill-opacity:1;" d="M 14.660156 9.625 L 14.769531 9.546875 C 14.769531 9.546875 14.777344 9.585938 14.789062 9.636719 C 14.738281 9.703125 14.460938 10.082031 14.324219 10.265625 C 14.292969 10.3125 14.261719 10.429688 14.261719 10.429688 C 14.261719 10.429688 14.210938 10.40625 14.210938 10.363281 C 14.210938 10.320312 14.21875 10.269531 14.21875 10.269531 C 14.21875 10.269531 14.179688 10.3125 14.117188 10.3125 C 14.117188 10.261719 14.214844 10.207031 14.21875 10.132812 C 14.144531 10.1875 14.078125 10.160156 13.988281 10.1875 C 13.894531 10.214844 13.867188 10.257812 13.835938 10.253906 C 13.820312 10.253906 13.804688 10.222656 13.8125 10.207031 C 13.824219 10.171875 13.941406 10.085938 14.023438 10.070312 C 14.042969 10.066406 14.199219 10.105469 14.230469 10.054688 C 14.359375 9.855469 14.570312 9.53125 14.59375 9.5 C 14.605469 9.496094 14.617188 9.492188 14.628906 9.488281 C 14.628906 9.488281 14.625 9.589844 14.660156 9.625 Z M 14.660156 9.625 "/>
<path style=" stroke:none;fill-rule:nonzero;fill:rgb(78.431373%,6.27451%,18.039216%);fill-opacity:1;" d="M 13.933594 10.246094 C 13.9375 10.253906 13.9375 10.265625 13.933594 10.273438 L 13.882812 10.316406 C 13.875 10.320312 13.863281 10.320312 13.855469 10.3125 C 13.851562 10.304688 13.851562 10.296875 13.859375 10.289062 L 13.910156 10.246094 C 11.078125 11.246094 7.976562 9.761719 6.976562 6.933594 C 5.976562 4.101562 7.460938 1 10.289062 0 C 10.292969 0 10.296875 0.00390625 10.300781 0.0078125 Z M 14.011719 10.300781 C 14.023438 10.320312 14.023438 10.34375 14.007812 10.359375 L 13.882812 10.464844 C 13.867188 10.480469 13.84375 10.476562 13.828125 10.460938 C 13.8125 10.441406 13.8125 10.417969 13.828125 10.402344 L 13.953125 10.296875 C 11.109375 11.277344 8.011719 9.765625 7.03125 6.921875 C 6.050781 4.078125 7.558594 0.980469 10.402344 0 C 10.414062 0 10.429688 0.00390625 10.4375 0.015625 Z M 14.082031 10.386719 C 14.097656 10.402344 14.09375 10.429688 14.078125 10.441406 L 13.953125 10.550781 C 13.9375 10.5625 13.914062 10.5625 13.898438 10.542969 C 13.882812 10.527344 13.882812 10.5 13.898438 10.488281 L 14.023438 10.378906 C 11.15625 11.355469 8.042969 9.824219 7.066406 6.957031 C 6.089844 4.09375 7.621094 0.976562 10.488281 0 C 10.5 0 10.511719 0.00390625 10.523438 0.015625 Z M 14.125 10.453125 C 11.238281 14.347656 5.738281 15.167969 1.84375 12.28125 C -2.050781 9.394531 -2.871094 3.894531 0.015625 0 C 0.03125 0.015625 0.03125 0.0429688 0.0117188 0.0585938 L -0.109375 0.164062 C -0.125 0.179688 -0.152344 0.175781 -0.167969 0.160156 C -0.183594 0.140625 -0.183594 0.117188 -0.164062 0.101562 L -0.0390625 -0.0078125 C -0.0351562 -0.0117188 -0.0273438 -0.015625 -0.0195312 -0.015625 Z M 14.125 10.453125 "/>
<path style=" stroke:none;fill-rule:nonzero;fill:rgb(0%,0%,0%);fill-opacity:1;" d="M 15.933594 5.402344 L 16.722656 5.582031 C 16.757812 5.570312 16.925781 5.519531 17.042969 5.453125 C 17.253906 5.335938 17.359375 5.222656 17.609375 5.210938 L 17.609375 5.019531 C 17.609375 4.921875 17.570312 4.828125 17.570312 4.734375 C 17.675781 4.707031 17.964844 4.351562 18.234375 4.195312 C 18.628906 4.449219 18.933594 4.867188 18.933594 5.058594 C 18.933594 5.058594 18.917969 9.191406 18.933594 10.632812 C 18.933594 10.714844 18.980469 10.832031 18.980469 10.832031 C 18.839844 10.773438 18.574219 10.414062 18.519531 10.277344 L 18.519531 10.339844 C 18.300781 10.242188 18.144531 9.980469 18.074219 9.847656 C 18.070312 9.867188 18.066406 9.914062 18.066406 9.914062 C 17.875 9.746094 17.628906 8.742188 17.628906 8.742188 L 17.214844 9.144531 C 17.214844 9.144531 17.363281 9.449219 17.421875 9.5 C 17.421875 9.5 17.382812 9.507812 17.339844 9.507812 C 17.367188 9.546875 17.574219 9.84375 17.640625 9.953125 C 17.699219 10.058594 17.742188 10.011719 17.835938 10.011719 C 17.914062 10.011719 18.085938 10.136719 18.117188 10.1875 C 18.148438 10.238281 18.167969 10.300781 18.167969 10.355469 C 18.167969 10.414062 18.109375 10.492188 18.109375 10.492188 C 18.101562 10.464844 18.089844 10.453125 18.089844 10.453125 C 18.089844 10.453125 17.929688 10.652344 17.90625 10.679688 C 17.886719 10.699219 17.804688 10.714844 17.777344 10.6875 C 17.703125 10.621094 17.636719 10.574219 17.570312 10.480469 C 17.539062 10.429688 17.535156 10.375 17.496094 10.324219 C 17.371094 10.148438 17.117188 9.8125 17.058594 9.734375 C 17.054688 9.753906 17.050781 9.773438 17.046875 9.792969 C 16.980469 9.664062 16.664062 9.410156 16.664062 9.410156 L 16.335938 9.5625 C 16.335938 9.5625 16.953125 10.976562 17.5 11.195312 C 17.5 11.195312 17.261719 11.296875 16.96875 11.449219 C 18.691406 7.953125 17.632812 3.726562 14.464844 1.453125 C 11.296875 -0.816406 6.953125 -0.460938 4.199219 2.296875 C 1.441406 5.050781 1.085938 9.398438 3.355469 12.566406 C 5.625 15.734375 9.855469 16.792969 13.351562 15.066406 C 13.175781 14.832031 13.003906 14.5625 13.003906 14.5625 C 12.992188 14.632812 13.085938 14.851562 13.242188 15.117188 C 13.273438 15.171875 13.304688 15.226562 13.339844 15.28125 C 10.554688 16.28125 8.925781 19.179688 9.527344 22.074219 C 10.132812 24.972656 12.777344 26.984375 15.730469 26.789062 C 18.683594 26.59375 21.042969 24.25 21.257812 21.300781 C 21.46875 18.347656 19.476562 15.6875 16.582031 15.066406 C 16.292969 15.242188 16.019531 15.441406 15.921875 15.625 L 15.847656 15.449219 L 15.921875 15.269531 L 15.921875 5.640625 L 15.882812 5.550781 Z M 15.933594 5.402344 "/>
<path style=" stroke:none;fill-rule:nonzero;fill:rgb(67.843137%,48.627451%,34.901961%);fill-opacity:1;" d="M 15.933594 11.863281 C 16.035156 11.75 16.25 11.617188 16.488281 11.492188 C 16.199219 10.96875 16.054688 10.144531 16.121094 9.980469 C 16.121094 9.980469 16.242188 10.410156 16.386719 10.652344 C 16.519531 10.878906 16.6875 11.132812 16.847656 11.320312 C 16.980469 11.261719 17.109375 11.214844 17.21875 11.183594 C 16.738281 10.8125 16.246094 9.585938 16.246094 9.585938 L 16.753906 9.351562 C 16.753906 9.351562 16.945312 9.574219 17.003906 9.613281 C 17.003906 9.613281 17.03125 9.503906 17.046875 9.464844 C 17.046875 9.464844 17.121094 9.519531 17.160156 9.523438 C 17.160156 9.523438 17.171875 9.445312 17.179688 9.398438 C 17.230469 9.429688 17.316406 9.425781 17.316406 9.425781 C 17.242188 9.390625 17.15625 9.175781 17.15625 9.175781 L 17.640625 8.53125 C 17.640625 8.53125 17.8125 9.351562 18.003906 9.519531 L 18.003906 5.988281 L 17.851562 6.132812 L 17.617188 5.914062 L 17.617188 5.75 L 17.824219 5.941406 L 17.824219 5.441406 C 19.328125 6.785156 21.632812 6.65625 22.976562 5.152344 C 24.320312 3.648438 24.191406 1.34375 22.6875 0 C 22.65625 0.0585938 22.546875 0.238281 22.417969 0.347656 C 22.398438 0.261719 22.261719 0.179688 22.261719 0.179688 C 22.261719 0.179688 22.210938 0.316406 22.136719 0.347656 C 22.109375 0.300781 21.953125 0.199219 21.953125 0.199219 C 21.953125 0.199219 22.085938 0.21875 22.140625 0.269531 C 22.1875 0.257812 22.199219 0.0742188 22.199219 0.0742188 C 22.199219 0.0742188 22.398438 0.167969 22.433594 0.238281 C 22.472656 0.230469 22.53125 0.078125 22.554688 0.0195312 C 22.558594 2.585938 24.644531 4.660156 27.210938 4.65625 C 29.777344 4.648438 31.851562 2.566406 31.847656 0 C 31.789062 0 31.71875 0.0273438 31.640625 0.0625 C 31.558594 0.101562 31.46875 0.152344 31.390625 0.1875 C 31.292969 0.234375 31.140625 0.242188 31.097656 0.242188 C 31.144531 0.28125 31.203125 0.3125 31.261719 0.34375 C 31.261719 0.34375 31.023438 0.339844 30.855469 0.257812 C 30.796875 0.21875 30.734375 0.179688 30.683594 0.132812 C 30.703125 0.199219 30.742188 0.273438 30.796875 0.339844 C 30.550781 0.316406 30.429688 0.175781 30.394531 0.128906 C 30.375 0.171875 30.347656 0.238281 30.300781 0.296875 L 30.214844 0.296875 L 30.214844 6.34375 Z M 17.746094 4.753906 L 17.742188 4.863281 L 17.742188 5.195312 C 17.828125 5.167969 17.941406 5.019531 17.996094 4.941406 L 17.996094 4.898438 C 17.996094 4.855469 17.972656 4.824219 17.953125 4.804688 L 18.007812 4.785156 C 18.027344 4.808594 18.050781 4.84375 18.050781 4.890625 L 18.050781 4.914062 L 18.210938 5.085938 L 18.367188 4.847656 L 18.367188 4.792969 C 18.367188 4.75 18.335938 4.707031 18.3125 4.679688 L 18.363281 4.660156 C 18.390625 4.695312 18.417969 4.738281 18.417969 4.785156 L 18.417969 4.832031 C 23.585938 104.214844 108 180.796875 207.417969 176.292969 C 306.835938 171.785156 383.976562 87.886719 380.136719 -11.558594 C 376.296875 -111.003906 292.910156 -188.703125 193.441406 -185.527344 C 93.976562 -182.351562 15.71875 -99.488281 18.230469 0 L 18.324219 -0.199219 C 18.214844 -0.351562 18.035156 -0.519531 17.867188 -0.644531 C 17.867188 -0.644531 17.5 -0.308594 17.378906 -0.265625 Z M 18.671875 5.074219 L 18.671875 5.347656 L 18.800781 5.464844 L 18.800781 5.058594 C 18.800781 5.019531 18.78125 4.972656 18.753906 4.921875 Z M 18.671875 5.074219 "/>
<path style=" stroke:none;fill-rule:nonzero;fill:rgb(67.843137%,48.627451%,34.901961%);fill-opacity:1;" d="M 18.273438 5.179688 L 18.273438 5.347656 L 18.421875 5.488281 L 18.421875 4.957031 Z M 18.472656 5.484375 L 18.621094 5.347656 L 18.621094 5.152344 L 18.472656 4.996094 Z M 17.804688 5.28125 C 17.839844 5.328125 17.925781 5.445312 18.023438 5.496094 L 18.023438 5.03125 C 18 5.070312 17.898438 5.234375 17.804688 5.28125 Z M 18.074219 5.054688 L 18.074219 5.484375 L 18.222656 5.347656 L 18.222656 5.195312 Z M 18.671875 5.515625 L 18.671875 5.941406 L 18.800781 5.824219 L 18.800781 5.632812 Z M 18.472656 5.652344 L 18.472656 5.804688 L 18.621094 5.941406 L 18.621094 5.515625 Z M 18.273438 5.515625 L 18.273438 5.941406 L 18.421875 5.804688 L 18.421875 5.652344 Z M 18.074219 5.652344 L 18.074219 5.804688 L 18.222656 5.941406 L 18.222656 5.515625 Z M 17.878906 5.941406 L 18.023438 5.804688 L 18.023438 5.660156 C 17.972656 5.632812 17.921875 5.574219 17.878906 5.515625 Z M 18.25 6.132812 L 18.09375 5.988281 L 18.09375 9.519531 C 18.09375 9.519531 18.082031 9.695312 18.074219 9.808594 L 18.402344 10.140625 L 18.402344 5.988281 Z M 18.492188 10.007812 C 18.492188 10.121094 18.699219 10.386719 18.800781 10.445312 L 18.800781 5.988281 L 18.644531 6.132812 L 18.492188 5.988281 Z M 18.492188 10.007812 "/>
<path style=" stroke:none;fill-rule:nonzero;fill:rgb(78.431373%,6.27451%,18.039216%);fill-opacity:1;" d="M 17.207031 9.625 L 17.09375 9.546875 C 17.09375 9.546875 17.085938 9.585938 17.078125 9.636719 C 17.125 9.703125 17.402344 10.082031 17.539062 10.265625 C 17.574219 10.3125 17.601562 10.429688 17.601562 10.429688 C 17.601562 10.429688 17.652344 10.40625 17.652344 10.363281 C 17.652344 10.320312 17.648438 10.269531 17.648438 10.269531 C 17.648438 10.269531 17.683594 10.3125 17.75 10.3125 C 17.75 10.261719 17.648438 10.207031 17.644531 10.132812 C 17.722656 10.1875 17.789062 10.160156 17.875 10.1875 C 17.972656 10.214844 17.996094 10.257812 18.027344 10.253906 C 18.042969 10.253906 18.058594 10.222656 18.054688 10.207031 C 18.042969 10.171875 17.921875 10.085938 17.839844 10.070312 C 17.820312 10.066406 17.664062 10.105469 17.632812 10.054688 C 17.503906 9.855469 17.292969 9.53125 17.273438 9.5 C 17.257812 9.496094 17.246094 9.492188 17.238281 9.488281 C 17.238281 9.488281 17.238281 9.589844 17.207031 9.625 Z M 17.207031 9.625 "/>
<path style=" stroke:none;fill-rule:nonzero;fill:rgb(78.431373%,6.27451%,18.039216%);fill-opacity:1;" d="M 17.933594 10.246094 C 17.925781 10.253906 17.925781 10.265625 17.933594 10.273438 L 17.984375 10.316406 C 17.992188 10.320312 18 10.320312 18.007812 10.3125 C 18.015625 10.304688 18.011719 10.296875 18.007812 10.289062 L 17.957031 10.246094 C 20.785156 11.246094 23.886719 9.761719 24.886719 6.933594 C 25.886719 4.101562 24.402344 1 21.574219 0 C 21.570312 0 21.566406 0.00390625 21.5625 0.0078125 Z M 17.855469 10.300781 C 17.839844 10.320312 17.839844 10.34375 17.855469 10.359375 L 17.980469 10.464844 C 17.996094 10.480469 18.023438 10.476562 18.039062 10.460938 C 18.054688 10.441406 18.050781 10.417969 18.035156 10.402344 L 17.910156 10.296875 C 20.753906 11.277344 23.855469 9.765625 24.835938 6.921875 C 25.816406 4.078125 24.304688 0.980469 21.460938 0 C 21.449219 0 21.4375 0.00390625 21.425781 0.015625 Z M 17.785156 10.386719 C 17.769531 10.402344 17.769531 10.429688 17.785156 10.441406 L 17.910156 10.550781 C 17.925781 10.5625 17.953125 10.5625 17.964844 10.542969 C 17.980469 10.527344 17.980469 10.5 17.964844 10.488281 L 17.839844 10.378906 C 20.707031 11.355469 23.824219 9.824219 24.800781 6.957031 C 25.777344 4.09375 24.246094 0.976562 21.378906 0 C 21.367188 0 21.351562 0.00390625 21.34375 0.015625 Z M 17.742188 10.453125 C 20.628906 14.347656 26.125 15.167969 30.019531 12.28125 C 33.917969 9.394531 34.734375 3.894531 31.847656 0 C 31.835938 0.015625 31.835938 0.0429688 31.851562 0.0585938 L 31.976562 0.164062 C 31.992188 0.179688 32.015625 0.175781 32.03125 0.160156 C 32.046875 0.140625 32.046875 0.117188 32.03125 0.101562 L 31.90625 -0.0078125 C 31.898438 -0.0117188 31.890625 -0.015625 31.886719 -0.015625 Z M 17.742188 10.453125 "/>
<path style=" stroke:none;fill-rule:nonzero;fill:rgb(67.843137%,48.627451%,34.901961%);fill-opacity:1;" d="M 15.75 3.671875 C 15.953125 3.671875 16.097656 3.765625 16.289062 3.851562 C 16.339844 3.875 16.386719 3.890625 16.429688 3.90625 C 16.402344 3.929688 16.382812 3.953125 16.375 3.972656 C 16.375 3.972656 16.460938 3.988281 16.5 4.058594 C 16.5 4.058594 16.417969 4.070312 16.40625 4.117188 C 16.453125 4.121094 16.496094 4.179688 16.496094 4.234375 L 16.382812 4.199219 C 16.382812 4.199219 16.410156 4.328125 16.410156 4.472656 C 16.410156 4.542969 16.304688 4.628906 16.304688 4.753906 C 16.304688 5.140625 16.402344 5.289062 16.472656 5.40625 C 16.5 5.453125 16.519531 5.507812 16.566406 5.546875 C 16.367188 5.441406 16.21875 5.308594 16.21875 5.1875 L 16.21875 4.71875 L 16.167969 4.71875 L 16.167969 5.1875 C 16.167969 5.277344 16.1875 5.316406 16.1875 5.316406 C 16.21875 5.417969 16.28125 5.570312 16.324219 5.628906 C 16.140625 5.53125 16.046875 5.40625 16.046875 5.359375 L 16.046875 4.71875 L 15.992188 4.71875 L 15.992188 5.371094 L 16.003906 5.414062 C 15.980469 5.449219 15.953125 5.488281 15.933594 5.5 C 15.914062 5.488281 15.886719 5.449219 15.863281 5.414062 L 15.871094 5.371094 L 15.871094 4.71875 L 15.820312 4.71875 L 15.820312 5.359375 C 15.820312 5.40625 15.726562 5.53125 15.542969 5.628906 C 15.582031 5.570312 15.648438 5.417969 15.679688 5.316406 C 15.679688 5.316406 15.699219 5.277344 15.699219 5.1875 L 15.699219 4.71875 L 15.648438 4.71875 L 15.648438 5.1875 C 15.648438 5.308594 15.5 5.441406 15.300781 5.546875 C 15.347656 5.507812 15.367188 5.453125 15.394531 5.40625 C 15.46875 5.277344 15.5625 5.109375 15.5625 4.636719 C 15.5625 4.460938 15.539062 4.339844 15.492188 4.257812 C 15.476562 4.226562 15.460938 4.152344 15.566406 4.152344 C 15.621094 4.152344 15.746094 4.25 15.746094 4.25 C 15.746094 4.25 15.742188 4.171875 15.679688 4.128906 C 15.667969 4.121094 15.648438 4.097656 15.648438 4.078125 C 15.648438 4.0625 15.675781 4.023438 15.699219 4.011719 C 15.714844 4.003906 15.480469 3.964844 15.480469 3.859375 C 15.480469 3.839844 15.496094 3.824219 15.542969 3.824219 C 15.605469 3.824219 15.710938 3.898438 15.800781 3.898438 C 15.867188 3.898438 15.894531 3.882812 15.964844 3.882812 C 16.046875 3.882812 16.222656 4.042969 16.285156 4.035156 C 16.21875 3.996094 16.109375 3.835938 15.945312 3.835938 C 15.886719 3.835938 15.835938 3.847656 15.78125 3.847656 C 15.714844 3.847656 15.644531 3.785156 15.574219 3.785156 C 15.523438 3.785156 15.46875 3.789062 15.460938 3.773438 C 15.445312 3.753906 15.457031 3.738281 15.472656 3.722656 C 15.496094 3.6875 15.566406 3.675781 15.636719 3.671875 C 14.621094 6.976562 11.121094 8.832031 7.816406 7.816406 C 4.515625 6.804688 2.660156 3.304688 3.671875 0 C 3.691406 0 3.710938 0 3.726562 0 Z M 15.75 3.671875 "/>
<path style=" stroke:none;fill-rule:nonzero;fill:rgb(78.431373%,6.27451%,18.039216%);fill-opacity:1;" d="M 15.089844 3.921875 C 15.089844 3.921875 15.132812 3.84375 15.242188 3.84375 C 15.285156 3.84375 15.4375 3.839844 15.4375 3.839844 C 15.457031 3.890625 15.546875 3.976562 15.546875 4.066406 C 15.546875 4.066406 15.453125 3.902344 15.195312 3.902344 C 15.132812 3.902344 15.089844 3.921875 15.089844 3.921875 Z M 15.507812 4.097656 C 15.507812 4.097656 15.453125 4.15625 15.441406 4.1875 C 15.386719 4.167969 15.292969 4.070312 15.292969 4.070312 C 15.292969 4.070312 15.371094 4.117188 15.507812 4.097656 Z M 15.507812 4.097656 "/>
<path style=" stroke:none;fill-rule:nonzero;fill:rgb(0%,0%,0%);fill-opacity:1;" d="M 15.421875 3.945312 C 15.421875 3.945312 15.359375 3.925781 15.359375 3.90625 C 15.359375 3.878906 15.386719 3.878906 15.40625 3.898438 C 15.417969 3.914062 15.421875 3.945312 15.421875 3.945312 Z M 15.421875 3.945312 "/>
<path style=" stroke:none;fill-rule:nonzero;fill:rgb(0%,0%,0%);fill-opacity:1;" d="M 15.847656 3.980469 C 15.847656 3.925781 15.789062 3.882812 15.71875 3.882812 C 15.644531 3.882812 15.585938 3.925781 15.585938 3.980469 C 15.585938 4.035156 15.644531 4.082031 15.71875 4.082031 C 15.789062 4.082031 15.847656 4.035156 15.847656 3.980469 Z M 15.847656 3.980469 "/>
<path style=" stroke:none;fill-rule:nonzero;fill:rgb(100%,81.960784%,0%);fill-opacity:1;" d="M 15.808594 3.980469 C 15.808594 4.03125 15.765625 4.070312 15.71875 4.070312 C 15.667969 4.070312 15.625 4.03125 15.625 3.980469 C 15.625 3.929688 15.667969 3.890625 15.71875 3.890625 C 15.765625 3.890625 15.808594 3.929688 15.808594 3.980469 Z M 15.808594 3.980469 "/>
<path style=" stroke:none;fill-rule:nonzero;fill:rgb(0%,0%,0%);fill-opacity:1;" d="M 15.757812 3.980469 C 15.757812 4.003906 15.738281 4.023438 15.71875 4.023438 C 15.695312 4.023438 15.675781 4.003906 15.675781 3.980469 C 15.675781 3.957031 15.695312 3.9375 15.71875 3.9375 C 15.738281 3.9375 15.757812 3.957031 15.757812 3.980469 Z M 15.757812 3.980469 "/>
<path style=" stroke:none;fill-rule:nonzero;fill:rgb(0%,0%,0%);fill-opacity:1;" d="M 14.246094 10.523438 L 14.535156 10.679688 L 14.464844 11 L 14.175781 10.84375 Z M 14.246094 10.523438 "/>
<path style=" stroke:none;fill-rule:nonzero;fill:rgb(0%,0%,0%);fill-opacity:1;" d="M 12.90625 7.445312 L 12.800781 7.492188 L 13.972656 10.058594 L 14.097656 10.058594 Z M 14.289062 10.472656 L 14.203125 10.558594 L 14.253906 10.675781 L 14.359375 10.628906 Z M 14.289062 10.472656 "/>
<path style=" stroke:none;fill-rule:nonzero;fill:rgb(0%,0%,0%);fill-opacity:1;" d="M 13.269531 9.46875 C 13.269531 9.46875 13.367188 9.671875 13.441406 9.699219 C 13.402344 9.691406 13.277344 9.734375 13.277344 9.734375 C 13.277344 9.734375 13.5 9.933594 13.6875 9.949219 C 13.847656 9.957031 13.925781 9.878906 13.925781 9.878906 L 13.894531 9.710938 C 13.894531 9.710938 13.796875 9.589844 13.640625 9.535156 C 13.480469 9.480469 13.269531 9.46875 13.269531 9.46875 Z M 14.011719 9.101562 C 14.011719 9.101562 13.878906 9.21875 13.839844 9.355469 C 13.800781 9.488281 13.863281 9.644531 13.863281 9.644531 L 13.980469 9.859375 C 13.980469 9.859375 14.136719 9.773438 14.203125 9.648438 C 14.273438 9.519531 14.246094 9.351562 14.246094 9.351562 C 14.246094 9.351562 14.121094 9.398438 14.105469 9.417969 C 14.132812 9.277344 14.011719 9.101562 14.011719 9.101562 Z M 13.574219 9.046875 C 13.574219 9.046875 13.421875 9.101562 13.269531 9.09375 C 13.125 9.082031 13.007812 8.960938 13.007812 8.960938 C 13.007812 8.960938 13.125 8.882812 13.183594 8.894531 C 13.121094 8.871094 13.027344 8.707031 13.027344 8.707031 C 13.027344 8.707031 13.160156 8.667969 13.277344 8.710938 C 13.394531 8.757812 13.5 8.886719 13.5 8.886719 Z M 13.628906 8.292969 C 13.628906 8.292969 13.707031 8.453125 13.6875 8.507812 C 13.710938 8.46875 13.804688 8.414062 13.804688 8.414062 C 13.804688 8.414062 13.859375 8.671875 13.804688 8.832031 C 13.753906 8.992188 13.59375 9.054688 13.59375 9.054688 L 13.414062 8.710938 C 13.414062 8.710938 13.390625 8.582031 13.445312 8.484375 C 13.5 8.382812 13.628906 8.292969 13.628906 8.292969 Z M 12.621094 7.867188 C 12.621094 7.867188 12.789062 7.847656 12.941406 7.910156 C 13.070312 7.964844 13.109375 8.0625 13.109375 8.0625 L 13.171875 8.230469 C 13.171875 8.230469 12.988281 8.300781 12.84375 8.246094 C 12.699219 8.195312 12.59375 8.023438 12.59375 8.023438 C 12.59375 8.023438 12.695312 7.984375 12.734375 7.996094 C 12.679688 7.972656 12.621094 7.867188 12.621094 7.867188 Z M 13.148438 7.550781 C 13.148438 7.550781 13.21875 7.644531 13.222656 7.753906 C 13.242188 7.699219 13.335938 7.632812 13.335938 7.632812 C 13.335938 7.632812 13.429688 7.863281 13.40625 8.023438 C 13.386719 8.1875 13.25 8.28125 13.25 8.28125 L 13.082031 7.960938 C 13.082031 7.960938 13.027344 7.828125 13.042969 7.726562 C 13.058594 7.625 13.148438 7.550781 13.148438 7.550781 Z M 12.566406 6.9375 C 12.566406 6.9375 12.535156 7.113281 12.585938 7.214844 C 12.632812 7.304688 12.664062 7.324219 12.664062 7.324219 C 12.574219 7.265625 12.441406 7.257812 12.441406 7.257812 C 12.441406 7.257812 12.488281 7.449219 12.601562 7.539062 C 12.714844 7.625 12.890625 7.605469 12.890625 7.605469 C 12.890625 7.605469 13.003906 7.449219 12.996094 7.285156 C 12.988281 7.121094 12.859375 6.945312 12.859375 6.945312 C 12.859375 6.945312 12.808594 7.050781 12.800781 7.132812 C 12.769531 7.050781 12.566406 6.9375 12.566406 6.9375 Z M 13.933594 9.871094 L 13.941406 9.933594 C 14.042969 9.933594 14.058594 9.925781 14.085938 9.957031 C 14.105469 9.980469 14.148438 10 14.191406 9.980469 C 14.230469 9.960938 14.25 9.910156 14.230469 9.867188 C 14.210938 9.824219 14.171875 9.8125 14.132812 9.820312 C 14.109375 9.828125 14.097656 9.84375 14.074219 9.855469 C 14.039062 9.875 13.933594 9.871094 13.933594 9.871094 Z M 13.933594 9.871094 "/>
<path style=" stroke:none;fill-rule:nonzero;fill:rgb(0%,0%,0%);fill-opacity:1;" d="M 13.925781 9.824219 L 13.976562 9.859375 C 13.921875 9.949219 13.90625 9.957031 13.917969 9.996094 C 13.929688 10.023438 13.921875 10.070312 13.882812 10.097656 C 13.84375 10.121094 13.789062 10.113281 13.765625 10.074219 C 13.738281 10.03125 13.75 9.996094 13.777344 9.964844 C 13.792969 9.949219 13.820312 9.945312 13.839844 9.933594 C 13.875 9.914062 13.925781 9.824219 13.925781 9.824219 Z M 13.574219 9.078125 L 13.578125 9.140625 C 13.679688 9.140625 13.695312 9.128906 13.722656 9.164062 C 13.742188 9.183594 13.785156 9.203125 13.828125 9.183594 C 13.871094 9.164062 13.886719 9.113281 13.867188 9.070312 C 13.851562 9.027344 13.808594 9.019531 13.773438 9.027344 C 13.75 9.03125 13.734375 9.050781 13.714844 9.0625 C 13.675781 9.082031 13.574219 9.078125 13.574219 9.078125 Z M 13.574219 9.078125 "/>
<path style=" stroke:none;fill-rule:nonzero;fill:rgb(0%,0%,0%);fill-opacity:1;" d="M 13.59375 9.097656 L 13.636719 9.144531 C 13.570312 9.222656 13.550781 9.226562 13.558594 9.269531 C 13.566406 9.296875 13.550781 9.34375 13.507812 9.363281 C 13.464844 9.382812 13.414062 9.363281 13.394531 9.320312 C 13.375 9.277344 13.394531 9.242188 13.425781 9.21875 C 13.445312 9.203125 13.46875 9.203125 13.488281 9.195312 C 13.527344 9.179688 13.59375 9.097656 13.59375 9.097656 Z M 13.222656 8.332031 L 13.226562 8.394531 C 13.328125 8.398438 13.34375 8.386719 13.371094 8.417969 C 13.390625 8.441406 13.433594 8.460938 13.476562 8.441406 C 13.519531 8.421875 13.535156 8.371094 13.515625 8.328125 C 13.496094 8.285156 13.457031 8.277344 13.421875 8.28125 C 13.398438 8.289062 13.382812 8.304688 13.363281 8.316406 C 13.324219 8.335938 13.222656 8.332031 13.222656 8.332031 Z M 13.222656 8.332031 "/>
<path style=" stroke:none;fill-rule:nonzero;fill:rgb(0%,0%,0%);fill-opacity:1;" d="M 13.25 8.320312 L 13.292969 8.363281 C 13.226562 8.445312 13.207031 8.449219 13.214844 8.492188 C 13.21875 8.519531 13.207031 8.5625 13.164062 8.582031 C 13.121094 8.601562 13.070312 8.582031 13.050781 8.539062 C 13.03125 8.496094 13.050781 8.460938 13.082031 8.4375 C 13.101562 8.421875 13.125 8.421875 13.144531 8.414062 C 13.183594 8.398438 13.25 8.320312 13.25 8.320312 Z M 12.847656 7.546875 L 12.851562 7.609375 C 12.957031 7.609375 12.972656 7.601562 12.996094 7.632812 C 13.015625 7.65625 13.058594 7.675781 13.101562 7.65625 C 13.144531 7.636719 13.164062 7.585938 13.144531 7.542969 C 13.125 7.5 13.082031 7.488281 13.046875 7.496094 C 13.023438 7.503906 13.007812 7.519531 12.988281 7.53125 C 12.949219 7.550781 12.847656 7.546875 12.847656 7.546875 Z M 12.847656 7.546875 "/>
<path style=" stroke:none;fill-rule:nonzero;fill:rgb(0%,0%,0%);fill-opacity:1;" d="M 12.875 7.535156 L 12.917969 7.578125 C 12.851562 7.660156 12.832031 7.664062 12.839844 7.707031 C 12.847656 7.734375 12.832031 7.777344 12.789062 7.796875 C 12.746094 7.816406 12.695312 7.796875 12.675781 7.753906 C 12.65625 7.710938 12.675781 7.675781 12.707031 7.652344 C 12.726562 7.636719 12.75 7.636719 12.769531 7.628906 C 12.808594 7.613281 12.875 7.535156 12.875 7.535156 Z M 12.875 7.535156 "/>
<path style=" stroke:none;fill-rule:nonzero;fill:rgb(100%,81.960784%,0%);fill-opacity:1;" d="M 14.289062 10.613281 L 14.46875 10.710938 L 14.421875 10.910156 L 14.246094 10.8125 Z M 13.507812 8.890625 C 13.46875 8.90625 13.414062 8.742188 13.371094 8.652344 C 13.332031 8.5625 13.246094 8.421875 13.269531 8.410156 C 13.296875 8.398438 13.332031 8.472656 13.375 8.566406 C 13.417969 8.660156 13.542969 8.875 13.507812 8.890625 Z M 13.121094 8.03125 C 13.085938 8.046875 13.042969 7.941406 13.003906 7.851562 C 12.960938 7.761719 12.917969 7.695312 12.945312 7.683594 C 12.96875 7.671875 13.007812 7.753906 13.042969 7.828125 C 13.078125 7.898438 13.15625 8.015625 13.121094 8.03125 Z M 14.011719 9.976562 C 13.980469 9.988281 13.855469 9.71875 13.75 9.492188 C 13.644531 9.261719 13.570312 9.078125 13.59375 9.070312 C 13.621094 9.054688 13.703125 9.269531 13.808594 9.5 C 13.910156 9.726562 14.035156 9.972656 14.011719 9.976562 Z M 14.011719 9.976562 "/>
<path style=" stroke:none;fill-rule:nonzero;fill:rgb(100%,81.960784%,0%);fill-opacity:1;" d="M 14.199219 9.902344 C 14.199219 9.925781 14.179688 9.949219 14.15625 9.949219 C 14.128906 9.949219 14.109375 9.925781 14.109375 9.902344 C 14.109375 9.875 14.128906 9.855469 14.15625 9.855469 C 14.179688 9.855469 14.199219 9.875 14.199219 9.902344 Z M 14.199219 9.902344 "/>
<path style=" stroke:none;fill-rule:nonzero;fill:rgb(100%,81.960784%,0%);fill-opacity:1;" d="M 13.882812 10.027344 C 13.882812 10.050781 13.863281 10.070312 13.835938 10.070312 C 13.808594 10.070312 13.789062 10.050781 13.789062 10.027344 C 13.789062 10 13.808594 9.980469 13.835938 9.980469 C 13.863281 9.980469 13.882812 10 13.882812 10.027344 Z M 13.882812 10.027344 "/>
<path style=" stroke:none;fill-rule:nonzero;fill:rgb(100%,81.960784%,0%);fill-opacity:1;" d="M 13.839844 9.105469 C 13.839844 9.132812 13.816406 9.152344 13.792969 9.152344 C 13.765625 9.152344 13.746094 9.132812 13.746094 9.105469 C 13.746094 9.082031 13.765625 9.058594 13.792969 9.058594 C 13.816406 9.058594 13.839844 9.082031 13.839844 9.105469 Z M 13.839844 9.105469 "/>
<path style=" stroke:none;fill-rule:nonzero;fill:rgb(100%,81.960784%,0%);fill-opacity:1;" d="M 13.519531 9.285156 C 13.519531 9.308594 13.5 9.332031 13.472656 9.332031 C 13.445312 9.332031 13.425781 9.308594 13.425781 9.285156 C 13.425781 9.257812 13.445312 9.238281 13.472656 9.238281 C 13.5 9.238281 13.519531 9.257812 13.519531 9.285156 Z M 13.519531 9.285156 "/>
<path style=" stroke:none;fill-rule:nonzero;fill:rgb(100%,81.960784%,0%);fill-opacity:1;" d="M 13.488281 8.363281 C 13.488281 8.386719 13.464844 8.410156 13.441406 8.410156 C 13.414062 8.410156 13.394531 8.386719 13.394531 8.363281 C 13.394531 8.335938 13.414062 8.316406 13.441406 8.316406 C 13.464844 8.316406 13.488281 8.335938 13.488281 8.363281 Z M 13.488281 8.363281 "/>
<path style=" stroke:none;fill-rule:nonzero;fill:rgb(100%,81.960784%,0%);fill-opacity:1;" d="M 13.175781 8.503906 C 13.175781 8.53125 13.15625 8.550781 13.128906 8.550781 C 13.101562 8.550781 13.082031 8.53125 13.082031 8.503906 C 13.082031 8.480469 13.101562 8.457031 13.128906 8.457031 C 13.15625 8.457031 13.175781 8.480469 13.175781 8.503906 Z M 13.175781 8.503906 "/>
<path style=" stroke:none;fill-rule:nonzero;fill:rgb(100%,81.960784%,0%);fill-opacity:1;" d="M 13.113281 7.578125 C 13.113281 7.601562 13.089844 7.625 13.066406 7.625 C 13.039062 7.625 13.019531 7.601562 13.019531 7.578125 C 13.019531 7.550781 13.039062 7.53125 13.066406 7.53125 C 13.089844 7.53125 13.113281 7.550781 13.113281 7.578125 Z M 13.113281 7.578125 "/>
<path style=" stroke:none;fill-rule:nonzero;fill:rgb(100%,81.960784%,0%);fill-opacity:1;" d="M 12.800781 7.71875 C 12.800781 7.746094 12.78125 7.765625 12.753906 7.765625 C 12.730469 7.765625 12.707031 7.746094 12.707031 7.71875 C 12.707031 7.695312 12.730469 7.671875 12.753906 7.671875 C 12.78125 7.671875 12.800781 7.695312 12.800781 7.71875 Z M 12.800781 7.71875 "/>
<path style=" stroke:none;fill-rule:nonzero;fill:rgb(0%,46.666667%,28.627451%);fill-opacity:1;" d="M 12.617188 7.042969 C 12.617188 7.042969 12.613281 7.171875 12.65625 7.242188 C 12.699219 7.316406 12.792969 7.34375 12.792969 7.34375 C 12.792969 7.34375 12.796875 7.21875 12.753906 7.144531 C 12.710938 7.074219 12.617188 7.042969 12.617188 7.042969 Z M 12.53125 7.332031 C 12.53125 7.332031 12.640625 7.339844 12.703125 7.390625 C 12.769531 7.4375 12.792969 7.539062 12.792969 7.539062 C 12.792969 7.539062 12.71875 7.546875 12.65625 7.5 C 12.59375 7.449219 12.53125 7.332031 12.53125 7.332031 Z M 12.878906 7.074219 C 12.878906 7.074219 12.839844 7.160156 12.84375 7.25 C 12.851562 7.34375 12.902344 7.445312 12.902344 7.445312 C 12.902344 7.445312 12.953125 7.335938 12.949219 7.242188 C 12.941406 7.152344 12.890625 7.101562 12.878906 7.074219 Z M 12.691406 7.898438 C 12.691406 7.898438 12.746094 7.976562 12.828125 8.015625 C 12.914062 8.058594 13.039062 8.058594 13.039062 8.058594 C 13.039062 8.058594 12.976562 7.976562 12.890625 7.9375 C 12.808594 7.894531 12.691406 7.898438 12.691406 7.898438 Z M 12.71875 8.074219 C 12.71875 8.074219 12.757812 8.15625 12.832031 8.1875 C 12.90625 8.222656 13.054688 8.21875 13.054688 8.21875 C 13.054688 8.21875 12.996094 8.144531 12.925781 8.113281 C 12.851562 8.078125 12.71875 8.074219 12.71875 8.074219 Z M 13.140625 7.65625 C 13.140625 7.65625 13.097656 7.730469 13.101562 7.8125 C 13.105469 7.890625 13.15625 7.980469 13.15625 7.980469 C 13.15625 7.980469 13.195312 7.878906 13.191406 7.796875 C 13.1875 7.71875 13.140625 7.65625 13.140625 7.65625 Z M 13.304688 7.761719 C 13.304688 7.761719 13.226562 7.863281 13.21875 7.964844 C 13.207031 8.070312 13.261719 8.179688 13.261719 8.179688 C 13.261719 8.179688 13.351562 8.085938 13.363281 7.980469 C 13.375 7.878906 13.304688 7.761719 13.304688 7.761719 Z M 13.09375 8.726562 C 13.09375 8.726562 13.105469 8.765625 13.136719 8.804688 C 13.167969 8.84375 13.222656 8.886719 13.222656 8.886719 C 13.222656 8.886719 13.273438 8.871094 13.339844 8.882812 C 13.40625 8.898438 13.492188 8.957031 13.492188 8.957031 C 13.492188 8.957031 13.398438 8.816406 13.300781 8.761719 C 13.203125 8.710938 13.09375 8.726562 13.09375 8.726562 Z M 13.085938 8.964844 C 13.085938 8.964844 13.207031 8.914062 13.304688 8.929688 C 13.40625 8.941406 13.496094 9.019531 13.496094 9.019531 C 13.496094 9.019531 13.359375 9.066406 13.261719 9.054688 C 13.160156 9.039062 13.085938 8.964844 13.085938 8.964844 Z M 13.597656 8.40625 C 13.597656 8.40625 13.488281 8.519531 13.480469 8.617188 C 13.472656 8.714844 13.566406 8.804688 13.566406 8.804688 C 13.566406 8.804688 13.5625 8.742188 13.578125 8.703125 C 13.59375 8.660156 13.628906 8.617188 13.628906 8.617188 C 13.628906 8.617188 13.644531 8.566406 13.640625 8.523438 C 13.628906 8.46875 13.597656 8.40625 13.597656 8.40625 Z M 13.75 8.535156 C 13.75 8.535156 13.648438 8.636719 13.621094 8.746094 C 13.59375 8.855469 13.640625 8.972656 13.640625 8.972656 C 13.640625 8.972656 13.734375 8.898438 13.761719 8.792969 C 13.789062 8.683594 13.75 8.535156 13.75 8.535156 Z M 14 9.195312 C 14 9.195312 14.046875 9.289062 14.058594 9.367188 C 14.070312 9.449219 14.058594 9.476562 14.058594 9.476562 C 14.058594 9.476562 14.011719 9.523438 13.992188 9.550781 C 13.964844 9.585938 13.960938 9.648438 13.960938 9.648438 C 13.960938 9.648438 13.863281 9.507812 13.878906 9.40625 C 13.894531 9.300781 14 9.195312 14 9.195312 Z M 14.199219 9.414062 C 14.199219 9.414062 14.078125 9.492188 14.03125 9.574219 C 13.984375 9.65625 14.007812 9.742188 14.007812 9.742188 C 14.007812 9.742188 14.09375 9.734375 14.140625 9.652344 C 14.191406 9.570312 14.199219 9.414062 14.199219 9.414062 Z M 13.402344 9.753906 C 13.402344 9.753906 13.578125 9.746094 13.683594 9.773438 C 13.792969 9.800781 13.832031 9.855469 13.832031 9.855469 C 13.832031 9.855469 13.710938 9.914062 13.605469 9.886719 C 13.496094 9.859375 13.402344 9.753906 13.402344 9.753906 Z M 13.375 9.542969 C 13.375 9.542969 13.453125 9.667969 13.554688 9.710938 C 13.695312 9.773438 13.859375 9.742188 13.859375 9.742188 C 13.859375 9.742188 13.769531 9.632812 13.648438 9.585938 C 13.527344 9.539062 13.375 9.542969 13.375 9.542969 Z M 13.375 9.542969 "/>
<path style=" stroke:none;fill-rule:nonzero;fill:rgb(0%,0%,0%);fill-opacity:1;" d="M 19.355469 7.144531 L 19.378906 7.195312 C 19.378906 7.195312 19.339844 7.207031 19.324219 7.238281 C 19.308594 7.273438 19.335938 7.320312 19.335938 7.320312 C 19.335938 7.320312 19.144531 7.300781 19.113281 7.320312 C 19.085938 7.339844 19.125 7.472656 19.105469 7.585938 C 19.082031 7.742188 19.019531 7.726562 19.019531 7.757812 C 19.015625 7.789062 19.042969 7.832031 19.042969 7.832031 C 19.042969 7.832031 19.003906 7.84375 18.996094 7.859375 C 18.984375 7.882812 19.007812 7.929688 18.992188 7.957031 C 18.90625 8.121094 18.785156 8.363281 18.703125 8.523438 C 18.691406 8.546875 18.660156 8.554688 18.644531 8.585938 C 18.632812 8.613281 18.644531 8.652344 18.644531 8.652344 C 18.644531 8.652344 18.589844 8.65625 18.570312 8.695312 C 18.550781 8.734375 18.5625 8.785156 18.5625 8.785156 C 18.5625 8.785156 18.527344 8.789062 18.511719 8.824219 C 18.492188 8.859375 18.523438 8.875 18.515625 8.890625 C 18.40625 9.105469 18.277344 9.359375 18.199219 9.515625 C 18.167969 9.574219 18.066406 9.582031 18.007812 9.699219 C 17.953125 9.8125 18.03125 9.894531 18.03125 9.894531 C 18.03125 9.894531 17.949219 9.902344 17.925781 9.945312 C 17.902344 9.992188 17.921875 10.058594 17.980469 10.089844 C 18.042969 10.121094 18.109375 10.097656 18.132812 10.050781 C 18.15625 10.007812 18.109375 9.933594 18.109375 9.933594 C 18.109375 9.933594 18.226562 9.949219 18.28125 9.839844 C 18.339844 9.722656 18.292969 9.636719 18.320312 9.578125 C 18.398438 9.421875 18.527344 9.171875 18.636719 8.953125 C 18.644531 8.9375 18.679688 8.953125 18.695312 8.917969 C 18.714844 8.882812 18.695312 8.855469 18.695312 8.855469 C 18.695312 8.855469 18.746094 8.832031 18.765625 8.792969 C 18.785156 8.757812 18.757812 8.710938 18.757812 8.710938 C 18.757812 8.710938 18.796875 8.695312 18.808594 8.667969 C 18.824219 8.640625 18.8125 8.609375 18.824219 8.585938 C 18.90625 8.425781 19.03125 8.183594 19.113281 8.019531 C 19.128906 7.992188 19.175781 7.980469 19.191406 7.957031 C 19.199219 7.941406 19.183594 7.90625 19.183594 7.90625 C 19.183594 7.90625 19.238281 7.902344 19.261719 7.882812 C 19.285156 7.863281 19.238281 7.820312 19.347656 7.707031 C 19.429688 7.625 19.558594 7.578125 19.558594 7.546875 C 19.554688 7.511719 19.429688 7.367188 19.429688 7.367188 C 19.429688 7.367188 19.484375 7.363281 19.5 7.328125 C 19.515625 7.296875 19.503906 7.257812 19.503906 7.257812 L 19.558594 7.25 L 19.558594 7 Z M 17.609375 10.632812 C 14.675781 13.492188 9.976562 13.429688 7.117188 10.492188 C 4.257812 7.554688 4.320312 2.859375 7.257812 0 C 7.257812 0 7.195312 -0.0195312 7.171875 -0.0078125 C 7.152344 0 7.171875 0.300781 7.171875 0.300781 C 7.171875 0.300781 7.425781 0.140625 7.421875 0.117188 C 7.417969 0.09375 7.363281 0.0546875 7.363281 0.0546875 C 7.386719 0.0507812 7.402344 0.0390625 7.410156 0.0234375 C 7.417969 0.00390625 7.417969 -0.0429688 7.363281 -0.0703125 C 7.339844 -0.0820312 7.320312 -0.0859375 7.304688 -0.0820312 C 7.277344 -0.0820312 7.261719 -0.0664062 7.257812 -0.0546875 Z M 17.609375 10.632812 "/>
<path style=" stroke:none;fill-rule:nonzero;fill:rgb(100%,81.960784%,0%);fill-opacity:1;" d="M 19.402344 7.15625 L 19.523438 7.214844 L 19.519531 7.070312 Z M 19.355469 7.242188 C 19.339844 7.273438 19.355469 7.3125 19.390625 7.328125 C 19.421875 7.347656 19.460938 7.335938 19.476562 7.304688 C 19.492188 7.277344 19.476562 7.238281 19.445312 7.21875 C 17.449219 7.222656 15.832031 5.609375 15.832031 3.613281 C 15.828125 1.621094 17.441406 0.00390625 19.4375 0 C 19.414062 0 19.394531 0.0117188 19.386719 0.03125 Z M 19.148438 7.351562 C 19.136719 7.363281 19.152344 7.46875 19.148438 7.5625 C 19.144531 7.648438 19.117188 7.671875 19.101562 7.703125 C 19.089844 7.730469 19.039062 7.761719 19.039062 7.761719 L 19.082031 7.804688 C 19.082031 7.804688 19.109375 7.761719 19.152344 7.679688 C 19.199219 7.578125 19.199219 7.398438 19.214844 7.390625 C 19.226562 7.382812 19.332031 7.355469 19.332031 7.355469 C 19.332031 7.355469 19.234375 7.351562 19.183594 7.351562 C 19.164062 7.351562 19.152344 7.351562 19.148438 7.351562 Z M 19.148438 7.351562 "/>
<path style=" stroke:none;fill-rule:nonzero;fill:rgb(100%,81.960784%,0%);fill-opacity:1;" d="M 19.160156 7.851562 C 19.160156 7.851562 19.171875 7.8125 19.222656 7.71875 C 19.28125 7.601562 19.40625 7.519531 19.410156 7.496094 C 19.414062 7.476562 19.367188 7.375 19.367188 7.375 C 19.367188 7.375 19.253906 7.394531 19.238281 7.410156 C 19.222656 7.425781 19.230469 7.578125 19.171875 7.691406 C 19.125 7.789062 19.097656 7.824219 19.097656 7.824219 Z M 19.160156 7.851562 "/>
<path style=" stroke:none;fill-rule:nonzero;fill:rgb(100%,81.960784%,0%);fill-opacity:1;" d="M 19.441406 7.507812 C 19.445312 7.523438 19.296875 7.628906 19.246094 7.726562 C 19.203125 7.8125 19.1875 7.859375 19.1875 7.859375 L 19.246094 7.867188 C 19.246094 7.867188 19.242188 7.808594 19.253906 7.78125 C 19.269531 7.75 19.273438 7.714844 19.339844 7.660156 C 19.414062 7.601562 19.511719 7.554688 19.511719 7.539062 C 19.511719 7.523438 19.402344 7.390625 19.402344 7.390625 C 19.402344 7.390625 19.441406 7.492188 19.441406 7.507812 Z M 19.015625 8.15625 C 19.101562 7.984375 19.128906 7.972656 19.140625 7.949219 C 19.152344 7.925781 19.148438 7.894531 19.109375 7.875 C 19.097656 7.867188 19.082031 7.867188 19.074219 7.867188 C 19.054688 7.867188 19.039062 7.878906 19.03125 7.894531 C 19.023438 7.917969 19.027344 7.945312 18.941406 8.117188 L 18.742188 8.507812 C 18.742188 8.507812 18.71875 8.546875 18.757812 8.566406 C 18.796875 8.585938 18.816406 8.546875 18.816406 8.546875 Z M 18.664062 8.601562 C 18.652344 8.625 18.671875 8.65625 18.703125 8.671875 C 18.738281 8.691406 18.777344 8.6875 18.785156 8.664062 C 18.796875 8.644531 18.777344 8.613281 18.742188 8.59375 C 18.726562 8.585938 18.710938 8.582031 18.695312 8.585938 C 18.679688 8.585938 18.667969 8.59375 18.664062 8.601562 Z M 18.589844 8.714844 C 18.574219 8.742188 18.597656 8.78125 18.636719 8.800781 C 18.679688 8.824219 18.722656 8.816406 18.738281 8.789062 C 18.753906 8.761719 18.730469 8.722656 18.6875 8.703125 C 18.671875 8.695312 18.660156 8.691406 18.644531 8.6875 C 18.621094 8.6875 18.597656 8.695312 18.589844 8.714844 Z M 18.542969 8.835938 C 18.53125 8.859375 18.550781 8.890625 18.585938 8.90625 C 18.617188 8.925781 18.65625 8.921875 18.667969 8.902344 C 18.675781 8.878906 18.660156 8.847656 18.625 8.832031 C 18.609375 8.820312 18.589844 8.816406 18.574219 8.820312 C 18.558594 8.820312 18.546875 8.828125 18.542969 8.835938 Z M 18.511719 8.957031 C 18.511719 8.957031 18.292969 9.390625 18.214844 9.542969 C 18.1875 9.59375 18.082031 9.625 18.042969 9.703125 C 18 9.785156 18.03125 9.863281 18.082031 9.890625 C 18.136719 9.917969 18.21875 9.898438 18.257812 9.816406 C 18.300781 9.734375 18.261719 9.632812 18.289062 9.582031 C 18.367188 9.429688 18.585938 8.996094 18.585938 8.996094 C 18.585938 8.996094 18.609375 8.957031 18.570312 8.9375 C 16.101562 8.9375 14.101562 6.9375 14.101562 4.46875 C 14.097656 2.003906 16.097656 0 18.566406 0 C 18.542969 0.00390625 18.535156 0.0234375 18.535156 0.0234375 Z M 17.953125 9.96875 C 17.9375 10 17.957031 10.042969 17.996094 10.0625 C 18.035156 10.085938 18.082031 10.074219 18.097656 10.042969 C 18.117188 10.007812 18.097656 9.964844 18.054688 9.945312 C 18.039062 9.9375 18.023438 9.933594 18.011719 9.933594 C 17.984375 9.933594 17.964844 9.945312 17.953125 9.96875 Z M 17.65625 10.632812 C 17.644531 10.632812 17.636719 10.636719 17.628906 10.644531 C 17.621094 10.660156 17.640625 10.6875 17.667969 10.703125 C 17.699219 10.71875 17.730469 10.71875 17.738281 10.699219 C 17.75 10.683594 17.730469 10.65625 17.699219 10.640625 C 17.6875 10.632812 17.671875 10.632812 17.65625 10.632812 Z M 17.554688 10.714844 L 17.554688 10.929688 L 17.730469 10.804688 C 17.730469 10.804688 17.707031 10.761719 17.652344 10.734375 C 17.601562 10.707031 17.554688 10.714844 17.554688 10.714844 Z M 17.554688 10.714844 "/>
<path style=" stroke:none;fill-rule:nonzero;fill:rgb(100%,81.960784%,0%);fill-opacity:1;" d="M 17.664062 5.929688 C 17.664062 5.8125 17.820312 5.695312 17.820312 5.695312 L 14.046875 5.695312 C 14.046875 5.695312 14.199219 5.8125 14.199219 5.929688 L 14.199219 8.738281 C 14.199219 8.8125 14.222656 8.863281 14.261719 8.910156 C 14.296875 8.960938 14.375 9.03125 14.453125 9.082031 C 14.703125 9.242188 15.117188 9.410156 15.429688 9.554688 C 15.691406 9.671875 15.796875 9.722656 15.933594 9.890625 C 16.070312 9.722656 16.175781 9.671875 16.4375 9.554688 C 16.75 9.410156 17.164062 9.242188 17.414062 9.082031 C 17.492188 9.03125 17.570312 8.960938 17.605469 8.910156 C 17.644531 8.863281 17.664062 8.8125 17.664062 8.738281 Z M 17.664062 5.929688 "/>
<path style=" stroke:none;fill-rule:nonzero;fill:rgb(78.431373%,6.27451%,18.039216%);fill-opacity:1;" d="M 14.289062 7.519531 L 14.289062 5.929688 C 14.289062 5.839844 14.246094 5.785156 14.246094 5.785156 L 17.621094 5.785156 C 17.621094 5.785156 17.574219 5.839844 17.574219 5.929688 L 17.578125 7.519531 L 15.933594 8.015625 Z M 14.289062 7.519531 "/>
<path style=" stroke:none;fill-rule:nonzero;fill:rgb(0%,23.921569%,64.705882%);fill-opacity:1;" d="M 17.578125 7.519531 L 16.558594 7.5 L 15.308594 7.5 L 14.289062 7.519531 L 14.289062 8.738281 C 14.289062 8.800781 14.355469 8.945312 14.71875 9.125 C 15.328125 9.429688 15.792969 9.570312 15.933594 9.742188 C 16.074219 9.570312 16.539062 9.429688 17.144531 9.125 C 17.511719 8.945312 17.574219 8.800781 17.574219 8.738281 Z M 17.578125 7.519531 "/>
<path style=" stroke:none;fill-rule:nonzero;fill:rgb(0%,0%,0%);fill-opacity:1;" d="M 16.535156 7.457031 C 16.535156 7.457031 17.121094 7.308594 17.121094 6.679688 C 17.121094 6.191406 16.53125 5.949219 16.515625 5.832031 C 16.457031 6.03125 16.710938 6.3125 16.710938 6.644531 C 16.710938 7.070312 16.398438 7.09375 16.398438 7.09375 C 16.324219 7.09375 16.292969 7.144531 16.265625 7.144531 C 16.203125 7.136719 16.171875 7.058594 16.109375 7.058594 C 16.054688 7.058594 16.007812 7.148438 15.933594 7.148438 C 15.855469 7.148438 15.8125 7.058594 15.753906 7.058594 C 15.695312 7.058594 15.664062 7.136719 15.601562 7.144531 C 15.574219 7.144531 15.542969 7.09375 15.46875 7.09375 C 15.46875 7.09375 15.152344 7.070312 15.152344 6.644531 C 15.152344 6.3125 15.40625 6.03125 15.351562 5.832031 C 15.332031 5.949219 14.746094 6.191406 14.746094 6.679688 C 14.746094 7.308594 15.332031 7.457031 15.332031 7.457031 L 15.164062 7.761719 C 15.164062 7.761719 15.40625 7.773438 15.535156 7.882812 C 15.691406 8.015625 15.675781 8.296875 15.675781 8.5 C 15.675781 8.660156 15.65625 8.832031 15.574219 8.898438 C 15.460938 8.996094 15.386719 9 15.386719 9.113281 C 15.386719 9.203125 15.457031 9.222656 15.574219 9.28125 C 15.722656 9.359375 15.714844 9.464844 15.933594 9.464844 C 16.152344 9.464844 16.144531 9.359375 16.292969 9.28125 C 16.410156 9.222656 16.480469 9.203125 16.480469 9.113281 C 16.480469 9 16.402344 8.996094 16.292969 8.898438 C 16.210938 8.832031 16.191406 8.660156 16.191406 8.5 C 16.191406 8.296875 16.175781 8.015625 16.332031 7.882812 C 16.460938 7.773438 16.703125 7.761719 16.703125 7.761719 Z M 16.535156 7.457031 "/>
<path style=" stroke:none;fill-rule:nonzero;fill:rgb(0%,0%,0%);fill-opacity:1;" d="M 15.933594 5.875 L 15.832031 6.164062 L 15.554688 6.03125 L 15.683594 6.308594 L 15.394531 6.410156 L 15.683594 6.515625 L 15.554688 6.792969 L 15.832031 6.660156 L 15.933594 6.949219 L 16.035156 6.660156 L 16.3125 6.792969 L 16.179688 6.515625 L 16.46875 6.410156 L 16.179688 6.308594 L 16.3125 6.03125 L 16.035156 6.164062 Z M 15.308594 7.5 C 15.308594 7.5 14.945312 7.410156 14.808594 7.234375 C 14.574219 7.445312 14.289062 7.519531 14.289062 7.519531 C 14.289062 7.519531 14.585938 7.652344 14.808594 7.824219 C 14.914062 7.675781 15.308594 7.5 15.308594 7.5 Z M 16.558594 7.5 C 16.558594 7.5 16.953125 7.675781 17.058594 7.824219 C 17.28125 7.652344 17.578125 7.519531 17.578125 7.519531 C 17.578125 7.519531 17.292969 7.445312 17.058594 7.234375 C 16.921875 7.410156 16.558594 7.5 16.558594 7.5 Z M 15.457031 7.886719 L 15.316406 8.027344 L 15.457031 8.167969 L 15.597656 8.027344 Z M 16.410156 7.886719 L 16.269531 8.027344 L 16.410156 8.167969 L 16.550781 8.027344 Z M 15.421875 8.710938 C 15.421875 8.886719 15.402344 8.980469 15.402344 8.980469 C 15.402344 8.980469 15.601562 8.921875 15.640625 8.722656 C 15.660156 8.628906 15.679688 8.277344 15.585938 8.21875 L 15.324219 8.167969 C 15.355469 8.238281 15.421875 8.453125 15.421875 8.710938 Z M 16.28125 8.21875 C 16.1875 8.277344 16.207031 8.628906 16.226562 8.722656 C 16.265625 8.921875 16.464844 8.980469 16.464844 8.980469 C 16.464844 8.980469 16.445312 8.886719 16.445312 8.710938 C 16.445312 8.453125 16.511719 8.238281 16.539062 8.167969 Z M 14.808594 8.230469 C 14.71875 8.253906 14.664062 8.34375 14.6875 8.433594 C 14.691406 8.445312 14.695312 8.457031 14.703125 8.472656 C 14.730469 8.523438 14.730469 8.589844 14.695312 8.640625 C 14.609375 8.644531 14.539062 8.710938 14.535156 8.796875 C 14.527344 8.886719 14.597656 8.96875 14.691406 8.972656 C 14.6875 8.90625 14.730469 8.84375 14.792969 8.816406 C 14.855469 8.789062 14.925781 8.804688 14.976562 8.851562 C 15.023438 8.902344 15.035156 8.972656 15.011719 9.035156 C 14.984375 9.097656 14.921875 9.140625 14.855469 9.136719 C 14.820312 9.222656 14.859375 9.320312 14.945312 9.355469 C 15.03125 9.390625 15.128906 9.347656 15.164062 9.261719 C 15.167969 9.175781 15.238281 9.105469 15.328125 9.105469 C 15.414062 9.105469 15.484375 9.175781 15.484375 9.265625 C 15.488281 9.351562 15.417969 9.425781 15.328125 9.425781 C 15.398438 9.488281 15.503906 9.476562 15.566406 9.40625 C 15.535156 9.441406 15.496094 9.460938 15.453125 9.464844 C 15.40625 9.46875 15.363281 9.457031 15.328125 9.425781 C 15.320312 9.417969 15.308594 9.410156 15.296875 9.40625 C 15.300781 11.03125 13.988281 12.355469 12.359375 12.359375 C 10.734375 12.367188 9.410156 11.054688 9.40625 9.425781 C 9.484375 9.378906 9.507812 9.273438 9.457031 9.195312 C 9.425781 9.140625 9.367188 9.113281 9.304688 9.117188 C 9.34375 9.164062 9.351562 9.230469 9.332031 9.285156 L 9.5 9.453125 C 9.480469 9.375 9.40625 9.324219 9.332031 9.324219 C 9.347656 9.367188 9.347656 9.410156 9.335938 9.453125 Z M 16.582031 8.714844 C 16.601562 8.886719 16.738281 9.027344 16.910156 9.070312 C 16.882812 9.023438 16.863281 8.96875 16.855469 8.914062 C 16.835938 8.710938 16.992188 8.546875 17.207031 8.546875 C 17.238281 8.546875 17.269531 8.550781 17.304688 8.558594 C 17.226562 8.433594 17.085938 8.347656 16.933594 8.347656 C 16.71875 8.347656 16.5625 8.511719 16.582031 8.714844 Z M 16.582031 8.714844 "/>
<path style=" stroke:none;fill-rule:nonzero;fill:rgb(100%,81.960784%,0%);fill-opacity:1;" d="M 15.066406 6.644531 C 15.066406 6.964844 15.238281 7.15625 15.46875 7.15625 C 15.511719 7.15625 15.5625 7.214844 15.601562 7.214844 C 15.667969 7.214844 15.714844 7.140625 15.753906 7.140625 C 15.808594 7.140625 15.84375 7.222656 15.933594 7.222656 C 16.023438 7.222656 16.058594 7.140625 16.109375 7.140625 C 16.152344 7.140625 16.195312 7.214844 16.265625 7.214844 C 16.304688 7.214844 16.351562 7.15625 16.398438 7.15625 C 16.625 7.15625 16.796875 6.964844 16.796875 6.644531 C 16.796875 6.378906 16.578125 6.058594 16.601562 6.007812 C 16.601562 6.007812 17.03125 6.316406 17.03125 6.679688 C 17.03125 7.265625 16.4375 7.410156 16.4375 7.410156 L 16.570312 7.710938 C 16.570312 7.710938 16.386719 7.742188 16.273438 7.832031 C 16.125 7.953125 16.125 8.277344 16.125 8.5 C 16.125 8.761719 16.132812 8.871094 16.226562 8.941406 C 16.324219 9.015625 16.402344 9.03125 16.402344 9.109375 C 16.402344 9.175781 16.324219 9.199219 16.222656 9.246094 C 16.109375 9.296875 16.097656 9.382812 15.933594 9.382812 C 15.769531 9.382812 15.757812 9.296875 15.644531 9.246094 C 15.542969 9.199219 15.464844 9.175781 15.464844 9.109375 C 15.464844 9.03125 15.539062 9.015625 15.640625 8.941406 C 15.734375 8.871094 15.742188 8.761719 15.742188 8.5 C 15.742188 8.277344 15.742188 7.953125 15.589844 7.832031 C 15.480469 7.738281 15.292969 7.710938 15.292969 7.710938 L 15.429688 7.410156 C 15.429688 7.410156 14.835938 7.265625 14.835938 6.679688 C 14.835938 6.316406 15.265625 6.007812 15.265625 6.007812 C 15.289062 6.058594 15.066406 6.378906 15.066406 6.644531 Z M 15.707031 9.0625 C 15.589844 9.0625 15.515625 9.089844 15.515625 9.125 C 15.515625 9.160156 15.589844 9.183594 15.707031 9.183594 C 15.738281 9.183594 15.773438 9.164062 15.773438 9.125 C 15.773438 9.082031 15.738281 9.0625 15.707031 9.0625 Z M 16.160156 9.0625 C 16.128906 9.0625 16.09375 9.082031 16.09375 9.125 C 16.09375 9.164062 16.128906 9.183594 16.160156 9.183594 C 16.273438 9.183594 16.351562 9.160156 16.351562 9.125 C 16.351562 9.089844 16.273438 9.0625 16.160156 9.0625 Z M 16.160156 9.0625 "/>
<path style=" stroke:none;fill-rule:nonzero;fill:rgb(100%,81.960784%,0%);fill-opacity:1;" d="M 15.933594 6.070312 L 16 6.253906 L 16.175781 6.167969 L 16.09375 6.347656 L 16.277344 6.414062 L 16.09375 6.476562 L 16.175781 6.652344 L 16 6.570312 L 15.933594 6.753906 L 15.867188 6.570312 L 15.691406 6.652344 L 15.773438 6.476562 L 15.589844 6.414062 L 15.773438 6.347656 L 15.691406 6.167969 L 15.867188 6.253906 Z M 14.460938 7.523438 C 14.460938 7.523438 14.6875 7.636719 14.800781 7.734375 L 14.804688 7.742188 L 14.808594 7.738281 C 14.917969 7.613281 15.113281 7.511719 15.113281 7.511719 C 15.113281 7.511719 14.921875 7.457031 14.804688 7.320312 C 14.679688 7.449219 14.460938 7.523438 14.460938 7.523438 Z M 17.402344 7.523438 C 17.402344 7.523438 17.179688 7.636719 17.066406 7.738281 L 17.058594 7.742188 L 17.058594 7.738281 C 16.949219 7.613281 16.753906 7.511719 16.753906 7.511719 C 16.753906 7.511719 16.941406 7.460938 17.0625 7.324219 C 17.1875 7.449219 17.402344 7.523438 17.402344 7.523438 Z M 15.457031 7.953125 L 15.53125 8.027344 L 15.457031 8.101562 L 15.382812 8.027344 Z M 16.410156 7.953125 L 16.484375 8.027344 L 16.410156 8.101562 L 16.335938 8.027344 Z M 15.554688 8.277344 C 15.609375 8.347656 15.597656 8.460938 15.597656 8.621094 C 15.597656 8.78125 15.476562 8.84375 15.476562 8.84375 C 15.476562 8.457031 15.4375 8.363281 15.417969 8.246094 Z M 16.449219 8.246094 C 16.429688 8.363281 16.390625 8.457031 16.390625 8.84375 C 16.390625 8.84375 16.269531 8.78125 16.269531 8.621094 C 16.269531 8.460938 16.257812 8.347656 16.308594 8.277344 Z M 16.449219 8.246094 "/>
<path style=" stroke:none;fill-rule:nonzero;fill:rgb(100%,81.960784%,0%);fill-opacity:1;" d="M 14.984375 8.394531 C 14.988281 8.40625 14.988281 8.421875 14.988281 8.4375 C 14.984375 8.449219 14.980469 8.457031 14.976562 8.46875 C 14.957031 8.460938 14.9375 8.457031 14.914062 8.457031 C 14.859375 8.457031 14.808594 8.484375 14.773438 8.523438 C 12.417969 8.527344 10.503906 6.628906 10.496094 4.273438 C 10.492188 1.921875 12.390625 0.0078125 14.746094 0 C 14.738281 -0.0117188 14.730469 -0.0234375 14.726562 -0.0390625 C 14.710938 -0.109375 14.753906 -0.179688 14.824219 -0.195312 C 14.832031 -0.199219 14.839844 -0.199219 14.847656 -0.199219 C 14.902344 3.957031 11.578125 7.371094 7.425781 7.425781 C 3.269531 7.480469 -0.144531 4.15625 -0.199219 0 Z M 14.984375 8.394531 "/>
<path style=" stroke:none;fill-rule:nonzero;fill:rgb(100%,81.960784%,0%);fill-opacity:1;" d="M 15.175781 8.636719 C 15.164062 8.644531 15.152344 8.648438 15.136719 8.652344 C 15.125 8.65625 15.117188 8.65625 15.105469 8.65625 C 15.105469 8.632812 15.101562 8.609375 15.09375 8.589844 C 15.078125 8.535156 15.039062 8.496094 14.992188 8.476562 C 14.257812 6.238281 15.472656 3.832031 17.707031 3.097656 C 19.945312 2.363281 22.351562 3.578125 23.085938 5.816406 C 23.09375 5.804688 23.105469 5.796875 23.117188 5.789062 C 23.179688 5.75 23.257812 5.769531 23.296875 5.828125 C 23.300781 5.835938 23.304688 5.84375 23.308594 5.851562 C 19.375 7.1875 15.101562 5.082031 13.761719 1.148438 C 12.425781 -2.789062 14.535156 -7.0625 18.46875 -8.398438 Z M 15.175781 8.636719 "/>
<path style=" stroke:none;fill-rule:nonzero;fill:rgb(100%,81.960784%,0%);fill-opacity:1;" d="M 15.007812 8.894531 C 14.996094 8.886719 14.988281 8.875 14.980469 8.863281 C 14.972656 8.851562 14.96875 8.84375 14.964844 8.832031 C 14.988281 8.824219 15.007812 8.816406 15.027344 8.800781 C 15.070312 8.769531 15.097656 8.71875 15.101562 8.667969 C 17 7.277344 19.667969 7.691406 21.058594 9.589844 C 22.445312 11.492188 22.03125 14.15625 20.132812 15.546875 C 20.144531 15.550781 20.160156 15.558594 20.167969 15.566406 C 20.226562 15.613281 20.230469 15.695312 20.1875 15.75 C 20.179688 15.757812 20.171875 15.761719 20.167969 15.769531 C 17.679688 12.4375 18.363281 7.722656 21.691406 5.238281 C 25.019531 2.75 29.738281 3.433594 32.222656 6.761719 Z M 15.007812 8.894531 "/>
<path style=" stroke:none;fill-rule:nonzero;fill:rgb(100%,81.960784%,0%);fill-opacity:1;" d="M 14.707031 8.8125 C 14.710938 8.800781 14.722656 8.789062 14.730469 8.777344 C 14.738281 8.769531 14.746094 8.761719 14.757812 8.753906 C 14.769531 8.773438 14.785156 8.789062 14.800781 8.800781 C 14.847656 8.835938 14.902344 8.84375 14.953125 8.832031 C 16.863281 10.210938 17.292969 12.875 15.914062 14.78125 C 14.539062 16.691406 11.875 17.121094 9.964844 15.742188 C 9.964844 15.757812 9.964844 15.773438 9.957031 15.785156 C 9.929688 15.851562 9.855469 15.882812 9.789062 15.855469 C 9.78125 15.851562 9.773438 15.847656 9.765625 15.84375 C 12.164062 12.449219 16.859375 11.640625 20.253906 14.039062 C 23.648438 16.4375 24.453125 21.132812 22.058594 24.527344 Z M 14.707031 8.8125 "/>
<path style=" stroke:none;fill-rule:nonzero;fill:rgb(100%,81.960784%,0%);fill-opacity:1;" d="M 14.691406 8.503906 C 14.707031 8.503906 14.722656 8.507812 14.734375 8.511719 C 14.746094 8.519531 14.753906 8.523438 14.761719 8.53125 C 14.75 8.546875 14.738281 8.566406 14.734375 8.589844 C 14.714844 8.644531 14.722656 8.699219 14.75 8.742188 C 14.03125 10.984375 11.628906 12.214844 9.390625 11.496094 C 7.148438 10.777344 5.917969 8.375 6.636719 6.136719 C 6.625 6.140625 6.609375 6.140625 6.59375 6.140625 C 6.523438 6.136719 6.46875 6.074219 6.472656 6 C 6.476562 5.992188 6.476562 5.984375 6.480469 5.976562 C 10.449219 7.207031 12.667969 11.421875 11.433594 15.394531 C 10.203125 19.363281 5.988281 21.582031 2.019531 20.347656 Z M 14.691406 8.503906 "/>
<path style=" stroke:none;fill-rule:nonzero;fill:rgb(100%,81.960784%,0%);fill-opacity:1;" d="M 15.039062 8.648438 C 15.039062 8.71875 14.984375 8.773438 14.914062 8.773438 C 14.84375 8.773438 14.789062 8.71875 14.789062 8.648438 C 14.789062 8.578125 14.84375 8.523438 14.914062 8.523438 C 14.984375 8.523438 15.039062 8.578125 15.039062 8.648438 Z M 15.039062 8.648438 "/>
<path style=" stroke:none;fill-rule:nonzero;fill:rgb(100%,81.960784%,0%);fill-opacity:1;" d="M 17.117188 8.480469 C 16.910156 8.519531 16.761719 8.703125 16.78125 8.917969 C 16.714844 8.863281 16.667969 8.789062 16.65625 8.707031 C 16.640625 8.546875 16.757812 8.425781 16.933594 8.425781 C 17 8.425781 17.0625 8.445312 17.117188 8.480469 Z M 17.117188 8.480469 "/>
</g>
</svg>
