<svg xmlns="http://www.w3.org/2000/svg" id="flag-icons-md" viewBox="0 0 24 18" width="24" height="16"><g fill-rule="evenodd" stroke-width="1pt"><path fill="#00319c" d="M0 0h7.999v18H0z"/><path fill="#ffde00" d="M7.999 0h8.002v18H7.999z"/><path fill="#de2110" d="M16.001 0H24v18H16.001z"/></g><path fill="#ff1900" fill-rule="evenodd" stroke="#000" stroke-width="0.02625" d="m13.515 12.015 0.907 1.313c0.052 0.075 0.101 0.146 0.026 0.195s-0.052 0.24 0 0.315c0.101 0.146 0.225 0.169 0.3 0.12l0.69 -0.435c0.075 -0.045 0.101 -0.169 0 -0.315 -0.056 -0.075 -0.225 -0.169 -0.3 -0.12 -0.079 0.049 -0.131 -0.026 -0.18 -0.098l-0.911 -1.313"/><path fill="#a77b3b" fill-rule="evenodd" stroke="#000" stroke-width="0.09375" d="M6.645 26.111c0 0.915 -0.36 1.661 -0.799 1.661s-0.799 -0.746 -0.799 -1.661S5.411 24.45 5.85 24.45s0.799 0.743 0.799 1.661z" transform="matrix(.52728 -.42386 .44358 .50386 -32.4 20)"/><path fill="#ff1900" fill-rule="evenodd" stroke="#000" stroke-width="0.02625" d="m9.825 11.479 -0.806 1.376c-0.045 0.075 -0.09 0.15 -0.169 0.112 -0.079 -0.045 -0.247 0.064 -0.292 0.142 -0.09 0.15 -0.056 0.27 0.026 0.315l0.72 0.382c0.075 0.041 0.203 0.007 0.292 -0.142 0.041 -0.083 0.052 -0.274 -0.026 -0.315s-0.037 -0.12 0.011 -0.195l0.802 -1.376"/><path fill="#a77b3b" fill-rule="evenodd" stroke="#000" stroke-width="0.06375" d="M12.42 10.523h-0.735c-0.022 0.022 -0.232 1.335 -0.457 1.837 -0.274 0.611 -1.095 1.151 -1.095 1.151s0.491 0.15 0.637 0.247c0.037 -0.011 0.825 -0.176 0.915 -1.136 0.09 0.96 -0.547 1.399 -0.547 1.399s0.915 0.263 0.915 0.874c0 -0.611 0.915 -0.874 0.915 -0.874s-0.457 -0.439 -0.551 -1.399c0.188 0.96 0.881 1.125 0.919 1.136 0.146 -0.098 0.637 -0.247 0.637 -0.247s-0.821 -0.54 -1.095 -1.151c-0.225 -0.502 -0.435 -1.815 -0.457 -1.837zm-3.112 -4.376 1.373 0.439c0.454 0 0.915 -0.439 0.915 -0.877 0.015 -0.975 -0.367 -1.313 -0.457 -1.313l0.18 -0.172 -0.274 -0.263s0.094 -0.454 1.009 -0.439c0.915 0.019 0.915 0.439 0.915 0.874s-0.457 0.439 -0.457 1.313c0 0.439 0.457 0.877 0.915 0.877l1.373 -0.439v4.376H9.304z"/><g fill="none" stroke="#000"><path stroke-width="0.01875" d="m11.332 10.957 0.547 0.563 0.551 -0.563 0.547 0.563 1.099 -0.563 0.536 0.593 0.563 -0.593 0.81 0.593 0.836 -0.593 0.547 0.563 0.551 -0.563" transform="matrix(.16672 0 0 .46773 253.9 31.9)"/><path stroke-width="0.0075" d="m16.211 16.343 -0.266 1.462m0.397 -1.462v1.462m0.266 -1.462v1.462m0.266 -1.462 0.131 1.462m0.135 -1.462 0.131 1.462" transform="matrix(.68905 0 0 .65843 16.2 -144)"/></g><g stroke="#000" stroke-width="2.5"><path fill="#a77b3b" fill-rule="evenodd" d="M11.959 13.552c1.327 0.664 1.327 1.995 1.327 2.659 -0.045 0.604 0 13.286 0 13.286s-0.086 -0.75 -0.664 -1.327L11.963 27.506l-0.664 -0.664c-0.487 -0.443 -0.664 -1.331 -0.664 -1.995v-9.3s0 -0.667 1.327 -1.995z" transform="matrix(-.68905 0 0 .65843 443.4 -144)"/><path fill="none" d="M10.631 21.525c0.015 0 0.664 -0.664 0.664 -0.664l0.664 0.664 0.664 -0.664 0.664 0.664" transform="matrix(-.68905 0 0 .65843 443.4 -237.3)"/><path fill="none" d="M10.631 21.525c0.015 0 0.664 -0.664 0.664 -0.664l0.664 0.664 0.664 -0.664 0.664 0.664" transform="matrix(-.68905 0 0 -.65843 443.4 530.2)"/><path fill="none" d="M10.631 21.525c0.015 0 0.664 -0.664 0.664 -0.664l0.664 0.664 0.664 -0.664 0.664 0.664" transform="matrix(-.68905 0 0 .65843 443.4 -190.7)"/><path fill="none" d="m11.302 20.887 -0.007 5.955" transform="matrix(-.68905 0 0 1.24911 443.4 -566.8)"/><path fill="none" d="m11.302 20.224 -0.007 6.619" transform="matrix(-.68905 0 0 1.12111 431.4 -464)"/><path fill="none" d="m11.302 20.224 -0.007 6.619" transform="matrix(-.68905 0 0 1.2559 419.2 -548.3)"/></g><g stroke="#000" stroke-width="2.5"><path fill="#a77b3b" fill-rule="evenodd" d="M11.959 13.552c1.327 0.664 1.327 1.995 1.327 2.659 -0.045 0.604 0 13.286 0 13.286s-0.086 -0.75 -0.664 -1.327L11.963 27.506l-0.664 -0.664c-0.487 -0.443 -0.664 -1.331 -0.664 -1.995v-9.3s0 -0.667 1.327 -1.995z" transform="matrix(.68905 0 0 .65843 199.3 -144)"/><path fill="none" d="M10.631 21.525c0.015 0 0.664 -0.664 0.664 -0.664l0.664 0.664 0.664 -0.664 0.664 0.664" transform="matrix(.68905 0 0 .65843 199.3 -237.3)"/><path fill="none" d="M10.631 21.525c0.015 0 0.664 -0.664 0.664 -0.664l0.664 0.664 0.664 -0.664 0.664 0.664" transform="matrix(.68905 0 0 -.65843 199.3 530.2)"/><path fill="none" d="M10.631 21.525c0.015 0 0.664 -0.664 0.664 -0.664l0.664 0.664 0.664 -0.664 0.664 0.664" transform="matrix(.68905 0 0 .65843 199.3 -190.7)"/><path fill="none" d="m11.302 20.887 -0.007 5.955" transform="matrix(.68905 0 0 1.24911 199.3 -566.8)"/><path fill="none" d="m11.302 20.224 -0.007 6.619" transform="matrix(.68905 0 0 1.12111 211.4 -464)"/><path fill="none" d="m11.302 20.224 -0.007 6.619" transform="matrix(.68905 0 0 1.2559 223.6 -548.3)"/></g><path fill="#a77b3b" fill-rule="evenodd" stroke="#000" stroke-width="0.09375" d="M6.645 26.111c0 0.915 -0.36 1.661 -0.799 1.661s-0.799 -0.746 -0.799 -1.661S5.411 24.45 5.85 24.45s0.799 0.743 0.799 1.661z" transform="matrix(.63605 .25323 -.26502 .60778 361.1 -165.2)"/><path fill="red" fill-rule="evenodd" d="M9.304 6.585h5.494v2.625H9.304z"/><path fill="#564dff" fill-rule="evenodd" d="M9.304 9.21h5.494v1.313c0 0.874 -1.373 0.874 -2.745 1.748C10.676 11.4 9.3 11.4 9.3 10.523z"/><path fill="none" stroke="#ff0" stroke-width="0.075" d="M12.623 18.202h7.972V24.188c0 1.327 -1.991 1.327 -3.986 2.659 -1.991 -1.331 -3.986 -1.331 -3.986 -2.663V18.206z" transform="matrix(.68905 0 0 .65843 16.2 -144)"/><path fill="#ff0" fill-rule="evenodd" stroke="#000" stroke-width="0.09375" d="M14.46 4.871S12.563 6.952 12.563 8.944s1.991 2.659 1.991 2.659 -0.664 0 -0.664 2.655c0 1.331 1.991 0.667 1.991 1.331s-0.026 2.269 0 3.322c0 0.664 -1.327 0 -1.327 0.664 0 0.33 0.998 1.991 1.995 1.991s1.991 -1.661 1.991 -1.991c0 -0.664 -1.327 0 -1.327 -0.664v-3.322c0 -0.664 1.991 0 1.991 -1.331 0 -2.655 -0.664 -2.655 -0.664 -2.655s1.995 -0.664 1.995 -2.659 -1.901 -4.072 -1.901 -4.072 1.069 2.745 1.069 4.072c0 0.664 -0.499 1.995 -1.826 1.995 0 0 -0.337 -0.667 -0.664 0 0 0 -0.382 -0.667 -0.664 0 -0.098 0.225 -0.27 -0.667 -0.667 0 -0.165 0.176 -0.3 -0.667 -0.664 0 -0.664 0 -1.991 -0.667 -1.991 -1.995s1.234 -4.072 1.234 -4.072z" transform="matrix(.48234 0 0 .30917 108.5 140.1)"/><path fill="#ff0" fill-rule="evenodd" stroke="#000" stroke-width="0.09375" d="M14.351 9.3c-0.135 0.135 0.172 2.299 0.263 2.392 0.135 0.131 0.934 0.131 1.065 0 0.094 -0.094 0 -2.126 -0.131 -2.257 -0.135 -0.135 -1.102 -0.225 -1.2 -0.135z" transform="matrix(.48234 0 0 .30917 110.4 201.6)"/><path fill="#ff0" fill-rule="evenodd" stroke="#000" stroke-width="0.09375" d="M14.351 9.3c-0.135 0.135 0.172 2.299 0.263 2.392 0.135 0.131 0.934 0.131 1.065 0 0.094 -0.094 0 -2.126 -0.131 -2.257 -0.135 -0.135 -1.102 -0.225 -1.2 -0.135z" transform="matrix(-.48234 0 0 .30917 532.4 201.6)"/><path fill="#ff0" fill-rule="evenodd" stroke="#000" stroke-width="0.09375" d="M15.547 8.569a0.6 0.6 0 1 1 -1.2 0 0.6 0.6 0 0 1 1.2 0z" transform="matrix(.5544 0 0 .38542 82.7 183.7)"/><path fill="#ff0" fill-rule="evenodd" stroke="#000" stroke-width="0.09375" d="M15.547 8.569a0.6 0.6 0 1 1 -1.2 0 0.6 0.6 0 0 1 1.2 0z" transform="matrix(.55441 0 0 .38543 118 183.7)"/><path fill-rule="evenodd" d="M12.63 11.531c0 0.056 -0.075 0.101 -0.161 0.101 -0.09 0 -0.161 -0.045 -0.161 -0.101s0.075 -0.101 0.161 -0.101 0.161 0.045 0.161 0.101m-0.836 0c0 0.056 -0.071 0.101 -0.158 0.101 -0.09 0 -0.161 -0.045 -0.161 -0.101s0.071 -0.101 0.161 -0.101c0.086 0 0.158 0.045 0.158 0.101"/><path fill="#ff0" fill-rule="evenodd" stroke="#000" stroke-width="0.04125" d="m16.477 20.625 -0.292 -0.386 -0.48 0.064 0.068 -0.48 -0.386 -0.289 0.386 -0.292 -0.068 -0.48 0.48 0.068 0.292 -0.386 0.292 0.386 0.476 -0.068 -0.064 0.48 0.382 0.292 -0.382 0.292 0.064 0.476 -0.48 -0.064z" transform="matrix(.67225 0 0 .64237 26 -133.3)"/><path fill="#ff0" fill-rule="evenodd" stroke="#000" stroke-width="0.04125" d="m18.6 22.189 0.799 0.401 0.799 -0.401 -0.799 -0.397z" transform="matrix(.68905 0 0 .65843 16.2 -144)"/><path fill="#ff0" fill-rule="evenodd" stroke="#000" stroke-width="0.04125" d="m18.6 22.189 0.799 0.401 0.799 -0.401 -0.799 -0.397z" transform="matrix(.68905 0 0 .65843 -88.8 -144)"/><path fill="#ff0" fill-rule="evenodd" stroke="#000" stroke-width="0.04125" d="M20.063 24.712c-0.131 -0.263 -0.529 -0.397 -0.795 -0.397s-0.532 0 -0.799 0.401c0 -0.532 0.394 -0.799 0.799 -0.799a0.851 0.851 0 0 1 0.795 0.799z" transform="matrix(.59753 -.3279 .34316 .57097 -165.2 86.5)"/><path fill="#ff0" fill-rule="evenodd" stroke="#000" stroke-width="0.04125" d="M14.482 24.45a0.263 0.263 0 1 1 -0.529 0 0.263 0.263 0 0 1 0.529 0z" transform="matrix(.68905 0 0 .65843 13.7 -155.7)"/><path fill="#ff0" fill-rule="evenodd" stroke="#000" stroke-width="0.04125" d="M14.482 24.45a0.263 0.263 0 1 1 -0.529 0 0.263 0.263 0 0 1 0.529 0z" transform="matrix(.68905 0 0 .65843 8.8 -139.4)"/><path fill="#ff0" fill-rule="evenodd" stroke="#000" stroke-width="0.04125" d="M14.482 24.45a0.263 0.263 0 1 1 -0.529 0 0.263 0.263 0 0 1 0.529 0z" transform="matrix(.68905 0 0 .65843 6.4 -148.7)"/><path fill="#ff0" fill-rule="evenodd" stroke="#000" stroke-width="0.04125" d="M14.482 24.45a0.263 0.263 0 1 1 -0.529 0 0.263 0.263 0 0 1 0.529 0z" transform="matrix(.68905 0 0 .65843 18.6 -139.4)"/><path fill="#ff0" fill-rule="evenodd" stroke="#000" stroke-width="0.04125" d="M14.482 24.45a0.263 0.263 0 1 1 -0.529 0 0.263 0.263 0 0 1 0.529 0z" transform="matrix(.68905 0 0 .65843 21 -148.7)"/><path fill="#ff0" fill-rule="evenodd" stroke="#000" stroke-width="0.04125" d="M14.482 24.45a0.263 0.263 0 1 1 -0.529 0 0.263 0.263 0 0 1 0.529 0z" transform="matrix(.68905 0 0 .65843 13.7 -146.4)"/><g fill-rule="evenodd"><path fill="#da4500" d="M11.168 4.515c-0.465 0 -0.525 0.075 -0.735 0.146 0 -0.203 0.517 -0.439 0.975 -0.439 0 0.146 -0.12 0.292 -0.24 0.292"/><path fill="#cac9c7" d="M11.869 4.05c0 0.094 -0.083 0.172 -0.184 0.172s-0.184 -0.079 -0.184 -0.176 0.083 -0.172 0.184 -0.172 0.184 0.075 0.184 0.172z"/><path fill="#ff0" stroke="#000" stroke-width="0.04125" d="M13.552 13.421v0.397h0.664v1.991h0.401v-1.991h0.664v-0.397h-0.664v-0.532H14.213v0.532z" transform="matrix(.68905 0 0 .65843 16.2 -144)"/><path fill="#da4500" d="M11.411 4.222a2.944 2.944 0 0 0 -1.099 0.146c0 -0.27 0.315 -0.585 0.855 -0.585 0.12 0 0.244 0.292 0.244 0.439"/></g><g fill-rule="evenodd"><path fill="#008500" stroke="#000" stroke-width="0.02625" d="M2.524 22.988c-0.532 -0.532 -0.623 -0.802 0.135 -0.379l10.639 9.281 -0.128 0.263L2.528 22.988z" transform="matrix(.38821 .29653 -.14073 .23692 237.4 71.3)"/><path fill="#008f00" d="M8.565 12.39c0.03 -0.397 -0.698 -0.825 -0.727 -0.799 -0.026 0.03 0.045 0.263 0.184 0.379 -0.263 -0.135 -0.54 -0.217 -0.547 -0.161 -0.022 0.083 0.412 0.27 0.45 0.345 0 0.052 -0.322 0.045 -0.315 0.098s0.911 0.51 0.956 0.139M7.837 11.235c0.03 -0.397 -0.698 -0.825 -0.724 -0.799 -0.03 0.026 0.041 0.259 0.18 0.379 -0.263 -0.135 -0.54 -0.221 -0.547 -0.161 -0.019 0.079 0.412 0.27 0.45 0.345 0.004 0.052 -0.319 0.045 -0.315 0.098 0.007 0.052 0.911 0.506 0.956 0.139m-0.555 -1.05c0.03 -0.397 -0.698 -0.825 -0.727 -0.799 -0.026 0.026 0.045 0.259 0.184 0.379 -0.263 -0.135 -0.54 -0.221 -0.547 -0.161 -0.019 0.079 0.412 0.27 0.45 0.345 0 0.052 -0.319 0.045 -0.315 0.098 0.007 0.052 0.911 0.51 0.956 0.139m-0.547 -1.14c0.026 -0.394 -0.698 -0.825 -0.727 -0.799 -0.03 0.03 0.045 0.263 0.18 0.382 -0.263 -0.139 -0.54 -0.221 -0.544 -0.161 -0.022 0.079 0.412 0.27 0.446 0.341 0.004 0.052 -0.319 0.049 -0.311 0.101 0.004 0.052 0.907 0.506 0.956 0.135"/><path fill="#008f00" d="M6.922 8.996c0.352 -0.214 0.281 -1.027 0.244 -1.035 -0.041 -0.004 -0.195 0.188 -0.214 0.367 -0.041 -0.285 -0.135 -0.547 -0.188 -0.517 -0.079 0.03 0.015 0.476 -0.026 0.547 -0.037 0.037 -0.225 -0.217 -0.263 -0.18 -0.045 0.037 0.105 1.001 0.45 0.818zm0.51 0.998c0.405 -0.09 0.626 -0.877 0.589 -0.896s-0.247 0.112 -0.326 0.278c0.06 -0.281 0.064 -0.559 0 -0.547 -0.086 0.004 -0.15 0.454 -0.214 0.506 -0.049 0.022 -0.139 -0.274 -0.188 -0.255 -0.052 0.022 -0.247 0.979 0.139 0.915m0.607 1.02c0.371 -0.18 0.375 -0.998 0.337 -1.005 -0.037 -0.011 -0.206 0.169 -0.244 0.345 -0.015 -0.289 -0.083 -0.555 -0.139 -0.529 -0.083 0.022 -0.03 0.472 -0.075 0.54 -0.045 0.034 -0.206 -0.236 -0.251 -0.203 -0.045 0.03 0.015 1.005 0.375 0.851zm0.66 1.335c0.386 -0.146 0.48 -0.956 0.443 -0.971 -0.037 -0.011 -0.225 0.15 -0.281 0.322 0.015 -0.289 -0.022 -0.563 -0.083 -0.54 -0.086 0.015 -0.079 0.469 -0.131 0.532 -0.049 0.026 -0.18 -0.255 -0.225 -0.225 -0.049 0.022 -0.094 1.001 0.278 0.881"/></g><path fill="#ff1900" fill-rule="evenodd" stroke="#000" stroke-width="0.04125" d="M7.837 29.1c0 0.292 -0.382 0.532 -0.862 0.532s-0.862 -0.24 -0.862 -0.532 0.386 -0.532 0.862 -0.532 0.862 0.24 0.862 0.532z" transform="matrix(.60164 .32097 -.3359 .5749 389.6 -146.8)"/><g fill="#ff0" fill-rule="evenodd" stroke="#000" stroke-width=".5"><path d="M5.85 15.547v-0.266h0.263v-0.266h0.263v0.263h0.27v0.27H6.375v0.664h-0.263v-0.664zm0.263 2.257h0.263v7.706h-0.263z" transform="matrix(.49887 .1571 -.1826 .4713 451.4 -3.7)"/><path d="M5.978 25.38h0.532v2.126h-0.532zM5.85 16.477h0.799c0.529 0 -0.135 1.462 -0.135 1.462h-0.529s-0.667 -1.462 -0.135 -1.462zm0.66 -0.203c0 0.112 -0.116 0.203 -0.263 0.203s-0.266 -0.09 -0.266 -0.199 0.116 -0.203 0.263 -0.203 0.266 0.09 0.266 0.203z" transform="matrix(.49887 .1571 -.1826 .4713 451.4 -3.7)"/></g><path fill="#ff1900" fill-rule="evenodd" stroke="#000" stroke-width="0.04125" d="M7.837 29.1c0 0.292 -0.382 0.532 -0.862 0.532s-0.862 -0.24 -0.862 -0.532 0.386 -0.532 0.862 -0.532 0.862 0.24 0.862 0.532z" transform="matrix(.57449 -.36357 .38048 .54895 -2.3 4.2)"/></svg>