<?xml version="1.0" encoding="UTF-8"?>
<svg xmlns="http://www.w3.org/2000/svg" xmlns:xlink="http://www.w3.org/1999/xlink" width="24px" height="16px" viewBox="0 0 30 16" version="1.1">
<g id="surface1">
<rect x="0" y="0" width="30" height="16" style="fill:rgb(0%,18.823529%,52.941176%);fill-opacity:1;stroke:none;"/>
<path style=" stroke:none;fill-rule:nonzero;fill:rgb(100%,100%,100%);fill-opacity:1;" d="M 0 15.742188 L 0 15.359375 L 30 1.867188 L 30 6.527344 Z M 0 15.742188 "/>
<path style=" stroke:none;fill-rule:nonzero;fill:rgb(89.803922%,44.705882%,0%);fill-opacity:1;" d="M 0 15.488281 L 0 15.230469 L 30 0.257812 L 30 3.390625 Z M 0 15.488281 "/>
<path style=" stroke:none;fill-rule:nonzero;fill:rgb(100%,100%,100%);fill-opacity:1;" d="M 5.765625 0.882812 L 6.058594 5.84375 L 5.472656 5.84375 Z M 5.765625 0.882812 "/>
<path style=" stroke:none;fill-rule:nonzero;fill:rgb(100%,100%,100%);fill-opacity:1;" d="M 6.671875 2.410156 L 6.113281 5.9375 L 5.417969 5.746094 Z M 6.671875 2.410156 "/>
<path style=" stroke:none;fill-rule:nonzero;fill:rgb(100%,100%,100%);fill-opacity:1;" d="M 7.515625 2.765625 L 6.074219 6.023438 L 5.453125 5.660156 Z M 7.515625 2.765625 "/>
<path style=" stroke:none;fill-rule:nonzero;fill:rgb(100%,100%,100%);fill-opacity:1;" d="M 8.242188 3.332031 L 6.019531 6.097656 L 5.511719 5.585938 Z M 8.242188 3.332031 "/>
<path style=" stroke:none;fill-rule:nonzero;fill:rgb(100%,100%,100%);fill-opacity:1;" d="M 8.800781 4.066406 L 5.945312 6.15625 L 5.585938 5.527344 Z M 8.800781 4.066406 "/>
<path style=" stroke:none;fill-rule:nonzero;fill:rgb(100%,100%,100%);fill-opacity:1;" d="M 9.148438 4.921875 L 5.859375 6.195312 L 5.671875 5.492188 Z M 9.148438 4.921875 "/>
<path style=" stroke:none;fill-rule:nonzero;fill:rgb(100%,100%,100%);fill-opacity:1;" d="M 10.660156 5.84375 L 5.765625 6.140625 L 5.765625 5.542969 Z M 10.660156 5.84375 "/>
<path style=" stroke:none;fill-rule:nonzero;fill:rgb(100%,100%,100%);fill-opacity:1;" d="M 9.148438 6.761719 L 5.671875 6.195312 L 5.859375 5.492188 Z M 9.148438 6.761719 "/>
<path style=" stroke:none;fill-rule:nonzero;fill:rgb(100%,100%,100%);fill-opacity:1;" d="M 8.800781 7.617188 L 5.585938 6.15625 L 5.945312 5.527344 Z M 8.800781 7.617188 "/>
<path style=" stroke:none;fill-rule:nonzero;fill:rgb(100%,100%,100%);fill-opacity:1;" d="M 8.242188 8.351562 L 5.511719 6.097656 L 6.019531 5.585938 Z M 8.242188 8.351562 "/>
<path style=" stroke:none;fill-rule:nonzero;fill:rgb(100%,100%,100%);fill-opacity:1;" d="M 7.515625 8.917969 L 5.453125 6.023438 L 6.074219 5.660156 Z M 7.515625 8.917969 "/>
<path style=" stroke:none;fill-rule:nonzero;fill:rgb(100%,100%,100%);fill-opacity:1;" d="M 6.671875 9.273438 L 5.417969 5.9375 L 6.113281 5.746094 Z M 6.671875 9.273438 "/>
<path style=" stroke:none;fill-rule:nonzero;fill:rgb(100%,100%,100%);fill-opacity:1;" d="M 5.765625 10.800781 L 5.472656 5.84375 L 6.058594 5.84375 Z M 5.765625 10.800781 "/>
<path style=" stroke:none;fill-rule:nonzero;fill:rgb(100%,100%,100%);fill-opacity:1;" d="M 4.859375 9.273438 L 5.417969 5.746094 L 6.113281 5.9375 Z M 4.859375 9.273438 "/>
<path style=" stroke:none;fill-rule:nonzero;fill:rgb(100%,100%,100%);fill-opacity:1;" d="M 4.011719 8.917969 L 5.453125 5.660156 L 6.074219 6.023438 Z M 4.011719 8.917969 "/>
<path style=" stroke:none;fill-rule:nonzero;fill:rgb(100%,100%,100%);fill-opacity:1;" d="M 3.285156 8.351562 L 5.511719 5.585938 L 6.019531 6.097656 Z M 3.285156 8.351562 "/>
<path style=" stroke:none;fill-rule:nonzero;fill:rgb(100%,100%,100%);fill-opacity:1;" d="M 2.730469 7.617188 L 5.585938 5.527344 L 5.945312 6.15625 Z M 2.730469 7.617188 "/>
<path style=" stroke:none;fill-rule:nonzero;fill:rgb(100%,100%,100%);fill-opacity:1;" d="M 2.378906 6.761719 L 5.671875 5.492188 L 5.859375 6.195312 Z M 2.378906 6.761719 "/>
<path style=" stroke:none;fill-rule:nonzero;fill:rgb(100%,100%,100%);fill-opacity:1;" d="M 0.871094 5.84375 L 5.765625 5.542969 L 5.765625 6.140625 Z M 0.871094 5.84375 "/>
<path style=" stroke:none;fill-rule:nonzero;fill:rgb(100%,100%,100%);fill-opacity:1;" d="M 2.378906 4.921875 L 5.859375 5.492188 L 5.671875 6.195312 Z M 2.378906 4.921875 "/>
<path style=" stroke:none;fill-rule:nonzero;fill:rgb(100%,100%,100%);fill-opacity:1;" d="M 2.730469 4.066406 L 5.945312 5.527344 L 5.585938 6.15625 Z M 2.730469 4.066406 "/>
<path style=" stroke:none;fill-rule:nonzero;fill:rgb(100%,100%,100%);fill-opacity:1;" d="M 3.285156 3.332031 L 6.019531 5.585938 L 5.511719 6.097656 Z M 3.285156 3.332031 "/>
<path style=" stroke:none;fill-rule:nonzero;fill:rgb(100%,100%,100%);fill-opacity:1;" d="M 4.011719 2.765625 L 6.074219 5.660156 L 5.453125 6.023438 Z M 4.011719 2.765625 "/>
<path style=" stroke:none;fill-rule:nonzero;fill:rgb(100%,100%,100%);fill-opacity:1;" d="M 4.859375 2.410156 L 6.113281 5.746094 L 5.417969 5.9375 Z M 4.859375 2.410156 "/>
</g>
</svg>
