<?xml version="1.0" encoding="UTF-8"?>
<svg xmlns="http://www.w3.org/2000/svg" xmlns:xlink="http://www.w3.org/1999/xlink" width="24px" height="16px" viewBox="0 0 32 16" version="1.1">
<g id="surface1">
<rect x="0" y="0" width="32" height="16" style="fill:rgb(84.705882%,12.941176%,14.901961%);fill-opacity:1;stroke:none;"/>
<path style=" stroke:none;fill-rule:nonzero;fill:rgb(97.254902%,91.372549%,18.039216%);fill-opacity:1;" d="M 0 9.601562 L 0 6.398438 L 32 9.601562 L 32 6.398438 Z M 14.398438 0 L 17.601562 0 L 16 6.285156 Z M 17.601562 16 L 14.398438 16 L 16 9.714844 Z M 0 0 L 4.800781 0 L 17.46875 8.882812 Z M 0 16 L 4.800781 16 L 17.46875 7.117188 Z M 32 0 L 27.199219 0 L 14.53125 8.882812 Z M 32 16 L 27.199219 16 L 14.53125 7.117188 Z M 32 16 "/>
<path style=" stroke:none;fill-rule:nonzero;fill:rgb(84.705882%,12.941176%,14.901961%);fill-opacity:1;" d="M 18.855469 8 C 18.855469 9.578125 17.578125 10.855469 16 10.855469 C 14.421875 10.855469 13.144531 9.578125 13.144531 8 C 13.144531 6.421875 14.421875 5.144531 16 5.144531 C 17.578125 5.144531 18.855469 6.421875 18.855469 8 Z M 18.855469 8 "/>
<path style=" stroke:none;fill-rule:nonzero;fill:rgb(97.254902%,91.372549%,18.039216%);fill-opacity:1;" d="M 18.285156 8 C 18.285156 9.261719 17.261719 10.285156 16 10.285156 C 14.738281 10.285156 13.714844 9.261719 13.714844 8 C 13.714844 6.738281 14.738281 5.714844 16 5.714844 C 17.261719 5.714844 18.285156 6.738281 18.285156 8 Z M 18.285156 8 "/>
</g>
</svg>
