<?xml version="1.0" encoding="UTF-8"?>
<svg xmlns="http://www.w3.org/2000/svg" xmlns:xlink="http://www.w3.org/1999/xlink" width="24px" height="16px" viewBox="0 0 32 16" version="1.1">
<g id="surface1">
<rect x="0" y="0" width="32" height="16" style="fill:rgb(85.490196%,12.54902%,19.607843%);fill-opacity:1;stroke:none;"/>
<path style=" stroke:none;fill-rule:nonzero;fill:rgb(0%,40%,70.196078%);fill-opacity:1;" d="M 10.667969 0 L 21.332031 0 L 21.332031 16 L 10.667969 16 Z M 10.667969 0 "/>
<path style=" stroke:none;fill-rule:nonzero;fill:rgb(100%,85.098039%,0%);fill-opacity:1;" d="M 2.398438 7.199219 L 3.734375 7.199219 L 3.734375 13.601562 L 2.398438 13.601562 Z M 6.933594 7.199219 L 8.265625 7.199219 L 8.265625 13.601562 L 6.933594 13.601562 Z M 4 12.800781 L 5.332031 13.601562 L 6.667969 12.800781 Z M 4 12 L 6.667969 12 L 6.667969 12.535156 L 4 12.535156 Z M 4 7.199219 L 5.332031 8 L 6.667969 7.199219 Z M 4 8.265625 L 6.667969 8.265625 L 6.667969 8.800781 L 4 8.800781 Z M 5.964844 9.226562 C 6.066406 9.363281 6.121094 9.527344 6.121094 9.691406 C 6.121094 10.128906 5.769531 10.480469 5.332031 10.480469 C 4.988281 10.480469 4.707031 10.761719 4.707031 11.105469 C 4.707031 11.453125 4.988281 11.734375 5.332031 11.734375 C 6.070312 11.734375 6.667969 11.136719 6.667969 10.398438 C 6.667969 9.910156 6.398438 9.460938 5.964844 9.226562 Z M 5.332031 10.839844 C 5.480469 10.839844 5.601562 10.960938 5.601562 11.105469 C 5.601562 11.253906 5.480469 11.375 5.332031 11.375 C 5.1875 11.375 5.066406 11.253906 5.066406 11.105469 C 5.066406 10.960938 5.1875 10.839844 5.332031 10.839844 Z M 5.332031 10.839844 "/>
<path style=" stroke:none;fill-rule:nonzero;fill:rgb(100%,85.098039%,0%);fill-opacity:1;" d="M 4.699219 11.570312 C 4.601562 11.4375 4.546875 11.273438 4.546875 11.105469 C 4.546875 10.671875 4.898438 10.320312 5.332031 10.320312 C 5.679688 10.320312 5.960938 10.039062 5.960938 9.691406 C 5.960938 9.347656 5.679688 9.066406 5.332031 9.066406 C 4.597656 9.066406 4 9.664062 4 10.398438 C 4 10.890625 4.269531 11.339844 4.699219 11.570312 Z M 5.332031 9.960938 C 5.1875 9.960938 5.066406 9.839844 5.066406 9.691406 C 5.066406 9.546875 5.1875 9.425781 5.332031 9.425781 C 5.480469 9.425781 5.601562 9.546875 5.601562 9.691406 C 5.601562 9.839844 5.480469 9.960938 5.332031 9.960938 Z M 3.871094 5.4375 C 3.867188 5.445312 3.867188 5.457031 3.867188 5.464844 C 3.867188 6.277344 4.523438 6.933594 5.332031 6.933594 C 6.144531 6.933594 6.800781 6.277344 6.800781 5.464844 C 6.800781 5.457031 6.800781 5.449219 6.800781 5.441406 C 6.546875 6.023438 5.96875 6.398438 5.335938 6.398438 C 4.699219 6.398438 4.121094 6.019531 3.871094 5.4375 Z M 3.871094 5.4375 "/>
<path style=" stroke:none;fill-rule:nonzero;fill:rgb(100%,85.098039%,0%);fill-opacity:1;" d="M 6.402344 5.066406 C 6.402344 5.65625 5.921875 6.132812 5.335938 6.132812 C 4.746094 6.132812 4.269531 5.65625 4.269531 5.066406 C 4.269531 4.476562 4.746094 4 5.335938 4 C 5.921875 4 6.402344 4.476562 6.402344 5.066406 Z M 6.402344 5.066406 "/>
<path style=" stroke:none;fill-rule:nonzero;fill:rgb(100%,85.098039%,0%);fill-opacity:1;" d="M 5.445312 1.601562 C 5.3125 1.660156 5.261719 1.769531 5.253906 1.875 C 5.246094 1.96875 5.285156 2.070312 5.289062 2.160156 C 5.289062 2.3125 5.132812 2.363281 5.132812 2.582031 C 5.132812 2.65625 5.199219 2.738281 5.199219 2.933594 C 5.1875 3.035156 5.132812 3.058594 5.066406 3.066406 C 4.996094 3.066406 4.933594 3.007812 4.933594 2.933594 C 4.933594 2.898438 4.949219 2.867188 4.972656 2.84375 C 4.976562 2.835938 4.980469 2.832031 4.984375 2.828125 C 5.015625 2.796875 5.058594 2.785156 5.058594 2.707031 C 5.058594 2.664062 5.03125 2.625 5.003906 2.550781 C 4.980469 2.480469 4.996094 2.359375 5.054688 2.289062 C 4.960938 2.328125 4.90625 2.414062 4.875 2.496094 C 4.84375 2.59375 4.871094 2.652344 4.828125 2.734375 C 4.804688 2.785156 4.773438 2.808594 4.742188 2.851562 C 4.707031 2.902344 4.667969 3.015625 4.667969 3.066406 C 4.667969 3.433594 4.964844 3.734375 5.335938 3.734375 C 5.703125 3.734375 6 3.433594 6 3.066406 C 6 3.015625 5.960938 2.902344 5.925781 2.851562 C 5.898438 2.808594 5.867188 2.785156 5.839844 2.734375 C 5.796875 2.652344 5.824219 2.59375 5.792969 2.496094 C 5.765625 2.414062 5.707031 2.328125 5.613281 2.289062 C 5.671875 2.359375 5.6875 2.480469 5.664062 2.550781 C 5.640625 2.625 5.613281 2.664062 5.613281 2.707031 C 5.613281 2.785156 5.652344 2.796875 5.683594 2.828125 C 5.6875 2.832031 5.691406 2.835938 5.699219 2.84375 C 5.722656 2.867188 5.734375 2.898438 5.734375 2.933594 C 5.734375 3.007812 5.675781 3.066406 5.601562 3.066406 C 5.527344 3.058594 5.472656 3.023438 5.46875 2.933594 C 5.46875 2.675781 5.578125 2.660156 5.578125 2.46875 C 5.578125 2.199219 5.335938 2.070312 5.335938 1.871094 C 5.335938 1.804688 5.351562 1.691406 5.445312 1.601562 Z M 5.445312 1.601562 "/>
</g>
</svg>
