<svg xmlns="http://www.w3.org/2000/svg" id="flag-icons-mp" viewBox="0 0 24 18" width="24" height="16"><defs><clipPath id="mp-a"><path fill-opacity=".7" d="M0 0h24v18H0z"/></clipPath></defs><g clip-path="url(#mp-a)"><path fill="#0071bc" fill-rule="evenodd" d="M-6 0h36v18h-36z"/><path fill="#fff" fill-rule="evenodd" stroke="#000" stroke-width="0.07125" d="M13.875 13.714s0.57 -0.604 1.117 -0.487c0.165 -0.637 0.787 -0.69 0.787 -0.69s-0.064 -0.701 0.731 -0.855c0.022 -0.476 0.506 -0.874 0.506 -0.874s-0.098 -0.739 0.405 -0.911c-0.307 -0.585 0.105 -1.012 0.101 -1.024 -0.007 -0.011 -0.525 -0.93 -0.06 -1.192 -0.487 -0.412 -0.33 -0.877 -0.33 -0.877s-0.532 -0.139 -0.341 -0.776c-0.439 -0.075 -0.525 -0.784 -0.525 -0.784s-0.675 0.139 -0.757 -0.45c-0.45 0.071 -0.495 -0.367 -0.502 -0.367 -0.004 0 -0.881 0.236 -1.057 -0.427 -0.341 0.176 -0.487 -0.139 -0.487 -0.139s-0.487 0.244 -0.78 -0.225c-0.581 0.364 -0.907 -0.015 -0.907 -0.015s-0.761 0.502 -1.012 0.112c-0.45 0.457 -0.855 0.263 -0.855 0.263s-0.337 0.6 -0.889 0.45c-0.124 0.559 -0.757 0.57 -0.757 0.57s0.068 0.491 -0.69 0.626c-0.098 0.581 -0.495 0.675 -0.495 0.675s0.037 0.57 -0.319 0.75c0.128 0.319 -0.203 0.709 -0.203 0.709s0.352 0.439 -0.128 0.934c0.461 0.12 0.128 0.915 0.128 0.915s0.637 0.285 0.236 0.814c0.457 0.15 0.315 0.51 0.319 0.724 0.292 0.131 0.547 0.068 0.424 0.652 0.892 0.101 0.472 0.593 0.472 0.593s0.412 0.019 0.251 0.349c0.761 -0.019 0.874 0.57 0.874 0.57s0.705 -0.188 0.799 0.086 -0.307 2.126 -0.307 2.126 -0.6 0 -1.042 -0.48c-1.042 -0.026 -0.81 -0.713 -0.825 -0.713 -0.019 0 -0.349 0.128 -0.517 -0.446 -0.698 0.142 -0.675 -0.443 -0.682 -0.45 -0.004 -0.004 -0.311 -0.142 -0.199 -0.431 -0.716 0.064 -0.664 -0.637 -0.664 -0.637 -0.158 -0.064 -0.214 -0.21 -0.191 -0.356 -0.094 -0.034 -0.731 -0.045 -0.401 -0.885 -0.607 -0.367 -0.229 -0.787 -0.229 -0.787s-0.84 -0.435 -0.191 -0.938c-0.487 -0.713 0.037 -1.069 0.037 -1.069s-0.671 -0.679 0.011 -1.162c-0.112 -1.031 0.502 -1.279 0.502 -1.279s-0.322 -0.84 0.555 -1.192c0.056 -0.851 0.671 -0.874 0.671 -0.874s0.015 -0.675 0.982 -0.607c0.188 -0.604 0.844 -0.484 0.844 -0.484s0.203 -0.731 1.099 -0.379c0.454 -0.889 1.132 -0.435 1.132 -0.435s0.427 -0.278 0.637 -0.188c0.274 -0.469 0.855 -0.022 1.226 0.071 0.139 -0.056 0.623 -0.42 0.994 0.037 0.495 -0.319 0.919 0.263 0.919 0.263s0.679 -0.345 0.998 0.443c1.444 -0.131 1.238 0.814 1.238 0.814s1.132 -0.259 0.885 0.874c1.035 0.071 0.93 0.75 0.93 0.75s0.652 0.495 0.367 0.938c0.581 0.03 0.367 0.589 0.367 0.589s0.446 0.172 0.075 0.862c0.851 0.679 0.165 1.358 0.161 1.35 -0.007 -0.004 0.454 0.547 0.037 1.185 0.128 1.012 -0.382 1.267 -0.382 1.267s0.131 0.656 -0.439 0.84c-0.011 0.769 -0.739 0.862 -0.739 0.862s0.195 0.337 -0.525 0.686c-0.03 0.514 -0.78 0.555 -0.78 0.555s-0.071 0.945 -1.027 0.69c-0.229 0.757 -1.35 0.532 -1.373 0.525 -0.019 -0.011 -0.214 -1.627 -0.214 -1.631z"/><path fill="#217900" fill-rule="evenodd" stroke="#000" stroke-linejoin="round" stroke-width="0.07125" d="M6.938 4.65s0.24 0.21 0.195 0.525c-0.045 0.311 -0.225 0.746 -0.188 1.069 0.022 0.131 0.011 0.364 0.011 0.364s-0.214 -0.307 -0.217 -0.637 0.232 -0.641 0.232 -0.885 -0.041 -0.439 -0.037 -0.431zm-0.12 0.098s-0.315 0.3 -0.356 0.589c-0.03 0.15 -0.037 0.851 -0.045 1.162 -0.007 0.094 -0.045 0.469 -0.052 0.607 -0.011 0.135 0.229 -0.232 0.244 -0.536 -0.007 -0.311 -0.007 -0.968 0.022 -1.069 0.03 -0.128 0.022 -0.266 0.068 -0.394z"/><g fill="#ffd200" fill-rule="evenodd" stroke="#ef8a10"><path stroke-width="0.07125" d="M13.725 3.769s0.405 -0.188 0.525 -0.54 -0.356 -0.352 -0.416 -0.24c-0.064 0.112 0.052 0.386 0.022 0.461s-0.195 0.247 -0.131 0.315z"/><path stroke-width="0.09375" d="M10.117 3.896s0.263 -0.364 0.195 -0.727c-0.071 -0.36 -0.48 -0.135 -0.48 -0.007s0.232 0.311 0.244 0.39 -0.049 0.315 0.037 0.341zm-0.716 0.214s0.263 -0.364 0.195 -0.724c-0.068 -0.364 -0.48 -0.139 -0.48 -0.011s0.236 0.315 0.247 0.394c0.007 0.075 -0.049 0.311 0.037 0.341zm-0.791 0.244s0.263 -0.36 0.195 -0.724c-0.071 -0.364 -0.48 -0.139 -0.48 -0.011s0.232 0.315 0.244 0.394c0.011 0.075 -0.049 0.311 0.037 0.341zm-0.563 0.559s0.266 -0.364 0.199 -0.724c-0.068 -0.364 -0.48 -0.139 -0.48 -0.011s0.236 0.315 0.244 0.394c0.011 0.075 -0.049 0.311 0.037 0.341zM7.462 5.452s0.263 -0.364 0.195 -0.727 -0.48 -0.135 -0.48 -0.007 0.236 0.311 0.247 0.39c0.007 0.079 -0.049 0.315 0.037 0.345z"/><path stroke-width="0.07125" d="M8.813 2.314s-0.352 0.278 -0.382 0.645 0.424 0.263 0.457 0.139c0.037 -0.124 -0.139 -0.364 -0.128 -0.443 0.011 -0.075 0.131 -0.289 0.052 -0.337zm1.174 -0.36s-0.349 0.278 -0.382 0.645c-0.03 0.367 0.424 0.263 0.461 0.139 0.034 -0.124 -0.142 -0.367 -0.131 -0.446 0.011 -0.075 0.131 -0.289 0.052 -0.337zm-4.376 3.169s0.075 0.443 0.382 0.649c0.307 0.203 0.431 -0.247 0.341 -0.337s-0.386 -0.052 -0.45 -0.098c-0.064 -0.049 -0.188 -0.255 -0.274 -0.214zm-0.585 1.5s0 0.45 0.274 0.701c0.27 0.247 0.465 -0.176 0.39 -0.278s-0.375 -0.112 -0.427 -0.169c-0.056 -0.06 -0.15 -0.281 -0.236 -0.251zm1.35 1.68s-0.158 -0.42 -0.499 -0.563c-0.341 -0.135 -0.375 0.33 -0.27 0.401 0.109 0.068 0.39 -0.026 0.461 0.007 0.075 0.034 0.236 0.21 0.311 0.15zm-0.278 -0.727s0.27 -0.356 0.21 -0.716c-0.064 -0.364 -0.476 -0.15 -0.48 -0.022 0 0.128 0.225 0.319 0.236 0.397 0.007 0.079 -0.056 0.311 0.034 0.345zm8.46 -3.446s0.405 -0.188 0.525 -0.536 -0.356 -0.352 -0.416 -0.244c-0.064 0.112 0.052 0.39 0.022 0.461 -0.03 0.075 -0.195 0.251 -0.131 0.319zm1.23 0.615s0.24 -0.379 0.146 -0.735 -0.487 -0.105 -0.48 0.022c0.007 0.124 0.255 0.296 0.27 0.375 0.015 0.075 -0.026 0.315 0.064 0.337zm3.36 3.487s-0.161 -0.416 -0.502 -0.559c-0.341 -0.139 -0.375 0.33 -0.27 0.397 0.109 0.071 0.394 -0.026 0.461 0.007 0.075 0.037 0.236 0.214 0.311 0.154zm-1.642 0.263s0.007 -0.45 0.281 -0.698 0.465 0.184 0.39 0.285c-0.079 0.101 -0.375 0.105 -0.435 0.161 -0.052 0.056 -0.15 0.278 -0.236 0.247zm-0.263 -4.755s-0.424 -0.161 -0.75 0c-0.337 0.165 -0.007 0.502 0.112 0.469 0.124 -0.037 0.24 -0.311 0.315 -0.341s0.315 -0.037 0.319 -0.128zM16.275 2.936s-0.416 -0.161 -0.75 0c-0.33 0.165 -0.004 0.502 0.12 0.469 0.12 -0.037 0.24 -0.311 0.311 -0.341 0.075 -0.03 0.315 -0.037 0.319 -0.128zm-1.425 -0.765s-0.356 0.274 -0.39 0.637c-0.037 0.367 0.42 0.266 0.457 0.146 0.037 -0.124 -0.139 -0.367 -0.128 -0.446 0.015 -0.075 0.135 -0.285 0.06 -0.337zm-0.93 -0.225s-0.165 0.416 -0.004 0.75 0.499 0.007 0.465 -0.112c-0.034 -0.124 -0.307 -0.244 -0.337 -0.315 -0.03 -0.075 -0.034 -0.319 -0.124 -0.322zm-2.644 1.613s0.289 -0.345 0.247 -0.713c-0.041 -0.364 -0.469 -0.169 -0.476 -0.041 -0.011 0.128 0.21 0.33 0.214 0.409 0.004 0.075 -0.071 0.307 0.015 0.341z"/></g><path fill="#8c8a8c" fill-rule="evenodd" stroke="#000" stroke-width="0.07125" d="M12.855 4.29s0.694 0.045 0.727 0.443 -0.165 0.641 -0.165 0.641 0.086 0.862 -0.593 1.114c-0.727 0.086 -1.871 0.019 -1.871 0.019s-0.337 0.083 -0.472 -0.611a11.438 11.438 0 0 1 -0.172 -1.185s0.068 -0.39 0.559 -0.412c0.487 -0.026 1.98 0 1.987 -0.007z"/><path fill="none" stroke="#000" stroke-linecap="round" stroke-width="0.07125" d="M13.414 5.37s-0.375 0.465 -0.337 0.656"/><path fill="#8c8a8c" fill-rule="evenodd" stroke="#000" stroke-width="0.07125" d="M12.911 6.461c0.094 0.079 0.18 0.165 0.199 0.45l0.037 0.578 0.487 4.372 0.427 3.161 0.03 0.487s-0.101 0.364 -0.39 0.394c-0.206 0.435 -1.339 0.563 -1.451 0.559 -0.101 -0.007 -0.461 -0.158 -0.679 -0.139 -0.221 0.019 -0.6 0.165 -0.769 0.142 -0.169 -0.026 -0.555 -0.158 -0.623 -0.435 -0.476 -0.15 -0.551 -0.514 -0.551 -0.514l0.514 -3.656 0.499 -4.628s0.06 -0.615 0.307 -0.709c0.259 -0.022 1.59 0.026 1.961 -0.064z"/><path fill="none" stroke="#000" stroke-width="0.07125" d="m10.29 12.791 -0.101 3.236m3.244 -2.809 0.285 2.67"/><path fill="none" stroke="#000" d="m5.122 11.111 -0.011 0.037m13.451 -0.154 0.011 0.037" stroke-width="0.0375"/><path fill="none" stroke="#6b18b5" stroke-linejoin="round" stroke-width="0.07125" d="M4.763 6.743s0.21 0.296 0.251 0.465c0.037 0.169 0.109 0.502 0.199 0.637 0.094 0.139 0.623 0.896 0.652 1.211 0.004 0.21 -0.221 0.563 -0.551 0.57 -0.21 -0.007 -0.743 -0.142 -0.765 -0.6 -0.022 -0.461 0.161 -0.469 0.188 -0.75 0.019 -0.278 0.026 -1.526 0.026 -1.534z"/><path fill="none" stroke="#6b18b5" stroke-linejoin="round" d="M8.419 2.73s-0.225 0.015 -0.39 0.109c-0.131 0.079 -0.356 0.199 -0.51 0.412 -0.397 0.307 -0.994 0.45 -1.181 0.713 -0.112 0.172 -0.105 0.589 0.176 0.769 0.18 0.101 0.713 0.263 0.968 -0.116 0.255 -0.382 0.101 -0.487 0.225 -0.735a4.402 4.402 0 0 1 0.713 -1.151zM13.762 2.175s-0.165 -0.15 -0.349 -0.206c-0.15 -0.037 -0.397 -0.022 -0.656 -0.049 -0.499 -0.068 -1.012 -0.427 -1.324 -0.382 -0.203 0.037 -0.499 0.337 -0.431 0.66 0.049 0.203 0.274 0.607 0.727 0.529 0.45 -0.079 0.45 -0.18 0.713 -0.263 0.652 -0.364 1.313 -0.289 1.32 -0.289zm5.303 5.152c0.037 -0.086 -0.034 -0.247 -0.083 -0.431 -0.045 -0.15 -0.116 -0.375 -0.289 -0.581 -0.203 -0.457 -0.169 -1.087 -0.375 -1.327 -0.139 -0.15 -0.547 -0.247 -0.787 -0.015 -0.146 0.15 -0.427 0.623 -0.12 0.964 0.307 0.337 0.443 0.214 0.652 0.394 0.506 0.337 0.75 0.938 1.001 0.998zM18.881 11.325c0.071 -0.094 0.195 -0.278 0.18 -0.431 -0.011 -0.12 0.056 -0.487 0.064 -0.649 0.045 -0.499 0.356 -0.907 0.27 -1.339 -0.049 -0.203 -0.345 -0.487 -0.667 -0.405 -0.195 0.06 -0.637 0.3 -0.536 0.75s0.247 0.439 0.341 0.701c0.274 0.544 0.101 1.189 0.349 1.373z" stroke-width="0.0375"/><path fill="none" stroke="#000" stroke-width="0.07125" d="M15.206 14.505s-0.086 0.165 0.255 0.307m0.424 -0.69s0.375 -0.094 0.63 0m0.495 -0.952c0 0.007 -0.052 0.169 0.247 0.405m-0.03 -0.825s0.221 0.161 0.593 0.15m-2.828 0.322s0.011 0.431 -0.21 0.63m0.952 -1.294s0.364 0.09 0.664 -0.06m1.673 -0.574s0.079 0.112 0.484 0.094m-2.059 -0.349c0.011 0.007 0.476 0.158 0.769 0.022m0.158 -1.792s0.019 -0.026 0.161 0.476m0.195 -1.89s-0.019 0.266 -0.232 0.382m1.609 -1.477s-0.315 0.255 -0.255 0.356m-1.301 -0.54s0.161 0.274 -0.105 0.461M16.807 6.037s0.281 -0.011 0.405 0.229m-0.93 -1.024h0.214m0.9 -0.975c0 0.004 0.056 0.056 -0.052 0.169m-1.95 -0.142s0.15 0.232 0.124 0.521m0.743 -1.316c0.068 -0.007 0.289 -0.105 0.289 -0.105m-1.252 -0.825c-0.004 0 -0.083 0.289 0.06 0.394m-0.416 0.938c0 0.315 0.247 0.236 0.075 0.536M14.332 3.637a2.137 2.137 0 0 0 -0.39 0.352m-0.615 -0.514s0.165 0.161 0.124 0.382m-0.6 -0.514s-0.083 0.247 -0.191 0.311m-0.675 -0.375c-0.004 0.011 -0.135 0.292 -0.225 0.341m-0.96 -0.337c0.007 0 0.131 0.263 -0.03 0.45m-0.244 -1.8c0.007 0.007 0.026 0.203 -0.098 0.375m-1.076 0.071c0 0.004 0.052 0.221 -0.292 0.292m-0.371 1.695c0.007 0.011 0.334 0.064 0.334 0.064M7.875 5.122c0.007 -0.007 0.397 -0.124 0.397 -0.124m-1.027 0.611c0.011 0 0.274 0.049 0.337 0.015m-0.525 0.225s0.086 0.049 0.015 0.487m-1.282 -1.631 0.158 0.232m-0.694 0.975c0 -0.007 0.158 0.232 0.367 0.278m0.862 0.945a1.837 1.837 0 0 0 0.3 -0.075M6.375 8.018c0.007 0 -0.004 -0.161 0.195 -0.274M6.112 8.426c0 0.007 0.188 0.24 0.319 0.274m-0.431 0.176c0.022 -0.007 0.225 -0.184 0.457 -0.169m-0.521 0.773s0.007 0.203 0.607 0.15m-0.547 0.563c0 -0.007 0.176 -0.405 0.532 -0.555m-0.052 1.065s0.052 -0.172 0.352 -0.289m-0.019 0.956s0.214 -0.176 0.292 -0.199m-0.026 0.724s0.131 0.135 0.457 -0.101m-2.025 0.21c0.037 -0.007 0.514 -0.116 0.675 0.131m-0.487 0.263s0.502 -0.068 0.566 -0.015m1.226 0.116s-0.068 0.139 0.551 -0.09m0.217 0.337c-0.112 0.188 0.026 0.337 -0.12 0.424m-1.762 -0.161c0.019 -0.015 0.225 -0.086 0.195 -0.386m-0.007 0.836c0.026 -0.007 0.371 -0.158 0.443 -0.079m0.236 0.514s0.045 -0.307 0.142 -0.337m0.375 0.799s0.289 -0.004 0.412 -0.098m0.142 -0.938c0.007 0.007 0.266 0.142 0.825 0.007m-0.615 1.238s0.075 0.397 0.075 0.487"/><g fill="#de2010" fill-rule="evenodd" stroke="#000" stroke-width="1.5"><path d="M8.73 4.462c0 -0.075 -0.03 -0.15 -0.075 -0.188 -0.052 -0.041 -0.112 -0.041 -0.158 0s-0.079 0.112 -0.079 0.188c0 0.079 0.03 0.15 0.075 0.191 0.052 0.041 0.112 0.041 0.158 0s0.083 -0.112 0.079 -0.188z" transform="matrix(1.60885 -.2011 .2072 1.65762 94.8 75)"/><path d="M8.73 4.462c0 -0.075 -0.03 -0.15 -0.075 -0.188 -0.052 -0.041 -0.112 -0.041 -0.158 0s-0.079 0.112 -0.079 0.188c0 0.079 0.03 0.15 0.075 0.191 0.052 0.041 0.112 0.041 0.158 0s0.083 -0.112 0.079 -0.188z" transform="matrix(1.60885 -.2011 .2072 1.65762 93.4 57.3)"/><path d="M8.73 4.462c0 -0.075 -0.03 -0.15 -0.075 -0.188 -0.052 -0.041 -0.112 -0.041 -0.158 0s-0.079 0.112 -0.079 0.188c0 0.079 0.03 0.15 0.075 0.191 0.052 0.041 0.112 0.041 0.158 0s0.083 -0.112 0.079 -0.188z" transform="matrix(1.58497 -.3417 .35206 1.633 78 74)"/><path d="M8.73 4.462c0 -0.075 -0.03 -0.15 -0.075 -0.188 -0.052 -0.041 -0.112 -0.041 -0.158 0s-0.079 0.112 -0.079 0.188c0 0.079 0.03 0.15 0.075 0.191 0.052 0.041 0.112 0.041 0.158 0s0.083 -0.112 0.079 -0.188z" transform="matrix(1.4455 -.73446 .7567 1.4893 55.9 163)"/><path d="M8.73 4.462c0 -0.075 -0.03 -0.15 -0.075 -0.188 -0.052 -0.041 -0.112 -0.041 -0.158 0s-0.079 0.112 -0.079 0.188c0 0.079 0.03 0.15 0.075 0.191 0.052 0.041 0.112 0.041 0.158 0s0.083 -0.112 0.079 -0.188z" transform="matrix(1.4455 -.73446 .7567 1.4893 48.9 147.1)"/><path d="M8.73 4.462c0 -0.075 -0.03 -0.15 -0.075 -0.188 -0.052 -0.041 -0.112 -0.041 -0.158 0s-0.079 0.112 -0.079 0.188c0 0.079 0.03 0.15 0.075 0.191 0.052 0.041 0.112 0.041 0.158 0s0.083 -0.112 0.079 -0.188z" transform="matrix(1.3781 -.85423 .88011 1.41987 40 167.4)"/><path d="M8.73 4.462c0 -0.075 -0.03 -0.15 -0.075 -0.188 -0.052 -0.041 -0.112 -0.041 -0.158 0s-0.079 0.112 -0.079 0.188c0 0.079 0.03 0.15 0.075 0.191 0.052 0.041 0.112 0.041 0.158 0s0.083 -0.112 0.079 -0.188z" transform="matrix(1.28907 -.98346 1.01327 1.32812 33.8 193)"/><path d="M8.73 4.462c0 -0.075 -0.03 -0.15 -0.075 -0.188 -0.052 -0.041 -0.112 -0.041 -0.158 0s-0.079 0.112 -0.079 0.188c0 0.079 0.03 0.15 0.075 0.191 0.052 0.041 0.112 0.041 0.158 0s0.083 -0.112 0.079 -0.188z" transform="matrix(1.1329 -1.15994 1.19508 1.16722 35.3 239)"/><path d="M8.73 4.462c0 -0.075 -0.03 -0.15 -0.075 -0.188 -0.052 -0.041 -0.112 -0.041 -0.158 0s-0.079 0.112 -0.079 0.188c0 0.079 0.03 0.15 0.075 0.191 0.052 0.041 0.112 0.041 0.158 0s0.083 -0.112 0.079 -0.188z" transform="matrix(1.02138 -1.25922 1.29739 1.05234 34.3 262.7)"/><path d="M8.73 4.462c0 -0.075 -0.03 -0.15 -0.075 -0.188 -0.052 -0.041 -0.112 -0.041 -0.158 0s-0.079 0.112 -0.079 0.188c0 0.079 0.03 0.15 0.075 0.191 0.052 0.041 0.112 0.041 0.158 0s0.083 -0.112 0.079 -0.188z" transform="matrix(.79817 -1.41132 1.45408 .82236 51.9 315)"/><path d="M8.73 4.462c0 -0.075 -0.03 -0.15 -0.075 -0.188 -0.052 -0.041 -0.112 -0.041 -0.158 0s-0.079 0.112 -0.079 0.188c0 0.079 0.03 0.15 0.075 0.191 0.052 0.041 0.112 0.041 0.158 0s0.083 -0.112 0.079 -0.188z" transform="matrix(.66642 -1.4781 1.52289 .6866 56.8 337.4)"/><path d="M8.73 4.462c0 -0.075 -0.03 -0.15 -0.075 -0.188 -0.052 -0.041 -0.112 -0.041 -0.158 0s-0.079 0.112 -0.079 0.188c0 0.079 0.03 0.15 0.075 0.191 0.052 0.041 0.112 0.041 0.158 0s0.083 -0.112 0.079 -0.188z" transform="matrix(.56582 -1.51945 1.5655 .58296 57.9 352.4)"/><path d="M8.73 4.462c0 -0.075 -0.03 -0.15 -0.075 -0.188 -0.052 -0.041 -0.112 -0.041 -0.158 0s-0.079 0.112 -0.079 0.188c0 0.079 0.03 0.15 0.075 0.191 0.052 0.041 0.112 0.041 0.158 0s0.083 -0.112 0.079 -0.188z" transform="matrix(.4482 -1.5582 1.60543 .46178 63 370.4)"/><path d="M8.73 4.462c0 -0.075 -0.03 -0.15 -0.075 -0.188 -0.052 -0.041 -0.112 -0.041 -0.158 0s-0.079 0.112 -0.079 0.188c0 0.079 0.03 0.15 0.075 0.191 0.052 0.041 0.112 0.041 0.158 0s0.083 -0.112 0.079 -0.188z" transform="matrix(.20288 -1.60864 1.65738 .20903 94.7 408.9)"/><path d="M8.73 4.462c0 -0.075 -0.03 -0.15 -0.075 -0.188 -0.052 -0.041 -0.112 -0.041 -0.158 0s-0.079 0.112 -0.079 0.188c0 0.079 0.03 0.15 0.075 0.191 0.052 0.041 0.112 0.041 0.158 0s0.083 -0.112 0.079 -0.188z" transform="matrix(.06506 -1.62008 1.66918 .06703 106.3 427.4)"/><path d="M8.73 4.462c0 -0.075 -0.03 -0.15 -0.075 -0.188 -0.052 -0.041 -0.112 -0.041 -0.158 0s-0.079 0.112 -0.079 0.188c0 0.079 0.03 0.15 0.075 0.191 0.052 0.041 0.112 0.041 0.158 0s0.083 -0.112 0.079 -0.188z" transform="matrix(.06506 -1.62008 1.66918 .06703 88.8 428)"/><path d="M8.73 4.462c0 -0.075 -0.03 -0.15 -0.075 -0.188 -0.052 -0.041 -0.112 -0.041 -0.158 0s-0.079 0.112 -0.079 0.188c0 0.079 0.03 0.15 0.075 0.191 0.052 0.041 0.112 0.041 0.158 0s0.083 -0.112 0.079 -0.188z" transform="matrix(-.36132 -1.5806 1.62852 -.37226 172.5 473.5)"/><path d="M8.73 4.462c0 -0.075 -0.03 -0.15 -0.075 -0.188 -0.052 -0.041 -0.112 -0.041 -0.158 0s-0.079 0.112 -0.079 0.188c0 0.079 0.03 0.15 0.075 0.191 0.052 0.041 0.112 0.041 0.158 0s0.083 -0.112 0.079 -0.188z" transform="matrix(-.49045 -1.54542 1.59227 -.50531 188.3 485.8)"/><path d="M8.73 4.462c0 -0.075 -0.03 -0.15 -0.075 -0.188 -0.052 -0.041 -0.112 -0.041 -0.158 0s-0.079 0.112 -0.079 0.188c0 0.079 0.03 0.15 0.075 0.191 0.052 0.041 0.112 0.041 0.158 0s0.083 -0.112 0.079 -0.188z" transform="matrix(-.67103 -1.476 1.52073 -.69138 221.9 499.1)"/><path d="M8.73 4.462c0 -0.075 -0.03 -0.15 -0.075 -0.188 -0.052 -0.041 -0.112 -0.041 -0.158 0s-0.079 0.112 -0.079 0.188c0 0.079 0.03 0.15 0.075 0.191 0.052 0.041 0.112 0.041 0.158 0s0.083 -0.112 0.079 -0.188z" transform="matrix(-.7945 -1.41337 1.4562 -.81858 241.4 508.3)"/><path d="M8.73 4.462c0 -0.075 -0.03 -0.15 -0.075 -0.188 -0.052 -0.041 -0.112 -0.041 -0.158 0s-0.079 0.112 -0.079 0.188c0 0.079 0.03 0.15 0.075 0.191 0.052 0.041 0.112 0.041 0.158 0s0.083 -0.112 0.079 -0.188z" transform="matrix(-.94339 -1.31867 1.35863 -.97197 271.6 515.4)"/><path d="M8.73 4.462c0 -0.075 -0.03 -0.15 -0.075 -0.188 -0.052 -0.041 -0.112 -0.041 -0.158 0s-0.079 0.112 -0.079 0.188c0 0.079 0.03 0.15 0.075 0.191 0.052 0.041 0.112 0.041 0.158 0s0.083 -0.112 0.079 -0.188z" transform="matrix(-1.05159 -1.2341 1.27151 -1.08344 292.4 520.2)"/><path d="M8.73 4.462c0 -0.075 -0.03 -0.15 -0.075 -0.188 -0.052 -0.041 -0.112 -0.041 -0.158 0s-0.079 0.112 -0.079 0.188c0 0.079 0.03 0.15 0.075 0.191 0.052 0.041 0.112 0.041 0.158 0s0.083 -0.112 0.079 -0.188z" transform="matrix(-1.13737 -1.15553 1.19056 -1.17183 308.9 526.1)"/><path d="M8.73 4.462c0 -0.075 -0.03 -0.15 -0.075 -0.188 -0.052 -0.041 -0.112 -0.041 -0.158 0s-0.079 0.112 -0.079 0.188c0 0.079 0.03 0.15 0.075 0.191 0.052 0.041 0.112 0.041 0.158 0s0.083 -0.112 0.079 -0.188z" transform="matrix(-1.2301 -1.05628 1.08829 -1.26738 331.4 529.6)"/><path d="M8.73 4.462c0 -0.075 -0.03 -0.15 -0.075 -0.188 -0.052 -0.041 -0.112 -0.041 -0.158 0s-0.079 0.112 -0.079 0.188c0 0.079 0.03 0.15 0.075 0.191 0.052 0.041 0.112 0.041 0.158 0s0.083 -0.112 0.079 -0.188z" transform="matrix(-1.33573 -.91908 .94693 -1.3762 362.5 526.1)"/><path d="M8.73 4.462c0 -0.075 -0.03 -0.15 -0.075 -0.188 -0.052 -0.041 -0.112 -0.041 -0.158 0s-0.079 0.112 -0.079 0.188c0 0.079 0.03 0.15 0.075 0.191 0.052 0.041 0.112 0.041 0.158 0s0.083 -0.112 0.079 -0.188z" transform="matrix(-1.47374 -.67597 .69645 -1.51841 415.9 504)"/><path d="M8.73 4.462c0 -0.075 -0.03 -0.15 -0.075 -0.188 -0.052 -0.041 -0.112 -0.041 -0.158 0s-0.079 0.112 -0.079 0.188c0 0.079 0.03 0.15 0.075 0.191 0.052 0.041 0.112 0.041 0.158 0s0.083 -0.112 0.079 -0.188z" transform="matrix(-1.52895 -.53958 .55593 -1.5753 438.7 497.5)"/><path d="M8.73 4.462c0 -0.075 -0.03 -0.15 -0.075 -0.188 -0.052 -0.041 -0.112 -0.041 -0.158 0s-0.079 0.112 -0.079 0.188c0 0.079 0.03 0.15 0.075 0.191 0.052 0.041 0.112 0.041 0.158 0s0.083 -0.112 0.079 -0.188z" transform="matrix(-1.61445 -.12005 .15429 -1.33344 500.5 406)"/><path d="M8.73 4.462c0 -0.075 -0.03 -0.15 -0.075 -0.188 -0.052 -0.041 -0.112 -0.041 -0.158 0s-0.079 0.112 -0.079 0.188c0 0.079 0.03 0.15 0.075 0.191 0.052 0.041 0.112 0.041 0.158 0s0.083 -0.112 0.079 -0.188z" transform="matrix(-1.58082 -.36035 .37125 -1.62873 468.4 480.8)"/></g><path fill="#ffe300" fill-rule="evenodd" d="M18 7.301c0.083 -0.086 0.158 -0.112 0.251 -0.079 -0.037 -0.229 -0.105 -0.307 -0.195 -0.278 -0.086 0.026 -0.128 0.142 -0.056 0.356m0.124 0.682c0.086 -0.079 0.161 -0.098 0.255 -0.06 -0.015 -0.225 -0.083 -0.311 -0.172 -0.289 -0.09 0.019 -0.135 0.135 -0.083 0.349m-0.292 -1.313c0.056 -0.101 0.124 -0.142 0.225 -0.139 -0.094 -0.21 -0.18 -0.266 -0.263 -0.217 -0.075 0.049 -0.083 0.172 0.037 0.36zm-0.304 -0.623c0.056 -0.105 0.124 -0.146 0.225 -0.139 -0.094 -0.214 -0.184 -0.27 -0.263 -0.221 -0.075 0.049 -0.083 0.172 0.037 0.36m-0.731 -1.144c0.037 -0.112 0.098 -0.165 0.195 -0.172 -0.124 -0.195 -0.221 -0.236 -0.289 -0.176s-0.056 0.188 0.094 0.349M16.313 4.406c0.037 -0.112 0.09 -0.165 0.188 -0.18 -0.128 -0.188 -0.225 -0.225 -0.292 -0.165 -0.068 0.064 -0.052 0.188 0.105 0.345M15.311 3.563c0 -0.12 0.037 -0.188 0.124 -0.232 -0.18 -0.139 -0.289 -0.142 -0.33 -0.064s0.007 0.191 0.206 0.296m0.525 0.394c0.015 -0.116 0.064 -0.18 0.161 -0.206 -0.158 -0.169 -0.259 -0.195 -0.315 -0.124 -0.056 0.075 -0.026 0.191 0.15 0.33zm-1.125 -0.724c-0.011 -0.116 0.019 -0.188 0.101 -0.244 -0.195 -0.12 -0.3 -0.112 -0.337 -0.03 -0.034 0.086 0.03 0.191 0.24 0.274zM14.107 2.962c-0.03 -0.112 -0.011 -0.188 0.064 -0.255 -0.21 -0.09 -0.315 -0.071 -0.337 0.019s0.056 0.184 0.274 0.236m-0.656 -0.203c-0.041 -0.112 -0.03 -0.188 0.041 -0.263 -0.217 -0.071 -0.319 -0.041 -0.337 0.049 -0.011 0.09 0.075 0.18 0.296 0.214m-0.649 -0.128c-0.045 -0.105 -0.037 -0.188 0.026 -0.263 -0.225 -0.056 -0.322 -0.019 -0.33 0.075 -0.011 0.09 0.083 0.172 0.304 0.188m-0.682 -0.052c-0.06 -0.101 -0.06 -0.18 0 -0.263 -0.229 -0.034 -0.326 0.015 -0.322 0.105 0 0.094 0.101 0.165 0.322 0.158m-1.339 0.101c-0.083 -0.083 -0.101 -0.161 -0.068 -0.255 -0.225 0.022 -0.307 0.09 -0.285 0.18s0.139 0.135 0.352 0.075m0.66 -0.086c-0.071 -0.094 -0.083 -0.172 -0.034 -0.263 -0.229 -0.007 -0.319 0.049 -0.307 0.142 0.011 0.09 0.12 0.15 0.337 0.12zm-1.309 0.225c-0.09 -0.071 -0.124 -0.142 -0.101 -0.24 -0.225 0.056 -0.292 0.135 -0.259 0.217 0.037 0.086 0.158 0.112 0.36 0.022m-1.238 0.57c-0.105 -0.052 -0.15 -0.116 -0.146 -0.217 -0.21 0.098 -0.263 0.188 -0.21 0.263 0.049 0.075 0.172 0.083 0.356 -0.045m0.6 -0.304c-0.101 -0.064 -0.135 -0.135 -0.12 -0.232 -0.221 0.068 -0.285 0.15 -0.244 0.232s0.165 0.105 0.36 0zm-1.71 1.08c-0.112 -0.03 -0.172 -0.086 -0.188 -0.188 -0.188 0.142 -0.217 0.24 -0.154 0.304 0.068 0.064 0.188 0.045 0.337 -0.116zm0.529 -0.435c-0.112 -0.037 -0.165 -0.098 -0.172 -0.195 -0.195 0.12 -0.236 0.217 -0.176 0.289 0.06 0.068 0.188 0.056 0.349 -0.094m-1.001 0.9c-0.112 -0.022 -0.176 -0.071 -0.203 -0.169 -0.172 0.154 -0.195 0.259 -0.124 0.315 0.071 0.06 0.188 0.026 0.326 -0.15zM6.889 5.175c-0.12 -0.007 -0.188 -0.049 -0.217 -0.142 -0.158 0.169 -0.172 0.27 -0.098 0.322s0.191 0.007 0.315 -0.18m-0.352 0.563c-0.12 0.007 -0.188 -0.026 -0.24 -0.112 -0.128 0.191 -0.128 0.3 -0.045 0.337s0.191 -0.022 0.285 -0.225m-0.311 0.6c-0.112 0.022 -0.188 0 -0.251 -0.083 -0.101 0.206 -0.086 0.311 0 0.337 0.086 0.03 0.188 -0.045 0.251 -0.259zm-0.247 0.611c-0.112 0.041 -0.188 0.03 -0.263 -0.037 -0.068 0.217 -0.037 0.319 0.056 0.334 0.09 0.011 0.176 -0.075 0.206 -0.3zm-0.169 0.682c-0.105 0.049 -0.184 0.045 -0.263 -0.019 -0.052 0.225 -0.015 0.319 0.075 0.326 0.094 0.011 0.176 -0.083 0.188 -0.307m-0.068 0.57c-0.098 0.052 -0.176 0.06 -0.263 0.019 -0.026 0.184 0.022 0.255 0.112 0.247s0.161 -0.09 0.15 -0.266m11.512 -2.708c0.041 -0.112 0.101 -0.165 0.199 -0.172 -0.12 -0.195 -0.214 -0.236 -0.285 -0.18 -0.071 0.06 -0.06 0.188 0.086 0.352m0.945 3.188c0.086 -0.083 0.165 -0.101 0.255 -0.06 -0.015 -0.229 -0.083 -0.311 -0.172 -0.292 -0.086 0.022 -0.135 0.135 -0.083 0.352"/><path fill="#217900" fill-rule="evenodd" stroke="#000" stroke-linejoin="round" stroke-width="0.07125" d="M17.299 4.95s-0.263 0.259 -0.214 0.57c0.045 0.311 0.244 0.698 0.206 1.024 -0.037 0.322 -0.094 0.536 -0.094 0.536s0.3 -0.341 0.3 -0.675c0.007 -0.326 -0.203 -0.761 -0.203 -1.001s0.011 -0.457 0.004 -0.45zm0.476 1.05s-0.199 0.15 -0.18 0.487c0.019 0.341 0.375 0.968 0.375 0.968s0.255 0.525 0.244 0.664c-0.007 0.139 0.049 -0.131 0.022 -0.431s-0.412 -0.968 -0.412 -0.968 -0.083 -0.135 -0.075 -0.364c0.007 -0.225 0.03 -0.352 0.03 -0.356z"/><path fill="#6b18b5" fill-rule="evenodd" d="M11.737 1.777c0 -0.068 -0.083 -0.128 -0.18 -0.128s-0.176 0.06 -0.176 0.128 0.075 0.128 0.176 0.128 0.176 -0.056 0.176 -0.128zm0.075 0.3c0 -0.068 -0.083 -0.124 -0.188 -0.124 -0.098 0 -0.18 0.052 -0.18 0.12s0.083 0.124 0.184 0.124 0.18 -0.056 0.18 -0.124zm0.225 -0.352s-0.21 0.154 -0.124 0.217 0.322 -0.135 0.322 -0.135zm6.124 3.578c0 -0.045 -0.019 -0.086 -0.052 -0.109a0.098 0.098 0 0 0 -0.112 0c-0.034 0.022 -0.052 0.064 -0.052 0.109s0.019 0.086 0.052 0.109a0.098 0.098 0 0 0 0.112 0c0.034 -0.022 0.052 -0.064 0.052 -0.109m-0.079 -0.3c0 -0.075 -0.052 -0.131 -0.112 -0.131s-0.116 0.06 -0.116 0.135 0.052 0.131 0.112 0.131 0.116 -0.06 0.116 -0.131zm0.056 0.607c0 -0.037 -0.022 -0.068 -0.045 -0.068s-0.045 0.03 -0.045 0.068 0.019 0.071 0.045 0.071 0.045 -0.034 0.045 -0.071m0.184 -0.54c0 -0.045 -0.022 -0.079 -0.045 -0.079 -0.026 0 -0.045 0.034 -0.045 0.075s0.019 0.083 0.045 0.083c0.022 0 0.045 -0.037 0.045 -0.079m-0.502 0.052c0 -0.037 -0.022 -0.064 -0.045 -0.064s-0.045 0.03 -0.045 0.064 0.019 0.068 0.045 0.068 0.045 -0.03 0.045 -0.068m0.079 0.427c0 -0.056 -0.041 -0.101 -0.094 -0.101s-0.094 0.045 -0.094 0.101c0 0.06 0.037 0.105 0.094 0.105s0.094 -0.045 0.094 -0.105m-0.247 -0.188c0 -0.049 -0.037 -0.09 -0.079 -0.09 -0.045 0 -0.083 0.037 -0.083 0.09s0.037 0.09 0.083 0.09c0.041 0 0.075 -0.037 0.075 -0.09zm-0.037 -0.255a0.075 0.075 0 0 0 -0.037 -0.064 0.068 0.068 0 0 0 -0.071 0 0.075 0.075 0 0 0 -0.034 0.064 0.075 0.075 0 0 0 0.037 0.068 0.068 0.068 0 0 0 0.068 0c0.022 -0.015 0.037 -0.037 0.037 -0.068m1.129 1.29c-0.101 -0.135 -0.266 -0.191 -0.367 -0.128 -0.098 0.064 -0.098 0.225 0.007 0.364 0.101 0.135 0.263 0.191 0.364 0.128 0.101 -0.068 0.101 -0.225 0 -0.364zm0.292 2.501c0.019 -0.169 -0.06 -0.315 -0.18 -0.33 -0.12 -0.011 -0.232 0.112 -0.255 0.278 -0.019 0.165 0.064 0.311 0.184 0.326s0.232 -0.112 0.251 -0.274m0.06 1.455c0.037 -0.165 -0.034 -0.319 -0.15 -0.345 -0.12 -0.022 -0.244 0.09 -0.278 0.255 -0.034 0.161 0.037 0.315 0.15 0.337 0.12 0.026 0.244 -0.086 0.278 -0.251zm0.281 -1.365c0 -0.064 -0.045 -0.116 -0.098 -0.116s-0.101 0.052 -0.101 0.116c0 0.068 0.045 0.12 0.101 0.12s0.098 -0.052 0.098 -0.12m-0.244 0.274 -0.203 0.232s-0.191 0.004 -0.18 0.068c0.007 0.06 0.263 0.247 0.263 0.322 -0.004 0.075 0.165 -0.019 0.165 -0.019l0.139 -0.416s-0.007 -0.289 -0.083 -0.285c-0.075 0.007 -0.094 0.094 -0.101 0.098m-13.402 -0.09a0.098 0.098 0 1 0 -0.191 0 0.098 0.098 0 0 0 0.191 0m0.094 -0.3c0 -0.052 -0.045 -0.098 -0.098 -0.098s-0.098 0.045 -0.098 0.101 0.045 0.101 0.098 0.101a0.101 0.101 0 0 0 0.098 -0.101zM5.025 7.47c-0.037 -0.083 -0.112 -0.128 -0.169 -0.101s-0.075 0.112 -0.037 0.195 0.112 0.128 0.169 0.101c0.06 -0.026 0.075 -0.112 0.037 -0.195m0.244 0.877c-0.052 -0.105 -0.154 -0.165 -0.232 -0.131s-0.101 0.146 -0.052 0.251 0.15 0.165 0.232 0.131 0.101 -0.146 0.052 -0.251m0.255 0.645c0.019 -0.131 -0.037 -0.255 -0.12 -0.27 -0.086 -0.019 -0.165 0.075 -0.184 0.206 -0.015 0.131 0.037 0.251 0.124 0.27 0.083 0.019 0.165 -0.075 0.18 -0.206m-0.412 0.094c0.052 -0.124 0.034 -0.255 -0.041 -0.292s-0.18 0.026 -0.232 0.15 -0.034 0.251 0.045 0.292 0.176 -0.026 0.229 -0.15"/><path fill="#6b18b5" fill-rule="evenodd" d="M4.924 8.805c0 -0.064 -0.049 -0.112 -0.109 -0.112s-0.109 0.052 -0.109 0.112 0.049 0.112 0.112 0.112 0.105 -0.049 0.105 -0.112m-0.086 -0.281c0 -0.056 -0.045 -0.101 -0.098 -0.101a0.101 0.101 0 0 0 -0.098 0.105c0 0.052 0.045 0.101 0.098 0.101s0.098 -0.049 0.098 -0.105m0.09 -0.536c0 -0.098 -0.041 -0.172 -0.094 -0.172s-0.094 0.075 -0.094 0.172c0 0.094 0.041 0.172 0.094 0.172s0.094 -0.075 0.094 -0.172m0.292 -0.041c0.011 -0.094 -0.019 -0.176 -0.075 -0.188 -0.049 -0.004 -0.101 0.068 -0.112 0.161 -0.015 0.094 0.019 0.176 0.071 0.184 0.049 0.007 0.101 -0.064 0.112 -0.158zm2.063 -4.125c0.041 -0.135 0 -0.27 -0.086 -0.3 -0.086 -0.034 -0.188 0.049 -0.225 0.184s0 0.27 0.086 0.3c0.086 0.034 0.188 -0.049 0.225 -0.184m-0.39 0.596c0.112 -0.101 0.165 -0.236 0.112 -0.304 -0.056 -0.071 -0.195 -0.045 -0.311 0.052s-0.161 0.232 -0.109 0.3c0.056 0.071 0.195 0.049 0.307 -0.049m-0.225 -0.33c0.112 -0.086 0.158 -0.203 0.105 -0.263s-0.188 -0.037 -0.3 0.045c-0.116 0.086 -0.165 0.203 -0.112 0.263s0.188 0.037 0.304 -0.045zm0.881 -0.581c0.075 -0.06 0.109 -0.142 0.075 -0.184 -0.037 -0.037 -0.131 -0.026 -0.21 0.034s-0.109 0.139 -0.071 0.18 0.128 0.026 0.206 -0.03"/><path fill="#6b18b5" fill-rule="evenodd" d="M7.087 4.069c0.052 -0.083 0.056 -0.169 0.007 -0.195s-0.131 0.015 -0.184 0.098 -0.056 0.169 -0.007 0.195 0.131 -0.019 0.184 -0.098m0.664 -0.349c0.083 -0.071 0.112 -0.161 0.075 -0.206 -0.045 -0.045 -0.15 -0.022 -0.232 0.045s-0.112 0.161 -0.071 0.206c0.045 0.045 0.146 0.022 0.229 -0.045m-1.2 0.81c0.075 0 0.135 -0.041 0.128 -0.086 0 -0.041 -0.071 -0.075 -0.15 -0.071 -0.075 0.004 -0.135 0.045 -0.128 0.086 0.004 0.045 0.075 0.075 0.15 0.075zm1.451 -1.241c0.052 -0.083 0.056 -0.169 0.007 -0.195 -0.045 -0.026 -0.128 0.015 -0.18 0.098s-0.056 0.169 -0.007 0.195 0.128 -0.015 0.18 -0.098"/><path fill="#ffd200" fill-rule="evenodd" stroke="#ef8a10" d="M16.755 5.753s0.24 -0.379 0.15 -0.739c-0.094 -0.356 -0.487 -0.101 -0.48 0.026 0.007 0.124 0.255 0.296 0.27 0.375 0.015 0.075 -0.03 0.311 0.06 0.337z" stroke-width="0.0375"/><path fill="#217900" fill-rule="evenodd" stroke="#000" stroke-linejoin="round" stroke-width="0.08625" d="M12.184 2.599s0.862 0.034 0.866 0.593c0 0.086 0 0.188 -0.03 0.439 0.172 -0.094 0.285 -0.349 0.263 -0.514 0.004 -0.566 -0.769 -0.956 -1.099 -0.517z"/><path fill="#217900" fill-rule="evenodd" stroke="#000" stroke-linejoin="round" stroke-width="0.08625" d="M11.636 2.572s0.694 -0.142 0.701 0.412c0.004 0.563 -0.225 0.649 -0.225 0.649s0.536 -0.112 0.54 -0.679c0 -0.57 -0.686 -0.821 -1.016 -0.382z"/><path fill="#f7df73" fill-rule="evenodd" stroke="#000" stroke-linejoin="round" stroke-width="0.09375" d="M13.999 14.625s3.255 -0.922 4.237 -4.912C17.662 13.804 14.1 15.112 14.1 15.112l-0.105 -0.487z"/><path fill="#8c1800" fill-rule="evenodd" d="M14.332 14.873c0.101 0 0.349 -0.278 0.491 -0.307s0.158 -0.176 -0.004 -0.18c-0.165 -0.007 -0.307 0.188 -0.307 0.188s-0.142 0.12 -0.292 0.135 -0.052 0.203 0.112 0.165"/><path fill="#8c1800" fill-rule="evenodd" stroke="#8c1800" stroke-width="0.09375" d="M16.207 13.474s-0.337 0.195 -0.292 0.244c0.049 0.049 0.349 -0.188 0.356 -0.188 0.004 -0.007 0.128 -0.158 -0.064 -0.056z"/><path fill="#8c1800" fill-rule="evenodd" d="M15.026 14.362s-0.101 -0.037 0.158 -0.135c0.263 -0.101 0.244 -0.217 0.33 -0.266 0.083 -0.049 0.263 -0.176 0.3 -0.101s-0.188 0.225 -0.244 0.24c-0.052 0.015 -0.311 0.255 -0.386 0.274 -0.075 0.022 -0.128 0.011 -0.158 -0.011"/><path fill="none" stroke="#8c1800" stroke-linecap="round" stroke-width="0.11249999999999999" d="M16.71 12.975c-0.225 0.251 -0.225 0.244 -0.225 0.244"/><path fill="none" stroke="#8c1800" stroke-linecap="round" stroke-width="0.105" d="m17.044 12.57 -0.214 0.259"/><path fill="none" stroke="#8c1800" stroke-linecap="round" stroke-width="0.09375" d="m17.377 12.037 -0.24 0.382"/><path fill="none" stroke="#8c1800" stroke-linecap="round" stroke-width="0.08625" d="m17.659 11.498 -0.199 0.394m0.322 -0.675 -0.06 0.135"/><path fill="none" stroke="#8c1800" stroke-linecap="round" stroke-width="0.0525" d="m17.925 10.838 -0.052 0.165"/><path fill="#f7df73" fill-rule="evenodd" stroke="#000" stroke-linejoin="round" stroke-width="0.056249999999999994" d="M6.011 8.1s1.95 -0.551 2.535 -2.944c-0.341 2.456 -2.475 3.232 -2.475 3.232z" transform="matrix(-1.65528 0 0 1.70062 524.8 20.4)"/><path fill="#8c1800" fill-rule="evenodd" d="M9.401 14.79c-0.101 0 -0.345 -0.281 -0.487 -0.311 -0.142 -0.034 -0.158 -0.18 0.004 -0.188 0.165 0 0.304 0.191 0.304 0.191s0.142 0.124 0.289 0.142c0.15 0.015 0.052 0.203 -0.109 0.165"/><path fill="#8c1800" fill-rule="evenodd" stroke="#8c1800" stroke-width="0.056249999999999994" d="M7.331 7.41s-0.203 0.12 -0.172 0.15c0.026 0.026 0.206 -0.112 0.21 -0.116s0.075 -0.094 -0.037 -0.034z" transform="matrix(-1.65528 0 0 1.70062 524.8 20.4)"/><path fill="#8c1800" fill-rule="evenodd" d="M8.715 14.273s0.098 -0.037 -0.158 -0.139 -0.244 -0.225 -0.326 -0.27c-0.083 -0.049 -0.263 -0.176 -0.3 -0.101s0.188 0.225 0.244 0.24c0.052 0.019 0.307 0.263 0.382 0.281 0.075 0.022 0.124 0.011 0.158 -0.011"/><path fill="none" stroke="#8c1800" stroke-linecap="round" stroke-width="0.0675" d="m7.631 7.114 -0.131 0.146" transform="matrix(-1.65528 0 0 1.70062 524.8 20.4)"/><path fill="none" stroke="#8c1800" stroke-linecap="round" stroke-width="0.06375" d="m7.834 6.87 -0.128 0.154" transform="matrix(-1.65528 0 0 1.70062 524.8 20.4)"/><path fill="none" stroke="#8c1800" stroke-linecap="round" stroke-width="0.056249999999999994" d="m8.032 6.551 -0.142 0.229" transform="matrix(-1.65528 0 0 1.70062 524.8 20.4)"/><path fill="none" stroke="#8c1800" stroke-linecap="round" stroke-width="0.0525" d="m8.201 6.229 -0.12 0.236m0.195 -0.409 -0.037 0.083" transform="matrix(-1.65528 0 0 1.70062 524.8 20.4)"/><path fill="none" stroke="#8c1800" stroke-linecap="round" stroke-width="0.03" d="m8.362 5.831 -0.034 0.101" transform="matrix(-1.65528 0 0 1.70062 524.8 20.4)"/><path fill="#217900" fill-rule="evenodd" stroke="#000" stroke-linejoin="round" stroke-width="0.08625" d="M18.39 8.974c0.019 0.251 0.263 0.487 0.165 0.926 -0.12 0.499 -0.555 1.676 -0.48 1.883 -0.128 -0.176 -0.105 -0.337 -0.112 -0.585 -0.015 -0.244 0.352 -1.159 0.386 -1.466 0 -0.278 0.026 -0.656 0.041 -0.757z"/><path fill="#217900" fill-rule="evenodd" stroke="#000" stroke-linejoin="round" stroke-width="0.08625" d="M18.39 8.977s0.401 0.506 0.379 0.907c-0.019 0.401 -0.244 0.87 -0.169 1.076a0.814 0.814 0 0 1 -0.172 -0.532c-0.011 -0.244 0.199 -0.517 0.154 -0.784 -0.041 -0.263 -0.195 -0.667 -0.188 -0.667zm-13.099 0.112c-0.015 0.251 -0.203 0.476 -0.105 0.911 0.12 0.499 0.563 1.125 0.487 1.845 0.131 -0.176 0.169 -0.375 0.18 -0.619 0.007 -0.244 -0.487 -1.069 -0.517 -1.38 0 -0.278 -0.03 -0.656 -0.045 -0.757z"/><path fill="#217900" fill-rule="evenodd" stroke="#000" stroke-linejoin="round" stroke-width="0.08625" d="M5.291 9.098s-0.39 0.487 -0.367 0.889c0.004 0.266 0.495 1.38 0.42 1.59 0.131 -0.176 0.165 -0.154 0.161 -0.42 -0.142 -0.686 -0.401 -1.121 -0.356 -1.387 0.041 -0.266 0.15 -0.675 0.142 -0.675z"/><path fill="#fff" stroke="#000" stroke-dashoffset="1" stroke-linecap="square" stroke-linejoin="round" stroke-width="0.06375" d="m3.75 4.717 0.825 2.558h2.7l-2.175 1.583 0.829 2.558 -2.175 -1.579 -2.175 1.579 0.825 -2.558L0.225 7.275h2.692z" transform="matrix(1.16516 0 0 1.16534 202 -23.6)"/></g></svg>