<?xml version="1.0" encoding="UTF-8"?>
<svg xmlns="http://www.w3.org/2000/svg" xmlns:xlink="http://www.w3.org/1999/xlink" width="24px" height="16px" viewBox="0 0 32 16" version="1.1">
<defs>
<clipPath id="clip1">
  <path d="M 0 0 L 16 0 L 16 8 L 0 8 Z M 0 0 "/>
</clipPath>
<clipPath id="clip2">
  <path d="M 0 0 L 0 4 L 18.667969 4 L 18.667969 8 L 16 8 Z M 16 0 L 8 0 L 8 9.332031 L 0 9.332031 L 0 8 Z M 16 0 "/>
</clipPath>
<clipPath id="clip3">
  <path d="M 0 0 L 19 0 L 19 10 L 0 10 Z M 0 0 "/>
</clipPath>
<clipPath id="clip4">
  <path d="M 0 0 L 0 4 L 18.667969 4 L 18.667969 8 L 16 8 Z M 16 0 L 8 0 L 8 9.332031 L 0 9.332031 L 0 8 Z M 16 0 "/>
</clipPath>
</defs>
<g id="surface1">
<rect x="0" y="0" width="32" height="16" style="fill:rgb(0.392157%,12.941176%,41.176471%);fill-opacity:1;stroke:none;"/>
<path style="fill-rule:nonzero;fill:rgb(0%,0%,0%);fill-opacity:1;stroke-width:60;stroke-linecap:butt;stroke-linejoin:miter;stroke:rgb(100%,100%,100%);stroke-opacity:1;stroke-miterlimit:4;" d="M 0 0 L 600 300 M 600 0 L 0 300 " transform="matrix(0.0266667,0,0,0.0266667,0,0)"/>
<g clip-path="url(#clip1)" clip-rule="nonzero">
<g clip-path="url(#clip2)" clip-rule="nonzero">
<path style=" stroke:none;fill-rule:nonzero;fill:rgb(0%,0%,0%);fill-opacity:1;" d="M 0 0 L 16 8 M 16 0 L 0 8 "/>
</g>
</g>
<g clip-path="url(#clip3)" clip-rule="nonzero">
<g clip-path="url(#clip4)" clip-rule="nonzero">
<path style="fill:none;stroke-width:40;stroke-linecap:butt;stroke-linejoin:miter;stroke:rgb(78.431373%,6.27451%,18.039216%);stroke-opacity:1;stroke-miterlimit:4;" d="M 0 0 L 600 300 M 600 0 L 0 300 " transform="matrix(0.0266667,0,0,0.0266667,0,0)"/>
</g>
</g>
<path style="fill-rule:nonzero;fill:rgb(0%,0%,0%);fill-opacity:1;stroke-width:100;stroke-linecap:butt;stroke-linejoin:miter;stroke:rgb(100%,100%,100%);stroke-opacity:1;stroke-miterlimit:4;" d="M 300 0 L 300 349.951172 M 0 150 L 700.048828 150 " transform="matrix(0.0266667,0,0,0.0266667,0,0)"/>
<path style="fill-rule:nonzero;fill:rgb(0%,0%,0%);fill-opacity:1;stroke-width:60;stroke-linecap:butt;stroke-linejoin:miter;stroke:rgb(78.431373%,6.27451%,18.039216%);stroke-opacity:1;stroke-miterlimit:4;" d="M 300 0 L 300 349.951172 M 0 150 L 700.048828 150 " transform="matrix(0.0266667,0,0,0.0266667,0,0)"/>
<path style=" stroke:none;fill-rule:nonzero;fill:rgb(0.392157%,12.941176%,41.176471%);fill-opacity:1;" d="M 0 8 L 16 8 L 16 0 L 32 0 L 32 16 L 0 16 Z M 0 8 "/>
<path style=" stroke:none;fill-rule:nonzero;fill:rgb(100%,100%,100%);fill-opacity:1;" d="M 20.519531 3.933594 L 27.371094 3.933594 L 27.359375 8.808594 C 27.417969 10.769531 26.195312 11.984375 23.949219 12.53125 C 22.355469 12.136719 20.515625 11.316406 20.511719 8.863281 Z M 20.519531 3.933594 "/>
<path style="fill-rule:nonzero;fill:rgb(0%,63.529412%,74.117647%);fill-opacity:1;stroke-width:1.813;stroke-linecap:butt;stroke-linejoin:miter;stroke:rgb(0%,0%,0%);stroke-opacity:1;stroke-miterlimit:4;" d="M 775.195312 153.076172 L 1020.703125 153.076172 L 1020.410156 328.125 C 1022.460938 398.583984 978.662109 442.236328 898.095703 462.011719 C 840.966797 447.802734 774.902344 418.359375 774.902344 330.175781 Z M 775.195312 153.076172 " transform="matrix(0.0266667,0,0,0.0266667,0,0)"/>
<path style=" stroke:none;fill-rule:nonzero;fill:rgb(64.705882%,23.921569%,3.137255%);fill-opacity:1;" d="M 27.167969 9.304688 C 26.929688 11.097656 25.546875 11.878906 23.949219 12.296875 C 22.535156 11.917969 21.011719 11.308594 20.714844 9.3125 Z M 27.167969 9.304688 "/>
<path style=" stroke:none;fill-rule:nonzero;fill:rgb(0%,0%,0%);fill-opacity:1;" d="M 23.691406 4.949219 L 23.679688 4.363281 L 24.144531 4.367188 L 24.152344 4.949219 L 25.421875 4.949219 L 25.429688 5.40625 L 24.152344 5.410156 L 24.140625 10.792969 L 23.6875 10.796875 L 23.679688 5.40625 L 22.410156 5.410156 L 22.410156 4.945312 Z M 23.691406 4.949219 "/>
<path style="fill-rule:evenodd;fill:rgb(100%,60.392157%,3.137255%);fill-opacity:1;stroke-width:0.968;stroke-linecap:butt;stroke-linejoin:miter;stroke:rgb(0%,0%,0%);stroke-opacity:1;stroke-miterlimit:4;" d="M 849.755859 357.275391 L 893.408203 402.539062 C 908.496094 385.986328 898.095703 323.876953 878.173828 312.451172 C 875.830078 319.775391 871.728516 328.710938 867.480469 331.494141 C 857.958984 337.939453 834.667969 345.556641 842.431641 350.390625 C 844.335938 347.900391 848.876953 345.556641 851.074219 350.976562 C 853.710938 359.619141 841.40625 360.058594 841.40625 360.058594 C 841.40625 360.058594 833.642578 359.179688 832.324219 351.269531 C 830.859375 343.359375 843.896484 336.181641 844.921875 335.595703 C 846.09375 335.15625 862.939453 330.761719 865.722656 315.673828 C 869.384766 301.025391 873.046875 303.222656 873.632812 302.929688 C 895.751953 305.126953 910.107422 344.677734 910.986328 372.363281 C 911.865234 400.195312 899.707031 418.505859 897.509766 419.824219 C 895.3125 420.996094 844.921875 360.058594 844.921875 360.058594 Z M 849.755859 357.275391 " transform="matrix(0.0266667,0,0,0.0266667,0,0)"/>
<path style="fill-rule:nonzero;fill:rgb(100%,60.392157%,3.137255%);fill-opacity:1;stroke-width:0.968;stroke-linecap:butt;stroke-linejoin:miter;stroke:rgb(0%,0%,0%);stroke-opacity:1;stroke-miterlimit:4;" d="M 881.542969 315.087891 L 881.835938 396.826172 M 876.708984 316.552734 L 877.001953 390.966797 M 871.289062 327.246094 L 871.582031 386.425781 M 867.041016 331.494141 L 867.333984 380.419922 M 862.353516 333.691406 L 862.353516 375 M 857.373047 336.914062 L 857.373047 369.726562 M 852.978516 339.550781 L 852.978516 364.599609 " transform="matrix(0.0266667,0,0,0.0266667,0,0)"/>
<path style="fill:none;stroke-width:0.968;stroke-linecap:round;stroke-linejoin:miter;stroke:rgb(100%,87.45098%,0%);stroke-opacity:1;stroke-miterlimit:4;" d="M 849.023438 362.402344 L 894.140625 414.111328 " transform="matrix(0.0266667,0,0,0.0266667,0,0)"/>
<path style="fill:none;stroke-width:1.813;stroke-linecap:round;stroke-linejoin:miter;stroke:rgb(100%,87.45098%,0%);stroke-opacity:1;stroke-miterlimit:4;" d="M 896.337891 329.882812 C 896.337891 329.882812 916.699219 374.560547 897.802734 411.328125 M 843.75 353.027344 C 843.75 353.027344 845.214844 349.072266 847.119141 350.683594 M 840.234375 341.601562 C 840.234375 341.601562 832.03125 348.779297 836.572266 353.466797 " transform="matrix(0.0266667,0,0,0.0266667,0,0)"/>
<path style="fill-rule:nonzero;fill:rgb(0%,50.196078%,12.941176%);fill-opacity:1;stroke-width:0.399;stroke-linecap:butt;stroke-linejoin:miter;stroke:rgb(0%,0%,0%);stroke-opacity:1;stroke-miterlimit:4;" d="M 905.712891 228.076172 C 908.789062 225.439453 910.400391 223.828125 912.304688 224.121094 C 914.0625 224.414062 916.699219 224.267578 918.603516 223.681641 C 920.361328 223.095703 929.736328 221.923828 933.544922 223.242188 C 934.863281 223.388672 936.621094 224.121094 939.257812 226.318359 C 941.894531 228.662109 945.849609 232.470703 944.53125 243.310547 C 943.212891 254.150391 943.652344 258.837891 943.066406 264.84375 C 942.041016 275.537109 939.697266 284.326172 935.449219 283.59375 C 941.162109 293.701172 941.748047 302.34375 945.556641 309.228516 C 949.21875 316.113281 951.5625 330.322266 950.097656 345.556641 C 948.632812 360.791016 944.677734 395.214844 956.689453 418.212891 C 954.785156 419.677734 949.804688 418.212891 945.556641 413.671875 C 941.162109 408.984375 939.257812 409.130859 935.742188 411.914062 C 924.755859 420.263672 914.501953 430.371094 899.414062 420.263672 C 895.898438 417.919922 894.873047 415.136719 897.363281 408.105469 C 903.662109 390.527344 906.738281 366.357422 905.712891 355.078125 Z M 905.712891 228.076172 " transform="matrix(0.0266667,0,0,0.0266667,0,0)"/>
<path style="fill-rule:nonzero;fill:rgb(100%,88.235294%,81.176471%);fill-opacity:1;stroke-width:0.399;stroke-linecap:butt;stroke-linejoin:miter;stroke:rgb(0%,0%,0%);stroke-opacity:1;stroke-miterlimit:4;" d="M 916.113281 217.236328 C 916.992188 219.726562 917.431641 222.802734 916.113281 225.732422 C 914.794922 228.662109 914.501953 232.03125 916.699219 236.279297 C 920.068359 231.298828 925.048828 232.324219 927.978516 229.541016 C 930.761719 226.611328 931.347656 223.828125 933.544922 223.242188 C 931.347656 221.337891 928.125 219.433594 928.857422 213.867188 C 929.443359 208.447266 937.207031 203.90625 930.175781 195.556641 C 925.78125 190.136719 919.335938 191.748047 916.40625 193.798828 C 915.087891 194.824219 914.0625 196.142578 913.623047 197.167969 C 913.183594 198.046875 913.623047 200.244141 912.597656 201.416016 C 856.933594 200.830078 812.402344 155.126953 813.134766 99.462891 C 813.867188 43.798828 859.423828 -0.732422 915.087891 0 C 914.501953 0.439453 914.0625 1.171875 914.794922 1.904297 C 914.941406 2.197266 915.527344 2.34375 916.113281 2.490234 C 915.673828 3.222656 915.380859 3.808594 914.941406 4.248047 C 914.648438 4.6875 914.794922 5.126953 915.234375 5.566406 C 914.648438 7.177734 915.673828 7.470703 914.941406 8.789062 C 914.355469 9.814453 913.476562 11.132812 915.820312 12.451172 C 916.552734 12.890625 919.628906 13.476562 921.240234 13.330078 Z M 888.134766 245.947266 C 884.033203 246.972656 877.587891 245.214844 872.753906 245.800781 C 870.556641 246.09375 868.798828 244.921875 869.091797 242.724609 C 869.384766 240.527344 869.677734 237.304688 869.238281 234.228516 C 868.505859 229.541016 870.849609 222.949219 873.925781 215.771484 C 877.148438 208.59375 878.759766 204.492188 878.759766 201.123047 C 878.759766 198.925781 878.90625 196.435547 880.957031 195.117188 C 882.421875 194.091797 882.714844 193.212891 883.300781 192.480469 C 884.472656 190.576172 885.644531 190.136719 885.791016 191.308594 C 885.9375 191.894531 885.644531 192.480469 885.058594 193.359375 C 886.376953 192.333984 888.574219 191.015625 889.160156 190.722656 C 889.599609 190.283203 892.236328 188.525391 892.236328 190.136719 C 893.261719 189.697266 893.994141 189.697266 894.287109 190.283203 C 894.580078 190.869141 894.287109 191.162109 893.847656 191.601562 C 894.580078 191.455078 895.458984 192.626953 893.994141 193.798828 C 894.726562 193.505859 895.458984 194.824219 894.140625 195.996094 C 892.822266 197.167969 891.210938 197.900391 890.625 198.925781 C 890.185547 199.804688 886.816406 202.441406 885.351562 203.027344 C 884.033203 203.613281 883.886719 204.345703 883.886719 206.396484 C 883.886719 228.662109 881.25 226.757812 881.25 232.177734 C 881.25 233.642578 880.957031 234.960938 882.421875 234.521484 C 883.886719 234.082031 885.9375 233.349609 888.134766 233.349609 Z M 889.013672 293.847656 C 895.458984 290.478516 902.929688 289.306641 906.884766 288.28125 C 910.693359 287.255859 916.992188 284.326172 919.921875 282.714844 C 922.998047 281.103516 925.488281 278.90625 927.246094 278.320312 C 929.003906 277.734375 930.908203 276.5625 931.933594 274.511719 C 937.646484 263.525391 940.576172 254.736328 940.576172 247.119141 C 940.576172 241.992188 939.257812 236.425781 934.423828 240.380859 C 929.736328 244.189453 924.755859 251.513672 923.4375 256.933594 C 921.386719 264.990234 919.775391 266.748047 919.335938 268.212891 C 918.896484 269.824219 917.138672 269.824219 915.234375 270.263672 C 906.738281 272.167969 904.6875 273.486328 898.388672 278.173828 C 892.089844 283.007812 885.058594 287.109375 880.517578 289.746094 C 875.830078 292.382812 874.951172 292.675781 873.925781 294.726562 C 873.046875 296.777344 872.021484 298.388672 871.142578 299.414062 C 870.263672 300.292969 870.117188 301.318359 870.263672 302.490234 C 870.410156 303.515625 869.970703 307.763672 869.824219 309.228516 C 869.824219 310.693359 870.117188 310.986328 870.703125 311.132812 C 871.289062 311.132812 872.167969 310.839844 872.460938 309.082031 C 872.167969 310.839844 874.511719 310.253906 874.658203 308.935547 C 874.511719 310.839844 877.148438 309.814453 877.294922 308.056641 C 877.294922 309.228516 879.199219 308.496094 879.345703 307.910156 C 879.785156 306.445312 880.078125 304.833984 880.664062 303.662109 C 881.542969 302.050781 882.421875 299.853516 884.033203 298.681641 C 885.9375 297.216797 885.058594 295.751953 889.013672 293.847656 Z M 935.742188 411.914062 C 936.181641 413.525391 936.914062 415.283203 937.207031 416.308594 C 937.5 417.480469 937.060547 417.773438 936.767578 418.359375 C 935.15625 421.582031 933.544922 426.5625 933.251953 429.345703 C 933.251953 430.957031 932.080078 432.421875 931.640625 433.300781 C 931.054688 434.326172 931.201172 435.205078 932.519531 436.230469 C 933.105469 436.669922 935.15625 436.083984 935.302734 435.058594 C 936.035156 435.791016 937.353516 435.498047 937.939453 434.326172 C 938.525391 435.058594 939.697266 434.619141 940.429688 433.447266 C 941.015625 433.886719 942.041016 433.007812 942.333984 432.568359 C 943.359375 433.007812 944.384766 432.421875 944.53125 430.371094 C 944.53125 430.078125 944.677734 429.345703 944.970703 428.90625 C 945.263672 428.320312 945.410156 427.441406 945.410156 426.708984 C 945.263672 425.830078 945.849609 424.365234 946.582031 423.193359 C 947.167969 422.021484 948.339844 420.117188 947.900391 418.212891 C 947.460938 416.455078 946.728516 416.601562 945.996094 414.111328 C 944.384766 412.5 942.333984 410.15625 939.990234 410.009766 C 937.792969 409.863281 936.474609 411.328125 935.742188 411.914062 Z M 894.726562 424.21875 C 896.630859 426.269531 901.318359 426.416016 904.394531 423.046875 C 903.222656 422.460938 900.732422 421.289062 899.560547 420.410156 C 897.949219 422.021484 896.191406 423.779297 894.726562 424.21875 Z M 894.726562 424.21875 " transform="matrix(0.0266667,0,0,0.0266667,0,0)"/>
<path style="fill-rule:nonzero;fill:rgb(52.941176%,5.882353%,0%);fill-opacity:1;stroke-width:0.399;stroke-linecap:butt;stroke-linejoin:miter;stroke:rgb(0%,0%,0%);stroke-opacity:1;stroke-miterlimit:4;" d="M 915.087891 194.970703 C 915.820312 189.84375 919.482422 189.990234 921.826172 190.576172 C 922.705078 190.722656 925.048828 191.015625 927.246094 190.429688 C 931.494141 189.257812 934.716797 190.722656 934.277344 194.824219 C 935.449219 195.703125 936.621094 197.753906 936.474609 199.511719 C 936.181641 201.269531 936.621094 202.001953 938.085938 202.148438 C 939.697266 202.441406 943.066406 204.345703 940.869141 207.128906 C 943.066406 208.300781 944.677734 211.669922 943.505859 213.867188 C 942.480469 216.210938 938.964844 216.503906 937.5 214.453125 C 935.888672 215.185547 933.251953 215.332031 931.787109 213.720703 C 930.615234 215.039062 927.978516 214.892578 927.392578 213.720703 C 926.953125 212.548828 926.074219 211.962891 925.048828 211.669922 C 923.876953 211.230469 923.876953 208.007812 925.488281 207.714844 C 925.341797 206.835938 925.341797 205.664062 925.78125 205.224609 C 926.220703 204.638672 925.927734 203.759766 924.902344 203.027344 C 923.876953 202.148438 922.998047 199.072266 924.023438 197.460938 C 922.265625 198.046875 918.457031 196.435547 917.724609 195.263672 C 916.845703 194.091797 915.820312 193.945312 915.087891 194.970703 Z M 915.087891 194.970703 " transform="matrix(0.0266667,0,0,0.0266667,0,0)"/>
<path style="fill:none;stroke-width:0.399;stroke-linecap:butt;stroke-linejoin:miter;stroke:rgb(0%,0%,0%);stroke-opacity:1;stroke-miterlimit:4;" d="M 916.113281 217.236328 C 919.042969 216.796875 919.921875 215.185547 921.972656 215.332031 M 910.253906 209.472656 C 910.400391 209.619141 910.546875 209.765625 910.839844 209.912109 C 911.425781 210.205078 912.011719 210.205078 912.597656 210.205078 M 910.986328 206.396484 C 911.425781 206.542969 911.865234 206.689453 912.158203 207.128906 M 917.578125 194.970703 C 915.820312 193.505859 920.361328 190.136719 925.048828 194.824219 C 925.927734 195.703125 928.125 195.703125 928.857422 195.410156 M 924.023438 197.460938 C 926.220703 197.021484 929.443359 197.021484 930.322266 199.365234 C 931.347656 201.855469 933.251953 200.244141 934.716797 203.173828 C 936.181641 206.103516 938.525391 209.326172 940.869141 207.128906 M 931.787109 213.720703 C 931.054688 212.841797 930.761719 210.9375 931.201172 209.619141 C 930.322266 208.59375 930.761719 206.542969 931.201172 205.517578 M 925.488281 207.714844 C 925.634766 208.59375 926.806641 210.205078 928.564453 210.498047 M 937.5 214.453125 C 936.474609 213.134766 936.621094 212.109375 936.914062 210.498047 " transform="matrix(0.0266667,0,0,0.0266667,0,0)"/>
<path style="fill:none;stroke-width:0.399;stroke-linecap:butt;stroke-linejoin:miter;stroke:rgb(0%,0%,0%);stroke-opacity:1;stroke-miterlimit:4;" d="M 926.953125 200.097656 C 926.953125 201.416016 927.685547 203.173828 929.003906 203.759766 C 929.296875 204.492188 930.761719 206.542969 933.691406 206.25 M 934.277344 194.824219 C 932.666016 193.652344 930.46875 192.1875 927.685547 191.748047 M 916.699219 236.279297 C 914.208984 239.648438 912.597656 244.189453 913.769531 250.634766 C 914.941406 257.226562 916.845703 266.748047 912.011719 270.996094 M 935.449219 283.59375 C 932.080078 282.861328 927.392578 282.861328 924.755859 284.765625 C 922.119141 286.523438 917.871094 286.669922 914.941406 285.351562 " transform="matrix(0.0266667,0,0,0.0266667,0,0)"/>
<path style="fill:none;stroke-width:0.399;stroke-linecap:butt;stroke-linejoin:miter;stroke:rgb(0%,0%,0%);stroke-opacity:1;stroke-miterlimit:4;" d="M 928.417969 283.300781 C 925.488281 283.886719 924.169922 285.791016 924.169922 291.210938 C 924.169922 296.484375 922.998047 304.248047 924.023438 312.011719 M 923.144531 285.644531 C 921.240234 286.083984 919.335938 286.083984 919.775391 291.210938 M 913.476562 291.357422 C 913.476562 288.28125 914.648438 285.351562 916.552734 285.791016 M 934.130859 291.943359 C 934.277344 285.058594 932.8125 283.154297 930.761719 283.154297 C 933.544922 283.300781 935.449219 283.59375 936.621094 294.873047 C 937.5 303.222656 939.257812 306.152344 941.162109 312.744141 C 946.435547 329.736328 943.798828 355.957031 946.435547 365.185547 M 930.175781 293.994141 C 935.742188 309.814453 938.525391 327.392578 929.589844 355.664062 C 935.742188 372.363281 941.748047 384.521484 942.919922 391.40625 M 912.890625 331.494141 C 913.916016 327.832031 910.400391 327.392578 913.476562 314.648438 C 914.941406 309.228516 915.087891 305.859375 914.208984 304.101562 M 914.208984 311.71875 C 912.890625 317.285156 918.457031 327.832031 915.673828 335.449219 M 908.935547 336.914062 C 908.935547 341.748047 910.107422 348.193359 909.814453 353.027344 C 909.521484 358.007812 911.425781 360.205078 913.769531 364.892578 C 922.119141 381.591797 927.832031 393.603516 927.099609 409.277344 C 926.953125 412.207031 927.978516 418.212891 924.902344 419.970703 M 909.082031 424.21875 C 909.960938 424.21875 910.839844 423.779297 912.011719 421.289062 C 913.037109 418.652344 916.552734 403.125 915.087891 392.431641 M 916.845703 404.589844 C 917.285156 407.8125 917.285156 414.550781 915.087891 419.970703 M 922.265625 394.628906 C 923.583984 401.660156 923.4375 407.958984 922.412109 412.5 M 919.482422 412.5 C 919.628906 415.283203 920.800781 422.607422 918.75 423.193359 M 930.175781 378.955078 C 935.595703 387.304688 939.697266 407.958984 944.238281 412.353516 M 934.863281 408.984375 C 934.716797 406.640625 934.570312 403.564453 933.251953 402.099609 M 877.294922 308.056641 C 877.294922 306.445312 877.001953 304.980469 878.759766 302.490234 M 874.658203 308.935547 C 874.804688 303.515625 874.804688 302.929688 876.416016 301.464844 M 872.460938 309.082031 C 872.460938 305.126953 872.021484 303.808594 873.632812 301.318359 M 892.236328 190.136719 C 891.650391 190.576172 888.134766 193.359375 886.523438 194.53125 M 893.847656 191.601562 C 893.115234 191.601562 891.210938 193.212891 887.695312 195.996094 M 893.994141 193.798828 C 892.822266 194.238281 890.771484 196.289062 888.720703 197.753906 M 885.058594 193.359375 C 884.619141 193.798828 883.447266 194.970703 883.007812 195.263672 M 935.302734 435.058594 C 935.009766 434.619141 935.009766 433.447266 935.595703 431.982422 M 937.939453 434.326172 C 937.5 434.033203 937.939453 432.275391 938.378906 431.103516 M 940.429688 433.447266 C 939.990234 433.300781 939.84375 432.275391 940.429688 430.957031 M 942.333984 432.568359 C 942.041016 432.421875 941.894531 431.835938 942.480469 430.224609 " transform="matrix(0.0266667,0,0,0.0266667,0,0)"/>
<path style=" stroke:none;fill-rule:nonzero;fill:rgb(0%,0%,0%);fill-opacity:1;" d="M 24.371094 5.320312 C 24.398438 5.359375 24.429688 5.355469 24.433594 5.378906 C 24.4375 5.402344 24.441406 5.402344 24.449219 5.410156 C 24.453125 5.417969 24.433594 5.414062 24.425781 5.410156 C 24.417969 5.410156 24.394531 5.410156 24.378906 5.410156 C 24.367188 5.410156 24.351562 5.394531 24.359375 5.390625 C 24.371094 5.390625 24.371094 5.386719 24.367188 5.378906 C 24.367188 5.371094 24.375 5.359375 24.378906 5.359375 C 24.382812 5.355469 24.378906 5.355469 24.375 5.347656 C 24.371094 5.335938 24.367188 5.3125 24.371094 5.320312 Z M 24.390625 5.289062 C 24.421875 5.292969 24.472656 5.308594 24.503906 5.339844 C 24.527344 5.367188 24.507812 5.359375 24.496094 5.359375 C 24.484375 5.363281 24.460938 5.355469 24.449219 5.339844 C 24.4375 5.324219 24.40625 5.304688 24.386719 5.300781 C 24.375 5.296875 24.367188 5.285156 24.390625 5.289062 Z M 24.390625 5.289062 "/>
</g>
</svg>
