<?xml version="1.0" encoding="UTF-8"?>
<svg xmlns="http://www.w3.org/2000/svg" xmlns:xlink="http://www.w3.org/1999/xlink" width="24px" height="16px" viewBox="0 0 24 16" version="1.1">
<g id="surface1">
<rect x="0" y="0" width="24" height="16" style="fill:rgb(78.431373%,6.27451%,18.039216%);fill-opacity:1;stroke:none;"/>
<path style=" stroke:none;fill-rule:nonzero;fill:rgb(100%,100%,100%);fill-opacity:1;" d="M 0 0 L 12 0 L 12 16 L 0 16 Z M 0 0 "/>
<path style=" stroke:none;fill-rule:nonzero;fill:rgb(78.431373%,6.27451%,18.039216%);fill-opacity:1;" d="M 0.59375 2.207031 L 0.59375 3.421875 L 1.804688 3.421875 C 1.804688 3.621094 2.007812 3.824219 2.207031 3.824219 L 2.207031 5.035156 L 3.421875 5.035156 L 3.421875 3.824219 C 3.621094 3.824219 3.824219 3.621094 3.824219 3.421875 L 5.035156 3.421875 L 5.035156 2.207031 L 3.824219 2.207031 C 3.824219 2.007812 3.621094 1.804688 3.421875 1.804688 L 3.421875 0.59375 L 2.207031 0.59375 L 2.207031 1.804688 C 2.007812 1.804688 1.804688 2.007812 1.804688 2.207031 Z M 0.59375 2.207031 "/>
<path style=" stroke:none;fill-rule:nonzero;fill:rgb(58.823529%,52.941176%,49.019608%);fill-opacity:1;" d="M 0.671875 2.289062 L 0.671875 3.339844 L 1.886719 3.339844 C 1.886719 3.542969 2.085938 3.742188 2.289062 3.742188 L 2.289062 4.957031 L 3.339844 4.957031 L 3.339844 3.742188 C 3.542969 3.742188 3.742188 3.542969 3.742188 3.339844 L 4.957031 3.339844 L 4.957031 2.289062 L 3.742188 2.289062 C 3.742188 2.085938 3.542969 1.886719 3.339844 1.886719 L 3.339844 0.671875 L 2.289062 0.671875 L 2.289062 1.886719 C 2.085938 1.886719 1.886719 2.085938 1.886719 2.289062 Z M 0.671875 2.289062 "/>
<path style=" stroke:none;fill-rule:nonzero;fill:rgb(80%,80%,80%);fill-opacity:1;" d="M 0.714844 2.328125 L 0.714844 3.300781 L 1.925781 3.300781 C 1.925781 3.5 2.128906 3.703125 2.328125 3.703125 L 2.328125 4.914062 L 3.300781 4.914062 L 3.300781 3.703125 C 3.5 3.703125 3.703125 3.5 3.703125 3.300781 L 4.914062 3.300781 L 4.914062 2.328125 L 3.703125 2.328125 C 3.703125 2.128906 3.5 1.925781 3.300781 1.925781 L 3.300781 0.714844 L 2.328125 0.714844 L 2.328125 1.925781 C 2.128906 1.925781 1.925781 2.128906 1.925781 2.328125 Z M 0.714844 2.328125 "/>
<path style=" stroke:none;fill-rule:nonzero;fill:rgb(58.823529%,52.941176%,49.019608%);fill-opacity:1;" d="M 2.253906 1.910156 C 2.324219 1.984375 2.304688 2.117188 2.210938 2.210938 C 2.117188 2.304688 1.984375 2.324219 1.910156 2.253906 C 1.839844 2.183594 1.859375 2.050781 1.953125 1.953125 C 2.050781 1.859375 2.183594 1.839844 2.253906 1.910156 Z M 2.253906 1.910156 "/>
<path style=" stroke:none;fill-rule:nonzero;fill:rgb(81.568627%,81.568627%,81.568627%);fill-opacity:1;" d="M 1.898438 2.125 L 1.925781 2.097656 L 2.039062 2.152344 L 1.984375 2.039062 L 2.011719 2.011719 L 2.125 2.238281 Z M 2.070312 1.953125 L 2.097656 1.925781 L 2.269531 2.097656 L 2.238281 2.125 Z M 2.070312 1.953125 "/>
<path style=" stroke:none;fill-rule:nonzero;fill:rgb(58.823529%,52.941176%,49.019608%);fill-opacity:1;" d="M 3.71875 2.253906 C 3.648438 2.324219 3.511719 2.304688 3.417969 2.210938 C 3.324219 2.117188 3.304688 1.984375 3.375 1.910156 C 3.445312 1.839844 3.582031 1.859375 3.675781 1.953125 C 3.769531 2.050781 3.789062 2.183594 3.71875 2.253906 Z M 3.71875 2.253906 "/>
<path style=" stroke:none;fill-rule:nonzero;fill:rgb(81.568627%,81.568627%,81.568627%);fill-opacity:1;" d="M 3.503906 1.898438 L 3.53125 1.925781 L 3.476562 2.039062 L 3.589844 1.984375 L 3.617188 2.011719 L 3.390625 2.125 Z M 3.675781 2.070312 L 3.703125 2.097656 L 3.53125 2.269531 L 3.503906 2.238281 Z M 3.675781 2.070312 "/>
<path style=" stroke:none;fill-rule:nonzero;fill:rgb(58.823529%,52.941176%,49.019608%);fill-opacity:1;" d="M 3.375 3.71875 C 3.304688 3.648438 3.324219 3.511719 3.417969 3.417969 C 3.511719 3.324219 3.648438 3.304688 3.71875 3.375 C 3.789062 3.445312 3.769531 3.582031 3.675781 3.675781 C 3.582031 3.769531 3.445312 3.789062 3.375 3.71875 Z M 3.375 3.71875 "/>
<path style=" stroke:none;fill-rule:nonzero;fill:rgb(81.568627%,81.568627%,81.568627%);fill-opacity:1;" d="M 3.734375 3.503906 L 3.703125 3.53125 L 3.589844 3.476562 L 3.648438 3.589844 L 3.617188 3.617188 L 3.503906 3.390625 Z M 3.5625 3.675781 L 3.53125 3.703125 L 3.359375 3.53125 L 3.390625 3.503906 Z M 3.5625 3.675781 "/>
<path style=" stroke:none;fill-rule:nonzero;fill:rgb(58.823529%,52.941176%,49.019608%);fill-opacity:1;" d="M 1.910156 3.375 C 1.984375 3.304688 2.117188 3.324219 2.210938 3.417969 C 2.304688 3.511719 2.324219 3.648438 2.253906 3.71875 C 2.183594 3.789062 2.050781 3.769531 1.953125 3.675781 C 1.859375 3.582031 1.839844 3.445312 1.910156 3.375 Z M 1.910156 3.375 "/>
<path style=" stroke:none;fill-rule:nonzero;fill:rgb(81.568627%,81.568627%,81.568627%);fill-opacity:1;" d="M 2.125 3.734375 L 2.097656 3.703125 L 2.152344 3.589844 L 2.039062 3.648438 L 2.011719 3.617188 L 2.238281 3.503906 Z M 1.953125 3.5625 L 1.925781 3.53125 L 2.097656 3.359375 L 2.125 3.390625 Z M 1.953125 3.5625 "/>
<path style="fill:none;stroke-width:0.514;stroke-linecap:butt;stroke-linejoin:miter;stroke:rgb(58.823529%,52.941176%,49.019608%);stroke-opacity:1;stroke-miterlimit:4;" d="M 137.402344 105.615234 C 137.402344 123.193359 123.193359 137.402344 105.615234 137.402344 C 88.037109 137.402344 73.681641 123.193359 73.681641 105.615234 C 73.681641 88.037109 88.037109 73.681641 105.615234 73.681641 C 123.193359 73.681641 137.402344 88.037109 137.402344 105.615234 Z M 137.402344 105.615234 " transform="matrix(0.0266667,0,0,0.0266667,0,0)"/>
<path style="fill:none;stroke-width:0.514;stroke-linecap:butt;stroke-linejoin:miter;stroke:rgb(58.823529%,52.941176%,49.019608%);stroke-opacity:1;stroke-miterlimit:4;" d="M 129.785156 105.615234 C 129.785156 118.945312 118.945312 129.785156 105.615234 129.785156 C 92.138672 129.785156 81.298828 118.945312 81.298828 105.615234 C 81.298828 92.138672 92.138672 81.298828 105.615234 81.298828 C 118.945312 81.298828 129.785156 92.138672 129.785156 105.615234 Z M 129.785156 105.615234 " transform="matrix(0.0266667,0,0,0.0266667,0,0)"/>
<path style=" stroke:none;fill-rule:nonzero;fill:rgb(0%,0%,0%);fill-opacity:1;" d="M 2.53125 3.5 C 2.53125 3.523438 2.515625 3.542969 2.492188 3.542969 C 2.46875 3.542969 2.453125 3.523438 2.453125 3.5 C 2.453125 3.480469 2.46875 3.460938 2.492188 3.460938 C 2.515625 3.460938 2.53125 3.480469 2.53125 3.5 Z M 2.53125 3.5 "/>
<path style=" stroke:none;fill-rule:nonzero;fill:rgb(0%,0%,0%);fill-opacity:1;" d="M 3.179688 3.5 C 3.179688 3.523438 3.160156 3.542969 3.136719 3.542969 C 3.117188 3.542969 3.097656 3.523438 3.097656 3.5 C 3.097656 3.480469 3.117188 3.460938 3.136719 3.460938 C 3.160156 3.460938 3.179688 3.480469 3.179688 3.5 Z M 3.179688 3.5 "/>
<path style=" stroke:none;fill-rule:nonzero;fill:rgb(0%,0%,0%);fill-opacity:1;" d="M 2.789062 3.5 L 2.789062 3.542969 L 2.734375 3.542969 C 2.679688 3.542969 2.679688 3.585938 2.734375 3.585938 L 2.789062 3.585938 L 2.789062 3.628906 C 2.789062 3.671875 2.835938 3.675781 2.839844 3.632812 L 2.84375 3.585938 L 2.894531 3.585938 C 2.949219 3.585938 2.949219 3.542969 2.894531 3.542969 L 2.84375 3.542969 L 2.84375 3.5 C 2.84375 3.460938 2.789062 3.460938 2.789062 3.5 Z M 2.027344 3.023438 L 2.082031 3.011719 L 2.074219 2.984375 C 2.074219 2.980469 2.070312 2.976562 2.066406 2.972656 C 2.066406 2.972656 2.058594 2.96875 2.050781 2.972656 L 2.050781 2.96875 L 2.097656 2.957031 L 2.097656 2.960938 C 2.09375 2.960938 2.089844 2.960938 2.085938 2.964844 C 1.269531 2.960938 0.605469 2.296875 0.609375 1.480469 C 0.609375 0.660156 1.277344 0 2.09375 0 C 2.09375 0.00390625 2.09375 0.0078125 2.09375 0.0117188 L 2.101562 0.0351562 L 2.144531 0.0273438 C 2.152344 0.0234375 2.15625 0.0234375 2.160156 0.0234375 C 2.164062 0.015625 2.175781 0.015625 2.179688 0.0234375 C 2.183594 0.0273438 2.183594 0.0351562 2.179688 0.0429688 L 2.179688 0.0351562 L 2.183594 0.0351562 L 2.195312 0.0976562 L 2.191406 0.0976562 L 2.191406 0.09375 C 2.191406 0.0859375 2.1875 0.0820312 2.183594 0.0820312 C 2.179688 0.078125 2.175781 0.0820312 2.167969 0.0820312 L 2.074219 0.105469 C 2.070312 0.105469 2.0625 0.105469 2.0625 0.109375 C 2.066406 0.105469 2.074219 0.109375 2.074219 0.117188 C 2.074219 0.121094 2.074219 0.128906 2.066406 0.128906 L 2.066406 0.132812 L 2.0625 0.132812 L 2.039062 0.03125 L 2.070312 0.0195312 L 2.070312 0.0234375 C 2.066406 0.0273438 2.058594 0.03125 2.058594 0.0351562 C 2.085938 0.03125 2.109375 0.0507812 2.109375 0.0742188 C 2.113281 0.101562 2.09375 0.125 2.070312 0.128906 C 2.066406 0.132812 2.070312 0.136719 2.070312 0.144531 L 2.078125 0.175781 Z M 1.988281 2.773438 C 1.992188 2.753906 2 2.738281 2.015625 2.726562 C 2.027344 2.710938 2.046875 2.707031 2.070312 2.707031 C 2.089844 2.710938 2.109375 2.71875 2.121094 2.730469 C 2.136719 2.746094 2.140625 2.765625 2.140625 2.785156 C 2.140625 2.804688 2.132812 2.820312 2.117188 2.832031 C 2.101562 2.84375 2.082031 2.851562 2.0625 2.851562 C 2.039062 2.847656 2.019531 2.839844 2.003906 2.824219 C 1.261719 2.835938 0.648438 2.246094 0.632812 1.5 C 0.621094 0.757812 1.210938 0.140625 1.957031 0.128906 Z M 1.996094 2.777344 C 1.996094 2.789062 2 2.800781 2.011719 2.808594 C 2.019531 2.816406 2.039062 2.824219 2.0625 2.824219 C 2.085938 2.828125 2.105469 2.824219 2.117188 2.8125 C 2.121094 2.792969 2.136719 2.78125 2.15625 2.78125 C 2.175781 2.78125 2.191406 2.796875 2.191406 2.816406 C 2.191406 2.835938 2.179688 2.851562 2.160156 2.855469 C 2.148438 2.847656 2.132812 2.839844 2.109375 2.839844 C 2.085938 2.839844 2.066406 2.839844 2.054688 2.851562 C 2.042969 2.859375 2.039062 2.867188 2.039062 2.882812 Z M 2.207031 2.511719 L 2.195312 2.546875 L 2.113281 2.570312 C 2.128906 2.449219 2.234375 2.363281 2.351562 2.367188 C 2.46875 2.371094 2.566406 2.460938 2.578125 2.578125 C 2.589844 2.699219 2.511719 2.804688 2.398438 2.832031 C 2.28125 2.859375 2.164062 2.792969 2.125 2.683594 L 2.164062 2.695312 C 2.171875 2.699219 2.179688 2.703125 2.179688 2.699219 C 2.183594 2.699219 2.1875 2.695312 2.1875 2.691406 L 2.191406 2.683594 L 2.195312 2.6875 L 2.171875 2.746094 L 2.167969 2.742188 L 2.171875 2.738281 C 2.171875 2.730469 2.171875 2.726562 2.171875 2.722656 C 2.167969 2.722656 2.164062 2.71875 2.15625 2.714844 L 2.070312 2.683594 C 2.058594 2.679688 2.054688 2.679688 2.050781 2.679688 C 2.046875 2.679688 2.042969 2.683594 2.042969 2.6875 L 2.039062 2.695312 L 2.039062 2.691406 L 2.054688 2.644531 C 2.0625 2.628906 2.066406 2.617188 2.070312 2.613281 C 2.074219 2.605469 2.082031 2.601562 2.089844 2.601562 C 2.097656 2.597656 2.105469 2.597656 2.113281 2.601562 C 2.121094 2.601562 2.128906 2.609375 2.132812 2.617188 C 2.136719 2.625 2.136719 2.632812 2.132812 2.648438 L 2.183594 2.632812 C 2.195312 2.628906 2.203125 2.628906 2.207031 2.625 C 2.214844 2.621094 2.21875 2.613281 2.222656 2.609375 Z M 2.101562 2.582031 C 2.128906 2.441406 2.265625 2.347656 2.40625 2.378906 C 2.546875 2.40625 2.636719 2.542969 2.609375 2.683594 C 2.613281 2.667969 2.613281 2.65625 2.609375 2.648438 C 2.613281 2.664062 2.605469 2.675781 2.59375 2.683594 C 2.585938 2.679688 2.578125 2.679688 2.570312 2.683594 C 2.5625 2.683594 2.554688 2.691406 2.554688 2.699219 C 2.550781 2.703125 2.550781 2.710938 2.550781 2.714844 L 2.605469 2.738281 Z M 2.410156 2.097656 L 2.4375 2.136719 L 2.433594 2.136719 C 2.425781 2.128906 2.417969 2.125 2.410156 2.125 C 2.398438 2.121094 2.386719 2.125 2.375 2.132812 C 2.359375 2.140625 2.351562 2.15625 2.351562 2.171875 C 2.351562 2.1875 2.355469 2.203125 2.363281 2.214844 C 2.371094 2.226562 2.382812 2.238281 2.390625 2.242188 C 2.402344 2.25 2.414062 2.253906 2.421875 2.253906 C 2.429688 2.226562 2.449219 2.210938 2.476562 2.210938 C 2.5 2.214844 2.523438 2.234375 2.523438 2.257812 C 2.523438 2.285156 2.507812 2.308594 2.484375 2.3125 L 2.460938 2.277344 C 2.457031 2.269531 2.453125 2.265625 2.449219 2.265625 C 2.464844 2.265625 2.472656 2.277344 2.472656 2.289062 C 2.472656 2.304688 2.460938 2.3125 2.449219 2.3125 C 2.445312 2.3125 2.441406 2.316406 2.4375 2.316406 L 2.433594 2.3125 L 2.484375 2.285156 L 2.484375 2.289062 C 2.476562 2.292969 2.476562 2.296875 2.476562 2.300781 C 2.476562 2.300781 2.476562 2.308594 2.484375 2.3125 L 2.507812 2.351562 C 2.46875 2.394531 2.40625 2.402344 2.363281 2.371094 C 2.316406 2.335938 2.300781 2.277344 2.328125 2.226562 C 2.355469 2.179688 2.414062 2.15625 2.46875 2.179688 C 2.519531 2.203125 2.542969 2.257812 2.527344 2.3125 C 2.523438 2.320312 2.515625 2.324219 2.507812 2.328125 C 2.484375 2.34375 2.460938 2.347656 2.4375 2.339844 C 2.464844 2.324219 2.5 2.324219 2.523438 2.347656 C 2.546875 2.367188 2.558594 2.398438 2.546875 2.429688 C 2.535156 2.457031 2.503906 2.476562 2.472656 2.472656 C 2.441406 2.472656 2.417969 2.449219 2.410156 2.417969 L 2.488281 2.5 C 2.492188 2.488281 2.503906 2.476562 2.515625 2.46875 C 2.519531 2.46875 2.523438 2.464844 2.527344 2.464844 C 2.53125 2.460938 2.539062 2.460938 2.546875 2.457031 C 2.535156 2.445312 2.535156 2.429688 2.546875 2.417969 C 2.558594 2.40625 2.578125 2.40625 2.589844 2.417969 C 2.601562 2.429688 2.601562 2.449219 2.589844 2.460938 C 2.582031 2.472656 2.5625 2.472656 2.550781 2.460938 C 2.550781 2.460938 2.550781 2.457031 2.546875 2.457031 L 2.550781 2.453125 Z M 2.648438 2.113281 L 2.59375 2.128906 L 2.589844 2.15625 C 2.589844 2.160156 2.589844 2.164062 2.589844 2.167969 C 2.589844 2.167969 2.589844 2.171875 2.59375 2.171875 C 2.597656 2.171875 2.601562 2.171875 2.609375 2.171875 L 2.609375 2.175781 L 2.5625 2.1875 L 2.5625 2.183594 C 2.570312 2.179688 2.574219 2.179688 2.574219 2.175781 C 2.578125 2.171875 2.578125 2.164062 2.578125 2.152344 L 2.597656 2.023438 L 2.601562 2.023438 L 2.683594 2.128906 C 2.6875 2.136719 2.695312 2.140625 2.699219 2.144531 C 2.703125 2.144531 2.707031 2.144531 2.710938 2.144531 L 2.714844 2.148438 L 2.65625 2.164062 L 2.65625 2.160156 C 2.664062 2.15625 2.667969 2.15625 2.667969 2.152344 C 2.753906 2.296875 2.707031 2.480469 2.566406 2.566406 C 2.421875 2.652344 2.238281 2.605469 2.152344 2.460938 C 2.152344 2.460938 2.148438 2.453125 2.144531 2.449219 L 2.132812 2.429688 Z M 2.640625 2.109375 L 2.601562 2.058594 L 2.59375 2.121094 Z M 2.898438 2.109375 L 2.902344 2.109375 L 2.886719 2.148438 L 2.777344 2.144531 L 2.777344 2.140625 L 2.78125 2.140625 C 2.789062 2.140625 2.792969 2.136719 2.796875 2.132812 C 2.796875 2.132812 2.796875 2.125 2.796875 2.117188 L 2.800781 2.023438 C 2.800781 2.015625 2.800781 2.007812 2.800781 2.007812 C 2.796875 2.003906 2.792969 2.003906 2.785156 2.003906 L 2.78125 2 L 2.78125 1.996094 L 2.847656 2 L 2.847656 2.003906 C 2.839844 2.003906 2.835938 2.003906 2.832031 2.003906 C 2.957031 2.003906 3.058594 2.105469 3.0625 2.230469 C 3.0625 2.359375 2.960938 2.460938 2.835938 2.460938 C 2.835938 2.464844 2.835938 2.46875 2.832031 2.480469 L 2.832031 2.570312 C 2.832031 2.574219 2.832031 2.578125 2.832031 2.582031 C 2.832031 2.582031 2.832031 2.585938 2.835938 2.585938 C 2.835938 2.585938 2.84375 2.585938 2.851562 2.585938 L 2.863281 2.589844 C 2.875 2.589844 2.882812 2.585938 2.886719 2.585938 C 2.851562 2.667969 2.757812 2.707031 2.675781 2.675781 C 2.589844 2.640625 2.550781 2.546875 2.585938 2.460938 C 2.589844 2.457031 2.59375 2.453125 2.597656 2.441406 Z M 3.09375 2.160156 L 3.070312 2.195312 L 2.964844 2.160156 L 2.964844 2.15625 L 2.972656 2.15625 C 2.976562 2.160156 2.980469 2.160156 2.984375 2.15625 C 2.988281 2.152344 2.988281 2.148438 2.992188 2.140625 L 3.023438 2.050781 C 3.023438 2.042969 3.027344 2.039062 3.023438 2.035156 C 3.023438 2.03125 3.019531 2.027344 3.015625 2.027344 L 3.007812 2.023438 L 3.011719 2.019531 L 3.074219 2.042969 L 3.070312 2.046875 C 3.0625 2.042969 3.058594 2.042969 3.054688 2.042969 C 3.171875 2.042969 3.265625 2.136719 3.265625 2.25 C 3.269531 2.367188 3.175781 2.460938 3.058594 2.460938 C 3.058594 2.464844 3.054688 2.46875 3.050781 2.476562 L 3.023438 2.5625 C 3.019531 2.570312 3.019531 2.574219 3.019531 2.578125 C 2.988281 2.699219 2.863281 2.773438 2.742188 2.742188 C 2.617188 2.710938 2.542969 2.585938 2.578125 2.460938 C 2.578125 2.464844 2.582031 2.464844 2.59375 2.46875 L 2.601562 2.472656 C 2.613281 2.476562 2.621094 2.476562 2.625 2.476562 C 2.628906 2.476562 2.632812 2.476562 2.640625 2.472656 C 2.644531 2.46875 2.648438 2.464844 2.65625 2.457031 Z M 3.25 2.242188 L 3.203125 2.210938 L 3.179688 2.222656 C 3.175781 2.226562 3.171875 2.226562 3.171875 2.230469 C 3.167969 2.234375 3.167969 2.234375 3.171875 2.238281 C 3.171875 2.238281 3.175781 2.242188 3.179688 2.246094 L 3.175781 2.25 L 3.140625 2.226562 L 3.140625 2.222656 C 3.148438 2.222656 3.152344 2.226562 3.152344 2.226562 C 3.160156 2.222656 3.167969 2.222656 3.175781 2.214844 L 3.285156 2.148438 L 3.289062 2.148438 L 3.261719 2.277344 C 3.257812 2.285156 3.257812 2.292969 3.257812 2.296875 C 3.261719 2.304688 3.261719 2.308594 3.269531 2.3125 L 3.265625 2.3125 L 3.21875 2.28125 L 3.222656 2.277344 C 3.226562 2.28125 3.230469 2.28125 3.230469 2.28125 C 3.28125 2.542969 3.109375 2.796875 2.847656 2.847656 C 2.585938 2.898438 2.332031 2.726562 2.28125 2.460938 C 2.285156 2.460938 2.285156 2.453125 2.285156 2.449219 L 2.292969 2.425781 Z M 3.25 2.234375 L 3.265625 2.171875 L 3.210938 2.203125 Z M 3.421875 2.265625 L 3.445312 2.296875 L 3.410156 2.433594 L 3.480469 2.382812 C 3.484375 2.378906 3.488281 2.375 3.492188 2.371094 C 3.492188 2.367188 3.488281 2.363281 3.488281 2.359375 L 3.484375 2.355469 L 3.488281 2.351562 L 3.515625 2.394531 L 3.511719 2.390625 C 3.507812 2.386719 3.503906 2.382812 3.5 2.382812 C 3.496094 2.382812 3.492188 2.386719 3.484375 2.390625 L 3.386719 2.464844 L 3.382812 2.460938 L 3.421875 2.3125 L 3.347656 2.367188 C 3.339844 2.371094 3.335938 2.378906 3.335938 2.378906 C 3.335938 2.382812 3.335938 2.386719 3.339844 2.394531 L 3.34375 2.398438 L 3.339844 2.398438 L 3.3125 2.359375 L 3.3125 2.355469 L 3.316406 2.359375 C 3.320312 2.363281 3.324219 2.367188 3.328125 2.367188 C 3.332031 2.367188 3.335938 2.363281 3.34375 2.359375 L 3.425781 2.300781 C 3.46875 2.59375 3.265625 2.867188 2.972656 2.914062 C 2.679688 2.957031 2.40625 2.757812 2.359375 2.460938 C 2.359375 2.460938 2.359375 2.457031 2.359375 2.453125 C 2.355469 2.457031 2.351562 2.460938 2.351562 2.460938 Z M 3.605469 2.601562 L 3.574219 2.617188 L 3.574219 2.613281 C 3.578125 2.609375 3.582031 2.605469 3.585938 2.605469 C 3.59375 2.597656 3.605469 2.597656 3.613281 2.605469 C 3.625 2.613281 3.625 2.628906 3.613281 2.636719 L 3.609375 2.617188 L 3.503906 2.652344 C 3.496094 2.65625 3.488281 2.660156 3.488281 2.660156 C 3.488281 2.664062 3.488281 2.667969 3.488281 2.675781 L 3.488281 2.679688 L 3.464844 2.621094 L 3.46875 2.621094 L 3.472656 2.625 C 3.472656 2.632812 3.476562 2.636719 3.480469 2.636719 C 3.484375 2.636719 3.488281 2.636719 3.496094 2.632812 L 3.601562 2.597656 L 3.59375 2.582031 C 3.59375 2.574219 3.589844 2.570312 3.589844 2.566406 C 3.609375 2.570312 3.621094 2.585938 3.621094 2.605469 C 3.617188 2.625 3.601562 2.636719 3.582031 2.636719 C 3.578125 2.632812 3.574219 2.632812 3.566406 2.636719 L 3.566406 2.632812 L 3.597656 2.621094 L 3.636719 2.734375 Z M 3.492188 2.859375 L 3.488281 2.820312 L 3.554688 2.769531 C 3.53125 2.886719 3.425781 2.964844 3.308594 2.957031 C 3.191406 2.953125 3.097656 2.859375 3.085938 2.742188 C 3.078125 2.625 3.152344 2.519531 3.269531 2.492188 C 3.382812 2.464844 3.5 2.527344 3.542969 2.636719 L 3.542969 2.632812 L 3.5 2.632812 C 3.492188 2.636719 3.484375 2.636719 3.484375 2.636719 C 3.480469 2.640625 3.480469 2.644531 3.480469 2.652344 L 3.480469 2.65625 L 3.476562 2.65625 L 3.472656 2.59375 L 3.476562 2.59375 L 3.476562 2.601562 C 3.476562 2.605469 3.480469 2.609375 3.484375 2.613281 C 3.484375 2.613281 3.492188 2.613281 3.5 2.613281 L 3.59375 2.609375 C 3.601562 2.609375 3.609375 2.605469 3.609375 2.605469 C 3.613281 2.601562 3.613281 2.597656 3.613281 2.59375 L 3.613281 2.585938 L 3.617188 2.585938 L 3.621094 2.640625 C 3.621094 2.65625 3.621094 2.667969 3.617188 2.675781 C 3.617188 2.679688 3.613281 2.6875 3.605469 2.695312 C 3.601562 2.699219 3.59375 2.703125 3.585938 2.703125 C 3.574219 2.707031 3.558594 2.703125 3.550781 2.691406 C 3.542969 2.679688 3.539062 2.667969 3.546875 2.652344 C 3.550781 2.640625 3.566406 2.636719 3.578125 2.636719 C 3.570312 2.628906 3.566406 2.621094 3.5625 2.609375 L 3.523438 2.640625 C 3.515625 2.648438 3.507812 2.65625 3.503906 2.660156 C 3.503906 2.664062 3.5 2.671875 3.5 2.679688 L 3.496094 2.679688 Z M 3.558594 2.753906 C 3.558594 2.753906 3.558594 2.757812 3.558594 2.757812 L 3.558594 2.761719 C 3.5625 2.773438 3.566406 2.785156 3.570312 2.789062 C 3.578125 2.796875 3.585938 2.800781 3.59375 2.800781 C 3.605469 2.800781 3.609375 2.796875 3.617188 2.789062 C 3.621094 2.785156 3.625 2.777344 3.625 2.765625 C 3.582031 2.734375 3.574219 2.675781 3.605469 2.636719 L 3.546875 2.640625 Z M 3.601562 3.054688 L 3.585938 3.101562 L 3.582031 3.101562 L 3.585938 3.097656 C 3.585938 3.097656 3.585938 3.09375 3.582031 3.089844 C 3.582031 3.085938 3.582031 3.082031 3.578125 3.078125 C 3.457031 3.082031 3.355469 2.988281 3.351562 2.863281 C 3.347656 2.742188 3.441406 2.640625 3.566406 2.636719 L 3.519531 2.585938 L 3.484375 2.578125 C 3.476562 2.578125 3.472656 2.574219 3.46875 2.578125 C 3.464844 2.578125 3.460938 2.582031 3.460938 2.589844 L 3.460938 2.59375 L 3.457031 2.59375 L 3.472656 2.53125 L 3.476562 2.535156 L 3.472656 2.539062 C 3.472656 2.542969 3.472656 2.550781 3.476562 2.550781 C 3.476562 2.554688 3.484375 2.554688 3.492188 2.558594 L 3.523438 2.566406 L 3.59375 2.542969 C 3.601562 2.542969 3.605469 2.539062 3.609375 2.539062 C 3.609375 2.539062 3.613281 2.535156 3.617188 2.53125 C 3.644531 2.828125 3.425781 3.097656 3.125 3.125 C 2.824219 3.15625 2.558594 2.9375 2.53125 2.636719 L 2.535156 2.636719 L 2.519531 2.695312 L 2.515625 2.695312 L 2.515625 2.691406 C 2.511719 2.683594 2.511719 2.675781 2.519531 2.667969 C 2.527344 2.664062 2.539062 2.664062 2.542969 2.671875 C 2.550781 2.675781 2.550781 2.6875 2.546875 2.695312 C 2.539062 2.703125 2.53125 2.703125 2.523438 2.699219 C 2.519531 2.699219 2.515625 2.699219 2.507812 2.703125 L 2.453125 2.71875 L 2.492188 2.757812 C 2.496094 2.765625 2.5 2.769531 2.503906 2.769531 C 2.507812 2.761719 2.519531 2.761719 2.523438 2.769531 C 2.53125 2.777344 2.53125 2.785156 2.523438 2.792969 L 2.527344 2.792969 Z M 3.601562 3.054688 "/>
<path style="fill-rule:nonzero;fill:rgb(58.823529%,52.941176%,49.019608%);fill-opacity:1;stroke-width:0.203;stroke-linecap:butt;stroke-linejoin:miter;stroke:rgb(0%,0%,0%);stroke-opacity:1;stroke-miterlimit:4;" d="M 122.900391 110.15625 C 123.339844 110.009766 124.21875 110.15625 124.21875 110.15625 C 124.21875 110.15625 124.365234 110.595703 124.072266 110.595703 C 124.365234 110.742188 125.244141 110.742188 125.244141 110.742188 C 125.244141 110.742188 124.951172 111.035156 124.804688 111.181641 C 125.097656 111.181641 125.537109 111.621094 125.537109 111.621094 C 125.537109 111.621094 124.658203 111.767578 124.365234 111.621094 C 124.658203 111.914062 124.511719 112.353516 124.511719 112.353516 C 124.511719 112.353516 123.339844 112.060547 122.900391 111.181641 M 120.703125 109.423828 C 120.410156 110.302734 118.212891 108.837891 118.212891 108.837891 C 118.212891 108.837891 119.238281 110.449219 120.703125 110.595703 M 93.164062 123.632812 L 119.091797 123.632812 L 120.996094 122.021484 L 117.773438 120.263672 L 112.646484 118.505859 L 110.595703 117.480469 L 106.787109 117.626953 L 103.564453 119.238281 L 99.169922 119.824219 L 98.144531 120.996094 L 94.921875 121.289062 L 89.941406 121.142578 L 98.291016 122.460938 L 91.40625 122.167969 Z M 93.164062 123.632812 " transform="matrix(0.0266667,0,0,0.0266667,0,0)"/>
<path style="fill-rule:nonzero;fill:rgb(58.823529%,52.941176%,49.019608%);fill-opacity:1;stroke-width:0.203;stroke-linecap:butt;stroke-linejoin:miter;stroke:rgb(0%,0%,0%);stroke-opacity:1;stroke-miterlimit:4;" d="M 107.080078 116.162109 C 103.857422 114.550781 102.978516 118.798828 101.513672 119.824219 C 103.417969 120.117188 104.882812 118.359375 106.494141 117.480469 C 107.666016 120.849609 109.570312 118.652344 109.570312 118.652344 C 109.570312 118.652344 111.621094 121.875 114.257812 120.410156 C 114.990234 120.996094 115.869141 120.410156 115.869141 120.410156 C 115.869141 120.410156 116.748047 120.556641 117.041016 120.117188 C 117.480469 120.410156 118.066406 119.677734 118.066406 119.677734 C 118.066406 119.677734 119.238281 119.677734 119.384766 119.091797 C 121.142578 119.384766 123.193359 115.722656 123.193359 115.722656 L 123.925781 114.550781 L 124.951172 114.257812 C 124.951172 114.257812 124.951172 113.671875 124.511719 113.671875 C 124.365234 113.232422 124.072266 113.085938 123.632812 113.085938 C 123.779297 112.939453 123.339844 112.792969 123.339844 112.792969 C 122.460938 112.939453 122.460938 115.283203 122.460938 115.283203 C 122.460938 115.283203 120.703125 116.601562 120.117188 116.894531 C 120.117188 115.576172 117.919922 113.671875 118.359375 112.792969 C 118.798828 112.060547 120.263672 114.111328 121.582031 113.818359 C 122.900391 113.378906 123.486328 111.767578 123.486328 110.449219 C 123.193359 109.570312 122.314453 108.105469 122.314453 108.105469 L 121.435547 108.105469 L 120.703125 106.347656 C 120.703125 106.347656 119.238281 107.373047 119.238281 108.251953 C 119.238281 108.984375 120.849609 109.716797 120.849609 109.716797 C 120.849609 109.716797 119.970703 110.302734 119.091797 110.009766 C 119.091797 110.888672 120.117188 110.742188 120.556641 110.742188 C 120.703125 111.474609 121.435547 111.767578 121.435547 111.767578 C 121.435547 111.767578 121.728516 112.792969 120.703125 112.646484 C 119.824219 112.5 118.505859 110.302734 117.1875 111.328125 C 115.722656 112.5 117.773438 114.550781 117.773438 114.550781 C 117.773438 114.550781 116.455078 115.136719 115.722656 116.894531 C 112.5 114.257812 110.742188 115.576172 107.080078 116.162109 Z M 107.080078 116.162109 " transform="matrix(0.0266667,0,0,0.0266667,0,0)"/>
<path style="fill-rule:nonzero;fill:rgb(58.823529%,52.941176%,49.019608%);fill-opacity:1;stroke-width:0.203;stroke-linecap:butt;stroke-linejoin:miter;stroke:rgb(0%,0%,0%);stroke-opacity:1;stroke-miterlimit:4;" d="M 102.392578 111.621094 C 103.857422 112.939453 102.832031 114.990234 103.417969 115.429688 C 104.003906 115.869141 104.736328 115.136719 104.736328 115.136719 C 106.054688 115.576172 108.544922 114.84375 108.544922 114.84375 C 109.716797 115.429688 109.277344 114.550781 110.009766 114.550781 C 110.595703 116.015625 112.5 115.722656 112.5 115.722656 C 112.5 115.722656 110.742188 113.964844 109.570312 113.378906 C 108.691406 113.964844 106.201172 113.964844 105.761719 113.964844 C 105.322266 113.818359 105.615234 113.232422 105.322266 112.939453 C 106.347656 112.060547 105.615234 109.716797 105.029297 108.984375 C 102.978516 107.666016 100.634766 109.863281 102.392578 111.621094 Z M 93.603516 107.958984 C 91.992188 108.398438 89.0625 105.761719 87.597656 106.787109 C 86.279297 107.8125 86.865234 110.302734 87.890625 111.474609 C 88.769531 112.646484 86.572266 113.085938 85.986328 113.818359 C 85.400391 114.550781 86.132812 115.283203 86.132812 115.283203 L 86.71875 115.722656 L 86.572266 116.601562 L 87.011719 117.626953 C 87.011719 117.626953 87.304688 117.919922 87.304688 117.626953 C 87.597656 117.919922 87.451172 118.652344 88.037109 118.798828 C 87.890625 118.212891 88.330078 116.894531 88.330078 116.894531 C 88.330078 116.894531 89.501953 116.894531 89.794922 116.455078 C 90.087891 115.869141 89.501953 114.697266 89.501953 114.697266 L 89.794922 114.697266 C 89.501953 114.404297 89.355469 113.671875 89.355469 113.671875 C 89.355469 113.671875 90.966797 113.085938 90.966797 111.767578 C 90.966797 110.449219 88.183594 109.130859 89.208984 108.544922 C 90.380859 107.8125 92.285156 110.449219 93.896484 109.130859 C 95.507812 107.958984 94.482422 109.130859 94.482422 109.130859 C 94.482422 109.130859 95.214844 107.519531 93.603516 107.958984 Z M 102.246094 89.941406 C 100.048828 89.0625 95.361328 88.916016 92.871094 87.744141 C 91.699219 87.744141 91.259766 88.623047 91.259766 89.0625 C 90.087891 88.916016 89.208984 90.820312 89.355469 91.113281 C 87.304688 90.380859 86.279297 93.75 87.011719 94.335938 C 85.107422 94.482422 85.400391 96.826172 85.253906 97.412109 C 84.667969 98.876953 85.400391 99.316406 86.425781 98.876953 C 86.71875 99.462891 86.425781 99.755859 85.839844 99.902344 C 89.0625 103.564453 90.820312 97.705078 93.603516 97.705078 C 97.119141 96.679688 98.4375 94.921875 98.4375 94.921875 L 99.755859 95.214844 Z M 102.246094 89.941406 " transform="matrix(0.0266667,0,0,0.0266667,0,0)"/>
<path style="fill-rule:nonzero;fill:rgb(58.823529%,52.941176%,49.019608%);fill-opacity:1;stroke-width:0.203;stroke-linecap:butt;stroke-linejoin:miter;stroke:rgb(0%,0%,0%);stroke-opacity:1;stroke-miterlimit:4;" d="M 108.398438 87.451172 C 108.398438 89.208984 106.933594 90.673828 105.175781 90.673828 C 103.271484 90.673828 101.806641 89.208984 101.806641 87.451172 C 101.806641 85.546875 103.271484 84.082031 105.175781 84.082031 C 106.933594 84.082031 108.398438 85.546875 108.398438 87.451172 Z M 108.398438 87.451172 " transform="matrix(0.0266667,0,0,0.0266667,0,0)"/>
<path style="fill-rule:nonzero;fill:rgb(58.823529%,52.941176%,49.019608%);fill-opacity:1;stroke-width:0.203;stroke-linecap:butt;stroke-linejoin:miter;stroke:rgb(0%,0%,0%);stroke-opacity:1;stroke-miterlimit:4;" d="M 99.316406 113.378906 C 97.265625 113.085938 93.896484 110.888672 93.603516 108.105469 C 95.507812 100.634766 105.322266 104.589844 106.201172 98.876953 C 105.908203 95.214844 106.640625 91.552734 108.691406 88.476562 C 109.570312 87.158203 110.888672 86.865234 110.888672 86.865234 C 110.888672 86.865234 111.035156 87.597656 110.742188 88.183594 C 112.353516 88.037109 114.550781 88.916016 116.162109 89.0625 C 116.601562 89.941406 116.601562 90.234375 116.455078 90.820312 C 116.308594 91.40625 115.722656 91.259766 115.722656 91.259766 C 115.283203 91.552734 114.84375 91.992188 113.818359 91.845703 C 112.939453 92.431641 111.328125 92.578125 111.328125 92.578125 C 111.328125 92.578125 114.84375 96.240234 114.257812 97.412109 C 114.990234 97.851562 116.015625 99.462891 116.015625 99.462891 C 116.015625 99.462891 118.505859 98.144531 119.384766 96.972656 C 120.703125 96.972656 123.046875 98.4375 124.21875 98.583984 C 125.537109 99.755859 127.001953 100.927734 127.001953 100.927734 C 127.001953 100.927734 125.390625 102.099609 124.658203 100.634766 C 123.779297 100.634766 121.728516 98.583984 119.091797 99.169922 C 119.091797 101.513672 116.455078 103.271484 116.455078 103.271484 C 116.455078 103.271484 118.945312 102.832031 120.263672 103.710938 C 105.46875 168.457031 46.875 213.720703 -19.628906 211.669922 C -85.986328 209.619141 -141.796875 160.839844 -152.490234 95.214844 C -163.330078 29.589844 -126.123047 -34.423828 -63.867188 -57.568359 C -1.464844 -80.859375 68.408203 -56.689453 103.271484 0 L 105.029297 3.076172 C 105.029297 3.076172 103.417969 3.369141 102.685547 1.171875 C 102.099609 2.929688 102.099609 0.146484 99.609375 -1.171875 C 98.876953 -1.025391 98.583984 -1.025391 97.998047 -1.464844 C 96.240234 -1.025391 94.042969 0 91.699219 -0.292969 C 89.941406 0.292969 88.623047 1.757812 86.865234 2.490234 C 85.107422 3.369141 84.521484 2.929688 84.521484 2.929688 L 83.056641 3.076172 C 82.910156 3.955078 83.056641 5.273438 82.177734 5.419922 C 82.763672 6.005859 81.884766 8.203125 81.005859 8.642578 C 81.445312 10.107422 82.617188 10.546875 83.789062 11.279297 C 83.789062 11.279297 84.960938 10.839844 85.693359 11.425781 C 86.425781 12.158203 87.158203 14.0625 87.158203 14.0625 C 87.158203 14.0625 85.693359 14.208984 85.107422 13.916016 C 84.667969 13.769531 84.667969 13.183594 84.082031 13.330078 C 80.566406 10.253906 78.808594 11.572266 78.515625 10.839844 C 78.076172 10.107422 79.248047 8.203125 78.955078 7.03125 Z M 99.316406 113.378906 " transform="matrix(0.0266667,0,0,0.0266667,0,0)"/>
<path style="fill-rule:nonzero;fill:rgb(58.823529%,52.941176%,49.019608%);fill-opacity:1;stroke-width:0.203;stroke-linecap:butt;stroke-linejoin:miter;stroke:rgb(0%,0%,0%);stroke-opacity:1;stroke-miterlimit:4;" d="M 90.966797 99.609375 C 91.113281 99.462891 92.431641 99.902344 92.431641 99.902344 L 94.775391 101.367188 L 99.462891 104.443359 L 101.074219 106.787109 L 98.144531 105.908203 L 93.896484 102.246094 L 91.699219 100.78125 C 91.699219 100.78125 90.820312 99.902344 90.966797 99.609375 Z M 118.798828 107.373047 C 117.1875 106.933594 113.232422 111.767578 113.232422 111.767578 L 116.308594 115.136719 C 116.308594 115.136719 116.308594 109.570312 118.798828 107.373047 Z M 118.798828 107.373047 " transform="matrix(0.0266667,0,0,0.0266667,0,0)"/>
<path style="fill-rule:nonzero;fill:rgb(58.823529%,52.941176%,49.019608%);fill-opacity:1;stroke-width:0.203;stroke-linecap:butt;stroke-linejoin:miter;stroke:rgb(0%,0%,0%);stroke-opacity:1;stroke-miterlimit:4;" d="M 99.023438 93.75 C 98.144531 94.921875 97.998047 97.265625 99.169922 98.144531 C 99.316406 99.462891 100.488281 102.392578 101.367188 102.539062 C 102.392578 102.832031 106.494141 103.857422 108.105469 103.564453 C 107.8125 106.201172 109.863281 108.251953 111.621094 109.570312 C 111.621094 109.863281 111.621094 110.15625 111.914062 110.302734 C 112.060547 110.595703 113.085938 110.742188 113.085938 110.595703 C 113.525391 111.181641 115.722656 111.474609 115.869141 111.181641 C 116.015625 110.888672 112.646484 108.691406 111.914062 107.958984 C 111.328125 106.787109 110.15625 104.296875 110.009766 102.246094 C 108.398438 100.341797 105.615234 100.341797 105.615234 100.341797 L 105.615234 96.679688 L 105.908203 92.431641 L 104.296875 91.699219 C 104.296875 91.699219 104.589844 91.552734 104.882812 91.259766 C 105.175781 91.552734 105.908203 90.820312 105.908203 90.527344 C 106.347656 90.673828 106.640625 90.673828 106.640625 90.527344 C 106.640625 90.380859 106.787109 89.648438 106.933594 89.208984 C 107.958984 88.183594 106.787109 86.132812 105.029297 86.132812 C 103.271484 86.132812 102.978516 88.183594 102.978516 88.330078 C 103.125 88.916016 103.125 89.208984 102.978516 89.501953 C 102.832031 89.648438 102.246094 89.941406 102.246094 89.941406 C 102.246094 89.941406 101.367188 89.501953 100.195312 89.941406 C 99.023438 90.380859 97.705078 90.966797 97.705078 91.699219 C 97.119141 91.845703 96.240234 92.431641 96.09375 93.017578 C 95.654297 93.017578 95.068359 93.310547 94.042969 94.921875 C 92.285156 95.800781 92.138672 99.462891 92.138672 99.462891 C 92.138672 99.462891 91.699219 100.195312 91.699219 100.634766 C 91.699219 100.927734 91.845703 101.367188 92.138672 101.220703 C 92.138672 101.513672 92.431641 101.660156 92.578125 101.660156 C 92.578125 101.806641 93.017578 101.953125 93.164062 101.953125 C 93.164062 102.099609 93.896484 102.099609 93.896484 101.953125 C 94.042969 101.806641 93.896484 100.927734 93.896484 100.927734 C 94.042969 100.78125 94.628906 101.220703 94.775391 101.074219 C 94.921875 101.074219 94.775391 100.634766 94.628906 100.488281 C 94.482422 100.341797 94.042969 100.195312 93.896484 99.609375 C 93.896484 99.023438 94.189453 98.144531 94.189453 98.144531 C 94.189453 98.144531 96.240234 96.679688 96.386719 95.361328 C 97.851562 95.507812 98.583984 94.335938 99.023438 93.75 Z M 99.023438 93.75 " transform="matrix(0.0266667,0,0,0.0266667,0,0)"/>
<path style="fill-rule:nonzero;fill:rgb(58.823529%,52.941176%,49.019608%);fill-opacity:1;stroke-width:0.203;stroke-linecap:butt;stroke-linejoin:miter;stroke:rgb(0%,0%,0%);stroke-opacity:1;stroke-miterlimit:4;" d="M 95.654297 88.330078 C 96.09375 87.304688 97.705078 87.451172 97.705078 87.451172 C 97.705078 87.451172 98.291016 85.839844 100.341797 86.865234 C 101.220703 86.132812 103.271484 87.011719 103.271484 87.011719 C 103.271484 87.011719 104.150391 85.986328 105.175781 86.132812 C 107.080078 86.279297 107.373047 88.183594 107.226562 88.476562 C 106.201172 88.623047 104.443359 87.597656 102.978516 87.890625 C 102.246094 88.330078 100.927734 88.769531 100.341797 89.501953 C 99.169922 89.648438 97.705078 88.330078 95.654297 88.330078 Z M 99.755859 90.087891 C 100.195312 89.794922 101.367188 89.355469 102.099609 89.941406 C 102.978516 90.820312 104.296875 91.699219 104.296875 91.699219 L 105.761719 92.285156 L 106.347656 92.724609 L 105.908203 99.462891 C 104.589844 97.998047 103.417969 97.851562 102.392578 96.240234 C 101.806641 95.507812 102.246094 93.75 101.367188 92.724609 C 100.488281 91.552734 99.462891 90.820312 99.755859 90.087891 Z M 99.755859 90.087891 " transform="matrix(0.0266667,0,0,0.0266667,0,0)"/>
<path style="fill-rule:nonzero;fill:rgb(58.823529%,52.941176%,49.019608%);fill-opacity:1;stroke-width:0.203;stroke-linecap:butt;stroke-linejoin:miter;stroke:rgb(0%,0%,0%);stroke-opacity:1;stroke-miterlimit:4;" d="M 103.271484 92.138672 C 103.271484 92.138672 104.003906 91.992188 104.150391 92.138672 C 104.443359 92.138672 104.736328 92.285156 104.736328 92.578125 C 105.029297 92.578125 105.322266 92.724609 105.322266 93.017578 C 105.46875 93.017578 105.615234 93.603516 105.615234 93.603516 L 105.322266 93.896484 C 105.322266 93.896484 105.029297 93.603516 105.029297 93.310547 C 104.882812 93.310547 104.443359 93.164062 104.443359 92.871094 C 104.003906 92.871094 103.857422 92.724609 103.857422 92.431641 C 103.564453 92.431641 103.271484 92.138672 103.271484 92.138672 Z M 103.271484 92.138672 " transform="matrix(0.0266667,0,0,0.0266667,0,0)"/>
<path style="fill-rule:nonzero;fill:rgb(58.823529%,52.941176%,49.019608%);fill-opacity:1;stroke-width:0.203;stroke-linecap:butt;stroke-linejoin:miter;stroke:rgb(0%,0%,0%);stroke-opacity:1;stroke-miterlimit:4;" d="M 109.716797 87.744141 C 109.277344 87.158203 108.544922 87.597656 108.544922 87.597656 L 106.494141 91.113281 L 105.46875 91.845703 L 105.46875 94.628906 L 106.201172 97.265625 L 105.908203 99.169922 C 105.908203 99.169922 106.933594 98.291016 107.080078 97.705078 C 107.226562 97.119141 106.640625 95.507812 106.640625 95.507812 C 106.640625 95.507812 106.054688 94.482422 106.787109 92.578125 C 107.519531 90.527344 109.277344 88.916016 109.716797 87.744141 Z M 109.716797 87.744141 " transform="matrix(0.0266667,0,0,0.0266667,0,0)"/>
<path style="fill-rule:nonzero;fill:rgb(58.823529%,52.941176%,49.019608%);fill-opacity:1;stroke-width:0.203;stroke-linecap:butt;stroke-linejoin:miter;stroke:rgb(0%,0%,0%);stroke-opacity:1;stroke-miterlimit:4;" d="M 114.697266 90.820312 C 114.697266 90.820312 111.474609 95.507812 106.347656 97.119141 C 104.882812 97.412109 105.322266 93.75 105.322266 93.75 L 105.029297 93.75 C 105.029297 93.75 104.150391 97.412109 106.201172 97.412109 C 111.474609 96.386719 115.429688 90.966797 115.429688 90.966797 Z M 116.894531 117.1875 C 116.894531 117.1875 116.455078 117.480469 115.722656 117.1875 C 115.429688 116.455078 114.550781 116.308594 114.550781 116.308594 C 114.550781 116.308594 113.964844 114.697266 113.085938 115.136719 C 112.939453 114.257812 111.914062 114.697266 111.914062 114.697266 C 111.914062 114.697266 111.914062 113.525391 110.742188 113.671875 C 111.181641 112.207031 109.130859 112.353516 109.130859 112.353516 C 109.130859 112.353516 109.130859 110.742188 106.201172 111.035156 C 112.5 108.251953 117.480469 115.429688 117.480469 115.429688 M 119.824219 117.773438 C 119.824219 117.773438 121.289062 119.384766 122.021484 119.384766 C 122.900391 119.384766 122.900391 117.773438 122.900391 117.773438 C 122.900391 117.773438 123.193359 118.505859 123.486328 118.359375 C 123.486328 118.798828 123.925781 118.945312 123.925781 118.945312 C 123.925781 118.945312 122.607422 122.021484 118.945312 119.091797 M 108.544922 118.359375 L 108.105469 120.556641 C 108.105469 120.556641 107.373047 121.142578 107.519531 121.142578 C 107.8125 121.289062 108.837891 120.996094 108.837891 120.996094 C 108.837891 120.996094 110.449219 120.849609 110.888672 120.410156 C 111.181641 121.142578 111.914062 121.142578 111.914062 121.142578 C 111.914062 121.142578 112.060547 120.849609 111.914062 120.703125 C 112.353516 120.703125 112.646484 120.556641 112.646484 120.556641 C 112.646484 120.556641 112.792969 119.970703 112.353516 119.824219 C 112.353516 119.384766 112.646484 118.945312 111.767578 118.945312 C 111.181641 119.677734 109.863281 120.263672 109.423828 120.117188 C 109.130859 119.824219 110.888672 119.091797 110.449219 118.066406 " transform="matrix(0.0266667,0,0,0.0266667,0,0)"/>
</g>
</svg>
