<?xml version="1.0" encoding="UTF-8"?>
<svg xmlns="http://www.w3.org/2000/svg" xmlns:xlink="http://www.w3.org/1999/xlink" width="24px" height="16px" viewBox="0 0 32 16" version="1.1">
<g id="surface1">
<rect x="0" y="0" width="32" height="16" style="fill:rgb(0%,47.45098%,20.392157%);fill-opacity:1;stroke:none;"/>
<path style=" stroke:none;fill-rule:nonzero;fill:rgb(100%,100%,100%);fill-opacity:1;" d="M 9.738281 0 L 22.261719 0 L 22.261719 16 L 9.738281 16 Z M 9.738281 0 "/>
<path style=" stroke:none;fill-rule:nonzero;fill:rgb(0%,47.45098%,20.392157%);fill-opacity:1;" d="M 16.117188 1.0625 C 16.085938 1.367188 16.058594 1.667969 16.03125 1.972656 C 15.929688 1.988281 15.828125 2.003906 15.722656 2.019531 C 15.722656 2.019531 15.9375 2.136719 15.976562 2.257812 C 15.980469 2.277344 15.976562 2.292969 15.96875 2.304688 C 15.96875 2.308594 15.960938 2.3125 15.957031 2.316406 C 15.898438 2.363281 15.714844 2.34375 15.714844 2.34375 C 15.714844 2.34375 15.957031 2.546875 15.976562 2.621094 C 15.976562 2.621094 15.976562 2.625 15.976562 2.625 C 15.976562 2.628906 15.976562 2.628906 15.976562 2.628906 C 15.976562 2.632812 15.972656 2.632812 15.972656 2.636719 C 15.972656 2.636719 15.96875 2.640625 15.964844 2.644531 C 15.910156 2.699219 15.640625 2.714844 15.640625 2.714844 C 15.640625 2.714844 15.9375 2.925781 15.957031 3.046875 C 15.972656 3.15625 15.960938 3.21875 15.957031 3.230469 C 15.9375 3.210938 15.457031 2.808594 15.144531 2.925781 C 15.128906 2.933594 15.121094 2.941406 15.117188 2.949219 C 15.117188 2.953125 15.113281 2.957031 15.117188 2.960938 C 15.136719 3.027344 15.574219 3.097656 15.882812 3.363281 C 15.875 3.429688 15.011719 3.152344 14.976562 3.324219 C 15.003906 3.375 15.90625 3.503906 15.976562 3.621094 C 15.640625 3.632812 14.957031 3.546875 14.976562 3.65625 C 14.910156 3.785156 15.628906 3.710938 15.929688 3.816406 C 16.015625 3.914062 16.007812 4 15.855469 4.011719 C 15.5625 3.871094 14.914062 3.769531 14.914062 3.945312 C 14.914062 3.945312 14.914062 3.949219 14.914062 3.949219 C 14.914062 3.949219 14.917969 3.953125 14.917969 3.953125 C 14.992188 3.988281 15.597656 3.972656 15.824219 4.121094 C 15.503906 4.195312 14.40625 3.972656 14.402344 4.082031 C 14.433594 4.132812 14.605469 4.351562 14.902344 4.34375 C 15.203125 4.335938 15.890625 4.464844 15.9375 4.558594 C 15.941406 4.558594 15.941406 4.5625 15.941406 4.566406 C 15.917969 4.628906 15.03125 4.367188 14.6875 4.527344 C 14.335938 4.695312 15.703125 4.59375 15.929688 4.796875 C 16.152344 5.003906 15.480469 4.78125 15.480469 4.78125 C 15.480469 4.78125 14.550781 4.648438 14.410156 4.714844 C 14.269531 4.78125 14.113281 4.929688 14.113281 4.929688 C 14.113281 4.929688 14.203125 5.113281 14.296875 5.078125 C 14.3125 5.070312 14.320312 5.070312 14.328125 5.070312 C 14.328125 5.074219 14.328125 5.074219 14.328125 5.074219 C 14.328125 5.074219 14.332031 5.074219 14.332031 5.074219 C 14.332031 5.074219 14.332031 5.078125 14.332031 5.078125 C 14.335938 5.105469 14.269531 5.1875 14.269531 5.1875 C 14.269531 5.1875 15.574219 5.503906 15.863281 5.78125 C 16.152344 6.058594 14.203125 5.34375 14.203125 5.34375 C 14.203125 5.34375 13.421875 5.632812 14.25 5.652344 C 14.160156 5.785156 14.289062 5.867188 14.296875 5.871094 C 14.296875 5.871094 15.675781 6.160156 15.816406 6.382812 C 15.957031 6.605469 14.875 6.167969 14.632812 6.050781 C 14.398438 5.933594 13.75 6.109375 13.710938 6.164062 C 13.710938 6.164062 13.710938 6.167969 13.710938 6.167969 C 13.710938 6.167969 13.710938 6.171875 13.710938 6.171875 C 13.710938 6.175781 13.714844 6.175781 13.714844 6.175781 C 13.757812 6.222656 14.046875 6.285156 14.054688 6.363281 C 14.054688 6.363281 14.054688 6.367188 14.054688 6.367188 C 14.054688 6.371094 14.054688 6.375 14.050781 6.378906 C 14.015625 6.449219 13.667969 6.480469 13.65625 6.546875 C 13.65625 6.546875 13.652344 6.546875 13.652344 6.550781 C 13.652344 6.625 15.398438 6.984375 15.863281 7.375 C 16.328125 7.765625 14.492188 6.910156 14.492188 6.910156 C 14.492188 6.910156 14.597656 7.050781 14.492188 7.085938 C 14.390625 7.125 14.027344 6.566406 13.429688 6.910156 C 13.320312 7.050781 13.953125 7.164062 14.113281 7.179688 C 14.058594 7.320312 14.007812 7.367188 14.234375 7.503906 C 14.257812 7.519531 14.269531 7.527344 14.277344 7.535156 C 14.277344 7.535156 14.277344 7.539062 14.277344 7.539062 C 14.242188 7.53125 13.839844 7.328125 13.796875 7.320312 C 13.796875 7.320312 13.792969 7.320312 13.792969 7.320312 C 13.792969 7.335938 13.839844 7.558594 13.839844 7.558594 C 13.632812 7.394531 13.386719 7.34375 13.152344 7.511719 C 13.152344 7.523438 13.148438 7.683594 13.382812 7.78125 C 13.25 8.050781 13.535156 7.96875 13.980469 8.21875 C 13.316406 8.046875 13.261719 8.367188 13.738281 8.441406 C 14.214844 8.515625 15.519531 8.5625 15.828125 8.960938 C 15.890625 9.042969 15.910156 9.085938 15.894531 9.097656 C 15.84375 9.144531 15.371094 8.804688 15.304688 8.792969 C 15.304688 8.792969 15.300781 8.792969 15.300781 8.792969 C 15.300781 8.796875 15.300781 8.796875 15.300781 8.800781 C 15.28125 8.835938 15.265625 8.996094 15.265625 8.996094 C 15.066406 8.882812 14.886719 8.777344 14.648438 8.730469 C 14.628906 8.769531 14.632812 8.820312 14.613281 8.859375 C 14.398438 8.703125 14.210938 8.59375 13.898438 8.578125 C 13.882812 8.628906 13.871094 8.679688 13.859375 8.726562 C 13.859375 8.726562 13.597656 8.402344 13.085938 8.726562 C 12.800781 8.933594 14.167969 8.800781 14.390625 9.042969 C 14.613281 9.285156 14.4375 9.320312 14.4375 9.320312 C 14.25 9.253906 14.066406 9.183594 13.878906 9.117188 C 13.878906 9.117188 13.214844 8.996094 13.03125 9.144531 C 12.84375 9.292969 15.75 9.652344 15.835938 10.050781 C 15.890625 10.269531 15.152344 9.828125 14.511719 9.636719 C 14.488281 9.707031 14.460938 9.777344 14.4375 9.847656 C 14.421875 9.832031 14.175781 9.59375 13.898438 9.550781 C 13.898438 9.554688 13.894531 9.554688 13.894531 9.554688 C 13.894531 9.585938 13.953125 9.804688 13.953125 9.804688 C 13.953125 9.804688 13.234375 9.46875 12.871094 9.644531 C 12.507812 9.820312 14.140625 9.914062 14.289062 10.082031 C 14.304688 10.097656 14.3125 10.113281 14.3125 10.121094 C 14.308594 10.121094 14.308594 10.125 14.308594 10.125 C 14.273438 10.179688 13.785156 9.984375 13.738281 10.082031 C 13.683594 10.191406 12.890625 9.878906 12.898438 10.027344 C 12.910156 10.171875 13.011719 10.257812 13.011719 10.257812 C 13.011719 10.257812 14.660156 10.414062 14.71875 10.609375 C 14.773438 10.804688 13.804688 10.5 13.804688 10.5 C 13.804688 10.5 13.710938 10.636719 13.785156 10.703125 C 13.789062 10.703125 13.789062 10.707031 13.789062 10.707031 C 13.757812 10.699219 13.230469 10.355469 13.28125 10.617188 C 13.078125 10.535156 12.546875 10.285156 12.621094 10.480469 C 12.695312 10.671875 14.078125 10.945312 14.117188 10.953125 C 14.082031 10.953125 13.496094 11.003906 13.523438 11.15625 C 12.738281 10.679688 12.742188 10.964844 12.757812 10.988281 C 12.714844 10.980469 11.75 10.742188 12.515625 11.15625 C 12.929688 11.378906 13.027344 11.464844 13.03125 11.496094 C 13.03125 11.496094 13.03125 11.5 13.03125 11.5 C 13.03125 11.5 13.03125 11.503906 13.03125 11.503906 C 13.03125 11.503906 13.027344 11.503906 13.027344 11.503906 C 13.027344 11.503906 13.027344 11.503906 13.027344 11.507812 C 13.027344 11.507812 13.023438 11.507812 13.023438 11.507812 C 13.023438 11.507812 13.023438 11.511719 13.023438 11.511719 C 13.007812 11.519531 12.96875 11.515625 12.957031 11.515625 C 12.957031 11.515625 12.953125 11.515625 12.953125 11.515625 L 12.957031 11.519531 C 12.96875 11.535156 13.027344 11.699219 13.023438 11.726562 C 13.023438 11.726562 13.023438 11.726562 13.023438 11.730469 C 13.023438 11.730469 13.019531 11.730469 13.019531 11.730469 C 12.984375 11.722656 12.476562 11.453125 12.304688 11.433594 C 12.125 11.414062 11.289062 11.664062 12.183594 12.054688 C 13.078125 12.445312 13.625 11.960938 14.121094 12.015625 C 14.613281 12.074219 14.847656 12.15625 14.800781 12.3125 C 14.753906 12.472656 14.296875 11.796875 13.8125 12.378906 C 13.265625 12.273438 12.894531 12.210938 13.175781 12.609375 C 12.28125 12.277344 11.734375 12.710938 12.863281 12.886719 C 13.96875 12.921875 14.652344 12.621094 14.652344 12.621094 C 14.652344 12.621094 14.839844 12.964844 15.109375 12.722656 C 15.367188 12.492188 15.386719 12.785156 15.394531 12.8125 C 15.394531 12.8125 15.398438 12.8125 15.398438 12.8125 C 15.398438 12.8125 15.398438 12.816406 15.398438 12.816406 C 15.417969 12.808594 15.65625 12.703125 15.65625 12.703125 C 15.679688 12.703125 15.703125 12.703125 15.722656 12.703125 L 15.722656 14.925781 C 16.023438 14.929688 16.324219 14.933594 16.628906 14.9375 C 16.628906 14.9375 16.339844 13 16.496094 12.742188 C 16.648438 12.488281 16.796875 12.515625 16.804688 12.519531 C 16.804688 12.519531 17.390625 12.695312 17.457031 12.667969 C 17.457031 12.664062 17.460938 12.664062 17.460938 12.664062 C 17.464844 12.664062 17.464844 12.660156 17.464844 12.660156 C 17.464844 12.660156 17.46875 12.660156 17.46875 12.660156 C 17.515625 12.617188 17.464844 12.445312 17.765625 12.472656 C 17.855469 12.4375 17.820312 12.292969 17.878906 12.257812 C 17.882812 12.257812 17.882812 12.253906 17.886719 12.253906 C 17.886719 12.253906 17.890625 12.253906 17.894531 12.25 C 17.894531 12.25 17.902344 12.25 17.90625 12.25 C 18 12.242188 19.796875 12.75 20.1875 12.269531 C 20.085938 12 19.730469 12.25 19.636719 12.257812 C 19.554688 12.257812 19.199219 12.09375 18.996094 12.257812 C 18.808594 12.121094 17.960938 12.027344 17.960938 12.027344 C 17.847656 11.917969 19.984375 12.082031 20.105469 12 C 20.355469 11.75 19.636719 11.777344 19.527344 11.859375 C 19.328125 11.738281 19.078125 11.75 18.925781 11.832031 C 18.851562 11.660156 18.160156 11.734375 17.773438 11.683594 C 17.652344 11.613281 17.671875 11.570312 17.753906 11.527344 C 18.558594 11.558594 19.359375 11.664062 20.167969 11.628906 C 20.386719 11.34375 19.894531 11.238281 19.589844 11.480469 C 19.414062 11.191406 19.050781 11.46875 18.808594 11.441406 C 18.566406 11.414062 18.679688 11.117188 18.984375 11.164062 C 19.292969 11.210938 19.84375 11.144531 19.945312 11.007812 C 20.046875 10.867188 19.882812 10.726562 19.378906 10.859375 C 19.207031 10.691406 18.828125 10.859375 18.652344 10.914062 C 18.414062 10.785156 17.867188 10.898438 17.679688 10.941406 C 17.496094 10.832031 18.640625 10.644531 18.640625 10.644531 C 19.082031 10.636719 19.332031 10.5625 19.46875 10.527344 C 20.136719 10.171875 19.460938 10.132812 19.109375 10.390625 C 18.894531 10.222656 18.6875 10.40625 18.492188 10.46875 C 18.308594 10.53125 17.96875 10.574219 17.925781 10.558594 C 17.925781 10.554688 17.925781 10.554688 17.925781 10.554688 L 17.921875 10.554688 C 17.921875 10.554688 17.921875 10.554688 17.921875 10.550781 C 17.921875 10.550781 17.925781 10.550781 17.925781 10.550781 C 17.953125 10.507812 18.453125 10.203125 18.453125 10.203125 C 18.453125 10.203125 19.105469 10.15625 19.238281 10.136719 C 19.316406 10.125 19.59375 9.992188 19.59375 9.945312 C 19.59375 9.914062 19.476562 9.917969 19.125 10.007812 C 18.808594 10.035156 18.621094 10.015625 18.5 10.027344 C 18.304688 10.003906 18.222656 9.984375 18.207031 9.96875 C 18.207031 9.964844 18.207031 9.964844 18.207031 9.964844 C 18.203125 9.960938 18.203125 9.957031 18.207031 9.953125 C 18.207031 9.953125 18.210938 9.953125 18.210938 9.949219 C 18.257812 9.914062 18.566406 9.886719 18.566406 9.886719 C 18.566406 9.886719 19.507812 9.800781 19.570312 9.75 C 19.570312 9.75 19.570312 9.75 19.570312 9.746094 C 19.574219 9.746094 19.574219 9.746094 19.574219 9.746094 C 19.59375 9.363281 18.773438 9.539062 18.753906 9.542969 C 18.753906 9.273438 18.015625 9.539062 17.980469 9.542969 C 17.945312 9.523438 17.933594 9.503906 17.929688 9.488281 C 17.929688 9.480469 17.929688 9.472656 17.933594 9.464844 C 17.949219 9.410156 18.0625 9.367188 18.0625 9.367188 C 18.269531 9.316406 18.574219 9.304688 18.65625 9.238281 C 18.65625 9.238281 19.234375 9.234375 19.300781 9.078125 C 19.160156 8.691406 18.078125 9.148438 17.933594 9.21875 C 17.902344 9.21875 17.886719 9.210938 17.875 9.199219 C 17.828125 9.128906 18.0625 8.902344 18.070312 8.894531 C 18.070312 8.894531 18.074219 8.894531 18.074219 8.894531 C 18.109375 8.882812 18.972656 8.839844 19.386719 8.28125 C 19.414062 7.9375 18.890625 8.476562 18.890625 8.476562 C 18.851562 8.03125 18.324219 8.503906 18.015625 8.542969 C 17.707031 8.578125 17.699219 8.402344 17.914062 8.375 C 18.128906 8.347656 18.371094 8.367188 18.492188 8.042969 C 18.613281 7.71875 18.976562 8.0625 19.042969 7.941406 C 19.105469 7.824219 18.921875 7.722656 18.910156 7.71875 C 18.910156 7.71875 19.183594 7.4375 18.742188 7.449219 C 18.308594 7.457031 17.75 7.394531 17.738281 7.394531 C 17.765625 7.382812 18.207031 7.21875 18.621094 7.226562 C 19.050781 7.234375 18.816406 6.921875 18.40625 6.921875 C 17.996094 6.921875 17.785156 6.78125 17.785156 6.78125 C 18.015625 6.695312 18.25 6.609375 18.484375 6.523438 C 18.46875 6.457031 18.453125 6.390625 18.4375 6.328125 C 18.4375 6.328125 18.847656 6.003906 18.269531 6.078125 C 17.691406 6.152344 17.625 6.160156 17.625 6.160156 C 17.625 6.160156 16.488281 6.332031 16.460938 6.335938 C 16.449219 6.335938 16.335938 6.300781 16.316406 6.257812 C 16.3125 6.253906 16.3125 6.253906 16.3125 6.253906 C 16.3125 6.25 16.3125 6.246094 16.3125 6.246094 C 16.3125 6.242188 16.3125 6.242188 16.3125 6.238281 C 16.316406 6.214844 16.351562 6.191406 16.441406 6.167969 C 16.738281 6.09375 17.792969 5.882812 17.953125 5.9375 C 17.972656 5.945312 17.988281 5.945312 17.996094 5.9375 C 18.054688 5.882812 17.859375 5.542969 17.371094 5.492188 C 16.8125 5.4375 16.46875 5.632812 16.46875 5.632812 C 16.46875 5.632812 16.105469 5.503906 16.441406 5.390625 C 16.777344 5.28125 17.308594 5.429688 17.308594 5.429688 C 17.308594 5.429688 17.90625 5.253906 17.410156 5.179688 C 16.917969 5.105469 16.761719 5.246094 16.535156 5.253906 C 16.445312 5.140625 17.308594 5.113281 17.363281 5.019531 C 17.273438 4.855469 16.738281 5.019531 16.421875 5.019531 C 16.289062 4.964844 16.28125 4.871094 16.433594 4.816406 C 16.753906 4.804688 17.054688 4.824219 17.371094 4.8125 C 17.363281 4.640625 17.375 4.4375 17.363281 4.269531 C 16.957031 4.195312 16.480469 4.324219 16.253906 4.3125 C 16.316406 4.128906 17.191406 4.078125 17.289062 4.027344 C 17.492188 3.777344 16.449219 4.023438 16.421875 4.027344 C 16.238281 4 16.25 3.886719 16.367188 3.816406 C 16.636719 3.785156 17.242188 3.855469 17.195312 3.671875 C 17.160156 3.503906 16.777344 3.59375 16.617188 3.628906 C 16.460938 3.667969 16.226562 3.640625 16.226562 3.640625 C 16.125 3.503906 17.140625 3.558594 17.132812 3.453125 C 17.117188 3.335938 16.488281 3.417969 16.273438 3.425781 C 16.109375 3.3125 17.046875 3.238281 17.09375 3.222656 C 17.128906 2.914062 16.441406 3.222656 16.3125 3.222656 C 16.289062 3.222656 16.269531 3.214844 16.257812 3.207031 C 16.257812 3.203125 16.253906 3.203125 16.25 3.199219 C 16.207031 3.148438 16.246094 3.027344 16.246094 3.027344 C 16.246094 3.027344 16.492188 2.917969 16.507812 2.890625 C 16.507812 2.890625 16.507812 2.886719 16.507812 2.886719 C 16.503906 2.886719 16.503906 2.886719 16.503906 2.886719 C 16.472656 2.863281 16.304688 2.808594 16.285156 2.804688 C 16.285156 2.804688 16.28125 2.804688 16.28125 2.804688 C 16.28125 2.804688 16.28125 2.804688 16.277344 2.804688 C 16.265625 2.777344 16.28125 2.59375 16.28125 2.59375 C 16.28125 2.59375 16.476562 2.449219 16.488281 2.390625 C 16.488281 2.390625 16.488281 2.390625 16.488281 2.386719 C 16.488281 2.386719 16.488281 2.386719 16.488281 2.382812 C 16.488281 2.378906 16.488281 2.378906 16.488281 2.378906 C 16.488281 2.375 16.484375 2.375 16.484375 2.375 C 16.484375 2.371094 16.480469 2.371094 16.480469 2.371094 C 16.429688 2.347656 16.226562 2.417969 16.226562 2.417969 C 16.226562 2.355469 16.226562 2.292969 16.226562 2.230469 C 16.226562 2.230469 16.402344 2.210938 16.421875 2.128906 C 16.425781 2.125 16.421875 2.117188 16.421875 2.113281 C 16.421875 2.113281 16.421875 2.109375 16.421875 2.109375 C 16.421875 2.105469 16.417969 2.101562 16.417969 2.097656 C 16.417969 2.097656 16.414062 2.097656 16.414062 2.09375 C 16.375 2.042969 16.207031 2.035156 16.207031 2.035156 C 16.175781 1.710938 16.144531 1.386719 16.117188 1.0625 Z M 15.949219 4.242188 L 15.949219 4.367188 C 15.949219 4.367188 15.742188 4.355469 15.703125 4.324219 C 15.703125 4.324219 15.699219 4.324219 15.699219 4.324219 C 15.699219 4.324219 15.699219 4.320312 15.699219 4.320312 C 15.699219 4.320312 15.695312 4.320312 15.695312 4.320312 C 15.695312 4.320312 15.695312 4.316406 15.695312 4.316406 C 15.695312 4.316406 15.695312 4.3125 15.695312 4.3125 C 15.695312 4.3125 15.695312 4.308594 15.695312 4.308594 C 15.695312 4.308594 15.699219 4.308594 15.699219 4.308594 C 15.699219 4.308594 15.699219 4.304688 15.699219 4.304688 C 15.699219 4.304688 15.703125 4.300781 15.703125 4.300781 C 15.703125 4.300781 15.707031 4.300781 15.707031 4.296875 C 15.777344 4.25 15.917969 4.25 15.945312 4.242188 C 15.945312 4.242188 15.949219 4.242188 15.949219 4.242188 Z M 16.246094 4.410156 C 16.253906 4.410156 16.664062 4.414062 16.699219 4.464844 C 16.699219 4.46875 16.699219 4.46875 16.699219 4.46875 C 16.699219 4.46875 16.699219 4.472656 16.699219 4.472656 C 16.699219 4.472656 16.699219 4.476562 16.699219 4.476562 C 16.699219 4.476562 16.699219 4.480469 16.699219 4.480469 C 16.667969 4.546875 16.253906 4.585938 16.253906 4.585938 Z M 16.222656 4.664062 C 16.222656 4.664062 16.222656 4.664062 16.226562 4.664062 C 16.25 4.667969 16.417969 4.675781 16.4375 4.703125 C 16.4375 4.703125 16.441406 4.703125 16.441406 4.703125 C 16.441406 4.707031 16.441406 4.707031 16.441406 4.707031 C 16.441406 4.707031 16.441406 4.707031 16.441406 4.710938 C 16.441406 4.710938 16.441406 4.710938 16.441406 4.714844 C 16.441406 4.714844 16.441406 4.714844 16.4375 4.714844 C 16.4375 4.714844 16.4375 4.71875 16.4375 4.71875 C 16.402344 4.757812 16.246094 4.769531 16.238281 4.769531 C 16.230469 4.753906 16.222656 4.664062 16.222656 4.664062 Z M 14.976562 5 C 15.109375 4.992188 15.375 5.023438 15.871094 5.160156 C 15.871094 5.171875 15.882812 5.296875 15.878906 5.320312 C 15.878906 5.320312 15.875 5.320312 15.875 5.320312 C 15.875 5.320312 15.875 5.324219 15.875 5.324219 C 15.867188 5.320312 14.96875 5.0625 14.886719 5.066406 C 14.886719 5.066406 14.882812 5.066406 14.882812 5.066406 C 14.878906 5.066406 14.875 5.066406 14.875 5.066406 C 14.871094 5.066406 14.871094 5.0625 14.867188 5.0625 C 14.867188 5.0625 14.867188 5.0625 14.863281 5.0625 C 14.863281 5.0625 14.863281 5.058594 14.863281 5.058594 C 14.859375 5.058594 14.859375 5.054688 14.855469 5.054688 C 14.855469 5.054688 14.855469 5.050781 14.855469 5.050781 C 14.855469 5.046875 14.855469 5.046875 14.855469 5.046875 C 14.855469 5.046875 14.855469 5.042969 14.855469 5.042969 C 14.855469 5.039062 14.855469 5.039062 14.855469 5.039062 C 14.855469 5.035156 14.859375 5.03125 14.859375 5.027344 C 14.875 5.015625 14.910156 5.003906 14.976562 5 Z M 15.441406 5.378906 C 15.582031 5.371094 15.925781 5.453125 15.945312 5.449219 C 15.945312 5.476562 15.960938 5.605469 15.945312 5.632812 C 15.941406 5.632812 15.941406 5.632812 15.941406 5.632812 C 15.941406 5.632812 15.941406 5.636719 15.941406 5.636719 C 15.941406 5.636719 15.9375 5.636719 15.9375 5.636719 C 15.9375 5.636719 15.9375 5.636719 15.933594 5.636719 C 15.90625 5.628906 15.398438 5.46875 15.378906 5.402344 C 15.378906 5.402344 15.378906 5.402344 15.378906 5.398438 C 15.378906 5.398438 15.382812 5.394531 15.382812 5.394531 C 15.382812 5.394531 15.382812 5.390625 15.382812 5.390625 C 15.382812 5.390625 15.386719 5.390625 15.386719 5.390625 C 15.394531 5.382812 15.414062 5.378906 15.441406 5.378906 Z M 16.847656 5.730469 C 16.984375 5.726562 17.082031 5.738281 17.046875 5.78125 C 16.949219 5.894531 16.273438 5.984375 16.273438 5.984375 L 16.261719 5.78125 C 16.277344 5.777344 16.621094 5.734375 16.847656 5.730469 Z M 14.917969 6.371094 C 15.035156 6.363281 15.300781 6.425781 15.894531 6.675781 L 15.898438 6.824219 C 15.898438 6.824219 14.890625 6.519531 14.855469 6.46875 C 14.839844 6.445312 14.808594 6.375 14.917969 6.371094 Z M 16.890625 6.589844 C 16.921875 6.589844 16.945312 6.589844 16.949219 6.597656 C 16.953125 6.597656 16.953125 6.601562 16.953125 6.601562 C 16.953125 6.605469 16.953125 6.605469 16.953125 6.605469 C 16.953125 6.609375 16.949219 6.617188 16.945312 6.621094 C 16.851562 6.726562 16.347656 6.832031 16.347656 6.832031 C 16.347656 6.832031 16.347656 6.699219 16.347656 6.695312 C 16.371094 6.695312 16.742188 6.597656 16.890625 6.589844 Z M 14.683594 6.609375 C 14.835938 6.601562 15.171875 6.679688 15.933594 7.039062 C 15.933594 7.042969 15.941406 7.164062 15.9375 7.175781 C 15.890625 7.164062 14.570312 6.699219 14.570312 6.699219 C 14.566406 6.695312 14.546875 6.617188 14.683594 6.609375 Z M 17.203125 7.1875 C 17.242188 7.183594 17.269531 7.1875 17.273438 7.195312 C 17.273438 7.199219 17.273438 7.199219 17.273438 7.199219 C 17.273438 7.203125 17.269531 7.210938 17.265625 7.214844 C 17.144531 7.324219 16.378906 7.453125 16.351562 7.457031 C 16.351562 7.457031 16.347656 7.457031 16.347656 7.457031 C 16.347656 7.453125 16.347656 7.453125 16.347656 7.453125 C 16.347656 7.453125 16.347656 7.449219 16.347656 7.449219 C 16.34375 7.425781 16.359375 7.335938 16.359375 7.324219 C 16.363281 7.324219 16.363281 7.324219 16.363281 7.324219 C 16.410156 7.324219 16.996094 7.195312 17.203125 7.1875 Z M 14.953125 7.523438 C 15.183594 7.511719 15.871094 7.828125 15.90625 7.835938 C 15.902344 7.851562 15.902344 7.964844 15.898438 7.980469 C 15.898438 7.984375 15.898438 7.984375 15.898438 7.984375 C 15.878906 7.972656 14.933594 7.585938 14.890625 7.613281 C 14.867188 7.554688 14.894531 7.527344 14.953125 7.523438 Z M 16.988281 7.605469 C 17.035156 7.605469 17.070312 7.605469 17.082031 7.613281 C 17.082031 7.613281 17.085938 7.613281 17.085938 7.613281 C 17.085938 7.617188 17.085938 7.617188 17.085938 7.617188 C 17.085938 7.617188 17.085938 7.617188 17.085938 7.621094 C 17.082031 7.621094 17.082031 7.621094 17.082031 7.625 C 17.011719 7.683594 16.359375 7.8125 16.359375 7.8125 C 16.359375 7.8125 16.355469 7.691406 16.355469 7.679688 C 16.375 7.675781 16.796875 7.613281 16.988281 7.605469 Z M 16.9375 8.023438 C 16.984375 8.019531 17.015625 8.023438 17.023438 8.03125 C 17.023438 8.03125 17.023438 8.035156 17.023438 8.035156 C 17.023438 8.035156 17.023438 8.039062 17.023438 8.039062 C 17.023438 8.039062 17.023438 8.039062 17.019531 8.042969 C 16.949219 8.105469 16.394531 8.222656 16.394531 8.222656 C 16.394531 8.222656 16.378906 8.089844 16.378906 8.085938 C 16.394531 8.085938 16.765625 8.027344 16.9375 8.023438 Z M 14.605469 8.054688 C 14.738281 8.046875 15.066406 8.101562 15.882812 8.394531 L 15.910156 8.554688 C 15.910156 8.554688 14.550781 8.117188 14.515625 8.105469 C 14.515625 8.101562 14.515625 8.101562 14.515625 8.097656 C 14.515625 8.09375 14.515625 8.089844 14.519531 8.082031 C 14.53125 8.070312 14.550781 8.058594 14.605469 8.054688 Z M 16.394531 8.398438 C 16.410156 8.402344 16.636719 8.410156 16.679688 8.445312 C 16.679688 8.445312 16.683594 8.449219 16.683594 8.449219 C 16.683594 8.453125 16.683594 8.453125 16.683594 8.453125 C 16.683594 8.453125 16.6875 8.453125 16.6875 8.457031 C 16.6875 8.457031 16.6875 8.457031 16.6875 8.460938 C 16.6875 8.460938 16.683594 8.460938 16.683594 8.460938 C 16.683594 8.460938 16.683594 8.464844 16.683594 8.464844 C 16.648438 8.519531 16.410156 8.539062 16.410156 8.539062 C 16.410156 8.539062 16.398438 8.433594 16.394531 8.398438 Z M 16.945312 8.710938 C 17 8.707031 17.035156 8.714844 17.042969 8.730469 C 17.046875 8.738281 17.039062 8.753906 17.015625 8.777344 C 16.820312 8.933594 16.394531 8.964844 16.394531 8.964844 L 16.394531 8.792969 C 16.417969 8.789062 16.769531 8.714844 16.945312 8.710938 Z M 17.484375 8.871094 C 17.554688 8.871094 17.582031 8.882812 17.589844 8.898438 C 17.59375 8.898438 17.59375 8.898438 17.59375 8.902344 C 17.59375 8.90625 17.59375 8.90625 17.59375 8.910156 C 17.59375 8.929688 17.570312 8.953125 17.554688 8.96875 C 17.488281 9.03125 16.429688 9.367188 16.429688 9.367188 C 16.429688 9.367188 16.421875 9.144531 16.425781 9.125 C 17.042969 8.9375 17.347656 8.878906 17.484375 8.871094 Z M 16.800781 9.5 C 16.871094 9.496094 16.921875 9.5 16.9375 9.515625 C 16.9375 9.515625 16.941406 9.519531 16.941406 9.519531 C 16.941406 9.519531 16.941406 9.523438 16.941406 9.523438 C 16.941406 9.523438 16.941406 9.523438 16.941406 9.527344 C 16.941406 9.527344 16.941406 9.527344 16.941406 9.53125 C 16.941406 9.535156 16.9375 9.539062 16.9375 9.539062 C 16.847656 9.628906 16.40625 9.640625 16.40625 9.640625 L 16.40625 9.53125 C 16.488281 9.53125 16.671875 9.503906 16.800781 9.5 Z M 17.242188 9.679688 C 17.261719 9.679688 17.277344 9.679688 17.277344 9.6875 C 17.277344 9.695312 17.269531 9.703125 17.257812 9.710938 C 17.082031 9.835938 16.421875 9.964844 16.421875 9.964844 C 16.421875 9.964844 16.429688 9.875 16.433594 9.855469 C 16.453125 9.855469 17.085938 9.683594 17.242188 9.679688 Z M 17.613281 9.816406 C 17.691406 9.816406 17.75 9.828125 17.785156 9.851562 C 17.785156 9.855469 17.785156 9.855469 17.785156 9.855469 C 17.78125 9.878906 17.730469 9.992188 17.558594 10.042969 C 17.339844 10.023438 16.421875 10.292969 16.402344 10.296875 C 16.402344 10.277344 16.414062 10.183594 16.414062 10.183594 C 16.730469 9.996094 17.308594 9.820312 17.613281 9.816406 Z M 15.257812 10.347656 C 15.257812 10.347656 15.261719 10.347656 15.261719 10.347656 C 15.660156 10.390625 15.808594 10.539062 15.851562 10.597656 C 15.773438 10.734375 15.144531 10.425781 15.210938 10.359375 C 15.214844 10.351562 15.230469 10.347656 15.257812 10.347656 Z M 17.539062 10.375 C 17.554688 10.371094 17.566406 10.375 17.578125 10.382812 C 17.582031 10.386719 17.585938 10.390625 17.589844 10.394531 C 17.59375 10.398438 17.597656 10.40625 17.597656 10.417969 C 17.554688 10.480469 17.339844 10.453125 17.328125 10.453125 C 17.335938 10.449219 17.460938 10.375 17.539062 10.375 Z M 16.683594 10.804688 C 16.714844 10.804688 16.738281 10.804688 16.753906 10.8125 C 16.753906 10.816406 16.757812 10.816406 16.757812 10.816406 C 16.757812 10.820312 16.757812 10.820312 16.761719 10.820312 C 16.761719 10.820312 16.761719 10.824219 16.761719 10.824219 C 16.765625 10.832031 16.765625 10.84375 16.757812 10.855469 C 16.695312 10.972656 16.421875 10.929688 16.421875 10.929688 L 16.421875 10.847656 C 16.4375 10.847656 16.589844 10.808594 16.683594 10.804688 Z M 15.074219 11.109375 C 15.160156 11.105469 15.230469 11.160156 15.308594 11.207031 C 15.480469 11.171875 15.832031 11.234375 15.832031 11.234375 L 15.832031 11.386719 C 15.800781 11.394531 15.386719 11.375 15.292969 11.316406 C 15.21875 11.316406 15.003906 11.207031 14.988281 11.148438 C 14.988281 11.144531 14.988281 11.144531 14.988281 11.144531 C 14.988281 11.144531 14.988281 11.140625 14.988281 11.140625 C 14.988281 11.136719 14.988281 11.136719 14.988281 11.136719 C 15.019531 11.121094 15.046875 11.113281 15.074219 11.109375 Z M 16.878906 11.1875 C 16.945312 11.183594 16.972656 11.203125 16.921875 11.273438 C 16.78125 11.472656 16.417969 11.390625 16.417969 11.390625 L 16.402344 11.269531 C 16.53125 11.273438 16.765625 11.195312 16.878906 11.1875 Z M 15.523438 11.589844 C 15.667969 11.582031 15.828125 11.640625 15.828125 11.640625 C 15.832031 11.648438 15.90625 11.792969 15.839844 11.84375 C 15.839844 11.847656 15.835938 11.847656 15.832031 11.847656 C 15.75 11.890625 15.359375 11.816406 15.335938 11.660156 C 15.382812 11.609375 15.449219 11.59375 15.523438 11.589844 Z M 14.007812 11.664062 C 14.140625 11.65625 14.292969 11.738281 14.308594 11.746094 C 14.308594 11.746094 14.308594 11.746094 14.3125 11.746094 C 14.3125 11.753906 14.304688 11.894531 14.304688 11.894531 C 14.304688 11.894531 14.039062 11.824219 13.957031 11.675781 C 13.972656 11.667969 13.992188 11.667969 14.007812 11.664062 Z M 16.566406 11.683594 C 16.714844 11.683594 16.898438 11.71875 16.921875 11.769531 C 16.929688 11.78125 16.925781 11.792969 16.917969 11.804688 C 16.84375 11.890625 16.421875 11.8125 16.421875 11.8125 L 16.421875 11.703125 C 16.460938 11.691406 16.511719 11.6875 16.566406 11.683594 Z M 16.566406 11.683594 "/>
</g>
</svg>
