<?xml version="1.0" encoding="UTF-8"?>
<svg xmlns="http://www.w3.org/2000/svg" xmlns:xlink="http://www.w3.org/1999/xlink" width="24px" height="16px" viewBox="0 0 32 16" version="1.1">
<g id="surface1">
<rect x="0" y="0" width="32" height="16" style="fill:rgb(0%,16.862745%,49.803922%);fill-opacity:1;stroke:none;"/>
<path style=" stroke:none;fill-rule:nonzero;fill:rgb(100%,77.647059%,11.764706%);fill-opacity:1;" d="M 0 7.332031 L 32 7.332031 L 32 8.667969 L 0 8.667969 Z M 0 7.332031 "/>
<path style=" stroke:none;fill-rule:nonzero;fill:rgb(100%,100%,100%);fill-opacity:1;" d="M 8 14 L 7.65625 12.621094 L 6.667969 13.644531 L 7.058594 12.277344 L 5.691406 12.667969 L 6.710938 11.679688 L 5.332031 11.332031 L 6.710938 10.988281 L 5.691406 10 L 7.058594 10.390625 L 6.667969 9.023438 L 7.65625 10.046875 L 8 8.667969 L 8.34375 10.046875 L 9.332031 9.023438 L 8.941406 10.390625 L 10.308594 10 L 9.289062 10.988281 L 10.667969 11.332031 L 9.289062 11.679688 L 10.308594 12.667969 L 8.941406 12.277344 L 9.332031 13.644531 L 8.34375 12.621094 Z M 8 14 "/>
</g>
</svg>
