<?xml version="1.0" encoding="UTF-8"?>
<svg xmlns="http://www.w3.org/2000/svg" xmlns:xlink="http://www.w3.org/1999/xlink" width="24px" height="16px" viewBox="0 0 32 16" version="1.1">
<defs>
<clipPath id="clip1">
  <path d="M 0 0 L 16 0 L 16 8 L 0 8 Z M 0 0 "/>
</clipPath>
<clipPath id="clip2">
  <path d="M 0 0 L 16 0 L 16 8 L 0 8 Z M 0 0 "/>
</clipPath>
<clipPath id="clip3">
  <path d="M 0 0 L 8 4 L 0 4 Z M 8 0 L 16 0 L 8 4 Z M 8 4 L 16 4 L 16 8 Z M 8 4 L 8 8 L 0 8 Z M 8 4 "/>
</clipPath>
<clipPath id="clip4">
  <path d="M 0 0 L 16 0 L 16 8 L 0 8 Z M 0 0 "/>
</clipPath>
<clipPath id="clip5">
  <path d="M 0 0 L 16 0 L 16 8 L 0 8 Z M 0 0 "/>
</clipPath>
</defs>
<g id="surface1">
<rect x="0" y="0" width="32" height="16" style="fill:rgb(0.392157%,12.941176%,41.176471%);fill-opacity:1;stroke:none;"/>
<path style=" stroke:none;fill-rule:nonzero;fill:rgb(0%,0%,0%);fill-opacity:1;" d="M 0 0 L 16 8 M 0 8 L 16 0 "/>
<g clip-path="url(#clip1)" clip-rule="nonzero">
<path style="fill:none;stroke-width:60;stroke-linecap:butt;stroke-linejoin:miter;stroke:rgb(100%,100%,100%);stroke-opacity:1;stroke-miterlimit:4;" d="M 0 0 L 600 300 M 0 300 L 600 0 " transform="matrix(0.0266667,0,0,0.0266667,0,0)"/>
</g>
<g clip-path="url(#clip2)" clip-rule="nonzero">
<g clip-path="url(#clip3)" clip-rule="nonzero">
<path style="fill-rule:nonzero;fill:rgb(0%,0%,0%);fill-opacity:1;stroke-width:40;stroke-linecap:butt;stroke-linejoin:miter;stroke:rgb(78.431373%,6.27451%,18.039216%);stroke-opacity:1;stroke-miterlimit:4;" d="M 0 0 L 600 300 M 0 300 L 600 0 " transform="matrix(0.0266667,0,0,0.0266667,0,0)"/>
</g>
</g>
<path style=" stroke:none;fill-rule:nonzero;fill:rgb(0%,0%,0%);fill-opacity:1;" d="M 8 0 L 8 8 M 0 4 L 16 4 "/>
<g clip-path="url(#clip4)" clip-rule="nonzero">
<path style="fill:none;stroke-width:100;stroke-linecap:butt;stroke-linejoin:miter;stroke:rgb(100%,100%,100%);stroke-opacity:1;stroke-miterlimit:4;" d="M 300 0 L 300 300 M 0 150 L 600 150 " transform="matrix(0.0266667,0,0,0.0266667,0,0)"/>
</g>
<path style=" stroke:none;fill-rule:nonzero;fill:rgb(0%,0%,0%);fill-opacity:1;" d="M 8 0 L 8 8 M 0 4 L 16 4 "/>
<g clip-path="url(#clip5)" clip-rule="nonzero">
<path style="fill:none;stroke-width:60;stroke-linecap:butt;stroke-linejoin:miter;stroke:rgb(78.431373%,6.27451%,18.039216%);stroke-opacity:1;stroke-miterlimit:4;" d="M 300 0 L 300 300 M 0 150 L 600 150 " transform="matrix(0.0266667,0,0,0.0266667,0,0)"/>
</g>
<path style=" stroke:none;fill-rule:nonzero;fill:rgb(100%,100%,100%);fill-opacity:1;" d="M 24 2.804688 L 24 3.410156 L 25.210938 2.804688 Z M 24 2.804688 "/>
<path style=" stroke:none;fill-rule:nonzero;fill:rgb(100%,100%,100%);fill-opacity:1;" d="M 24.230469 3.519531 L 23.875 3.027344 L 25.210938 2.808594 Z M 24.230469 3.519531 "/>
<path style=" stroke:none;fill-rule:nonzero;fill:rgb(100%,100%,100%);fill-opacity:1;" d="M 24 2.804688 L 24 3.410156 L 22.789062 2.804688 Z M 24 2.804688 "/>
<path style=" stroke:none;fill-rule:nonzero;fill:rgb(100%,100%,100%);fill-opacity:1;" d="M 23.769531 3.519531 L 24.125 3.027344 L 22.789062 2.808594 Z M 23.769531 3.519531 "/>
<path style=" stroke:none;fill-rule:nonzero;fill:rgb(100%,100%,100%);fill-opacity:1;" d="M 24.375 3.078125 L 23.796875 3.265625 L 24.75 4.230469 Z M 24.375 3.078125 "/>
<path style=" stroke:none;fill-rule:nonzero;fill:rgb(100%,100%,100%);fill-opacity:1;" d="M 23.769531 3.519531 L 24.125 3.027344 L 24.746094 4.230469 Z M 23.769531 3.519531 "/>
<path style=" stroke:none;fill-rule:nonzero;fill:rgb(100%,100%,100%);fill-opacity:1;" d="M 23.625 3.078125 L 24.203125 3.265625 L 24 1.925781 Z M 23.625 3.078125 "/>
<path style=" stroke:none;fill-rule:nonzero;fill:rgb(100%,100%,100%);fill-opacity:1;" d="M 24.375 3.078125 L 23.796875 3.265625 L 24 1.925781 Z M 24.375 3.078125 "/>
<path style=" stroke:none;fill-rule:nonzero;fill:rgb(100%,100%,100%);fill-opacity:1;" d="M 23.625 3.078125 L 24.203125 3.265625 L 23.25 4.230469 Z M 23.625 3.078125 "/>
<path style=" stroke:none;fill-rule:nonzero;fill:rgb(100%,100%,100%);fill-opacity:1;" d="M 24.230469 3.519531 L 23.875 3.027344 L 23.253906 4.230469 Z M 24.230469 3.519531 "/>
<path style=" stroke:none;fill-rule:nonzero;fill:rgb(78.431373%,6.27451%,18.039216%);fill-opacity:1;" d="M 24 2.941406 L 24 3.339844 L 24.800781 2.941406 Z M 24 2.941406 "/>
<path style=" stroke:none;fill-rule:nonzero;fill:rgb(78.431373%,6.27451%,18.039216%);fill-opacity:1;" d="M 24.152344 3.410156 L 23.917969 3.085938 L 24.800781 2.941406 Z M 24.152344 3.410156 "/>
<path style=" stroke:none;fill-rule:nonzero;fill:rgb(78.431373%,6.27451%,18.039216%);fill-opacity:1;" d="M 24 2.941406 L 24 3.339844 L 23.199219 2.941406 Z M 24 2.941406 "/>
<path style=" stroke:none;fill-rule:nonzero;fill:rgb(78.431373%,6.27451%,18.039216%);fill-opacity:1;" d="M 23.847656 3.410156 L 24.082031 3.085938 L 23.199219 2.941406 Z M 23.847656 3.410156 "/>
<path style=" stroke:none;fill-rule:nonzero;fill:rgb(78.431373%,6.27451%,18.039216%);fill-opacity:1;" d="M 24.246094 3.121094 L 23.867188 3.242188 L 24.496094 3.878906 Z M 24.246094 3.121094 "/>
<path style=" stroke:none;fill-rule:nonzero;fill:rgb(78.431373%,6.27451%,18.039216%);fill-opacity:1;" d="M 23.847656 3.410156 L 24.082031 3.085938 L 24.496094 3.878906 Z M 23.847656 3.410156 "/>
<path style=" stroke:none;fill-rule:nonzero;fill:rgb(78.431373%,6.27451%,18.039216%);fill-opacity:1;" d="M 23.753906 3.121094 L 24.132812 3.242188 L 24 2.359375 Z M 23.753906 3.121094 "/>
<path style=" stroke:none;fill-rule:nonzero;fill:rgb(78.431373%,6.27451%,18.039216%);fill-opacity:1;" d="M 24.246094 3.121094 L 23.867188 3.242188 L 24 2.359375 Z M 24.246094 3.121094 "/>
<path style=" stroke:none;fill-rule:nonzero;fill:rgb(78.431373%,6.27451%,18.039216%);fill-opacity:1;" d="M 23.753906 3.121094 L 24.132812 3.242188 L 23.503906 3.878906 Z M 23.753906 3.121094 "/>
<path style=" stroke:none;fill-rule:nonzero;fill:rgb(78.431373%,6.27451%,18.039216%);fill-opacity:1;" d="M 24.152344 3.410156 L 23.917969 3.085938 L 23.503906 3.878906 Z M 24.152344 3.410156 "/>
<path style=" stroke:none;fill-rule:nonzero;fill:rgb(100%,100%,100%);fill-opacity:1;" d="M 27.167969 5.605469 L 27.167969 6.144531 L 28.246094 5.605469 Z M 27.167969 5.605469 "/>
<path style=" stroke:none;fill-rule:nonzero;fill:rgb(100%,100%,100%);fill-opacity:1;" d="M 27.375 6.238281 L 27.058594 5.800781 L 28.246094 5.605469 Z M 27.375 6.238281 "/>
<path style=" stroke:none;fill-rule:nonzero;fill:rgb(100%,100%,100%);fill-opacity:1;" d="M 27.167969 5.605469 L 27.167969 6.144531 L 26.089844 5.605469 Z M 27.167969 5.605469 "/>
<path style=" stroke:none;fill-rule:nonzero;fill:rgb(100%,100%,100%);fill-opacity:1;" d="M 26.964844 6.238281 L 27.28125 5.800781 L 26.09375 5.605469 Z M 26.964844 6.238281 "/>
<path style=" stroke:none;fill-rule:nonzero;fill:rgb(100%,100%,100%);fill-opacity:1;" d="M 27.5 5.847656 L 26.988281 6.011719 L 27.835938 6.871094 Z M 27.5 5.847656 "/>
<path style=" stroke:none;fill-rule:nonzero;fill:rgb(100%,100%,100%);fill-opacity:1;" d="M 26.964844 6.238281 L 27.28125 5.800781 L 27.835938 6.871094 Z M 26.964844 6.238281 "/>
<path style=" stroke:none;fill-rule:nonzero;fill:rgb(100%,100%,100%);fill-opacity:1;" d="M 26.835938 5.847656 L 27.347656 6.011719 L 27.167969 4.820312 Z M 26.835938 5.847656 "/>
<path style=" stroke:none;fill-rule:nonzero;fill:rgb(100%,100%,100%);fill-opacity:1;" d="M 27.5 5.847656 L 26.988281 6.011719 L 27.167969 4.820312 Z M 27.5 5.847656 "/>
<path style=" stroke:none;fill-rule:nonzero;fill:rgb(100%,100%,100%);fill-opacity:1;" d="M 26.835938 5.847656 L 27.347656 6.011719 L 26.503906 6.871094 Z M 26.835938 5.847656 "/>
<path style=" stroke:none;fill-rule:nonzero;fill:rgb(100%,100%,100%);fill-opacity:1;" d="M 27.375 6.238281 L 27.058594 5.800781 L 26.503906 6.871094 Z M 27.375 6.238281 "/>
<path style=" stroke:none;fill-rule:nonzero;fill:rgb(78.431373%,6.27451%,18.039216%);fill-opacity:1;" d="M 27.167969 5.738281 L 27.167969 6.070312 L 27.835938 5.738281 Z M 27.167969 5.738281 "/>
<path style=" stroke:none;fill-rule:nonzero;fill:rgb(78.431373%,6.27451%,18.039216%);fill-opacity:1;" d="M 27.296875 6.128906 L 27.101562 5.859375 L 27.835938 5.738281 Z M 27.296875 6.128906 "/>
<path style=" stroke:none;fill-rule:nonzero;fill:rgb(78.431373%,6.27451%,18.039216%);fill-opacity:1;" d="M 27.167969 5.738281 L 27.167969 6.070312 L 26.503906 5.738281 Z M 27.167969 5.738281 "/>
<path style=" stroke:none;fill-rule:nonzero;fill:rgb(78.431373%,6.27451%,18.039216%);fill-opacity:1;" d="M 27.042969 6.128906 L 27.238281 5.859375 L 26.503906 5.738281 Z M 27.042969 6.128906 "/>
<path style=" stroke:none;fill-rule:nonzero;fill:rgb(78.431373%,6.27451%,18.039216%);fill-opacity:1;" d="M 27.375 5.886719 L 27.058594 5.992188 L 27.582031 6.523438 Z M 27.375 5.886719 "/>
<path style=" stroke:none;fill-rule:nonzero;fill:rgb(78.431373%,6.27451%,18.039216%);fill-opacity:1;" d="M 27.042969 6.128906 L 27.238281 5.859375 L 27.582031 6.523438 Z M 27.042969 6.128906 "/>
<path style=" stroke:none;fill-rule:nonzero;fill:rgb(78.431373%,6.27451%,18.039216%);fill-opacity:1;" d="M 26.960938 5.886719 L 27.28125 5.992188 L 27.167969 5.253906 Z M 26.960938 5.886719 "/>
<path style=" stroke:none;fill-rule:nonzero;fill:rgb(78.431373%,6.27451%,18.039216%);fill-opacity:1;" d="M 27.375 5.886719 L 27.058594 5.992188 L 27.167969 5.253906 Z M 27.375 5.886719 "/>
<path style=" stroke:none;fill-rule:nonzero;fill:rgb(78.431373%,6.27451%,18.039216%);fill-opacity:1;" d="M 26.960938 5.886719 L 27.28125 5.992188 L 26.757812 6.523438 Z M 26.960938 5.886719 "/>
<path style=" stroke:none;fill-rule:nonzero;fill:rgb(78.431373%,6.27451%,18.039216%);fill-opacity:1;" d="M 27.296875 6.128906 L 27.101562 5.859375 L 26.757812 6.523438 Z M 27.296875 6.128906 "/>
<path style=" stroke:none;fill-rule:nonzero;fill:rgb(100%,100%,100%);fill-opacity:1;" d="M 20.304688 6.527344 L 20.304688 7.132812 L 21.511719 6.527344 Z M 20.304688 6.527344 "/>
<path style=" stroke:none;fill-rule:nonzero;fill:rgb(100%,100%,100%);fill-opacity:1;" d="M 20.535156 7.238281 L 20.179688 6.75 L 21.511719 6.527344 Z M 20.535156 7.238281 "/>
<path style=" stroke:none;fill-rule:nonzero;fill:rgb(100%,100%,100%);fill-opacity:1;" d="M 20.304688 6.527344 L 20.304688 7.132812 L 19.09375 6.527344 Z M 20.304688 6.527344 "/>
<path style=" stroke:none;fill-rule:nonzero;fill:rgb(100%,100%,100%);fill-opacity:1;" d="M 20.070312 7.238281 L 20.429688 6.75 L 19.09375 6.527344 Z M 20.070312 7.238281 "/>
<path style=" stroke:none;fill-rule:nonzero;fill:rgb(100%,100%,100%);fill-opacity:1;" d="M 20.675781 6.796875 L 20.101562 6.984375 L 21.050781 7.949219 Z M 20.675781 6.796875 "/>
<path style=" stroke:none;fill-rule:nonzero;fill:rgb(100%,100%,100%);fill-opacity:1;" d="M 20.070312 7.238281 L 20.425781 6.746094 L 21.050781 7.949219 Z M 20.070312 7.238281 "/>
<path style=" stroke:none;fill-rule:nonzero;fill:rgb(100%,100%,100%);fill-opacity:1;" d="M 19.929688 6.796875 L 20.503906 6.984375 L 20.304688 5.648438 Z M 19.929688 6.796875 "/>
<path style=" stroke:none;fill-rule:nonzero;fill:rgb(100%,100%,100%);fill-opacity:1;" d="M 20.675781 6.796875 L 20.101562 6.984375 L 20.304688 5.648438 Z M 20.675781 6.796875 "/>
<path style=" stroke:none;fill-rule:nonzero;fill:rgb(100%,100%,100%);fill-opacity:1;" d="M 19.929688 6.796875 L 20.503906 6.984375 L 19.554688 7.949219 Z M 19.929688 6.796875 "/>
<path style=" stroke:none;fill-rule:nonzero;fill:rgb(100%,100%,100%);fill-opacity:1;" d="M 20.535156 7.238281 L 20.179688 6.746094 L 19.554688 7.949219 Z M 20.535156 7.238281 "/>
<path style=" stroke:none;fill-rule:nonzero;fill:rgb(78.431373%,6.27451%,18.039216%);fill-opacity:1;" d="M 20.304688 6.660156 L 20.304688 7.058594 L 21.101562 6.660156 Z M 20.304688 6.660156 "/>
<path style=" stroke:none;fill-rule:nonzero;fill:rgb(78.431373%,6.27451%,18.039216%);fill-opacity:1;" d="M 20.457031 7.128906 L 20.21875 6.804688 L 21.101562 6.660156 Z M 20.457031 7.128906 "/>
<path style=" stroke:none;fill-rule:nonzero;fill:rgb(78.431373%,6.27451%,18.039216%);fill-opacity:1;" d="M 20.304688 6.660156 L 20.304688 7.058594 L 19.503906 6.660156 Z M 20.304688 6.660156 "/>
<path style=" stroke:none;fill-rule:nonzero;fill:rgb(78.431373%,6.27451%,18.039216%);fill-opacity:1;" d="M 20.152344 7.128906 L 20.386719 6.804688 L 19.503906 6.660156 Z M 20.152344 7.128906 "/>
<path style=" stroke:none;fill-rule:nonzero;fill:rgb(78.431373%,6.27451%,18.039216%);fill-opacity:1;" d="M 20.550781 6.839844 L 20.167969 6.960938 L 20.796875 7.601562 Z M 20.550781 6.839844 "/>
<path style=" stroke:none;fill-rule:nonzero;fill:rgb(78.431373%,6.27451%,18.039216%);fill-opacity:1;" d="M 20.148438 7.128906 L 20.386719 6.804688 L 20.796875 7.601562 Z M 20.148438 7.128906 "/>
<path style=" stroke:none;fill-rule:nonzero;fill:rgb(78.431373%,6.27451%,18.039216%);fill-opacity:1;" d="M 20.054688 6.839844 L 20.4375 6.960938 L 20.304688 6.078125 Z M 20.054688 6.839844 "/>
<path style=" stroke:none;fill-rule:nonzero;fill:rgb(78.431373%,6.27451%,18.039216%);fill-opacity:1;" d="M 20.550781 6.839844 L 20.167969 6.964844 L 20.304688 6.078125 Z M 20.550781 6.839844 "/>
<path style=" stroke:none;fill-rule:nonzero;fill:rgb(78.431373%,6.27451%,18.039216%);fill-opacity:1;" d="M 20.054688 6.839844 L 20.4375 6.960938 L 19.808594 7.601562 Z M 20.054688 6.839844 "/>
<path style=" stroke:none;fill-rule:nonzero;fill:rgb(78.431373%,6.27451%,18.039216%);fill-opacity:1;" d="M 20.457031 7.128906 L 20.222656 6.804688 L 19.808594 7.601562 Z M 20.457031 7.128906 "/>
<path style=" stroke:none;fill-rule:nonzero;fill:rgb(100%,100%,100%);fill-opacity:1;" d="M 24 12.363281 L 24 13.035156 L 25.34375 12.363281 Z M 24 12.363281 "/>
<path style=" stroke:none;fill-rule:nonzero;fill:rgb(100%,100%,100%);fill-opacity:1;" d="M 24.257812 13.152344 L 23.859375 12.609375 L 25.34375 12.363281 Z M 24.257812 13.152344 "/>
<path style=" stroke:none;fill-rule:nonzero;fill:rgb(100%,100%,100%);fill-opacity:1;" d="M 24 12.363281 L 24 13.035156 L 22.65625 12.363281 Z M 24 12.363281 "/>
<path style=" stroke:none;fill-rule:nonzero;fill:rgb(100%,100%,100%);fill-opacity:1;" d="M 23.742188 13.152344 L 24.140625 12.609375 L 22.65625 12.363281 Z M 23.742188 13.152344 "/>
<path style=" stroke:none;fill-rule:nonzero;fill:rgb(100%,100%,100%);fill-opacity:1;" d="M 24.414062 12.664062 L 23.777344 12.871094 L 24.832031 13.941406 Z M 24.414062 12.664062 "/>
<path style=" stroke:none;fill-rule:nonzero;fill:rgb(100%,100%,100%);fill-opacity:1;" d="M 23.742188 13.152344 L 24.136719 12.609375 L 24.832031 13.941406 Z M 23.742188 13.152344 "/>
<path style=" stroke:none;fill-rule:nonzero;fill:rgb(100%,100%,100%);fill-opacity:1;" d="M 23.585938 12.664062 L 24.222656 12.871094 L 24 11.386719 Z M 23.585938 12.664062 "/>
<path style=" stroke:none;fill-rule:nonzero;fill:rgb(100%,100%,100%);fill-opacity:1;" d="M 24.414062 12.664062 L 23.777344 12.875 L 24 11.386719 Z M 24.414062 12.664062 "/>
<path style=" stroke:none;fill-rule:nonzero;fill:rgb(100%,100%,100%);fill-opacity:1;" d="M 23.585938 12.664062 L 24.222656 12.871094 L 23.167969 13.941406 Z M 23.585938 12.664062 "/>
<path style=" stroke:none;fill-rule:nonzero;fill:rgb(100%,100%,100%);fill-opacity:1;" d="M 24.257812 13.152344 L 23.863281 12.609375 L 23.167969 13.941406 Z M 24.257812 13.152344 "/>
<path style=" stroke:none;fill-rule:nonzero;fill:rgb(78.431373%,6.27451%,18.039216%);fill-opacity:1;" d="M 24 12.496094 L 24 12.964844 L 24.933594 12.496094 Z M 24 12.496094 "/>
<path style=" stroke:none;fill-rule:nonzero;fill:rgb(78.431373%,6.27451%,18.039216%);fill-opacity:1;" d="M 24.179688 13.046875 L 23.902344 12.667969 L 24.933594 12.496094 Z M 24.179688 13.046875 "/>
<path style=" stroke:none;fill-rule:nonzero;fill:rgb(78.431373%,6.27451%,18.039216%);fill-opacity:1;" d="M 24 12.496094 L 24 12.964844 L 23.066406 12.496094 Z M 24 12.496094 "/>
<path style=" stroke:none;fill-rule:nonzero;fill:rgb(78.431373%,6.27451%,18.039216%);fill-opacity:1;" d="M 23.820312 13.046875 L 24.097656 12.667969 L 23.066406 12.496094 Z M 23.820312 13.046875 "/>
<path style=" stroke:none;fill-rule:nonzero;fill:rgb(78.431373%,6.27451%,18.039216%);fill-opacity:1;" d="M 24.289062 12.707031 L 23.84375 12.851562 L 24.578125 13.59375 Z M 24.289062 12.707031 "/>
<path style=" stroke:none;fill-rule:nonzero;fill:rgb(78.431373%,6.27451%,18.039216%);fill-opacity:1;" d="M 23.820312 13.046875 L 24.097656 12.667969 L 24.578125 13.59375 Z M 23.820312 13.046875 "/>
<path style=" stroke:none;fill-rule:nonzero;fill:rgb(78.431373%,6.27451%,18.039216%);fill-opacity:1;" d="M 23.710938 12.707031 L 24.15625 12.851562 L 24 11.820312 Z M 23.710938 12.707031 "/>
<path style=" stroke:none;fill-rule:nonzero;fill:rgb(78.431373%,6.27451%,18.039216%);fill-opacity:1;" d="M 24.289062 12.707031 L 23.84375 12.851562 L 24 11.820312 Z M 24.289062 12.707031 "/>
<path style=" stroke:none;fill-rule:nonzero;fill:rgb(78.431373%,6.27451%,18.039216%);fill-opacity:1;" d="M 23.710938 12.707031 L 24.15625 12.851562 L 23.421875 13.59375 Z M 23.710938 12.707031 "/>
<path style=" stroke:none;fill-rule:nonzero;fill:rgb(78.431373%,6.27451%,18.039216%);fill-opacity:1;" d="M 24.179688 13.046875 L 23.902344 12.667969 L 23.421875 13.59375 Z M 24.179688 13.046875 "/>
</g>
</svg>
