<?xml version="1.0" encoding="UTF-8"?>
<svg xmlns="http://www.w3.org/2000/svg" xmlns:xlink="http://www.w3.org/1999/xlink" width="24px" height="16px" viewBox="0 0 32 16" version="1.1">
<g id="surface1">
<rect x="0" y="0" width="32" height="16" style="fill:rgb(85.882353%,8.627451%,10.588235%);fill-opacity:1;stroke:none;"/>
<path style=" stroke:none;fill-rule:nonzero;fill:rgb(100%,100%,100%);fill-opacity:1;" d="M 8 0 L 32 0 L 32 5.332031 L 8 5.332031 Z M 8 0 "/>
<path style=" stroke:none;fill-rule:nonzero;fill:rgb(0%,50.196078%,0%);fill-opacity:1;" d="M 8 10.667969 L 32 10.667969 L 32 16 L 8 16 Z M 8 10.667969 "/>
<path style="fill-rule:evenodd;fill:rgb(100%,100%,100%);fill-opacity:1;stroke-width:0.378;stroke-linecap:butt;stroke-linejoin:miter;stroke:rgb(85.882353%,8.627451%,10.588235%);stroke-opacity:1;stroke-miterlimit:4;" d="M 69.140625 102.685547 L 101.367188 102.685547 C 103.125 102.685547 104.589844 104.003906 104.589844 105.615234 L 104.589844 120.849609 C 104.589844 122.460938 103.125 123.925781 101.367188 123.925781 L 69.140625 123.925781 C 67.236328 123.925781 65.917969 122.460938 65.917969 120.849609 L 65.917969 105.615234 C 65.917969 104.003906 67.236328 102.685547 69.140625 102.685547 Z M 69.140625 102.685547 " transform="matrix(0.0266667,0,0,0.0266667,0,0)"/>
<path style="fill-rule:evenodd;fill:rgb(100%,100%,100%);fill-opacity:1;stroke-width:0.352;stroke-linecap:butt;stroke-linejoin:miter;stroke:rgb(85.882353%,8.627451%,10.588235%);stroke-opacity:1;stroke-miterlimit:4;" d="M 69.873047 103.564453 L 100.488281 103.564453 C 102.099609 103.564453 103.564453 104.736328 103.564453 106.347656 L 103.564453 120.263672 C 103.564453 121.728516 102.099609 122.900391 100.488281 122.900391 L 69.873047 122.900391 C 68.261719 122.900391 66.796875 121.728516 66.796875 120.263672 L 66.796875 106.347656 C 66.796875 104.736328 68.261719 103.564453 69.873047 103.564453 Z M 69.873047 103.564453 " transform="matrix(0.0266667,0,0,0.0266667,0,0)"/>
<path style="fill-rule:evenodd;fill:rgb(100%,100%,100%);fill-opacity:1;stroke-width:0.222;stroke-linecap:butt;stroke-linejoin:miter;stroke:rgb(85.882353%,8.627451%,10.588235%);stroke-opacity:1;stroke-miterlimit:4;" d="M 83.935547 108.837891 L 85.693359 108.837891 L 85.839844 109.716797 L 87.304688 110.449219 L 88.476562 109.570312 L 89.941406 110.302734 L 88.623047 111.181641 L 88.916016 112.353516 L 90.673828 112.207031 L 90.673828 113.818359 L 89.355469 113.671875 L 88.623047 114.697266 L 90.087891 115.869141 L 88.916016 116.748047 L 87.744141 115.722656 L 85.839844 116.162109 L 85.986328 117.480469 L 83.935547 117.626953 L 83.642578 116.308594 L 82.03125 115.576172 L 81.005859 116.601562 L 79.541016 115.869141 L 80.419922 114.697266 L 79.394531 114.111328 L 78.076172 114.111328 L 77.929688 112.060547 L 79.394531 112.207031 L 80.419922 111.035156 L 79.248047 110.15625 L 80.712891 109.130859 L 81.738281 109.863281 L 83.642578 109.716797 Z M 83.935547 108.837891 " transform="matrix(0.0266667,0,0,0.0266667,0,0)"/>
<path style="fill-rule:evenodd;fill:rgb(100%,100%,100%);fill-opacity:1;stroke-width:1.333;stroke-linecap:butt;stroke-linejoin:miter;stroke:rgb(85.882353%,8.627451%,10.588235%);stroke-opacity:1;stroke-miterlimit:4;" d="M 80.390192 427.168593 C 80.390192 421.315907 74.822864 417.135417 69.255535 417.135417 C 62.892873 417.135417 58.120877 421.315907 58.120877 427.168593 C 58.120877 432.185181 62.892873 436.365671 69.255535 436.365671 C 74.822864 436.365671 80.390192 432.185181 80.390192 427.168593 Z M 80.390192 427.168593 " transform="matrix(0.00491147,0,0,0.004672,1.91376,1.019893)"/>
<path style="fill-rule:evenodd;fill:rgb(100%,100%,100%);fill-opacity:1;stroke-width:0.352;stroke-linecap:butt;stroke-linejoin:miter;stroke:rgb(85.882353%,8.627451%,10.588235%);stroke-opacity:1;stroke-miterlimit:4;" d="M 71.777344 104.443359 L 68.847656 107.080078 M 73.828125 104.443359 L 70.751953 107.080078 M 75.732422 104.443359 L 72.802734 107.080078 M 77.783203 104.443359 L 74.707031 107.080078 M 79.6875 104.443359 L 76.757812 107.080078 M 81.738281 104.443359 L 78.808594 107.080078 M 83.642578 104.443359 L 80.712891 107.080078 M 85.693359 104.443359 L 82.763672 107.080078 M 87.597656 104.443359 L 84.667969 107.080078 M 89.648438 104.443359 L 86.71875 107.080078 M 91.699219 104.443359 L 88.623047 107.080078 M 93.603516 104.443359 L 90.673828 107.080078 M 85.693359 104.443359 L 82.763672 107.080078 M 95.654297 104.443359 L 92.578125 107.080078 M 97.558594 104.443359 L 94.628906 107.080078 M 99.609375 104.443359 L 96.533203 107.080078 M 101.513672 104.443359 L 98.583984 107.080078 M 98.583984 104.443359 L 101.513672 107.080078 M 96.533203 104.443359 L 99.609375 107.080078 M 94.628906 104.443359 L 97.558594 107.080078 M 92.578125 104.443359 L 95.654297 107.080078 M 90.673828 104.443359 L 93.603516 107.080078 M 88.623047 104.443359 L 91.699219 107.080078 M 86.71875 104.443359 L 89.648438 107.080078 M 84.667969 104.443359 L 87.597656 107.080078 M 82.763672 104.443359 L 85.693359 107.080078 M 80.712891 104.443359 L 83.642578 107.080078 M 78.808594 104.443359 L 81.738281 107.080078 M 76.757812 104.443359 L 79.6875 107.080078 M 84.667969 104.443359 L 87.597656 107.080078 M 74.707031 104.443359 L 77.783203 107.080078 M 72.802734 104.443359 L 75.732422 107.080078 M 70.751953 104.443359 L 73.828125 107.080078 M 68.847656 104.443359 L 71.777344 107.080078 M 71.777344 119.384766 L 68.847656 122.021484 M 73.828125 119.384766 L 70.751953 122.021484 M 75.732422 119.384766 L 72.802734 122.021484 M 77.783203 119.384766 L 74.707031 122.021484 M 79.6875 119.384766 L 76.757812 122.021484 M 81.738281 119.384766 L 78.808594 122.021484 M 83.642578 119.384766 L 80.712891 122.021484 M 85.693359 119.384766 L 82.763672 122.021484 M 87.597656 119.384766 L 84.667969 122.021484 M 89.648438 119.384766 L 86.71875 122.021484 M 91.699219 119.384766 L 88.623047 122.021484 M 93.603516 119.384766 L 90.673828 122.021484 M 85.693359 119.384766 L 82.763672 122.021484 M 95.654297 119.384766 L 92.578125 122.021484 M 97.558594 119.384766 L 94.628906 122.021484 M 99.609375 119.384766 L 96.533203 122.021484 M 101.513672 119.384766 L 98.583984 122.021484 M 98.583984 119.384766 L 101.513672 122.021484 M 96.533203 119.384766 L 99.609375 122.021484 M 94.628906 119.384766 L 97.558594 122.021484 M 92.578125 119.384766 L 95.654297 122.021484 M 90.673828 119.384766 L 93.603516 122.021484 M 88.623047 119.384766 L 91.699219 122.021484 M 86.71875 119.384766 L 89.648438 122.021484 M 84.667969 119.384766 L 87.597656 122.021484 M 82.763672 119.384766 L 85.693359 122.021484 M 80.712891 119.384766 L 83.642578 122.021484 M 78.808594 119.384766 L 81.738281 122.021484 M 76.757812 119.384766 L 79.6875 122.021484 M 84.667969 119.384766 L 87.597656 122.021484 M 74.707031 119.384766 L 77.783203 122.021484 M 72.802734 119.384766 L 75.732422 122.021484 M 70.751953 119.384766 L 73.828125 122.021484 M 68.847656 119.384766 L 71.777344 122.021484 " transform="matrix(0.0266667,0,0,0.0266667,0,0)"/>
<path style="fill-rule:evenodd;fill:rgb(100%,100%,100%);fill-opacity:1;stroke-width:0.378;stroke-linecap:butt;stroke-linejoin:miter;stroke:rgb(85.882353%,8.627451%,10.588235%);stroke-opacity:1;stroke-miterlimit:4;" d="M 69.140625 102.685547 L 101.367188 102.685547 C 103.125 102.685547 104.589844 104.003906 104.589844 105.615234 L 104.589844 120.849609 C 104.589844 122.460938 103.125 123.925781 101.367188 123.925781 L 69.140625 123.925781 C 67.236328 123.925781 65.917969 122.460938 65.917969 120.849609 L 65.917969 105.615234 C 65.917969 104.003906 67.236328 102.685547 69.140625 102.685547 Z M 69.140625 102.685547 " transform="matrix(-0.0266667,0,0,0.0266667,8,0)"/>
<path style="fill-rule:evenodd;fill:rgb(100%,100%,100%);fill-opacity:1;stroke-width:0.352;stroke-linecap:butt;stroke-linejoin:miter;stroke:rgb(85.882353%,8.627451%,10.588235%);stroke-opacity:1;stroke-miterlimit:4;" d="M 69.873047 103.564453 L 100.488281 103.564453 C 102.099609 103.564453 103.564453 104.736328 103.564453 106.347656 L 103.564453 120.263672 C 103.564453 121.728516 102.099609 122.900391 100.488281 122.900391 L 69.873047 122.900391 C 68.261719 122.900391 66.796875 121.728516 66.796875 120.263672 L 66.796875 106.347656 C 66.796875 104.736328 68.261719 103.564453 69.873047 103.564453 Z M 69.873047 103.564453 " transform="matrix(-0.0266667,0,0,0.0266667,8,0)"/>
<path style="fill-rule:evenodd;fill:rgb(100%,100%,100%);fill-opacity:1;stroke-width:0.222;stroke-linecap:butt;stroke-linejoin:miter;stroke:rgb(85.882353%,8.627451%,10.588235%);stroke-opacity:1;stroke-miterlimit:4;" d="M 83.935547 108.837891 L 85.693359 108.837891 L 85.839844 109.716797 L 87.304688 110.449219 L 88.476562 109.570312 L 89.941406 110.302734 L 88.623047 111.181641 L 88.916016 112.353516 L 90.673828 112.207031 L 90.673828 113.818359 L 89.355469 113.671875 L 88.623047 114.697266 L 90.087891 115.869141 L 88.916016 116.748047 L 87.744141 115.722656 L 85.839844 116.162109 L 85.986328 117.480469 L 83.935547 117.626953 L 83.642578 116.308594 L 82.03125 115.576172 L 81.005859 116.601562 L 79.541016 115.869141 L 80.419922 114.697266 L 79.394531 114.111328 L 78.076172 114.111328 L 77.929688 112.060547 L 79.394531 112.207031 L 80.419922 111.035156 L 79.248047 110.15625 L 80.712891 109.130859 L 81.738281 109.863281 L 83.642578 109.716797 Z M 83.935547 108.837891 " transform="matrix(-0.0266667,0,0,0.0266667,8,0)"/>
<path style="fill-rule:evenodd;fill:rgb(100%,100%,100%);fill-opacity:1;stroke-width:1.333;stroke-linecap:butt;stroke-linejoin:miter;stroke:rgb(85.882353%,8.627451%,10.588235%);stroke-opacity:1;stroke-miterlimit:4;" d="M 80.390192 427.168593 C 80.390192 421.315907 74.822864 417.135417 69.255535 417.135417 C 62.892873 417.135417 58.120877 421.315907 58.120877 427.168593 C 58.120877 432.185181 62.892873 436.365671 69.255535 436.365671 C 74.822864 436.365671 80.390192 432.185181 80.390192 427.168593 Z M 80.390192 427.168593 " transform="matrix(-0.00491147,0,0,0.004672,6.08624,1.019893)"/>
<path style="fill-rule:evenodd;fill:rgb(100%,100%,100%);fill-opacity:1;stroke-width:0.352;stroke-linecap:butt;stroke-linejoin:miter;stroke:rgb(85.882353%,8.627451%,10.588235%);stroke-opacity:1;stroke-miterlimit:4;" d="M 71.777344 104.443359 L 68.847656 107.080078 M 73.828125 104.443359 L 70.751953 107.080078 M 75.732422 104.443359 L 72.802734 107.080078 M 77.783203 104.443359 L 74.707031 107.080078 M 79.6875 104.443359 L 76.757812 107.080078 M 81.738281 104.443359 L 78.808594 107.080078 M 83.642578 104.443359 L 80.712891 107.080078 M 85.693359 104.443359 L 82.763672 107.080078 M 87.597656 104.443359 L 84.667969 107.080078 M 89.648438 104.443359 L 86.71875 107.080078 M 91.699219 104.443359 L 88.623047 107.080078 M 93.603516 104.443359 L 90.673828 107.080078 M 85.693359 104.443359 L 82.763672 107.080078 M 95.654297 104.443359 L 92.578125 107.080078 M 97.558594 104.443359 L 94.628906 107.080078 M 99.609375 104.443359 L 96.533203 107.080078 M 101.513672 104.443359 L 98.583984 107.080078 M 98.583984 104.443359 L 101.513672 107.080078 M 96.533203 104.443359 L 99.609375 107.080078 M 94.628906 104.443359 L 97.558594 107.080078 M 92.578125 104.443359 L 95.654297 107.080078 M 90.673828 104.443359 L 93.603516 107.080078 M 88.623047 104.443359 L 91.699219 107.080078 M 86.71875 104.443359 L 89.648438 107.080078 M 84.667969 104.443359 L 87.597656 107.080078 M 82.763672 104.443359 L 85.693359 107.080078 M 80.712891 104.443359 L 83.642578 107.080078 M 78.808594 104.443359 L 81.738281 107.080078 M 76.757812 104.443359 L 79.6875 107.080078 M 84.667969 104.443359 L 87.597656 107.080078 M 74.707031 104.443359 L 77.783203 107.080078 M 72.802734 104.443359 L 75.732422 107.080078 M 70.751953 104.443359 L 73.828125 107.080078 M 68.847656 104.443359 L 71.777344 107.080078 M 71.777344 119.384766 L 68.847656 122.021484 M 73.828125 119.384766 L 70.751953 122.021484 M 75.732422 119.384766 L 72.802734 122.021484 M 77.783203 119.384766 L 74.707031 122.021484 M 79.6875 119.384766 L 76.757812 122.021484 M 81.738281 119.384766 L 78.808594 122.021484 M 83.642578 119.384766 L 80.712891 122.021484 M 85.693359 119.384766 L 82.763672 122.021484 M 87.597656 119.384766 L 84.667969 122.021484 M 89.648438 119.384766 L 86.71875 122.021484 M 91.699219 119.384766 L 88.623047 122.021484 M 93.603516 119.384766 L 90.673828 122.021484 M 85.693359 119.384766 L 82.763672 122.021484 M 95.654297 119.384766 L 92.578125 122.021484 M 97.558594 119.384766 L 94.628906 122.021484 M 99.609375 119.384766 L 96.533203 122.021484 M 101.513672 119.384766 L 98.583984 122.021484 M 98.583984 119.384766 L 101.513672 122.021484 M 96.533203 119.384766 L 99.609375 122.021484 M 94.628906 119.384766 L 97.558594 122.021484 M 92.578125 119.384766 L 95.654297 122.021484 M 90.673828 119.384766 L 93.603516 122.021484 M 88.623047 119.384766 L 91.699219 122.021484 M 86.71875 119.384766 L 89.648438 122.021484 M 84.667969 119.384766 L 87.597656 122.021484 M 82.763672 119.384766 L 85.693359 122.021484 M 80.712891 119.384766 L 83.642578 122.021484 M 78.808594 119.384766 L 81.738281 122.021484 M 76.757812 119.384766 L 79.6875 122.021484 M 84.667969 119.384766 L 87.597656 122.021484 M 74.707031 119.384766 L 77.783203 122.021484 M 72.802734 119.384766 L 75.732422 122.021484 M 70.751953 119.384766 L 73.828125 122.021484 M 68.847656 119.384766 L 71.777344 122.021484 " transform="matrix(-0.0266667,0,0,0.0266667,8,0)"/>
<path style="fill-rule:evenodd;fill:rgb(100%,100%,100%);fill-opacity:1;stroke-width:0.565;stroke-linecap:butt;stroke-linejoin:miter;stroke:rgb(85.882353%,8.627451%,10.588235%);stroke-opacity:1;stroke-miterlimit:4;" d="M 126.5625 147.070312 C 78.369141 194.238281 57.861328 200.097656 67.529297 203.90625 C 77.197266 207.714844 108.105469 183.398438 140.332031 151.171875 C 172.558594 118.945312 192.333984 90.234375 182.666016 86.425781 C 173.144531 82.617188 177.685547 97.119141 126.5625 147.070312 Z M 126.5625 147.070312 " transform="matrix(0.0266667,0,0,0.0266667,0,0)"/>
<path style="fill-rule:evenodd;fill:rgb(100%,100%,100%);fill-opacity:1;stroke-width:0.33;stroke-linecap:butt;stroke-linejoin:miter;stroke:rgb(85.882353%,8.627451%,10.588235%);stroke-opacity:1;stroke-miterlimit:4;" d="M 85.986328 181.347656 L 102.832031 185.742188 C 87.011719 200.830078 69.140625 206.982422 64.160156 204.345703 C 59.179688 201.708984 73.095703 195.410156 85.986328 181.347656 Z M 85.986328 181.347656 " transform="matrix(0.0266667,0,0,0.0266667,0,0)"/>
<path style="fill-rule:evenodd;fill:rgb(100%,100%,100%);fill-opacity:1;stroke-width:0.33;stroke-linecap:butt;stroke-linejoin:miter;stroke:rgb(85.882353%,8.627451%,10.588235%);stroke-opacity:1;stroke-miterlimit:4;" d="M 85.986328 183.105469 L 99.902344 186.621094 C 84.375 201.123047 69.140625 205.224609 65.185547 203.466797 C 61.230469 201.708984 73.388672 196.728516 85.986328 183.105469 Z M 85.986328 183.105469 " transform="matrix(0.0266667,0,0,0.0266667,0,0)"/>
<path style="fill:none;stroke-width:0.33;stroke-linecap:butt;stroke-linejoin:miter;stroke:rgb(85.882353%,8.627451%,10.588235%);stroke-opacity:1;stroke-miterlimit:4;" d="M 137.841797 145.019531 C 137.695312 145.3125 137.695312 146.337891 137.548828 146.630859 C 137.548828 147.216797 137.548828 147.65625 137.402344 148.095703 C 137.255859 148.535156 137.255859 148.828125 136.816406 148.974609 C 136.523438 149.414062 136.230469 149.560547 135.791016 149.707031 C 135.498047 150 135.058594 150.292969 134.619141 150.439453 C 134.033203 150.585938 133.59375 150.585938 133.154297 150.585938 C 132.714844 150.292969 132.421875 150 131.982422 149.707031 C 131.982422 149.414062 131.835938 148.828125 131.689453 148.535156 C 131.835938 148.974609 131.982422 149.414062 131.982422 150 C 131.982422 150.585938 131.689453 150.732422 131.542969 151.171875 M 133.300781 152.34375 C 133.154297 152.34375 133.154297 152.34375 133.154297 152.197266 C 133.447266 152.490234 133.300781 152.34375 132.568359 152.050781 C 132.128906 151.757812 131.689453 151.757812 130.957031 151.611328 L 129.345703 151.611328 C 128.613281 151.611328 128.173828 151.757812 127.734375 151.757812 C 127.294922 152.197266 126.855469 152.34375 126.416016 152.636719 C 126.123047 152.783203 125.976562 153.076172 125.683594 153.515625 C 125.390625 153.808594 125.097656 154.248047 124.804688 154.394531 C 124.658203 154.980469 124.365234 154.980469 124.21875 155.273438 C 124.804688 155.419922 125.244141 155.419922 125.537109 155.712891 C 126.123047 156.005859 125.097656 155.566406 124.951172 155.273438 C 124.511719 155.273438 124.511719 155.126953 123.925781 155.126953 C 123.339844 154.980469 122.900391 155.273438 122.460938 155.273438 C 122.021484 155.419922 122.021484 155.566406 121.582031 155.566406 M 126.5625 157.763672 C 126.269531 157.910156 125.244141 158.056641 124.658203 157.763672 C 124.21875 157.763672 123.925781 157.470703 123.632812 157.03125 C 123.486328 156.738281 123.632812 157.617188 123.632812 157.910156 C 123.632812 158.642578 123.339844 158.642578 123.046875 159.082031 C 122.607422 159.228516 122.314453 159.521484 121.875 159.667969 C 121.582031 159.960938 121.142578 160.107422 120.849609 160.253906 C 120.410156 160.400391 119.970703 160.546875 119.677734 160.839844 C 119.238281 160.986328 119.238281 161.279297 119.091797 161.71875 C 119.091797 162.304688 119.238281 162.597656 119.53125 162.890625 C 119.677734 163.183594 119.970703 163.623047 120.263672 163.769531 C 120.556641 164.355469 120.996094 164.501953 120.117188 164.648438 C 119.677734 164.794922 119.53125 164.794922 119.091797 164.648438 M 118.798828 165.527344 C 118.505859 165.380859 117.480469 165.087891 117.041016 164.941406 L 115.283203 164.941406 C 114.550781 164.941406 114.404297 165.087891 113.818359 165.380859 C 113.525391 165.673828 113.232422 165.966797 112.792969 166.113281 C 112.5 166.40625 112.060547 166.992188 111.767578 167.285156 C 111.621094 167.724609 111.621094 168.164062 111.621094 168.75 C 111.621094 169.335938 111.767578 169.482422 111.767578 170.068359 C 111.914062 170.507812 112.207031 170.947266 112.5 171.386719 C 112.646484 171.533203 112.646484 171.533203 112.792969 171.533203 M 112.939453 172.998047 C 112.939453 172.998047 112.792969 173.291016 112.646484 173.583984 C 112.207031 173.876953 112.207031 173.876953 111.621094 173.876953 C 111.035156 173.876953 111.035156 173.730469 110.742188 173.583984 C 110.449219 173.291016 110.302734 173.144531 110.009766 172.705078 C 109.863281 172.558594 109.863281 172.119141 109.570312 171.972656 C 109.423828 171.679688 109.277344 171.533203 109.130859 171.240234 C 108.984375 171.240234 108.837891 171.09375 108.691406 171.09375 C 109.130859 171.240234 109.277344 171.386719 109.570312 171.679688 C 109.716797 171.826172 109.863281 172.119141 110.009766 172.412109 C 110.009766 172.705078 110.15625 172.998047 110.15625 173.583984 C 110.15625 174.023438 110.15625 174.316406 110.009766 174.755859 C 109.716797 174.902344 109.570312 175.195312 109.423828 175.341797 C 109.130859 175.488281 108.837891 175.78125 108.691406 176.074219 C 108.544922 176.220703 108.251953 176.367188 107.958984 176.513672 C 107.666016 176.660156 107.373047 176.806641 107.080078 176.953125 C 106.494141 176.806641 106.347656 176.660156 105.908203 176.513672 C 105.615234 176.220703 105.322266 176.074219 105.029297 175.927734 C 104.882812 175.78125 104.589844 175.488281 104.443359 175.195312 C 104.003906 175.048828 103.710938 175.195312 103.417969 175.341797 C 103.125 175.634766 102.978516 175.78125 102.832031 176.074219 C 102.685547 176.074219 102.392578 176.220703 102.246094 176.367188 M 103.271484 176.513672 C 103.417969 176.660156 104.003906 176.953125 104.150391 177.099609 C 104.296875 177.539062 104.589844 177.832031 104.589844 178.271484 C 104.736328 178.710938 104.736328 179.296875 104.736328 179.736328 C 104.589844 180.322266 104.443359 180.761719 104.150391 181.201172 C 103.857422 181.347656 103.710938 181.640625 103.271484 181.787109 C 102.832031 181.933594 102.392578 181.933594 101.806641 181.933594 C 101.513672 182.080078 100.78125 182.080078 100.488281 181.933594 C 100.048828 181.933594 99.609375 181.640625 99.316406 181.494141 C 98.876953 181.347656 98.583984 181.054688 98.144531 180.908203 C 97.998047 180.615234 97.705078 180.322266 97.412109 179.882812 C 97.119141 179.589844 96.826172 179.296875 96.679688 178.857422 C 96.826172 179.443359 97.119141 179.736328 97.265625 180.175781 C 97.412109 180.615234 97.558594 180.908203 97.705078 181.347656 C 97.851562 181.787109 97.705078 182.373047 97.705078 182.958984 C 97.705078 183.251953 97.705078 183.837891 97.558594 184.130859 L 97.558594 184.570312 M 87.304688 186.181641 L 87.304688 186.328125 C 87.304688 186.035156 87.158203 186.181641 87.451172 187.060547 C 87.744141 187.353516 88.476562 187.5 89.208984 187.353516 C 89.794922 186.914062 89.648438 186.621094 90.673828 186.328125 C 91.699219 186.474609 92.138672 186.767578 92.724609 187.060547 C 93.310547 187.353516 93.603516 187.5 94.042969 188.085938 C 94.335938 188.671875 94.335938 188.964844 93.75 189.257812 C 93.164062 189.550781 92.578125 189.697266 91.845703 189.84375 C 90.966797 189.84375 90.380859 189.697266 90.087891 190.136719 C 89.501953 190.576172 89.501953 191.015625 89.501953 191.894531 C 89.355469 192.1875 89.355469 192.919922 89.208984 193.212891 C 88.623047 193.505859 88.330078 193.505859 87.597656 193.505859 C 87.451172 193.066406 87.158203 192.1875 87.011719 191.748047 C 86.865234 191.162109 86.865234 190.283203 86.572266 189.990234 C 86.132812 189.550781 85.839844 189.111328 85.253906 188.818359 C 85.107422 188.671875 84.667969 188.378906 84.228516 188.232422 C 84.960938 188.525391 85.107422 188.964844 85.107422 189.697266 C 84.521484 189.990234 84.375 190.136719 83.349609 190.136719 C 82.470703 189.990234 82.177734 189.84375 81.884766 189.404297 C 81.738281 190.136719 81.445312 190.429688 81.298828 191.015625 C 81.005859 191.601562 80.712891 192.041016 80.419922 192.626953 C 80.566406 193.359375 80.859375 193.359375 81.005859 194.384766 C 81.152344 194.970703 81.152344 195.556641 81.591797 195.849609 C 81.884766 196.142578 82.03125 196.142578 82.470703 196.142578 C 81.445312 196.142578 80.859375 196.142578 80.273438 195.703125 C 79.6875 195.410156 79.394531 195.117188 78.808594 194.824219 C 78.222656 194.384766 77.490234 194.091797 76.757812 193.798828 C 75.878906 193.798828 75.292969 193.798828 75 194.238281 C 74.560547 194.53125 74.121094 194.970703 73.974609 195.703125 C 73.828125 196.582031 73.681641 197.021484 74.121094 197.607422 C 74.414062 198.193359 74.560547 198.486328 74.121094 199.21875 C 73.681641 199.658203 73.095703 199.804688 72.216797 199.951172 C 71.630859 199.951172 71.044922 199.804688 70.458984 199.658203 " transform="matrix(0.0266667,0,0,0.0266667,0,0)"/>
<path style="fill-rule:evenodd;fill:rgb(100%,100%,100%);fill-opacity:1;stroke-width:0.447;stroke-linecap:butt;stroke-linejoin:miter;stroke:rgb(85.882353%,8.627451%,10.588235%);stroke-opacity:1;stroke-miterlimit:4;" d="M 181.347656 104.589844 C 202.734375 67.822266 216.943359 36.474609 212.988281 34.716797 C 209.179688 32.8125 188.671875 61.376953 167.285156 98.144531 Z M 181.347656 104.589844 " transform="matrix(0.0266667,0,0,0.0266667,0,0)"/>
<path style="fill-rule:evenodd;fill:rgb(100%,100%,100%);fill-opacity:1;stroke-width:0.393;stroke-linecap:butt;stroke-linejoin:miter;stroke:rgb(85.882353%,8.627451%,10.588235%);stroke-opacity:1;stroke-miterlimit:4;" d="M 180.029297 104.003906 C 200.537109 68.408203 214.746094 38.378906 211.669922 37.060547 C 208.59375 35.595703 189.257812 63.28125 168.75 98.876953 " transform="matrix(0.0266667,0,0,0.0266667,0,0)"/>
<path style="fill-rule:evenodd;fill:rgb(100%,100%,100%);fill-opacity:1;stroke-width:0.446;stroke-linecap:butt;stroke-linejoin:miter;stroke:rgb(85.882353%,8.627451%,10.588235%);stroke-opacity:1;stroke-miterlimit:4;" d="M 176.513672 85.400391 C 173.876953 89.648438 171.240234 94.335938 168.75 98.876953 L 180.029297 104.003906 C 182.519531 99.609375 185.449219 94.921875 187.792969 90.673828 Z M 176.513672 85.400391 " transform="matrix(0.0266667,0,0,0.0266667,0,0)"/>
<path style="fill-rule:evenodd;fill:rgb(100%,100%,100%);fill-opacity:1;stroke-width:0.446;stroke-linecap:butt;stroke-linejoin:miter;stroke:rgb(85.882353%,8.627451%,10.588235%);stroke-opacity:1;stroke-miterlimit:4;" d="M 177.392578 86.865234 C 174.902344 91.113281 173.144531 94.189453 170.654297 98.730469 L 179.003906 102.539062 C 181.640625 98.144531 183.544922 95.068359 185.888672 90.820312 Z M 177.392578 86.865234 " transform="matrix(0.0266667,0,0,0.0266667,0,0)"/>
<path style="fill-rule:nonzero;fill:rgb(100%,100%,100%);fill-opacity:1;stroke-width:0.447;stroke-linecap:butt;stroke-linejoin:miter;stroke:rgb(85.882353%,8.627451%,10.588235%);stroke-opacity:1;stroke-miterlimit:4;" d="M -205.685088 6.54954 L -199.519861 6.482523 L -199.415143 16.521098 L -205.707679 16.526576 Z M -205.685088 6.54954 " transform="matrix(-0.0242219,-0.0111539,-0.0133667,0.0230747,0,0)"/>
<path style="fill-rule:evenodd;fill:rgb(100%,100%,100%);fill-opacity:1;stroke-width:0.446;stroke-linecap:butt;stroke-linejoin:miter;stroke:rgb(85.882353%,8.627451%,10.588235%);stroke-opacity:1;stroke-miterlimit:4;" d="M 183.544922 91.699219 L 172.851562 97.705078 M 178.564453 100.341797 L 177.978516 89.0625 M 209.033203 47.753906 L 203.320312 45.117188 " transform="matrix(0.0266667,0,0,0.0266667,0,0)"/>
<path style="fill-rule:nonzero;fill:rgb(85.882353%,8.627451%,10.588235%);fill-opacity:1;stroke-width:1.333;stroke-linecap:butt;stroke-linejoin:miter;stroke:rgb(85.882353%,8.627451%,10.588235%);stroke-opacity:1;stroke-miterlimit:4;" d="M 549.107104 92.076139 C 549.194869 93.910468 547.671946 95.835804 545.676058 95.665611 C 543.68017 95.495417 542.060544 94.101352 542.279151 92.178971 C 542.112559 89.995388 543.71431 88.419306 545.710197 88.5895 C 547.627258 88.410438 549.325711 90.153758 549.107104 92.076139 Z M 549.107104 92.076139 " transform="matrix(-0.0119733,0.00301867,0.0027024,0.0105032,11.849253,-1.487947)"/>
<path style="fill-rule:evenodd;fill:rgb(100%,100%,100%);fill-opacity:1;stroke-width:0.565;stroke-linecap:butt;stroke-linejoin:miter;stroke:rgb(85.882353%,8.627451%,10.588235%);stroke-opacity:1;stroke-miterlimit:4;" d="M 126.5625 147.070312 C 78.369141 194.238281 57.861328 200.097656 67.529297 203.90625 C 77.197266 207.714844 108.105469 183.398438 140.332031 151.171875 C 172.558594 118.945312 192.333984 90.234375 182.666016 86.425781 C 173.144531 82.617188 177.685547 97.119141 126.5625 147.070312 Z M 126.5625 147.070312 " transform="matrix(-0.0266667,0,0,0.0266667,8,0)"/>
<path style="fill-rule:evenodd;fill:rgb(100%,100%,100%);fill-opacity:1;stroke-width:0.33;stroke-linecap:butt;stroke-linejoin:miter;stroke:rgb(85.882353%,8.627451%,10.588235%);stroke-opacity:1;stroke-miterlimit:4;" d="M 85.986328 181.347656 L 102.832031 185.742188 C 87.011719 200.830078 69.140625 206.982422 64.160156 204.345703 C 59.179688 201.708984 73.095703 195.410156 85.986328 181.347656 Z M 85.986328 181.347656 " transform="matrix(-0.0266667,0,0,0.0266667,8,0)"/>
<path style="fill-rule:evenodd;fill:rgb(100%,100%,100%);fill-opacity:1;stroke-width:0.33;stroke-linecap:butt;stroke-linejoin:miter;stroke:rgb(85.882353%,8.627451%,10.588235%);stroke-opacity:1;stroke-miterlimit:4;" d="M 85.986328 183.105469 L 99.902344 186.621094 C 84.375 201.123047 69.140625 205.224609 65.185547 203.466797 C 61.230469 201.708984 73.388672 196.728516 85.986328 183.105469 Z M 85.986328 183.105469 " transform="matrix(-0.0266667,0,0,0.0266667,8,0)"/>
<path style="fill:none;stroke-width:0.33;stroke-linecap:butt;stroke-linejoin:miter;stroke:rgb(85.882353%,8.627451%,10.588235%);stroke-opacity:1;stroke-miterlimit:4;" d="M 137.841797 145.019531 C 137.695312 145.3125 137.695312 146.337891 137.548828 146.630859 C 137.548828 147.216797 137.548828 147.65625 137.402344 148.095703 C 137.255859 148.535156 137.255859 148.828125 136.816406 148.974609 C 136.523438 149.414062 136.230469 149.560547 135.791016 149.707031 C 135.498047 150 135.058594 150.292969 134.619141 150.439453 C 134.033203 150.585938 133.59375 150.585938 133.154297 150.585938 C 132.714844 150.292969 132.421875 150 131.982422 149.707031 C 131.982422 149.414062 131.835938 148.828125 131.689453 148.535156 C 131.835938 148.974609 131.982422 149.414062 131.982422 150 C 131.982422 150.585938 131.689453 150.732422 131.542969 151.171875 M 133.300781 152.34375 C 133.154297 152.34375 133.154297 152.34375 133.154297 152.197266 C 133.447266 152.490234 133.300781 152.34375 132.568359 152.050781 C 132.128906 151.757812 131.689453 151.757812 130.957031 151.611328 L 129.345703 151.611328 C 128.613281 151.611328 128.173828 151.757812 127.734375 151.757812 C 127.294922 152.197266 126.855469 152.34375 126.416016 152.636719 C 126.123047 152.783203 125.976562 153.076172 125.683594 153.515625 C 125.390625 153.808594 125.097656 154.248047 124.804688 154.394531 C 124.658203 154.980469 124.365234 154.980469 124.21875 155.273438 C 124.804688 155.419922 125.244141 155.419922 125.537109 155.712891 C 126.123047 156.005859 125.097656 155.566406 124.951172 155.273438 C 124.511719 155.273438 124.511719 155.126953 123.925781 155.126953 C 123.339844 154.980469 122.900391 155.273438 122.460938 155.273438 C 122.021484 155.419922 122.021484 155.566406 121.582031 155.566406 M 126.5625 157.763672 C 126.269531 157.910156 125.244141 158.056641 124.658203 157.763672 C 124.21875 157.763672 123.925781 157.470703 123.632812 157.03125 C 123.486328 156.738281 123.632812 157.617188 123.632812 157.910156 C 123.632812 158.642578 123.339844 158.642578 123.046875 159.082031 C 122.607422 159.228516 122.314453 159.521484 121.875 159.667969 C 121.582031 159.960938 121.142578 160.107422 120.849609 160.253906 C 120.410156 160.400391 119.970703 160.546875 119.677734 160.839844 C 119.238281 160.986328 119.238281 161.279297 119.091797 161.71875 C 119.091797 162.304688 119.238281 162.597656 119.53125 162.890625 C 119.677734 163.183594 119.970703 163.623047 120.263672 163.769531 C 120.556641 164.355469 120.996094 164.501953 120.117188 164.648438 C 119.677734 164.794922 119.53125 164.794922 119.091797 164.648438 M 118.798828 165.527344 C 118.505859 165.380859 117.480469 165.087891 117.041016 164.941406 L 115.283203 164.941406 C 114.550781 164.941406 114.404297 165.087891 113.818359 165.380859 C 113.525391 165.673828 113.232422 165.966797 112.792969 166.113281 C 112.5 166.40625 112.060547 166.992188 111.767578 167.285156 C 111.621094 167.724609 111.621094 168.164062 111.621094 168.75 C 111.621094 169.335938 111.767578 169.482422 111.767578 170.068359 C 111.914062 170.507812 112.207031 170.947266 112.5 171.386719 C 112.646484 171.533203 112.646484 171.533203 112.792969 171.533203 M 112.939453 172.998047 C 112.939453 172.998047 112.792969 173.291016 112.646484 173.583984 C 112.207031 173.876953 112.207031 173.876953 111.621094 173.876953 C 111.035156 173.876953 111.035156 173.730469 110.742188 173.583984 C 110.449219 173.291016 110.302734 173.144531 110.009766 172.705078 C 109.863281 172.558594 109.863281 172.119141 109.570312 171.972656 C 109.423828 171.679688 109.277344 171.533203 109.130859 171.240234 C 108.984375 171.240234 108.837891 171.09375 108.691406 171.09375 C 109.130859 171.240234 109.277344 171.386719 109.570312 171.679688 C 109.716797 171.826172 109.863281 172.119141 110.009766 172.412109 C 110.009766 172.705078 110.15625 172.998047 110.15625 173.583984 C 110.15625 174.023438 110.15625 174.316406 110.009766 174.755859 C 109.716797 174.902344 109.570312 175.195312 109.423828 175.341797 C 109.130859 175.488281 108.837891 175.78125 108.691406 176.074219 C 108.544922 176.220703 108.251953 176.367188 107.958984 176.513672 C 107.666016 176.660156 107.373047 176.806641 107.080078 176.953125 C 106.494141 176.806641 106.347656 176.660156 105.908203 176.513672 C 105.615234 176.220703 105.322266 176.074219 105.029297 175.927734 C 104.882812 175.78125 104.589844 175.488281 104.443359 175.195312 C 104.003906 175.048828 103.710938 175.195312 103.417969 175.341797 C 103.125 175.634766 102.978516 175.78125 102.832031 176.074219 C 102.685547 176.074219 102.392578 176.220703 102.246094 176.367188 M 103.271484 176.513672 C 103.417969 176.660156 104.003906 176.953125 104.150391 177.099609 C 104.296875 177.539062 104.589844 177.832031 104.589844 178.271484 C 104.736328 178.710938 104.736328 179.296875 104.736328 179.736328 C 104.589844 180.322266 104.443359 180.761719 104.150391 181.201172 C 103.857422 181.347656 103.710938 181.640625 103.271484 181.787109 C 102.832031 181.933594 102.392578 181.933594 101.806641 181.933594 C 101.513672 182.080078 100.78125 182.080078 100.488281 181.933594 C 100.048828 181.933594 99.609375 181.640625 99.316406 181.494141 C 98.876953 181.347656 98.583984 181.054688 98.144531 180.908203 C 97.998047 180.615234 97.705078 180.322266 97.412109 179.882812 C 97.119141 179.589844 96.826172 179.296875 96.679688 178.857422 C 96.826172 179.443359 97.119141 179.736328 97.265625 180.175781 C 97.412109 180.615234 97.558594 180.908203 97.705078 181.347656 C 97.851562 181.787109 97.705078 182.373047 97.705078 182.958984 C 97.705078 183.251953 97.705078 183.837891 97.558594 184.130859 L 97.558594 184.570312 M 87.304688 186.181641 L 87.304688 186.328125 C 87.304688 186.035156 87.158203 186.181641 87.451172 187.060547 C 87.744141 187.353516 88.476562 187.5 89.208984 187.353516 C 89.794922 186.914062 89.648438 186.621094 90.673828 186.328125 C 91.699219 186.474609 92.138672 186.767578 92.724609 187.060547 C 93.310547 187.353516 93.603516 187.5 94.042969 188.085938 C 94.335938 188.671875 94.335938 188.964844 93.75 189.257812 C 93.164062 189.550781 92.578125 189.697266 91.845703 189.84375 C 90.966797 189.84375 90.380859 189.697266 90.087891 190.136719 C 89.501953 190.576172 89.501953 191.015625 89.501953 191.894531 C 89.355469 192.1875 89.355469 192.919922 89.208984 193.212891 C 88.623047 193.505859 88.330078 193.505859 87.597656 193.505859 C 87.451172 193.066406 87.158203 192.1875 87.011719 191.748047 C 86.865234 191.162109 86.865234 190.283203 86.572266 189.990234 C 86.132812 189.550781 85.839844 189.111328 85.253906 188.818359 C 85.107422 188.671875 84.667969 188.378906 84.228516 188.232422 C 84.960938 188.525391 85.107422 188.964844 85.107422 189.697266 C 84.521484 189.990234 84.375 190.136719 83.349609 190.136719 C 82.470703 189.990234 82.177734 189.84375 81.884766 189.404297 C 81.738281 190.136719 81.445312 190.429688 81.298828 191.015625 C 81.005859 191.601562 80.712891 192.041016 80.419922 192.626953 C 80.566406 193.359375 80.859375 193.359375 81.005859 194.384766 C 81.152344 194.970703 81.152344 195.556641 81.591797 195.849609 C 81.884766 196.142578 82.03125 196.142578 82.470703 196.142578 C 81.445312 196.142578 80.859375 196.142578 80.273438 195.703125 C 79.6875 195.410156 79.394531 195.117188 78.808594 194.824219 C 78.222656 194.384766 77.490234 194.091797 76.757812 193.798828 C 75.878906 193.798828 75.292969 193.798828 75 194.238281 C 74.560547 194.53125 74.121094 194.970703 73.974609 195.703125 C 73.828125 196.582031 73.681641 197.021484 74.121094 197.607422 C 74.414062 198.193359 74.560547 198.486328 74.121094 199.21875 C 73.681641 199.658203 73.095703 199.804688 72.216797 199.951172 C 71.630859 199.951172 71.044922 199.804688 70.458984 199.658203 " transform="matrix(-0.0266667,0,0,0.0266667,8,0)"/>
<path style="fill-rule:evenodd;fill:rgb(100%,100%,100%);fill-opacity:1;stroke-width:0.447;stroke-linecap:butt;stroke-linejoin:miter;stroke:rgb(85.882353%,8.627451%,10.588235%);stroke-opacity:1;stroke-miterlimit:4;" d="M 181.347656 104.589844 C 202.734375 67.822266 216.943359 36.474609 212.988281 34.716797 C 209.179688 32.8125 188.671875 61.376953 167.285156 98.144531 Z M 181.347656 104.589844 " transform="matrix(-0.0266667,0,0,0.0266667,8,0)"/>
<path style="fill-rule:evenodd;fill:rgb(100%,100%,100%);fill-opacity:1;stroke-width:0.393;stroke-linecap:butt;stroke-linejoin:miter;stroke:rgb(85.882353%,8.627451%,10.588235%);stroke-opacity:1;stroke-miterlimit:4;" d="M 180.029297 104.003906 C 200.537109 68.408203 214.746094 38.378906 211.669922 37.060547 C 208.59375 35.595703 189.257812 63.28125 168.75 98.876953 " transform="matrix(-0.0266667,0,0,0.0266667,8,0)"/>
<path style="fill-rule:evenodd;fill:rgb(100%,100%,100%);fill-opacity:1;stroke-width:0.446;stroke-linecap:butt;stroke-linejoin:miter;stroke:rgb(85.882353%,8.627451%,10.588235%);stroke-opacity:1;stroke-miterlimit:4;" d="M 176.513672 85.400391 C 173.876953 89.648438 171.240234 94.335938 168.75 98.876953 L 180.029297 104.003906 C 182.519531 99.609375 185.449219 94.921875 187.792969 90.673828 Z M 176.513672 85.400391 " transform="matrix(-0.0266667,0,0,0.0266667,8,0)"/>
<path style="fill-rule:evenodd;fill:rgb(100%,100%,100%);fill-opacity:1;stroke-width:0.446;stroke-linecap:butt;stroke-linejoin:miter;stroke:rgb(85.882353%,8.627451%,10.588235%);stroke-opacity:1;stroke-miterlimit:4;" d="M 177.392578 86.865234 C 174.902344 91.113281 173.144531 94.189453 170.654297 98.730469 L 179.003906 102.539062 C 181.640625 98.144531 183.544922 95.068359 185.888672 90.820312 Z M 177.392578 86.865234 " transform="matrix(-0.0266667,0,0,0.0266667,8,0)"/>
<path style="fill-rule:nonzero;fill:rgb(100%,100%,100%);fill-opacity:1;stroke-width:0.447;stroke-linecap:butt;stroke-linejoin:miter;stroke:rgb(85.882353%,8.627451%,10.588235%);stroke-opacity:1;stroke-miterlimit:4;" d="M -205.685088 6.54954 L -199.519861 6.482523 L -199.415143 16.521098 L -205.707679 16.526576 Z M -205.685088 6.54954 " transform="matrix(0.0242219,-0.0111539,0.0133667,0.0230747,8,0)"/>
<path style="fill-rule:evenodd;fill:rgb(100%,100%,100%);fill-opacity:1;stroke-width:0.446;stroke-linecap:butt;stroke-linejoin:miter;stroke:rgb(85.882353%,8.627451%,10.588235%);stroke-opacity:1;stroke-miterlimit:4;" d="M 183.544922 91.699219 L 172.851562 97.705078 M 178.564453 100.341797 L 177.978516 89.0625 M 209.033203 47.753906 L 203.320312 45.117188 " transform="matrix(-0.0266667,0,0,0.0266667,8,0)"/>
<path style="fill-rule:nonzero;fill:rgb(85.882353%,8.627451%,10.588235%);fill-opacity:1;stroke-width:1.333;stroke-linecap:butt;stroke-linejoin:miter;stroke:rgb(85.882353%,8.627451%,10.588235%);stroke-opacity:1;stroke-miterlimit:4;" d="M 549.107104 92.076139 C 549.194869 93.910468 547.671946 95.835804 545.676058 95.665611 C 543.68017 95.495417 542.060544 94.101352 542.279151 92.178971 C 542.112559 89.995388 543.71431 88.419306 545.710197 88.5895 C 547.627258 88.410438 549.325711 90.153758 549.107104 92.076139 Z M 549.107104 92.076139 " transform="matrix(0.0119733,0.00301867,-0.0027024,0.0105032,-3.849253,-1.487947)"/>
<path style="fill-rule:evenodd;fill:rgb(100%,100%,100%);fill-opacity:1;stroke-width:0.407;stroke-linecap:butt;stroke-linejoin:miter;stroke:rgb(85.882353%,8.627451%,10.588235%);stroke-opacity:1;stroke-miterlimit:4;" d="M 135.205078 84.960938 C 135.205078 115.869141 135.498047 127.587891 133.154297 129.199219 C 130.957031 130.810547 70.751953 129.199219 70.751953 137.988281 C 70.751953 146.777344 120.410156 155.712891 135.205078 155.712891 C 155.126953 155.712891 164.941406 146.777344 164.941406 129.199219 L 164.941406 84.960938 Z M 135.205078 84.960938 " transform="matrix(0.0266667,0,0,0.0266667,0,0)"/>
<path style="fill-rule:evenodd;fill:rgb(100%,100%,100%);fill-opacity:1;stroke-width:0.352;stroke-linecap:butt;stroke-linejoin:miter;stroke:rgb(85.882353%,8.627451%,10.588235%);stroke-opacity:1;stroke-miterlimit:4;" d="M 135.205078 93.75 L 135.205078 98.291016 C 145.166016 99.755859 155.126953 99.755859 164.941406 98.291016 L 164.941406 93.75 C 155.126953 95.214844 145.166016 95.214844 135.205078 93.75 Z M 135.205078 84.960938 L 135.205078 89.355469 C 145.166016 90.820312 155.126953 90.820312 164.941406 89.355469 L 164.941406 84.960938 C 155.126953 86.425781 145.166016 86.425781 135.205078 84.960938 Z M 135.205078 84.960938 " transform="matrix(0.0266667,0,0,0.0266667,0,0)"/>
<path style="fill-rule:evenodd;fill:rgb(100%,100%,100%);fill-opacity:1;stroke-width:0.352;stroke-linecap:butt;stroke-linejoin:miter;stroke:rgb(85.882353%,8.627451%,10.588235%);stroke-opacity:1;stroke-miterlimit:4;" d="M 135.205078 89.355469 L 135.205078 93.75 C 145.166016 95.214844 155.126953 95.214844 164.941406 93.75 L 164.941406 89.355469 C 155.126953 90.820312 145.166016 90.820312 135.205078 89.355469 Z M 135.205078 98.291016 L 135.205078 102.685547 C 145.166016 104.150391 155.126953 104.150391 164.941406 102.685547 L 164.941406 98.291016 C 155.126953 99.755859 145.166016 99.755859 135.205078 98.291016 Z M 135.205078 98.291016 " transform="matrix(0.0266667,0,0,0.0266667,0,0)"/>
<path style="fill-rule:nonzero;fill:rgb(100%,100%,100%);fill-opacity:1;stroke-width:4.463;stroke-linecap:butt;stroke-linejoin:miter;stroke:rgb(85.882353%,8.627451%,10.588235%);stroke-opacity:1;stroke-miterlimit:4;" d="M 265.906318 209.57924 C 265.906318 197.331382 262.067377 185.083525 257.268701 185.083525 C 252.470026 185.083525 247.67135 197.331382 247.67135 209.57924 C 247.67135 225.909716 252.470026 238.157574 257.268701 238.157574 C 262.067377 238.157574 265.906318 225.909716 265.906318 209.57924 Z M 265.906318 209.57924 " transform="matrix(0.00407013,0,0,0.0009568,2.597413,2.248693)"/>
<path style="fill-rule:nonzero;fill:rgb(100%,100%,100%);fill-opacity:1;stroke-width:4.463;stroke-linecap:butt;stroke-linejoin:miter;stroke:rgb(85.882353%,8.627451%,10.588235%);stroke-opacity:1;stroke-miterlimit:4;" d="M 301.416518 248.094778 C 301.416518 231.764301 297.577577 219.516444 292.778902 219.516444 C 287.020491 219.516444 283.18155 231.764301 283.18155 248.094778 C 283.18155 260.342635 287.020491 272.590493 292.778902 272.590493 C 297.577577 272.590493 301.416518 260.342635 301.416518 248.094778 Z M 301.416518 248.094778 " transform="matrix(0.00407013,0,0,0.0009568,2.597413,2.227467)"/>
<path style="fill-rule:nonzero;fill:rgb(100%,100%,100%);fill-opacity:1;stroke-width:4.463;stroke-linecap:butt;stroke-linejoin:miter;stroke:rgb(85.882353%,8.627451%,10.588235%);stroke-opacity:1;stroke-miterlimit:4;" d="M 336.926718 264.746203 C 336.926718 248.415726 333.087778 236.167869 327.329367 236.167869 C 322.530691 236.167869 318.69175 248.415726 318.69175 264.746203 C 318.69175 276.99406 322.530691 289.241918 327.329367 289.241918 C 333.087778 289.241918 336.926718 276.99406 336.926718 264.746203 Z M 336.926718 264.746203 " transform="matrix(0.00407013,0,0,0.0009568,2.597413,2.223253)"/>
<path style="fill-rule:nonzero;fill:rgb(100%,100%,100%);fill-opacity:1;stroke-width:4.463;stroke-linecap:butt;stroke-linejoin:miter;stroke:rgb(85.882353%,8.627451%,10.588235%);stroke-opacity:1;stroke-miterlimit:4;" d="M 372.436919 264.746203 C 372.436919 248.415726 367.638243 236.167869 362.839567 236.167869 C 358.040891 236.167869 354.201951 248.415726 354.201951 264.746203 C 354.201951 276.99406 358.040891 289.241918 362.839567 289.241918 C 367.638243 289.241918 372.436919 276.99406 372.436919 264.746203 Z M 372.436919 264.746203 " transform="matrix(0.00407013,0,0,0.0009568,2.597413,2.223253)"/>
<path style="fill-rule:nonzero;fill:rgb(100%,100%,100%);fill-opacity:1;stroke-width:4.463;stroke-linecap:butt;stroke-linejoin:miter;stroke:rgb(85.882353%,8.627451%,10.588235%);stroke-opacity:1;stroke-miterlimit:4;" d="M 407.947119 248.094778 C 407.947119 231.764301 403.148443 219.516444 398.349767 219.516444 C 393.551092 219.516444 389.712151 231.764301 389.712151 248.094778 C 389.712151 260.342635 393.551092 272.590493 398.349767 272.590493 C 403.148443 272.590493 407.947119 260.342635 407.947119 248.094778 Z M 407.947119 248.094778 " transform="matrix(0.00407013,0,0,0.0009568,2.597413,2.227467)"/>
<path style="fill-rule:nonzero;fill:rgb(100%,100%,100%);fill-opacity:1;stroke-width:4.463;stroke-linecap:butt;stroke-linejoin:miter;stroke:rgb(85.882353%,8.627451%,10.588235%);stroke-opacity:1;stroke-miterlimit:4;" d="M 442.497584 209.57924 C 442.497584 197.331382 438.658643 185.083525 433.859968 185.083525 C 429.061292 185.083525 425.222351 197.331382 425.222351 209.57924 C 425.222351 225.909716 429.061292 238.157574 433.859968 238.157574 C 438.658643 238.157574 442.497584 225.909716 442.497584 209.57924 Z M 442.497584 209.57924 " transform="matrix(0.00407013,0,0,0.0009568,2.597413,2.248693)"/>
<path style="fill-rule:evenodd;fill:rgb(100%,100%,100%);fill-opacity:1;stroke-width:0.352;stroke-linecap:butt;stroke-linejoin:miter;stroke:rgb(85.882353%,8.627451%,10.588235%);stroke-opacity:1;stroke-miterlimit:4;" d="M 135.205078 107.080078 L 164.941406 130.957031 M 138.28125 107.080078 L 164.941406 128.320312 M 142.236328 107.958984 L 164.941406 125.683594 M 145.166016 107.958984 L 164.941406 122.900391 M 148.095703 107.958984 L 164.941406 120.263672 M 151.171875 107.958984 L 164.941406 117.626953 M 154.101562 107.958984 L 164.941406 114.990234 M 157.03125 107.958984 L 164.941406 113.232422 M 160.107422 107.958984 L 164.941406 111.474609 M 163.037109 107.958984 L 164.941406 109.716797 M 135.205078 109.716797 L 164.941406 133.59375 M 164.941406 107.080078 L 132.275391 133.59375 M 162.011719 107.080078 L 133.300781 130.078125 M 158.056641 107.958984 L 135.205078 125.683594 M 155.126953 107.958984 L 135.205078 122.900391 M 152.050781 107.958984 L 135.205078 120.263672 M 149.121094 107.958984 L 135.205078 117.626953 M 146.191406 107.958984 L 135.205078 114.990234 M 143.261719 107.958984 L 135.205078 113.232422 M 140.185547 107.958984 L 135.205078 111.474609 M 137.255859 107.958984 L 135.205078 109.716797 M 164.941406 109.716797 L 132.275391 136.230469 M 164.941406 112.353516 L 132.275391 138.867188 M 164.941406 114.990234 L 132.275391 141.503906 M 164.941406 117.626953 L 132.275391 144.140625 M 164.941406 120.263672 L 132.275391 146.777344 M 164.941406 122.900391 L 132.275391 149.560547 M 164.941406 125.683594 L 132.275391 152.197266 M 164.941406 128.320312 L 132.275391 154.833984 M 164.941406 130.957031 L 134.326172 155.712891 M 164.941406 133.59375 L 137.255859 155.712891 M 164.0625 137.109375 L 142.236328 154.833984 M 163.037109 140.625 L 145.166016 154.833984 M 160.986328 145.019531 L 152.050781 152.197266 M 135.205078 112.353516 L 164.0625 135.351562 M 135.205078 114.990234 L 164.0625 137.988281 M 135.205078 117.626953 L 163.037109 139.746094 M 135.205078 120.263672 L 163.037109 142.382812 M 135.205078 122.900391 L 162.011719 144.140625 M 134.326172 124.804688 L 160.986328 145.898438 M 134.326172 127.441406 L 159.082031 146.777344 M 133.300781 129.199219 L 158.056641 148.681641 M 132.275391 130.957031 L 156.152344 149.560547 M 132.275391 133.59375 L 155.126953 151.318359 M 132.275391 136.230469 L 152.050781 152.197266 M 135.205078 102.685547 L 135.205078 107.080078 C 145.166016 108.544922 155.126953 108.544922 164.941406 107.080078 L 164.941406 102.685547 C 155.126953 104.150391 145.166016 104.150391 135.205078 102.685547 Z M 132.275391 138.867188 L 150.146484 153.076172 M 132.275391 141.503906 L 148.095703 153.955078 M 132.275391 144.140625 L 146.191406 154.833984 M 132.275391 146.777344 L 142.236328 154.833984 M 132.275391 149.560547 L 140.185547 155.712891 M 132.275391 152.197266 L 137.255859 155.712891 " transform="matrix(0.0266667,0,0,0.0266667,0,0)"/>
<path style="fill-rule:nonzero;fill:rgb(100%,100%,100%);fill-opacity:1;stroke-width:4.463;stroke-linecap:butt;stroke-linejoin:miter;stroke:rgb(85.882353%,8.627451%,10.588235%);stroke-opacity:1;stroke-miterlimit:4;" d="M 265.906318 211.532365 C 265.906318 195.201888 262.067377 182.954031 257.268701 182.954031 C 252.470026 182.954031 247.67135 195.201888 247.67135 211.532365 C 247.67135 223.780222 252.470026 236.02808 257.268701 236.02808 C 262.067377 236.02808 265.906318 223.780222 265.906318 211.532365 Z M 265.906318 211.532365 " transform="matrix(0.00407013,0,0,0.0009568,2.597413,2.602293)"/>
<path style="fill-rule:nonzero;fill:rgb(100%,100%,100%);fill-opacity:1;stroke-width:4.463;stroke-linecap:butt;stroke-linejoin:miter;stroke:rgb(85.882353%,8.627451%,10.588235%);stroke-opacity:1;stroke-miterlimit:4;" d="M 301.416518 245.937413 C 301.416518 229.606936 297.577577 221.441698 292.778902 221.441698 C 287.020491 221.441698 283.18155 229.606936 283.18155 245.937413 C 283.18155 262.267889 287.020491 274.515747 292.778902 274.515747 C 297.577577 274.515747 301.416518 262.267889 301.416518 245.937413 Z M 301.416518 245.937413 " transform="matrix(0.00407013,0,0,0.0009568,2.597413,2.581093)"/>
<path style="fill-rule:nonzero;fill:rgb(100%,100%,100%);fill-opacity:1;stroke-width:4.463;stroke-linecap:butt;stroke-linejoin:miter;stroke:rgb(85.882353%,8.627451%,10.588235%);stroke-opacity:1;stroke-miterlimit:4;" d="M 336.926718 262.616708 C 336.926718 250.368851 333.087778 238.120994 327.329367 238.120994 C 322.530691 238.120994 318.69175 250.368851 318.69175 262.616708 C 318.69175 278.947185 322.530691 291.195043 327.329367 291.195043 C 333.087778 291.195043 336.926718 278.947185 336.926718 262.616708 Z M 336.926718 262.616708 " transform="matrix(0.00407013,0,0,0.0009568,2.597413,2.576853)"/>
<path style="fill-rule:nonzero;fill:rgb(100%,100%,100%);fill-opacity:1;stroke-width:4.463;stroke-linecap:butt;stroke-linejoin:miter;stroke:rgb(85.882353%,8.627451%,10.588235%);stroke-opacity:1;stroke-miterlimit:4;" d="M 372.436919 262.616708 C 372.436919 250.368851 367.638243 238.120994 362.839567 238.120994 C 358.040891 238.120994 354.201951 250.368851 354.201951 262.616708 C 354.201951 278.947185 358.040891 291.195043 362.839567 291.195043 C 367.638243 291.195043 372.436919 278.947185 372.436919 262.616708 Z M 372.436919 262.616708 " transform="matrix(0.00407013,0,0,0.0009568,2.597413,2.576853)"/>
<path style="fill-rule:nonzero;fill:rgb(100%,100%,100%);fill-opacity:1;stroke-width:4.463;stroke-linecap:butt;stroke-linejoin:miter;stroke:rgb(85.882353%,8.627451%,10.588235%);stroke-opacity:1;stroke-miterlimit:4;" d="M 407.947119 245.937413 C 407.947119 229.606936 403.148443 221.441698 398.349767 221.441698 C 393.551092 221.441698 389.712151 229.606936 389.712151 245.937413 C 389.712151 262.267889 393.551092 274.515747 398.349767 274.515747 C 403.148443 274.515747 407.947119 262.267889 407.947119 245.937413 Z M 407.947119 245.937413 " transform="matrix(0.00407013,0,0,0.0009568,2.597413,2.581093)"/>
<path style="fill-rule:nonzero;fill:rgb(100%,100%,100%);fill-opacity:1;stroke-width:4.463;stroke-linecap:butt;stroke-linejoin:miter;stroke:rgb(85.882353%,8.627451%,10.588235%);stroke-opacity:1;stroke-miterlimit:4;" d="M 442.497584 211.532365 C 442.497584 195.201888 438.658643 182.954031 433.859968 182.954031 C 429.061292 182.954031 425.222351 195.201888 425.222351 211.532365 C 425.222351 223.780222 429.061292 236.02808 433.859968 236.02808 C 438.658643 236.02808 442.497584 223.780222 442.497584 211.532365 Z M 442.497584 211.532365 " transform="matrix(0.00407013,0,0,0.0009568,2.597413,2.602293)"/>
<path style="fill-rule:evenodd;fill:rgb(100%,100%,100%);fill-opacity:1;stroke-width:0.352;stroke-linecap:butt;stroke-linejoin:miter;stroke:rgb(85.882353%,8.627451%,10.588235%);stroke-opacity:1;stroke-miterlimit:4;" d="M 92.578125 148.681641 L 128.320312 130.078125 M 90.673828 147.65625 L 124.365234 130.078125 M 89.648438 145.898438 L 120.410156 130.078125 M 88.623047 144.140625 L 115.429688 130.078125 M 86.71875 142.382812 L 111.474609 130.078125 M 87.597656 139.746094 L 104.589844 130.957031 M 86.71875 137.988281 L 99.609375 130.957031 M 86.71875 135.351562 L 95.654297 130.957031 M 95.654297 149.560547 L 129.345703 131.835938 M 98.583984 150.439453 L 130.371094 133.59375 M 101.513672 151.318359 L 131.25 135.351562 M 104.589844 152.197266 L 129.345703 138.867188 M 108.544922 152.197266 L 130.371094 140.625 M 111.474609 153.076172 L 130.371094 143.261719 M 114.404297 153.955078 L 129.345703 145.898438 M 118.359375 153.955078 L 130.371094 147.65625 M 122.314453 154.833984 L 130.371094 150.439453 M 126.269531 154.833984 L 131.25 152.197266 M 133.300781 129.199219 L 128.320312 129.199219 C 126.708984 137.988281 126.708984 146.923828 128.320312 155.712891 L 133.300781 155.712891 C 131.689453 146.923828 131.689453 137.988281 133.300781 129.199219 Z M 74.707031 141.503906 L 86.71875 132.714844 M 74.707031 135.351562 L 86.71875 145.898438 " transform="matrix(0.0266667,0,0,0.0266667,0,0)"/>
<path style="fill-rule:evenodd;fill:rgb(100%,100%,100%);fill-opacity:1;stroke-width:0.251;stroke-linecap:butt;stroke-linejoin:miter;stroke:rgb(85.882353%,8.627451%,10.588235%);stroke-opacity:1;stroke-miterlimit:4;" d="M 92.578125 130.957031 L 86.71875 131.835938 C 85.400391 137.402344 85.400391 142.089844 86.71875 147.65625 L 92.578125 149.560547 C 91.259766 143.847656 91.259766 136.523438 92.578125 130.957031 Z M 92.578125 130.957031 " transform="matrix(0.0266667,0,0,0.0266667,0,0)"/>
<path style="fill-rule:evenodd;fill:rgb(100%,100%,100%);fill-opacity:1;stroke-width:0.431;stroke-linecap:butt;stroke-linejoin:miter;stroke:rgb(85.882353%,8.627451%,10.588235%);stroke-opacity:1;stroke-miterlimit:4;" d="M 164.941406 86.71875 L 164.941406 82.324219 C 160.546875 82.324219 157.470703 79.6875 157.470703 76.904297 L 142.675781 77.050781 C 142.675781 79.6875 139.746094 82.324219 135.205078 82.324219 L 135.205078 86.71875 Z M 164.941406 86.71875 " transform="matrix(0.0266667,0,0,0.0266667,0,0)"/>
<path style="fill-rule:nonzero;fill:rgb(100%,100%,100%);fill-opacity:1;stroke-width:0.364;stroke-linecap:butt;stroke-linejoin:miter;stroke:rgb(85.882353%,8.627451%,10.588235%);stroke-opacity:1;stroke-miterlimit:4;" d="M 143.701172 71.630859 L 156.445312 71.630859 L 156.445312 77.050781 L 143.701172 77.050781 Z M 144.873047 66.357422 L 155.419922 66.357422 L 155.419922 71.630859 L 144.873047 71.630859 Z M 144.873047 61.083984 L 155.419922 61.083984 L 155.419922 66.357422 L 144.873047 66.357422 Z M 144.873047 61.083984 " transform="matrix(0.0266667,0,0,0.0266667,0,0)"/>
<path style="fill-rule:nonzero;fill:rgb(100%,100%,100%);fill-opacity:1;stroke-width:0.364;stroke-linecap:butt;stroke-linejoin:miter;stroke:rgb(85.882353%,8.627451%,10.588235%);stroke-opacity:1;stroke-miterlimit:4;" d="M 145.898438 54.052734 L 154.394531 54.052734 L 154.394531 61.083984 L 145.898438 61.083984 Z M 145.898438 54.052734 " transform="matrix(0.0266667,0,0,0.0266667,0,0)"/>
<path style="fill-rule:nonzero;fill:rgb(100%,100%,100%);fill-opacity:1;stroke-width:0.38;stroke-linecap:butt;stroke-linejoin:miter;stroke:rgb(85.882353%,8.627451%,10.588235%);stroke-opacity:1;stroke-miterlimit:4;" d="M 145.458984 47.900391 L 154.6875 47.900391 L 154.6875 54.052734 L 145.458984 54.052734 Z M 145.458984 47.900391 " transform="matrix(0.0266667,0,0,0.0266667,0,0)"/>
<path style="fill-rule:nonzero;fill:rgb(100%,100%,100%);fill-opacity:1;stroke-width:1.333;stroke-linecap:butt;stroke-linejoin:miter;stroke:rgb(85.882353%,8.627451%,10.588235%);stroke-opacity:1;stroke-miterlimit:4;" d="M 279.802272 161.046155 C 279.802272 142.845691 261.058594 127.580787 237.249058 127.580787 C 213.946107 127.580787 194.695843 142.845691 194.695843 161.046155 C 194.695843 179.83373 213.946107 195.098635 237.249058 195.098635 C 261.058594 195.098635 279.802272 179.83373 279.802272 161.046155 Z M 279.802272 161.046155 " transform="matrix(0.00771093,0,0,0.00665333,2.186213,0.0496)"/>
<path style="fill-rule:evenodd;fill:rgb(100%,100%,100%);fill-opacity:1;stroke-width:0.358;stroke-linecap:butt;stroke-linejoin:miter;stroke:rgb(85.882353%,8.627451%,10.588235%);stroke-opacity:1;stroke-miterlimit:4;" d="M 156.738281 41.601562 C 156.738281 43.945312 159.814453 47.900391 159.814453 47.900391 C 157.617188 49.365234 153.955078 50.537109 150.585938 50.537109 C 147.216797 50.537109 142.96875 49.804688 141.357422 47.900391 C 141.357422 47.900391 144.433594 43.945312 144.433594 41.601562 C 144.433594 39.257812 141.357422 36.328125 141.357422 36.328125 C 143.701172 34.863281 147.216797 33.691406 150.585938 33.691406 C 153.955078 33.691406 157.617188 34.863281 159.814453 36.328125 C 159.814453 36.328125 156.738281 39.257812 156.738281 41.601562 Z M 156.738281 41.601562 " transform="matrix(0.0266667,0,0,0.0266667,0,0)"/>
<path style="fill-rule:evenodd;fill:rgb(100%,100%,100%);fill-opacity:1;stroke-width:0.358;stroke-linecap:butt;stroke-linejoin:miter;stroke:rgb(85.882353%,8.627451%,10.588235%);stroke-opacity:1;stroke-miterlimit:4;" d="M 154.6875 41.601562 C 154.6875 43.945312 157.763672 48.779297 157.763672 48.779297 C 155.566406 50.244141 153.955078 50.537109 150.585938 50.537109 C 147.216797 50.537109 145.019531 50.683594 143.408203 48.779297 C 143.408203 48.779297 146.484375 43.945312 146.484375 41.601562 C 146.484375 39.257812 143.408203 35.449219 143.408203 35.449219 C 145.751953 33.984375 147.216797 33.691406 150.585938 33.691406 C 153.955078 33.691406 155.566406 33.984375 157.763672 35.449219 C 157.763672 35.449219 154.6875 39.257812 154.6875 41.601562 Z M 154.6875 41.601562 " transform="matrix(0.0266667,0,0,0.0266667,0,0)"/>
<path style="fill-rule:nonzero;fill:rgb(100%,100%,100%);fill-opacity:1;stroke-width:1.333;stroke-linecap:butt;stroke-linejoin:miter;stroke:rgb(85.882353%,8.627451%,10.588235%);stroke-opacity:1;stroke-miterlimit:4;" d="M 205.334147 166.354584 C 205.334147 172.225701 200.774874 176.922595 194.695843 176.922595 C 189.123398 176.922595 184.05754 172.225701 184.05754 166.354584 C 184.05754 160.483467 189.123398 155.786573 194.695843 155.786573 C 200.774874 155.786573 205.334147 160.483467 205.334147 166.354584 Z M 205.334147 166.354584 " transform="matrix(0.00771093,0,0,0.00665333,2.186213,0.026)"/>
<path style="fill-rule:nonzero;fill:rgb(100%,100%,100%);fill-opacity:1;stroke-width:1.333;stroke-linecap:butt;stroke-linejoin:miter;stroke:rgb(85.882353%,8.627451%,10.588235%);stroke-opacity:1;stroke-miterlimit:4;" d="M 205.404609 166.354584 C 205.404609 172.225701 200.845336 176.922595 194.766306 176.922595 C 189.193861 176.922595 184.128002 172.225701 184.128002 166.354584 C 184.128002 160.483467 189.193861 155.786573 194.766306 155.786573 C 200.845336 155.786573 205.404609 160.483467 205.404609 166.354584 Z M 205.404609 166.354584 " transform="matrix(0.00771093,0,0,0.00665333,2.84192,0.026)"/>
<path style="fill-rule:nonzero;fill:rgb(100%,100%,100%);fill-opacity:1;stroke-width:1.333;stroke-linecap:butt;stroke-linejoin:miter;stroke:rgb(85.882353%,8.627451%,10.588235%);stroke-opacity:1;stroke-miterlimit:4;" d="M 205.367649 166.354584 C 205.367649 172.225701 200.808376 176.922595 194.729345 176.922595 C 189.156901 176.922595 184.091042 172.225701 184.091042 166.354584 C 184.091042 160.483467 189.156901 155.786573 194.729345 155.786573 C 200.808376 155.786573 205.367649 160.483467 205.367649 166.354584 Z M 205.367649 166.354584 " transform="matrix(0.00771093,0,0,0.00665333,2.51408,0.026)"/>
<path style="fill-rule:nonzero;fill:rgb(100%,100%,100%);fill-opacity:1;stroke-width:1.333;stroke-linecap:butt;stroke-linejoin:miter;stroke:rgb(85.882353%,8.627451%,10.588235%);stroke-opacity:1;stroke-miterlimit:4;" d="M 205.367649 166.558742 C 205.367649 172.42986 200.808376 177.126754 194.729345 177.126754 C 189.156901 177.126754 184.091042 172.42986 184.091042 166.558742 C 184.091042 160.687625 189.156901 155.990731 194.729345 155.990731 C 200.808376 155.990731 205.367649 160.687625 205.367649 166.558742 Z M 205.367649 166.558742 " transform="matrix(0.00771093,0,0,0.00665333,2.51408,-0.209733)"/>
<path style="fill-rule:nonzero;fill:rgb(100%,100%,100%);fill-opacity:1;stroke-width:1.333;stroke-linecap:butt;stroke-linejoin:miter;stroke:rgb(85.882353%,8.627451%,10.588235%);stroke-opacity:1;stroke-miterlimit:4;" d="M 205.720071 166.565256 C 205.720071 172.436373 200.82878 177.133267 194.959231 177.133267 C 189.089683 177.133267 184.198392 172.436373 184.198392 166.565256 C 184.198392 160.694138 189.089683 155.997244 194.959231 155.997244 C 200.82878 155.997244 205.720071 160.694138 205.720071 166.565256 Z M 205.720071 166.565256 " transform="matrix(0.00798613,0,0,0.00665333,2.220373,1.133973)"/>
<path style="fill-rule:nonzero;fill:rgb(100%,100%,100%);fill-opacity:1;stroke-width:1.333;stroke-linecap:butt;stroke-linejoin:miter;stroke:rgb(85.882353%,8.627451%,10.588235%);stroke-opacity:1;stroke-miterlimit:4;" d="M 205.278316 166.565256 C 205.278316 172.436373 200.876154 177.133267 195.006605 177.133267 C 189.137056 177.133267 184.245766 172.436373 184.245766 166.565256 C 184.245766 160.694138 189.137056 155.997244 195.006605 155.997244 C 200.876154 155.997244 205.278316 160.694138 205.278316 166.565256 Z M 205.278316 166.565256 " transform="matrix(0.00798613,0,0,0.00665333,2.67312,1.133973)"/>
<path style="fill-rule:evenodd;fill:rgb(100%,100%,100%);fill-opacity:1;stroke-width:0.364;stroke-linecap:butt;stroke-linejoin:miter;stroke:rgb(85.882353%,8.627451%,10.588235%);stroke-opacity:1;stroke-miterlimit:4;" d="M 142.675781 77.050781 L 157.470703 77.050781 L 150.146484 84.960938 Z M 142.675781 77.050781 " transform="matrix(0.0266667,0,0,0.0266667,0,0)"/>
<path style="fill-rule:nonzero;fill:rgb(100%,100%,100%);fill-opacity:1;stroke-width:1.333;stroke-linecap:butt;stroke-linejoin:miter;stroke:rgb(85.882353%,8.627451%,10.588235%);stroke-opacity:1;stroke-miterlimit:4;" d="M 205.595981 166.575858 C 205.595981 172.300312 200.827013 177.144081 194.957513 177.144081 C 189.088013 177.144081 184.319044 172.300312 184.319044 166.575858 C 184.319044 160.851404 189.088013 156.007635 194.957513 156.007635 C 200.827013 156.007635 205.595981 160.851404 205.595981 166.575858 Z M 205.595981 166.575858 " transform="matrix(0.0106483,0,0,0.00887093,1.927947,0.741067)"/>
<path style="fill-rule:nonzero;fill:rgb(100%,100%,100%);fill-opacity:1;stroke-width:0.33;stroke-linecap:butt;stroke-linejoin:miter;stroke:rgb(85.882353%,8.627451%,10.588235%);stroke-opacity:1;stroke-miterlimit:4;" d="M 135.058594 109.716797 L 155.273438 109.716797 C 156.005859 109.716797 156.591797 110.15625 156.591797 110.595703 L 156.591797 114.111328 C 156.591797 114.550781 156.005859 114.990234 155.273438 114.990234 L 135.058594 114.990234 C 134.326172 114.990234 133.740234 114.550781 133.740234 114.111328 L 133.740234 110.595703 C 133.740234 110.15625 134.326172 109.716797 135.058594 109.716797 Z M 135.058594 109.716797 " transform="matrix(0.0266667,0,0,0.0266667,0,0)"/>
<path style="fill-rule:evenodd;fill:rgb(100%,100%,100%);fill-opacity:1;stroke-width:0.33;stroke-linecap:butt;stroke-linejoin:miter;stroke:rgb(85.882353%,8.627451%,10.588235%);stroke-opacity:1;stroke-miterlimit:4;" d="M 163.476562 105.322266 C 160.839844 105.322266 158.496094 107.373047 158.496094 109.863281 L 158.496094 113.964844 C 158.496094 116.455078 160.839844 118.505859 163.476562 118.505859 C 166.259766 118.505859 168.457031 116.455078 168.457031 113.964844 L 168.457031 109.863281 C 168.457031 107.373047 166.259766 105.322266 163.476562 105.322266 Z M 163.476562 107.080078 C 161.865234 107.080078 160.546875 108.691406 160.546875 110.742188 L 160.546875 113.085938 C 160.546875 115.136719 161.865234 116.748047 163.476562 116.748047 C 165.234375 116.748047 166.552734 115.136719 166.552734 113.085938 L 166.552734 110.742188 C 166.552734 108.691406 165.234375 107.080078 163.476562 107.080078 Z M 137.695312 106.201172 C 136.083984 106.201172 134.765625 107.8125 134.765625 109.863281 L 134.765625 113.964844 C 134.765625 116.015625 136.083984 117.626953 137.695312 117.626953 C 139.453125 117.626953 140.771484 116.015625 140.771484 113.964844 L 140.771484 109.863281 C 140.771484 107.8125 139.453125 106.201172 137.695312 106.201172 Z M 137.695312 104.443359 C 135.058594 104.443359 132.714844 106.494141 132.714844 108.984375 L 132.714844 114.84375 C 132.714844 117.333984 135.058594 119.384766 137.695312 119.384766 C 140.478516 119.384766 142.675781 117.333984 142.675781 114.84375 L 142.675781 108.984375 C 142.675781 106.494141 140.478516 104.443359 137.695312 104.443359 Z M 137.695312 104.443359 " transform="matrix(0.0266667,0,0,0.0266667,0,0)"/>
<path style="fill-rule:evenodd;fill:rgb(100%,100%,100%);fill-opacity:1;stroke-width:0.33;stroke-linecap:butt;stroke-linejoin:miter;stroke:rgb(85.882353%,8.627451%,10.588235%);stroke-opacity:1;stroke-miterlimit:4;" d="M 129.785156 107.958984 C 128.173828 107.958984 126.855469 109.570312 126.855469 111.621094 L 126.855469 112.646484 C 126.855469 114.697266 128.173828 116.308594 129.785156 116.308594 C 131.396484 116.308594 132.714844 114.697266 132.714844 112.646484 L 132.714844 111.621094 C 132.714844 109.570312 131.396484 107.958984 129.785156 107.958984 Z M 129.785156 106.201172 C 127.001953 106.201172 124.804688 108.251953 124.804688 110.742188 L 124.804688 113.525391 C 124.804688 116.015625 127.001953 118.066406 129.785156 118.066406 C 132.568359 118.066406 134.765625 116.015625 134.765625 113.525391 L 134.765625 110.742188 C 134.765625 108.251953 132.568359 106.201172 129.785156 106.201172 Z M 129.785156 106.201172 " transform="matrix(0.0266667,0,0,0.0266667,0,0)"/>
<path style="fill-rule:evenodd;fill:rgb(100%,100%,100%);fill-opacity:1;stroke-width:0.33;stroke-linecap:butt;stroke-linejoin:miter;stroke:rgb(85.882353%,8.627451%,10.588235%);stroke-opacity:1;stroke-miterlimit:4;" d="M 117.919922 105.46875 C 114.990234 105.46875 112.5 107.373047 112.5 109.570312 L 112.5 114.257812 C 112.5 116.455078 114.990234 118.359375 117.919922 118.359375 C 120.849609 118.359375 123.193359 116.455078 123.193359 114.257812 L 123.193359 109.570312 C 123.193359 107.373047 120.849609 105.46875 117.919922 105.46875 Z M 117.919922 103.564453 C 112.939453 103.564453 108.984375 105.908203 108.984375 108.691406 L 108.984375 115.136719 C 108.984375 118.066406 112.939453 120.263672 117.919922 120.263672 C 122.900391 120.263672 126.855469 118.066406 126.855469 115.136719 L 126.855469 108.691406 C 126.855469 105.908203 122.900391 103.564453 117.919922 103.564453 Z M 182.373047 106.347656 C 179.443359 106.347656 176.953125 108.251953 176.953125 110.595703 L 176.953125 115.136719 C 176.953125 117.333984 179.443359 119.238281 182.373047 119.238281 C 185.302734 119.238281 187.646484 117.333984 187.646484 115.136719 L 187.646484 110.595703 C 187.646484 108.251953 185.302734 106.347656 182.373047 106.347656 Z M 182.373047 104.443359 C 177.392578 104.443359 173.4375 106.787109 173.4375 109.570312 L 173.4375 116.015625 C 173.4375 118.945312 177.392578 121.142578 182.373047 121.142578 C 187.353516 121.142578 191.308594 118.945312 191.308594 116.015625 L 191.308594 109.570312 C 191.308594 106.787109 187.353516 104.443359 182.373047 104.443359 Z M 182.373047 104.443359 " transform="matrix(0.0266667,0,0,0.0266667,0,0)"/>
<path style="fill-rule:nonzero;fill:rgb(100%,100%,100%);fill-opacity:1;stroke-width:0.33;stroke-linecap:butt;stroke-linejoin:miter;stroke:rgb(85.882353%,8.627451%,10.588235%);stroke-opacity:1;stroke-miterlimit:4;" d="M 166.113281 109.716797 L 176.806641 109.716797 C 177.099609 109.716797 177.392578 110.15625 177.392578 110.595703 L 177.392578 114.111328 C 177.392578 114.550781 177.099609 114.990234 176.806641 114.990234 L 166.113281 114.990234 C 165.820312 114.990234 165.527344 114.550781 165.527344 114.111328 L 165.527344 110.595703 C 165.527344 110.15625 165.820312 109.716797 166.113281 109.716797 Z M 166.113281 109.716797 " transform="matrix(0.0266667,0,0,0.0266667,0,0)"/>
<path style="fill-rule:nonzero;fill:rgb(100%,100%,100%);fill-opacity:1;stroke-width:0.33;stroke-linecap:butt;stroke-linejoin:miter;stroke:rgb(85.882353%,8.627451%,10.588235%);stroke-opacity:1;stroke-miterlimit:4;" d="M 154.980469 108.837891 L 161.132812 108.837891 C 161.425781 108.837891 161.572266 109.423828 161.572266 110.15625 L 161.572266 114.697266 C 161.572266 115.283203 161.425781 115.869141 161.132812 115.869141 L 154.980469 115.869141 C 154.833984 115.869141 154.541016 115.283203 154.541016 114.697266 L 154.541016 110.15625 C 154.541016 109.423828 154.833984 108.837891 154.980469 108.837891 Z M 154.980469 108.837891 " transform="matrix(0.0266667,0,0,0.0266667,0,0)"/>
<path style="fill-rule:nonzero;fill:rgb(100%,100%,100%);fill-opacity:1;stroke-width:0.33;stroke-linecap:butt;stroke-linejoin:miter;stroke:rgb(85.882353%,8.627451%,10.588235%);stroke-opacity:1;stroke-miterlimit:4;" d="M 122.314453 108.837891 L 128.466797 108.837891 C 128.613281 108.837891 128.759766 109.423828 128.759766 110.15625 L 128.759766 114.697266 C 128.759766 115.283203 128.613281 115.869141 128.466797 115.869141 L 122.314453 115.869141 C 122.021484 115.869141 121.875 115.283203 121.875 114.697266 L 121.875 110.15625 C 121.875 109.423828 122.021484 108.837891 122.314453 108.837891 Z M 122.314453 108.837891 " transform="matrix(0.0266667,0,0,0.0266667,0,0)"/>
<path style="fill-rule:nonzero;fill:rgb(100%,100%,100%);fill-opacity:1;stroke-width:0.33;stroke-linecap:butt;stroke-linejoin:miter;stroke:rgb(85.882353%,8.627451%,10.588235%);stroke-opacity:1;stroke-miterlimit:4;" d="M 100.78125 107.958984 L 113.232422 107.958984 C 113.671875 107.958984 113.964844 108.691406 113.964844 109.570312 L 113.964844 115.283203 C 113.964844 116.162109 113.671875 116.748047 113.232422 116.748047 L 100.78125 116.748047 C 100.341797 116.748047 100.048828 116.162109 100.048828 115.283203 L 100.048828 109.570312 C 100.048828 108.691406 100.341797 107.958984 100.78125 107.958984 Z M 100.78125 107.958984 " transform="matrix(0.0266667,0,0,0.0266667,0,0)"/>
<path style="fill-rule:nonzero;fill:rgb(100%,100%,100%);fill-opacity:1;stroke-width:0.33;stroke-linecap:butt;stroke-linejoin:miter;stroke:rgb(85.882353%,8.627451%,10.588235%);stroke-opacity:1;stroke-miterlimit:4;" d="M 187.060547 108.837891 L 198.486328 108.837891 C 198.925781 108.837891 199.21875 109.570312 199.21875 110.449219 L 199.21875 116.162109 C 199.21875 117.041016 198.925781 117.626953 198.486328 117.626953 L 187.060547 117.626953 C 186.621094 117.626953 186.328125 117.041016 186.328125 116.162109 L 186.328125 110.449219 C 186.328125 109.570312 186.621094 108.837891 187.060547 108.837891 Z M 187.060547 108.837891 " transform="matrix(0.0266667,0,0,0.0266667,0,0)"/>
</g>
</svg>
