<?xml version="1.0" encoding="UTF-8"?>
<svg xmlns="http://www.w3.org/2000/svg" xmlns:xlink="http://www.w3.org/1999/xlink" width="24px" height="16px" viewBox="0 0 24 16" version="1.1">
<defs>
<clipPath id="clip1">
  <path d="M 8 4 L 16 4 L 16 9 L 8 9 Z M 8 4 "/>
</clipPath>
<clipPath id="clip2">
  <path d="M 15.441406 8.015625 C 15.441406 6.066406 13.898438 4.484375 12 4.484375 C 10.101562 4.484375 8.558594 6.066406 8.558594 8.015625 C 8.558594 9.96875 10.101562 11.550781 12 11.550781 C 13.898438 11.550781 15.441406 9.96875 15.441406 8.015625 Z M 15.441406 8.015625 "/>
</clipPath>
<clipPath id="clip3">
  <path d="M 10 10 L 14 10 L 14 12 L 10 12 Z M 10 10 "/>
</clipPath>
<clipPath id="clip4">
  <path d="M 15.441406 8.015625 C 15.441406 6.066406 13.898438 4.484375 12 4.484375 C 10.101562 4.484375 8.558594 6.066406 8.558594 8.015625 C 8.558594 9.96875 10.101562 11.550781 12 11.550781 C 13.898438 11.550781 15.441406 9.96875 15.441406 8.015625 Z M 15.441406 8.015625 "/>
</clipPath>
<clipPath id="clip5">
  <path d="M 8 8 L 16 8 L 16 11 L 8 11 Z M 8 8 "/>
</clipPath>
<clipPath id="clip6">
  <path d="M 15.441406 8.015625 C 15.441406 6.066406 13.898438 4.484375 12 4.484375 C 10.101562 4.484375 8.558594 6.066406 8.558594 8.015625 C 8.558594 9.96875 10.101562 11.550781 12 11.550781 C 13.898438 11.550781 15.441406 9.96875 15.441406 8.015625 Z M 15.441406 8.015625 "/>
</clipPath>
<clipPath id="clip7">
  <path d="M 8 8 L 16 8 L 16 12 L 8 12 Z M 8 8 "/>
</clipPath>
<clipPath id="clip8">
  <path d="M 15.441406 8.015625 C 15.441406 6.066406 13.898438 4.484375 12 4.484375 C 10.101562 4.484375 8.558594 6.066406 8.558594 8.015625 C 8.558594 9.96875 10.101562 11.550781 12 11.550781 C 13.898438 11.550781 15.441406 9.96875 15.441406 8.015625 Z M 15.441406 8.015625 "/>
</clipPath>
<clipPath id="clip9">
  <path d="M 9 4 L 14 4 L 14 10 L 9 10 Z M 9 4 "/>
</clipPath>
<clipPath id="clip10">
  <path d="M 15.441406 8.015625 C 15.441406 6.066406 13.898438 4.484375 12 4.484375 C 10.101562 4.484375 8.558594 6.066406 8.558594 8.015625 C 8.558594 9.96875 10.101562 11.550781 12 11.550781 C 13.898438 11.550781 15.441406 9.96875 15.441406 8.015625 Z M 15.441406 8.015625 "/>
</clipPath>
<clipPath id="clip11">
  <path d="M 10 8 L 14 8 L 14 9 L 10 9 Z M 10 8 "/>
</clipPath>
<clipPath id="clip12">
  <path d="M 15.441406 8.015625 C 15.441406 6.066406 13.898438 4.484375 12 4.484375 C 10.101562 4.484375 8.558594 6.066406 8.558594 8.015625 C 8.558594 9.96875 10.101562 11.550781 12 11.550781 C 13.898438 11.550781 15.441406 9.96875 15.441406 8.015625 Z M 15.441406 8.015625 "/>
</clipPath>
<clipPath id="clip13">
  <path d="M 9 7 L 15 7 L 15 10 L 9 10 Z M 9 7 "/>
</clipPath>
<clipPath id="clip14">
  <path d="M 15.441406 8.015625 C 15.441406 6.066406 13.898438 4.484375 12 4.484375 C 10.101562 4.484375 8.558594 6.066406 8.558594 8.015625 C 8.558594 9.96875 10.101562 11.550781 12 11.550781 C 13.898438 11.550781 15.441406 9.96875 15.441406 8.015625 Z M 15.441406 8.015625 "/>
</clipPath>
<clipPath id="clip15">
  <path d="M 10 7 L 12 7 L 12 9 L 10 9 Z M 10 7 "/>
</clipPath>
<clipPath id="clip16">
  <path d="M 15.441406 8.015625 C 15.441406 6.066406 13.898438 4.484375 12 4.484375 C 10.101562 4.484375 8.558594 6.066406 8.558594 8.015625 C 8.558594 9.96875 10.101562 11.550781 12 11.550781 C 13.898438 11.550781 15.441406 9.96875 15.441406 8.015625 Z M 15.441406 8.015625 "/>
</clipPath>
<clipPath id="clip17">
  <path d="M 11 7 L 12 7 L 12 9 L 11 9 Z M 11 7 "/>
</clipPath>
<clipPath id="clip18">
  <path d="M 15.441406 8.015625 C 15.441406 6.066406 13.898438 4.484375 12 4.484375 C 10.101562 4.484375 8.558594 6.066406 8.558594 8.015625 C 8.558594 9.96875 10.101562 11.550781 12 11.550781 C 13.898438 11.550781 15.441406 9.96875 15.441406 8.015625 Z M 15.441406 8.015625 "/>
</clipPath>
<clipPath id="clip19">
  <path d="M 10 7 L 13 7 L 13 9 L 10 9 Z M 10 7 "/>
</clipPath>
<clipPath id="clip20">
  <path d="M 15.441406 8.015625 C 15.441406 6.066406 13.898438 4.484375 12 4.484375 C 10.101562 4.484375 8.558594 6.066406 8.558594 8.015625 C 8.558594 9.96875 10.101562 11.550781 12 11.550781 C 13.898438 11.550781 15.441406 9.96875 15.441406 8.015625 Z M 15.441406 8.015625 "/>
</clipPath>
<clipPath id="clip21">
  <path d="M 11 7 L 13 7 L 13 9 L 11 9 Z M 11 7 "/>
</clipPath>
<clipPath id="clip22">
  <path d="M 15.441406 8.015625 C 15.441406 6.066406 13.898438 4.484375 12 4.484375 C 10.101562 4.484375 8.558594 6.066406 8.558594 8.015625 C 8.558594 9.96875 10.101562 11.550781 12 11.550781 C 13.898438 11.550781 15.441406 9.96875 15.441406 8.015625 Z M 15.441406 8.015625 "/>
</clipPath>
<clipPath id="clip23">
  <path d="M 12 7 L 13 7 L 13 9 L 12 9 Z M 12 7 "/>
</clipPath>
<clipPath id="clip24">
  <path d="M 15.441406 8.015625 C 15.441406 6.066406 13.898438 4.484375 12 4.484375 C 10.101562 4.484375 8.558594 6.066406 8.558594 8.015625 C 8.558594 9.96875 10.101562 11.550781 12 11.550781 C 13.898438 11.550781 15.441406 9.96875 15.441406 8.015625 Z M 15.441406 8.015625 "/>
</clipPath>
<clipPath id="clip25">
  <path d="M 11 7 L 14 7 L 14 9 L 11 9 Z M 11 7 "/>
</clipPath>
<clipPath id="clip26">
  <path d="M 15.441406 8.015625 C 15.441406 6.066406 13.898438 4.484375 12 4.484375 C 10.101562 4.484375 8.558594 6.066406 8.558594 8.015625 C 8.558594 9.96875 10.101562 11.550781 12 11.550781 C 13.898438 11.550781 15.441406 9.96875 15.441406 8.015625 Z M 15.441406 8.015625 "/>
</clipPath>
<clipPath id="clip27">
  <path d="M 12 7 L 14 7 L 14 9 L 12 9 Z M 12 7 "/>
</clipPath>
<clipPath id="clip28">
  <path d="M 15.441406 8.015625 C 15.441406 6.066406 13.898438 4.484375 12 4.484375 C 10.101562 4.484375 8.558594 6.066406 8.558594 8.015625 C 8.558594 9.96875 10.101562 11.550781 12 11.550781 C 13.898438 11.550781 15.441406 9.96875 15.441406 8.015625 Z M 15.441406 8.015625 "/>
</clipPath>
</defs>
<g id="surface1">
<rect x="0" y="0" width="24" height="16" style="fill:rgb(80.784314%,6.666667%,14.901961%);fill-opacity:1;stroke:none;"/>
<path style=" stroke:none;fill-rule:nonzero;fill:rgb(100%,100%,100%);fill-opacity:1;" d="M 0 4 L 24 4 L 24 12 L 0 12 Z M 0 4 "/>
<g clip-path="url(#clip1)" clip-rule="nonzero">
<g clip-path="url(#clip2)" clip-rule="nonzero">
<path style=" stroke:none;fill-rule:nonzero;fill:rgb(100%,61.176471%,6.27451%);fill-opacity:1;" d="M 10.507812 7.597656 L 10.507812 7.367188 L 11.089844 7.617188 Z M 10.507812 7.253906 L 10.507812 6.867188 C 10.507812 6.867188 10.4375 6.878906 10.449219 6.800781 C 10.449219 6.640625 10.875 7.09375 11.09375 7.242188 L 11.085938 7.550781 Z M 9.796875 8.5625 L 9.796875 7.800781 L 8.394531 7.734375 L 8.570312 8.550781 Z M 9.816406 7.628906 L 9.804688 7.089844 L 8.53125 6.589844 L 8.511719 7.503906 Z M 9.777344 6.90625 L 9.917969 6.757812 C 9.917969 6.757812 9.828125 6.695312 9.832031 6.640625 C 9.832031 6.582031 9.925781 6.570312 9.925781 6.507812 C 9.925781 6.449219 9.824219 6.441406 9.820312 6.382812 C 9.816406 6.320312 9.902344 6.253906 9.902344 6.253906 L 8.996094 5.472656 L 8.773438 6.425781 Z M 14.058594 8.5625 L 14.050781 7.820312 L 15.46875 7.714844 L 15.351562 8.5625 Z M 15.382812 7.492188 C 15.367188 7.371094 15.351562 7.25 15.324219 7.132812 C 13.601562 6.890625 12.285156 5.472656 12.171875 3.738281 C 12.058594 2 13.183594 0.425781 14.859375 -0.0390625 C 14.855469 -0.0507812 14.847656 -0.0585938 14.84375 -0.0703125 L 13.738281 0.394531 L 13.746094 0.941406 Z M 14.628906 5.710938 L 13.964844 6.210938 C 13.96875 6.261719 14.015625 6.296875 14.027344 6.34375 C 14.058594 6.40625 13.996094 6.464844 13.960938 6.507812 C 13.929688 6.550781 13.996094 6.574219 14.015625 6.597656 C 14.066406 6.648438 14.023438 6.722656 13.972656 6.753906 C 14.035156 6.789062 14.066406 6.859375 14.078125 6.925781 L 15.070312 6.410156 C 14.953125 6.160156 14.804688 5.925781 14.628906 5.710938 Z M 13.339844 7.609375 L 13.347656 7.386719 L 12.785156 7.632812 Z M 12.78125 7.261719 C 12.78125 7.261719 13.304688 6.792969 13.417969 6.707031 C 13.417969 6.804688 13.359375 6.878906 13.359375 6.878906 L 13.359375 7.242188 L 12.785156 7.511719 Z M 9.378906 5.40625 L 9.964844 6.054688 C 9.984375 5.992188 10.117188 5.984375 10.253906 5.992188 C 10.390625 6.003906 10.496094 5.984375 10.496094 6.082031 C 10.496094 6.175781 10.429688 6.164062 10.429688 6.230469 C 10.429688 6.296875 10.53125 6.292969 10.53125 6.378906 C 10.53125 6.464844 10.457031 6.449219 10.457031 6.515625 C 10.457031 6.570312 10.535156 6.574219 10.535156 6.574219 L 11.085938 7.101562 L 11.089844 6.535156 L 9.953125 4.773438 Z M 10.289062 4.738281 L 11.058594 6.296875 C 11.058594 6.296875 11.066406 4.859375 11.199219 4.78125 L 10.980469 4.386719 Z M 12.777344 4.574219 L 12.488281 5.566406 C 10.941406 7.199219 8.367188 7.261719 6.738281 5.714844 C 5.105469 4.167969 5.042969 1.589844 6.589844 -0.0390625 C 6.671875 -0.03125 6.609375 0.046875 6.613281 0.0898438 L 6.609375 0.703125 L 7.425781 -0.734375 C 7.238281 -0.832031 7.039062 -0.90625 6.839844 -0.972656 C 6.871094 -0.660156 6.847656 -0.34375 6.769531 -0.0390625 Z M 13.789062 4.988281 L 12.785156 6.535156 L 12.78125 7.132812 C 13.007812 6.917969 13.230469 6.707031 13.457031 6.492188 C 13.5 6.433594 13.320312 6.402344 13.410156 6.332031 C 13.488281 6.304688 13.503906 6.175781 13.417969 6.152344 C 13.347656 6.046875 13.480469 5.996094 13.566406 6.003906 C 13.679688 6.011719 13.800781 5.980469 13.914062 6.011719 C 13.976562 6.074219 14.035156 5.921875 14.097656 5.886719 C 14.21875 5.765625 14.339844 5.644531 14.460938 5.519531 C 13.414062 5.039062 12.703125 4.039062 12.59375 2.894531 C 12.484375 1.75 12.992188 0.632812 13.925781 -0.0390625 Z M 13.789062 4.988281 "/>
</g>
</g>
<g clip-path="url(#clip3)" clip-rule="nonzero">
<g clip-path="url(#clip4)" clip-rule="nonzero">
<path style="fill-rule:nonzero;fill:rgb(3.137255%,23.921569%,61.176471%);fill-opacity:1;stroke-width:2.053;stroke-linecap:butt;stroke-linejoin:miter;stroke:rgb(3.137255%,23.921569%,61.176471%);stroke-opacity:1;stroke-miterlimit:4;" d="M 279.918157 275.364702 C 273.679137 275.754641 267.537603 279.946482 264.613062 282.188629 C 269.877235 284.430777 275.336377 286.185501 281.282942 287.452802 C 290.641471 289.012557 300 289.012557 309.358529 289.012557 C 310.918284 288.817587 312.380554 288.525133 313.940309 288.330164 L 333.632214 281.701206 C 333.632214 281.701206 324.1762 275.364702 316.66988 275.657156 C 309.066075 275.94961 303.996872 283.260961 297.952822 282.773537 C 291.908772 282.188629 289.471655 275.364702 280.698034 275.364702 C 280.40558 275.364702 280.113126 275.364702 279.918157 275.364702 Z M 279.918157 275.364702 " transform="matrix(0.0400704,0,0,0.0400704,-0.02112,-0.03788)"/>
</g>
</g>
<g clip-path="url(#clip5)" clip-rule="nonzero">
<g clip-path="url(#clip6)" clip-rule="nonzero">
<path style=" stroke:none;fill-rule:nonzero;fill:rgb(3.137255%,23.921569%,61.176471%);fill-opacity:1;" d="M 14.253906 10.8125 C 14.253906 10.8125 13.863281 10.398438 13.40625 10.390625 C 12.949219 10.378906 13.074219 10.582031 12.726562 10.609375 C 12.375 10.640625 12.289062 10.398438 11.964844 10.410156 C 11.644531 10.417969 11.460938 10.609375 11.214844 10.621094 C 10.972656 10.628906 10.660156 10.378906 10.476562 10.390625 C 10.292969 10.398438 9.628906 10.679688 9.628906 10.679688 L 9.757812 10.792969 Z M 9.183594 10.265625 L 14.730469 10.285156 C 14.816406 10.160156 14.457031 9.859375 14.125 9.832031 C 13.855469 9.839844 13.660156 10.109375 13.4375 10.121094 C 13.210938 10.128906 12.957031 9.839844 12.707031 9.851562 C 12.453125 9.859375 12.191406 10.121094 11.9375 10.121094 C 11.683594 10.121094 11.5 9.839844 11.175781 9.839844 C 10.855469 9.839844 10.710938 10.148438 10.46875 10.128906 C 10.222656 10.109375 10.007812 9.820312 9.777344 9.820312 C 9.542969 9.820312 9.152344 10.167969 9.074219 10.148438 C 8.996094 10.128906 9.183594 10.265625 9.183594 10.265625 Z M 11.328125 9.734375 L 12.566406 9.734375 C 12.566406 9.734375 12.289062 9.308594 11.945312 9.339844 C 11.566406 9.347656 11.328125 9.734375 11.328125 9.734375 Z M 15.277344 9.703125 L 13.582031 9.703125 C 13.582031 9.703125 13.800781 9.574219 13.859375 9.457031 C 13.96875 9.515625 13.941406 9.574219 14.160156 9.585938 C 14.378906 9.59375 14.589844 9.339844 14.796875 9.347656 C 15.007812 9.359375 15.277344 9.703125 15.277344 9.703125 Z M 8.597656 9.703125 L 10.292969 9.703125 C 10.292969 9.703125 10.074219 9.574219 10.011719 9.457031 C 9.902344 9.515625 9.933594 9.574219 9.714844 9.585938 C 9.496094 9.59375 9.285156 9.339844 9.078125 9.347656 C 8.867188 9.359375 8.597656 9.703125 8.597656 9.703125 Z M 9.929688 9.1875 C 9.929688 9.1875 9.855469 9.023438 9.84375 8.820312 C 9.53125 8.714844 9.28125 9.050781 9.054688 9.0625 C 8.832031 9.070312 8.597656 8.820312 8.597656 8.820312 L 8.726562 9.175781 Z M 15.167969 9.175781 L 13.960938 9.1875 C 13.960938 9.1875 14.039062 9.023438 14.050781 8.820312 C 14.359375 8.714844 14.613281 9.050781 14.835938 9.0625 C 15.0625 9.070312 15.292969 8.820312 15.292969 8.820312 Z M 11.636719 9.1875 L 12.25 9.1875 C 12.25 9.1875 12.257812 8.984375 11.9375 8.984375 C 11.617188 8.984375 11.636719 9.1875 11.636719 9.1875 Z M 11.636719 9.1875 "/>
</g>
</g>
<g clip-path="url(#clip7)" clip-rule="nonzero">
<g clip-path="url(#clip8)" clip-rule="nonzero">
<path style="fill:none;stroke-width:1.929;stroke-linecap:butt;stroke-linejoin:miter;stroke:rgb(3.137255%,23.921569%,61.176471%);stroke-opacity:1;stroke-miterlimit:4;" d="M 356.248659 270.782922 C 356.248659 270.782922 346.500191 260.449546 335.094484 260.254577 C 323.688777 259.962123 326.808286 265.031326 318.13215 265.713719 C 309.358529 266.493596 307.213866 260.449546 299.122638 260.742 C 291.128894 260.93697 286.547115 265.713719 280.40558 266.006173 C 274.36153 266.201142 266.562756 259.962123 261.980976 260.254577 C 257.399196 260.449546 240.826801 267.468443 240.826801 267.468443 L 244.043795 270.295499 Z M 229.713548 257.135067 L 368.141789 257.622491 C 370.286452 254.502981 361.317862 246.996661 353.031664 246.314268 C 346.305222 246.509237 341.430988 253.23568 335.874361 253.528134 C 330.22025 253.723104 323.883746 246.509237 317.644727 246.801692 C 311.308223 246.996661 304.776749 253.528134 298.440245 253.528134 C 292.103741 253.528134 287.521961 246.509237 279.430733 246.509237 C 271.43699 246.509237 267.830057 254.210527 261.786007 253.723104 C 255.644472 253.23568 250.282815 246.021814 244.531219 246.021814 C 238.682138 246.021814 228.93367 254.69795 226.983977 254.210527 C 225.034283 253.723104 229.713548 257.135067 229.713548 257.135067 Z M 283.232636 243.877151 L 314.135278 243.877151 C 314.135278 243.877151 307.213866 233.251321 298.635215 234.031199 C 289.179201 234.226168 283.232636 243.877151 283.232636 243.877151 Z M 381.789644 243.097274 L 339.481294 243.097274 C 339.481294 243.097274 344.940436 239.880279 346.402706 236.955739 C 349.132277 238.418009 348.449884 239.880279 353.909026 240.172733 C 359.368168 240.367703 364.632341 234.031199 369.799029 234.226168 C 375.063201 234.518622 381.789644 243.097274 381.789644 243.097274 Z M 215.090846 243.097274 L 257.399196 243.097274 C 257.399196 243.097274 251.940054 239.880279 250.380299 236.955739 C 247.650728 238.418009 248.430606 239.880279 242.971464 240.172733 C 237.512322 240.367703 232.24815 234.031199 227.081462 234.226168 C 221.817289 234.518622 215.090846 243.097274 215.090846 243.097274 Z M 248.333121 230.229296 C 248.333121 230.229296 246.480912 226.13494 246.188458 221.065737 C 238.389684 218.433651 232.150665 226.817333 226.496554 227.109787 C 220.939927 227.304756 215.090846 221.065737 215.090846 221.065737 L 218.307841 229.936842 Z M 379.060073 229.936842 L 348.937308 230.229296 C 348.937308 230.229296 350.887001 226.13494 351.179455 221.065737 C 358.880745 218.433651 365.217249 226.817333 370.773875 227.109787 C 376.427987 227.304756 382.179583 221.065737 382.179583 221.065737 Z M 290.933925 230.229296 L 306.239019 230.229296 C 306.239019 230.229296 306.433989 225.160093 298.440245 225.160093 C 290.446502 225.160093 290.933925 230.229296 290.933925 230.229296 Z M 290.933925 230.229296 " transform="matrix(0.0400704,0,0,0.0400704,-0.02112,-0.03788)"/>
</g>
</g>
<g clip-path="url(#clip9)" clip-rule="nonzero">
<g clip-path="url(#clip10)" clip-rule="nonzero">
<path style="fill-rule:nonzero;fill:rgb(80.784314%,6.666667%,14.901961%);fill-opacity:1;stroke-width:1.929;stroke-linecap:butt;stroke-linejoin:round;stroke:rgb(38.823529%,3.137255%,6.27451%);stroke-opacity:1;stroke-miterlimit:4;" d="M 282.842697 180.999535 L 314.720186 189.383217 L 314.720186 144.540265 C 300.097485 145.222658 288.009385 117.147071 313.745339 115.197378 C 288.496808 111.590445 285.572268 118.121918 282.647727 125.04333 Z M 289.959078 221.55316 C 283.037666 232.861383 264.515578 229.546904 260.226252 221.650645 C 258.861466 221.260706 259.641344 172.810822 259.641344 172.810822 C 259.641344 172.810822 257.594166 171.93346 257.496681 170.373705 C 257.399196 168.911435 260.323736 168.81395 260.323736 166.864256 C 260.323736 164.914563 257.301711 165.69444 257.301711 163.744747 C 257.301711 161.892538 260.421221 162.184992 260.323736 160.430268 C 260.128767 158.480574 256.814288 158.773028 256.619319 157.018304 C 256.521834 155.653519 259.056436 154.386218 259.738828 153.703825 L 257.399196 153.703825 L 252.135024 153.80131 C 248.333121 153.80131 252.135024 154.581187 252.135024 156.72585 C 252.037539 158.18812 250.18533 159.065482 249.990361 160.332783 C 249.990361 161.600084 252.719932 162.477446 252.719932 163.939716 C 252.817416 165.304502 250.087845 165.401986 250.18533 166.669287 C 250.282815 168.716465 252.524962 169.203889 252.524962 170.471189 C 252.524962 171.73849 249.502937 172.225914 249.502937 173.298245 C 249.600422 175.247939 249.892876 223.112915 249.892876 223.112915 C 254.669625 247.484084 282.160304 253.625619 289.959078 221.55316 Z M 308.091228 221.55316 C 315.01264 232.861383 333.437244 229.546904 337.824055 221.650645 C 339.091355 221.260706 338.311478 172.810822 338.311478 172.810822 C 338.311478 172.810822 340.358656 171.93346 340.456141 170.373705 C 340.553626 168.911435 337.824055 168.81395 337.824055 166.864256 C 337.824055 164.914563 340.65111 165.69444 340.748595 163.744747 C 340.65111 161.892538 337.824055 161.990023 337.921539 160.332783 C 338.116509 158.38309 340.358656 158.578059 340.553626 156.823335 C 340.65111 155.26358 339.091355 154.386218 338.408963 153.703825 L 340.65111 153.703825 L 345.915283 153.80131 C 349.619701 153.80131 345.817798 154.581187 345.915283 156.72585 C 345.915283 158.18812 347.767492 159.065482 347.962461 160.332783 C 348.059946 161.600084 345.330375 162.477446 345.23289 163.939716 C 345.23289 165.304502 347.962461 165.401986 347.864976 166.669287 C 347.670007 168.716465 345.427859 169.203889 345.427859 170.471189 C 345.525344 171.73849 348.449884 172.225914 348.449884 173.298245 C 348.3524 175.247939 348.059946 223.112915 348.059946 223.112915 C 343.283197 247.484084 315.792518 253.625619 308.091228 221.55316 Z M 308.091228 221.55316 " transform="matrix(0.0400704,0,0,0.0400704,-0.02112,-0.03788)"/>
</g>
</g>
<g clip-path="url(#clip11)" clip-rule="nonzero">
<g clip-path="url(#clip12)" clip-rule="nonzero">
<path style=" stroke:none;fill-rule:nonzero;fill:rgb(38.823529%,3.137255%,6.27451%);fill-opacity:1;" d="M 11.265625 8.925781 C 11.371094 8.871094 11.46875 8.8125 11.539062 8.675781 L 11.117188 8.6875 C 11.117188 8.6875 10.925781 8.800781 10.828125 8.925781 Z M 12.617188 8.925781 C 12.511719 8.871094 12.414062 8.8125 12.34375 8.675781 L 12.765625 8.6875 C 12.765625 8.6875 12.957031 8.800781 13.054688 8.925781 Z M 10.503906 8.523438 L 13.386719 8.53125 "/>
</g>
</g>
<g clip-path="url(#clip13)" clip-rule="nonzero">
<g clip-path="url(#clip14)" clip-rule="nonzero">
<path style="fill:none;stroke-width:2.787;stroke-linecap:round;stroke-linejoin:miter;stroke:rgb(38.823529%,3.137255%,6.27451%);stroke-opacity:1;stroke-miterlimit:4;" d="M 281.672881 223.697823 C 284.304967 222.333038 286.742084 220.870767 288.496808 217.458804 L 277.968463 217.751258 C 277.968463 217.751258 273.191714 220.578313 270.754597 223.697823 Z M 315.402579 223.697823 C 312.770493 222.333038 310.333376 220.870767 308.578652 217.458804 L 319.106997 217.751258 C 319.106997 217.751258 323.883746 220.578313 326.320863 223.697823 Z M 262.663369 213.656901 L 334.60706 213.851871 " transform="matrix(0.0400704,0,0,0.0400704,-0.02112,-0.03788)"/>
</g>
</g>
<g clip-path="url(#clip15)" clip-rule="nonzero">
<g clip-path="url(#clip16)" clip-rule="nonzero">
<path style="fill-rule:nonzero;fill:rgb(38.823529%,3.137255%,6.27451%);fill-opacity:1;stroke-width:2.787;stroke-linecap:round;stroke-linejoin:miter;stroke:rgb(38.823529%,3.137255%,6.27451%);stroke-opacity:1;stroke-miterlimit:4;" d="M 266.075332 196.597083 L 274.653984 207.905305 M 266.075332 207.905305 L 275.336377 196.889537 M 270.949566 195.91469 L 270.754597 202.836102 " transform="matrix(0.0400704,0,0,0.0400704,-0.02112,-0.03788)"/>
</g>
</g>
<g clip-path="url(#clip17)" clip-rule="nonzero">
<g clip-path="url(#clip18)" clip-rule="nonzero">
<path style=" stroke:none;fill-rule:nonzero;fill:rgb(38.823529%,3.137255%,6.27451%);fill-opacity:1;" d="M 11.1875 7.839844 L 11.527344 8.292969 M 11.1875 8.292969 L 11.558594 7.851562 M 11.382812 7.8125 L 11.371094 8.089844 "/>
</g>
</g>
<g clip-path="url(#clip19)" clip-rule="nonzero">
<g clip-path="url(#clip20)" clip-rule="nonzero">
<path style="fill:none;stroke-width:2.787;stroke-linecap:round;stroke-linejoin:miter;stroke:rgb(38.823529%,3.137255%,6.27451%);stroke-opacity:1;stroke-miterlimit:4;" d="M 266.119187 196.597083 L 274.600354 207.905305 M 266.119187 207.905305 L 275.380232 196.889537 M 270.993421 195.91469 L 270.700967 202.836102 " transform="matrix(0.0400704,0,0,0.0400704,0.523998,-0.03788)"/>
</g>
</g>
<g clip-path="url(#clip21)" clip-rule="nonzero">
<g clip-path="url(#clip22)" clip-rule="nonzero">
<path style="fill-rule:nonzero;fill:rgb(38.823529%,3.137255%,6.27451%);fill-opacity:1;stroke-width:2.787;stroke-linecap:round;stroke-linejoin:miter;stroke:rgb(38.823529%,3.137255%,6.27451%);stroke-opacity:1;stroke-miterlimit:4;" d="M 266.116011 196.597083 L 274.597178 207.905305 M 266.116011 207.905305 L 275.377056 196.889537 M 270.990245 195.91469 L 270.697791 202.836102 " transform="matrix(0.0400704,0,0,0.0400704,1.078812,-0.03788)"/>
</g>
</g>
<g clip-path="url(#clip23)" clip-rule="nonzero">
<g clip-path="url(#clip24)" clip-rule="nonzero">
<path style=" stroke:none;fill-rule:nonzero;fill:rgb(38.823529%,3.137255%,6.27451%);fill-opacity:1;" d="M 12.316406 7.839844 L 12.65625 8.292969 M 12.316406 8.292969 L 12.6875 7.851562 M 12.511719 7.8125 L 12.5 8.089844 "/>
</g>
</g>
<g clip-path="url(#clip25)" clip-rule="nonzero">
<g clip-path="url(#clip26)" clip-rule="nonzero">
<path style="fill:none;stroke-width:2.787;stroke-linecap:round;stroke-linejoin:miter;stroke:rgb(38.823529%,3.137255%,6.27451%);stroke-opacity:1;stroke-miterlimit:4;" d="M 266.114259 196.597083 L 274.595426 207.905305 M 266.114259 207.905305 L 275.375303 196.889537 M 270.988493 195.91469 L 270.696039 202.836102 " transform="matrix(0.0400704,0,0,0.0400704,1.653101,-0.03788)"/>
</g>
</g>
<g clip-path="url(#clip27)" clip-rule="nonzero">
<g clip-path="url(#clip28)" clip-rule="nonzero">
<path style="fill-rule:nonzero;fill:rgb(38.823529%,3.137255%,6.27451%);fill-opacity:1;stroke-width:2.787;stroke-linecap:round;stroke-linejoin:miter;stroke:rgb(38.823529%,3.137255%,6.27451%);stroke-opacity:1;stroke-miterlimit:4;" d="M 266.111083 196.597083 L 274.59225 207.905305 M 266.111083 207.905305 L 275.372127 196.889537 M 270.985317 195.91469 L 270.692863 202.836102 " transform="matrix(0.0400704,0,0,0.0400704,2.207916,-0.03788)"/>
</g>
</g>
</g>
</svg>
