<?xml version="1.0" encoding="UTF-8"?>
<svg xmlns="http://www.w3.org/2000/svg" xmlns:xlink="http://www.w3.org/1999/xlink" width="24px" height="16px" viewBox="0 0 21 16" version="1.1">
<g id="surface1">
<rect x="0" y="0" width="21" height="16" style="fill:rgb(0%,0%,0%);fill-opacity:1;stroke:none;"/>
<path style=" stroke:none;fill-rule:nonzero;fill:rgb(80.784314%,6.666667%,14.901961%);fill-opacity:1;" d="M 0 0 L 21 0 L 21 16 Z M 0 0 "/>
<path style=" stroke:none;fill-rule:nonzero;fill:rgb(98.823529%,81.960784%,8.627451%);fill-opacity:1;" d="M 13 4.648438 C 12.847656 4.851562 12.480469 4.445312 12.039062 4.433594 C 11.601562 4.425781 11.289062 4.863281 11.160156 5.011719 C 11.03125 5.160156 10.621094 5.941406 10.628906 6.027344 C 10.636719 6.109375 10.886719 5.792969 10.976562 5.738281 C 10.984375 5.847656 10.875 5.980469 10.902344 6.015625 C 10.929688 6.054688 11.222656 5.792969 11.324219 5.785156 C 11.351562 5.859375 11.269531 5.933594 11.296875 6.042969 C 11.335938 6.082031 11.5 5.859375 11.609375 5.8125 C 11.628906 5.894531 11.507812 6.054688 11.574219 6.15625 C 11.617188 6.164062 11.894531 5.839844 11.984375 5.800781 C 12.078125 5.765625 11.9375 6.109375 11.984375 6.136719 C 12.066406 6.082031 12.324219 5.785156 12.40625 5.746094 C 12.488281 5.710938 12.398438 6.128906 12.433594 6.128906 C 12.535156 6.054688 12.789062 5.699219 12.816406 5.644531 C 12.847656 5.589844 12.789062 6.183594 13.074219 6.5 C 13.359375 6.816406 13.789062 7.179688 13.835938 7.179688 C 13.890625 7.078125 13.816406 6.863281 13.863281 6.871094 C 13.992188 7.011719 14.230469 7.21875 14.285156 7.21875 C 14.339844 7.21875 14.246094 6.992188 14.320312 6.992188 C 14.46875 7.132812 14.886719 7.683594 15.714844 7.933594 C 15.65625 7.773438 15.539062 7.636719 15.53125 7.5625 C 15.585938 7.570312 15.777344 7.664062 15.8125 7.65625 C 15.851562 7.644531 15.410156 7.097656 15.4375 7.023438 C 15.539062 7.011719 15.585938 7.078125 15.621094 7.03125 C 15.574219 6.957031 15.191406 6.519531 15.191406 6.417969 C 15.191406 6.3125 15.308594 6.433594 15.347656 6.417969 C 15.382812 6.398438 15.199219 6.007812 15.238281 5.960938 C 15.273438 5.914062 15.675781 6.210938 15.777344 6.210938 C 15.878906 6.210938 15.804688 5.847656 15.851562 5.832031 C 15.894531 5.8125 16.234375 6.027344 16.308594 6.027344 C 16.382812 6.027344 16.371094 5.867188 16.398438 5.886719 C 16.425781 5.90625 17.222656 6.714844 16.949219 7.664062 C 16.675781 8.34375 16.125 8.707031 15.320312 8.40625 C 15.363281 8.484375 15.796875 8.84375 16.261719 8.714844 C 16.730469 8.585938 17.296875 8.210938 17.234375 7.28125 C 17.167969 6.351562 16.867188 6.222656 16.820312 6.082031 C 16.777344 5.941406 16.894531 6.117188 16.996094 6.15625 C 17.097656 6.195312 16.976562 5.960938 16.949219 5.859375 C 16.921875 5.757812 17.25 6.074219 17.335938 6.101562 C 17.417969 6.128906 17.140625 5.335938 17.058594 5.28125 C 16.976562 5.226562 17.140625 5.300781 17.195312 5.320312 C 17.25 5.335938 16.691406 4.453125 16.574219 4.453125 C 16.453125 4.453125 16.675781 4.40625 16.738281 4.40625 C 16.804688 4.40625 16.097656 3.828125 15.980469 3.828125 C 15.859375 3.828125 16.234375 3.679688 16.273438 3.671875 C 16.335938 3.679688 15.457031 3.195312 14.667969 3.679688 C 14.621094 3.644531 15.039062 3.351562 15.054688 3.226562 C 15.058594 3.191406 14.917969 3.121094 14.90625 3.085938 C 14.898438 3.046875 15.125 2.9375 15.136719 2.851562 C 15.082031 2.777344 14.980469 2.804688 14.925781 2.789062 C 14.910156 2.71875 15.117188 2.546875 15.097656 2.472656 C 15.085938 2.429688 14.933594 2.414062 14.898438 2.441406 C 14.859375 2.472656 14.992188 2.246094 14.972656 2.183594 C 14.953125 2.15625 14.878906 2.171875 14.804688 2.191406 C 14.761719 2.183594 15.042969 1.78125 14.988281 1.726562 C 14.933594 1.671875 14.164062 2.136719 13.882812 2.65625 C 13.597656 3.179688 13.816406 3.597656 13.78125 3.773438 C 13.742188 3.949219 13.699219 4.128906 13.578125 4.128906 C 13.460938 4.128906 13.183594 3.941406 13.09375 3.847656 C 13 3.753906 12.984375 3.691406 12.855469 3.652344 C 12.726562 3.617188 12.433594 3.726562 12.324219 3.738281 C 12.214844 3.746094 11.785156 3.652344 11.753906 3.679688 C 11.726562 3.707031 12.175781 3.875 12.277344 3.933594 C 12.378906 3.988281 12.386719 4.0625 12.460938 4.109375 C 12.535156 4.15625 13.222656 4.359375 13 4.648438 Z M 15.683594 5.960938 C 15.90625 6.183594 17.390625 7.1875 17.390625 8.417969 C 17.390625 9.644531 16.308594 9.609375 15.996094 9.570312 C 16.34375 9.867188 17.664062 9.8125 17.664062 8.417969 C 17.664062 7.1875 15.960938 5.960938 15.742188 5.847656 C 15.519531 5.738281 15.464844 5.738281 15.683594 5.960938 Z M 15.683594 5.960938 "/>
<path style=" stroke:none;fill-rule:nonzero;fill:rgb(100%,100%,100%);fill-opacity:1;" d="M 6.023438 11.628906 L 6.335938 10.605469 L 6.648438 11.640625 L 5.824219 11.003906 L 6.847656 11.003906 Z M 6.023438 11.628906 "/>
<path style=" stroke:none;fill-rule:nonzero;fill:rgb(100%,100%,100%);fill-opacity:1;" d="M 5.261719 4.957031 L 4.636719 7.003906 L 6.285156 5.757812 L 4.238281 5.757812 L 5.886719 7.027344 Z M 5.261719 4.957031 "/>
<path style=" stroke:none;fill-rule:nonzero;fill:rgb(100%,100%,100%);fill-opacity:1;" d="M 2.855469 8.082031 L 2.230469 10.128906 L 3.878906 8.882812 L 1.832031 8.882812 L 3.480469 10.152344 Z M 2.855469 8.082031 "/>
<path style=" stroke:none;fill-rule:nonzero;fill:rgb(100%,100%,100%);fill-opacity:1;" d="M 7.65625 7.859375 L 7.03125 9.910156 L 8.679688 8.664062 L 6.632812 8.664062 L 8.28125 9.929688 Z M 7.65625 7.859375 "/>
<path style=" stroke:none;fill-rule:nonzero;fill:rgb(100%,100%,100%);fill-opacity:1;" d="M 5.261719 12.304688 L 4.636719 14.351562 L 6.285156 13.105469 L 4.238281 13.105469 L 5.886719 14.375 Z M 5.261719 12.304688 "/>
</g>
</svg>
