<?xml version="1.0" encoding="UTF-8"?>
<svg xmlns="http://www.w3.org/2000/svg" xmlns:xlink="http://www.w3.org/1999/xlink" width="24px" height="16px" viewBox="0 0 32 16" version="1.1">
<defs>
<clipPath id="clip1">
  <path d="M 0 0 L 16 0 L 16 8 L 0 8 Z M 0 0 "/>
</clipPath>
<clipPath id="clip2">
  <path d="M 0 0 L 0 4 L 18.667969 4 L 18.667969 8 L 16 8 Z M 16 0 L 8 0 L 8 10.667969 L 0 10.667969 L 0 8 Z M 16 0 "/>
</clipPath>
<clipPath id="clip3">
  <path d="M 0 0 L 19 0 L 19 11 L 0 11 Z M 0 0 "/>
</clipPath>
<clipPath id="clip4">
  <path d="M 0 0 L 0 4 L 18.667969 4 L 18.667969 8 L 16 8 Z M 16 0 L 8 0 L 8 10.667969 L 0 10.667969 L 0 8 Z M 16 0 "/>
</clipPath>
</defs>
<g id="surface1">
<rect x="0" y="0" width="32" height="16" style="fill:rgb(0.392157%,12.941176%,41.176471%);fill-opacity:1;stroke:none;"/>
<path style="fill-rule:nonzero;fill:rgb(0%,0%,0%);fill-opacity:1;stroke-width:1.5;stroke-linecap:butt;stroke-linejoin:miter;stroke:rgb(100%,100%,100%);stroke-opacity:1;stroke-miterlimit:4;" d="M 0 0 L 15 7.5 M 15 0 L 0 7.5 " transform="matrix(1.066667,0,0,1.066667,0,0)"/>
<g clip-path="url(#clip1)" clip-rule="nonzero">
<g clip-path="url(#clip2)" clip-rule="nonzero">
<path style=" stroke:none;fill-rule:nonzero;fill:rgb(0%,0%,0%);fill-opacity:1;" d="M 0 0 L 16 8 M 16 0 L 0 8 "/>
</g>
</g>
<g clip-path="url(#clip3)" clip-rule="nonzero">
<g clip-path="url(#clip4)" clip-rule="nonzero">
<path style="fill:none;stroke-width:20;stroke-linecap:butt;stroke-linejoin:miter;stroke:rgb(78.431373%,6.27451%,18.039216%);stroke-opacity:1;stroke-miterlimit:4;" d="M 0 0 L 300 150 M 300 0 L 0 150 " transform="matrix(0.0533333,0,0,0.0533333,0,0)"/>
</g>
</g>
<path style="fill-rule:nonzero;fill:rgb(0%,0%,0%);fill-opacity:1;stroke-width:2.5;stroke-linecap:butt;stroke-linejoin:miter;stroke:rgb(100%,100%,100%);stroke-opacity:1;stroke-miterlimit:4;" d="M 7.5 0 L 7.5 10.001221 M 0 3.75 L 17.501221 3.75 " transform="matrix(1.066667,0,0,1.066667,0,0)"/>
<path style="fill-rule:nonzero;fill:rgb(0%,0%,0%);fill-opacity:1;stroke-width:1.5;stroke-linecap:butt;stroke-linejoin:miter;stroke:rgb(78.431373%,6.27451%,18.039216%);stroke-opacity:1;stroke-miterlimit:4;" d="M 7.5 0 L 7.5 10.001221 M 0 3.75 L 17.501221 3.75 " transform="matrix(1.066667,0,0,1.066667,0,0)"/>
<path style=" stroke:none;fill-rule:nonzero;fill:rgb(0.392157%,12.941176%,41.176471%);fill-opacity:1;" d="M 16 0 L 16 8 L 0 8 L 0 16 L 32 16 L 32 0 Z M 16 0 "/>
<path style="fill-rule:nonzero;fill:rgb(96.862745%,87.843137%,9.019608%);fill-opacity:1;stroke-width:0.015;stroke-linecap:butt;stroke-linejoin:miter;stroke:rgb(0%,0%,0%);stroke-opacity:1;stroke-miterlimit:4;" d="M 20.01709 7.954102 C 19.698486 8.225098 19.394531 8.620605 19.317627 8.979492 C 19.105225 9.986572 18.826904 10.209961 18.394775 9.993896 C 18.394775 10.535889 18.867188 10.576172 19.075928 10.26123 C 19.075928 10.766602 19.262695 11.206055 19.676514 11.583252 C 19.852295 11.740723 19.885254 11.630859 19.801025 11.45874 C 19.716797 11.282959 19.716797 10.715332 19.552002 10.393066 C 19.819336 10.583496 20.20752 10.477295 20.174561 9.953613 C 19.833984 10.151367 19.49707 10.144043 19.460449 9.667969 C 19.416504 9.111328 19.63623 8.302002 20.01709 7.954102 Z M 19.614258 3.947754 C 19.63623 3.75 19.592285 3.544922 19.445801 3.416748 C 19.163818 3.167725 18.88916 3.248291 18.684082 3.449707 C 18.376465 3.28125 18.21167 3.87085 17.86377 3.771973 C 17.922363 3.962402 18.013916 4.046631 18.186035 3.980713 C 18.00293 4.145508 18.186035 4.346924 17.969971 4.544678 C 18.361816 4.669189 18.570557 4.456787 18.552246 4.07959 C 18.702393 4.211426 18.936768 4.204102 19.061279 4.053955 C 18.852539 3.988037 18.852539 3.808594 18.936768 3.640137 C 19.061279 3.391113 19.647217 3.398438 19.614258 3.947754 Z M 19.614258 3.947754 " transform="matrix(1.066667,0,0,1.066667,0,0)"/>
<path style="fill-rule:nonzero;fill:rgb(20%,45.098039%,12.941176%);fill-opacity:1;stroke-width:0.015;stroke-linecap:butt;stroke-linejoin:miter;stroke:rgb(0%,0%,0%);stroke-opacity:1;stroke-miterlimit:4;" d="M 20.515137 6.84082 C 20.075684 7.075195 19.266357 6.976318 19.193115 6.401367 C 19.116211 5.826416 19.676514 5.570068 19.82666 5.496826 C 20.057373 5.379639 20.240479 5.584717 20.167236 5.826416 C 18.555908 9.788818 14.040527 11.693115 10.081787 10.081787 C 6.123047 8.474121 4.21875 3.95874 5.826416 0 C 6.170654 0.0256348 6.485596 -0.234375 6.617432 -0.600586 C 6.496582 -0.483398 6.170654 -0.560303 5.90332 -0.578613 C 5.987549 -0.670166 5.987549 -0.849609 5.961914 -0.941162 C 5.679932 -0.648193 5.269775 -0.783691 4.731445 0.0585938 C 4.815674 -0.234375 4.973145 -0.81665 5.064697 -1.19751 C 5.072021 -1.237793 5.079346 -1.274414 5.08667 -1.314697 C 5.115967 -1.864014 4.533691 -1.871338 4.405518 -1.622314 C 4.544678 -1.468506 4.471436 -1.289062 4.423828 -1.014404 C 4.365234 -0.692139 4.240723 0.0585938 4.130859 0.307617 C 4.0979 -0.0842285 3.841553 -0.109863 3.790283 -0.300293 C 3.717041 -0.252686 3.676758 -0.117188 3.691406 -0.0256348 C 3.599854 -0.128174 3.28125 -0.00366211 3.167725 -0.153809 C 3.043213 0.0952148 3.240967 0.3479 3.449707 0.454102 C 3.328857 0.461426 3.299561 0.60791 3.167725 0.60791 C 3.347168 0.81665 3.530273 0.900879 3.742676 0.915527 C 3.951416 0.933838 4.112549 1.014404 4.240723 1.270752 C 4.449463 1.688232 5.240479 1.955566 5.987549 1.578369 Z M 20.515137 6.84082 " transform="matrix(1.066667,0,0,1.066667,0,0)"/>
<path style="fill-rule:nonzero;fill:rgb(96.862745%,87.843137%,9.019608%);fill-opacity:1;stroke-width:0.015;stroke-linecap:butt;stroke-linejoin:miter;stroke:rgb(0%,0%,0%);stroke-opacity:1;stroke-miterlimit:4;" d="M 21.61377 6.335449 C 21.364746 7.023926 20.683594 7.514648 20.372314 7.591553 C 19.848633 7.716064 18.782959 8.236084 18.497314 8.503418 C 16.14624 8.518066 14.234619 6.624756 14.219971 4.273682 C 14.208984 1.92627 16.098633 0.0146484 18.449707 0 C 18.306885 -0.098877 18.189697 -0.424805 18.438721 -0.699463 C 19.222412 -1.431885 20.061035 -1.113281 20.584717 -1.61499 C 20.145264 -1.380615 19.3396 -1.479492 19.262695 -2.054443 C 19.830322 3.830566 15.52002 9.063721 9.631348 9.631348 C 3.746338 10.198975 -1.486816 5.888672 -2.054443 0 C -1.962891 0.102539 -1.699219 0.41748 -1.647949 0.534668 Z M 21.61377 6.335449 " transform="matrix(1.066667,0,0,1.066667,0,0)"/>
<path style="fill-rule:nonzero;fill:rgb(20%,45.098039%,12.941176%);fill-opacity:1;stroke-width:0.015;stroke-linecap:butt;stroke-linejoin:miter;stroke:rgb(0%,0%,0%);stroke-opacity:1;stroke-miterlimit:4;" d="M 20.01709 7.954102 C 19.621582 8.287354 19.416504 9.111328 19.460449 9.667969 C 19.471436 9.825439 19.515381 9.927979 19.581299 9.993896 C 19.610596 9.675293 19.830322 8.858643 20.390625 8.496094 C 20.866699 8.188477 21.606445 7.496338 21.881104 6.708984 C 20.028076 6.800537 18.449707 5.375977 18.354492 3.522949 C 18.262939 1.673584 19.6875 0.0952148 21.540527 0 C 21.265869 0.74707 20.537109 1.102295 19.969482 1.585693 Z M 20.01709 7.954102 " transform="matrix(1.066667,0,0,1.066667,0,0)"/>
<path style="fill-rule:nonzero;fill:rgb(19.215686%,42.745098%,22.745098%);fill-opacity:1;stroke-width:0.015;stroke-linecap:butt;stroke-linejoin:miter;stroke:rgb(0%,0%,0%);stroke-opacity:1;stroke-miterlimit:4;" d="M 21.357422 6.013184 C 20.679932 5.34668 20.617676 4.273682 21.2146 3.530273 C 21.811523 2.790527 22.869873 2.618408 23.668213 3.138428 C 24.466553 3.654785 24.744873 4.694824 24.30542 5.540771 C 23.869629 6.386719 22.866211 6.767578 21.97998 6.416016 C 21.588135 6.566162 20.804443 6.551514 20.489502 6.434326 C 20.48584 10.316162 17.336426 13.458252 13.45459 13.45459 C 9.572754 13.447266 6.430664 10.297852 6.434326 6.416016 C 6.500244 6.489258 6.558838 6.555176 6.588135 6.628418 Z M 21.357422 6.013184 " transform="matrix(1.066667,0,0,1.066667,0,0)"/>
<path style="fill-rule:nonzero;fill:rgb(20%,45.098039%,12.941176%);fill-opacity:1;stroke-width:0.015;stroke-linecap:butt;stroke-linejoin:miter;stroke:rgb(0%,0%,0%);stroke-opacity:1;stroke-miterlimit:4;" d="M 18.369141 7.756348 C 17.735596 8.349609 18.153076 8.869629 18.4021 8.986816 C 18.336182 9.404297 18.728027 9.353027 18.720703 9.700928 C 18.878174 9.609375 18.918457 9.367676 18.892822 9.177246 C 19.094238 9.393311 19.599609 9.151611 19.709473 9.550781 C 19.775391 9.111328 19.434814 8.671875 19.01001 8.712158 C 19.185791 8.554688 19.086914 8.294678 18.918457 8.22876 C 18.885498 8.554688 18.519287 8.554688 18.380127 8.455811 C 18.237305 8.353271 18.120117 8.031006 18.369141 7.756348 Z M 18.369141 7.756348 " transform="matrix(1.066667,0,0,1.066667,0,0)"/>
<path style="fill-rule:nonzero;fill:rgb(96.862745%,87.843137%,9.019608%);fill-opacity:1;stroke-width:0.015;stroke-linecap:butt;stroke-linejoin:miter;stroke:rgb(0%,0%,0%);stroke-opacity:1;stroke-miterlimit:4;" d="M 19.746094 11.539307 C 19.676514 11.57959 19.680176 11.66748 19.724121 11.726074 C 19.812012 11.843262 19.661865 12.106934 19.943848 12.165527 C 20.028076 12.180176 20.090332 12.128906 20.123291 12.033691 C 20.211182 11.773682 19.932861 11.744385 19.907227 11.619873 C 19.881592 11.495361 19.804688 11.506348 19.746094 11.539307 Z M 19.746094 11.539307 " transform="matrix(1.066667,0,0,1.066667,0,0)"/>
<path style="fill-rule:nonzero;fill:rgb(96.862745%,87.843137%,9.019608%);fill-opacity:1;stroke-width:0.015;stroke-linecap:butt;stroke-linejoin:miter;stroke:rgb(0%,0%,0%);stroke-opacity:1;stroke-miterlimit:4;" d="M 19.984131 12.030029 C 19.888916 12.073975 19.80835 12.13623 19.844971 12.432861 C 19.859619 12.557373 19.852295 12.857666 19.746094 12.861328 C 19.812012 12.894287 19.954834 12.930908 20.013428 12.854004 C 20.068359 12.949219 20.196533 12.919922 20.244141 12.802734 C 20.310059 12.857666 20.401611 12.766113 20.401611 12.689209 C 20.460205 12.72583 20.577393 12.670898 20.548096 12.491455 C 20.617676 12.51709 20.709229 12.469482 20.742188 12.421875 C 20.639648 12.399902 20.375977 12.260742 20.313721 12.147217 C 20.251465 12.033691 20.090332 11.982422 19.984131 12.030029 Z M 19.984131 12.030029 " transform="matrix(1.066667,0,0,1.066667,0,0)"/>
<path style="fill:none;stroke-width:0.015;stroke-linecap:butt;stroke-linejoin:miter;stroke:rgb(0%,0%,0%);stroke-opacity:1;stroke-miterlimit:4;" d="M 18.54126 3.621826 C 18.585205 3.55957 18.632812 3.500977 18.684082 3.449707 M 20.123291 4.720459 C 20.196533 4.680176 20.310059 4.672852 20.43457 4.680176 M 20.013428 12.854004 C 19.984131 12.813721 19.973145 12.637939 19.991455 12.531738 M 20.244141 12.802734 C 16.710205 12.875977 13.78418 10.067139 13.710938 6.533203 C 13.641357 2.995605 16.446533 0.0732422 19.984131 0 M 20.288086 0.146484 C 20.229492 0.117188 20.090332 -0.0622559 20.057373 -0.183105 M 20.43457 -0.0512695 C 20.859375 -0.0439453 21.210938 0.289307 21.243896 0.714111 C 21.273193 1.138916 20.976562 1.516113 20.55542 1.589355 C 20.137939 1.658936 19.731445 1.398926 19.621582 0.985107 C 19.515381 0.574951 19.735107 0.146484 20.137939 0 " transform="matrix(1.066667,0,0,1.066667,0,0)"/>
<path style="fill-rule:nonzero;fill:rgb(96.862745%,87.843137%,9.019608%);fill-opacity:1;stroke-width:0.015;stroke-linecap:butt;stroke-linejoin:miter;stroke:rgb(0%,0%,0%);stroke-opacity:1;stroke-miterlimit:4;" d="M 24.382324 7.763672 C 25.404053 8.620605 25.469971 9.301758 25.3125 9.70459 C 25.228271 9.327393 24.807129 8.748779 24.364014 8.598633 Z M 24.382324 7.763672 " transform="matrix(1.066667,0,0,1.066667,0,0)"/>
<path style="fill-rule:nonzero;fill:rgb(20%,45.098039%,12.941176%);fill-opacity:1;stroke-width:0.015;stroke-linecap:butt;stroke-linejoin:miter;stroke:rgb(0%,0%,0%);stroke-opacity:1;stroke-miterlimit:4;" d="M 22.55127 7.280273 L 24.448242 7.280273 L 24.448242 9.528809 C 24.448242 11.44043 23.38623 12.572021 22.302246 13.168945 C 21.221924 12.568359 20.15625 11.44043 20.15625 9.528809 L 20.15625 7.280273 L 21.489258 7.280273 C 19.47876 10.583496 15.168457 11.630859 11.865234 9.620361 C 8.562012 7.609863 7.514648 3.303223 9.528809 0 C 9.840088 -0.0292969 10.195312 -0.267334 10.440674 -0.465088 Z M 22.55127 7.280273 " transform="matrix(1.066667,0,0,1.066667,0,0)"/>
<path style="fill-rule:nonzero;fill:rgb(0%,43.137255%,78.039216%);fill-opacity:1;stroke-width:0.015;stroke-linecap:butt;stroke-linejoin:miter;stroke:rgb(0%,0%,0%);stroke-opacity:1;stroke-miterlimit:4;" d="M 24.448242 7.280273 L 24.448242 9.528809 C 24.448242 10.10376 24.353027 10.612793 24.188232 11.052246 L 22.302246 7.595215 L 20.419922 11.052246 C 17.369385 11.473389 14.553223 9.342041 14.13208 6.287842 C 13.710938 3.237305 15.842285 0.421143 18.896484 0 L 18.896484 7.280273 Z M 24.448242 7.280273 " transform="matrix(1.066667,0,0,1.066667,0,0)"/>
<path style=" stroke:none;fill-rule:nonzero;fill:rgb(96.862745%,87.843137%,9.019608%);fill-opacity:1;" d="M 25.859375 11.613281 C 22.652344 11.503906 20.140625 8.816406 20.25 5.609375 C 20.359375 2.402344 23.046875 -0.109375 26.253906 0 L 24.332031 -3.570312 L 22.414062 0 C 24.710938 0.105469 26.503906 2.027344 26.449219 4.328125 C 26.394531 6.625 24.515625 8.460938 22.21875 8.460938 C 19.917969 8.460938 18.039062 6.625 17.984375 4.328125 C 17.929688 2.027344 19.722656 0.105469 22.019531 0 L 24.089844 -3.835938 L 26.160156 0 Z M 25.859375 11.613281 "/>
<path style="fill-rule:nonzero;fill:rgb(96.862745%,87.843137%,9.019608%);fill-opacity:1;stroke-width:0.015;stroke-linecap:butt;stroke-linejoin:miter;stroke:rgb(0%,0%,0%);stroke-opacity:1;stroke-miterlimit:4;" d="M 23.15918 12.11792 C 23.210449 12.143555 23.302002 12.1875 23.342285 12.205811 C 23.441162 12.004395 23.459473 11.722412 23.426514 11.473389 C 23.31665 11.748047 22.950439 11.740723 22.851562 11.905518 C 22.913818 11.938477 22.96875 11.97876 23.016357 12.011719 C 22.891846 12.13623 22.602539 12.344971 22.434082 12.39624 L 22.434082 10.612793 C 22.434082 10.488281 22.393799 10.38208 22.393799 10.279541 L 22.393799 9.909668 C 22.393799 9.825439 22.375488 9.70459 22.302246 9.70459 C 22.225342 9.70459 22.210693 9.825439 22.210693 9.909668 L 22.210693 10.279541 C 22.210693 10.38208 22.17041 10.50293 22.17041 10.612793 L 22.17041 12.39624 C 22.078857 12.128906 21.719971 12.220459 21.551514 11.956787 C 18.251953 14.604492 13.425293 14.077148 10.777588 10.777588 C 8.126221 7.474365 8.653564 2.651367 11.956787 0 C 11.828613 -0.424805 11.488037 -0.457764 11.422119 -0.582275 C 11.422119 -0.406494 11.348877 0 11.466064 0.175781 C 11.418457 3.292236 8.851318 5.782471 5.731201 5.731201 C 2.614746 5.683594 0.128174 3.116455 0.175781 0 C 0.314941 0.307617 0.952148 0.307617 1.102295 0.81665 C 1.223145 0.629883 1.655273 0.413818 1.959229 0.0878906 Z M 23.15918 12.11792 " transform="matrix(1.066667,0,0,1.066667,0,0)"/>
<path style="fill-rule:nonzero;fill:rgb(96.862745%,87.843137%,9.019608%);fill-opacity:1;stroke-width:0.015;stroke-linecap:butt;stroke-linejoin:miter;stroke:rgb(0%,0%,0%);stroke-opacity:1;stroke-miterlimit:4;" d="M 22.302246 10.634766 C 22.445068 10.634766 22.891846 10.587158 23.056641 10.587158 C 23.096924 10.587158 23.133545 10.524902 23.133545 10.447998 C 23.133545 10.367432 23.100586 10.305176 23.056641 10.305176 C 22.895508 10.305176 22.445068 10.26123 22.302246 10.26123 C 22.163086 10.26123 21.712646 10.305176 21.551514 10.305176 C 21.507568 10.305176 21.474609 10.367432 21.474609 10.447998 C 21.474609 10.524902 21.507568 10.587158 21.551514 10.587158 C 21.712646 10.587158 22.163086 10.634766 22.302246 10.634766 Z M 22.302246 10.634766 " transform="matrix(1.066667,0,0,1.066667,0,0)"/>
<path style="fill-rule:nonzero;fill:rgb(96.862745%,87.843137%,9.019608%);fill-opacity:1;stroke-width:0.015;stroke-linecap:butt;stroke-linejoin:miter;stroke:rgb(0%,0%,0%);stroke-opacity:1;stroke-miterlimit:4;" d="M 22.210693 9.902344 C 19.47876 9.91333 17.252197 7.705078 17.241211 4.969482 C 17.230225 2.237549 19.438477 0.0109863 22.174072 0 C 22.078857 0 22.001953 0.0695801 22.001953 0.157471 C 22.001953 0.241699 22.078857 0.311279 22.174072 0.311279 C 22.265625 0.311279 22.342529 0.241699 22.342529 0.157471 C 22.342529 0.0878906 22.441406 0.0878906 22.441406 0.157471 C 22.441406 0.289307 22.320557 0.39917 22.174072 0.39917 C 22.023926 0.39917 21.906738 0.289307 21.906738 0.157471 C 21.906738 0.0219727 22.027588 -0.0878906 22.174072 -0.0878906 C 22.218018 -0.0878906 22.258301 -0.0769043 22.294922 -0.0622559 C 22.29126 -0.0402832 22.287598 0.00366211 22.287598 0.0402832 Z M 21.551514 10.587158 C 21.591797 10.587158 21.628418 10.524902 21.628418 10.447998 C 21.628418 10.367432 21.591797 10.305176 21.551514 10.305176 " transform="matrix(1.066667,0,0,1.066667,0,0)"/>
<path style="fill-rule:nonzero;fill:rgb(96.862745%,87.843137%,9.019608%);fill-opacity:1;stroke-width:0.015;stroke-linecap:butt;stroke-linejoin:miter;stroke:rgb(0%,0%,0%);stroke-opacity:1;stroke-miterlimit:4;" d="M 21.61377 10.587158 C 21.654053 10.587158 21.690674 10.524902 21.690674 10.447998 C 21.690674 10.367432 21.654053 10.305176 21.61377 10.305176 M 22.023926 10.616455 C 22.075195 10.616455 22.115479 10.539551 22.115479 10.447998 C 22.115479 10.352783 22.075195 10.275879 22.023926 10.275879 M 22.119141 10.623779 C 22.17041 10.623779 22.214355 10.543213 22.214355 10.444336 C 22.214355 10.349121 22.17041 10.268555 22.119141 10.268555 M 22.437744 10.627441 C 22.492676 10.627441 22.536621 10.543213 22.536621 10.444336 C 22.536621 10.345459 22.492676 10.264893 22.437744 10.264893 M 22.540283 10.620117 C 22.591553 10.620117 22.635498 10.543213 22.635498 10.447998 C 22.635498 10.352783 22.591553 10.272217 22.540283 10.272217 M 22.987061 10.59082 C 23.027344 10.59082 23.063965 10.524902 23.063965 10.444336 C 23.063965 10.367432 23.027344 10.301514 22.987061 10.301514 M 21.375732 12.030029 C 18.054199 15.047607 12.912598 14.802246 9.89502 11.480713 C 6.877441 8.15918 7.122803 3.017578 10.444336 0 M 11.960449 0.0915527 L 11.90918 0.0549316 M 12.052002 0.161133 C 12.165527 0.0366211 12.264404 -0.102539 12.319336 -0.267334 " transform="matrix(1.066667,0,0,1.066667,0,0)"/>
<path style="fill-rule:nonzero;fill:rgb(100%,100%,100%);fill-opacity:1;stroke-width:0.015;stroke-linecap:butt;stroke-linejoin:miter;stroke:rgb(0%,0%,0%);stroke-opacity:1;stroke-miterlimit:4;" d="M 21.921387 8.869629 C 21.921387 8.829346 21.954346 8.811035 21.994629 8.781738 C 22.042236 8.748779 22.060547 8.730469 22.10083 8.730469 L 22.646484 8.730469 C 22.686768 8.730469 22.697754 8.741455 22.697754 8.778076 L 22.697754 9.521484 C 22.697754 9.558105 22.69043 9.569092 22.646484 9.569092 L 21.921387 9.569092 L 21.921387 8.862305 " transform="matrix(1.066667,0,0,1.066667,0,0)"/>
<path style="fill-rule:nonzero;fill:rgb(89.803922%,89.803922%,89.803922%);fill-opacity:1;stroke-width:0.015;stroke-linecap:butt;stroke-linejoin:miter;stroke:rgb(0%,0%,0%);stroke-opacity:1;stroke-miterlimit:4;" d="M 22.514648 9.631348 C 22.584229 9.631348 22.573242 9.631348 22.62085 9.580078 C 22.675781 9.528809 22.668457 9.532471 22.668457 9.484863 L 22.668457 8.807373 C 22.668457 8.770752 22.661133 8.759766 22.624512 8.759766 L 22.119141 8.759766 C 22.078857 8.759766 22.060547 8.778076 22.020264 8.811035 C 21.983643 8.83667 21.954346 8.85498 21.954346 8.891602 L 21.954346 9.631348 Z M 22.514648 9.631348 " transform="matrix(1.066667,0,0,1.066667,0,0)"/>
<path style="fill-rule:nonzero;fill:rgb(100%,100%,100%);fill-opacity:1;stroke-width:0.015;stroke-linecap:butt;stroke-linejoin:miter;stroke:rgb(0%,0%,0%);stroke-opacity:1;stroke-miterlimit:4;" d="M 22.565918 9.616699 C 22.565918 9.65332 22.558594 9.664307 22.518311 9.664307 L 21.972656 9.664307 C 21.928711 9.664307 21.921387 9.65332 21.921387 9.616699 L 21.921387 8.873291 C 21.921387 8.83667 21.932373 8.825684 21.972656 8.825684 L 22.518311 8.825684 C 22.558594 8.825684 22.565918 8.83667 22.565918 8.873291 Z M 22.565918 9.616699 " transform="matrix(1.066667,0,0,1.066667,0,0)"/>
<path style="fill-rule:nonzero;fill:rgb(58.823529%,52.941176%,49.019608%);fill-opacity:1;stroke-width:0.015;stroke-linecap:butt;stroke-linejoin:miter;stroke:rgb(0%,0%,0%);stroke-opacity:1;stroke-miterlimit:4;" d="M 23.624268 6.848145 C 21.734619 13.370361 14.912109 17.127686 8.389893 15.234375 C 1.864014 13.344727 -1.889648 6.522217 0 0 L -0.157471 0 C -0.0915527 -0.201416 -0.131836 -0.388184 -0.41748 -0.413818 C -0.838623 -0.450439 -1.329346 0.366211 -2.072754 0.465088 C -2.288818 0.20874 -2.27417 -0.281982 -1.999512 -0.516357 C -2.142334 -0.926514 -2.442627 -1.373291 -2.651367 -1.567383 C -2.449951 -1.062012 -2.457275 -0.498047 -2.677002 0 C -2.570801 -0.234375 -2.259521 -0.479736 -2.010498 -0.578613 C -1.970215 -0.637207 -1.92627 -0.695801 -1.885986 -0.743408 C -1.860352 -1.065674 -0.340576 -0.915527 -0.0146484 -0.717773 C -0.0146484 -0.355225 0.124512 0.838623 0.285645 1.160889 Z M 23.624268 6.848145 " transform="matrix(1.066667,0,0,1.066667,0,0)"/>
<path style=" stroke:none;fill-rule:nonzero;fill:rgb(0%,0%,0%);fill-opacity:1;" d="M 23.234375 7.535156 C 23.195312 6.945312 22.957031 6.457031 22.621094 6.125 C 22.78125 6.171875 23.105469 6.171875 23.328125 6.011719 C 23.621094 5.816406 24.386719 5.476562 24.664062 5.621094 C 24.6875 5.671875 24.699219 5.78125 24.683594 5.851562 C 24.617188 5.675781 23.878906 5.949219 23.671875 6.03125 C 23.472656 6.125 23.382812 6.25 23.453125 6.53125 C 23.339844 6.433594 23.378906 6.339844 23.257812 6.269531 C 23.308594 6.382812 23.347656 6.59375 23.359375 6.761719 C 23.316406 6.640625 23.234375 6.382812 23.0625 6.234375 C 23.210938 6.523438 23.34375 7.226562 23.28125 7.601562 C 23.402344 7.601562 23.667969 7.484375 23.773438 7.398438 C 23.679688 7.53125 23.410156 7.625 23.238281 7.660156 C 23.160156 7.753906 23.105469 7.992188 23.109375 8.125 C 23.097656 7.960938 23.148438 7.5625 23.234375 7.535156 Z M 25.199219 7.304688 C 25.054688 7.140625 24.777344 7.050781 24.429688 7.148438 C 24.480469 7.121094 24.597656 7.074219 24.699219 7.058594 C 24.6875 6.964844 24.601562 6.566406 24.589844 6.46875 L 24.6875 6.429688 C 24.734375 6.667969 24.796875 6.941406 24.835938 7.054688 C 24.867188 7.0625 24.941406 7.078125 25 7.105469 C 24.976562 7.015625 24.824219 6.34375 24.828125 6.273438 L 24.960938 6.203125 C 25.015625 6.566406 25.097656 7.09375 25.199219 7.304688 Z M 25.199219 7.304688 "/>
<path style="fill-rule:nonzero;fill:rgb(58.823529%,52.941176%,49.019608%);fill-opacity:1;stroke-width:0.015;stroke-linecap:butt;stroke-linejoin:miter;stroke:rgb(0%,0%,0%);stroke-opacity:1;stroke-miterlimit:4;" d="M 23.551025 7.280273 C 23.616943 7.08252 23.57666 6.89209 23.294678 6.866455 C 23.074951 6.848145 22.836914 7.060547 22.554932 7.280273 Z M 21.712646 5.489502 C 21.947021 4.676514 22.76001 4.171143 23.594971 4.324951 C 24.429932 4.47876 25.008545 5.240479 24.938965 6.082764 C 24.869385 6.928711 24.16626 7.580566 23.320312 7.595215 C 22.470703 7.606201 21.75293 6.972656 21.657715 6.130371 C 21.573486 6.188965 21.405029 6.30249 21.342773 6.379395 C 21.544189 6.42334 21.954346 6.445312 22.163086 6.30249 Z M 21.712646 5.489502 " transform="matrix(1.066667,0,0,1.066667,0,0)"/>
<path style="fill:none;stroke-width:0.015;stroke-linecap:butt;stroke-linejoin:miter;stroke:rgb(0%,0%,0%);stroke-opacity:1;stroke-miterlimit:4;" d="M 21.708984 6.767578 C 21.75293 6.899414 21.782227 7.027588 21.789551 7.141113 M 21.331787 5.108643 C 21.254883 5.218506 21.188965 5.335693 21.166992 5.43457 C 21.309814 5.482178 21.588135 5.507812 21.712646 5.489502 " transform="matrix(1.066667,0,0,1.066667,0,0)"/>
<path style="fill:none;stroke-width:0.015;stroke-linecap:butt;stroke-linejoin:miter;stroke:rgb(0%,0%,0%);stroke-opacity:1;stroke-miterlimit:4;" d="M 21.060791 5.712891 C 21.112061 5.720215 21.16333 5.731201 21.207275 5.742188 C 21.357422 5.786133 21.661377 5.786133 21.870117 5.635986 C 22.078857 5.48584 22.642822 5.020752 23.283691 4.969482 " transform="matrix(1.066667,0,0,1.066667,0,0)"/>
<path style="fill:none;stroke-width:0.015;stroke-linecap:butt;stroke-linejoin:miter;stroke:rgb(0%,0%,0%);stroke-opacity:1;stroke-miterlimit:4;" d="M 20.892334 5.570068 C 21.09375 5.610352 21.507568 5.632324 21.712646 5.489502 C 22.196045 5.163574 22.661133 4.969482 23.126221 4.943848 " transform="matrix(1.066667,0,0,1.066667,0,0)"/>
<path style="fill-rule:nonzero;fill:rgb(20%,45.098039%,12.941176%);fill-opacity:1;stroke-width:0.015;stroke-linecap:butt;stroke-linejoin:miter;stroke:rgb(0%,0%,0%);stroke-opacity:1;stroke-miterlimit:4;" d="M 24.382324 7.763672 C 25.081787 8.24707 25.594482 8.712158 25.744629 9.459229 C 25.894775 10.209961 26.18042 10.407715 26.52832 10.209961 C 26.444092 10.64209 26.011963 10.689697 25.645752 10.360107 C 25.678711 10.858154 25.480957 11.45874 24.9646 11.674805 C 24.931641 11.374512 25.129395 11.136475 25.074463 10.891113 C 25.048828 10.78125 25.041504 10.532227 25.180664 10.418701 C 24.906006 10.506592 24.473877 10.334473 24.433594 9.924316 C 24.748535 10.074463 25.155029 10.100098 25.3125 9.700928 C 25.469971 9.301758 25.404053 8.620605 24.382324 7.763672 Z M 25.264893 3.874512 C 25.480957 3.306885 26.044922 3.365479 26.235352 3.607178 C 26.795654 3.292236 26.868896 4.006348 27.341309 3.863525 C 27.333984 3.999023 27.176514 4.123535 27.000732 4.112549 C 27.183838 4.281006 26.92749 4.530029 27.319336 4.680176 C 26.986084 4.844971 26.520996 4.669189 26.396484 4.211426 C 26.286621 4.42749 25.894775 4.42749 25.737305 4.255371 C 26.077881 4.163818 26.052246 3.848877 25.861816 3.724365 C 25.671387 3.596191 25.330811 3.647461 25.264893 3.874512 Z M 23.57666 5.119629 C 23.730469 5.617676 24.052734 6.082764 24.400635 6.401367 C 24.799805 6.767578 25.400391 6.676025 25.737305 6.324463 C 25.744629 7.020264 25.023193 7.075195 24.624023 6.859131 C 24.448242 6.760254 24.30542 6.811523 24.473877 6.965332 C 24.730225 7.199707 25.294189 7.371826 25.960693 7.514648 C 27.125244 7.763672 26.711426 8.686523 26.37085 8.679199 C 26.469727 8.675537 26.546631 8.57666 26.407471 8.448486 C 25.396729 7.540283 23.342285 7.895508 23.375244 5.866699 C 23.15918 6.401367 22.269287 6.192627 22.686768 5.559082 C 22.818604 5.668945 23.052979 5.67627 23.118896 5.511475 C 23.170166 5.379639 23.137207 5.15625 22.902832 4.962158 C 22.943115 4.958496 23.023682 4.962158 23.016357 4.866943 C 23.027344 4.921875 23.078613 5.006104 23.206787 4.976807 C 23.243408 5.0354 23.283691 5.075684 23.338623 5.053711 C 23.349609 5.050049 23.378906 5.0354 23.36792 4.976807 C 23.375244 5.08667 23.50708 5.126953 23.57666 5.119629 Z M 23.57666 5.119629 " transform="matrix(1.066667,0,0,1.066667,0,0)"/>
<path style="fill-rule:nonzero;fill:rgb(96.862745%,87.843137%,9.019608%);fill-opacity:1;stroke-width:0.015;stroke-linecap:butt;stroke-linejoin:miter;stroke:rgb(0%,0%,0%);stroke-opacity:1;stroke-miterlimit:4;" d="M 24.624023 6.859131 C 25.10376 7.174072 25.649414 7.174072 26.154785 6.591797 C 26.312256 6.408691 26.561279 6.251221 26.733398 6.23291 C 26.90918 6.218262 26.901855 6.049805 27.033691 6.016846 C 26.949463 5.991211 26.916504 5.892334 26.791992 5.906982 C 27.103271 5.797119 27.011719 5.548096 27.165527 5.427246 C 27.041016 5.474854 26.846924 5.288086 26.66748 5.522461 C 26.715088 5.41626 26.64917 5.288086 26.605225 5.236816 C 26.623535 5.361328 26.359863 5.386963 26.312256 5.701904 C 26.282959 5.881348 26.187744 5.870361 26.169434 5.595703 C 26.158447 5.394287 26.063232 4.837646 25.946045 4.555664 C 25.828857 4.273682 25.803223 3.885498 25.960693 3.826904 C 24.906006 3.856201 24.023438 3.02124 23.997803 1.962891 C 23.968506 0.908203 24.803467 0.0292969 25.858154 0 C 25.667725 -0.124512 25.327148 -0.0732422 25.26123 0.150146 C 25.045166 0.714111 25.649414 1.040039 25.601807 1.655273 C 25.510254 1.19751 24.770508 1.080322 24.777832 0.633545 C 24.536133 0.739746 24.569092 0.941162 24.660645 1.098633 C 24.510498 0.864258 24.169922 1.248779 23.880615 0.930176 C 23.847656 1.347656 24.213867 1.505127 24.510498 1.523438 C 24.360352 1.787109 24.561768 2.01416 24.759521 2.087402 C 24.770508 1.622314 25.722656 1.812744 25.733643 2.611084 C 25.740967 3.292236 25.008545 3.35083 24.620361 3.134766 Z M 25.960693 7.514648 C 27.125244 7.763672 26.711426 8.686523 26.37085 8.679199 C 26.154785 8.675537 25.946045 8.492432 25.931396 8.334961 C 25.682373 8.466797 25.748291 8.730469 25.942383 8.833008 C 25.418701 8.770752 25.195312 9.11499 25.184326 9.492188 C 25.279541 9.320068 25.57251 9.30542 25.678711 9.345703 C 25.788574 9.382324 26.066895 9.400635 26.176758 9.276123 C 26.085205 9.356689 26.235352 9.539795 26.107178 9.678955 C 26.542969 9.664307 26.733398 9.257812 26.660156 9.078369 C 27.227783 8.562012 27.11792 7.723389 25.960693 7.514648 Z M 25.074463 11.466064 C 25.151367 11.513672 25.140381 11.612549 25.092773 11.674805 C 24.986572 11.802979 25.144043 12.103271 24.825439 12.154541 C 24.730225 12.169189 24.664307 12.110596 24.631348 12.000732 C 24.547119 11.707764 24.858398 11.685791 24.891357 11.546631 C 24.924316 11.407471 25.012207 11.425781 25.074463 11.466064 Z M 25.074463 11.466064 " transform="matrix(1.066667,0,0,1.066667,0,0)"/>
<path style="fill-rule:nonzero;fill:rgb(96.862745%,87.843137%,9.019608%);fill-opacity:1;stroke-width:0.015;stroke-linecap:butt;stroke-linejoin:miter;stroke:rgb(0%,0%,0%);stroke-opacity:1;stroke-miterlimit:4;" d="M 24.788818 12.004395 C 24.891357 12.055664 24.979248 12.125244 24.924316 12.458496 C 24.902344 12.597656 24.898682 12.930908 25.019531 12.941895 C 24.942627 12.974854 24.785156 13.007812 24.7229 12.919922 C 24.65332 13.022461 24.51416 12.98584 24.462891 12.854004 C 24.385986 12.912598 24.290771 12.806396 24.294434 12.718506 C 24.224854 12.755127 24.100342 12.689209 24.140625 12.491455 C 24.060059 12.51709 23.95752 12.458496 23.924561 12.407227 C 24.041748 12.385254 24.338379 12.242432 24.415283 12.11792 C 24.488525 11.99707 24.671631 11.942139 24.788818 12.004395 Z M 24.788818 12.004395 " transform="matrix(1.066667,0,0,1.066667,0,0)"/>
<path style="fill:none;stroke-width:0.015;stroke-linecap:butt;stroke-linejoin:miter;stroke:rgb(0%,0%,0%);stroke-opacity:1;stroke-miterlimit:4;" d="M 24.719238 12.919922 C 24.755859 12.875977 24.77417 12.681885 24.755859 12.561035 M 24.462891 12.854004 C 20.914307 16.142578 15.373535 15.926514 12.084961 12.37793 C 8.800049 8.829346 9.012451 3.284912 12.561035 0 M 12.213135 0.150146 C 12.279053 0.12085 12.44751 -0.0769043 12.487793 -0.20874 M 12.059326 -0.0732422 C 12.13623 -0.0878906 12.37793 -0.230713 12.480469 -0.391846 " transform="matrix(1.066667,0,0,1.066667,0,0)"/>
<path style="fill-rule:nonzero;fill:rgb(96.862745%,87.843137%,9.019608%);fill-opacity:1;stroke-width:0.015;stroke-linecap:butt;stroke-linejoin:miter;stroke:rgb(0%,0%,0%);stroke-opacity:1;stroke-miterlimit:4;" d="M 23.375244 5.870361 C 23.360596 6.719971 23.71582 7.1521 24.206543 7.434082 C 24.023438 7.324219 24.104004 6.950684 23.858643 6.829834 C 23.917236 6.826172 24.008789 6.906738 24.151611 6.873779 C 24.082031 6.716309 23.964844 6.474609 23.69751 6.44165 C 23.76709 6.434326 23.920898 6.459961 24.019775 6.42334 C 23.880615 6.203613 23.503418 6.309814 23.375244 5.870361 Z M 23.287354 5.057373 C 23.258057 5.046387 23.232422 5.01709 23.206787 4.980469 C 23.078613 5.006104 23.027344 4.925537 23.016357 4.866943 C 23.023682 4.96582 22.943115 4.958496 22.902832 4.962158 C 23.137207 5.15625 23.170166 5.383301 23.118896 5.511475 C 23.052979 5.67627 22.818604 5.668945 22.686768 5.562744 C 22.668457 5.914307 23.126221 6.031494 23.294678 5.584717 C 23.294678 5.661621 23.389893 5.654297 23.415527 5.753174 C 23.532715 5.562744 23.441162 5.284424 23.287354 5.057373 Z M 23.287354 5.057373 " transform="matrix(1.066667,0,0,1.066667,0,0)"/>
<path style="fill-rule:nonzero;fill:rgb(20%,45.098039%,12.941176%);fill-opacity:1;stroke-width:0.015;stroke-linecap:butt;stroke-linejoin:miter;stroke:rgb(0%,0%,0%);stroke-opacity:1;stroke-miterlimit:4;" d="M 22.558594 3.369141 C 21.624756 3.563232 20.716553 2.962646 20.526123 2.032471 C 20.332031 1.102295 20.932617 0.19043 21.862793 0 C 21.870117 -0.183105 21.947021 -0.384521 22.210693 -0.300293 C 22.130127 -0.300293 22.188721 -0.131836 22.10083 -0.117188 C 22.17041 -0.0915527 22.265625 -0.150146 22.280273 -0.186768 C 22.294922 -0.128174 22.404785 -0.146484 22.412109 -0.0805664 C 22.452393 -0.113525 22.408447 -0.274658 22.346191 -0.307617 C 22.393799 -0.333252 22.415771 -0.461426 22.397461 -0.523682 C 22.353516 -0.516357 22.29126 -0.457764 22.280273 -0.373535 C 22.302246 -0.439453 22.276611 -0.60791 22.159424 -0.633545 C 22.126465 -0.585938 22.115479 -0.472412 22.163086 -0.413818 C 22.053223 -0.435791 21.895752 -0.366211 21.859131 -0.274658 C 21.866455 -0.384521 21.884766 -0.541992 21.950684 -0.640869 C 21.972656 -0.673828 21.917725 -0.732422 21.873779 -0.651855 C 21.793213 -0.809326 21.577148 -0.893555 21.481934 -0.81665 C 21.386719 -0.736084 21.258545 -0.853271 21.177979 -0.72876 C 21.097412 -0.604248 20.830078 -0.5896 20.844727 -0.457764 C 20.852051 -0.377197 20.83374 -0.256348 20.793457 -0.212402 C 20.698242 -0.106201 20.841064 -0.0256348 20.866699 0.0695801 C 20.848389 -0.245361 21.35376 -0.860596 21.855469 -0.618896 C 21.811523 -0.541992 21.77124 -0.384521 21.756592 -0.19043 C 21.734619 0.0915527 21.778564 0.490723 22.049561 0.721436 L 22.159424 0.695801 Z M 22.558594 3.369141 " transform="matrix(1.066667,0,0,1.066667,0,0)"/>
<path style="fill-rule:nonzero;fill:rgb(78.431373%,6.27451%,18.039216%);fill-opacity:1;stroke-width:0.015;stroke-linecap:butt;stroke-linejoin:miter;stroke:rgb(0%,0%,0%);stroke-opacity:1;stroke-miterlimit:4;" d="M 22.705078 2.380371 C 22.701416 2.303467 22.833252 2.208252 23.005371 2.208252 C 23.217773 2.211914 23.378906 2.402344 23.547363 2.384033 C 23.71582 2.365723 23.631592 2.460938 23.598633 2.486572 C 23.562012 2.508545 23.540039 2.548828 23.554688 2.592773 C 23.565674 2.640381 23.543701 2.669678 23.477783 2.625732 C 23.327637 2.530518 23.17749 2.662354 22.979736 2.592773 C 22.811279 2.526855 22.712402 2.490234 22.705078 2.380371 Z M 22.705078 2.380371 " transform="matrix(1.066667,0,0,1.066667,0,0)"/>
<path style="fill-rule:nonzero;fill:rgb(58.823529%,52.941176%,49.019608%);fill-opacity:1;stroke-width:0.015;stroke-linecap:butt;stroke-linejoin:miter;stroke:rgb(0%,0%,0%);stroke-opacity:1;stroke-miterlimit:4;" d="M 21.851807 4.343262 C 21.767578 4.07959 21.452637 3.793945 21.298828 3.728027 L 21.287842 3.585205 C 21.37207 3.552246 21.573486 3.394775 21.661377 3.306885 C 22.287598 3.607178 23.133545 3.182373 23.525391 2.74292 L 23.675537 2.834473 L 23.602295 2.93335 L 23.521729 2.893066 C 22.412109 4.96582 19.958496 5.921631 17.739258 5.148926 C 15.52002 4.376221 14.190674 2.102051 14.608154 -0.212402 C 15.029297 -2.526855 17.069092 -4.193115 19.420166 -4.138184 C 21.767578 -4.086914 23.730469 -2.329102 24.04541 0 C 24.188232 0.0366211 24.389648 0.0622559 24.44458 0.0585938 C 24.79248 -0.19043 25.067139 -0.413818 25.198975 -0.432129 L 25.3125 -0.281982 L 25.213623 -0.212402 L 25.133057 -0.256348 C 24.759521 0.0512695 24.334717 0.725098 24.16626 1.171875 C 23.935547 1.124268 23.104248 1.157227 22.935791 0.926514 Z M 21.851807 4.343262 " transform="matrix(1.066667,0,0,1.066667,0,0)"/>
<path style="fill:none;stroke-width:0.015;stroke-linecap:butt;stroke-linejoin:miter;stroke:rgb(0%,0%,0%);stroke-opacity:1;stroke-miterlimit:4;" d="M 22.961426 3.416748 C 22.016602 3.427734 21.243896 2.67334 21.229248 1.728516 C 21.218262 0.787354 21.972656 0.0109863 22.91748 0 C 22.8479 0.0622559 22.683105 0.117188 22.470703 0.124512 " transform="matrix(1.066667,0,0,1.066667,0,0)"/>
<path style="fill:none;stroke-width:0.015;stroke-linecap:butt;stroke-linejoin:miter;stroke:rgb(0%,0%,0%);stroke-opacity:1;stroke-miterlimit:4;" d="M 21.884766 4.251709 C 21.826172 3.94043 21.917725 3.596191 22.075195 3.493652 C 22.419434 3.724365 23.009033 3.724365 23.360596 3.47168 " transform="matrix(1.066667,0,0,1.066667,0,0)"/>
<path style="fill:none;stroke-width:0.015;stroke-linecap:butt;stroke-linejoin:miter;stroke:rgb(0%,0%,0%);stroke-opacity:1;stroke-miterlimit:4;" d="M 21.884766 4.090576 C 20.753174 10.133057 14.941406 14.11377 8.895264 12.98584 C 2.852783 11.85791 -1.12793 6.04248 0 0 C 0.142822 0.0219727 0.377197 0.0805664 0.344238 0.150146 M -0.860596 -0.102539 L -0.783691 -0.179443 L -0.860596 -0.252686 L -0.9375 -0.179443 Z M -0.860596 -0.102539 " transform="matrix(1.066667,0,0,1.066667,0,0)"/>
<path style="fill-rule:nonzero;fill:rgb(20%,45.098039%,12.941176%);fill-opacity:1;stroke-width:0.015;stroke-linecap:butt;stroke-linejoin:miter;stroke:rgb(0%,0%,0%);stroke-opacity:1;stroke-miterlimit:4;" d="M 22.188721 2.497559 C 22.089844 2.365723 21.826172 2.321777 21.77124 2.501221 C 21.745605 2.581787 21.708984 2.662354 21.646729 2.702637 C 21.584473 2.739258 21.599121 2.852783 21.624756 2.900391 C 21.690674 3.02124 21.63208 3.138428 21.760254 3.215332 C 21.760254 3.120117 21.903076 3.02124 22.023926 2.995605 C 22.144775 2.973633 22.327881 2.86377 22.353516 2.74292 C 22.37915 2.62207 22.419434 2.519531 22.188721 2.497559 Z M 22.188721 2.497559 " transform="matrix(1.066667,0,0,1.066667,0,0)"/>
<path style="fill-rule:nonzero;fill:rgb(58.823529%,52.941176%,49.019608%);fill-opacity:1;stroke-width:0.015;stroke-linecap:butt;stroke-linejoin:miter;stroke:rgb(0%,0%,0%);stroke-opacity:1;stroke-miterlimit:4;" d="M 21.588135 3.695068 L 21.621094 3.695068 L 21.621094 3.922119 C 20.540771 9.891357 14.820557 13.85376 8.851318 12.769775 C 2.878418 11.689453 -1.083984 5.969238 0 0 L 0.197754 -0.113525 L 0.212402 -0.0842285 L 0.0146484 0.0292969 C 0.0183105 0.0366211 0.0183105 0.0439453 0.0183105 0.0512695 L 0.212402 0.164795 L 0.197754 0.194092 L -0.00366211 0.0805664 C -0.0219727 0.0878906 -0.0476074 0.0805664 -0.0585938 0.0622559 C -0.0695801 0.0439453 -0.065918 0.0183105 -0.0512695 0.00366211 C -0.032959 -0.0109863 -0.00732422 -0.0146484 0.0109863 0 L 0.0109863 0.227051 L -0.0219727 0.227051 L -0.0219727 0 C 0.0183105 -0.00366211 0.0512695 0.0292969 0.0549316 0.0695801 C 0.0585938 0.109863 0.0256348 0.142822 -0.0146484 0.150146 C -0.0549316 0.153809 -0.0878906 0.124512 -0.0952148 0.0842285 C -0.098877 0.0439453 -0.0732422 0.00732422 -0.032959 0 L -0.230713 0.113525 L -0.245361 0.0842285 L -0.0476074 -0.0292969 C -0.0512695 -0.0366211 -0.0512695 -0.0439453 -0.0512695 -0.0512695 L -0.245361 -0.164795 L -0.230713 -0.194092 L -0.032959 -0.0805664 C -0.0109863 -0.0878906 0.0109863 -0.0769043 0.0219727 -0.0549316 C 0.0292969 -0.0366211 0.0256348 -0.0109863 0.00732422 0.00366211 C -0.0109863 0.0146484 -0.0366211 0.0146484 -0.0512695 0 L -0.0512695 -0.227051 Z M 21.588135 3.695068 " transform="matrix(1.066667,0,0,1.066667,0,0)"/>
<path style="fill-rule:nonzero;fill:rgb(58.823529%,52.941176%,49.019608%);fill-opacity:1;stroke-width:0.015;stroke-linecap:butt;stroke-linejoin:miter;stroke:rgb(0%,0%,0%);stroke-opacity:1;stroke-miterlimit:4;" d="M 21.884766 4.251709 C 22.130127 4.006348 22.525635 4.006348 22.770996 4.251709 C 23.016357 4.493408 23.016357 4.892578 22.770996 5.137939 L 23.041992 5.137939 C 25.272217 5.042725 29.893799 5.013428 34.291992 5.068359 C 38.686523 5.119629 41.755371 5.244141 41.755371 5.36499 C 41.755371 5.48584 38.686523 5.577393 34.291992 5.584717 C 29.893799 5.595703 25.272217 5.518799 23.041992 5.401611 C 23.041992 5.452881 23.045654 5.570068 23.060303 5.610352 Z M 21.884766 4.251709 " transform="matrix(1.066667,0,0,1.066667,0,0)"/>
<path style="fill-rule:nonzero;fill:rgb(20%,45.098039%,12.941176%);fill-opacity:1;stroke-width:0.015;stroke-linecap:butt;stroke-linejoin:miter;stroke:rgb(0%,0%,0%);stroke-opacity:1;stroke-miterlimit:4;" d="M 21.437988 4.625244 C 21.412354 4.595947 21.368408 4.515381 21.37207 4.460449 C 20.141602 9.129639 15.355225 11.916504 10.686035 10.686035 C 6.016846 9.455566 3.226318 4.669189 4.460449 0 C 4.456787 -0.0402832 4.438477 -0.131836 4.445801 -0.175781 C 4.614258 -0.340576 4.885254 -0.340576 5.050049 -0.175781 C 5.214844 -0.00732422 5.214844 0.26001 5.050049 0.428467 C 5.101318 0.457764 5.181885 0.534668 5.200195 0.5896 C 5.15625 1.864014 4.086914 2.860107 2.8125 2.8125 C 1.541748 2.768555 0.545654 1.699219 0.5896 0.428467 C 0.626221 0.465088 0.684814 0.498047 0.721436 0.549316 C 0.732422 0.483398 0.765381 0.402832 0.812988 0.384521 C 1.021729 0.461426 1.149902 0.673828 1.120605 0.897217 C 1.094971 1.120605 0.915527 1.292725 0.692139 1.314697 C 0.472412 1.33667 0.26001 1.204834 0.186768 0.996094 C 0.113525 0.783691 0.194092 0.549316 0.384521 0.428467 C 0.421143 0.41748 0.46875 0.351562 0.490723 0.318604 C 0.596924 0.307617 0.695801 0.373535 0.72876 0.472412 C 0.765381 0.571289 0.725098 0.684814 0.637207 0.739746 C 0.545654 0.794678 0.428467 0.783691 0.355225 0.710449 C 0.27832 0.633545 0.263672 0.52002 0.318604 0.428467 C 0.366211 0.384521 0.421143 0.32959 0.432129 0.27832 C 0.571289 0.212402 0.739746 0.26001 0.827637 0.388184 C 0.915527 0.516357 0.897217 0.688477 0.787354 0.79834 C 0.67749 0.904541 0.501709 0.919189 0.377197 0.827637 C 0.252686 0.736084 0.20874 0.567627 0.27832 0.428467 C 0.270996 0.373535 0.274658 0.27832 0.256348 0.223389 C 0.322266 0.131836 0.439453 0.0952148 0.545654 0.13916 C 0.648193 0.179443 0.710449 0.289307 0.692139 0.39917 C 0.673828 0.509033 0.582275 0.593262 0.46875 0.600586 C 0.358887 0.60791 0.256348 0.534668 0.223389 0.428467 C 0.241699 0.369873 0.27832 0.267334 0.311279 0.241699 C 0.439453 0.0476074 0.692139 -0.0219727 0.897217 0.0842285 C 1.105957 0.19043 1.19751 0.432129 1.116943 0.648193 C 1.036377 0.86792 0.805664 0.98877 0.578613 0.930176 C 0.355225 0.875244 0.20874 0.65918 0.241699 0.428467 C 0.263672 0.384521 0.296631 0.311279 0.32959 0.296631 C 0.355225 0.340576 0.351562 0.439453 0.344238 0.494385 C 0.322266 0.325928 0.413818 0.161133 0.567627 0.0878906 C 0.721436 0.0109863 0.904541 0.0439453 1.025391 0.164795 C 1.14624 0.285645 1.175537 0.46875 1.102295 0.622559 C 1.025391 0.776367 0.864258 0.864258 0.692139 0.842285 C 0.72876 0.820312 0.794678 0.710449 0.812988 0.651855 C 0.9375 0.527344 1.142578 0.527344 1.26709 0.651855 C 1.391602 0.776367 1.391602 0.977783 1.26709 1.102295 C 1.26709 1.131592 1.278076 1.212158 1.263428 1.274414 C 1.2854 1.248779 1.311035 1.19751 1.325684 1.179199 C 1.340332 1.219482 1.329346 1.318359 1.311035 1.373291 C 1.237793 1.428223 1.135254 1.435547 1.05835 1.384277 C 0.981445 1.33667 0.941162 1.241455 0.963135 1.149902 C 0.985107 1.062012 1.05835 0.992432 1.149902 0.981445 C 1.245117 0.970459 1.333008 1.021729 1.373291 1.102295 C 1.376953 1.175537 1.325684 1.300049 1.281738 1.391602 C 0.882568 1.281738 0.0476074 1.237793 -0.794678 1.190186 Z M 21.437988 4.625244 " transform="matrix(1.066667,0,0,1.066667,0,0)"/>
<path style=" stroke:none;fill-rule:nonzero;fill:rgb(96.862745%,87.843137%,9.019608%);fill-opacity:1;" d="M 24.351562 2.585938 C 24.351562 2.550781 24.421875 2.476562 24.554688 2.480469 C 24.710938 2.480469 24.855469 2.59375 24.980469 2.585938 C 25.105469 2.578125 25.042969 2.621094 25.019531 2.628906 C 24.992188 2.640625 24.976562 2.65625 24.984375 2.675781 C 24.992188 2.699219 24.976562 2.710938 24.925781 2.691406 C 24.816406 2.652344 24.703125 2.707031 24.554688 2.675781 C 24.429688 2.648438 24.355469 2.632812 24.351562 2.585938 Z M 24.351562 2.585938 "/>
<path style="fill-rule:nonzero;fill:rgb(96.862745%,87.843137%,9.019608%);fill-opacity:1;stroke-width:0.015;stroke-linecap:butt;stroke-linejoin:miter;stroke:rgb(0%,0%,0%);stroke-opacity:1;stroke-miterlimit:4;" d="M 21.566162 4.874268 C 21.44165 5.024414 21.317139 4.998779 21.291504 4.903564 C 21.269531 4.80835 21.361084 4.764404 21.324463 4.680176 C 21.291504 4.595947 21.379395 4.559326 21.42334 4.595947 C 21.463623 4.632568 21.595459 4.511719 21.654053 4.63623 C 21.712646 4.764404 21.760254 4.848633 21.727295 4.899902 C 21.690674 4.951172 21.591797 4.925537 21.566162 4.874268 Z M 22.104492 4.650879 C 22.078857 4.595947 22.210693 4.489746 22.276611 4.56665 C 22.342529 4.639893 22.44873 4.482422 22.503662 4.603271 C 22.562256 4.720459 22.580566 4.782715 22.609863 4.848633 C 22.63916 4.914551 22.452393 4.951172 22.393799 4.892578 C 22.404785 4.932861 22.232666 4.962158 22.188721 4.852295 C 22.163086 4.793701 22.133789 4.724121 22.104492 4.650879 Z M 22.96875 4.720459 C 22.935791 4.661865 23.0896 4.577637 23.166504 4.683838 C 23.188477 4.639893 23.338623 4.632568 23.349609 4.760742 L 23.36792 5.009766 C 23.371582 5.061035 23.276367 5.108643 23.206787 4.980469 C 23.085938 5.006104 23.027344 4.936523 23.016357 4.863281 C 21.672363 4.903564 20.551758 3.848877 20.511475 2.504883 C 20.471191 1.160889 21.525879 0.0402832 22.869873 0 Z M 22.96875 4.720459 " transform="matrix(1.066667,0,0,1.066667,0,0)"/>
<path style="fill-rule:nonzero;fill:rgb(20%,45.098039%,12.941176%);fill-opacity:1;stroke-width:0.015;stroke-linecap:butt;stroke-linejoin:miter;stroke:rgb(0%,0%,0%);stroke-opacity:1;stroke-miterlimit:4;" d="M 21.646729 4.63623 C 21.628418 4.592285 21.75293 4.511719 21.84082 4.573975 C 21.925049 4.63623 22.042236 4.519043 22.093506 4.632568 C 22.196045 4.859619 22.199707 4.874268 22.17041 4.918213 C 22.137451 4.962158 22.005615 4.94751 21.972656 4.885254 C 21.965332 4.929199 21.851807 4.921875 21.789551 4.888916 C 21.723633 4.848633 21.676025 4.709473 21.646729 4.63623 Z M 22.521973 4.647217 C 22.492676 4.581299 22.69043 4.526367 22.774658 4.63623 C 22.818604 4.599609 22.913818 4.595947 22.96875 4.720459 C 23.023682 4.841309 23.031006 4.910889 22.990723 4.940186 C 22.961426 4.962158 22.862549 4.980469 22.82959 4.925537 C 22.781982 4.951172 22.642822 4.929199 22.609863 4.848633 C 22.580566 4.771729 22.55127 4.702148 22.521973 4.647217 Z M 23.349609 4.768066 C 23.345947 4.709473 23.452148 4.683838 23.492432 4.768066 C 23.532715 4.852295 23.657227 4.775391 23.668213 4.918213 C 23.671875 4.94751 23.653564 5.050049 23.613281 5.101318 C 23.57666 5.148926 23.382568 5.101318 23.371582 4.995117 C 21.990967 5.057373 20.822754 3.988037 20.760498 2.611084 C 20.698242 1.230469 21.767578 0.0622559 23.144531 0 Z M 23.349609 4.768066 " transform="matrix(1.066667,0,0,1.066667,0,0)"/>
<path style="fill:none;stroke-width:0.015;stroke-linecap:butt;stroke-linejoin:miter;stroke:rgb(0%,0%,0%);stroke-opacity:1;stroke-miterlimit:4;" d="M 21.566162 4.874268 C 21.522217 4.812012 21.459961 4.713135 21.379395 4.819336 M 21.972656 4.885254 C 20.625 4.921875 19.500732 3.859863 19.460449 2.512207 C 19.423828 1.164551 20.48584 0.0366211 21.833496 0 M 22.331543 0.146484 C 22.390137 0.311279 22.320557 0.490723 22.17041 0.571289 C 22.016602 0.651855 21.826172 0.60791 21.727295 0.46875 C 21.624756 0.32959 21.646729 0.135498 21.77124 0.0183105 C 21.895752 -0.102539 22.089844 -0.109863 22.225342 0 M 22.283936 -0.113525 C 22.357178 -0.106201 22.404785 -0.0366211 22.426758 -0.00366211 C 22.452393 0.0256348 22.5 0.0805664 22.536621 0.0878906 M 22.756348 0.135498 C 22.730713 0.0952148 22.705078 0.0622559 22.697754 0.032959 M 22.701416 -0.150146 C 22.741699 6.108398 17.702637 11.217041 11.44043 11.257324 C 5.181885 11.30127 0.0732422 6.258545 0.032959 0 M 0.406494 0.241699 C 0.325928 0.186768 0.274658 0.098877 0.263672 0 M 0.377197 -0.0842285 C 0.380859 0.0366211 0.545654 0.0439453 0.552979 0.131836 M 0.67749 -0.065918 C 0.695801 0.0842285 0.5896 0.219727 0.439453 0.238037 C 0.289307 0.256348 0.150146 0.150146 0.131836 0 " transform="matrix(1.066667,0,0,1.066667,0,0)"/>
</g>
</svg>
