<svg xmlns="http://www.w3.org/2000/svg" id="flag-icons-pn" viewBox="0 0 24 18" width="24" height="16"><path fill="#00247d" d="M0 0h24v18H0z"/><path fill="#012169" d="M0 0h12v9H0Z"/><path fill="#fff" d="m1.406 0 4.575 3.394L10.537 0h1.462v1.162l-4.5 3.356 4.5 3.337V9h-1.5l-4.5 -3.356L1.519 9H0v-1.125l4.481 -3.337L0 1.2V0Z"/><path fill="#c8102e" d="M7.95 5.269 12 8.25v0.75l-5.081 -3.731Zm-3.45 0.375 0.112 0.656 -3.6 2.7H0ZM12 0v0.056l-4.669 3.525 0.037 -0.825L11.063 0ZM0 0l4.481 3.3h-1.125L0 0.787Z"/><path fill="#fff" d="M4.519 0v9h3V0ZM0 3v3h12V3Z"/><path fill="#c8102e" d="M0 3.619v1.8h12v-1.8zM5.119 0v9h1.8V0Z"/><path fill="#f7e017" stroke="#000" stroke-width="0.015" d="M15.379 9.461a2.119 2.119 0 0 0 -0.713 1.042c-0.214 1.024 -0.499 1.252 -0.938 1.031 0 0.551 0.484 0.593 0.694 0.274 0 0.514 0.188 0.96 0.607 1.342 0.18 0.161 0.214 0.052 0.128 -0.128 -0.083 -0.176 -0.083 -0.75 -0.251 -1.08 0.27 0.191 0.667 0.083 0.637 -0.45 -0.349 0.203 -0.694 0.195 -0.731 -0.289 -0.041 -0.563 0.176 -1.387 0.566 -1.744zm-0.412 -4.072c0.026 -0.206 -0.019 -0.412 -0.169 -0.544 -0.285 -0.251 -0.566 -0.169 -0.776 0.037 -0.311 -0.172 -0.48 0.427 -0.832 0.326 0.056 0.195 0.15 0.278 0.33 0.21 -0.188 0.169 0 0.375 -0.221 0.578 0.397 0.128 0.607 -0.094 0.593 -0.476a0.36 0.36 0 0 0 0.514 -0.026c-0.21 -0.068 -0.21 -0.251 -0.128 -0.42 0.128 -0.255 0.724 -0.244 0.69 0.315z"/><path fill="#337321" stroke="#000" stroke-width="0.015" d="M15.885 8.329c-0.45 0.24 -1.267 0.139 -1.346 -0.45 -0.075 -0.581 0.491 -0.844 0.645 -0.919 0.236 -0.12 0.424 0.094 0.345 0.337 0.263 -0.09 0.322 -0.397 0.195 -0.574 0.349 0.026 0.667 -0.236 0.802 -0.607 -0.12 0.112 -0.45 0.037 -0.724 0.019 0.083 -0.094 0.083 -0.274 0.056 -0.367 -0.285 0.296 -0.701 0.161 -1.249 1.012a38.362 38.362 0 0 0 0.36 -1.391c0.03 -0.563 -0.563 -0.57 -0.69 -0.315 0.139 0.158 0.064 0.337 0.015 0.619 -0.06 0.326 -0.188 1.087 -0.296 1.342 -0.034 -0.397 -0.296 -0.424 -0.345 -0.619 -0.075 0.052 -0.12 0.188 -0.101 0.281 -0.094 -0.101 -0.416 0.026 -0.536 -0.128 -0.124 0.251 0.075 0.506 0.289 0.619 -0.124 0.007 -0.15 0.154 -0.289 0.154 0.184 0.214 0.371 0.3 0.585 0.315 0.217 0.015 0.375 0.098 0.506 0.36 0.214 0.424 1.02 0.698 1.777 0.311z"/><path fill="#f7e017" stroke="#000" stroke-width="0.015" d="M17.002 7.815c-0.255 0.701 -0.949 1.2 -1.26 1.275 -0.532 0.131 -1.62 0.66 -1.912 0.93a0.337 0.337 0 0 1 -0.12 -0.049c-0.142 -0.101 -0.263 -0.431 -0.007 -0.713 0.795 -0.743 1.65 -0.42 2.183 -0.93 -0.45 0.236 -1.267 0.135 -1.342 -0.45a2.063 2.063 0 0 0 2.044 -0.607 3.664 3.664 0 0 1 0.412 0.544z"/><path fill="#337321" stroke="#000" stroke-width="0.015" d="M15.379 9.461c-0.401 0.337 -0.607 1.177 -0.566 1.744 0.011 0.158 0.056 0.263 0.124 0.33 0.03 -0.322 0.251 -1.151 0.825 -1.522 0.48 -0.311 1.234 -1.012 1.511 -1.819a0.645 0.645 0 0 0 -0.296 -0.345c-0.278 0.757 -1.016 1.121 -1.597 1.613z"/><path fill="#316d3a" stroke="#000" stroke-width="0.015" d="M16.744 7.489a1.886 1.886 0 0 1 -0.784 0.63 0.412 0.412 0 0 0 0.094 -0.255 2.884 2.884 0 0 1 -1.515 0.019 2.063 2.063 0 0 0 2.047 -0.607 0.787 0.787 0 0 1 0.158 0.214z"/><path fill="#337321" stroke="#000" stroke-width="0.015" d="M13.702 9.262c-0.645 0.6 -0.217 1.132 0.037 1.249 -0.071 0.424 0.326 0.375 0.319 0.727 0.161 -0.09 0.203 -0.337 0.176 -0.532 0.206 0.221 0.72 -0.026 0.829 0.382 0.071 -0.45 -0.278 -0.9 -0.709 -0.855 0.18 -0.161 0.075 -0.424 -0.094 -0.491 -0.034 0.33 -0.405 0.33 -0.547 0.225 -0.146 -0.098 -0.263 -0.427 -0.011 -0.709z"/><path fill="#f7e017" stroke="#000" stroke-width="0.015" d="M15.101 13.11c-0.068 0.037 -0.064 0.131 -0.019 0.188 0.086 0.12 -0.064 0.39 0.225 0.446 0.083 0.019 0.15 -0.037 0.18 -0.131 0.09 -0.266 -0.195 -0.296 -0.221 -0.424 -0.022 -0.128 -0.105 -0.112 -0.165 -0.079z"/><path fill="#f7e017" stroke="#000" stroke-width="0.015" d="M15.345 13.609c-0.094 0.045 -0.18 0.105 -0.139 0.412 0.015 0.124 0.007 0.427 -0.105 0.431 0.068 0.037 0.214 0.075 0.274 -0.007 0.056 0.098 0.188 0.068 0.236 -0.049 0.068 0.052 0.161 -0.037 0.161 -0.12 0.056 0.037 0.176 -0.015 0.146 -0.199 0.075 0.026 0.165 -0.026 0.199 -0.071 -0.105 -0.022 -0.375 -0.165 -0.435 -0.278 -0.064 -0.116 -0.225 -0.172 -0.337 -0.12z"/><path fill="none" stroke="#000" stroke-width="0.015" d="M13.875 5.051c0.045 -0.06 0.094 -0.12 0.15 -0.172m1.462 1.294c0.075 -0.041 0.188 -0.049 0.315 -0.037M15.375 14.445c-0.03 -0.041 -0.041 -0.217 -0.022 -0.326m0.259 0.278c-0.049 -0.037 -0.135 -0.161 -0.15 -0.266m0.311 0.146a0.713 0.713 0 0 1 -0.236 -0.334m0.382 0.135c-0.071 -0.015 -0.285 -0.154 -0.375 -0.3"/><path fill="#f7e017" stroke="#000" stroke-width="0.015" d="M19.819 9.27c1.039 0.87 1.106 1.564 0.949 1.969 -0.086 -0.379 -0.517 -0.971 -0.968 -1.125z"/><path fill="#337321" stroke="#000" stroke-width="0.015" d="M17.959 8.775h1.927v2.288c0 1.946 -1.08 3.094 -2.183 3.705A4.061 4.061 0 0 1 15.525 11.063v-2.288h1.35c0 0.12 0.015 0.3 0.15 0.476 0.322 -0.03 0.682 -0.27 0.934 -0.472z"/><path fill="#006ec7" stroke="#000" stroke-width="0.015" d="M19.886 8.775v2.288c0 0.585 -0.098 1.102 -0.263 1.549L17.7 9.098l-1.912 3.514c-0.169 -0.45 -0.266 -0.964 -0.266 -1.549v-2.288z"/><path fill="#f7e017" d="M19.68 12.446a4.35 4.35 0 0 1 -0.142 0.375L17.7 9.412l-1.826 3.413c-0.049 -0.105 -0.109 -0.274 -0.142 -0.375l1.976 -3.66z"/><path fill="#f7e017" stroke="#000" stroke-width="0.015" d="m18.574 13.699 0.188 0.086a1.35 1.35 0 0 0 0.083 -0.743c-0.109 0.278 -0.48 0.27 -0.581 0.439 0.06 0.03 0.12 0.075 0.169 0.109 -0.128 0.128 -0.424 0.337 -0.593 0.39v-1.815c0 -0.128 -0.045 -0.232 -0.045 -0.337v-0.375c0 -0.086 -0.015 -0.21 -0.09 -0.21s-0.094 0.124 -0.094 0.21v0.375c0 0.105 -0.041 0.225 -0.041 0.337v1.815c-0.094 -0.27 -0.457 -0.18 -0.626 -0.45a0.525 0.525 0 0 1 0.203 -0.007c-0.128 -0.431 -0.476 -0.465 -0.54 -0.593 0 0.18 -0.075 0.593 0.041 0.773 0.026 -0.034 0.068 -0.068 0.112 -0.094 0.146 0.311 0.791 0.311 0.945 0.829 0.124 -0.188 0.563 -0.412 0.87 -0.739z"/><path fill="#f7e017" stroke="#000" stroke-width="0.015" d="M17.704 12.188c0.142 0 0.6 -0.045 0.765 -0.045 0.045 0 0.079 -0.068 0.079 -0.146 0 -0.075 -0.034 -0.142 -0.075 -0.142 -0.169 0 -0.623 -0.045 -0.769 -0.045 -0.142 0 -0.6 0.045 -0.765 0.045 -0.045 0 -0.079 0.064 -0.079 0.142s0.037 0.146 0.075 0.146c0.169 0 0.626 0.045 0.769 0.045zm-0.094 -0.743c-0.03 -0.026 -0.068 -0.037 -0.112 -0.037 -0.098 0 -0.176 0.068 -0.176 0.154 0 0.09 0.079 0.161 0.176 0.161 0.094 0 0.172 -0.075 0.172 -0.161 0 -0.068 0.098 -0.068 0.098 0 0 0.139 -0.12 0.251 -0.27 0.251s-0.274 -0.112 -0.274 -0.251c0 -0.135 0.124 -0.247 0.274 -0.247a0.3 0.3 0 0 1 0.124 0.03c0 0.022 -0.011 0.064 -0.011 0.101z"/><path fill="#f7e017" stroke="#000" stroke-width="0.015" d="M16.939 12.143c0.041 0 0.075 -0.068 0.075 -0.146 0 -0.075 -0.034 -0.142 -0.075 -0.142"/><path fill="#f7e017" stroke="#000" stroke-width="0.015" d="M17.002 12.143c0.041 0 0.075 -0.068 0.075 -0.146 0 -0.075 -0.034 -0.142 -0.075 -0.142m0.416 0.315c0.052 0 0.094 -0.075 0.094 -0.172 0 -0.094 -0.037 -0.172 -0.094 -0.172m0.098 0.352c0.056 0 0.098 -0.079 0.098 -0.18s-0.041 -0.18 -0.098 -0.18m0.326 0.364c0.056 0 0.098 -0.083 0.098 -0.184s-0.045 -0.184 -0.098 -0.184m0.101 0.36c0.052 0 0.098 -0.075 0.098 -0.176 0 -0.098 -0.045 -0.176 -0.098 -0.176m0.454 0.322c0.045 0 0.079 -0.064 0.079 -0.146s-0.034 -0.15 -0.075 -0.15m-1.639 1.762c0.049 -0.034 0.112 -0.06 0.18 -0.075m1.541 0.09 -0.052 -0.037m0.142 0.112c0.12 -0.128 0.217 -0.274 0.274 -0.439"/><path fill="#fff" stroke="#000" stroke-width="0.015" d="M17.317 10.395c0 -0.045 0.034 -0.06 0.075 -0.09 0.045 -0.037 0.064 -0.052 0.109 -0.052h0.555c0.037 0 0.049 0.011 0.049 0.049v0.75c0 0.037 -0.007 0.052 -0.049 0.052h-0.739v-0.72"/><path fill="#e5e5e5" stroke="#000" stroke-width="0.015" d="M17.918 11.168c0.075 0 0.06 0 0.112 -0.052s0.049 -0.049 0.049 -0.098v-0.69c0 -0.037 -0.011 -0.045 -0.049 -0.045h-0.514c-0.037 0 -0.056 0.015 -0.101 0.049 -0.037 0.03 -0.068 0.045 -0.068 0.083v0.754z"/><path fill="#fff" stroke="#000" stroke-width="0.015" d="M17.974 11.152c0 0.037 -0.011 0.049 -0.052 0.049h-0.555c-0.041 0 -0.049 -0.011 -0.049 -0.049v-0.754c0 -0.037 0.007 -0.049 0.049 -0.049h0.555c0.041 0 0.052 0.011 0.052 0.049z"/><path fill="#96877d" stroke="#000" stroke-width="0.015" d="M19.05 8.336c0.105 0.12 0.142 0.281 0.083 0.443H18.975c0.068 -0.206 0.026 -0.397 -0.263 -0.424 -0.427 -0.037 -0.93 0.795 -1.684 0.896 -0.217 -0.263 -0.206 -0.761 0.075 -0.998a3.075 3.075 0 0 0 -0.664 -1.073 2.063 2.063 0 0 0 -0.401 -0.026c0.112 -0.24 0.424 -0.487 0.679 -0.589a3.075 3.075 0 0 1 0.128 -0.169c0.026 -0.326 1.575 -0.176 1.901 0.026 0 0.367 0.146 1.583 0.307 1.912z"/><path d="M17.175 8.557c-0.037 -0.563 -0.266 -1.027 -0.589 -1.342a0.881 0.881 0 0 0 0.675 -0.112c0.281 -0.188 1.012 -0.51 1.275 -0.371 0.022 0.049 0.037 0.15 0.019 0.221 -0.064 -0.169 -0.765 0.09 -0.964 0.172 -0.188 0.086 -0.274 0.206 -0.206 0.472 -0.112 -0.094 -0.075 -0.18 -0.188 -0.247 0.045 0.109 0.083 0.307 0.098 0.469 -0.045 -0.112 -0.12 -0.36 -0.285 -0.506a2.783 2.783 0 0 1 0.21 1.305c0.112 0 0.367 -0.112 0.465 -0.188 -0.086 0.124 -0.345 0.214 -0.506 0.247a0.825 0.825 0 0 0 -0.124 0.443c-0.011 -0.158 0.037 -0.536 0.116 -0.563zm1.875 -0.221c-0.142 -0.158 -0.401 -0.24 -0.735 -0.15a1.05 1.05 0 0 1 0.255 -0.086c-0.011 -0.086 -0.09 -0.469 -0.105 -0.563l0.094 -0.037c0.049 0.229 0.105 0.491 0.142 0.6 0.03 0.004 0.098 0.019 0.158 0.049 -0.026 -0.09 -0.169 -0.727 -0.165 -0.795l0.128 -0.068a5.175 5.175 0 0 0 0.225 1.05z"/><path fill="#96877d" stroke="#000" stroke-width="0.015" d="M18.975 8.775c0.064 -0.199 0.022 -0.394 -0.263 -0.42 -0.225 -0.019 -0.465 0.199 -0.75 0.424zm-1.871 -1.819a1.688 1.688 0 0 1 -0.555 -0.056c0.007 -0.037 0.022 -0.075 0.041 -0.12a1.762 1.762 0 0 0 -0.319 0.255c0.203 0.045 0.623 0.064 0.832 -0.079z"/><path fill="none" stroke="#000" stroke-width="0.015" d="M17.1 8.25c0.045 0.139 0.075 0.27 0.079 0.386m-0.465 -2.07c-0.075 0.112 -0.142 0.232 -0.165 0.337a1.785 1.785 0 0 0 0.555 0.052"/><path fill="none" stroke="#000" stroke-width="0.015" d="M16.44 7.181c0.052 0.011 0.105 0.019 0.15 0.034 0.15 0.041 0.461 0.041 0.675 -0.112 0.21 -0.15 0.787 -0.626 1.436 -0.675"/><path fill="none" stroke="#000" stroke-width="0.015" d="M16.271 7.035c0.203 0.045 0.623 0.064 0.832 -0.079a2.854 2.854 0 0 1 1.44 -0.555"/><path fill="#337321" stroke="#000" stroke-width="0.015" d="M19.819 9.27c0.713 0.487 1.238 0.964 1.387 1.725s0.439 0.964 0.795 0.761c-0.083 0.439 -0.525 0.487 -0.896 0.15 0.037 0.51 -0.169 1.117 -0.694 1.339 -0.034 -0.304 0.169 -0.547 0.112 -0.795 -0.026 -0.112 -0.037 -0.364 0.109 -0.484 -0.281 0.094 -0.72 -0.083 -0.761 -0.499 0.322 0.15 0.735 0.176 0.896 -0.229 0.158 -0.405 0.09 -1.099 -0.949 -1.969zm0.896 -3.96c0.221 -0.574 0.795 -0.514 0.99 -0.27 0.566 -0.322 0.645 0.405 1.125 0.263 -0.007 0.135 -0.169 0.263 -0.345 0.251 0.188 0.169 -0.075 0.424 0.319 0.578 -0.337 0.169 -0.81 -0.007 -0.938 -0.476 -0.112 0.221 -0.506 0.221 -0.667 0.045 0.345 -0.094 0.322 -0.412 0.128 -0.544 -0.199 -0.128 -0.544 -0.075 -0.611 0.154zm-1.714 1.267a3.083 3.083 0 0 0 0.836 1.305c0.405 0.375 1.016 0.278 1.361 -0.075 0.007 0.705 -0.727 0.761 -1.132 0.54 -0.18 -0.098 -0.326 -0.049 -0.154 0.112 0.263 0.232 0.836 0.412 1.515 0.555 1.181 0.255 0.761 1.192 0.412 1.185 0.101 0 0.184 -0.109 0.037 -0.236 -1.027 -0.926 -3.112 -0.563 -3.083 -2.625 -0.217 0.544 -1.125 0.33 -0.701 -0.311 0.135 0.109 0.375 0.116 0.439 -0.052 0.052 -0.131 0.019 -0.36 -0.217 -0.559 0.037 0 0.124 0 0.112 -0.098 0.011 0.06 0.064 0.142 0.199 0.112 0.037 0.064 0.075 0.101 0.131 0.079 0.011 0 0.041 -0.019 0.03 -0.079 0.007 0.112 0.142 0.154 0.214 0.146z"/><path fill="#f7e017" stroke="#000" stroke-width="0.015" d="M20.063 8.348c0.491 0.319 1.05 0.319 1.556 -0.27 0.161 -0.188 0.412 -0.349 0.593 -0.364 0.18 -0.019 0.169 -0.188 0.304 -0.225 -0.083 -0.022 -0.116 -0.124 -0.244 -0.112 0.319 -0.109 0.225 -0.364 0.379 -0.487 -0.128 0.049 -0.322 -0.139 -0.506 0.101 0.049 -0.112 -0.019 -0.24 -0.064 -0.292 0.019 0.128 -0.247 0.15 -0.3 0.472 -0.026 0.18 -0.128 0.172 -0.142 -0.109 -0.011 -0.203 -0.112 -0.769 -0.225 -1.057 -0.12 -0.285 -0.15 -0.682 0.011 -0.739a0.289 0.289 0 0 0 -0.098 -0.105c-0.199 -0.128 -0.544 -0.075 -0.611 0.15 -0.217 0.578 0.397 0.907 0.349 1.534 -0.094 -0.465 -0.848 -0.585 -0.84 -1.042 -0.244 0.112 -0.21 0.315 -0.116 0.476 -0.15 -0.236 -0.499 0.15 -0.795 -0.169 -0.037 0.424 0.337 0.581 0.641 0.6 -0.15 0.27 0.052 0.499 0.255 0.574 0.007 -0.472 0.979 -0.281 0.99 0.532 0.007 0.694 -0.739 0.75 -1.136 0.532zm1.365 0.667c1.181 0.255 0.761 1.192 0.412 1.185 -0.221 -0.007 -0.431 -0.191 -0.443 -0.352 -0.255 0.135 -0.188 0.401 0.007 0.506 -0.532 -0.06 -0.757 0.289 -0.769 0.675 0.098 -0.18 0.39 -0.188 0.502 -0.15s0.394 0.056 0.506 -0.075c-0.094 0.083 0.06 0.27 -0.075 0.412 0.45 -0.015 0.641 -0.431 0.563 -0.611 0.578 -0.525 0.469 -1.38 -0.705 -1.59zm-0.904 4.02c0.075 0.045 0.068 0.15 0.015 0.214 -0.105 0.128 0.052 0.431 -0.27 0.487 -0.094 0.011 -0.165 -0.049 -0.195 -0.158 -0.09 -0.3 0.229 -0.322 0.263 -0.461 0.037 -0.142 0.124 -0.124 0.188 -0.083z"/><path fill="#f7e017" stroke="#000" stroke-width="0.015" d="M20.235 13.579c0.101 0.052 0.191 0.128 0.139 0.465 -0.026 0.139 -0.03 0.48 0.094 0.487 -0.075 0.037 -0.24 0.071 -0.3 -0.019 -0.071 0.105 -0.214 0.068 -0.263 -0.068 -0.083 0.06 -0.18 -0.049 -0.176 -0.139 -0.068 0.037 -0.199 -0.026 -0.158 -0.225 -0.083 0.022 -0.184 -0.037 -0.217 -0.09 0.116 -0.022 0.42 -0.169 0.499 -0.292 0.075 -0.128 0.263 -0.18 0.382 -0.12z"/><path fill="none" stroke="#000" stroke-width="0.015" d="M20.164 14.512c0.037 -0.045 0.056 -0.244 0.037 -0.364m-0.3 0.296c0.056 -0.037 0.158 -0.169 0.18 -0.289m-0.356 0.15a0.825 0.825 0 0 0 0.278 -0.364m-0.431 0.139c0.075 -0.015 0.322 -0.161 0.427 -0.322"/><path fill="#f7e017" stroke="#000" stroke-width="0.015" d="M18.795 7.343c-0.015 0.862 0.345 1.305 0.848 1.59 -0.188 -0.112 -0.105 -0.491 -0.356 -0.615 0.06 -0.004 0.15 0.079 0.3 0.045 -0.075 -0.158 -0.188 -0.405 -0.465 -0.439 0.075 -0.007 0.225 0.019 0.33 -0.019 -0.142 -0.225 -0.525 -0.116 -0.656 -0.563zm-0.09 -0.825c-0.03 -0.011 -0.056 -0.041 -0.079 -0.083 -0.135 0.03 -0.188 -0.056 -0.199 -0.112 0.011 0.098 -0.075 0.094 -0.112 0.098 0.236 0.195 0.27 0.424 0.217 0.555 -0.068 0.169 -0.3 0.161 -0.439 0.052 -0.019 0.36 0.45 0.476 0.619 0.026 0 0.075 0.098 0.068 0.12 0.169 0.12 -0.195 0.03 -0.476 -0.128 -0.705z"/><path fill="#337321" stroke="#000" stroke-width="0.015" d="M17.962 4.8a1.012 1.012 0 0 1 -0.3 -0.709c0.007 -0.188 0.083 -0.386 0.356 -0.3 -0.086 0 -0.026 0.165 -0.112 0.184 0.068 0.026 0.165 -0.034 0.18 -0.075 0.015 0.06 0.128 0.045 0.135 0.112 0.041 -0.034 -0.004 -0.199 -0.068 -0.232 0.045 -0.026 0.075 -0.158 0.052 -0.221 -0.045 0.007 -0.109 0.068 -0.12 0.154 0.022 -0.068 -0.004 -0.236 -0.124 -0.263 -0.034 0.045 -0.041 0.161 0.004 0.225 -0.109 -0.026 -0.27 0.045 -0.307 0.139 0.007 -0.112 0.022 -0.274 0.094 -0.375 0.022 -0.03 -0.037 -0.09 -0.079 -0.011 -0.083 -0.161 -0.3 -0.244 -0.401 -0.165 -0.098 0.083 -0.225 -0.037 -0.307 0.09 -0.079 0.128 -0.352 0.139 -0.337 0.274 0.007 0.083 -0.011 0.206 -0.052 0.251 -0.098 0.109 0.049 0.188 0.075 0.285 -0.019 -0.319 0.491 -0.945 1.005 -0.701a1.132 1.132 0 0 0 -0.101 0.435c-0.022 0.289 0.022 0.694 0.3 0.934z"/><path fill="#c8102e" stroke="#000" stroke-width="0.015" d="M18.113 3.791c0 -0.075 0.131 -0.176 0.307 -0.172 0.214 0 0.375 0.195 0.547 0.176s0.09 0.075 0.052 0.105c-0.037 0.022 -0.056 0.06 -0.045 0.109 0.011 0.045 -0.007 0.075 -0.075 0.034 -0.154 -0.098 -0.307 0.037 -0.51 -0.037 -0.169 -0.064 -0.27 -0.101 -0.278 -0.214z"/><path fill="#96877d" stroke="#000" stroke-width="0.015" d="M17.242 5.79a1.286 1.286 0 0 0 -0.563 -0.626l-0.007 -0.142a1.875 1.875 0 0 0 0.379 -0.285c0.637 0.3 1.5 -0.128 1.897 -0.574l0.15 0.09 -0.075 0.101 -0.079 -0.041a4.86 4.86 0 0 1 -0.57 0.532c0.146 0.037 0.349 0.064 0.405 0.06 0.352 -0.255 0.634 -0.484 0.769 -0.499l0.112 0.15 -0.101 0.075 -0.079 -0.049a4.076 4.076 0 0 0 -0.982 1.455c-0.236 -0.052 -1.084 -0.019 -1.256 -0.247z"/><path fill="none" stroke="#000" stroke-width="0.015" d="M18.375 4.845c-0.056 -0.015 -0.105 -0.03 -0.131 -0.045a0.851 0.851 0 0 1 -0.454 0.128"/><path fill="none" stroke="#000" stroke-width="0.015" d="M17.276 5.696c-0.056 -0.315 0.037 -0.667 0.195 -0.773a1.26 1.26 0 0 0 1.305 -0.019"/><path fill="none" stroke="#000" stroke-width="0.015" d="M17.276 5.531c0.27 -0.007 0.862 0.037 1.001 0.056 0.146 0.022 0.386 0.083 0.352 0.154m-1.23 -0.255 0.079 -0.075 -0.075 -0.079 -0.079 0.075z"/><path fill="#337321" stroke="#000" stroke-width="0.015" d="M17.587 3.911c-0.098 -0.135 -0.367 -0.18 -0.424 0 -0.026 0.083 -0.064 0.169 -0.128 0.206s-0.049 0.154 -0.022 0.203c0.068 0.124 0.007 0.244 0.139 0.322 0 -0.098 0.146 -0.199 0.266 -0.225 0.124 -0.022 0.311 -0.135 0.337 -0.255 0.022 -0.128 0.068 -0.225 -0.169 -0.251z"/><path fill="#96877d" stroke="#000" stroke-width="0.015" d="M16.976 5.13h0.037v0.229l0.019 0.011 0.199 -0.112 0.019 0.026 -0.203 0.116v0.022l0.203 0.112 -0.019 0.03 -0.203 -0.112c-0.004 0.004 -0.011 0.011 -0.019 0.011v0.232h-0.034v-0.232a0.075 0.075 0 0 1 -0.019 -0.011l-0.199 0.116 -0.019 -0.03 0.199 -0.112v-0.026l-0.199 -0.112 0.019 -0.03 0.199 0.112 0.019 -0.011z"/><path fill="#96877d" stroke="#000" stroke-width="0.015" d="M17.276 5.692a0.401 0.401 0 1 1 0.034 -0.525 0.9 0.9 0 0 0 -0.045 0.214 0.274 0.274 0 1 0 -0.274 0.3c0.128 0 0.236 -0.086 0.27 -0.203 0 0.052 0 0.172 0.015 0.214z"/><path fill="#337321" stroke="#000" stroke-width="0.015" d="M16.823 6.075c-0.022 -0.03 -0.071 -0.112 -0.064 -0.169a0.225 0.225 0 0 1 0.142 0.056c-0.004 -0.045 -0.022 -0.135 -0.011 -0.18 0.045 0.019 0.142 0.075 0.176 0.135 -0.007 -0.041 -0.026 -0.15 -0.007 -0.217 0.049 0.03 0.135 0.109 0.15 0.165 0.007 -0.086 0.037 -0.225 0.06 -0.263 0.037 0.037 0.098 0.075 0.135 0.128 0.007 -0.071 0.045 -0.15 0.094 -0.169 0.037 0.037 0.098 0.139 0.112 0.247 0.037 -0.011 0.086 -0.075 0.109 -0.112 0.019 0.037 0.041 0.094 0.026 0.169 0.049 -0.045 0.105 -0.101 0.112 -0.154 0.037 0.026 0.101 0.09 0.116 0.158 -0.007 -0.056 0 -0.154 -0.019 -0.21 0.06 0.037 0.112 0.094 0.124 0.158 0.019 -0.06 0.056 -0.165 0.09 -0.188 0.034 0.068 0.068 0.15 0.064 0.214 0.022 -0.041 0.052 -0.12 0.086 -0.135 0.03 0.045 0.026 0.15 0.019 0.203 0.03 -0.041 0.086 -0.094 0.12 -0.112 0 0.03 0.007 0.079 0 0.116a0.525 0.525 0 0 0 0.12 -0.195c0.06 0.03 0.12 0.131 0.124 0.184 0.045 -0.019 0.128 -0.094 0.15 -0.135 0 0.03 0.015 0.112 0 0.172 0.026 -0.026 0.049 -0.075 0.064 -0.098 0.015 0.041 0 0.142 -0.015 0.199a0.225 0.225 0 0 1 0.128 -0.056 0.75 0.75 0 0 1 -0.094 0.292c-0.405 -0.112 -1.256 -0.154 -2.111 -0.203z"/><path fill="#f7e017" d="M18.24 3.836c0 -0.034 0.068 -0.101 0.191 -0.101 0.15 0 0.289 0.112 0.409 0.101 0.12 -0.007 0.06 0.034 0.037 0.041 -0.03 0.011 -0.041 0.026 -0.037 0.045 0.011 0.022 0 0.034 -0.052 0.015 -0.105 -0.037 -0.214 0.015 -0.352 -0.015 -0.12 -0.026 -0.191 -0.037 -0.195 -0.086"/><path fill="#f7e017" stroke="#000" stroke-width="0.015" d="M16.954 6.33c-0.124 0.15 -0.251 0.128 -0.278 0.03s0.068 -0.142 0.034 -0.229 0.056 -0.124 0.098 -0.086 0.18 -0.083 0.236 0.045c0.06 0.128 0.105 0.214 0.075 0.263 -0.037 0.052 -0.139 0.026 -0.165 -0.022zm0.547 -0.229c-0.022 -0.056 0.109 -0.165 0.176 -0.086 0.068 0.075 0.172 -0.083 0.232 0.037s0.075 0.184 0.109 0.251c0.026 0.068 -0.161 0.101 -0.221 0.045 0.007 0.037 -0.165 0.071 -0.21 -0.045zm0.877 0.071c-0.03 -0.06 0.124 -0.146 0.206 -0.037 0.019 -0.045 0.172 -0.052 0.184 0.075l0.019 0.259c0.004 0.049 -0.094 0.098 -0.161 -0.034 -0.128 0.026 -0.184 -0.045 -0.199 -0.116 -0.015 -0.075 -0.03 -0.112 -0.049 -0.15z"/><path fill="#337321" stroke="#000" stroke-width="0.015" d="M17.036 6.086c-0.019 -0.041 0.112 -0.128 0.195 -0.064 0.086 0.064 0.206 -0.052 0.263 0.06 0.101 0.232 0.105 0.247 0.075 0.292s-0.169 0.026 -0.203 -0.037c-0.004 0.045 -0.124 0.037 -0.184 0.004 -0.068 -0.037 -0.116 -0.18 -0.146 -0.255zm0.889 0.011c-0.026 -0.068 0.172 -0.124 0.263 -0.007 0.041 -0.041 0.139 -0.045 0.191 0.083 0.056 0.124 0.064 0.191 0.026 0.225 -0.03 0.022 -0.131 0.037 -0.165 -0.019 -0.049 0.03 -0.191 0.004 -0.225 -0.075 -0.03 -0.079 -0.056 -0.15 -0.086 -0.206zm0.844 0.128c0 -0.064 0.105 -0.09 0.146 0 0.037 0.083 0.169 0.004 0.18 0.15 0 0.026 -0.015 0.131 -0.056 0.184 -0.037 0.049 -0.236 0 -0.251 -0.109z"/><path fill="none" stroke="#000" stroke-width="0.015" d="M16.954 6.33c-0.045 -0.064 -0.109 -0.165 -0.188 -0.056m0.604 0.064c-0.03 -0.034 -0.064 -0.094 -0.075 -0.139m0.502 0.15c-0.03 -0.022 -0.075 -0.064 -0.098 -0.109m0.06 -0.112c0.075 0.007 0.124 0.075 0.146 0.109 0.022 0.03 0.075 0.09 0.112 0.094m0.221 0.049c-0.026 -0.037 -0.052 -0.075 -0.056 -0.105m0.004 -0.184c0.022 0.037 0.041 0.064 0.056 0.098m0.379 0.247a0.349 0.349 0 0 0 -0.131 -0.146m0.116 -0.086c0.004 0.124 0.169 0.135 0.176 0.225m0.131 -0.203c0.015 0.03 0.022 0.06 0.022 0.112"/></svg>