<?xml version="1.0" encoding="UTF-8"?>
<svg xmlns="http://www.w3.org/2000/svg" xmlns:xlink="http://www.w3.org/1999/xlink" width="24px" height="16px" viewBox="0 0 29 16" version="1.1">
<g id="surface1">
<rect x="0" y="0" width="29" height="16" style="fill:rgb(0%,21.960784%,65.882353%);fill-opacity:1;stroke:none;"/>
<path style=" stroke:none;fill-rule:nonzero;fill:rgb(100%,100%,100%);fill-opacity:1;" d="M 0 0 L 29 0 L 29 10.667969 L 0 10.667969 Z M 0 0 "/>
<path style=" stroke:none;fill-rule:nonzero;fill:rgb(83.529412%,16.862745%,11.764706%);fill-opacity:1;" d="M 0 0 L 29 0 L 29 5.332031 L 0 5.332031 Z M 0 0 "/>
<path style="fill-rule:nonzero;fill:rgb(100%,100%,100%);fill-opacity:1;stroke-width:3.687;stroke-linecap:butt;stroke-linejoin:miter;stroke:rgb(0%,0%,0%);stroke-opacity:1;stroke-miterlimit:10;" d="M 683.728448 330 C 683.728448 376.245117 646.228448 413.62793 600 413.62793 C 553.771552 413.62793 516.271552 376.245117 516.271552 330 C 516.271552 283.754883 553.771552 246.37207 600 246.37207 C 646.228448 246.37207 683.56681 283.754883 683.728448 330 Z M 683.728448 330 " transform="matrix(0.0241667,0,0,0.0242424,0,0)"/>
<path style="fill-rule:nonzero;fill:rgb(0%,60.784314%,22.745098%);fill-opacity:1;stroke-width:0.985;stroke-linecap:butt;stroke-linejoin:miter;stroke:rgb(0%,0%,0%);stroke-opacity:1;stroke-miterlimit:4;" d="M 640.409483 316.948242 C 638.469828 316.948242 638.469828 319.204102 638.469828 319.204102 C 638.469828 319.204102 638.469828 318.55957 638.469828 319.204102 C 638.30819 320.009766 638.793103 321.782227 640.247845 321.943359 C 641.864224 322.104492 642.349138 320.332031 642.349138 319.365234 C 642.349138 319.042969 642.1875 317.109375 640.409483 316.948242 " transform="matrix(0.0241667,0,0,0.0242424,0,0)"/>
<path style=" stroke:none;fill-rule:nonzero;fill:rgb(0%,0%,0%);fill-opacity:1;" d="M 13.230469 8.8125 L 13.214844 8.78125 C 13.210938 8.777344 13.207031 8.769531 13.199219 8.765625 C 13.199219 8.761719 13.191406 8.761719 13.1875 8.757812 C 13.183594 8.757812 13.175781 8.761719 13.171875 8.761719 C 13.164062 8.765625 13.160156 8.773438 13.160156 8.777344 C 13.160156 8.789062 13.164062 8.800781 13.167969 8.808594 L 13.1875 8.839844 Z M 13.402344 8.800781 L 13.183594 8.933594 L 13.117188 8.820312 C 13.105469 8.804688 13.097656 8.785156 13.09375 8.769531 C 13.089844 8.753906 13.089844 8.742188 13.097656 8.730469 C 13.101562 8.714844 13.113281 8.703125 13.125 8.699219 C 13.136719 8.691406 13.148438 8.6875 13.160156 8.6875 C 13.175781 8.6875 13.1875 8.6875 13.195312 8.695312 C 13.203125 8.699219 13.210938 8.707031 13.21875 8.714844 C 13.21875 8.707031 13.214844 8.699219 13.21875 8.691406 C 13.21875 8.683594 13.21875 8.679688 13.222656 8.671875 C 13.222656 8.667969 13.226562 8.660156 13.230469 8.65625 L 13.273438 8.585938 L 13.320312 8.660156 L 13.273438 8.738281 C 13.269531 8.746094 13.265625 8.753906 13.265625 8.761719 C 13.265625 8.769531 13.265625 8.773438 13.269531 8.78125 L 13.273438 8.785156 L 13.363281 8.734375 Z M 13.015625 8.621094 L 12.949219 8.421875 L 13 8.402344 L 13.042969 8.527344 L 13.082031 8.515625 L 13.042969 8.398438 L 13.089844 8.382812 L 13.128906 8.5 L 13.179688 8.484375 L 13.136719 8.355469 L 13.191406 8.335938 L 13.257812 8.539062 Z M 13.023438 8.210938 L 13.019531 8.191406 C 13.019531 8.183594 13.015625 8.171875 13.007812 8.164062 C 13.003906 8.15625 12.996094 8.15625 12.988281 8.15625 C 12.980469 8.15625 12.972656 8.160156 12.96875 8.164062 C 12.960938 8.175781 12.960938 8.1875 12.964844 8.195312 L 12.964844 8.21875 Z M 12.921875 8.304688 L 12.90625 8.171875 C 12.902344 8.148438 12.910156 8.125 12.921875 8.105469 C 12.933594 8.089844 12.953125 8.082031 12.976562 8.078125 C 13 8.074219 13.019531 8.082031 13.039062 8.09375 C 13.058594 8.113281 13.066406 8.136719 13.070312 8.164062 L 13.074219 8.207031 L 13.167969 8.195312 L 13.175781 8.273438 Z M 12.914062 7.804688 L 12.921875 7.726562 L 13.074219 7.742188 C 13.089844 7.742188 13.101562 7.746094 13.117188 7.753906 C 13.128906 7.757812 13.140625 7.769531 13.148438 7.777344 C 13.15625 7.789062 13.164062 7.800781 13.167969 7.8125 C 13.171875 7.832031 13.171875 7.851562 13.167969 7.867188 C 13.167969 7.882812 13.164062 7.894531 13.160156 7.910156 C 13.160156 7.921875 13.15625 7.933594 13.148438 7.945312 C 13.140625 7.953125 13.132812 7.964844 13.121094 7.96875 C 13.113281 7.976562 13.101562 7.980469 13.089844 7.984375 C 13.078125 7.984375 13.0625 7.988281 13.046875 7.984375 L 12.898438 7.96875 L 12.90625 7.890625 L 13.058594 7.90625 C 13.070312 7.910156 13.085938 7.90625 13.09375 7.898438 C 13.101562 7.890625 13.109375 7.882812 13.109375 7.867188 C 13.109375 7.855469 13.109375 7.84375 13.101562 7.835938 C 13.09375 7.828125 13.082031 7.820312 13.070312 7.820312 Z M 13.167969 7.589844 L 13.183594 7.550781 C 13.1875 7.539062 13.1875 7.53125 13.183594 7.519531 C 13.183594 7.511719 13.175781 7.507812 13.167969 7.507812 C 13.164062 7.503906 13.15625 7.503906 13.148438 7.507812 C 13.140625 7.515625 13.136719 7.523438 13.132812 7.53125 L 13.121094 7.570312 Z M 13.074219 7.554688 L 13.085938 7.523438 C 13.089844 7.515625 13.089844 7.503906 13.085938 7.496094 C 13.085938 7.488281 13.078125 7.484375 13.074219 7.484375 C 13.066406 7.480469 13.058594 7.480469 13.054688 7.484375 C 13.046875 7.488281 13.042969 7.496094 13.039062 7.503906 L 13.027344 7.539062 Z M 12.953125 7.597656 L 13 7.457031 C 13.007812 7.4375 13.019531 7.421875 13.039062 7.410156 C 13.054688 7.402344 13.070312 7.398438 13.085938 7.40625 C 13.101562 7.410156 13.113281 7.417969 13.121094 7.433594 C 13.113281 7.441406 13.117188 7.453125 13.125 7.460938 C 13.132812 7.46875 13.144531 7.46875 13.15625 7.460938 C 13.164062 7.457031 13.167969 7.445312 13.160156 7.433594 C 13.175781 7.429688 13.191406 7.429688 13.203125 7.433594 C 13.214844 7.4375 13.226562 7.445312 13.234375 7.453125 C 13.242188 7.464844 13.246094 7.476562 13.25 7.488281 C 13.25 7.496094 13.25 7.507812 13.246094 7.519531 C 13.242188 7.535156 13.242188 7.546875 13.238281 7.550781 L 13.195312 7.683594 Z M 13.082031 7.269531 L 13.125 7.199219 L 13.289062 7.300781 L 13.351562 7.195312 L 13.40625 7.226562 L 13.300781 7.402344 Z M 13.253906 7.015625 L 13.304688 6.957031 L 13.5 7.121094 L 13.445312 7.183594 Z M 13.605469 6.878906 L 13.671875 6.851562 C 13.679688 6.867188 13.6875 6.882812 13.6875 6.902344 C 13.6875 6.917969 13.683594 6.933594 13.675781 6.949219 C 13.667969 6.964844 13.65625 6.980469 13.640625 6.992188 C 13.621094 7.007812 13.601562 7.019531 13.582031 7.027344 C 13.558594 7.03125 13.539062 7.03125 13.515625 7.023438 C 13.492188 7.011719 13.46875 6.996094 13.453125 6.976562 C 13.429688 6.949219 13.414062 6.914062 13.417969 6.878906 C 13.429688 6.816406 13.476562 6.769531 13.539062 6.757812 C 13.5625 6.757812 13.589844 6.761719 13.609375 6.777344 L 13.566406 6.832031 C 13.558594 6.832031 13.554688 6.828125 13.546875 6.824219 C 13.542969 6.824219 13.535156 6.824219 13.527344 6.824219 C 13.519531 6.828125 13.511719 6.832031 13.507812 6.835938 C 13.496094 6.84375 13.488281 6.863281 13.488281 6.878906 C 13.492188 6.894531 13.5 6.910156 13.511719 6.925781 C 13.523438 6.941406 13.542969 6.953125 13.5625 6.960938 C 13.589844 6.964844 13.613281 6.945312 13.617188 6.917969 C 13.617188 6.902344 13.613281 6.890625 13.605469 6.878906 M 13.867188 6.722656 L 13.796875 6.65625 L 13.816406 6.75 Z M 13.90625 6.765625 L 13.824219 6.808594 L 13.832031 6.851562 L 13.761719 6.886719 L 13.730469 6.617188 L 13.808594 6.574219 L 14.007812 6.761719 L 13.9375 6.796875 Z M 14.214844 6.5 L 14.234375 6.636719 L 14.253906 6.636719 C 14.265625 6.632812 14.277344 6.628906 14.289062 6.625 C 14.296875 6.621094 14.300781 6.613281 14.300781 6.601562 C 14.304688 6.589844 14.304688 6.574219 14.300781 6.558594 C 14.300781 6.539062 14.292969 6.519531 14.28125 6.503906 C 14.269531 6.496094 14.25 6.492188 14.234375 6.496094 Z M 14.128906 6.453125 L 14.246094 6.4375 C 14.265625 6.433594 14.285156 6.433594 14.300781 6.4375 C 14.316406 6.441406 14.332031 6.449219 14.339844 6.460938 C 14.351562 6.46875 14.359375 6.484375 14.367188 6.496094 C 14.375 6.511719 14.378906 6.527344 14.378906 6.546875 C 14.382812 6.566406 14.382812 6.589844 14.378906 6.609375 C 14.375 6.625 14.371094 6.640625 14.359375 6.652344 C 14.351562 6.664062 14.339844 6.671875 14.328125 6.675781 C 14.3125 6.683594 14.296875 6.6875 14.28125 6.691406 L 14.164062 6.707031 Z M 14.476562 6.402344 L 14.6875 6.417969 L 14.683594 6.472656 L 14.550781 6.464844 L 14.550781 6.503906 L 14.671875 6.511719 L 14.667969 6.566406 L 14.546875 6.558594 L 14.542969 6.605469 L 14.679688 6.617188 L 14.671875 6.675781 L 14.457031 6.660156 Z M 14.800781 6.433594 L 14.878906 6.453125 L 14.824219 6.640625 L 14.945312 6.675781 L 14.925781 6.734375 L 14.734375 6.679688 Z M 15.234375 6.71875 L 15.25 6.726562 C 15.257812 6.734375 15.269531 6.738281 15.28125 6.738281 C 15.289062 6.738281 15.296875 6.734375 15.300781 6.726562 C 15.304688 6.722656 15.304688 6.714844 15.304688 6.707031 C 15.300781 6.695312 15.292969 6.6875 15.285156 6.683594 L 15.265625 6.667969 Z M 15.226562 6.582031 L 15.335938 6.65625 C 15.359375 6.667969 15.371094 6.683594 15.378906 6.707031 C 15.382812 6.730469 15.378906 6.75 15.363281 6.769531 C 15.355469 6.789062 15.335938 6.800781 15.3125 6.804688 C 15.285156 6.808594 15.261719 6.800781 15.242188 6.785156 L 15.207031 6.761719 L 15.152344 6.839844 L 15.085938 6.796875 Z M 15.503906 6.972656 L 15.550781 6.886719 L 15.464844 6.933594 Z M 15.476562 7.023438 L 15.414062 6.960938 L 15.375 6.984375 L 15.316406 6.925781 L 15.433594 6.871094 L 15.566406 6.8125 L 15.625 6.871094 L 15.515625 7.121094 L 15.457031 7.0625 Z M 15.714844 7.136719 L 15.734375 7.164062 C 15.738281 7.167969 15.742188 7.175781 15.746094 7.179688 C 15.75 7.183594 15.753906 7.1875 15.761719 7.1875 C 15.765625 7.1875 15.773438 7.183594 15.777344 7.183594 C 15.78125 7.179688 15.785156 7.171875 15.789062 7.164062 C 15.789062 7.15625 15.785156 7.144531 15.777344 7.136719 L 15.757812 7.109375 Z M 15.542969 7.152344 L 15.757812 7.011719 L 15.832031 7.125 C 15.839844 7.140625 15.847656 7.15625 15.855469 7.175781 C 15.859375 7.1875 15.859375 7.199219 15.851562 7.214844 C 15.847656 7.226562 15.835938 7.238281 15.824219 7.246094 C 15.8125 7.253906 15.800781 7.257812 15.789062 7.257812 C 15.777344 7.257812 15.765625 7.257812 15.753906 7.25 C 15.746094 7.246094 15.738281 7.238281 15.730469 7.234375 C 15.730469 7.238281 15.734375 7.246094 15.734375 7.253906 C 15.730469 7.261719 15.730469 7.265625 15.730469 7.273438 C 15.726562 7.277344 15.722656 7.285156 15.722656 7.289062 L 15.679688 7.363281 L 15.632812 7.289062 L 15.675781 7.210938 C 15.679688 7.203125 15.683594 7.195312 15.683594 7.1875 C 15.683594 7.179688 15.683594 7.171875 15.679688 7.167969 L 15.675781 7.160156 L 15.585938 7.21875 Z M 15.847656 7.496094 L 15.921875 7.4375 L 15.828125 7.441406 Z M 15.800781 7.53125 L 15.769531 7.445312 L 15.726562 7.449219 L 15.699219 7.371094 L 15.972656 7.375 L 16 7.457031 L 15.792969 7.636719 L 15.765625 7.554688 Z M 15.921875 7.804688 L 15.972656 7.796875 L 15.988281 7.917969 L 15.882812 7.929688 C 15.867188 7.914062 15.851562 7.894531 15.84375 7.875 C 15.832031 7.855469 15.828125 7.832031 15.824219 7.8125 C 15.820312 7.785156 15.824219 7.761719 15.832031 7.734375 C 15.839844 7.714844 15.855469 7.699219 15.871094 7.683594 C 15.890625 7.671875 15.914062 7.664062 15.941406 7.660156 C 15.964844 7.65625 15.992188 7.660156 16.015625 7.667969 C 16.035156 7.679688 16.054688 7.691406 16.066406 7.714844 C 16.078125 7.734375 16.085938 7.757812 16.085938 7.78125 C 16.089844 7.800781 16.089844 7.824219 16.085938 7.84375 C 16.085938 7.859375 16.078125 7.871094 16.070312 7.882812 C 16.058594 7.894531 16.046875 7.902344 16.03125 7.910156 L 16.007812 7.835938 C 16.015625 7.832031 16.023438 7.824219 16.027344 7.816406 C 16.03125 7.808594 16.035156 7.796875 16.03125 7.785156 C 16.03125 7.769531 16.023438 7.757812 16.007812 7.746094 C 15.992188 7.738281 15.96875 7.734375 15.949219 7.738281 C 15.929688 7.742188 15.910156 7.75 15.894531 7.761719 C 15.882812 7.773438 15.878906 7.792969 15.882812 7.808594 C 15.882812 7.816406 15.882812 7.824219 15.886719 7.832031 C 15.894531 7.839844 15.898438 7.851562 15.90625 7.859375 L 15.929688 7.855469 Z M 16.082031 8.1875 L 16.074219 8.265625 L 15.921875 8.25 C 15.910156 8.246094 15.894531 8.242188 15.882812 8.238281 C 15.871094 8.230469 15.859375 8.222656 15.847656 8.210938 C 15.839844 8.199219 15.835938 8.191406 15.832031 8.175781 C 15.828125 8.160156 15.828125 8.140625 15.828125 8.121094 C 15.832031 8.109375 15.832031 8.09375 15.835938 8.082031 C 15.839844 8.066406 15.84375 8.054688 15.851562 8.046875 C 15.859375 8.035156 15.867188 8.027344 15.875 8.019531 C 15.886719 8.015625 15.894531 8.007812 15.90625 8.007812 C 15.921875 8.003906 15.9375 8.003906 15.953125 8.003906 L 16.101562 8.023438 L 16.09375 8.101562 L 15.9375 8.082031 C 15.925781 8.082031 15.914062 8.082031 15.90625 8.089844 C 15.894531 8.097656 15.890625 8.109375 15.890625 8.121094 C 15.886719 8.132812 15.890625 8.144531 15.898438 8.15625 C 15.90625 8.164062 15.917969 8.167969 15.929688 8.171875 Z M 15.847656 8.480469 L 15.945312 8.484375 L 15.867188 8.425781 Z M 15.792969 8.476562 L 15.820312 8.390625 L 15.785156 8.367188 L 15.8125 8.289062 L 16.023438 8.464844 L 15.992188 8.546875 L 15.71875 8.550781 L 15.746094 8.472656 Z M 15.933594 8.710938 L 15.886719 8.789062 L 15.789062 8.789062 L 15.835938 8.875 L 15.792969 8.953125 L 15.714844 8.789062 L 15.621094 8.734375 L 15.660156 8.667969 L 15.753906 8.722656 Z M 15.933594 8.710938 "/>
<path style="fill:none;stroke-width:1.475;stroke-linecap:butt;stroke-linejoin:miter;stroke:rgb(0%,0%,0%);stroke-opacity:1;stroke-miterlimit:10;" d="M 669.989224 330 C 669.989224 368.671875 638.631466 400.092773 600 400.092773 C 561.368534 400.092773 530.010776 368.671875 530.010776 330 C 530.010776 291.328125 561.368534 259.907227 600 260.068359 C 638.631466 260.068359 669.989224 291.328125 669.989224 330 Z M 669.989224 330 " transform="matrix(0.0241667,0,0,0.0242424,0,0)"/>
<path style="fill:none;stroke-width:1.475;stroke-linecap:butt;stroke-linejoin:miter;stroke:rgb(0%,0%,0%);stroke-opacity:1;stroke-miterlimit:10;" d="M 652.047414 329.677734 C 652.047414 358.520508 628.771552 381.884766 600 381.884766 C 571.228448 381.884766 547.790948 358.520508 547.790948 329.838867 C 547.790948 300.996094 571.228448 277.631836 600 277.631836 C 628.771552 277.631836 652.047414 300.996094 652.047414 329.677734 Z M 652.047414 329.677734 " transform="matrix(0.0241667,0,0,0.0242424,0,0)"/>
<path style="fill-rule:nonzero;fill:rgb(99.607843%,87.45098%,0%);fill-opacity:1;stroke-width:0.602;stroke-linecap:butt;stroke-linejoin:miter;stroke:rgb(0%,0%,0%);stroke-opacity:1;stroke-miterlimit:4;" d="M 600 310.986328 L 604.364224 323.554688 L 617.618534 323.876953 L 607.112069 331.933594 L 610.829741 344.501953 L 600 337.089844 L 589.008621 344.501953 L 592.887931 331.933594 L 582.381466 323.876953 L 595.635776 323.554688 Z M 600 310.986328 " transform="matrix(0.0241667,0,0,0.0242424,0,0)"/>
<path style="fill-rule:nonzero;fill:rgb(0%,60.784314%,22.745098%);fill-opacity:1;stroke-width:0.754;stroke-linecap:butt;stroke-linejoin:miter;stroke:rgb(0%,0%,0%);stroke-opacity:1;stroke-miterlimit:4;" d="M 624.084052 365.771484 C 623.114224 366.09375 622.306034 366.254883 621.336207 366.416016 C 620.851293 366.416016 619.073276 366.416016 618.265086 366.416016 C 617.780172 366.577148 616.971983 366.577148 616.487069 366.577148 C 612.769397 366.254883 622.790948 366.254883 624.084052 365.771484 M 614.0625 362.709961 C 614.224138 362.387695 615.517241 359.487305 616.002155 358.681641 C 616.487069 357.875977 617.456897 355.942383 618.103448 354.975586 C 618.426724 354.492188 619.719828 353.203125 620.043103 353.847656 C 617.780172 355.620117 616.002155 359.003906 615.193966 361.098633 C 614.87069 361.743164 614.385776 362.387695 614.0625 363.032227 C 613.739224 363.193359 613.900862 363.837891 613.577586 363.837891 C 613.092672 363.999023 613.415948 363.999023 613.415948 363.999023 C 613.415948 363.999023 613.739224 363.193359 614.0625 362.709961 Z M 628.448276 364.96582 C 627.478448 364.804688 626.508621 364.482422 625.700431 364.321289 C 624.24569 363.837891 622.790948 363.676758 621.336207 363.676758 C 619.881466 363.676758 618.426724 363.999023 617.133621 364.643555 C 616.163793 364.96582 615.193966 365.126953 614.224138 365.126953 C 614.224138 365.126953 613.415948 365.288086 613.900862 364.96582 C 614.224138 364.804688 615.678879 363.676758 615.678879 363.676758 L 616.487069 362.548828 C 616.810345 362.387695 621.336207 356.425781 620.851293 354.814453 C 621.497845 353.686523 622.306034 351.591797 622.144397 351.108398 C 620.528017 351.430664 619.073276 352.075195 617.780172 352.880859 C 616.971983 353.847656 616.325431 354.975586 616.002155 356.103516 C 615.840517 357.070312 614.385776 357.714844 614.385776 357.714844 C 613.415948 358.520508 612.607759 360.9375 612.284483 363.032227 C 611.961207 364.96582 607.112069 365.932617 607.112069 365.932617 C 607.112069 365.932617 605.657328 366.577148 606.950431 366.899414 C 607.112069 366.899414 607.596983 367.866211 608.081897 367.866211 C 608.56681 367.866211 611.637931 366.577148 612.122845 366.738281 C 613.092672 366.899414 614.224138 367.22168 615.193966 367.543945 C 616.002155 368.027344 617.133621 368.027344 618.103448 367.866211 C 618.911638 367.705078 619.881466 367.705078 620.851293 367.866211 C 621.659483 368.027344 622.467672 368.027344 623.275862 367.866211 C 623.922414 367.543945 624.730603 367.060547 625.377155 366.738281 C 625.377155 366.738281 627.155172 366.09375 628.125 365.610352 C 629.094828 365.126953 628.448276 364.96582 628.448276 364.96582 " transform="matrix(0.0241667,0,0,0.0242424,0,0)"/>
<path style="fill-rule:nonzero;fill:rgb(0%,60.784314%,22.745098%);fill-opacity:1;stroke-width:0.602;stroke-linecap:butt;stroke-linejoin:miter;stroke:rgb(0%,0%,0%);stroke-opacity:1;stroke-miterlimit:4;" d="M 615.355603 370.766602 C 615.355603 370.766602 608.56681 367.22168 608.243534 367.22168 C 608.081897 367.22168 605.172414 365.610352 604.040948 365.126953 C 603.071121 364.96582 602.262931 364.804688 601.293103 364.804688 C 600.323276 364.96582 599.353448 365.126953 598.383621 365.449219 L 600 366.09375 C 600 366.09375 601.616379 366.899414 602.424569 367.22168 C 603.394397 367.866211 603.556034 368.510742 603.556034 368.510742 L 609.536638 371.25 L 610.829741 372.055664 C 610.829741 372.055664 611.799569 370.605469 615.355603 370.766602 " transform="matrix(0.0241667,0,0,0.0242424,0,0)"/>
<path style="fill-rule:nonzero;fill:rgb(0%,60.784314%,22.745098%);fill-opacity:1;stroke-width:0.794;stroke-linecap:butt;stroke-linejoin:miter;stroke:rgb(0%,0%,0%);stroke-opacity:1;stroke-miterlimit:4;" d="M 621.982759 356.90918 C 624.084052 354.975586 625.053879 352.397461 626.831897 350.947266 C 627.155172 351.108398 627.155172 351.430664 626.831897 352.075195 C 626.508621 352.558594 626.023707 352.880859 625.862069 353.041992 C 625.215517 353.686523 624.730603 354.331055 624.084052 354.975586 C 623.922414 355.620117 623.275862 356.264648 622.62931 356.748047 C 621.821121 357.231445 621.982759 358.037109 621.982759 358.520508 C 621.821121 358.842773 620.528017 359.80957 619.881466 361.098633 C 619.719828 362.387695 619.55819 361.904297 618.911638 362.387695 C 620.043103 360.615234 621.012931 358.842773 621.982759 356.90918 M 617.295259 362.871094 C 617.133621 363.032227 613.092672 365.449219 614.385776 365.126953 C 615.678879 364.804688 619.396552 363.354492 620.528017 362.871094 C 621.821121 362.387695 622.62931 361.098633 623.599138 360.131836 C 624.568966 359.165039 627.801724 356.103516 628.286638 354.975586 C 628.93319 353.686523 629.418103 352.075195 627.155172 348.369141 C 626.993534 348.852539 626.508621 349.335938 626.023707 349.819336 C 625.538793 350.302734 624.730603 350.786133 624.084052 351.269531 L 622.790948 352.558594 C 622.790948 352.558594 617.94181 361.420898 617.295259 362.871094 " transform="matrix(0.0241667,0,0,0.0242424,0,0)"/>
<path style="fill-rule:nonzero;fill:rgb(0%,60.784314%,22.745098%);fill-opacity:1;stroke-width:0.754;stroke-linecap:butt;stroke-linejoin:miter;stroke:rgb(0%,0%,0%);stroke-opacity:1;stroke-miterlimit:4;" d="M 634.105603 359.648438 C 634.105603 359.648438 631.519397 359.487305 631.196121 359.487305 C 631.034483 359.487305 629.579741 359.326172 627.478448 359.326172 C 626.185345 359.165039 624.892241 359.648438 623.922414 360.615234 C 623.4375 361.259766 621.821121 362.709961 621.821121 362.709961 L 622.62931 362.709961 C 623.922414 361.743164 625.538793 361.259766 626.993534 361.582031 C 628.286638 361.582031 629.579741 361.259766 630.711207 360.776367 C 632.8125 360.131836 632.650862 360.776367 632.489224 360.9375 C 631.519397 361.259766 630.387931 361.420898 629.256466 361.582031 C 627.640086 361.582031 626.346983 361.904297 625.700431 361.904297 C 625.053879 361.904297 620.366379 363.193359 620.366379 363.193359 C 620.366379 363.193359 625.377155 363.515625 626.023707 363.676758 C 626.670259 363.837891 627.31681 363.837891 627.963362 363.515625 C 629.256466 362.871094 630.387931 362.548828 631.681034 362.226562 C 632.165948 362.06543 632.8125 361.904297 633.459052 361.582031 C 633.782328 361.259766 634.105603 360.776367 634.428879 360.292969 C 634.913793 359.487305 634.105603 359.648438 634.105603 359.648438 M 636.530172 345.952148 C 637.015086 344.663086 637.661638 343.535156 638.469828 342.568359 C 639.116379 342.084961 639.762931 341.923828 640.409483 341.601562 C 640.571121 341.601562 642.025862 341.601562 640.247845 342.084961 C 639.278017 342.246094 638.631466 342.729492 637.984914 343.374023 C 637.661638 344.985352 636.853448 346.59668 635.721983 347.885742 C 635.075431 348.369141 634.590517 349.174805 634.267241 349.980469 L 633.297414 350.302734 C 635.075431 349.174805 635.721983 347.241211 636.530172 345.952148 Z M 644.773707 344.985352 C 644.288793 344.985352 643.803879 345.307617 643.480603 345.46875 C 641.217672 346.113281 640.409483 347.563477 639.439655 348.530273 C 638.954741 349.174805 638.30819 349.658203 636.045259 350.625 C 634.752155 351.269531 633.459052 351.914062 632.327586 352.880859 C 632.327586 352.880859 631.681034 353.041992 631.842672 353.364258 C 631.842672 353.525391 632.327586 353.364258 632.327586 353.364258 C 632.327586 353.364258 636.69181 352.719727 638.469828 351.591797 C 639.601293 350.947266 640.571121 349.980469 641.37931 348.691406 C 641.864224 348.046875 642.349138 346.59668 642.349138 347.563477 C 642.510776 349.819336 638.793103 352.236328 637.176724 352.880859 C 636.045259 353.203125 634.913793 353.525391 633.62069 353.686523 C 632.165948 353.847656 631.357759 353.847656 631.357759 353.525391 C 631.519397 353.041992 631.681034 352.880859 632.165948 352.558594 C 632.8125 351.591797 634.590517 351.269531 635.721983 350.786133 C 637.176724 350.141602 638.30819 349.335938 639.439655 348.208008 C 639.924569 347.724609 640.247845 347.080078 640.571121 346.435547 C 641.056034 344.501953 641.056034 343.535156 641.702586 342.890625 C 643.480603 340.634766 643.642241 339.829102 643.803879 338.862305 C 643.803879 338.701172 642.834052 339.345703 642.349138 339.667969 C 641.37931 340.3125 640.247845 340.634766 638.954741 340.795898 C 637.015086 341.279297 637.015086 342.568359 636.69181 343.212891 C 636.368534 343.857422 635.883621 344.34082 635.398707 344.663086 C 634.752155 345.307617 634.105603 346.113281 633.782328 347.080078 C 633.459052 347.724609 632.974138 348.046875 632.650862 348.046875 C 632.165948 348.046875 633.297414 343.696289 633.62069 342.890625 C 633.782328 342.084961 633.943966 341.279297 633.943966 340.473633 C 633.943966 339.990234 633.943966 338.701172 633.135776 338.701172 C 632.327586 338.540039 632.327586 337.412109 632.327586 337.412109 C 630.549569 339.023438 631.519397 341.923828 631.681034 343.696289 C 631.842672 345.307617 631.681034 346.918945 631.357759 348.369141 C 633.135776 349.174805 631.681034 351.430664 631.196121 352.075195 C 630.549569 352.880859 629.418103 353.041992 628.93319 353.525391 C 628.448276 354.331055 624.568966 359.487305 624.568966 359.487305 L 629.256466 358.198242 C 629.256466 358.198242 629.741379 358.359375 629.094828 357.714844 C 628.286638 357.231445 629.256466 355.297852 629.903017 354.814453 C 630.711207 354.169922 631.681034 354.169922 632.650862 354.492188 C 634.267241 354.65332 636.045259 354.492188 637.5 353.847656 C 639.762931 352.880859 640.732759 351.430664 641.702586 350.463867 C 642.672414 349.174805 643.480603 348.046875 644.127155 346.757812 C 644.450431 345.952148 645.258621 344.824219 644.773707 344.985352 " transform="matrix(0.0241667,0,0,0.0242424,0,0)"/>
<path style="fill-rule:nonzero;fill:rgb(0%,60.784314%,22.745098%);fill-opacity:1;stroke-width:0.84;stroke-linecap:butt;stroke-linejoin:miter;stroke:rgb(0%,0%,0%);stroke-opacity:1;stroke-miterlimit:4;" d="M 631.357759 357.553711 C 631.681034 357.392578 631.842672 357.392578 632.489224 356.748047 C 632.650862 356.264648 632.8125 355.78125 632.650862 355.458984 C 632.327586 354.975586 632.00431 354.814453 631.519397 354.814453 C 631.034483 354.814453 630.549569 354.65332 629.579741 355.942383 C 628.609914 357.231445 629.903017 357.714844 630.549569 357.875977 C 630.872845 357.875977 631.034483 357.714844 631.357759 357.553711 " transform="matrix(0.0241667,0,0,0.0242424,0,0)"/>
<path style="fill-rule:nonzero;fill:rgb(0%,60.784314%,22.745098%);fill-opacity:1;stroke-width:0.858;stroke-linecap:butt;stroke-linejoin:miter;stroke:rgb(0%,0%,0%);stroke-opacity:1;stroke-miterlimit:4;" d="M 628.93319 349.335938 C 628.286638 350.463867 627.963362 351.591797 628.448276 351.914062 C 628.771552 352.236328 629.094828 352.397461 629.418103 352.397461 C 630.226293 352.236328 630.872845 351.75293 631.357759 350.947266 C 632.00431 350.141602 632.327586 349.174805 631.196121 348.530273 C 630.872845 348.369141 630.387931 348.369141 629.903017 348.369141 C 629.418103 348.530273 629.094828 348.852539 628.93319 349.335938 " transform="matrix(0.0241667,0,0,0.0242424,0,0)"/>
<path style="fill-rule:nonzero;fill:rgb(0%,60.784314%,22.745098%);fill-opacity:1;stroke-width:0.754;stroke-linecap:butt;stroke-linejoin:miter;stroke:rgb(0%,0%,0%);stroke-opacity:1;stroke-miterlimit:4;" d="M 632.489224 336.606445 C 632.489224 336.606445 632.650862 336.445312 632.165948 335.961914 C 631.681034 335.478516 631.196121 334.833984 630.711207 334.189453 C 629.741379 334.672852 629.094828 335.639648 628.93319 336.928711 C 629.094828 337.895508 629.094828 339.023438 628.93319 339.990234 C 628.93319 340.957031 628.609914 341.762695 628.286638 342.568359 C 627.801724 343.857422 627.963362 345.146484 628.448276 346.274414 C 628.609914 346.757812 629.094828 348.369141 629.094828 348.369141 C 629.256466 348.208008 629.579741 348.046875 629.741379 348.046875 C 630.064655 347.885742 630.387931 347.885742 630.711207 347.885742 C 631.034483 347.241211 631.357759 346.59668 631.519397 345.791016 C 631.519397 344.663086 631.357759 343.696289 631.196121 342.729492 C 630.711207 341.44043 630.711207 339.990234 631.034483 338.701172 C 631.196121 337.734375 631.842672 337.089844 632.489224 336.606445 " transform="matrix(0.0241667,0,0,0.0242424,0,0)"/>
<path style="fill-rule:nonzero;fill:rgb(0%,60.784314%,22.745098%);fill-opacity:1;stroke-width:0.828;stroke-linecap:butt;stroke-linejoin:miter;stroke:rgb(0%,0%,0%);stroke-opacity:1;stroke-miterlimit:4;" d="M 634.428879 338.701172 C 634.913793 338.701172 635.237069 338.378906 635.560345 337.895508 C 635.883621 337.412109 635.883621 336.767578 635.883621 336.28418 C 635.721983 335.639648 635.237069 335.317383 634.752155 335.15625 C 634.105603 335.15625 633.459052 335.317383 633.135776 335.800781 C 631.842672 338.701172 634.428879 338.701172 634.428879 338.701172 " transform="matrix(0.0241667,0,0,0.0242424,0,0)"/>
<path style="fill-rule:nonzero;fill:rgb(0%,60.784314%,22.745098%);fill-opacity:1;stroke-width:0.984;stroke-linecap:butt;stroke-linejoin:miter;stroke:rgb(0%,0%,0%);stroke-opacity:1;stroke-miterlimit:4;" d="M 638.30819 334.672852 C 636.69181 334.833984 635.721983 337.895508 635.721983 337.895508 C 635.560345 338.378906 635.075431 338.862305 634.590517 339.18457 C 633.62069 339.829102 634.267241 340.634766 634.267241 342.246094 C 634.105603 343.696289 633.62069 344.985352 633.135776 346.435547 L 632.650862 347.241211 C 632.650862 347.241211 632.8125 348.046875 633.459052 346.757812 C 634.428879 344.663086 635.560345 345.146484 636.045259 342.890625 C 636.368534 341.279297 639.116379 340.634766 639.116379 340.634766 L 638.30819 340.634766 C 635.398707 339.18457 638.469828 335.800781 638.954741 335.15625 C 639.439655 334.672852 639.924569 334.672852 638.30819 334.672852 " transform="matrix(0.0241667,0,0,0.0242424,0,0)"/>
<path style="fill-rule:nonzero;fill:rgb(0%,60.784314%,22.745098%);fill-opacity:1;stroke-width:0.838;stroke-linecap:butt;stroke-linejoin:miter;stroke:rgb(0%,0%,0%);stroke-opacity:1;stroke-miterlimit:4;" d="M 637.823276 338.378906 C 637.015086 339.990234 639.278017 340.151367 639.762931 339.829102 C 640.086207 339.667969 640.247845 339.345703 640.409483 339.18457 C 641.37931 337.895508 640.571121 336.928711 640.086207 336.767578 C 639.601293 336.606445 638.631466 336.606445 637.823276 338.378906 " transform="matrix(0.0241667,0,0,0.0242424,0,0)"/>
<path style="fill-rule:nonzero;fill:rgb(0%,60.784314%,22.745098%);fill-opacity:1;stroke-width:0.754;stroke-linecap:butt;stroke-linejoin:miter;stroke:rgb(0%,0%,0%);stroke-opacity:1;stroke-miterlimit:4;" d="M 633.62069 331.933594 C 634.267241 332.900391 635.883621 335.961914 636.206897 335.800781 C 636.368534 335.639648 636.206897 334.995117 636.206897 334.995117 C 636.206897 334.350586 636.045259 333.867188 635.883621 333.222656 C 635.721983 332.255859 635.721983 330.966797 635.237069 330.161133 C 634.752155 329.355469 633.459052 328.388672 632.974138 327.099609 C 632.8125 325.810547 632.8125 324.360352 632.974138 323.071289 C 632.974138 322.749023 633.135776 322.910156 632.974138 322.587891 C 632.165948 322.104492 631.357759 321.621094 630.549569 321.298828 C 630.711207 321.943359 630.711207 322.749023 630.711207 323.393555 C 630.711207 323.876953 630.549569 324.199219 630.549569 324.84375 C 630.387931 325.488281 630.872845 326.132812 631.681034 327.744141 C 632.650862 329.677734 633.135776 330.966797 633.62069 331.933594 M 645.905172 317.431641 C 645.743534 317.915039 645.420259 318.237305 645.096983 318.720703 C 644.935345 318.881836 641.540948 321.782227 641.37931 321.943359 C 641.217672 322.104492 639.439655 322.587891 637.823276 326.938477 C 636.853448 329.516602 636.69181 332.416992 637.015086 335.15625 L 637.823276 335.15625 L 637.823276 334.672852 C 637.823276 334.672852 638.146552 333.222656 638.30819 332.255859 C 638.631466 331.12793 639.762931 329.677734 640.571121 328.549805 C 641.056034 327.744141 641.540948 326.777344 641.864224 325.97168 C 642.510776 324.360352 643.318966 322.749023 644.127155 321.298828 C 644.127155 322.749023 638.469828 331.933594 637.823276 335.15625 L 639.601293 334.833984 C 641.056034 333.222656 642.510776 331.289062 643.803879 329.355469 C 644.935345 327.744141 645.581897 325.810547 645.743534 323.876953 C 646.06681 322.749023 645.905172 317.431641 645.905172 317.431641 " transform="matrix(0.0241667,0,0,0.0242424,0,0)"/>
<path style="fill-rule:nonzero;fill:rgb(0%,60.784314%,22.745098%);fill-opacity:1;stroke-width:0.754;stroke-linecap:butt;stroke-linejoin:miter;stroke:rgb(0%,0%,0%);stroke-opacity:1;stroke-miterlimit:4;" d="M 634.590517 318.398438 C 634.105603 318.076172 633.62069 317.592773 632.974138 317.431641 C 633.135776 318.237305 633.135776 319.042969 633.297414 319.848633 C 633.297414 320.81543 633.297414 322.426758 633.297414 323.393555 C 633.297414 324.199219 632.8125 325.649414 633.459052 326.938477 C 633.943966 328.066406 634.590517 329.033203 635.237069 330 C 635.721983 331.611328 636.206897 333.383789 636.530172 335.15625 C 636.368534 332.578125 636.368534 330 636.530172 327.583008 C 636.69181 325.810547 636.69181 323.876953 636.368534 322.104492 C 636.045259 320.654297 635.398707 319.526367 634.590517 318.398438 M 638.469828 312.597656 C 639.116379 311.630859 639.439655 310.664062 639.601293 309.536133 C 639.762931 308.730469 639.762931 307.763672 639.762931 306.958008 C 639.762931 306.474609 639.601293 305.668945 639.762931 305.507812 C 639.924569 305.507812 639.762931 305.830078 639.924569 306.635742 C 639.924569 306.796875 639.762931 307.602539 639.762931 308.569336 C 639.762931 309.375 639.601293 310.180664 639.278017 310.986328 C 638.954741 311.791992 639.278017 312.919922 639.116379 313.081055 C 638.954741 313.40332 638.469828 314.53125 638.469828 314.53125 C 638.146552 315.014648 638.146552 315.65918 638.146552 316.142578 C 638.146552 316.948242 638.146552 317.915039 638.146552 317.915039 C 638.469828 317.431641 638.954741 317.109375 639.439655 317.109375 C 639.439655 317.109375 639.601293 315.65918 639.601293 315.336914 C 639.762931 313.886719 640.086207 312.597656 640.409483 311.147461 C 641.056034 309.213867 641.056034 307.119141 640.571121 305.185547 C 640.409483 304.21875 640.247845 303.251953 640.247845 302.446289 C 640.247845 302.446289 639.439655 303.09082 638.954741 305.507812 C 638.793103 306.152344 639.116379 308.24707 638.954741 310.341797 C 638.631466 312.436523 638.146552 314.53125 637.661638 316.625977 " transform="matrix(0.0241667,0,0,0.0242424,0,0)"/>
<path style="fill:none;stroke-width:0.754;stroke-linecap:butt;stroke-linejoin:miter;stroke:rgb(0%,0%,0%);stroke-opacity:1;stroke-miterlimit:4;" d="M 638.469828 312.597656 L 638.469828 312.758789 C 638.469828 312.758789 638.469828 312.758789 638.469828 312.597656 " transform="matrix(0.0241667,0,0,0.0242424,0,0)"/>
<path style="fill-rule:nonzero;fill:rgb(0%,60.784314%,22.745098%);fill-opacity:1;stroke-width:0.754;stroke-linecap:butt;stroke-linejoin:miter;stroke:rgb(0%,0%,0%);stroke-opacity:1;stroke-miterlimit:4;" d="M 635.237069 300.351562 C 635.721983 300.351562 635.721983 300.834961 635.721983 301.157227 C 635.560345 301.640625 635.560345 301.962891 635.560345 302.446289 C 635.721983 302.929688 635.721983 303.574219 635.883621 304.057617 C 636.206897 304.702148 636.368534 305.34668 636.206897 305.830078 C 636.206897 306.635742 635.398707 307.441406 635.721983 308.569336 C 635.883621 309.213867 636.206897 309.697266 636.530172 310.341797 C 636.530172 310.986328 636.69181 311.630859 636.69181 312.275391 C 636.69181 312.758789 636.853448 313.081055 637.015086 313.40332 C 637.015086 313.40332 636.530172 314.370117 636.368534 313.242188 C 636.368534 312.436523 636.206897 311.630859 635.883621 310.825195 C 635.398707 309.536133 635.237069 308.085938 635.721983 306.796875 C 635.883621 306.313477 635.883621 305.830078 635.883621 305.507812 C 635.883621 304.863281 635.560345 303.896484 635.560345 303.251953 C 635.398707 302.768555 635.560345 301.801758 635.560345 301.318359 M 633.297414 306.796875 C 633.459052 307.763672 633.782328 308.730469 634.428879 309.536133 C 634.752155 310.341797 635.075431 311.147461 635.237069 311.791992 C 635.398707 312.275391 635.398707 312.597656 635.560345 312.919922 C 635.560345 313.081055 635.560345 314.047852 635.560345 314.047852 L 635.560345 314.53125 C 635.560345 314.53125 633.297414 313.242188 632.327586 312.436523 C 631.357759 311.791992 630.226293 310.825195 629.418103 310.180664 C 628.609914 309.536133 626.670259 307.119141 626.670259 305.34668 L 625.700431 304.541016 C 625.377155 306.958008 626.346983 309.536133 628.286638 311.308594 C 629.579741 312.436523 630.872845 313.242188 632.489224 313.886719 C 634.590517 314.853516 634.267241 315.820312 635.237069 317.753906 C 635.883621 318.881836 636.368534 320.170898 636.853448 321.298828 C 636.853448 321.943359 636.530172 330.161133 636.530172 330.161133 L 636.69181 330.966797 C 636.69181 330.966797 638.631466 323.232422 639.601293 322.426758 C 639.601293 322.426758 637.661638 322.104492 637.823276 319.204102 L 637.5 317.109375 C 637.338362 315.820312 637.338362 314.53125 637.823276 313.40332 C 638.30819 311.630859 638.469828 310.019531 638.469828 308.24707 C 638.146552 306.958008 638.146552 306.474609 637.984914 305.185547 C 637.661638 303.251953 637.338362 301.479492 636.853448 299.707031 C 636.69181 299.0625 636.368534 298.417969 636.045259 297.773438 C 636.045259 297.451172 635.721983 296.484375 635.560345 296.484375 C 635.237069 296.484375 635.075431 297.612305 635.075431 297.612305 C 635.075431 297.612305 634.590517 299.0625 634.590517 299.384766 C 633.943966 300.834961 633.62069 302.285156 633.459052 303.896484 C 633.297414 304.379883 633.297414 305.507812 633.297414 305.668945 C 633.135776 306.152344 633.135776 306.474609 633.297414 306.796875 " transform="matrix(0.0241667,0,0,0.0242424,0,0)"/>
<path style="fill-rule:nonzero;fill:rgb(0%,60.784314%,22.745098%);fill-opacity:1;stroke-width:0.754;stroke-linecap:butt;stroke-linejoin:miter;stroke:rgb(0%,0%,0%);stroke-opacity:1;stroke-miterlimit:4;" d="M 634.913793 317.270508 C 634.752155 316.948242 634.590517 316.464844 634.267241 316.142578 C 633.62069 315.336914 632.650862 314.692383 630.064655 313.40332 C 627.478448 312.114258 626.831897 310.019531 625.377155 309.052734 C 624.892241 308.730469 624.24569 308.569336 623.599138 308.408203 C 623.599138 308.408203 624.892241 310.019531 625.053879 310.664062 C 625.538793 311.630859 626.185345 312.436523 626.993534 313.081055 C 628.125 314.208984 629.741379 314.853516 631.196121 315.336914 C 632.489224 315.820312 633.782328 316.464844 634.913793 317.270508 M 626.670259 305.024414 C 627.155172 306.474609 627.963362 307.924805 628.93319 309.213867 C 631.034483 311.953125 635.237069 313.886719 635.237069 313.886719 C 634.913793 312.275391 634.267241 310.825195 633.62069 309.375 C 631.681034 306.313477 626.670259 304.863281 626.670259 304.863281 C 626.670259 304.863281 626.670259 304.702148 626.670259 305.024414 M 632.650862 306.313477 C 633.782328 303.735352 630.549569 301.479492 629.579741 299.707031 C 629.903017 299.545898 630.226293 300.19043 630.711207 300.673828 C 631.196121 301.479492 632.8125 303.574219 632.8125 303.574219 L 633.297414 301.318359 L 629.256466 297.773438 C 629.256466 298.256836 627.963362 298.579102 627.963362 298.579102 C 627.478448 301.962891 632.650862 306.313477 632.650862 306.313477 " transform="matrix(0.0241667,0,0,0.0242424,0,0)"/>
<path style="fill-rule:nonzero;fill:rgb(0%,60.784314%,22.745098%);fill-opacity:1;stroke-width:0.754;stroke-linecap:butt;stroke-linejoin:miter;stroke:rgb(0%,0%,0%);stroke-opacity:1;stroke-miterlimit:4;" d="M 625.862069 300.673828 C 625.377155 300.834961 624.892241 300.996094 624.568966 300.996094 L 625.053879 302.446289 L 625.377155 302.768555 C 625.377155 302.768555 626.508621 304.702148 627.31681 304.863281 C 629.741379 305.34668 632.00431 306.474609 633.62069 308.24707 C 633.62069 308.24707 629.741379 303.896484 628.286638 300.673828 L 627.801724 298.740234 L 626.346983 298.901367 C 626.346983 298.901367 626.670259 300.19043 625.862069 300.673828 " transform="matrix(0.0241667,0,0,0.0242424,0,0)"/>
<path style="fill-rule:nonzero;fill:rgb(0%,60.784314%,22.745098%);fill-opacity:1;stroke-width:0.754;stroke-linecap:butt;stroke-linejoin:miter;stroke:rgb(0%,0%,0%);stroke-opacity:1;stroke-miterlimit:4;" d="M 611.314655 297.773438 C 611.961207 298.417969 612.607759 298.901367 613.415948 299.384766 C 615.032328 300.351562 616.648707 301.157227 618.588362 301.640625 C 618.911638 301.801758 621.336207 302.124023 621.336207 302.124023 C 621.336207 301.479492 621.821121 300.996094 622.467672 300.996094 L 619.234914 300.512695 C 616.810345 300.512695 614.547414 299.384766 612.931034 297.451172 C 615.032328 298.740234 618.103448 300.834961 620.528017 300.673828 C 630.549569 299.707031 617.456897 299.384766 616.325431 298.740234 C 615.517241 298.095703 614.87069 297.451172 614.224138 296.806641 L 611.153017 296.645508 C 611.153017 296.645508 609.698276 296.484375 611.314655 297.773438 " transform="matrix(0.0241667,0,0,0.0242424,0,0)"/>
<path style="fill-rule:nonzero;fill:rgb(0%,60.784314%,22.745098%);fill-opacity:1;stroke-width:0.754;stroke-linecap:butt;stroke-linejoin:miter;stroke:rgb(0%,0%,0%);stroke-opacity:1;stroke-miterlimit:4;" d="M 623.114224 303.574219 C 623.760776 303.574219 624.24569 303.413086 624.407328 302.607422 C 624.407328 302.285156 624.407328 301.962891 624.24569 301.640625 C 623.922414 301.318359 623.599138 301.157227 623.275862 300.996094 C 622.467672 300.834961 621.659483 301.157227 621.336207 301.801758 C 621.012931 302.768555 622.467672 303.413086 622.467672 303.413086 C 622.62931 303.574219 622.952586 303.574219 623.114224 303.574219 M 624.24569 297.773438 C 623.4375 297.773438 623.114224 298.417969 623.275862 299.868164 C 623.4375 301.157227 625.538793 300.673828 625.538793 300.673828 L 626.023707 300.351562 C 626.023707 300.351562 626.346983 300.19043 626.185345 299.0625 C 626.023707 297.93457 625.053879 297.773438 624.24569 297.773438 M 627.640086 298.740234 L 627.640086 298.740234 " transform="matrix(0.0241667,0,0,0.0242424,0,0)"/>
<path style="fill-rule:nonzero;fill:rgb(0%,60.784314%,22.745098%);fill-opacity:1;stroke-width:0.754;stroke-linecap:butt;stroke-linejoin:miter;stroke:rgb(0%,0%,0%);stroke-opacity:1;stroke-miterlimit:4;" d="M 627.640086 298.740234 C 627.801724 298.740234 627.801724 298.579102 627.963362 298.579102 C 628.448276 298.417969 628.771552 297.451172 628.771552 297.451172 C 629.094828 296.645508 628.609914 296.000977 627.963362 295.678711 C 626.346983 295.356445 626.346983 296.806641 626.346983 296.806641 C 625.862069 298.740234 627.31681 298.740234 627.640086 298.740234 M 620.043103 291.972656 C 620.204741 292.617188 620.689655 293.261719 621.174569 293.745117 C 621.821121 294.389648 622.467672 295.03418 622.952586 295.678711 C 623.275862 296.323242 624.568966 298.740234 624.568966 298.740234 C 624.730603 298.740234 624.892241 298.579102 624.892241 298.579102 C 625.215517 298.095703 624.084052 295.03418 623.922414 294.873047 C 623.599138 294.067383 622.952586 293.261719 622.306034 292.617188 C 621.821121 292.133789 621.336207 291.489258 620.851293 291.005859 C 622.790948 293.422852 624.568966 296.162109 626.023707 298.740234 C 626.023707 298.740234 626.023707 296.806641 625.862069 295.678711 C 625.700431 293.90625 625.215517 292.294922 624.407328 291.005859 C 623.760776 290.039062 622.790948 289.394531 621.821121 288.911133 C 621.012931 288.588867 619.881466 288.266602 618.911638 287.783203 C 617.780172 287.460938 618.588362 288.588867 619.073276 289.394531 C 619.396552 290.200195 619.881466 291.166992 620.043103 291.972656 " transform="matrix(0.0241667,0,0,0.0242424,0,0)"/>
<path style="fill-rule:nonzero;fill:rgb(0%,60.784314%,22.745098%);fill-opacity:1;stroke-width:0.754;stroke-linecap:butt;stroke-linejoin:miter;stroke:rgb(0%,0%,0%);stroke-opacity:1;stroke-miterlimit:4;" d="M 615.840517 297.290039 C 616.810345 298.417969 618.265086 299.0625 619.719828 299.223633 C 622.144397 299.707031 622.306034 299.545898 622.306034 299.545898 C 622.306034 299.545898 623.4375 298.901367 622.952586 298.417969 C 619.396552 296.806641 616.163793 295.03418 614.547414 293.100586 C 614.547414 293.100586 614.87069 292.77832 616.002155 294.067383 C 616.487069 294.550781 617.133621 294.873047 617.618534 295.356445 C 618.588362 296.000977 619.55819 296.645508 620.689655 297.128906 C 621.336207 297.451172 622.144397 297.773438 622.952586 297.93457 C 622.952586 297.93457 623.114224 297.451172 623.4375 297.290039 C 623.599138 297.290039 623.275862 296.484375 621.821121 295.356445 C 621.012931 294.711914 620.366379 293.90625 619.719828 293.100586 C 619.719828 293.100586 618.103448 292.617188 616.163793 292.456055 C 614.87069 292.133789 612.284483 290.200195 612.284483 290.683594 C 612.446121 291.972656 612.769397 293.100586 613.415948 294.067383 C 614.0625 295.356445 614.87069 296.323242 615.840517 297.290039 " transform="matrix(0.0241667,0,0,0.0242424,0,0)"/>
<path style="fill-rule:nonzero;fill:rgb(0%,60.784314%,22.745098%);fill-opacity:1;stroke-width:0.602;stroke-linecap:butt;stroke-linejoin:miter;stroke:rgb(0%,0%,0%);stroke-opacity:1;stroke-miterlimit:4;" d="M 596.605603 366.899414 C 595.635776 367.22168 588.038793 370.12207 588.038793 370.12207 L 585.9375 370.927734 C 587.715517 370.444336 589.493534 370.766602 591.109914 371.733398 L 599.515086 367.866211 C 599.515086 367.866211 599.515086 367.705078 599.19181 367.543945 C 598.545259 367.060547 597.575431 366.738281 596.605603 366.899414 " transform="matrix(0.0241667,0,0,0.0242424,0,0)"/>
<path style="fill-rule:nonzero;fill:rgb(0%,60.784314%,22.745098%);fill-opacity:1;stroke-width:0.644;stroke-linecap:butt;stroke-linejoin:miter;stroke:rgb(0%,0%,0%);stroke-opacity:1;stroke-miterlimit:4;" d="M 585.614224 371.088867 C 585.614224 371.25 585.452586 371.411133 585.614224 371.411133 C 586.099138 371.733398 585.9375 371.733398 587.877155 372.055664 C 589.81681 372.216797 591.109914 371.894531 591.43319 371.572266 C 591.756466 371.088867 586.584052 370.283203 585.614224 371.088867 " transform="matrix(0.0241667,0,0,0.0242424,0,0)"/>
<path style="fill-rule:nonzero;fill:rgb(0%,60.784314%,22.745098%);fill-opacity:1;stroke-width:0.836;stroke-linecap:butt;stroke-linejoin:miter;stroke:rgb(0%,0%,0%);stroke-opacity:1;stroke-miterlimit:4;" d="M 573.491379 344.018555 L 573.168103 341.601562 C 573.168103 341.601562 572.68319 335.15625 572.036638 333.867188 C 571.875 333.544922 571.875 332.900391 571.390086 332.900391 C 570.581897 332.900391 570.581897 334.995117 570.420259 336.767578 C 568.965517 346.274414 576.5625 353.525391 576.5625 353.525391 Z M 573.491379 344.018555 " transform="matrix(0.0241667,0,0,0.0242424,0,0)"/>
<path style="fill-rule:nonzero;fill:rgb(0%,60.784314%,22.745098%);fill-opacity:1;stroke-width:0.77;stroke-linecap:butt;stroke-linejoin:miter;stroke:rgb(0%,0%,0%);stroke-opacity:1;stroke-miterlimit:4;" d="M 610.991379 372.055664 C 610.991379 372.055664 610.18319 371.894531 610.668103 371.25 C 611.314655 370.766602 612.122845 370.444336 612.931034 370.444336 C 613.415948 370.444336 614.0625 370.444336 614.547414 370.605469 C 615.193966 370.766602 616.002155 371.25 615.840517 371.733398 C 615.193966 372.216797 614.385776 372.539062 613.577586 372.539062 C 612.931034 372.539062 612.284483 372.539062 611.799569 372.37793 C 611.314655 372.216797 610.991379 372.055664 610.991379 372.055664 " transform="matrix(0.0241667,0,0,0.0242424,0,0)"/>
<path style="fill-rule:nonzero;fill:rgb(0%,60.784314%,22.745098%);fill-opacity:1;stroke-width:0.602;stroke-linecap:butt;stroke-linejoin:miter;stroke:rgb(0%,0%,0%);stroke-opacity:1;stroke-miterlimit:4;" d="M 602.747845 367.543945 C 602.747845 367.543945 600.161638 366.416016 597.737069 365.126953 C 594.50431 363.515625 590.625 361.420898 587.877155 357.392578 C 585.9375 354.331055 583.512931 351.591797 580.765086 349.174805 C 579.956897 348.530273 579.956897 348.369141 579.633621 348.691406 C 579.471983 349.013672 579.633621 349.335938 579.795259 349.658203 C 580.44181 350.786133 582.219828 353.041992 582.866379 354.169922 C 583.836207 356.264648 586.099138 358.520508 586.099138 359.80957 C 586.099138 359.970703 585.452586 359.648438 585.452586 359.648438 C 581.896552 358.198242 579.310345 355.297852 578.178879 351.591797 C 576.724138 347.080078 577.37069 345.791016 576.885776 343.535156 C 576.400862 339.506836 576.239224 339.18457 574.299569 334.672852 C 574.137931 334.511719 573.006466 332.739258 572.844828 333.061523 C 572.844828 334.02832 572.844828 334.833984 573.006466 335.639648 L 573.329741 338.056641 C 573.329741 338.056641 573.168103 343.051758 573.168103 343.374023 C 573.168103 343.696289 571.875 346.918945 577.37069 352.397461 C 577.37069 352.397461 577.37069 353.364258 576.724138 352.558594 C 576.077586 351.914062 572.198276 348.852539 571.06681 343.857422 C 569.773707 338.862305 569.612069 333.867188 570.581897 331.772461 C 571.390086 330 573.006466 325.327148 572.359914 321.459961 C 572.198276 320.976562 572.198276 319.6875 571.875 320.009766 C 571.713362 320.170898 571.228448 322.265625 570.905172 322.910156 C 570.581897 323.876953 569.935345 324.84375 569.773707 325.488281 C 569.288793 326.616211 567.349138 328.388672 567.834052 331.611328 C 567.834052 333.383789 568.318966 335.317383 568.965517 337.089844 C 569.127155 337.573242 569.450431 338.862305 569.127155 338.862305 C 568.965517 339.023438 568.157328 337.412109 568.157328 337.412109 C 568.157328 337.412109 564.762931 330.644531 566.864224 325.004883 C 568.965517 319.526367 574.461207 314.208984 574.461207 314.208984 C 574.461207 314.208984 578.987069 310.664062 579.795259 309.697266 C 580.118534 309.375 580.118534 309.213867 579.956897 309.213867 C 573.814655 310.664062 568.965517 315.336914 567.349138 321.459961 C 567.349138 321.459961 567.1875 321.782227 567.025862 321.782227 C 566.702586 321.621094 567.025862 321.137695 567.025862 321.137695 C 567.025862 321.137695 568.803879 313.886719 574.137931 310.664062 C 579.795259 307.119141 579.148707 307.602539 581.088362 306.474609 C 582.543103 305.507812 583.836207 304.057617 584.644397 302.446289 C 584.967672 301.962891 585.12931 301.318359 585.290948 300.673828 C 585.290948 300.512695 584.967672 300.834961 584.806034 301.157227 C 583.836207 302.607422 582.381466 303.896484 580.765086 304.541016 C 578.340517 305.34668 576.400862 304.21875 573.976293 306.958008 C 572.198276 308.891602 570.743534 311.147461 569.450431 313.40332 C 569.450431 313.40332 568.803879 314.370117 568.642241 314.370117 C 568.480603 314.208984 568.803879 313.40332 568.803879 313.40332 C 568.803879 313.40332 572.198276 306.313477 574.784483 305.024414 C 577.047414 303.735352 579.148707 302.446289 581.25 300.996094 C 583.351293 299.0625 585.452586 296.967773 587.392241 294.873047 C 587.553879 294.550781 589.331897 292.939453 589.655172 292.294922 C 589.81681 291.972656 590.463362 291.650391 590.301724 291.489258 C 590.140086 291.328125 588.523707 292.133789 588.523707 292.133789 C 582.704741 293.90625 577.855603 297.773438 574.461207 302.607422 C 573.976293 303.251953 573.653017 303.735352 573.168103 304.21875 C 572.844828 304.702148 572.521552 305.185547 572.359914 305.830078 C 572.036638 305.507812 575.431034 301.157227 575.431034 301.157227 L 576.077586 298.417969 C 576.724138 296.000977 577.693966 293.583984 579.148707 291.328125 C 579.310345 291.166992 580.603448 289.87793 580.765086 289.555664 C 581.25 289.072266 579.956897 290.039062 580.280172 289.716797 C 580.280172 289.716797 572.198276 295.678711 572.198276 302.929688 C 572.198276 304.21875 571.228448 305.507812 570.096983 307.119141 C 568.965517 308.891602 568.157328 310.825195 567.834052 313.081055 C 567.672414 314.208984 567.349138 315.336914 567.025862 316.625977 C 566.702586 318.398438 567.1875 317.592773 566.864224 317.592773 C 566.540948 317.431641 566.540948 316.625977 566.540948 316.625977 C 567.025862 314.208984 567.349138 311.791992 567.99569 309.375 C 568.642241 307.763672 568.965517 306.635742 568.965517 306.635742 C 568.965517 306.635742 568.642241 302.607422 569.612069 300.351562 C 570.420259 298.579102 571.390086 296.806641 572.521552 295.195312 C 573.168103 293.745117 573.653017 292.294922 573.814655 290.844727 C 573.976293 290.683594 573.653017 290.844727 573.329741 291.650391 C 572.359914 293.745117 571.713362 294.228516 570.258621 296.162109 C 570.258621 296.162109 566.540948 298.901367 565.086207 306.958008 C 565.086207 306.958008 565.086207 310.019531 564.601293 314.692383 C 564.278017 317.592773 564.439655 320.493164 564.924569 323.393555 C 565.247845 324.521484 565.732759 324.521484 565.409483 324.682617 C 565.247845 324.84375 565.409483 324.682617 565.086207 323.876953 C 564.439655 322.265625 564.116379 320.493164 564.116379 318.720703 C 564.116379 314.53125 564.439655 311.147461 564.439655 311.147461 C 564.439655 311.147461 564.762931 304.379883 562.015086 301.157227 C 561.853448 300.996094 562.5 302.607422 562.661638 304.21875 C 562.823276 305.991211 562.661638 307.924805 562.338362 309.697266 C 562.015086 310.825195 560.237069 315.336914 560.883621 319.526367 C 560.883621 319.526367 562.5 326.777344 564.601293 330.161133 C 564.601293 330.161133 565.732759 331.611328 564.601293 330.322266 C 563.469828 328.87207 561.206897 323.232422 561.045259 322.749023 C 560.237069 320.81543 559.105603 319.042969 557.650862 317.431641 C 556.681034 316.625977 555.711207 315.981445 554.579741 315.336914 C 554.579741 315.336914 553.448276 314.53125 554.418103 315.65918 C 555.064655 316.625977 556.034483 318.398438 556.519397 319.042969 C 557.489224 320.654297 558.297414 322.265625 559.105603 323.876953 C 559.752155 325.488281 561.530172 330.322266 561.530172 330.322266 L 562.661638 333.383789 C 563.631466 334.02832 564.601293 334.672852 565.409483 335.478516 C 567.1875 337.412109 568.480603 339.667969 569.450431 342.246094 C 569.935345 343.374023 570.581897 344.34082 571.390086 345.307617 C 571.390086 345.307617 571.06681 345.791016 569.935345 343.857422 C 568.803879 341.923828 567.672414 338.217773 565.086207 335.317383 C 562.984914 333.061523 557.489224 330.805664 557.489224 330.805664 C 557.489224 330.805664 561.045259 336.928711 561.853448 338.056641 C 563.30819 339.829102 565.571121 342.246094 566.056034 342.890625 C 566.702586 343.696289 569.935345 347.724609 570.420259 348.369141 C 570.905172 349.013672 571.551724 349.658203 572.198276 350.302734 C 573.006466 351.269531 575.592672 352.880859 575.75431 353.203125 C 575.915948 353.525391 575.915948 353.203125 575.75431 353.041992 C 574.461207 352.397461 573.168103 351.269531 571.713362 350.302734 C 570.258621 349.49707 564.924569 347.080078 561.206897 342.084961 C 560.237069 340.473633 559.913793 339.990234 559.590517 340.151367 C 559.105603 340.3125 562.015086 349.980469 568.157328 353.041992 C 568.157328 353.041992 574.784483 356.103516 576.239224 356.90918 C 577.37069 357.553711 578.340517 358.037109 579.471983 358.681641 C 579.795259 359.165039 578.987069 359.165039 578.987069 359.165039 C 575.431034 358.842773 570.420259 358.359375 567.1875 356.586914 C 567.1875 356.586914 565.894397 355.620117 567.025862 356.90918 C 568.480603 359.003906 570.420259 360.776367 572.68319 361.904297 C 575.75431 363.032227 578.987069 363.837891 582.219828 364.160156 C 583.997845 364.321289 589.978448 364.321289 591.109914 364.643555 C 592.241379 365.126953 594.019397 366.254883 595.150862 366.577148 C 596.12069 366.899414 599.19181 368.027344 599.19181 368.027344 C 599.515086 368.349609 600 368.510742 600.484914 368.671875 C 601.131466 368.994141 603.232759 368.994141 603.394397 368.510742 C 603.556034 368.188477 602.747845 367.543945 602.747845 367.543945 " transform="matrix(0.0241667,0,0,0.0242424,0,0)"/>
<path style="fill-rule:nonzero;fill:rgb(0%,60.784314%,22.745098%);fill-opacity:1;stroke-width:0.754;stroke-linecap:butt;stroke-linejoin:miter;stroke:rgb(0%,0%,0%);stroke-opacity:1;stroke-miterlimit:4;" d="M 641.37931 317.109375 C 642.025862 317.270508 642.349138 319.365234 642.349138 319.365234 C 642.349138 319.365234 642.349138 318.237305 642.349138 317.592773 C 642.349138 317.109375 642.025862 314.853516 642.025862 314.853516 L 641.37931 315.336914 C 641.056034 315.820312 640.571121 316.303711 640.409483 316.948242 C 640.732759 316.948242 641.056034 316.948242 641.37931 317.109375 " transform="matrix(0.0241667,0,0,0.0242424,0,0)"/>
</g>
</svg>
