<?xml version="1.0" encoding="UTF-8"?>
<svg xmlns="http://www.w3.org/2000/svg" xmlns:xlink="http://www.w3.org/1999/xlink" width="24px" height="16px" viewBox="0 0 32 16" version="1.1">
<g id="surface1">
<rect x="0" y="0" width="32" height="16" style="fill:rgb(100%,0%,0%);fill-opacity:1;stroke:none;"/>
<path style=" stroke:none;fill-rule:nonzero;fill:rgb(0%,36.078431%,89.803922%);fill-opacity:1;" d="M 0 0 L 32 0 L 32 10.667969 L 0 10.667969 Z M 0 0 "/>
<path style=" stroke:none;fill-rule:nonzero;fill:rgb(100%,100%,100%);fill-opacity:1;" d="M 0 0 L 32 0 L 32 5.332031 L 0 5.332031 Z M 0 0 "/>
<path style=" stroke:none;fill-rule:evenodd;fill:rgb(0%,36.078431%,89.803922%);fill-opacity:1;" d="M 8 2.804688 C 7.964844 2.804688 7.929688 2.804688 7.894531 2.808594 C 7.199219 2.824219 6.550781 3.003906 6.085938 3.222656 C 6.035156 3.246094 5.988281 3.265625 5.941406 3.285156 L 6.097656 5.78125 C 6.210938 7.082031 7.058594 7.839844 8 8.140625 C 8.945312 7.839844 9.792969 7.082031 9.902344 5.78125 L 10.0625 3.292969 C 10.015625 3.269531 9.964844 3.246094 9.914062 3.222656 C 9.429688 2.992188 8.734375 2.808594 8.003906 2.804688 Z M 8 2.804688 "/>
<path style=" stroke:none;fill-rule:evenodd;fill:rgb(100%,100%,100%);fill-opacity:1;" d="M 8 4.53125 L 7.535156 5.441406 L 7.234375 5.050781 L 6.449219 6.089844 C 6.460938 6.152344 6.480469 6.214844 6.496094 6.277344 C 6.585938 6.425781 6.753906 6.59375 6.972656 6.59375 C 7.144531 6.59375 7.3125 6.457031 7.484375 6.457031 C 7.65625 6.457031 7.828125 6.59375 8 6.59375 C 8.171875 6.59375 8.34375 6.457031 8.515625 6.457031 C 8.6875 6.457031 8.859375 6.59375 9.03125 6.59375 C 9.246094 6.59375 9.414062 6.425781 9.503906 6.28125 C 9.523438 6.21875 9.539062 6.152344 9.554688 6.085938 L 8.769531 5.050781 L 8.46875 5.441406 Z M 7.484375 6.59375 C 7.3125 6.59375 7.144531 6.730469 6.972656 6.730469 C 6.835938 6.730469 6.71875 6.683594 6.628906 6.613281 C 6.660156 6.679688 6.691406 6.746094 6.730469 6.8125 C 6.800781 6.855469 6.882812 6.882812 6.972656 6.882812 C 7.144531 6.882812 7.3125 6.746094 7.484375 6.746094 C 7.65625 6.746094 7.828125 6.882812 8 6.882812 C 8.171875 6.882812 8.34375 6.746094 8.515625 6.746094 C 8.6875 6.746094 8.859375 6.882812 9.03125 6.882812 C 9.121094 6.882812 9.199219 6.855469 9.269531 6.8125 C 9.308594 6.75 9.339844 6.683594 9.371094 6.617188 C 9.28125 6.683594 9.167969 6.730469 9.03125 6.730469 C 8.859375 6.730469 8.6875 6.59375 8.515625 6.59375 C 8.34375 6.59375 8.171875 6.730469 8 6.730469 C 7.828125 6.730469 7.65625 6.59375 7.484375 6.59375 Z M 7.484375 6.882812 C 7.3125 6.882812 7.144531 7.023438 6.972656 7.023438 C 6.933594 7.023438 6.898438 7.019531 6.863281 7.011719 C 7.160156 7.40625 7.566406 7.675781 8 7.828125 C 8.433594 7.675781 8.839844 7.410156 9.136719 7.011719 C 9.105469 7.019531 9.070312 7.023438 9.03125 7.023438 C 8.859375 7.023438 8.6875 6.882812 8.515625 6.882812 C 8.34375 6.882812 8.171875 7.023438 8 7.023438 C 7.828125 7.023438 7.65625 6.882812 7.484375 6.882812 Z M 7.484375 6.882812 "/>
<path style=" stroke:none;fill-rule:evenodd;fill:rgb(100%,89.803922%,0%);fill-opacity:1;" d="M 7.226562 3.140625 L 7.617188 3.140625 L 7.421875 3.476562 "/>
<path style=" stroke:none;fill-rule:evenodd;fill:rgb(100%,89.803922%,0%);fill-opacity:1;" d="M 7.226562 3.363281 L 7.617188 3.363281 L 7.421875 3.027344 "/>
<path style=" stroke:none;fill-rule:evenodd;fill:rgb(100%,89.803922%,0%);fill-opacity:1;" d="M 8.386719 3.140625 L 8.777344 3.140625 L 8.582031 3.476562 "/>
<path style=" stroke:none;fill-rule:evenodd;fill:rgb(100%,89.803922%,0%);fill-opacity:1;" d="M 8.386719 3.363281 L 8.777344 3.363281 L 8.582031 3.027344 "/>
<path style=" stroke:none;fill-rule:evenodd;fill:rgb(100%,89.803922%,0%);fill-opacity:1;" d="M 7.808594 3.917969 L 8.195312 3.917969 L 8 4.253906 "/>
<path style=" stroke:none;fill-rule:evenodd;fill:rgb(100%,89.803922%,0%);fill-opacity:1;" d="M 7.808594 4.140625 L 8.195312 4.140625 L 8 3.804688 "/>
<path style=" stroke:none;fill-rule:evenodd;fill:rgb(100%,0%,0%);fill-opacity:1;" d="M 8 2.804688 Z M 6.085938 3.222656 C 6.035156 3.242188 5.988281 3.265625 5.9375 3.285156 L 6.097656 5.777344 C 6.207031 7.082031 7.058594 7.839844 8 8.136719 C 8.945312 7.839844 9.792969 7.082031 9.902344 5.777344 L 10.0625 3.292969 C 10.011719 3.269531 9.964844 3.246094 9.914062 3.222656 L 9.765625 5.695312 C 9.714844 6.753906 9.011719 7.671875 8 7.988281 C 6.988281 7.671875 6.285156 6.753906 6.234375 5.695312 Z M 6.085938 3.222656 "/>
</g>
</svg>
