<?xml version="1.0" encoding="UTF-8"?>
<svg xmlns="http://www.w3.org/2000/svg" xmlns:xlink="http://www.w3.org/1999/xlink" width="24px" height="16px" viewBox="0 0 32 16" version="1.1">
<g id="surface1">
<rect x="0" y="0" width="32" height="16" style="fill:rgb(7.058824%,67.843137%,16.862745%);fill-opacity:1;stroke:none;"/>
<path style=" stroke:none;fill-rule:nonzero;fill:rgb(100%,80.784314%,0%);fill-opacity:1;" d="M 0 4.570312 L 32 4.570312 L 32 11.429688 L 0 11.429688 Z M 0 4.570312 "/>
<path style=" stroke:none;fill-rule:nonzero;fill:rgb(82.352941%,6.27451%,20.392157%);fill-opacity:1;" d="M 0 0 L 0 16 L 8 8 "/>
<path style=" stroke:none;fill-rule:nonzero;fill:rgb(0%,0%,0%);fill-opacity:1;" d="M 16 5.714844 L 15.292969 7.886719 L 16.378906 8.242188 "/>
<path style=" stroke:none;fill-rule:nonzero;fill:rgb(0%,0%,0%);fill-opacity:1;" d="M 16 5.714844 L 16.707031 7.886719 L 15.621094 8.242188 "/>
<path style=" stroke:none;fill-rule:nonzero;fill:rgb(0%,0%,0%);fill-opacity:1;" d="M 18.175781 7.292969 L 15.886719 7.292969 L 15.886719 8.4375 "/>
<path style=" stroke:none;fill-rule:nonzero;fill:rgb(0%,0%,0%);fill-opacity:1;" d="M 18.175781 7.292969 L 16.324219 8.636719 L 15.652344 7.710938 "/>
<path style=" stroke:none;fill-rule:nonzero;fill:rgb(0%,0%,0%);fill-opacity:1;" d="M 17.34375 9.847656 L 16.636719 7.675781 L 15.550781 8.027344 "/>
<path style=" stroke:none;fill-rule:nonzero;fill:rgb(0%,0%,0%);fill-opacity:1;" d="M 17.34375 9.847656 L 15.496094 8.503906 L 16.167969 7.582031 "/>
<path style=" stroke:none;fill-rule:nonzero;fill:rgb(0%,0%,0%);fill-opacity:1;" d="M 14.65625 9.847656 L 16.503906 8.503906 L 15.832031 7.582031 "/>
<path style=" stroke:none;fill-rule:nonzero;fill:rgb(0%,0%,0%);fill-opacity:1;" d="M 14.65625 9.847656 L 15.363281 7.675781 L 16.449219 8.027344 "/>
<path style=" stroke:none;fill-rule:nonzero;fill:rgb(0%,0%,0%);fill-opacity:1;" d="M 13.824219 7.292969 L 15.675781 8.636719 L 16.347656 7.710938 "/>
<path style=" stroke:none;fill-rule:nonzero;fill:rgb(0%,0%,0%);fill-opacity:1;" d="M 13.824219 7.292969 L 16.113281 7.292969 L 16.113281 8.4375 "/>
<path style=" stroke:none;fill-rule:nonzero;fill:rgb(0%,0%,0%);fill-opacity:1;" d="M 24 5.714844 L 23.292969 7.886719 L 24.378906 8.242188 "/>
<path style=" stroke:none;fill-rule:nonzero;fill:rgb(0%,0%,0%);fill-opacity:1;" d="M 24 5.714844 L 24.707031 7.886719 L 23.621094 8.242188 "/>
<path style=" stroke:none;fill-rule:nonzero;fill:rgb(0%,0%,0%);fill-opacity:1;" d="M 26.175781 7.292969 L 23.886719 7.292969 L 23.886719 8.4375 "/>
<path style=" stroke:none;fill-rule:nonzero;fill:rgb(0%,0%,0%);fill-opacity:1;" d="M 26.175781 7.292969 L 24.324219 8.636719 L 23.652344 7.710938 "/>
<path style=" stroke:none;fill-rule:nonzero;fill:rgb(0%,0%,0%);fill-opacity:1;" d="M 25.34375 9.847656 L 24.636719 7.675781 L 23.550781 8.027344 "/>
<path style=" stroke:none;fill-rule:nonzero;fill:rgb(0%,0%,0%);fill-opacity:1;" d="M 25.34375 9.847656 L 23.496094 8.503906 L 24.167969 7.582031 "/>
<path style=" stroke:none;fill-rule:nonzero;fill:rgb(0%,0%,0%);fill-opacity:1;" d="M 22.65625 9.847656 L 24.503906 8.503906 L 23.832031 7.582031 "/>
<path style=" stroke:none;fill-rule:nonzero;fill:rgb(0%,0%,0%);fill-opacity:1;" d="M 22.65625 9.847656 L 23.363281 7.675781 L 24.449219 8.027344 "/>
<path style=" stroke:none;fill-rule:nonzero;fill:rgb(0%,0%,0%);fill-opacity:1;" d="M 21.824219 7.292969 L 23.675781 8.636719 L 24.347656 7.710938 "/>
<path style=" stroke:none;fill-rule:nonzero;fill:rgb(0%,0%,0%);fill-opacity:1;" d="M 21.824219 7.292969 L 24.113281 7.292969 L 24.113281 8.4375 "/>
</g>
</svg>
