<?xml version="1.0" encoding="UTF-8"?>
<svg xmlns="http://www.w3.org/2000/svg" xmlns:xlink="http://www.w3.org/1999/xlink" width="24px" height="16px" viewBox="0 0 24 16" version="1.1">
<g id="surface1">
<path style=" stroke:none;fill-rule:nonzero;fill:rgb(86.27451%,9.019608%,11.372549%);fill-opacity:1;" d="M 0 0 L 10.617188 8.007812 L 24 8.007812 L 24 0 Z M 0 0 "/>
<path style="fill-rule:nonzero;fill:rgb(100%,100%,100%);fill-opacity:1;stroke-width:1;stroke-linecap:butt;stroke-linejoin:miter;stroke:rgb(100%,100%,100%);stroke-opacity:1;stroke-miterlimit:4;" d="M 0 0 L 299.047852 225.769043 L 0 450 Z M 0 0 " transform="matrix(0.0355556,0,0,0.0355556,0,0)"/>
<path style=" stroke:none;fill-rule:nonzero;fill:rgb(0.392157%,16.470588%,52.941176%);fill-opacity:1;" d="M 0 16 L 10.617188 8.007812 L 24 8.007812 L 24 16 Z M 0 16 "/>
<path style=" stroke:none;fill-rule:nonzero;fill:rgb(100%,100%,0%);fill-opacity:1;" d="M 5.363281 6.054688 L 5.367188 5.929688 C 5.367188 5.929688 5.300781 5.824219 5.375 5.710938 C 5.375 5.710938 5.210938 5.625 5.25 5.488281 C 5.25 5.488281 5.101562 5.449219 5.113281 5.289062 C 5.113281 5.289062 4.953125 5.277344 4.9375 5.140625 C 4.9375 5.140625 4.777344 5.167969 4.707031 5.035156 C 4.707031 5.035156 4.550781 5.0625 4.507812 4.953125 C 4.507812 4.953125 4.355469 5.007812 4.265625 4.878906 C 4.265625 4.878906 4.105469 4.941406 4.035156 4.820312 C 3.96875 4.941406 3.808594 4.878906 3.808594 4.878906 C 3.722656 5.007812 3.570312 4.953125 3.570312 4.953125 C 3.527344 5.0625 3.371094 5.03125 3.371094 5.03125 C 3.300781 5.164062 3.140625 5.140625 3.140625 5.140625 C 3.125 5.273438 2.964844 5.285156 2.964844 5.285156 C 2.976562 5.449219 2.828125 5.484375 2.828125 5.484375 C 2.867188 5.621094 2.703125 5.707031 2.703125 5.707031 C 2.785156 5.824219 2.71875 5.929688 2.71875 5.929688 L 2.714844 6.042969 L 5.363281 6.054688 "/>
<path style="fill-rule:nonzero;fill:rgb(97.647059%,85.098039%,5.882353%);fill-opacity:1;stroke-width:0.271;stroke-linecap:butt;stroke-linejoin:miter;stroke:rgb(0%,0%,0%);stroke-opacity:1;stroke-miterlimit:4;" d="M 377.188285 843.112211 L 377.297327 839.622237 C 377.297327 839.622237 375.443628 836.677572 377.515409 833.514784 C 377.515409 833.514784 372.935682 831.115427 374.026093 827.298268 C 374.026093 827.298268 369.882531 826.207651 370.209654 821.736122 C 370.209654 821.736122 365.738969 821.408937 365.302804 817.591779 C 365.302804 817.591779 360.832119 818.35521 358.869379 814.647113 C 358.869379 814.647113 354.507734 815.410545 353.308282 812.356818 C 353.308282 812.356818 349.055679 813.883682 346.547733 810.284646 C 346.547733 810.284646 342.077048 812.029633 340.114308 808.648721 C 338.260609 812.029633 333.789923 810.284646 333.789923 810.284646 C 331.391019 813.883682 327.138415 812.356818 327.138415 812.356818 C 325.938963 815.410545 321.577319 814.538052 321.577319 814.538052 C 319.614579 818.246149 315.143893 817.482717 315.143893 817.482717 C 314.707729 821.299876 310.237043 821.627061 310.237043 821.627061 C 310.564166 826.207651 306.420604 827.189206 306.420604 827.189206 C 307.511015 831.006365 302.931289 833.405722 302.931289 833.405722 C 305.221152 836.677572 303.367453 839.622237 303.367453 839.622237 L 303.258412 842.785026 Z M 377.188285 843.112211 " transform="matrix(0.0358236,0,0,0.0358169,-8.148978,-24.142969)"/>
<path style=" stroke:none;fill-rule:nonzero;fill:rgb(86.27451%,9.019608%,11.372549%);fill-opacity:1;" d="M 5.300781 5.898438 C 4.882812 5.859375 4.40625 5.757812 4.035156 5.96875 C 3.789062 5.820312 3.441406 5.832031 3.148438 5.859375 C 2.988281 5.886719 2.800781 5.886719 2.632812 5.914062 L 2.609375 5.917969 C 2.304688 5.9375 2.03125 5.847656 1.769531 5.730469 C 1.851562 6.207031 1.945312 6.691406 1.988281 7.1875 C 2.089844 7.921875 1.640625 8.539062 1.824219 9.265625 C 1.933594 9.613281 2.316406 9.816406 2.667969 9.855469 C 3.007812 9.878906 3.359375 9.933594 3.675781 10 C 3.734375 10.011719 3.804688 10.042969 3.84375 10.058594 C 3.933594 10.09375 3.996094 10.148438 4.050781 10.207031 C 4.242188 10.007812 4.519531 9.953125 4.792969 9.921875 C 5.289062 9.867188 5.898438 9.898438 6.199219 9.449219 L 6.199219 9.425781 C 6.363281 9.175781 6.34375 8.796875 6.269531 8.519531 C 6.265625 8.421875 6.242188 8.332031 6.226562 8.242188 C 5.925781 7.441406 6.183594 6.546875 6.3125 5.742188 C 6.152344 5.828125 5.976562 5.871094 5.800781 5.914062 C 5.660156 5.933594 5.503906 5.921875 5.359375 5.914062 L 5.300781 5.898438 M 5.921875 8.1875 "/>
<path style=" stroke:none;fill-rule:nonzero;fill:rgb(38.431373%,68.627451%,88.235294%);fill-opacity:1;" d="M 5.921875 8.1875 C 5.921875 8.242188 5.949219 8.28125 5.957031 8.332031 C 6.015625 8.679688 6.074219 9.140625 5.714844 9.359375 C 5.316406 9.609375 4.796875 9.503906 4.335938 9.636719 C 4.246094 9.660156 4.117188 9.746094 4.054688 9.804688 C 4.011719 9.777344 3.96875 9.738281 3.917969 9.710938 C 3.539062 9.511719 3.046875 9.578125 2.621094 9.46875 C 2.40625 9.402344 2.183594 9.234375 2.128906 9.015625 C 1.988281 8.441406 2.324219 7.949219 2.285156 7.378906 C 2.257812 6.941406 2.183594 6.523438 2.085938 6.113281 C 2.417969 6.269531 2.804688 6.296875 3.179688 6.222656 C 3.457031 6.183594 3.78125 6.183594 4.039062 6.300781 C 4.183594 6.238281 4.351562 6.210938 4.507812 6.191406 C 4.800781 6.222656 5.117188 6.273438 5.417969 6.273438 C 5.621094 6.261719 5.804688 6.203125 5.980469 6.125 C 5.875 6.800781 5.675781 7.507812 5.921875 8.1875 "/>
<path style=" stroke:none;fill-rule:nonzero;fill:rgb(100%,100%,100%);fill-opacity:1;" d="M 5.320312 8.324219 L 5.320312 7.6875 L 5.398438 7.6875 L 4.425781 7.0625 L 4.425781 6.734375 L 4.519531 6.734375 L 4.03125 6.386719 L 3.550781 6.734375 L 3.644531 6.734375 L 3.644531 7.058594 L 2.679688 7.6875 L 2.753906 7.6875 L 2.757812 8.324219 L 5.320312 8.324219 "/>
<path style="fill:none;stroke-width:1.164;stroke-linecap:butt;stroke-linejoin:miter;stroke:rgb(0%,0%,0%);stroke-opacity:1;stroke-miterlimit:4;" d="M 375.988833 906.477046 L 375.988833 888.699993 L 378.169655 888.699993 L 351.018419 871.250124 L 351.018419 862.088943 L 353.635405 862.088943 L 340.005267 852.382454 L 326.59321 862.088943 L 329.210197 862.088943 L 329.210197 871.141062 L 302.277042 888.699993 L 304.348823 888.699993 L 304.457864 906.367984 Z M 375.988833 906.477046 " transform="matrix(0.0358236,0,0,0.0358169,-8.148978,-24.142969)"/>
<path style=" stroke:none;fill-rule:nonzero;fill:rgb(100%,100%,100%);fill-opacity:1;" d="M 5.621094 9.160156 L 5.621094 9.355469 L 2.492188 9.355469 L 2.492188 9.15625 L 5.621094 9.160156 "/>
<path style="fill:none;stroke-width:1.164;stroke-linecap:butt;stroke-linejoin:miter;stroke:rgb(0%,0%,0%);stroke-opacity:1;stroke-miterlimit:4;" d="M 384.384999 929.707183 L 384.384999 935.269329 L 297.043069 935.269329 L 297.043069 929.707183 L 384.384999 929.816245 Z M 384.384999 929.707183 " transform="matrix(0.0358236,0,0,0.0358169,-8.148978,-24.142969)"/>
<path style=" stroke:none;fill-rule:nonzero;fill:rgb(100%,100%,100%);fill-opacity:1;" d="M 2.699219 9.144531 L 2.695312 8.472656 L 2.824219 8.472656 L 2.816406 9.152344 L 2.824219 8.480469 L 2.640625 8.472656 L 2.640625 8.328125 L 5.4375 8.332031 L 5.441406 8.476562 L 5.265625 8.476562 L 5.269531 9.15625 L 5.265625 8.476562 L 5.394531 8.476562 L 5.394531 9.148438 "/>
<path style="fill:none;stroke-width:1.164;stroke-linecap:butt;stroke-linejoin:miter;stroke:rgb(0%,0%,0%);stroke-opacity:1;stroke-miterlimit:4;" d="M 302.822248 929.379998 L 302.713206 910.62139 L 306.311563 910.62139 L 306.093481 929.598122 L 306.311563 910.839513 L 301.186631 910.62139 L 301.186631 906.586108 L 379.260067 906.695169 L 379.369108 910.730451 L 374.462258 910.730451 L 374.571299 929.707183 L 374.462258 910.730451 L 378.060614 910.730451 L 378.060614 929.48906 M 319.614579 924.799408 L 319.614579 911.712007 L 309.037591 911.712007 L 309.146632 924.799408 L 319.614579 924.799408 M 319.614579 924.799408 L 319.614579 911.712007 L 309.037591 911.712007 L 309.146632 924.799408 L 319.614579 924.799408 M 319.614579 924.799408 L 319.614579 911.712007 L 309.037591 911.712007 L 309.146632 924.799408 L 319.614579 924.799408 M 319.614579 924.799408 L 319.614579 911.712007 L 309.037591 911.712007 L 309.146632 924.799408 L 319.614579 924.799408 M 319.614579 924.799408 L 319.614579 911.712007 L 309.037591 911.712007 L 309.146632 924.799408 L 319.614579 924.799408 M 311.981701 914.438549 L 311.981701 922.072866 L 316.77951 922.072866 L 316.77951 914.438549 L 311.981701 914.438549 M 370.863901 924.799408 L 370.75486 911.712007 L 360.395954 911.712007 L 360.395954 924.799408 L 370.863901 924.799408 M 363.231023 914.438549 L 363.231023 922.072866 L 368.028832 922.072866 L 368.028832 914.438549 L 363.231023 914.438549 M 370.75486 903.532381 L 370.75486 890.444979 L 360.286913 890.444979 L 360.286913 903.532381 Z M 363.121982 893.171521 L 363.121982 900.805839 L 367.919791 900.805839 L 367.919791 893.171521 L 363.121982 893.171521 M 319.505538 903.423319 L 319.505538 890.335918 L 309.037591 890.335918 L 309.037591 903.423319 Z M 311.87266 893.06246 L 311.87266 900.696777 L 316.670469 900.696777 L 316.670469 893.06246 L 311.87266 893.06246 M 338.478691 903.532381 L 338.478691 890.444979 L 328.010744 890.444979 L 328.010744 903.532381 L 338.478691 903.532381 M 330.845813 893.171521 L 330.845813 900.696777 L 335.643622 900.696777 L 335.643622 893.171521 L 330.845813 893.171521 M 353.0902 903.532381 L 353.0902 890.444979 L 342.622253 890.444979 L 342.622253 903.532381 L 353.0902 903.532381 M 345.457322 893.171521 L 345.457322 900.696777 L 350.255131 900.696777 L 350.255131 893.171521 L 345.457322 893.171521 " transform="matrix(0.0358236,0,0,0.0358169,-8.148978,-24.142969)"/>
<path style=" stroke:none;fill-rule:nonzero;fill:rgb(100%,100%,100%);fill-opacity:1;" d="M 4.59375 8.074219 L 4.597656 9.15625 L 3.511719 9.152344 L 3.507812 8.074219 L 4.59375 8.074219 "/>
<path style="fill:none;stroke-width:1.164;stroke-linecap:butt;stroke-linejoin:miter;stroke:rgb(0%,0%,0%);stroke-opacity:1;stroke-miterlimit:4;" d="M 355.707187 899.497099 L 355.816228 929.707183 L 325.502799 929.598122 L 325.393758 899.497099 Z M 325.175675 908.112971 L 355.707187 908.112971 M 325.175675 908.112971 L 355.707187 908.112971 M 325.175675 908.112971 L 355.707187 908.112971 M 325.175675 908.112971 L 355.707187 908.112971 M 325.175675 908.112971 L 355.707187 908.112971 M 328.992114 929.707183 L 328.883073 908.331095 M 352.10883 929.707183 L 351.999789 908.331095 M 366.82938 886.627821 L 349.709925 874.194789 L 330.51869 874.085728 L 313.617318 886.627821 L 366.82938 886.627821 M 332.045265 863.83393 L 332.045265 871.359186 L 348.18335 871.468247 L 348.18335 863.83393 L 332.045265 863.83393 M 332.045265 863.83393 L 332.045265 871.359186 L 348.18335 871.468247 L 348.18335 863.83393 L 332.045265 863.83393 " transform="matrix(0.0358236,0,0,0.0358169,-8.148978,-24.142969)"/>
<path style="fill:none;stroke-width:1.164;stroke-linecap:butt;stroke-linejoin:miter;stroke:rgb(0%,0%,0%);stroke-opacity:1;stroke-miterlimit:4;" d="M 332.045265 863.83393 L 332.045265 871.359186 L 348.18335 871.468247 L 348.18335 863.83393 L 332.045265 863.83393 " transform="matrix(0.0358236,0,0,0.0358169,-8.148978,-24.142969)"/>
<path style="fill:none;stroke-width:1.164;stroke-linecap:butt;stroke-linejoin:miter;stroke:rgb(0%,0%,0%);stroke-opacity:1;stroke-miterlimit:4;" d="M 336.40691 865.687979 L 336.40691 869.505137 L 343.821705 869.505137 L 343.821705 865.687979 L 336.40691 865.687979 M 340.005267 855.108996 L 349.055679 861.543635 L 331.172937 861.434573 L 340.005267 855.108996 M 340.005267 855.108996 L 349.055679 861.543635 L 331.172937 861.434573 L 340.005267 855.108996 M 340.005267 855.108996 L 349.055679 861.543635 L 331.172937 861.434573 L 340.005267 855.108996 M 340.005267 855.108996 L 349.055679 861.543635 L 331.172937 861.434573 L 340.005267 855.108996 M 340.005267 855.108996 L 349.055679 861.543635 L 331.172937 861.434573 L 340.005267 855.108996 " transform="matrix(0.0358236,0,0,0.0358169,-8.148978,-24.142969)"/>
<path style=" stroke:none;fill-rule:nonzero;fill:rgb(100%,100%,100%);fill-opacity:1;" d="M 5.332031 6.332031 C 5.425781 6.328125 5.449219 6.707031 5.449219 6.894531 C 5.527344 6.917969 5.699219 7.027344 5.777344 7.125 L 4.894531 7.125 C 4.96875 7.027344 5.144531 6.917969 5.222656 6.894531 C 5.222656 6.707031 5.242188 6.328125 5.332031 6.332031 "/>
<path style="fill:none;stroke-width:1.164;stroke-linecap:butt;stroke-linejoin:miter;stroke:rgb(0%,0%,0%);stroke-opacity:1;stroke-miterlimit:4;" d="M 376.315957 850.85559 C 378.932943 850.746529 379.58719 861.325511 379.58719 866.560472 C 381.768012 867.214842 386.565821 870.268569 388.746643 872.995111 L 364.103352 872.995111 C 366.175133 870.268569 371.081983 867.214842 373.262805 866.560472 C 373.262805 861.325511 373.808011 850.746529 376.315957 850.85559 M 326.811292 900.369592 L 328.992114 900.369592 L 328.337868 901.569271 M 326.811292 900.369592 L 328.992114 900.369592 L 328.337868 901.569271 M 326.811292 900.369592 L 328.992114 900.369592 L 328.337868 901.569271 M 326.811292 900.369592 L 328.992114 900.369592 L 328.337868 901.569271 M 326.811292 900.369592 L 328.992114 900.369592 L 328.337868 901.569271 C 328.337868 901.569271 329.428279 902.878011 328.337868 904.513936 L 328.992114 905.604553 L 326.811292 905.604553 L 327.465539 904.513936 C 327.465539 904.513936 326.375128 902.659887 327.465539 901.569271 L 326.811292 900.369592 M 331.281978 900.369592 L 333.571841 900.369592 L 332.917594 901.569271 C 332.917594 901.569271 333.898964 902.878011 332.917594 904.513936 L 333.4628 905.604553 L 331.391019 905.604553 L 331.936224 904.513936 C 331.936224 904.513936 330.845813 902.659887 331.936224 901.569271 L 331.281978 900.369592 M 336.188828 900.369592 L 338.478691 900.369592 L 337.824444 901.569271 C 337.824444 901.569271 338.805814 902.878011 337.824444 904.513936 L 338.36965 905.604553 L 336.297869 905.604553 L 336.843074 904.513936 C 336.843074 904.513936 335.752663 902.659887 336.843074 901.569271 Z M 341.749924 900.369592 L 344.039788 900.369592 L 343.385541 901.569271 C 343.385541 901.569271 344.366911 902.878011 343.385541 904.513936 L 343.930747 905.604553 L 341.749924 905.604553 L 342.404171 904.513936 C 342.404171 904.513936 341.31376 902.659887 342.404171 901.569271 Z M 346.656774 900.369592 L 348.946638 900.369592 L 348.292391 901.569271 C 348.292391 901.569271 349.273761 902.878011 348.292391 904.513936 L 348.837597 905.604553 L 346.765815 905.604553 L 347.311021 904.513936 C 347.311021 904.513936 346.22061 902.768949 347.311021 901.569271 L 346.656774 900.369592 M 351.563624 900.369592 L 353.853488 900.369592 L 353.199241 901.569271 C 353.199241 901.569271 354.289652 902.878011 353.199241 904.513936 L 353.744447 905.604553 L 351.563624 905.604553 L 352.217871 904.513936 C 352.217871 904.513936 351.12746 902.768949 352.217871 901.569271 L 351.563624 900.369592 " transform="matrix(0.0358236,0,0,0.0358169,-8.148978,-24.142969)"/>
<path style=" stroke:none;fill-rule:nonzero;fill:rgb(97.647059%,85.098039%,5.882353%);fill-opacity:1;" d="M 4.054688 10.542969 C 4.464844 10.542969 4.964844 10.460938 5.199219 10.339844 L 5.710938 10.292969 L 5.722656 10.921875 C 5.285156 11.164062 4.28125 11.214844 4.058594 11.210938 C 3.835938 11.214844 2.816406 11.160156 2.378906 10.921875 L 2.382812 10.292969 L 2.902344 10.335938 C 3.136719 10.457031 3.652344 10.542969 4.058594 10.542969 L 4.054688 10.542969 "/>
<path style="fill:none;stroke-width:0.271;stroke-linecap:butt;stroke-linejoin:miter;stroke:rgb(0%,0%,0%);stroke-opacity:1;stroke-miterlimit:4;" d="M 340.659513 968.424079 C 352.10883 968.424079 366.066092 966.133784 372.608559 962.752872 L 386.892944 961.444132 L 387.220068 979.003062 C 375.007463 985.655824 346.983898 987.182688 340.768554 987.073626 C 334.553211 987.182688 306.093481 985.655824 293.880876 978.894 L 293.989918 961.444132 L 308.492385 962.64381 C 315.034852 966.024722 329.428279 968.424079 340.768554 968.424079 L 340.659513 968.424079 " transform="matrix(0.0358236,0,0,0.0358169,-8.148978,-24.142969)"/>
<path style=" stroke:none;fill-rule:nonzero;fill:rgb(97.647059%,85.098039%,5.882353%);fill-opacity:1;" d="M 1.054688 7.863281 L 1.507812 8.007812 L 1.371094 8.742188 L 0.941406 8.808594 C 0.941406 8.808594 0.867188 8.421875 1.054688 7.863281 "/>
<path style="fill:none;stroke-width:0.271;stroke-linecap:butt;stroke-linejoin:miter;stroke:rgb(0%,0%,0%);stroke-opacity:1;stroke-miterlimit:4;" d="M 256.91594 893.607768 L 269.564709 897.64305 L 265.74827 918.146646 L 253.753748 920.000694 C 253.753748 920.000694 251.681966 909.203588 256.91594 893.607768 Z M 256.91594 893.607768 " transform="matrix(0.0358236,0,0,0.0358169,-8.148978,-24.142969)"/>
<path style=" stroke:none;fill-rule:nonzero;fill:rgb(49.411765%,49.411765%,49.411765%);fill-opacity:1;" d="M 1.371094 8.734375 L 0.941406 8.808594 L 1.210938 8.421875 L 1.371094 8.734375 "/>
<path style="fill-rule:nonzero;fill:rgb(97.647059%,71.372549%,5.882353%);fill-opacity:1;stroke-width:0.271;stroke-linecap:butt;stroke-linejoin:miter;stroke:rgb(0%,0%,0%);stroke-opacity:1;stroke-miterlimit:4;" d="M 265.74827 917.928522 L 253.753748 920.000694 L 261.277584 909.203588 L 265.74827 917.928522 " transform="matrix(0.0358236,0,0,0.0358169,-8.148978,-24.142969)"/>
<path style=" stroke:none;fill-rule:nonzero;fill:rgb(97.647059%,85.098039%,5.882353%);fill-opacity:1;" d="M 0.78125 8.390625 L 1.21875 8.421875 C 1.230469 8.792969 1.273438 10.207031 2.960938 10.285156 L 2.910156 10.796875 C 0.855469 10.820312 0.699219 9.066406 0.78125 8.390625 "/>
<path style="fill:none;stroke-width:0.271;stroke-linecap:butt;stroke-linejoin:miter;stroke:rgb(0%,0%,0%);stroke-opacity:1;stroke-miterlimit:4;" d="M 249.283062 908.331095 L 261.495666 909.203588 C 261.82279 919.564447 263.022242 959.044775 310.128002 961.226008 L 308.710468 975.513088 C 251.354843 976.167458 246.993199 927.089703 249.283062 908.331095 Z M 294.098959 978.457753 L 308.492385 975.404026 M 294.098959 978.457753 L 308.492385 975.404026 M 294.098959 978.457753 L 308.492385 975.404026 M 294.098959 978.457753 L 308.492385 975.404026 M 294.098959 978.457753 L 308.492385 975.404026 " transform="matrix(0.0358236,0,0,0.0358169,-8.148978,-24.142969)"/>
<path style=" stroke:none;fill-rule:nonzero;fill:rgb(100%,100%,0%);fill-opacity:1;" d="M 7.023438 7.867188 L 6.570312 8.011719 L 6.714844 8.746094 L 7.144531 8.8125 C 7.144531 8.8125 7.214844 8.425781 7.023438 7.867188 "/>
<path style="fill-rule:nonzero;fill:rgb(97.647059%,85.098039%,5.882353%);fill-opacity:1;stroke-width:0.271;stroke-linecap:butt;stroke-linejoin:miter;stroke:rgb(0%,0%,0%);stroke-opacity:1;stroke-miterlimit:4;" d="M 423.530758 893.71683 L 410.881989 897.752112 L 414.91651 918.146646 L 426.911032 920.109756 C 426.911032 920.109756 428.873772 909.31265 423.530758 893.71683 Z M 423.530758 893.71683 " transform="matrix(0.0358236,0,0,0.0358169,-8.148978,-24.142969)"/>
<path style=" stroke:none;fill-rule:nonzero;fill:rgb(49.411765%,49.411765%,49.411765%);fill-opacity:1;" d="M 6.714844 8.738281 L 7.144531 8.8125 L 6.871094 8.425781 L 6.714844 8.738281 "/>
<path style="fill-rule:nonzero;fill:rgb(97.647059%,71.372549%,5.882353%);fill-opacity:1;stroke-width:0.271;stroke-linecap:butt;stroke-linejoin:miter;stroke:rgb(0%,0%,0%);stroke-opacity:1;stroke-miterlimit:4;" d="M 414.91651 918.037584 L 426.911032 920.109756 L 419.278154 909.31265 L 414.91651 918.037584 " transform="matrix(0.0358236,0,0,0.0358169,-8.148978,-24.142969)"/>
<path style=" stroke:none;fill-rule:nonzero;fill:rgb(97.647059%,85.098039%,5.882353%);fill-opacity:1;" d="M 7.300781 8.398438 L 6.863281 8.425781 C 6.855469 8.796875 6.824219 10.210938 5.132812 10.285156 L 5.191406 10.800781 C 7.246094 10.824219 7.386719 9.070312 7.300781 8.398438 "/>
<path style="fill:none;stroke-width:0.271;stroke-linecap:butt;stroke-linejoin:miter;stroke:rgb(0%,0%,0%);stroke-opacity:1;stroke-miterlimit:4;" d="M 431.272677 908.549218 L 419.060072 909.31265 C 418.84199 919.673509 417.969661 959.153836 370.75486 961.226008 L 372.390477 975.62215 C 429.746101 976.27652 433.671581 927.307827 431.272677 908.549218 Z M 387.001985 978.566815 L 372.608559 975.404026 " transform="matrix(0.0358236,0,0,0.0358169,-8.148978,-24.142969)"/>
<path style=" stroke:none;fill-rule:nonzero;fill:rgb(0.392157%,16.470588%,52.941176%);fill-opacity:1;" d="M 3.78125 10.851562 C 3.769531 10.859375 3.753906 10.859375 3.738281 10.859375 L 3.65625 10.855469 L 3.664062 10.753906 L 3.742188 10.757812 C 3.757812 10.757812 3.773438 10.761719 3.78125 10.765625 C 3.796875 10.777344 3.804688 10.792969 3.800781 10.8125 C 3.800781 10.832031 3.792969 10.84375 3.78125 10.851562 M 3.644531 11.011719 L 3.652344 10.886719 L 3.75 10.894531 C 3.78125 10.898438 3.800781 10.890625 3.816406 10.871094 C 3.835938 10.859375 3.84375 10.835938 3.84375 10.816406 C 3.84375 10.789062 3.839844 10.765625 3.824219 10.75 C 3.808594 10.734375 3.785156 10.726562 3.757812 10.726562 L 3.625 10.714844 L 3.605469 11.007812 L 3.644531 11.011719 M 3.941406 10.765625 L 4.039062 10.769531 M 3.941406 10.765625 L 4.039062 10.769531 M 3.941406 10.765625 L 4.039062 10.769531 M 3.941406 10.765625 L 4.039062 10.769531 M 3.941406 10.765625 L 4.039062 10.769531 C 4.054688 10.769531 4.066406 10.773438 4.074219 10.777344 C 4.089844 10.78125 4.097656 10.796875 4.097656 10.816406 C 4.097656 10.835938 4.089844 10.851562 4.082031 10.859375 C 4.070312 10.867188 4.054688 10.867188 4.035156 10.867188 L 3.941406 10.867188 L 3.941406 10.765625 M 3.941406 11.027344 L 3.941406 10.902344 L 4.035156 10.902344 C 4.050781 10.902344 4.0625 10.902344 4.070312 10.910156 C 4.085938 10.914062 4.089844 10.929688 4.09375 10.945312 L 4.09375 10.996094 C 4.09375 11.007812 4.09375 11.015625 4.097656 11.019531 C 4.097656 11.023438 4.097656 11.027344 4.101562 11.027344 L 4.148438 11.027344 L 4.148438 11.023438 C 4.144531 11.019531 4.140625 11.015625 4.136719 11.003906 C 4.136719 11 4.132812 10.992188 4.132812 10.980469 L 4.132812 10.941406 C 4.132812 10.921875 4.128906 10.910156 4.121094 10.90625 C 1.113281 10.910156 -1.332031 8.472656 -1.339844 5.460938 C -1.34375 2.449219 1.09375 0.00390625 4.105469 0 C 4.117188 -0.0078125 4.128906 -0.015625 4.136719 -0.0273438 C 4.144531 -0.0390625 4.148438 -0.0507812 4.148438 -0.0703125 C 4.148438 -0.105469 4.132812 -0.125 4.105469 -0.140625 C 4.089844 -0.144531 4.070312 -0.148438 4.046875 -0.148438 L 3.90625 -0.152344 L 3.90625 0.140625 L 3.945312 0.140625 M 4.257812 0.078125 C 4.242188 0.0585938 4.230469 0.03125 4.230469 0 C 4.226562 -0.0429688 4.234375 -0.0742188 4.253906 -0.09375 C 4.273438 -0.117188 4.296875 -0.128906 4.328125 -0.128906 C 4.359375 -0.132812 4.386719 -0.121094 4.40625 -0.101562 C 4.425781 -0.0820312 4.4375 -0.0546875 4.4375 -0.0195312 C 4.4375 0.0117188 4.433594 0.0429688 4.417969 0.0664062 C 4.402344 0.09375 4.378906 0.109375 4.34375 0.109375 C 4.304688 0.109375 4.277344 0.101562 4.257812 0.078125 M 4.210938 -0.105469 C 4.191406 -0.0742188 4.183594 -0.0429688 4.1875 0 C 4.1875 0.0429688 4.203125 0.078125 4.226562 0.105469 C 4.257812 0.132812 4.292969 0.144531 4.339844 0.144531 C 4.390625 0.140625 4.425781 0.121094 4.453125 0.0898438 C 4.472656 0.0585938 4.480469 0.0195312 4.480469 -0.0234375 C 4.476562 -0.0625 4.464844 -0.0976562 4.445312 -0.121094 C 4.417969 -0.152344 4.378906 -0.167969 4.324219 -0.164062 C 4.273438 -0.160156 4.234375 -0.144531 4.210938 -0.105469 M 5.585938 -0.527344 C 5.617188 -0.53125 5.640625 -0.53125 5.664062 -0.523438 C 5.695312 -0.511719 5.71875 -0.488281 5.730469 -0.449219 L 5.691406 -0.445312 C 5.683594 -0.464844 5.667969 -0.480469 5.652344 -0.488281 C 5.636719 -0.492188 5.617188 -0.496094 5.59375 -0.492188 C 5.726562 -0.503906 5.847656 -0.402344 5.859375 -0.265625 C 5.867188 -0.128906 5.769531 -0.0117188 5.632812 0 C 5.617188 0.0234375 5.613281 0.0546875 5.617188 0.09375 C 5.625 0.128906 5.636719 0.15625 5.65625 0.175781 C 5.675781 0.195312 5.703125 0.199219 5.738281 0.195312 C 5.765625 0.191406 5.785156 0.179688 5.800781 0.164062 C 5.816406 0.144531 5.820312 0.117188 5.816406 0.0859375 L 5.722656 0.0976562 L 5.71875 0.0664062 L 5.847656 0.046875 L 5.875 0.203125 L 5.847656 0.207031 L 5.832031 0.171875 C 5.820312 0.1875 5.808594 0.199219 5.800781 0.207031 C 5.785156 0.21875 5.761719 0.226562 5.734375 0.230469 C 5.699219 0.234375 5.667969 0.230469 5.636719 0.210938 C 5.605469 0.1875 5.585938 0.152344 5.578125 0.101562 C 5.570312 0.0546875 5.578125 0.0117188 5.597656 -0.0195312 C 5.621094 -0.0507812 5.652344 -0.0703125 5.691406 -0.0742188 M 5.988281 -0.0976562 L 6.082031 -0.132812 C 6.09375 -0.136719 6.105469 -0.136719 6.117188 -0.136719 C 6.132812 -0.136719 6.144531 -0.125 6.152344 -0.105469 C 6.160156 -0.0859375 6.160156 -0.0703125 6.152344 -0.0625 C 6.144531 -0.0507812 6.132812 -0.0429688 6.113281 -0.0351562 L 6.023438 -0.00390625 L 5.988281 -0.0976562 M 6.082031 0.144531 L 6.035156 0.0273438 L 6.125 -0.00390625 C 6.140625 -0.0078125 6.152344 -0.0117188 6.160156 -0.0117188 C 6.175781 -0.0078125 6.1875 0 6.195312 0.0195312 L 6.214844 0.0625 C 6.21875 0.0742188 6.222656 0.0820312 6.226562 0.0820312 C 6.226562 0.0859375 6.230469 0.0898438 6.230469 0.09375 L 6.277344 0.0742188 L 6.277344 0.0703125 C 6.269531 0.0703125 6.261719 0.0664062 6.257812 0.0585938 C 6.253906 0.0507812 6.25 0.0429688 6.246094 0.0351562 L 6.230469 0 C 6.222656 -0.015625 6.214844 -0.0273438 6.207031 -0.03125 C 6.207031 -0.0234375 6.203125 -0.0117188 6.199219 0 C 6.207031 -0.0117188 6.214844 -0.0234375 6.21875 -0.0351562 C 6.222656 -0.046875 6.21875 -0.0625 6.214844 -0.078125 C 6.203125 -0.109375 6.179688 -0.128906 6.148438 -0.128906 C 6.132812 -0.132812 6.113281 -0.128906 6.089844 -0.121094 L 5.960938 -0.0742188 L 6.066406 0.203125 L 6.105469 0.1875 M 6.449219 0.0429688 L 6.28125 -0.203125 L 6.464844 -0.320312 L 6.484375 -0.289062 L 6.335938 -0.195312 L 6.386719 -0.121094 L 6.523438 -0.207031 L 6.542969 -0.179688 L 6.40625 -0.0898438 L 6.460938 -0.0078125 L 6.613281 -0.105469 L 6.632812 -0.078125 L 6.449219 0.0429688 M 6.59375 -0.390625 L 6.640625 -0.441406 C 6.664062 -0.464844 6.6875 -0.476562 6.714844 -0.472656 C 6.738281 -0.472656 6.765625 -0.457031 6.792969 -0.433594 C 6.800781 -0.425781 6.808594 -0.421875 6.816406 -0.410156 C 6.828125 -0.394531 6.835938 -0.382812 6.839844 -0.367188 C 6.84375 -0.351562 6.84375 -0.335938 6.835938 -0.320312 C 6.832031 -0.3125 6.824219 -0.300781 6.816406 -0.292969 L 6.765625 -0.238281 L 6.59375 -0.390625 M 6.847656 -0.273438 C 6.882812 -0.3125 6.890625 -0.351562 6.871094 -0.398438 C 6.957031 -0.359375 7.003906 -0.265625 6.988281 -0.171875 C 6.972656 -0.078125 6.894531 -0.0078125 6.800781 0 C 6.769531 -0.0273438 6.738281 -0.0429688 6.703125 -0.0429688 C 6.664062 -0.046875 6.632812 -0.03125 6.605469 -0.00390625 L 6.523438 0.0859375 L 6.75 0.28125 L 6.832031 0.195312 M 7.007812 -0.0351562 L 6.746094 -0.1875 L 6.769531 -0.21875 L 7.027344 -0.0703125 L 7.007812 -0.0351562 M 7.109375 -0.210938 L 6.828125 -0.324219 L 6.910156 -0.519531 L 6.945312 -0.507812 L 6.878906 -0.34375 L 6.960938 -0.3125 L 7.023438 -0.460938 L 7.058594 -0.449219 L 6.996094 -0.300781 L 7.089844 -0.261719 L 7.15625 -0.425781 L 7.191406 -0.414062 L 7.109375 -0.210938 M 7.238281 -0.554688 L 6.941406 -0.621094 L 6.953125 -0.667969 L 7.222656 -0.757812 L 6.984375 -0.8125 L 6.992188 -0.847656 L 7.289062 -0.785156 L 7.277344 -0.738281 L 7.007812 -0.644531 L 7.246094 -0.59375 L 7.238281 -0.554688 M 7.214844 -0.929688 L 7.21875 -0.96875 C 7.234375 -0.964844 7.25 -0.96875 7.257812 -0.976562 C 7.28125 -0.988281 7.292969 -1.007812 7.296875 -1.042969 C 7.296875 -1.054688 7.296875 -1.070312 7.292969 -1.082031 C 7.289062 -1.105469 7.273438 -1.121094 7.25 -1.121094 C 7.234375 -1.125 7.222656 -1.121094 7.214844 -1.113281 C 7.207031 -1.101562 7.199219 -1.085938 7.191406 -1.066406 L 7.179688 -1.027344 C 7.171875 -1 7.164062 -0.984375 7.152344 -0.972656 C 7.140625 -0.957031 7.121094 -0.949219 7.09375 -0.953125 C 7.070312 -0.953125 7.046875 -0.964844 7.03125 -0.984375 C 7.015625 -1.003906 7.007812 -1.03125 7.011719 -1.0625 C 7.015625 -1.09375 7.027344 -1.121094 7.042969 -1.140625 C 7.058594 -1.160156 7.085938 -1.167969 7.117188 -1.164062 L 7.117188 -1.128906 C 7.097656 -1.128906 7.085938 -1.125 7.078125 -1.117188 C 7.058594 -1.109375 7.050781 -1.089844 7.046875 -1.058594 C 7.046875 -1.035156 7.046875 -1.019531 7.058594 -1.007812 C 7.066406 -0.996094 7.078125 -0.992188 7.09375 -0.988281 C 7.105469 -0.988281 7.117188 -0.992188 7.125 -1.003906 C 7.132812 -1.011719 7.136719 -1.027344 7.148438 -1.054688 L 7.160156 -1.09375 C 7.167969 -1.113281 7.175781 -1.128906 7.183594 -1.140625 C 7.199219 -1.15625 7.222656 -1.164062 7.25 -1.160156 C 7.28125 -1.15625 7.304688 -1.144531 7.316406 -1.121094 C 7.328125 -1.09375 7.332031 -1.066406 7.332031 -1.035156 C 7.328125 -1 7.316406 -0.972656 7.292969 -0.953125 C 7.273438 -0.933594 7.246094 -0.925781 7.214844 -0.929688 M 0.980469 8.976562 L 0.988281 9.011719 C 0.972656 9.015625 0.960938 9.023438 0.949219 9.03125 C 0.933594 9.046875 0.925781 9.070312 0.933594 9.105469 C 0.933594 9.117188 0.941406 9.132812 0.945312 9.144531 C 0.960938 9.164062 0.976562 9.175781 1 9.171875 C 1.015625 9.167969 1.023438 9.160156 1.03125 9.148438 C 1.035156 9.140625 1.039062 9.121094 1.039062 9.101562 L 1.042969 9.058594 C 1.042969 9.035156 1.046875 9.011719 1.050781 9.003906 C 1.058594 8.980469 1.078125 8.96875 1.101562 8.964844 C -1.375 6.792969 -1.621094 3.027344 0.550781 0.550781 C 2.722656 -1.925781 6.488281 -2.171875 8.964844 0 C 8.984375 0.015625 9 0.0390625 9.003906 0.0703125 C 9.011719 0.101562 9.007812 0.128906 8.996094 0.152344 C 8.984375 0.175781 8.964844 0.191406 8.929688 0.195312 L 8.921875 0.160156 C 8.9375 0.152344 8.949219 0.148438 8.957031 0.140625 C 8.972656 0.125 8.976562 0.105469 8.96875 0.0742188 C 8.964844 0.0507812 8.957031 0.0351562 8.945312 0.03125 C 8.933594 0.0195312 8.921875 0.015625 8.910156 0.0195312 C 8.894531 0.0195312 8.882812 0.03125 8.878906 0.0429688 C 8.878906 0.0507812 8.875 0.0703125 8.871094 0.0976562 L 8.871094 0.140625 C 8.871094 0.160156 8.867188 0.175781 8.859375 0.1875 C 8.847656 0.207031 8.832031 0.222656 8.804688 0.226562 C 8.773438 0.230469 8.746094 0.222656 8.726562 0.203125 C 8.707031 0.179688 8.695312 0.15625 8.691406 0.125 C 8.683594 0.0898438 8.691406 0.0585938 8.703125 0.0351562 C 8.71875 0.0117188 8.742188 0 8.777344 -0.0078125 M 8.757812 0.378906 L 9.046875 0.292969 L 9.113281 0.496094 L 9.078125 0.507812 L 9.023438 0.339844 L 8.933594 0.367188 L 8.984375 0.519531 L 8.953125 0.53125 L 8.902344 0.378906 L 8.804688 0.40625 L 8.859375 0.578125 L 8.824219 0.585938 L 8.757812 0.378906 M 8.882812 0.730469 L 9.148438 0.589844 L 9.179688 0.640625 L 8.996094 0.832031 L 9.261719 0.789062 L 9.289062 0.835938 L 9.023438 0.976562 L 9.007812 0.945312 L 9.164062 0.863281 C 9.167969 0.859375 9.175781 0.855469 9.191406 0.847656 C 9.203125 0.84375 9.214844 0.835938 9.230469 0.828125 L 8.964844 0.871094 L 8.945312 0.835938 L 9.125 0.644531 L 9.117188 0.648438 C 9.113281 0.652344 9.101562 0.65625 9.089844 0.664062 C 8.90625 0.660156 8.757812 0.507812 8.765625 0.324219 C 8.769531 0.140625 8.921875 -0.00390625 9.105469 0 L 8.949219 0.0820312 L 8.929688 0.0507812 M 1.585938 10.105469 C 1.574219 10.101562 1.558594 10.09375 1.546875 10.082031 L 1.492188 10.023438 L 1.566406 9.953125 L 1.621094 10.011719 C 1.632812 10.023438 1.640625 10.03125 1.644531 10.042969 C 1.648438 10.058594 1.644531 10.074219 1.628906 10.089844 C 1.613281 10.101562 1.597656 10.109375 1.585938 10.105469 M 1.371094 10.132812 L 1.464844 10.046875 L 1.53125 10.113281 C 1.550781 10.136719 1.574219 10.144531 1.597656 10.144531 C -1.203125 7.785156 -1.5625 3.597656 0.796875 0.796875 C 3.160156 -2.003906 7.34375 -2.359375 10.144531 0 C 10.164062 -0.015625 10.171875 -0.0390625 10.171875 -0.0585938 C 10.171875 -0.0820312 10.164062 -0.101562 10.144531 -0.121094 L 10.050781 -0.214844 L 9.832031 -0.015625 L 9.859375 0.015625 M 10.125 0.25 L 10.285156 0 L 10.472656 0.113281 L 10.453125 0.144531 L 10.296875 0.0507812 L 10.25 0.125 L 10.390625 0.214844 L 10.375 0.242188 L 10.230469 0.15625 L 10.175781 0.238281 L 10.332031 0.335938 L 10.316406 0.363281 L 10.125 0.25 M 10.59375 0.199219 L 10.691406 0.230469 C 10.703125 0.234375 10.714844 0.242188 10.722656 0.246094 C 10.734375 0.257812 10.738281 0.273438 10.730469 0.292969 C 10.722656 0.3125 10.714844 0.324219 10.699219 0.328125 C 10.6875 0.332031 10.671875 0.332031 10.652344 0.324219 L 10.5625 0.296875 L 10.59375 0.199219 M 10.511719 0.445312 L 10.554688 0.328125 L 10.640625 0.355469 C 10.65625 0.359375 10.667969 0.367188 10.675781 0.371094 C 10.6875 0.382812 10.6875 0.394531 10.683594 0.414062 L 10.671875 0.460938 C 10.667969 0.472656 10.664062 0.480469 10.664062 0.484375 C 10.664062 0.488281 10.664062 0.492188 10.664062 0.496094 L 10.710938 0.507812 L 10.714844 0.503906 C 10.710938 0.5 10.707031 0.492188 10.707031 0.484375 C 10.707031 0.476562 10.710938 0.46875 10.710938 0.457031 L 10.722656 0.421875 C 10.730469 0.402344 10.730469 0.390625 10.726562 0.382812 C 10.621094 0.390625 10.527344 0.308594 10.523438 0.203125 C 10.515625 0.0976562 10.59375 0.0078125 10.699219 0 C 10.714844 -0.00390625 10.726562 -0.0078125 10.738281 -0.015625 C 10.742188 2.953125 8.339844 5.367188 5.371094 5.371094 C 2.398438 5.375 -0.0117188 2.96875 -0.015625 0 C -0.00390625 -0.03125 -0.0117188 -0.0585938 -0.0351562 -0.078125 C -0.046875 -0.0898438 -0.0625 -0.0976562 -0.0859375 -0.105469 L -0.21875 -0.148438 L -0.3125 0.132812 L -0.273438 0.144531 M 0.132812 -4.914062 "/>
<path style=" stroke:none;fill-rule:nonzero;fill:rgb(73.72549%,44.313725%,37.254902%);fill-opacity:1;" d="M 2.429688 5.503906 C 2.464844 5.421875 2.785156 5.195312 3.832031 5.292969 C 3.832031 5.292969 4.007812 5.402344 4.113281 5.390625 C 4.171875 5.382812 4.078125 5.390625 4 5.328125 C 3.921875 5.265625 3.90625 5.132812 4.085938 5.136719 C 4.265625 5.140625 4.9375 5.179688 4.949219 5.238281 C 4.960938 5.300781 4.59375 5.324219 4.457031 5.320312 C 4.320312 5.316406 4.335938 5.386719 4.472656 5.382812 C 4.898438 5.367188 5.363281 5.214844 5.855469 5.5625 C 5.914062 5.605469 5.707031 5.613281 5.546875 5.546875 C 5.546875 5.546875 5.113281 5.566406 4.925781 5.535156 C 4.925781 5.535156 4.78125 5.652344 4.59375 5.640625 C 4.621094 5.703125 4.527344 5.929688 3.933594 5.757812 C 3.835938 5.789062 3.484375 5.847656 3.519531 5.742188 C 3.429688 5.742188 3.265625 5.773438 3.238281 5.71875 C 3.214844 5.667969 3.527344 5.589844 3.582031 5.53125 C 3.582031 5.53125 2.921875 5.539062 2.796875 5.492188 C 2.796875 5.492188 2.40625 5.582031 2.429688 5.503906 "/>
<path style=" stroke:none;fill-rule:nonzero;fill:rgb(0%,53.333333%,18.823529%);fill-opacity:1;" d="M 2.640625 6.429688 C 2.65625 6.410156 2.660156 6.375 2.691406 6.378906 C 2.757812 6.394531 2.800781 6.515625 2.882812 6.4375 C 2.910156 6.429688 2.921875 6.46875 2.945312 6.472656 C 2.960938 6.539062 3.015625 6.460938 3.054688 6.464844 C 3.140625 6.425781 3.246094 6.417969 3.34375 6.4375 C 3.347656 6.5 3.296875 6.574219 3.234375 6.609375 C 3.234375 6.675781 3.292969 6.71875 3.292969 6.785156 C 3.28125 6.808594 3.292969 6.847656 3.253906 6.855469 C 3.207031 6.847656 3.160156 6.84375 3.121094 6.816406 C 3.117188 6.8125 3.113281 6.800781 3.101562 6.804688 C 3.097656 6.828125 3.132812 6.847656 3.144531 6.871094 C 3.121094 6.910156 3.082031 6.875 3.050781 6.875 C 3.039062 6.898438 3.046875 6.929688 3.023438 6.941406 C 2.984375 6.941406 2.972656 6.894531 2.949219 6.875 C 2.921875 6.902344 2.96875 6.917969 2.972656 6.941406 C 2.957031 7.027344 2.960938 7.113281 2.875 7.167969 L 2.816406 7.195312 C 2.800781 7.152344 2.808594 7.085938 2.800781 7.042969 C 2.765625 7.097656 2.738281 7.148438 2.6875 7.191406 C 2.628906 7.175781 2.597656 7.105469 2.582031 7.046875 C 2.558594 6.980469 2.574219 6.902344 2.625 6.855469 C 2.609375 6.820312 2.546875 6.828125 2.539062 6.777344 C 2.445312 6.71875 2.394531 6.882812 2.335938 6.796875 C 2.316406 6.71875 2.339844 6.617188 2.398438 6.558594 C 2.382812 6.523438 2.34375 6.535156 2.316406 6.515625 C 2.257812 6.464844 2.175781 6.414062 2.179688 6.324219 C 2.335938 6.265625 2.527344 6.308594 2.640625 6.429688 "/>
<path style=" stroke:none;fill-rule:nonzero;fill:rgb(97.647059%,85.098039%,5.882353%);fill-opacity:1;" d="M 2.722656 6.421875 C 2.71875 6.492188 2.773438 6.441406 2.8125 6.484375 C 2.78125 6.472656 2.757812 6.535156 2.730469 6.5 L 2.710938 6.519531 C 2.722656 6.542969 2.742188 6.546875 2.71875 6.574219 C 2.6875 6.585938 2.679688 6.542969 2.667969 6.527344 C 2.664062 6.519531 2.671875 6.507812 2.660156 6.503906 C 2.640625 6.519531 2.621094 6.523438 2.59375 6.523438 C 2.589844 6.507812 2.574219 6.488281 2.589844 6.480469 C 2.613281 6.445312 2.652344 6.492188 2.671875 6.46875 C 2.675781 6.445312 2.65625 6.421875 2.679688 6.40625 C 2.695312 6.410156 2.71875 6.402344 2.722656 6.421875 M 2.917969 6.480469 C 2.921875 6.496094 2.914062 6.515625 2.929688 6.523438 C 2.953125 6.511719 2.980469 6.519531 2.992188 6.542969 C 2.992188 6.558594 2.996094 6.574219 2.980469 6.578125 L 2.945312 6.574219 C 2.945312 6.566406 2.933594 6.5625 2.929688 6.554688 C 2.914062 6.546875 2.902344 6.5625 2.890625 6.570312 C 2.902344 6.582031 2.921875 6.589844 2.917969 6.609375 C 2.894531 6.632812 2.882812 6.589844 2.859375 6.601562 C 2.84375 6.59375 2.867188 6.5625 2.839844 6.550781 C 2.808594 6.550781 2.832031 6.601562 2.792969 6.582031 C 2.777344 6.566406 2.765625 6.542969 2.777344 6.527344 C 2.796875 6.515625 2.824219 6.519531 2.835938 6.53125 C 2.859375 6.507812 2.863281 6.402344 2.917969 6.480469 M 2.675781 6.585938 C 2.691406 6.609375 2.671875 6.640625 2.691406 6.664062 C 2.726562 6.605469 2.753906 6.675781 2.792969 6.671875 C 2.804688 6.6875 2.796875 6.707031 2.800781 6.722656 C 2.753906 6.734375 2.695312 6.75 2.65625 6.710938 L 2.644531 6.726562 C 2.667969 6.746094 2.691406 6.773438 2.671875 6.8125 C 2.636719 6.820312 2.582031 6.820312 2.566406 6.785156 C 2.554688 6.753906 2.585938 6.734375 2.554688 6.710938 C 2.53125 6.738281 2.53125 6.777344 2.484375 6.75 C 2.453125 6.734375 2.445312 6.699219 2.457031 6.671875 C 2.488281 6.621094 2.546875 6.671875 2.578125 6.648438 C 2.582031 6.605469 2.566406 6.570312 2.605469 6.546875 C 2.640625 6.539062 2.65625 6.5625 2.675781 6.585938 "/>
<path style=" stroke:none;fill-rule:nonzero;fill:rgb(100%,100%,100%);fill-opacity:1;" d="M 2.808594 6.609375 C 2.792969 6.683594 2.738281 6.609375 2.714844 6.605469 C 2.746094 6.542969 2.769531 6.625 2.808594 6.609375 M 2.980469 6.691406 C 2.941406 6.699219 2.945312 6.652344 2.929688 6.632812 L 2.941406 6.621094 C 2.957031 6.636719 2.96875 6.667969 2.980469 6.691406 "/>
<path style=" stroke:none;fill-rule:nonzero;fill:rgb(97.647059%,85.098039%,5.882353%);fill-opacity:1;" d="M 2.925781 6.675781 C 2.9375 6.699219 2.902344 6.722656 2.933594 6.738281 C 2.941406 6.730469 2.953125 6.71875 2.960938 6.714844 C 2.984375 6.722656 3.015625 6.726562 3.035156 6.753906 C 3.054688 6.804688 3 6.804688 2.96875 6.820312 L 2.9375 6.820312 C 2.945312 6.804688 2.925781 6.796875 2.921875 6.789062 C 2.90625 6.785156 2.894531 6.789062 2.886719 6.800781 C 2.894531 6.832031 2.933594 6.859375 2.890625 6.890625 C 2.855469 6.886719 2.800781 6.902344 2.804688 6.851562 C 2.789062 6.824219 2.839844 6.78125 2.785156 6.777344 C 2.769531 6.816406 2.75 6.851562 2.703125 6.816406 L 2.710938 6.761719 C 2.753906 6.765625 2.804688 6.773438 2.824219 6.722656 C 2.839844 6.6875 2.804688 6.652344 2.835938 6.625 C 2.878906 6.617188 2.90625 6.644531 2.925781 6.675781 "/>
<path style=" stroke:none;fill-rule:nonzero;fill:rgb(0%,0%,0%);fill-opacity:1;" d="M 2.894531 6.757812 C 2.90625 6.785156 2.875 6.785156 2.863281 6.796875 C 2.84375 6.800781 2.828125 6.792969 2.816406 6.78125 C 2.808594 6.746094 2.832031 6.742188 2.851562 6.730469 C 2.871094 6.722656 2.882812 6.746094 2.894531 6.757812 "/>
<path style=" stroke:none;fill-rule:nonzero;fill:rgb(100%,100%,100%);fill-opacity:1;" d="M 2.867188 6.773438 C 2.863281 6.78125 2.855469 6.777344 2.851562 6.78125 L 2.84375 6.746094 C 2.859375 6.75 2.875 6.753906 2.867188 6.773438 "/>
</g>
</svg>
