<svg xmlns="http://www.w3.org/2000/svg" id="flag-icons-sx" viewBox="0 0 24 18" width="24" height="16"><defs><clipPath id="sx-a"><path fill-opacity=".7" d="M0 0h25.601v19.2H0z"/></clipPath></defs><g clip-path="url(#sx-a)" transform="scale(.9375)"><path fill="#ed2939" fill-rule="evenodd" d="M0 0h28.8v9.6H12.799z"/><path fill="#002395" fill-rule="evenodd" d="M0 19.2h28.8V9.6H12.799z"/><path fill="#fff" fill-rule="evenodd" d="m0 0 12.799 9.6L0 19.2z"/><path fill="#ff0" d="m6.461 7.245 0.004 -0.15s-0.079 -0.128 0.015 -0.263c0 0 -0.199 -0.105 -0.15 -0.27 0 0 -0.18 -0.045 -0.169 -0.24 0 0 -0.188 -0.011 -0.21 -0.176 0 0 -0.191 0.03 -0.278 -0.128 0 0 -0.188 0.037 -0.24 -0.094 0 0 -0.184 0.06 -0.289 -0.094 0 0 -0.195 0.079 -0.274 -0.068 -0.079 0.146 -0.274 0.068 -0.274 0.068 -0.105 0.154 -0.289 0.09 -0.289 0.09 -0.052 0.131 -0.236 0.094 -0.236 0.094 -0.086 0.161 -0.278 0.128 -0.278 0.128 -0.019 0.165 -0.21 0.18 -0.21 0.18a0.225 0.225 0 0 1 -0.165 0.24c0.049 0.161 -0.15 0.266 -0.15 0.266 0.098 0.139 0.019 0.263 0.019 0.263l-0.004 0.139z"/><path fill="none" stroke="#000" stroke-width="0.01125" d="M14.145 31.616v-0.131s-0.068 -0.112 0.015 -0.225c0 0 -0.172 -0.094 -0.131 -0.236 0 0 -0.158 -0.037 -0.146 -0.21 0 0 -0.169 -0.011 -0.188 -0.154 0 0 -0.165 0.026 -0.236 -0.112 0 0 -0.165 0.03 -0.21 -0.083 0 0 -0.161 0.056 -0.255 -0.079 0 0 -0.169 0.068 -0.236 -0.06 -0.071 0.128 -0.24 0.06 -0.24 0.06 -0.09 0.131 -0.251 0.075 -0.251 0.075 -0.045 0.116 -0.206 0.086 -0.206 0.086 -0.075 0.139 -0.244 0.112 -0.244 0.112 -0.015 0.139 -0.184 0.15 -0.184 0.15a0.191 0.191 0 0 1 -0.139 0.21c0.037 0.142 -0.131 0.232 -0.131 0.232 0.083 0.12 0.011 0.232 0.011 0.232v0.12z" transform="matrix(1.1464 0 0 1.1461 -260 -773.1)"/><path fill="red" d="M6.386 7.057c-0.499 -0.049 -1.073 -0.169 -1.515 0.083 -0.3 -0.176 -0.713 -0.165 -1.065 -0.131 -0.191 0.037 -0.416 0.037 -0.619 0.068l-0.03 0.004c-0.364 0.026 -0.694 -0.083 -1.012 -0.225 0.105 0.57 0.214 1.151 0.27 1.748C2.535 9.487 1.999 10.226 2.212 11.1c0.131 0.42 0.593 0.664 1.012 0.713a8.063 8.063 0 0 1 1.208 0.169 1.2 1.2 0 0 1 0.206 0.071 0.739 0.739 0 0 1 0.247 0.176c0.225 -0.236 0.563 -0.304 0.889 -0.337 0.593 -0.071 1.324 -0.034 1.688 -0.57v-0.03c0.199 -0.3 0.172 -0.75 0.086 -1.087 -0.007 -0.116 -0.037 -0.221 -0.056 -0.334 -0.36 -0.956 -0.049 -2.033 0.105 -3a2.288 2.288 0 0 1 -0.615 0.206c-0.169 0.022 -0.356 0.015 -0.525 0.004z"/><path fill="#80cfe1" d="M7.132 9.806c0 0.06 0.034 0.112 0.045 0.169 0.071 0.42 0.135 0.975 -0.292 1.234 -0.48 0.3 -1.102 0.172 -1.654 0.334 -0.112 0.03 -0.263 0.131 -0.337 0.203 -0.052 -0.034 -0.101 -0.083 -0.165 -0.112 -0.454 -0.24 -1.046 -0.161 -1.556 -0.292 -0.259 -0.079 -0.525 -0.281 -0.593 -0.544 -0.165 -0.69 0.232 -1.279 0.188 -1.965 -0.03 -0.525 -0.12 -1.024 -0.24 -1.515 0.401 0.188 0.862 0.217 1.313 0.128A1.935 1.935 0 0 1 4.875 7.537c0.172 -0.075 0.375 -0.109 0.563 -0.128 0.349 0.037 0.727 0.098 1.091 0.098 0.244 -0.015 0.465 -0.083 0.675 -0.176 -0.124 0.81 -0.367 1.657 -0.071 2.475"/><path fill="#fff" d="M6.412 9.967v-0.765h0.09l-1.162 -0.75 -0.004 -0.394h0.112l-0.585 -0.412 -0.578 0.412h0.112v0.394l-1.159 0.75h0.094v0.761H6.412"/><path fill="none" stroke="#000" stroke-width="0.045" d="M14.1 33.994v-0.667h0.079l-1.012 -0.656 -0.004 -0.337h0.098l-0.51 -0.367 -0.506 0.364h0.098l0.004 0.341 -1.012 0.656h0.083v0.664z" transform="matrix(1.1464 0 0 1.1461 -260 -773.1)"/><path fill="#fff" d="M6.772 10.969v0.236H3.019v-0.24z"/><path fill="none" stroke="#000" stroke-width="0.045" d="M14.415 34.867v0.206H11.137v-0.21h3.278z" transform="matrix(1.1464 0 0 1.1461 -260 -773.1)"/><path fill="#fff" d="M3.266 10.954v-0.806h0.15l-0.007 0.814 0.007 -0.81 -0.217 -0.004v-0.176l3.353 0.007v0.169h-0.203v0.818l-0.004 -0.818h0.15l0.007 0.81"/><path fill="none" stroke="#000" stroke-width="0.045" d="M11.355 34.852v-0.705h0.131l-0.007 0.713 0.007 -0.705 -0.188 -0.007v-0.15l2.925 0.004v0.15h-0.18l0.004 0.713 -0.007 -0.713h0.135l0.004 0.705" transform="matrix(1.1464 0 0 1.1461 -260 -773.1)"/><path fill="none" stroke="#000" stroke-width="0.045" d="M11.985 34.68v-0.491H11.588v0.487l0.394 0.004" transform="matrix(1.1464 0 0 1.1461 -260 -773.1)"/><path fill="none" stroke="#000" stroke-width="0.045" d="M11.7 34.29v0.285h0.18v-0.285h-0.184m2.212 0.39 -0.004 -0.487h-0.39v0.487h0.394" transform="matrix(1.1464 0 0 1.1461 -260 -773.1)"/><path fill="none" stroke="#000" stroke-width="0.045" d="M13.62 34.294v0.285h0.18v-0.285h-0.18m0.285 -0.412v-0.487h-0.394v0.487z" transform="matrix(1.1464 0 0 1.1461 -260 -773.1)"/><path fill="none" stroke="#000" stroke-width="0.045" d="M13.616 33.495v0.285h0.18v-0.285h-0.18m-1.635 0.386v-0.491H11.588v0.487h0.394z" transform="matrix(1.1464 0 0 1.1461 -260 -773.1)"/><path fill="none" stroke="#000" stroke-width="0.045" d="M11.696 33.491v0.285h0.18v-0.285h-0.18m0.998 0.39v-0.491H12.3v0.487h0.394" transform="matrix(1.1464 0 0 1.1461 -260 -773.1)"/><path fill="none" stroke="#000" stroke-width="0.045" d="M12.405 33.491v0.285h0.18v-0.285h-0.18m0.836 0.39v-0.487l-0.394 -0.004v0.487l0.394 0.004" transform="matrix(1.1464 0 0 1.1461 -260 -773.1)"/><path fill="none" stroke="#000" stroke-width="0.045" d="M12.952 33.491v0.285h0.184v-0.285h-0.184" transform="matrix(1.1464 0 0 1.1461 -260 -773.1)"/><path fill="#fff" d="m5.539 9.668 0.007 1.298H4.237l-0.004 -1.298z"/><path fill="none" stroke="#000" stroke-width="0.045" d="m13.339 33.731 0.004 1.132h-1.136l-0.004 -1.132zm-1.144 0.322h1.147M12.338 34.864v-0.802m0.866 0.802v-0.799m0.551 -0.818 -0.637 -0.465h-0.724l-0.637 0.465h1.999M12.45 32.392v0.285h0.607v-0.285H12.45" transform="matrix(1.1464 0 0 1.1461 -260 -773.1)"/><path fill="none" stroke="#000" stroke-width="0.045" d="M12.615 32.464v0.142h0.278v-0.142h-0.278M12.75 32.063l0.337 0.24h-0.671l0.337 -0.24" transform="matrix(1.1464 0 0 1.1461 -260 -773.1)"/><path fill="#fff" d="M6.428 7.575c0.109 0 0.135 0.45 0.135 0.675 0.098 0.03 0.304 0.161 0.397 0.278h-1.057c0.09 -0.116 0.296 -0.247 0.39 -0.274 0 -0.225 0.022 -0.682 0.135 -0.675"/><path fill="none" stroke="#000" stroke-width="0.045" d="M14.111 31.905c0.098 0 0.12 0.394 0.12 0.593 0.083 0.022 0.266 0.139 0.345 0.24h-0.922c0.079 -0.101 0.263 -0.217 0.341 -0.24 0 -0.199 0.022 -0.593 0.116 -0.593m-1.856 1.856h0.083l-0.022 0.045s0.037 0.052 0 0.112l0.022 0.037h-0.083l0.022 -0.037s-0.037 -0.068 0 -0.112l-0.022 -0.045m0.169 0h0.083l-0.022 0.045s0.037 0.052 0 0.112l0.022 0.037h-0.083l0.022 -0.037s-0.037 -0.068 0 -0.112l-0.022 -0.045m0.188 0h0.079l-0.022 0.045s0.037 0.052 0 0.112l0.022 0.037h-0.079l0.019 -0.037s-0.037 -0.068 0 -0.112l-0.022 -0.045zm0.206 0h0.083l-0.026 0.049s0.041 0.049 0 0.109l0.022 0.037h-0.079l0.022 -0.037s-0.037 -0.068 0 -0.112zm0.184 0h0.083l-0.026 0.049s0.041 0.049 0 0.109l0.022 0.037h-0.075l0.019 -0.037s-0.037 -0.068 0 -0.112l-0.022 -0.041m0.184 0h0.083l-0.026 0.045s0.041 0.049 0 0.109l0.022 0.037h-0.075l0.019 -0.037s-0.037 -0.068 0 -0.112l-0.022 -0.041" transform="matrix(1.1464 0 0 1.1461 -260 -773.1)"/><path fill="#ff0" d="M4.894 12.63c0.487 0 1.087 -0.101 1.369 -0.244l0.619 -0.056 0.015 0.754c-0.525 0.289 -1.733 0.352 -1.999 0.349 -0.266 0 -1.489 -0.06 -2.017 -0.349l0.007 -0.757 0.619 0.056a3.675 3.675 0 0 0 1.387 0.247"/><path fill="none" stroke="#000" stroke-width="0.01125" d="M12.776 36.315c0.427 0 0.949 -0.086 1.196 -0.214l0.536 -0.045 0.011 0.656c-0.454 0.251 -1.511 0.307 -1.74 0.304 -0.232 0 -1.301 -0.052 -1.762 -0.307l0.007 -0.656 0.54 0.049c0.247 0.128 0.787 0.214 1.211 0.214" transform="matrix(1.1464 0 0 1.1461 -260 -773.1)"/><path fill="#ff0" d="m1.29 9.412 0.544 0.172 -0.165 0.881 -0.514 0.083s-0.086 -0.465 0.135 -1.136"/><path fill="none" stroke="#000" stroke-width="0.01125" d="m9.634 33.51 0.472 0.15 -0.142 0.769 -0.45 0.071s-0.075 -0.405 0.12 -0.99z" transform="matrix(1.1464 0 0 1.1461 -260 -773.1)"/><path fill="#7e7e7e" d="m1.669 10.459 -0.514 0.09 0.326 -0.465z"/><path fill="none" stroke="#000" stroke-width="0.01125" d="m9.964 34.421 -0.45 0.075 0.285 -0.401 0.165 0.326" transform="matrix(1.1464 0 0 1.1461 -260 -773.1)"/><path fill="#ff0" d="m0.964 10.05 0.525 0.037c0.011 0.443 0.068 2.137 2.092 2.231L3.517 12.938c-2.464 0.022 -2.651 -2.081 -2.55 -2.887"/><path fill="none" stroke="#000" stroke-width="0.01125" d="m9.349 34.065 0.457 0.03c0.011 0.39 0.056 1.867 1.826 1.95l-0.056 0.54c-2.152 0.022 -2.314 -1.815 -2.228 -2.52zm1.68 2.629 0.54 -0.116" transform="matrix(1.1464 0 0 1.1461 -260 -773.1)"/><path fill="#ff0" d="m8.453 9.42 -0.54 0.172 0.172 0.877 0.517 0.083s0.083 -0.461 -0.15 -1.132"/><path fill="none" stroke="#000" stroke-width="0.01125" d="m15.881 33.514 -0.472 0.15 0.15 0.769 0.45 0.075s0.075 -0.405 -0.128 -0.994z" transform="matrix(1.1464 0 0 1.1461 -260 -773.1)"/><path fill="#7e7e7e" d="m8.085 10.463 0.514 0.094 -0.33 -0.465 -0.188 0.371"/><path fill="none" stroke="#000" stroke-width="0.01125" d="m15.559 34.425 0.45 0.079 -0.289 -0.401 -0.161 0.322" transform="matrix(1.1464 0 0 1.1461 -260 -773.1)"/><path fill="#ff0" d="m8.786 10.054 -0.525 0.037c-0.007 0.443 -0.049 2.137 -2.074 2.231l0.075 0.615c2.464 0.03 2.632 -2.077 2.528 -2.884"/><path fill="none" stroke="#000" stroke-width="0.01125" d="m16.17 34.069 -0.457 0.03c-0.007 0.39 -0.037 1.871 -1.808 1.95l0.06 0.536c2.152 0.026 2.299 -1.811 2.205 -2.512zm-1.657 2.625 -0.54 -0.112" transform="matrix(1.1464 0 0 1.1461 -260 -773.1)"/><path fill="#009fc5" d="M4.567 13.001c-0.015 0.007 -0.037 0.011 -0.056 0.007l-0.098 -0.004 0.007 -0.124 0.098 0.007c0.019 0 0.037 0.004 0.045 0.011 0.019 0.007 0.026 0.026 0.026 0.052 0 0.022 -0.011 0.037 -0.026 0.049m-0.161 0.188 0.007 -0.146 0.112 0.007c0.037 0.004 0.068 -0.007 0.086 -0.026 0.019 -0.015 0.03 -0.037 0.03 -0.068a0.094 0.094 0 0 0 -0.022 -0.075 0.12 0.12 0 0 0 -0.075 -0.034l-0.165 -0.011 -0.022 0.352zm0.352 -0.289h0.12l0.041 0.007c0.019 0.011 0.026 0.026 0.026 0.052 0 0.022 -0.004 0.037 -0.019 0.049a0.098 0.098 0 0 1 -0.052 0.011h-0.116zm0 0.307v-0.15l0.112 0.004c0.019 0 0.037 0 0.045 0.007 0.015 0.007 0.026 0.022 0.026 0.045v0.086l0.007 0.011h0.06v-0.007a0.03 0.03 0 0 1 -0.015 -0.019 0.128 0.128 0 0 1 -0.004 -0.03v-0.049c0 -0.022 -0.007 -0.037 -0.015 -0.045a0.064 0.064 0 0 0 -0.03 -0.022c0.015 -0.007 0.03 -0.019 0.037 -0.03 0.007 -0.015 0.015 -0.03 0.015 -0.052 0 -0.037 -0.019 -0.068 -0.052 -0.083a0.176 0.176 0 0 0 -0.068 -0.015h-0.169v0.352zm0.375 -0.075a0.169 0.169 0 0 1 -0.037 -0.098c0 -0.049 0.007 -0.086 0.03 -0.112a0.116 0.116 0 0 1 0.09 -0.037 0.112 0.112 0 0 1 0.09 0.03c0.026 0.022 0.037 0.056 0.041 0.098a0.188 0.188 0 0 1 -0.022 0.105c-0.019 0.03 -0.049 0.049 -0.094 0.049s-0.075 -0.007 -0.101 -0.034m-0.056 -0.221a0.225 0.225 0 0 0 -0.03 0.124c0.004 0.052 0.019 0.098 0.052 0.128a0.172 0.172 0 0 0 0.135 0.049 0.165 0.165 0 0 0 0.131 -0.068 0.225 0.225 0 0 0 0.037 -0.135 0.188 0.188 0 0 0 -0.045 -0.116c-0.034 -0.037 -0.083 -0.056 -0.146 -0.052 -0.06 0 -0.105 0.026 -0.135 0.071m1.65 -0.506c0.037 -0.004 0.068 -0.004 0.094 0.004 0.037 0.015 0.064 0.041 0.083 0.086l-0.049 0.007a0.09 0.09 0 0 0 -0.045 -0.049 0.131 0.131 0 0 0 -0.075 -0.007 0.112 0.112 0 0 0 -0.075 0.049c-0.019 0.026 -0.026 0.064 -0.019 0.112a0.169 0.169 0 0 0 0.045 0.098c0.022 0.022 0.056 0.03 0.098 0.026a0.12 0.12 0 0 0 0.075 -0.041c0.022 -0.022 0.026 -0.052 0.019 -0.094l-0.112 0.019 -0.004 -0.037 0.158 -0.026 0.03 0.188h-0.034l-0.019 -0.037 -0.037 0.037c-0.019 0.019 -0.045 0.026 -0.075 0.034a0.161 0.161 0 0 1 -0.12 -0.026 0.188 0.188 0 0 1 -0.071 -0.128 0.191 0.191 0 0 1 0.026 -0.15 0.154 0.154 0 0 1 0.112 -0.064m0.352 -0.026 0.112 -0.041c0.015 -0.007 0.03 -0.007 0.041 -0.007 0.022 0 0.037 0.015 0.045 0.037q0.011 0.034 0 0.056c-0.011 0.011 -0.026 0.022 -0.049 0.03l-0.105 0.037zm0.112 0.289 -0.052 -0.139 0.105 -0.037a0.112 0.112 0 0 1 0.041 -0.011c0.019 0.004 0.034 0.015 0.045 0.037l0.022 0.052 0.011 0.026 0.007 0.011 0.056 -0.022v-0.007c-0.011 0 -0.019 -0.004 -0.022 -0.015 -0.007 -0.004 -0.011 -0.015 -0.015 -0.026l-0.019 -0.045c-0.007 -0.019 -0.019 -0.03 -0.026 -0.037a0.09 0.09 0 0 0 -0.037 -0.007l0.022 -0.045c0 -0.015 0 -0.034 -0.007 -0.052 -0.015 -0.037 -0.037 -0.06 -0.075 -0.06a0.169 0.169 0 0 0 -0.071 0.011l-0.158 0.056 0.128 0.33 0.045 -0.015m0.412 -0.176 -0.199 -0.292 0.217 -0.142 0.026 0.037 -0.18 0.112 0.06 0.09 0.169 -0.105 0.022 0.034 -0.169 0.105 0.068 0.101 0.188 -0.12 0.022 0.037zm0.176 -0.517 0.056 -0.064c0.03 -0.03 0.056 -0.041 0.086 -0.037 0.034 0 0.064 0.019 0.098 0.049a0.176 0.176 0 0 1 0.052 0.075c0.007 0.022 0.004 0.041 0 0.06a0.15 0.15 0 0 1 -0.026 0.037l-0.056 0.06zm0.304 0.135c0.041 -0.045 0.049 -0.09 0.026 -0.15a0.251 0.251 0 0 0 -0.064 -0.079 0.195 0.195 0 0 0 -0.116 -0.052c-0.045 -0.004 -0.083 0.011 -0.116 0.049l-0.098 0.105 0.27 0.236 0.098 -0.105m0.21 -0.274 -0.311 -0.188 0.026 -0.037 0.311 0.184zm0.124 -0.21 -0.337 -0.135 0.098 -0.236 0.041 0.015 -0.079 0.195 0.101 0.037 0.075 -0.176 0.037 0.015 -0.075 0.18 0.112 0.045 0.086 -0.195 0.037 0.015zm0.15 -0.412 -0.352 -0.075 0.015 -0.056 0.326 -0.112 -0.289 -0.064 0.011 -0.041 0.352 0.075 -0.011 0.052 -0.326 0.112 0.289 0.064zm-0.03 -0.45 0.004 -0.045c0.022 0 0.037 0 0.052 -0.007 0.026 -0.015 0.037 -0.041 0.045 -0.079a0.139 0.139 0 0 0 -0.004 -0.052c-0.007 -0.026 -0.022 -0.045 -0.049 -0.045q-0.034 -0.006 -0.045 0.011c-0.011 0.011 -0.019 0.03 -0.026 0.056l-0.019 0.045c-0.007 0.03 -0.019 0.052 -0.03 0.064 -0.015 0.022 -0.037 0.03 -0.068 0.026a0.105 0.105 0 0 1 -0.075 -0.037c-0.022 -0.022 -0.03 -0.056 -0.026 -0.098 0.004 -0.037 0.015 -0.068 0.037 -0.09 0.019 -0.022 0.049 -0.037 0.09 -0.03l-0.004 0.045c-0.019 0 -0.037 0 -0.045 0.011 -0.022 0.011 -0.034 0.037 -0.037 0.071 0 0.026 0 0.045 0.015 0.06 0.011 0.015 0.022 0.022 0.037 0.022 0.019 0 0.034 0 0.041 -0.015l0.026 -0.064 0.015 -0.049c0.007 -0.022 0.019 -0.037 0.03 -0.052 0.019 -0.019 0.045 -0.026 0.075 -0.026 0.041 0.004 0.071 0.022 0.083 0.052 0.015 0.03 0.022 0.06 0.019 0.101a0.146 0.146 0 0 1 -0.045 0.098c-0.026 0.022 -0.056 0.03 -0.098 0.026M1.2 10.751l0.011 0.045c-0.022 0.004 -0.037 0.011 -0.049 0.022 -0.019 0.019 -0.026 0.049 -0.019 0.09a0.15 0.15 0 0 0 0.015 0.045c0.015 0.026 0.037 0.037 0.064 0.034 0.019 -0.004 0.03 -0.011 0.037 -0.026l0.011 -0.06v-0.049c0 -0.03 0.007 -0.056 0.011 -0.068 0.011 -0.022 0.034 -0.037 0.064 -0.045 0.03 -0.004 0.06 0 0.083 0.022 0.026 0.015 0.041 0.045 0.049 0.083a0.15 0.15 0 0 1 -0.011 0.098c-0.015 0.03 -0.037 0.045 -0.079 0.052l-0.007 -0.041a0.112 0.112 0 0 0 0.037 -0.022c0.019 -0.019 0.022 -0.045 0.019 -0.079 -0.007 -0.03 -0.015 -0.049 -0.03 -0.056a0.056 0.056 0 0 0 -0.045 -0.011 0.037 0.037 0 0 0 -0.037 0.026l-0.004 0.068 -0.004 0.049a0.131 0.131 0 0 1 -0.015 0.06 0.083 0.083 0 0 1 -0.064 0.045c-0.037 0.007 -0.075 -0.004 -0.094 -0.03a0.188 0.188 0 0 1 -0.045 -0.09 0.142 0.142 0 0 1 0.019 -0.109 0.112 0.112 0 0 1 0.083 -0.049m-0.022 0.461 0.349 -0.105 0.079 0.244 -0.041 0.015 -0.068 -0.199 -0.105 0.03 0.064 0.188 -0.041 0.011 -0.06 -0.188 -0.12 0.037 0.068 0.203 -0.037 0.011zm0.154 0.424 0.319 -0.169 0.037 0.06 -0.221 0.229 0.319 -0.052 0.034 0.056 -0.319 0.169 -0.022 -0.037 0.188 -0.101 0.034 -0.015 0.049 -0.026 -0.319 0.056 -0.022 -0.041 0.217 -0.232 -0.011 0.007 -0.037 0.019a0.263 0.263 0 0 1 -0.034 0.019l-0.188 0.098zm0.593 0.469c-0.015 -0.004 -0.03 -0.015 -0.045 -0.03l-0.068 -0.068 0.09 -0.083 0.068 0.068a0.112 0.112 0 0 1 0.026 0.037c0.007 0.019 0 0.037 -0.019 0.056 -0.019 0.015 -0.037 0.022 -0.052 0.019m-0.255 0.03 0.112 -0.101 0.075 0.079c0.03 0.026 0.056 0.037 0.083 0.037a0.112 0.112 0 0 0 0.075 -0.03 0.112 0.112 0 0 0 0.03 -0.075c0 -0.022 -0.011 -0.049 -0.034 -0.071l-0.112 -0.112 -0.263 0.24zm0.315 0.281 0.191 -0.3 0.225 0.135 -0.022 0.037 -0.188 -0.112 -0.056 0.094 0.169 0.101 -0.019 0.037 -0.172 -0.105 -0.064 0.101 0.188 0.112 -0.022 0.037zm0.563 -0.06 0.116 0.037 0.037 0.019c0.015 0.015 0.019 0.034 0.007 0.056 -0.007 0.022 -0.015 0.037 -0.034 0.041l-0.056 -0.004 -0.109 -0.037zm-0.098 0.296 0.049 -0.142 0.105 0.034c0.019 0.004 0.037 0.011 0.041 0.019 0.011 0.011 0.015 0.03 0.011 0.052l-0.019 0.056 -0.004 0.026v0.011l0.056 0.019v-0.007l-0.007 -0.026 0.007 -0.026 0.015 -0.045c0.004 -0.022 0.007 -0.037 0 -0.045 0 -0.011 -0.011 -0.022 -0.022 -0.034 0.019 0 0.037 -0.007 0.049 -0.019s0.022 -0.026 0.026 -0.045c0.015 -0.037 0.007 -0.071 -0.022 -0.094a0.195 0.195 0 0 0 -0.06 -0.034l-0.161 -0.049 -0.112 0.334z"/><path fill="#bc715f" d="M2.944 6.585c0.037 -0.101 0.424 -0.375 1.68 -0.255 0 0 0.214 0.131 0.337 0.112 0.075 -0.007 -0.037 0.007 -0.135 -0.071 -0.094 -0.075 -0.112 -0.236 0.101 -0.229 0.217 0.004 1.024 0.049 1.039 0.124 0.015 0.071 -0.427 0.101 -0.589 0.098 -0.165 -0.004 -0.15 0.079 0.015 0.075 0.514 -0.022 1.073 -0.203 1.661 0.217 0.071 0.049 -0.176 0.056 -0.367 -0.022 0 0 -0.525 0.026 -0.75 -0.011 0 0 -0.169 0.142 -0.397 0.128 0.03 0.075 -0.083 0.345 -0.787 0.139 -0.12 0.037 -0.544 0.109 -0.499 -0.019 -0.112 0 -0.307 0.037 -0.337 -0.026s0.345 -0.158 0.412 -0.225c0 0 -0.795 0.007 -0.945 -0.049 0 0 -0.469 0.105 -0.439 0.015"/><path fill="#008737" d="M3.199 7.695c0.015 -0.022 0.022 -0.068 0.06 -0.064 0.075 0.019 0.131 0.165 0.225 0.071 0.037 -0.007 0.049 0.037 0.075 0.045 0.019 0.079 0.086 -0.019 0.131 -0.011 0.105 -0.045 0.229 -0.056 0.352 -0.037 0 0.083 -0.06 0.169 -0.135 0.214 0 0.075 0.075 0.128 0.071 0.206 -0.011 0.03 0 0.075 -0.045 0.086 -0.06 -0.011 -0.112 -0.015 -0.161 -0.049 -0.007 -0.004 -0.011 -0.015 -0.022 -0.011 -0.007 0.026 0.037 0.052 0.052 0.079 -0.03 0.049 -0.075 0.004 -0.116 0.004 -0.011 0.03 0 0.064 -0.03 0.083 -0.049 0 -0.06 -0.056 -0.09 -0.083 -0.034 0.034 0.022 0.052 0.03 0.079 -0.022 0.105 -0.019 0.206 -0.12 0.274l-0.071 0.034c-0.019 -0.052 -0.007 -0.131 -0.019 -0.188 -0.037 0.068 -0.075 0.128 -0.131 0.184 -0.075 -0.022 -0.112 -0.105 -0.128 -0.176a0.217 0.217 0 0 1 0.049 -0.232c-0.019 -0.037 -0.094 -0.03 -0.105 -0.09 -0.112 -0.075 -0.169 0.124 -0.24 0.022a0.322 0.322 0 0 1 0.075 -0.285c-0.019 -0.037 -0.071 -0.03 -0.101 -0.052 -0.068 -0.06 -0.169 -0.12 -0.161 -0.225a0.525 0.525 0 0 1 0.551 0.124"/><path fill="#ff0" d="M3.296 7.684c-0.004 0.086 0.056 0.022 0.105 0.075 -0.037 -0.015 -0.064 0.064 -0.101 0.019l-0.022 0.022c0.015 0.03 0.037 0.034 0.015 0.068 -0.037 0.015 -0.049 -0.037 -0.068 -0.056 0 -0.007 0.007 -0.022 -0.007 -0.03 -0.022 0.019 -0.045 0.026 -0.075 0.022 -0.007 -0.015 -0.026 -0.037 -0.007 -0.052 0.03 -0.037 0.075 0.015 0.098 -0.011 0.004 -0.026 -0.019 -0.056 0.011 -0.075 0.019 0.004 0.045 -0.007 0.052 0.019m0.232 0.071c0.004 0.015 -0.007 0.037 0.015 0.052 0.03 -0.015 0.06 -0.004 0.075 0.022 0 0.015 0.004 0.037 -0.015 0.045l-0.045 -0.011c0.004 -0.007 -0.011 -0.011 -0.015 -0.022 -0.019 -0.004 -0.034 0.011 -0.045 0.022 0.011 0.015 0.037 0.026 0.03 0.045 -0.026 0.026 -0.037 -0.022 -0.068 -0.007 -0.022 -0.007 0.004 -0.049 -0.026 -0.064 -0.037 0 -0.011 0.06 -0.06 0.037 -0.015 -0.019 -0.03 -0.045 -0.015 -0.064a0.06 0.06 0 0 1 0.071 0.007c0.03 -0.034 0.03 -0.154 0.101 -0.064m-0.292 0.124c0.019 0.03 -0.007 0.068 0.019 0.098 0.037 -0.075 0.075 0.015 0.12 0.007 0.015 0.019 0.004 0.041 0.007 0.06 -0.056 0.015 -0.124 0.034 -0.172 -0.011l-0.015 0.015c0.03 0.026 0.056 0.06 0.034 0.105 -0.041 0.007 -0.109 0.011 -0.128 -0.034 -0.011 -0.037 0.026 -0.06 -0.015 -0.09 -0.026 0.037 -0.026 0.083 -0.083 0.049a0.071 0.071 0 0 1 -0.03 -0.094c0.037 -0.06 0.105 0 0.142 -0.026 0.007 -0.052 -0.011 -0.098 0.037 -0.124 0.037 -0.007 0.056 0.022 0.083 0.045"/><path fill="#fff" d="M3.397 7.912c-0.019 0.086 -0.083 -0.004 -0.112 -0.007 0.037 -0.075 0.064 0.022 0.112 0.007m0.203 0.094c-0.045 0.011 -0.037 -0.045 -0.06 -0.068l0.019 -0.015c0.015 0.019 0.026 0.056 0.041 0.083"/><path fill="#ff0" d="M3.54 7.987c0.011 0.03 -0.03 0.056 0.007 0.075l0.03 -0.026c0.034 0.007 0.068 0.015 0.09 0.045 0.022 0.064 -0.041 0.064 -0.075 0.083h-0.037c0.007 -0.022 -0.019 -0.03 -0.022 -0.037a0.037 0.037 0 0 0 -0.041 0.011c0.007 0.037 0.056 0.075 0.007 0.109 -0.045 0 -0.112 0.015 -0.109 -0.045 -0.015 -0.037 0.045 -0.086 -0.019 -0.09 -0.022 0.049 -0.045 0.09 -0.101 0.049l0.007 -0.068c0.052 0 0.116 0.011 0.139 -0.049 0.015 -0.041 -0.026 -0.083 0.011 -0.112 0.056 -0.015 0.086 0.022 0.112 0.056"/><path d="M3.502 8.085c0.011 0.034 -0.022 0.037 -0.041 0.052 -0.022 0 -0.037 -0.007 -0.052 -0.022 -0.011 -0.037 0.019 -0.045 0.037 -0.06 0.026 -0.011 0.037 0.019 0.056 0.03"/><path fill="#fff" d="M3.469 8.107c-0.004 0.007 -0.015 0.004 -0.022 0.007l-0.007 -0.037c0.019 0 0.037 0.004 0.03 0.03"/></g></svg>