<?xml version="1.0" encoding="UTF-8"?>
<svg xmlns="http://www.w3.org/2000/svg" xmlns:xlink="http://www.w3.org/1999/xlink" width="24px" height="16px" viewBox="0 0 32 16" version="1.1">
<defs>
<clipPath id="clip1">
  <path d="M 0 0 L 18 0 L 18 10 L 0 10 Z M 0 0 "/>
</clipPath>
<clipPath id="clip2">
  <path d="M 0 0 L 0 4 L 17.332031 4 L 17.332031 8 L 16 8 Z M 16 0 L 8 0 L 8 9.332031 L 0 9.332031 L 0 8 Z M 16 0 "/>
</clipPath>
</defs>
<g id="surface1">
<path style=" stroke:none;fill-rule:nonzero;fill:rgb(0.392157%,12.941176%,41.176471%);fill-opacity:1;" d="M 0 0 L 16 0 C 17.882812 3.761719 16.886719 8.328125 13.609375 10.964844 C 10.335938 13.605469 5.664062 13.605469 2.390625 10.964844 C -0.886719 8.328125 -1.882812 3.761719 0 0 Z M 0 0 "/>
<path style="fill:none;stroke-width:480;stroke-linecap:butt;stroke-linejoin:miter;stroke:rgb(100%,100%,100%);stroke-opacity:1;stroke-miterlimit:4;" d="M 0 0 L 4800 2400 M 0 2400 L 4800 0 " transform="matrix(0.00333333,0,0,0.00333333,0,0)"/>
<g clip-path="url(#clip1)" clip-rule="nonzero">
<g clip-path="url(#clip2)" clip-rule="nonzero">
<path style="fill:none;stroke-width:4;stroke-linecap:butt;stroke-linejoin:miter;stroke:rgb(80.784314%,6.666667%,14.901961%);stroke-opacity:1;stroke-miterlimit:4;" d="M 0 0 L 60 30 M 0 30 L 60 0 " transform="matrix(0.266667,0,0,0.266667,0,0)"/>
</g>
</g>
<path style="fill:none;stroke-width:800;stroke-linecap:butt;stroke-linejoin:miter;stroke:rgb(100%,100%,100%);stroke-opacity:1;stroke-miterlimit:4;" d="M 2400 -399.609375 L 2400 2799.609375 M -399.609375 1200 L 5199.609375 1200 " transform="matrix(0.00333333,0,0,0.00333333,0,0)"/>
<path style="fill:none;stroke-width:480;stroke-linecap:butt;stroke-linejoin:miter;stroke:rgb(80.784314%,6.666667%,14.901961%);stroke-opacity:1;stroke-miterlimit:4;" d="M 2400 0 L 2400 2799.609375 M 0 1200 L 5199.609375 1200 " transform="matrix(0.00333333,0,0,0.00333333,0,0)"/>
<path style=" stroke:none;fill-rule:nonzero;fill:rgb(0.392157%,12.941176%,41.176471%);fill-opacity:1;" d="M 0 8 L 16 8 L 16 0 L 32 0 L 32 16 L 0 16 "/>
<path style="fill-rule:nonzero;fill:rgb(98.823529%,81.960784%,8.627451%);fill-opacity:1;stroke-width:64;stroke-linecap:butt;stroke-linejoin:miter;stroke:rgb(0%,0%,0%);stroke-opacity:1;stroke-miterlimit:4;" d="M 840.234375 -999.609375 L 840.234375 -280.078125 C 840.234375 200.390625 600 717.1875 0 997.265625 C -600 717.1875 -840.234375 200.390625 -840.234375 -280.078125 L -840.234375 -999.609375 Z M 840.234375 -999.609375 " transform="matrix(0.00333333,0,0,0.00333333,24,8)"/>
<path style="fill:none;stroke-width:56;stroke-linecap:butt;stroke-linejoin:miter;stroke:rgb(100%,100%,100%);stroke-opacity:1;stroke-miterlimit:4;" d="M 840.234375 -999.609375 L 840.234375 -280.078125 C 840.234375 200.390625 600 717.1875 0 997.265625 C -600 717.1875 -840.234375 200.390625 -840.234375 -280.078125 L -840.234375 -999.609375 Z M 840.234375 -999.609375 " transform="matrix(0.00333333,0,0,0.00333333,24,8)"/>
<path style="fill-rule:nonzero;fill:rgb(98.823529%,67.843137%,33.72549%);fill-opacity:1;stroke-width:2.2;stroke-linecap:round;stroke-linejoin:round;stroke:rgb(0%,0%,0%);stroke-opacity:1;stroke-miterlimit:4;" d="M -303.515625 -207.421875 C -324.609375 -169.921875 -362.109375 -161.71875 -391.40625 -173.4375 C -420.703125 -186.328125 -447.65625 -255.46875 -478.125 -294.140625 C -507.421875 -330.46875 -514.453125 -315.234375 -535.546875 -337.5 C -554.296875 -357.421875 -583.59375 -373.828125 -630.46875 -396.09375 C -657.421875 -407.8125 -684.375 -419.53125 -701.953125 -465.234375 C -694.921875 -483.984375 -676.171875 -500.390625 -660.9375 -506.25 C -645.703125 -510.9375 -633.984375 -533.203125 -631.640625 -551.953125 C -630.46875 -569.53125 -614.0625 -589.453125 -591.796875 -604.6875 C -602.34375 -603.515625 -623.4375 -607.03125 -632.8125 -614.0625 C -642.1875 -622.265625 -657.421875 -619.921875 -665.625 -612.890625 C -675 -607.03125 -685.546875 -604.6875 -701.953125 -607.03125 C -696.09375 -611.71875 -685.546875 -623.4375 -684.375 -632.8125 C -683.203125 -643.359375 -671.484375 -648.046875 -648.046875 -648.046875 C -625.78125 -648.046875 -610.546875 -673.828125 -592.96875 -673.828125 C -605.859375 -673.828125 -603.515625 -696.09375 -596.484375 -697.265625 C -628.125 -703.125 -623.4375 -728.90625 -610.546875 -728.90625 C -611.71875 -732.421875 -616.40625 -737.109375 -630.46875 -741.796875 C -644.53125 -746.484375 -637.5 -760.546875 -626.953125 -767.578125 C -637.5 -787.5 -628.125 -802.734375 -611.71875 -815.625 C -633.984375 -816.796875 -610.546875 -848.4375 -603.515625 -864.84375 C -597.65625 -881.25 -595.3125 -882.421875 -588.28125 -873.046875 C -580.078125 -863.671875 -562.5 -842.578125 -541.40625 -836.71875 C -521.484375 -830.859375 -508.59375 -820.3125 -505.078125 -802.734375 C -501.5625 -785.15625 -493.359375 -775.78125 -471.09375 -767.578125 C -447.65625 -760.546875 -417.1875 -741.796875 -420.703125 -698.4375 C -403.125 -698.4375 -390.234375 -692.578125 -378.515625 -684.375 " transform="matrix(0.00333333,0,0,0.00333333,24,8)"/>
<path style="fill-rule:nonzero;fill:rgb(100%,63.137255%,63.137255%);fill-opacity:1;stroke-width:2.2;stroke-linecap:round;stroke-linejoin:round;stroke:rgb(0%,0%,0%);stroke-opacity:1;stroke-miterlimit:4;" d="M -248.4375 -748.828125 C -248.4375 -725.390625 -236.71875 -710.15625 -222.65625 -698.4375 C -207.421875 -685.546875 -194.53125 -676.171875 -198.046875 -660.9375 C -201.5625 -644.53125 -194.53125 -635.15625 -181.640625 -624.609375 C -167.578125 -615.234375 -158.203125 -603.515625 -161.71875 -582.421875 C -166.40625 -562.5 -162.890625 -550.78125 -154.6875 -535.546875 C -146.484375 -521.484375 -132.421875 -508.59375 -139.453125 -485.15625 C -145.3125 -460.546875 -141.796875 -428.90625 -133.59375 -412.5 C -126.5625 -398.4375 -133.59375 -385.546875 -147.65625 -358.59375 C -161.71875 -332.8125 -169.921875 -323.4375 -199.21875 -312.890625 C -228.515625 -303.515625 -230.859375 -285.9375 -230.859375 -255.46875 C -230.859375 -222.65625 -251.953125 -207.421875 -290.625 -213.28125 C -330.46875 -180.46875 -356.25 -219.140625 -365.625 -268.359375 C -376.171875 -317.578125 -378.515625 -370.3125 -437.109375 -412.5 C -494.53125 -457.03125 -472.265625 -530.859375 -423.046875 -561.328125 C -373.828125 -589.453125 -379.6875 -676.171875 -385.546875 -728.90625 C -391.40625 -781.640625 -356.25 -812.109375 -329.296875 -841.40625 C -292.96875 -827.34375 -248.4375 -772.265625 -248.4375 -748.828125 Z M -248.4375 -748.828125 " transform="matrix(0.00333333,0,0,0.00333333,24,8)"/>
<path style="fill-rule:nonzero;fill:rgb(94.509804%,69.803922%,86.27451%);fill-opacity:1;stroke-width:2.2;stroke-linecap:round;stroke-linejoin:round;stroke:rgb(0%,0%,0%);stroke-opacity:1;stroke-miterlimit:4;" d="M -332.8125 -407.8125 C -344.53125 -433.59375 -356.25 -460.546875 -326.953125 -515.625 C -296.484375 -573.046875 -316.40625 -616.40625 -324.609375 -644.53125 C -333.984375 -672.65625 -336.328125 -698.4375 -324.609375 -711.328125 C -312.890625 -721.875 -308.203125 -728.90625 -307.03125 -747.65625 C -305.859375 -766.40625 -290.625 -760.546875 -289.453125 -751.171875 C -287.109375 -741.796875 -284.765625 -726.5625 -301.171875 -699.609375 C -317.578125 -671.484375 -255.46875 -603.515625 -283.59375 -530.859375 C -303.515625 -480.46875 -277.734375 -414.84375 -268.359375 -370.3125 C -257.8125 -324.609375 -251.953125 -216.796875 -317.578125 -201.5625 C -273.046875 -222.65625 -315.234375 -365.625 -332.8125 -407.8125 Z M -332.8125 -407.8125 " transform="matrix(0.00333333,0,0,0.00333333,24,8)"/>
<path style="fill:none;stroke-width:2.2;stroke-linecap:round;stroke-linejoin:round;stroke:rgb(0%,0%,0%);stroke-opacity:1;stroke-miterlimit:4;" d="M -630.46875 -416.015625 C -618.75 -413.671875 -612.890625 -419.53125 -610.546875 -426.5625 C -607.03125 -433.59375 -604.6875 -438.28125 -595.3125 -439.453125 C -584.765625 -439.453125 -569.53125 -441.796875 -564.84375 -450 C -562.5 -458.203125 -549.609375 -451.171875 -539.0625 -471.09375 C -528.515625 -492.1875 -521.484375 -515.625 -494.53125 -525 M -420.703125 -698.4375 C -431.25 -698.4375 -460.546875 -698.4375 -472.265625 -671.484375 M -555.46875 -822.65625 C -530.859375 -815.625 -541.40625 -800.390625 -528.515625 -791.015625 C -507.421875 -773.4375 -527.34375 -755.859375 -508.59375 -751.171875 C -491.015625 -746.484375 -492.1875 -742.96875 -495.703125 -723.046875 C -501.5625 -699.609375 -480.46875 -698.4375 -487.5 -684.375 M -591.796875 -604.6875 C -577.734375 -617.578125 -542.578125 -628.125 -535.546875 -642.1875 M -592.96875 -673.828125 C -571.875 -675 -543.75 -666.796875 -540.234375 -675 M -596.484375 -697.265625 C -585.9375 -697.265625 -564.84375 -704.296875 -561.328125 -718.359375 M -610.546875 -728.90625 C -598.828125 -728.90625 -583.59375 -730.078125 -569.53125 -740.625 M -626.953125 -767.578125 C -617.578125 -774.609375 -602.34375 -767.578125 -587.109375 -776.953125 M -611.71875 -815.625 C -604.6875 -815.625 -589.453125 -817.96875 -589.453125 -808.59375 " transform="matrix(0.00333333,0,0,0.00333333,24,8)"/>
<path style="fill-rule:nonzero;fill:rgb(61.960784%,32.941176%,3.921569%);fill-opacity:1;stroke-width:2.2;stroke-linecap:round;stroke-linejoin:round;stroke:rgb(0%,0%,0%);stroke-opacity:1;stroke-miterlimit:4;" d="M -55.46875 -232.8125 C -55.46875 -232.8125 -124.609375 -292.578125 -183.203125 -332.421875 C -240.625 -372.265625 -310.9375 -421.484375 -310.9375 -430.859375 C -300.390625 -439.0625 -240.625 -401.5625 -159.765625 -352.34375 C -77.734375 -301.953125 -32.03125 -252.734375 -32.03125 -252.734375 Z M -60.15625 -192.96875 C -60.15625 -192.96875 -128.125 -233.984375 -194.921875 -263.28125 C -265.234375 -292.578125 -369.53125 -292.578125 -381.25 -301.953125 C -381.25 -312.5 -259.375 -318.359375 -171.484375 -283.203125 C -82.421875 -242.1875 -36.71875 -212.890625 -36.71875 -212.890625 Z M -61.328125 -125 C -61.328125 -125 -135.15625 -158.984375 -206.640625 -175.390625 C -276.953125 -190.625 -376.5625 -184.765625 -389.453125 -194.140625 C -389.453125 -203.515625 -265.234375 -223.4375 -171.484375 -194.140625 C -77.734375 -164.84375 -37.890625 -144.921875 -37.890625 -144.921875 Z M -64.84375 -55.859375 C -64.84375 -55.859375 -121.09375 -94.53125 -194.921875 -101.5625 C -265.234375 -108.59375 -357.8125 -55.859375 -369.53125 -66.40625 C -369.53125 -75.78125 -288.671875 -135.546875 -187.890625 -125 C -89.453125 -114.453125 -42.578125 -75.78125 -42.578125 -75.78125 Z M -42.578125 -273.828125 C -42.578125 -273.828125 -112.890625 -339.453125 -112.890625 -382.8125 C -112.890625 -421.484375 -69.53125 -482.421875 -50.78125 -482.421875 C -61.328125 -462.5 -94.140625 -421.484375 -94.140625 -382.8125 C -94.140625 -342.96875 -19.140625 -293.75 -19.140625 -293.75 Z M -42.578125 -273.828125 " transform="matrix(0.00333333,0,0,0.00333333,25.333333,6.666667)"/>
<path style="fill-rule:nonzero;fill:rgb(61.960784%,32.941176%,3.921569%);fill-opacity:1;stroke-width:2.2;stroke-linecap:round;stroke-linejoin:round;stroke:rgb(0%,0%,0%);stroke-opacity:1;stroke-miterlimit:4;" d="M -42.578125 -273.828125 C -42.578125 -273.828125 -28.515625 -339.453125 -28.515625 -382.8125 C -28.515625 -442.578125 -69.53125 -496.484375 -66.015625 -510.546875 C -50.78125 -496.484375 -8.59375 -451.953125 -8.59375 -382.8125 C -8.59375 -323.046875 -19.140625 -293.75 -19.140625 -293.75 Z M -42.578125 -273.828125 " transform="matrix(0.00333333,0,0,0.00333333,25.333333,6.666667)"/>
<path style="fill-rule:nonzero;fill:rgb(61.960784%,32.941176%,3.921569%);fill-opacity:1;stroke-width:12;stroke-linecap:round;stroke-linejoin:round;stroke:rgb(98.823529%,81.960784%,8.627451%);stroke-opacity:1;stroke-miterlimit:4;" d="M -25 -294.921875 C -25 -313.671875 -32.03125 -331.25 -43.75 -344.140625 C -60.15625 -362.890625 -83.59375 -368.75 -109.375 -365.234375 C -138.671875 -360.546875 -163.28125 -341.796875 -178.515625 -313.671875 C -198.4375 -277.34375 -199.609375 -237.5 -200.78125 -197.65625 C -200.78125 -62.890625 -196.09375 -7.8125 -192.578125 124.609375 C -191.40625 164.453125 -184.375 244.140625 -201.953125 307.421875 C -208.984375 334.375 -217.1875 358.984375 -228.90625 384.765625 C -220.703125 351.953125 -217.1875 335.546875 -212.5 309.765625 C -201.953125 245.3125 -205.46875 184.375 -206.640625 123.4375 C -211.328125 1.5625 -218.359375 -61.71875 -221.875 -210.546875 C -223.046875 -256.25 -219.53125 -290.234375 -198.4375 -326.5625 C -176.171875 -362.890625 -137.5 -389.84375 -95.3125 -389.84375 C -76.5625 -389.84375 -62.5 -387.5 -47.265625 -378.125 C -16.796875 -361.71875 -2.734375 -328.90625 -2.734375 -296.09375 Z M -25 -294.921875 " transform="matrix(0.00333333,0,0,0.00333333,25.333333,6.666667)"/>
<path style=" stroke:none;fill-rule:nonzero;fill:rgb(61.960784%,32.941176%,3.921569%);fill-opacity:1;" d="M 25.25 5.683594 C 25.25 5.621094 25.226562 5.5625 25.1875 5.519531 C 25.132812 5.457031 25.054688 5.4375 24.96875 5.449219 C 24.871094 5.464844 24.789062 5.527344 24.738281 5.621094 C 24.671875 5.742188 24.667969 5.875 24.664062 6.007812 C 24.664062 6.457031 24.679688 6.640625 24.691406 7.082031 C 24.695312 7.214844 24.71875 7.480469 24.660156 7.691406 C 24.636719 7.78125 24.609375 7.863281 24.570312 7.949219 C 24.597656 7.839844 24.609375 7.785156 24.625 7.699219 C 24.660156 7.484375 24.648438 7.28125 24.644531 7.078125 C 24.628906 6.671875 24.605469 6.460938 24.59375 5.964844 C 24.589844 5.8125 24.601562 5.699219 24.671875 5.578125 C 24.746094 5.457031 24.875 5.367188 25.015625 5.367188 C 25.078125 5.367188 25.125 5.375 25.175781 5.40625 C 25.277344 5.460938 25.324219 5.570312 25.324219 5.679688 Z M 25.25 5.683594 "/>
<path style="fill-rule:nonzero;fill:rgb(61.960784%,32.941176%,3.921569%);fill-opacity:1;stroke-width:2.2;stroke-linecap:round;stroke-linejoin:round;stroke:rgb(0%,0%,0%);stroke-opacity:1;stroke-miterlimit:4;" d="M -19.140625 186.71875 C -19.140625 186.71875 -47.265625 237.109375 -68.359375 273.4375 C -89.453125 308.59375 -105.859375 316.796875 -122.265625 306.25 C -137.5 294.53125 -123.4375 266.40625 -111.71875 252.34375 C -100 238.28125 -33.203125 172.65625 -33.203125 172.65625 Z M -19.140625 186.71875 " transform="matrix(0.00333333,0,0,0.00333333,25.333333,6.666667)"/>
<path style="fill-rule:nonzero;fill:rgb(61.960784%,32.941176%,3.921569%);fill-opacity:1;stroke-width:2.2;stroke-linecap:round;stroke-linejoin:round;stroke:rgb(0%,0%,0%);stroke-opacity:1;stroke-miterlimit:4;" d="M -12.109375 191.40625 C -12.109375 191.40625 -22.65625 247.65625 -32.03125 288.671875 C -40.234375 329.6875 -54.296875 343.75 -70.703125 339.0625 C -89.453125 335.546875 -85.9375 301.5625 -78.90625 285.15625 C -71.875 267.578125 -29.6875 182.03125 -29.6875 182.03125 Z M -12.109375 191.40625 " transform="matrix(0.00333333,0,0,0.00333333,25.333333,6.666667)"/>
<path style="fill-rule:nonzero;fill:rgb(61.960784%,32.941176%,3.921569%);fill-opacity:1;stroke-width:2.2;stroke-linecap:round;stroke-linejoin:round;stroke:rgb(0%,0%,0%);stroke-opacity:1;stroke-miterlimit:4;" d="M -0.390625 192.578125 L -0.390625 293.359375 C -0.390625 335.546875 -9.765625 351.953125 -28.515625 350.78125 C -47.265625 349.609375 -50.78125 317.96875 -47.265625 299.21875 C -43.75 280.46875 -19.140625 187.890625 -19.140625 187.890625 Z M -0.390625 192.578125 " transform="matrix(0.00333333,0,0,0.00333333,25.333333,6.666667)"/>
<path style="fill-rule:nonzero;fill:rgb(61.960784%,32.941176%,3.921569%);fill-opacity:1;stroke-width:2.2;stroke-linecap:round;stroke-linejoin:round;stroke:rgb(0%,0%,0%);stroke-opacity:1;stroke-miterlimit:4;" d="M -54.6875 -232.8125 C -54.6875 -232.8125 -125 -292.578125 -182.421875 -332.421875 C -241.015625 -372.265625 -311.328125 -421.484375 -311.328125 -430.859375 C -299.609375 -439.0625 -241.015625 -401.5625 -160.15625 -352.34375 C -78.125 -301.953125 -32.421875 -252.734375 -32.421875 -252.734375 Z M -60.546875 -192.96875 C -60.546875 -192.96875 -128.515625 -233.984375 -195.3125 -263.28125 C -264.453125 -292.578125 -369.921875 -292.578125 -380.46875 -301.953125 C -380.46875 -312.5 -258.59375 -318.359375 -171.875 -283.203125 C -82.8125 -242.1875 -37.109375 -212.890625 -37.109375 -212.890625 Z M -60.546875 -125 C -60.546875 -125 -135.546875 -158.984375 -207.03125 -175.390625 C -277.34375 -190.625 -376.953125 -184.765625 -388.671875 -194.140625 C -388.671875 -203.515625 -264.453125 -223.4375 -171.875 -194.140625 C -78.125 -164.84375 -38.28125 -144.921875 -38.28125 -144.921875 Z M -65.234375 -55.859375 C -65.234375 -55.859375 -121.484375 -94.53125 -195.3125 -101.5625 C -264.453125 -108.59375 -358.203125 -55.859375 -369.921875 -66.40625 C -369.921875 -75.78125 -289.0625 -135.546875 -188.28125 -125 C -88.671875 -114.453125 -41.796875 -75.78125 -41.796875 -75.78125 Z M -41.796875 -273.828125 C -41.796875 -273.828125 -113.28125 -339.453125 -113.28125 -382.8125 C -113.28125 -421.484375 -69.921875 -482.421875 -51.171875 -482.421875 C -60.546875 -462.5 -94.53125 -421.484375 -94.53125 -382.8125 C -94.53125 -342.96875 -19.53125 -293.75 -19.53125 -293.75 Z M -41.796875 -273.828125 " transform="matrix(-0.00333333,0,0,0.00333333,25.333333,6.666667)"/>
<path style="fill-rule:nonzero;fill:rgb(61.960784%,32.941176%,3.921569%);fill-opacity:1;stroke-width:2.2;stroke-linecap:round;stroke-linejoin:round;stroke:rgb(0%,0%,0%);stroke-opacity:1;stroke-miterlimit:4;" d="M -41.796875 -273.828125 C -41.796875 -273.828125 -27.734375 -339.453125 -27.734375 -382.8125 C -27.734375 -442.578125 -69.921875 -496.484375 -66.40625 -510.546875 C -51.171875 -496.484375 -8.984375 -451.953125 -8.984375 -382.8125 C -8.984375 -323.046875 -19.53125 -293.75 -19.53125 -293.75 Z M -41.796875 -273.828125 " transform="matrix(-0.00333333,0,0,0.00333333,25.333333,6.666667)"/>
<path style="fill-rule:nonzero;fill:rgb(61.960784%,32.941176%,3.921569%);fill-opacity:1;stroke-width:12;stroke-linecap:round;stroke-linejoin:round;stroke:rgb(98.823529%,81.960784%,8.627451%);stroke-opacity:1;stroke-miterlimit:4;" d="M -25.390625 -294.921875 C -25.390625 -313.671875 -32.421875 -331.25 -44.140625 -344.140625 C -60.546875 -362.890625 -83.984375 -368.75 -108.59375 -365.234375 C -139.0625 -360.546875 -162.5 -341.796875 -177.734375 -313.671875 C -197.65625 -277.34375 -200 -237.5 -201.171875 -197.65625 C -201.171875 -62.890625 -196.484375 -7.8125 -191.796875 124.609375 C -190.625 164.453125 -183.59375 244.140625 -202.34375 307.421875 C -209.375 334.375 -217.578125 358.984375 -229.296875 384.765625 C -221.09375 351.953125 -217.578125 335.546875 -212.890625 309.765625 C -202.34375 245.3125 -204.6875 184.375 -207.03125 123.4375 C -210.546875 1.5625 -217.578125 -61.71875 -222.265625 -210.546875 C -223.4375 -256.25 -218.75 -290.234375 -197.65625 -326.5625 C -176.5625 -362.890625 -137.890625 -389.84375 -94.53125 -389.84375 C -76.953125 -389.84375 -61.71875 -387.5 -46.484375 -378.125 C -17.1875 -361.71875 -3.125 -328.90625 -3.125 -296.09375 Z M -25.390625 -294.921875 " transform="matrix(-0.00333333,0,0,0.00333333,25.333333,6.666667)"/>
<path style=" stroke:none;fill-rule:nonzero;fill:rgb(61.960784%,32.941176%,3.921569%);fill-opacity:1;" d="M 25.417969 5.683594 C 25.417969 5.621094 25.441406 5.5625 25.480469 5.519531 C 25.535156 5.457031 25.613281 5.4375 25.695312 5.449219 C 25.796875 5.464844 25.875 5.527344 25.925781 5.621094 C 25.992188 5.742188 26 5.875 26.003906 6.007812 C 26.003906 6.457031 25.988281 6.640625 25.972656 7.082031 C 25.96875 7.214844 25.945312 7.480469 26.007812 7.691406 C 26.03125 7.78125 26.058594 7.863281 26.097656 7.949219 C 26.070312 7.839844 26.058594 7.785156 26.042969 7.699219 C 26.007812 7.484375 26.015625 7.28125 26.023438 7.078125 C 26.035156 6.671875 26.058594 6.460938 26.074219 5.964844 C 26.078125 5.8125 26.0625 5.699219 25.992188 5.578125 C 25.921875 5.457031 25.792969 5.367188 25.648438 5.367188 C 25.589844 5.367188 25.539062 5.375 25.488281 5.40625 C 25.390625 5.460938 25.34375 5.570312 25.34375 5.679688 Z M 25.417969 5.683594 "/>
<path style="fill-rule:nonzero;fill:rgb(61.960784%,32.941176%,3.921569%);fill-opacity:1;stroke-width:2.2;stroke-linecap:round;stroke-linejoin:round;stroke:rgb(0%,0%,0%);stroke-opacity:1;stroke-miterlimit:4;" d="M -19.53125 186.71875 C -19.53125 186.71875 -46.484375 237.109375 -67.578125 273.4375 C -88.671875 308.59375 -106.25 316.796875 -121.484375 306.25 C -136.71875 294.53125 -123.828125 266.40625 -112.109375 252.34375 C -100.390625 238.28125 -32.421875 172.65625 -32.421875 172.65625 Z M -19.53125 186.71875 " transform="matrix(-0.00333333,0,0,0.00333333,25.333333,6.666667)"/>
<path style="fill-rule:nonzero;fill:rgb(61.960784%,32.941176%,3.921569%);fill-opacity:1;stroke-width:2.2;stroke-linecap:round;stroke-linejoin:round;stroke:rgb(0%,0%,0%);stroke-opacity:1;stroke-miterlimit:4;" d="M -12.5 191.40625 C -12.5 191.40625 -23.046875 247.65625 -32.421875 288.671875 C -39.453125 329.6875 -53.515625 343.75 -71.09375 339.0625 C -88.671875 335.546875 -86.328125 301.5625 -79.296875 285.15625 C -72.265625 267.578125 -30.078125 182.03125 -30.078125 182.03125 Z M -12.5 191.40625 " transform="matrix(-0.00333333,0,0,0.00333333,25.333333,6.666667)"/>
<path style="fill-rule:nonzero;fill:rgb(61.960784%,32.941176%,3.921569%);fill-opacity:1;stroke-width:2.2;stroke-linecap:round;stroke-linejoin:round;stroke:rgb(0%,0%,0%);stroke-opacity:1;stroke-miterlimit:4;" d="M 0.390625 192.578125 L 0.390625 293.359375 C 0.390625 335.546875 -10.15625 351.953125 -28.90625 350.78125 C -46.484375 349.609375 -51.171875 317.96875 -46.484375 299.21875 C -44.140625 280.46875 -19.53125 187.890625 -19.53125 187.890625 Z M 0.390625 192.578125 " transform="matrix(-0.00333333,0,0,0.00333333,25.333333,6.666667)"/>
<path style="fill-rule:nonzero;fill:rgb(61.960784%,32.941176%,3.921569%);fill-opacity:1;stroke-width:2.2;stroke-linecap:round;stroke-linejoin:round;stroke:rgb(0%,0%,0%);stroke-opacity:1;stroke-miterlimit:4;" d="M -0.390625 192.578125 C -53.125 191.40625 -57.8125 171.484375 -57.8125 171.484375 C -57.8125 171.484375 -64.84375 148.046875 -66.015625 132.8125 C -67.1875 130.46875 -81.25 101.171875 -76.5625 88.28125 C -82.421875 76.5625 -94.140625 47.265625 -82.421875 42.578125 C -88.28125 28.515625 -96.484375 12.109375 -96.484375 -3.125 C -101.171875 -13.671875 -110.546875 -38.28125 -103.515625 -46.484375 C -103.515625 -46.484375 -122.265625 -86.328125 -112.890625 -95.703125 C -112.890625 -95.703125 -122.265625 -135.546875 -112.890625 -144.921875 C -112.890625 -144.921875 -112.890625 -184.765625 -103.515625 -195.3125 C -103.515625 -195.3125 -103.515625 -233.984375 -94.140625 -244.53125 C -94.140625 -242.1875 -66.015625 -298.4375 -0.390625 -298.4375 L -1.5625 -214.0625 L -0.390625 -214.0625 Z M -0.390625 192.578125 " transform="matrix(0.00333333,0,0,0.00333333,25.333333,6.666667)"/>
<path style="fill:none;stroke-width:2.2;stroke-linecap:round;stroke-linejoin:round;stroke:rgb(0%,0%,0%);stroke-opacity:1;stroke-miterlimit:4;" d="M -0.390625 -26.5625 C -84.765625 -26.5625 -103.515625 -46.484375 -103.515625 -46.484375 M -0.390625 -75.78125 C -84.765625 -75.78125 -112.890625 -95.703125 -112.890625 -95.703125 M -0.390625 -125 C -84.765625 -126.171875 -112.890625 -144.921875 -112.890625 -144.921875 M -0.390625 -175.390625 C -84.765625 -176.5625 -103.515625 -195.3125 -103.515625 -195.3125 M -1.5625 -214.0625 C -0.390625 -214.0625 -64.84375 -214.0625 -75.390625 -223.4375 L -94.140625 -243.359375 M -0.390625 151.5625 C -25 151.5625 -53.125 148.046875 -66.015625 132.8125 M -0.390625 111.71875 C -47.265625 111.71875 -75.390625 92.96875 -75.390625 92.96875 C -75.390625 92.96875 -76.5625 90.625 -76.5625 88.28125 M -0.390625 62.5 C -62.5 62.5 -78.90625 48.4375 -82.421875 42.578125 M -0.390625 22.65625 C -84.765625 22.65625 -94.140625 2.734375 -94.140625 2.734375 L -96.484375 -3.125 " transform="matrix(0.00333333,0,0,0.00333333,25.333333,6.666667)"/>
<path style="fill-rule:nonzero;fill:rgb(61.960784%,32.941176%,3.921569%);fill-opacity:1;stroke-width:2.2;stroke-linecap:round;stroke-linejoin:round;stroke:rgb(0%,0%,0%);stroke-opacity:1;stroke-miterlimit:4;" d="M 0.390625 192.578125 C -53.515625 191.40625 -58.203125 171.484375 -58.203125 171.484375 C -58.203125 171.484375 -65.234375 148.046875 -66.40625 132.8125 C -67.578125 130.46875 -80.46875 101.171875 -76.953125 88.28125 C -81.640625 76.5625 -94.53125 47.265625 -82.8125 42.578125 C -87.5 28.515625 -95.703125 12.109375 -96.875 -3.125 C -101.5625 -13.671875 -110.9375 -38.28125 -102.734375 -46.484375 C -102.734375 -46.484375 -121.484375 -86.328125 -113.28125 -95.703125 C -113.28125 -95.703125 -121.484375 -135.546875 -113.28125 -144.921875 C -113.28125 -144.921875 -113.28125 -184.765625 -102.734375 -195.3125 C -102.734375 -195.3125 -102.734375 -233.984375 -94.53125 -244.53125 C -94.53125 -242.1875 -66.40625 -298.4375 0.390625 -298.4375 L -0.78125 -214.0625 L 0.390625 -214.0625 Z M 0.390625 192.578125 " transform="matrix(-0.00333333,0,0,0.00333333,25.333333,6.666667)"/>
<path style="fill:none;stroke-width:2.2;stroke-linecap:round;stroke-linejoin:round;stroke:rgb(0%,0%,0%);stroke-opacity:1;stroke-miterlimit:4;" d="M 0.390625 -26.5625 C -85.15625 -26.5625 -102.734375 -46.484375 -102.734375 -46.484375 M 0.390625 -75.78125 C -85.15625 -75.78125 -113.28125 -95.703125 -113.28125 -95.703125 M 0.390625 -125 C -85.15625 -126.171875 -113.28125 -144.921875 -113.28125 -144.921875 M 0.390625 -175.390625 C -85.15625 -176.5625 -102.734375 -195.3125 -102.734375 -195.3125 M -0.78125 -214.0625 C 0.390625 -214.0625 -65.234375 -214.0625 -74.609375 -223.4375 L -94.53125 -243.359375 M 0.390625 151.5625 C -25.390625 151.5625 -53.515625 148.046875 -66.40625 132.8125 M 0.390625 111.71875 C -46.484375 111.71875 -74.609375 92.96875 -74.609375 92.96875 C -74.609375 92.96875 -75.78125 90.625 -76.953125 88.28125 M 0.390625 62.5 C -61.71875 62.5 -79.296875 48.4375 -82.8125 42.578125 M 0.390625 22.65625 C -85.15625 22.65625 -94.53125 2.734375 -94.53125 2.734375 L -96.875 -3.125 " transform="matrix(-0.00333333,0,0,0.00333333,25.333333,6.666667)"/>
<path style="fill-rule:nonzero;fill:rgb(0%,61.960784%,28.627451%);fill-opacity:1;stroke-width:2.2;stroke-linecap:round;stroke-linejoin:round;stroke:rgb(0%,0%,0%);stroke-opacity:1;stroke-miterlimit:4;" d="M 0 712.5 C -43.359375 752.34375 -126.5625 726.5625 -152.34375 707.8125 C -179.296875 717.1875 -250.78125 689.0625 -269.53125 657.421875 C -322.265625 664.453125 -339.84375 590.625 -330.46875 571.875 C -317.578125 543.75 -342.1875 526.171875 -323.4375 507.421875 C -298.828125 482.8125 -337.5 460.546875 -314.0625 444.140625 C -289.453125 426.5625 -319.921875 398.4375 -296.484375 380.859375 C -270.703125 362.109375 -309.375 336.328125 -282.421875 323.4375 C -256.640625 310.546875 -285.9375 276.5625 -263.671875 262.5 C -242.578125 249.609375 -276.5625 216.796875 -247.265625 201.5625 C -217.96875 187.5 -243.75 160.546875 -221.484375 150 C -195.703125 137.109375 -219.140625 110.15625 -195.703125 100.78125 C -169.921875 90.234375 -188.671875 60.9375 -167.578125 52.734375 C -147.65625 45.703125 -160.546875 28.125 -147.65625 11.71875 L 0 11.71875 " transform="matrix(0.00333333,0,0,0.00333333,24,8)"/>
<path style="fill:none;stroke-width:2.2;stroke-linecap:round;stroke-linejoin:round;stroke:rgb(0%,0%,0%);stroke-opacity:1;stroke-miterlimit:4;" d="M -98.4375 17.578125 C -119.53125 37.5 -94.921875 52.734375 -114.84375 77.34375 C -135.9375 101.953125 -117.1875 114.84375 -133.59375 137.109375 C -151.171875 159.375 -126.5625 169.921875 -145.3125 194.53125 C -164.0625 219.140625 -140.625 234.375 -161.71875 254.296875 C -181.640625 275.390625 -158.203125 292.96875 -179.296875 315.234375 C -199.21875 337.5 -174.609375 352.734375 -194.53125 372.65625 C -215.625 393.75 -192.1875 416.015625 -212.109375 435.9375 C -232.03125 457.03125 -207.421875 482.8125 -230.859375 507.421875 C -253.125 530.859375 -227.34375 549.609375 -244.921875 568.359375 C -263.671875 587.109375 -247.265625 605.859375 -260.15625 618.75 C -273.046875 631.640625 -275.390625 650.390625 -269.53125 657.421875 M -59.765625 24.609375 C -78.515625 50.390625 -50.390625 60.9375 -66.796875 80.859375 C -84.375 101.953125 -59.765625 108.984375 -72.65625 132.421875 C -85.546875 157.03125 -63.28125 162.890625 -79.6875 187.5 C -97.265625 210.9375 -71.484375 229.6875 -89.0625 254.296875 C -107.8125 277.734375 -79.6875 290.625 -97.265625 315.234375 C -112.5 339.84375 -89.0625 352.734375 -104.296875 371.484375 C -119.53125 390.234375 -92.578125 407.8125 -112.5 431.25 C -130.078125 453.515625 -104.296875 469.921875 -119.53125 489.84375 C -133.59375 510.9375 -112.5 533.203125 -126.5625 549.609375 C -139.453125 566.015625 -117.1875 590.625 -135.9375 612.890625 C -153.515625 635.15625 -132.421875 650.390625 -142.96875 664.453125 C -153.515625 679.6875 -162.890625 701.953125 -152.34375 707.8125 " transform="matrix(0.00333333,0,0,0.00333333,24,8)"/>
<path style="fill-rule:nonzero;fill:rgb(0%,61.960784%,28.627451%);fill-opacity:1;stroke-width:2.2;stroke-linecap:round;stroke-linejoin:round;stroke:rgb(0%,0%,0%);stroke-opacity:1;stroke-miterlimit:4;" d="M 0 712.5 C -43.359375 752.34375 -126.5625 726.5625 -152.34375 707.8125 C -179.296875 717.1875 -250.78125 689.0625 -269.53125 657.421875 C -322.265625 664.453125 -339.84375 590.625 -330.46875 571.875 C -317.578125 543.75 -342.1875 526.171875 -323.4375 507.421875 C -298.828125 482.8125 -337.5 460.546875 -314.0625 444.140625 C -289.453125 426.5625 -319.921875 398.4375 -296.484375 380.859375 C -270.703125 362.109375 -309.375 336.328125 -282.421875 323.4375 C -256.640625 310.546875 -285.9375 276.5625 -263.671875 262.5 C -242.578125 249.609375 -276.5625 216.796875 -247.265625 201.5625 C -217.96875 187.5 -243.75 160.546875 -221.484375 150 C -195.703125 137.109375 -219.140625 110.15625 -195.703125 100.78125 C -169.921875 90.234375 -188.671875 60.9375 -167.578125 52.734375 C -147.65625 45.703125 -160.546875 28.125 -147.65625 11.71875 L 0 11.71875 " transform="matrix(-0.00333333,0,0,0.00333333,24,8)"/>
<path style="fill:none;stroke-width:2.2;stroke-linecap:round;stroke-linejoin:round;stroke:rgb(0%,0%,0%);stroke-opacity:1;stroke-miterlimit:4;" d="M -98.4375 17.578125 C -119.53125 37.5 -94.921875 52.734375 -114.84375 77.34375 C -135.9375 101.953125 -117.1875 114.84375 -133.59375 137.109375 C -151.171875 159.375 -126.5625 169.921875 -145.3125 194.53125 C -164.0625 219.140625 -140.625 234.375 -161.71875 254.296875 C -181.640625 275.390625 -158.203125 292.96875 -179.296875 315.234375 C -199.21875 337.5 -174.609375 352.734375 -194.53125 372.65625 C -215.625 393.75 -192.1875 416.015625 -212.109375 435.9375 C -232.03125 457.03125 -207.421875 482.8125 -230.859375 507.421875 C -253.125 530.859375 -227.34375 549.609375 -244.921875 568.359375 C -263.671875 587.109375 -247.265625 605.859375 -260.15625 618.75 C -273.046875 631.640625 -275.390625 650.390625 -269.53125 657.421875 M -59.765625 24.609375 C -78.515625 50.390625 -50.390625 60.9375 -66.796875 80.859375 C -84.375 101.953125 -59.765625 108.984375 -72.65625 132.421875 C -85.546875 157.03125 -63.28125 162.890625 -79.6875 187.5 C -97.265625 210.9375 -71.484375 229.6875 -89.0625 254.296875 C -107.8125 277.734375 -79.6875 290.625 -97.265625 315.234375 C -112.5 339.84375 -89.0625 352.734375 -104.296875 371.484375 C -119.53125 390.234375 -92.578125 407.8125 -112.5 431.25 C -130.078125 453.515625 -104.296875 469.921875 -119.53125 489.84375 C -133.59375 510.9375 -112.5 533.203125 -126.5625 549.609375 C -139.453125 566.015625 -117.1875 590.625 -135.9375 612.890625 C -153.515625 635.15625 -132.421875 650.390625 -142.96875 664.453125 C -153.515625 679.6875 -162.890625 701.953125 -152.34375 707.8125 " transform="matrix(-0.00333333,0,0,0.00333333,24,8)"/>
<path style="fill:none;stroke-width:2.2;stroke-linecap:round;stroke-linejoin:round;stroke:rgb(0%,61.960784%,28.627451%);stroke-opacity:1;stroke-miterlimit:4;" d="M 0 712.5 L 0 11.71875 " transform="matrix(0.00333333,0,0,0.00333333,24,8)"/>
<path style="fill:none;stroke-width:2.2;stroke-linecap:round;stroke-linejoin:round;stroke:rgb(0%,0%,0%);stroke-opacity:1;stroke-miterlimit:4;" d="M 0 48.046875 C -9.375 86.71875 12.890625 120.703125 0 153.515625 C -12.890625 186.328125 9.375 199.21875 2.34375 225 C -5.859375 250.78125 10.546875 269.53125 0 297.65625 C -10.546875 325.78125 15.234375 348.046875 0 385.546875 C -15.234375 420.703125 10.546875 430.078125 0 467.578125 C -10.546875 508.59375 18.75 530.859375 0 561.328125 C -18.75 590.625 17.578125 597.65625 2.34375 631.640625 C -12.890625 664.453125 10.546875 678.515625 0 712.5 " transform="matrix(0.00333333,0,0,0.00333333,24,8)"/>
<path style="fill-rule:nonzero;fill:rgb(98.823529%,81.960784%,8.627451%);fill-opacity:1;stroke-width:2.2;stroke-linecap:round;stroke-linejoin:round;stroke:rgb(0%,0%,0%);stroke-opacity:1;stroke-miterlimit:4;" d="M 15.234375 173.4375 C 10.546875 185.15625 30.46875 210.9375 18.75 230.859375 C 7.03125 249.609375 24.609375 280.078125 12.890625 303.515625 C 1.171875 328.125 31.640625 357.421875 19.921875 385.546875 C 7.03125 413.671875 25.78125 448.828125 19.921875 474.609375 C 15.234375 501.5625 32.8125 550.78125 19.921875 569.53125 C 7.03125 588.28125 32.8125 592.96875 17.578125 638.671875 C 3.515625 685.546875 -7.03125 645.703125 2.34375 631.640625 C 21.09375 601.171875 -18.75 590.625 0 561.328125 C 18.75 530.859375 -10.546875 508.59375 0 467.578125 C 10.546875 430.078125 -15.234375 420.703125 0 385.546875 C 15.234375 348.046875 -10.546875 325.78125 0 297.65625 C 10.546875 269.53125 -5.859375 250.78125 2.34375 225 C 9.375 199.21875 -12.890625 186.328125 0 153.515625 C 10.546875 121.875 19.921875 162.890625 15.234375 173.4375 Z M -69.140625 206.25 C -76.171875 217.96875 -57.421875 241.40625 -73.828125 263.671875 C -85.546875 280.078125 -65.625 298.828125 -83.203125 322.265625 C -93.75 337.5 -71.484375 357.421875 -86.71875 380.859375 C -97.265625 393.75 -79.6875 419.53125 -92.578125 438.28125 C -104.296875 458.203125 -85.546875 473.4375 -106.640625 500.390625 C -119.53125 514.453125 -98.4375 548.4375 -111.328125 560.15625 C -124.21875 570.703125 -112.5 614.0625 -120.703125 619.921875 C -128.90625 626.953125 -120.703125 657.421875 -142.96875 664.453125 C -132.421875 650.390625 -153.515625 635.15625 -135.9375 612.890625 C -117.1875 590.625 -139.453125 566.015625 -126.5625 549.609375 C -112.5 533.203125 -133.59375 510.9375 -119.53125 489.84375 C -104.296875 469.921875 -130.078125 453.515625 -112.5 431.25 C -92.578125 407.8125 -119.53125 390.234375 -104.296875 371.484375 C -89.0625 352.734375 -112.5 339.84375 -97.265625 315.234375 C -79.6875 290.625 -107.8125 277.734375 -89.0625 254.296875 C -71.484375 229.6875 -97.265625 210.9375 -79.6875 187.5 C -63.28125 162.890625 -85.546875 157.03125 -72.65625 132.421875 C -49.21875 141.796875 -60.9375 194.53125 -69.140625 206.25 Z M -119.53125 140.625 C -128.90625 157.03125 -114.84375 175.78125 -130.078125 195.703125 C -145.3125 216.796875 -130.078125 242.578125 -145.3125 260.15625 C -160.546875 276.5625 -140.625 308.203125 -160.546875 321.09375 C -179.296875 333.984375 -167.578125 372.65625 -181.640625 385.546875 C -196.875 398.4375 -181.640625 435.9375 -199.21875 454.6875 C -215.625 473.4375 -207.421875 513.28125 -217.96875 521.484375 C -227.34375 530.859375 -205.078125 549.609375 -221.484375 562.5 C -237.890625 576.5625 -237.890625 602.34375 -260.15625 618.75 C -247.265625 605.859375 -263.671875 587.109375 -244.921875 568.359375 C -227.34375 549.609375 -253.125 530.859375 -230.859375 507.421875 C -207.421875 482.8125 -232.03125 457.03125 -212.109375 435.9375 C -192.1875 416.015625 -215.625 393.75 -194.53125 372.65625 C -174.609375 352.734375 -199.21875 337.5 -179.296875 315.234375 C -158.203125 292.96875 -181.640625 275.390625 -161.71875 254.296875 C -140.625 234.375 -164.0625 219.140625 -145.3125 194.53125 C -126.5625 169.921875 -151.171875 159.375 -133.59375 137.109375 C -126.5625 126.5625 -126.5625 118.359375 -126.5625 110.15625 C -113.671875 78.515625 -113.671875 132.421875 -119.53125 140.625 Z M -119.53125 140.625 " transform="matrix(0.00333333,0,0,0.00333333,24,8)"/>
<path style="fill-rule:nonzero;fill:rgb(80.784314%,6.666667%,14.901961%);fill-opacity:1;stroke-width:2.2;stroke-linecap:round;stroke-linejoin:round;stroke:rgb(0%,0%,0%);stroke-opacity:1;stroke-miterlimit:4;" d="M -139.453125 35.15625 C -139.453125 -174.609375 -110.15625 -248.4375 0 -248.4375 C 110.15625 -248.4375 139.453125 -174.609375 139.453125 35.15625 Z M -139.453125 35.15625 " transform="matrix(0.00333333,0,0,0.00333333,24,8)"/>
<path style="fill-rule:nonzero;fill:rgb(0%,0%,0%);fill-opacity:1;stroke-width:2.2;stroke-linecap:round;stroke-linejoin:round;stroke:rgb(0%,0%,0%);stroke-opacity:1;stroke-miterlimit:4;" d="M -139.453125 35.15625 C -139.453125 -174.609375 -110.15625 -248.4375 0 -248.4375 C -50.390625 -248.4375 -80.859375 -208.59375 -89.0625 -182.8125 C -98.4375 -157.03125 -92.578125 -159.375 -82.03125 -168.75 C -71.484375 -179.296875 -76.171875 -157.03125 -85.546875 -145.3125 C -94.921875 -132.421875 -104.296875 -98.4375 -91.40625 -108.984375 C -78.515625 -120.703125 -67.96875 -107.8125 -82.03125 -87.890625 C -96.09375 -69.140625 -107.8125 -23.4375 -93.75 -38.671875 C -79.6875 -55.078125 -77.34375 -29.296875 -85.546875 -16.40625 C -93.75 -3.515625 -92.578125 9.375 -85.546875 3.515625 C -78.515625 -3.515625 -78.515625 23.4375 -85.546875 35.15625 Z M 51.5625 30.46875 C 51.5625 0 52.734375 -72.65625 36.328125 -97.265625 C 23.4375 -116.015625 23.4375 -135.9375 37.5 -113.671875 C 51.5625 -92.578125 58.59375 -103.125 49.21875 -125.390625 C 37.5 -153.515625 21.09375 -183.984375 24.609375 -189.84375 C 30.46875 -196.875 32.8125 -194.53125 43.359375 -179.296875 C 52.734375 -164.0625 55.078125 -186.328125 44.53125 -201.5625 C 32.8125 -214.453125 33.984375 -217.96875 57.421875 -207.421875 C 98.4375 -191.015625 118.359375 -141.796875 118.359375 23.4375 Z M 51.5625 30.46875 " transform="matrix(0.00333333,0,0,0.00333333,24,8)"/>
<path style="fill-rule:nonzero;fill:rgb(80.784314%,6.666667%,14.901961%);fill-opacity:1;stroke-width:2.2;stroke-linecap:round;stroke-linejoin:round;stroke:rgb(0%,0%,0%);stroke-opacity:1;stroke-miterlimit:4;" d="M 0 64.453125 C -44.53125 64.453125 -92.578125 57.421875 -124.21875 44.53125 C -161.71875 30.46875 -164.0625 17.578125 -151.171875 1.171875 C -140.625 -10.546875 -120.703125 -3.515625 -100.78125 4.6875 C -82.03125 12.890625 -28.125 18.75 0 18.75 C 28.125 18.75 82.03125 12.890625 100.78125 3.515625 C 120.703125 -3.515625 140.625 -10.546875 151.171875 1.171875 C 164.0625 17.578125 161.71875 30.46875 124.21875 44.53125 C 92.578125 57.421875 44.53125 64.453125 0 64.453125 Z M 0 64.453125 " transform="matrix(0.00333333,0,0,0.00333333,24,8)"/>
</g>
</svg>
