<?xml version="1.0" encoding="UTF-8"?>
<svg xmlns="http://www.w3.org/2000/svg" xmlns:xlink="http://www.w3.org/1999/xlink" width="24px" height="16px" viewBox="0 0 25 16" version="1.1">
<g id="surface1">
<rect x="0" y="0" width="25" height="16" style="fill:rgb(0%,41.568627%,30.588235%);fill-opacity:1;stroke:none;"/>
<path style=" stroke:none;fill-rule:nonzero;fill:rgb(100%,80.784314%,0%);fill-opacity:1;" d="M 0 3.199219 L 25 3.199219 L 25 6.398438 L 0 6.398438 Z M 0 9.601562 L 25 9.601562 L 25 12.800781 L 0 12.800781 Z M 0 9.601562 "/>
<path style=" stroke:none;fill-rule:nonzero;fill:rgb(82.352941%,6.27451%,20.392157%);fill-opacity:1;" d="M 0 0 L 9.269531 0 L 9.269531 9.601562 L 0 9.601562 Z M 0 0 "/>
<path style=" stroke:none;fill-rule:nonzero;fill:rgb(100%,100%,100%);fill-opacity:1;" d="M 4.636719 1.761719 L 3.726562 4.652344 L 5.199219 5.144531 "/>
<path style=" stroke:none;fill-rule:nonzero;fill:rgb(100%,100%,100%);fill-opacity:1;" d="M 4.636719 1.761719 L 5.542969 4.652344 L 4.074219 5.144531 "/>
<path style=" stroke:none;fill-rule:nonzero;fill:rgb(100%,100%,100%);fill-opacity:1;" d="M 7.425781 3.859375 L 4.492188 3.859375 L 4.492188 5.460938 "/>
<path style=" stroke:none;fill-rule:nonzero;fill:rgb(100%,100%,100%);fill-opacity:1;" d="M 7.425781 3.859375 L 5.050781 5.648438 L 4.144531 4.351562 "/>
<path style=" stroke:none;fill-rule:nonzero;fill:rgb(100%,100%,100%);fill-opacity:1;" d="M 6.359375 7.257812 L 5.453125 4.367188 L 3.984375 4.863281 "/>
<path style=" stroke:none;fill-rule:nonzero;fill:rgb(100%,100%,100%);fill-opacity:1;" d="M 6.359375 7.257812 L 3.984375 5.472656 L 4.894531 4.179688 "/>
<path style=" stroke:none;fill-rule:nonzero;fill:rgb(100%,100%,100%);fill-opacity:1;" d="M 2.910156 7.257812 L 5.285156 5.472656 L 4.375 4.179688 "/>
<path style=" stroke:none;fill-rule:nonzero;fill:rgb(100%,100%,100%);fill-opacity:1;" d="M 2.910156 7.257812 L 3.816406 4.367188 L 5.285156 4.863281 "/>
<path style=" stroke:none;fill-rule:nonzero;fill:rgb(100%,100%,100%);fill-opacity:1;" d="M 1.84375 3.859375 L 4.21875 5.648438 L 5.125 4.351562 "/>
<path style=" stroke:none;fill-rule:nonzero;fill:rgb(100%,100%,100%);fill-opacity:1;" d="M 1.84375 3.859375 L 4.777344 3.859375 L 4.777344 5.460938 "/>
</g>
</svg>
