<?xml version="1.0" encoding="UTF-8"?>
<svg xmlns="http://www.w3.org/2000/svg" xmlns:xlink="http://www.w3.org/1999/xlink" width="24px" height="16px" viewBox="0 0 32 16" version="1.1">
<g id="surface1">
<rect x="0" y="0" width="32" height="16" style="fill:rgb(0%,40%,0%);fill-opacity:1;stroke:none;"/>
<path style=" stroke:none;fill-rule:nonzero;fill:rgb(100%,100%,100%);fill-opacity:1;" d="M 0 0 L 32 0 L 32 11.429688 L 0 11.429688 Z M 0 0 "/>
<path style=" stroke:none;fill-rule:nonzero;fill:rgb(80%,0%,0%);fill-opacity:1;" d="M 0 0 L 32 0 L 32 4.570312 L 0 4.570312 Z M 0 0 "/>
<path style=" stroke:none;fill-rule:nonzero;fill:rgb(97.254902%,76.470588%,0%);fill-opacity:1;" d="M 15.359375 7.789062 C 13.210938 12.027344 8.027344 13.722656 3.785156 11.574219 C -0.457031 9.421875 -2.152344 4.242188 0 0 L 0 1.144531 L 0.214844 1.144531 L 0.214844 0 C 0.402344 -0.1875 0.703125 -0.1875 0.890625 0 C 1.074219 0.1875 1.074219 0.488281 0.890625 0.675781 "/>
<path style=" stroke:none;fill-rule:nonzero;fill:rgb(100%,100%,100%);fill-opacity:1;" d="M 15.511719 7.488281 C 15.511719 7.238281 15.71875 7.03125 15.96875 7.03125 C 16.222656 7.03125 16.425781 7.238281 16.425781 7.488281 C 16.425781 7.742188 16.222656 7.945312 15.96875 7.945312 "/>
<path style=" stroke:none;fill-rule:nonzero;fill:rgb(97.254902%,76.470588%,0%);fill-opacity:1;" d="M 15.890625 8.609375 C 15.929688 8.238281 16.203125 7.933594 16.5625 7.851562 C 16.925781 7.769531 17.300781 7.925781 17.496094 8.242188 C 17.691406 8.5625 17.664062 8.964844 17.425781 9.253906 C 17.1875 9.539062 16.796875 9.644531 16.449219 9.511719 C 16.53125 10.34375 17.78125 10.175781 17.871094 9.363281 C 18.265625 10.054688 19.128906 9.855469 19.378906 9.011719 Z M 15.890625 8.609375 "/>
<path style=" stroke:none;fill-rule:nonzero;fill:rgb(97.254902%,76.470588%,0%);fill-opacity:1;" d="M 16.109375 8.609375 C 16.070312 8.238281 15.796875 7.933594 15.4375 7.851562 C 15.074219 7.769531 14.699219 7.925781 14.503906 8.242188 C 14.308594 8.5625 14.335938 8.964844 14.574219 9.253906 C 14.8125 9.539062 15.203125 9.644531 15.550781 9.511719 C 15.46875 10.34375 14.21875 10.175781 14.128906 9.363281 C 13.734375 10.054688 12.871094 9.855469 12.621094 9.011719 Z M 16.109375 8.609375 "/>
<path style=" stroke:none;fill-rule:nonzero;fill:rgb(97.254902%,76.470588%,0%);fill-opacity:1;" d="M 15.058594 10.085938 C 14.886719 10.464844 14.535156 10.527344 14.234375 10.222656 C 14.234375 10.222656 14.355469 10.136719 14.484375 10.113281 C 14.460938 10.007812 14.511719 9.863281 14.582031 9.785156 C 14.65625 9.835938 14.761719 9.9375 14.789062 10.058594 C 14.972656 10.035156 15.058594 10.085938 15.058594 10.085938 Z M 15.058594 10.085938 "/>
<path style=" stroke:none;fill-rule:nonzero;fill:rgb(97.254902%,76.470588%,0%);fill-opacity:1;" d="M 16.421875 10.042969 C 16.1875 10.386719 15.835938 10.394531 15.582031 10.046875 C 15.582031 10.046875 15.71875 9.980469 15.851562 9.976562 C 15.84375 9.871094 15.917969 9.734375 16 9.671875 C 16.066406 9.734375 16.152344 9.851562 16.160156 9.972656 C 16.34375 9.976562 16.421875 10.042969 16.421875 10.042969 Z M 16.421875 10.042969 "/>
<path style=" stroke:none;fill-rule:nonzero;fill:rgb(97.254902%,76.470588%,0%);fill-opacity:1;" d="M 17.773438 10.222656 C 17.488281 10.523438 17.136719 10.472656 16.945312 10.089844 C 16.945312 10.089844 17.089844 10.046875 17.222656 10.066406 C 17.230469 9.957031 17.324219 9.835938 17.417969 9.785156 C 17.472656 9.859375 17.539062 9.988281 17.523438 10.109375 C 17.707031 10.144531 17.773438 10.222656 17.773438 10.222656 Z M 17.773438 10.222656 "/>
<path style="fill:none;stroke-width:16;stroke-linecap:butt;stroke-linejoin:miter;stroke:rgb(97.254902%,76.470588%,0%);stroke-opacity:1;stroke-miterlimit:4;" d="M 602.929688 478.00293 C 735.03418 311.547852 707.006836 69.555664 540.551758 -62.548828 C 373.925781 -194.482422 131.933594 -166.455078 0 0 " transform="matrix(0.0228571,0,0,0.0228571,0,0)"/>
<path style=" stroke:none;fill-rule:nonzero;fill:rgb(97.254902%,76.470588%,0%);fill-opacity:1;" d="M 16 4.898438 L 16.34375 5.960938 L 15.441406 5.304688 L 16.558594 5.304688 L 15.65625 5.960938 Z M 16 4.898438 "/>
<path style=" stroke:none;fill-rule:nonzero;fill:rgb(97.254902%,76.470588%,0%);fill-opacity:1;" d="M 14.398438 5.328125 L 14.746094 6.390625 L 13.839844 5.734375 L 14.957031 5.734375 L 14.054688 6.390625 Z M 14.398438 5.328125 "/>
<path style=" stroke:none;fill-rule:nonzero;fill:rgb(97.254902%,76.470588%,0%);fill-opacity:1;" d="M 13.230469 6.5 L 13.574219 7.5625 L 12.671875 6.90625 L 13.785156 6.90625 L 12.882812 7.5625 Z M 13.230469 6.5 "/>
<path style=" stroke:none;fill-rule:nonzero;fill:rgb(97.254902%,76.470588%,0%);fill-opacity:1;" d="M 12.800781 8.097656 L 13.144531 9.160156 L 12.242188 8.503906 L 13.359375 8.503906 L 12.453125 9.160156 Z M 12.800781 8.097656 "/>
<path style=" stroke:none;fill-rule:nonzero;fill:rgb(97.254902%,76.470588%,0%);fill-opacity:1;" d="M 17.601562 5.328125 L 17.253906 6.390625 L 18.160156 5.734375 L 17.042969 5.734375 L 17.945312 6.390625 Z M 17.601562 5.328125 "/>
<path style=" stroke:none;fill-rule:nonzero;fill:rgb(97.254902%,76.470588%,0%);fill-opacity:1;" d="M 18.769531 6.5 L 18.425781 7.5625 L 19.328125 6.90625 L 18.214844 6.90625 L 19.117188 7.5625 Z M 18.769531 6.5 "/>
<path style=" stroke:none;fill-rule:nonzero;fill:rgb(97.254902%,76.470588%,0%);fill-opacity:1;" d="M 19.199219 8.097656 L 18.855469 9.160156 L 19.757812 8.503906 L 18.640625 8.503906 L 19.546875 9.160156 Z M 19.199219 8.097656 "/>
</g>
</svg>
