<?xml version="1.0" encoding="UTF-8"?>
<svg xmlns="http://www.w3.org/2000/svg" xmlns:xlink="http://www.w3.org/1999/xlink" width="24px" height="16px" viewBox="0 0 32 16" version="1.1">
<g id="surface1">
<rect x="0" y="0" width="32" height="16" style="fill:rgb(0.392157%,12.941176%,41.176471%);fill-opacity:1;stroke:none;"/>
<path style=" stroke:none;fill-rule:nonzero;fill:rgb(100%,81.960784%,0%);fill-opacity:1;" d="M 5.855469 13.816406 C 5.535156 13.816406 8.851562 12.050781 11.628906 9.789062 C 15.265625 6.828125 23.101562 2.082031 25.40625 1.3125 C 25.648438 1.230469 24.914062 1.722656 24.816406 1.882812 C 22.359375 4.792969 24.320312 10.285156 27.394531 13.046875 C 28.320312 13.753906 28.273438 13.789062 29.984375 13.859375 L 29.984375 14.019531 Z M 5.65625 14.140625 C 5.65625 14.140625 5.421875 14.304688 5.421875 14.429688 C 5.421875 14.570312 5.683594 14.75 5.683594 14.75 L 29.484375 15.015625 L 29.921875 14.722656 L 29.308594 14.34375 Z M 5.65625 14.140625 "/>
<path style=" stroke:none;fill-rule:nonzero;fill:rgb(100%,100%,100%);fill-opacity:1;" d="M 6.898438 1.742188 L 6.097656 1.742188 L 6.097656 2.140625 Z M 6.898438 1.742188 "/>
<path style=" stroke:none;fill-rule:nonzero;fill:rgb(100%,100%,100%);fill-opacity:1;" d="M 6.898438 1.742188 L 6.25 2.210938 L 6.015625 1.886719 Z M 6.898438 1.742188 "/>
<path style=" stroke:none;fill-rule:nonzero;fill:rgb(100%,100%,100%);fill-opacity:1;" d="M 6.589844 2.683594 L 6.34375 1.921875 L 5.964844 2.042969 Z M 6.589844 2.683594 "/>
<path style=" stroke:none;fill-rule:nonzero;fill:rgb(100%,100%,100%);fill-opacity:1;" d="M 6.589844 2.683594 L 5.945312 2.210938 L 6.179688 1.886719 Z M 6.589844 2.683594 "/>
<path style=" stroke:none;fill-rule:nonzero;fill:rgb(100%,100%,100%);fill-opacity:1;" d="M 5.601562 2.683594 L 6.25 2.210938 L 6.015625 1.886719 Z M 5.601562 2.683594 "/>
<path style=" stroke:none;fill-rule:nonzero;fill:rgb(100%,100%,100%);fill-opacity:1;" d="M 5.601562 2.683594 L 5.851562 1.921875 L 6.230469 2.042969 Z M 5.601562 2.683594 "/>
<path style=" stroke:none;fill-rule:nonzero;fill:rgb(100%,100%,100%);fill-opacity:1;" d="M 5.296875 1.742188 L 5.945312 2.210938 L 6.179688 1.886719 Z M 5.296875 1.742188 "/>
<path style=" stroke:none;fill-rule:nonzero;fill:rgb(100%,100%,100%);fill-opacity:1;" d="M 5.296875 1.742188 L 6.097656 1.742188 L 6.097656 2.140625 Z M 5.296875 1.742188 "/>
<path style=" stroke:none;fill-rule:nonzero;fill:rgb(100%,100%,100%);fill-opacity:1;" d="M 6.097656 1.160156 L 5.851562 1.921875 L 6.230469 2.042969 Z M 6.097656 1.160156 "/>
<path style=" stroke:none;fill-rule:nonzero;fill:rgb(100%,100%,100%);fill-opacity:1;" d="M 6.097656 1.160156 L 6.34375 1.921875 L 5.964844 2.046875 Z M 6.097656 1.160156 "/>
<path style=" stroke:none;fill-rule:nonzero;fill:rgb(100%,100%,100%);fill-opacity:1;" d="M 9.933594 4.539062 L 9.265625 4.539062 L 9.265625 4.871094 Z M 9.933594 4.539062 "/>
<path style=" stroke:none;fill-rule:nonzero;fill:rgb(100%,100%,100%);fill-opacity:1;" d="M 9.933594 4.539062 L 9.394531 4.929688 L 9.195312 4.660156 Z M 9.933594 4.539062 "/>
<path style=" stroke:none;fill-rule:nonzero;fill:rgb(100%,100%,100%);fill-opacity:1;" d="M 9.679688 5.324219 L 9.472656 4.6875 L 9.15625 4.792969 Z M 9.679688 5.324219 "/>
<path style=" stroke:none;fill-rule:nonzero;fill:rgb(100%,100%,100%);fill-opacity:1;" d="M 9.679688 5.324219 L 9.136719 4.929688 L 9.335938 4.660156 Z M 9.679688 5.324219 "/>
<path style=" stroke:none;fill-rule:nonzero;fill:rgb(100%,100%,100%);fill-opacity:1;" d="M 8.855469 5.324219 L 9.394531 4.929688 L 9.199219 4.660156 Z M 8.855469 5.324219 "/>
<path style=" stroke:none;fill-rule:nonzero;fill:rgb(100%,100%,100%);fill-opacity:1;" d="M 8.855469 5.324219 L 9.058594 4.6875 L 9.378906 4.792969 Z M 8.855469 5.324219 "/>
<path style=" stroke:none;fill-rule:nonzero;fill:rgb(100%,100%,100%);fill-opacity:1;" d="M 8.597656 4.539062 L 9.136719 4.929688 L 9.335938 4.660156 Z M 8.597656 4.539062 "/>
<path style=" stroke:none;fill-rule:nonzero;fill:rgb(100%,100%,100%);fill-opacity:1;" d="M 8.597656 4.539062 L 9.265625 4.539062 L 9.265625 4.871094 Z M 8.597656 4.539062 "/>
<path style=" stroke:none;fill-rule:nonzero;fill:rgb(100%,100%,100%);fill-opacity:1;" d="M 9.265625 4.054688 L 9.058594 4.6875 L 9.375 4.792969 Z M 9.265625 4.054688 "/>
<path style=" stroke:none;fill-rule:nonzero;fill:rgb(100%,100%,100%);fill-opacity:1;" d="M 9.265625 4.054688 L 9.472656 4.6875 L 9.15625 4.792969 Z M 9.265625 4.054688 "/>
<path style=" stroke:none;fill-rule:nonzero;fill:rgb(100%,100%,100%);fill-opacity:1;" d="M 3.199219 5.460938 L 2.398438 5.460938 L 2.398438 5.859375 Z M 3.199219 5.460938 "/>
<path style=" stroke:none;fill-rule:nonzero;fill:rgb(100%,100%,100%);fill-opacity:1;" d="M 3.199219 5.460938 L 2.550781 5.929688 L 2.316406 5.609375 Z M 3.199219 5.460938 "/>
<path style=" stroke:none;fill-rule:nonzero;fill:rgb(100%,100%,100%);fill-opacity:1;" d="M 2.894531 6.402344 L 2.648438 5.640625 L 2.265625 5.765625 Z M 2.894531 6.402344 "/>
<path style=" stroke:none;fill-rule:nonzero;fill:rgb(100%,100%,100%);fill-opacity:1;" d="M 2.894531 6.402344 L 2.246094 5.929688 L 2.480469 5.609375 Z M 2.894531 6.402344 "/>
<path style=" stroke:none;fill-rule:nonzero;fill:rgb(100%,100%,100%);fill-opacity:1;" d="M 1.90625 6.402344 L 2.554688 5.929688 L 2.316406 5.609375 Z M 1.90625 6.402344 "/>
<path style=" stroke:none;fill-rule:nonzero;fill:rgb(100%,100%,100%);fill-opacity:1;" d="M 1.90625 6.402344 L 2.152344 5.640625 L 2.535156 5.765625 Z M 1.90625 6.402344 "/>
<path style=" stroke:none;fill-rule:nonzero;fill:rgb(100%,100%,100%);fill-opacity:1;" d="M 1.601562 5.460938 L 2.246094 5.929688 L 2.480469 5.609375 Z M 1.601562 5.460938 "/>
<path style=" stroke:none;fill-rule:nonzero;fill:rgb(100%,100%,100%);fill-opacity:1;" d="M 1.601562 5.460938 L 2.398438 5.460938 L 2.398438 5.859375 Z M 1.601562 5.460938 "/>
<path style=" stroke:none;fill-rule:nonzero;fill:rgb(100%,100%,100%);fill-opacity:1;" d="M 2.398438 4.878906 L 2.152344 5.640625 L 2.53125 5.765625 Z M 2.398438 4.878906 "/>
<path style=" stroke:none;fill-rule:nonzero;fill:rgb(100%,100%,100%);fill-opacity:1;" d="M 2.398438 4.878906 L 2.648438 5.640625 L 2.265625 5.765625 Z M 2.398438 4.878906 "/>
<path style=" stroke:none;fill-rule:nonzero;fill:rgb(100%,100%,100%);fill-opacity:1;" d="M 7.03125 11.296875 L 6.097656 11.296875 L 6.097656 11.765625 Z M 7.03125 11.296875 "/>
<path style=" stroke:none;fill-rule:nonzero;fill:rgb(100%,100%,100%);fill-opacity:1;" d="M 7.03125 11.296875 L 6.273438 11.847656 L 6 11.46875 Z M 7.03125 11.296875 "/>
<path style=" stroke:none;fill-rule:nonzero;fill:rgb(100%,100%,100%);fill-opacity:1;" d="M 6.675781 12.394531 L 6.386719 11.507812 L 5.941406 11.652344 Z M 6.675781 12.394531 "/>
<path style=" stroke:none;fill-rule:nonzero;fill:rgb(100%,100%,100%);fill-opacity:1;" d="M 6.671875 12.394531 L 5.917969 11.847656 L 6.191406 11.46875 Z M 6.671875 12.394531 "/>
<path style=" stroke:none;fill-rule:nonzero;fill:rgb(100%,100%,100%);fill-opacity:1;" d="M 5.519531 12.394531 L 6.273438 11.847656 L 6 11.46875 Z M 5.519531 12.394531 "/>
<path style=" stroke:none;fill-rule:nonzero;fill:rgb(100%,100%,100%);fill-opacity:1;" d="M 5.519531 12.394531 L 5.808594 11.507812 L 6.253906 11.652344 Z M 5.519531 12.394531 "/>
<path style=" stroke:none;fill-rule:nonzero;fill:rgb(100%,100%,100%);fill-opacity:1;" d="M 5.164062 11.296875 L 5.917969 11.847656 L 6.191406 11.46875 Z M 5.164062 11.296875 "/>
<path style=" stroke:none;fill-rule:nonzero;fill:rgb(100%,100%,100%);fill-opacity:1;" d="M 5.164062 11.296875 L 6.097656 11.296875 L 6.097656 11.765625 Z M 5.164062 11.296875 "/>
<path style=" stroke:none;fill-rule:nonzero;fill:rgb(100%,100%,100%);fill-opacity:1;" d="M 6.097656 10.621094 L 5.808594 11.507812 L 6.253906 11.652344 Z M 6.097656 10.621094 "/>
<path style=" stroke:none;fill-rule:nonzero;fill:rgb(100%,100%,100%);fill-opacity:1;" d="M 6.097656 10.621094 L 6.386719 11.507812 L 5.941406 11.652344 Z M 6.097656 10.621094 "/>
</g>
</svg>
