<svg xmlns="http://www.w3.org/2000/svg" xmlns:xlink="http://www.w3.org/1999/xlink" viewBox="0 0 24 16" width="24" height="16"><defs><clipPath id="b"><path d="M0 0h24v16H0z"/></clipPath></defs><path fill="#00843d" d="M0 0h24v16H0z"/><g fill="#fff"><path d="M11.915 1.774c0.709 0.305 1.206 1.009 1.206 1.83 0 1.099 -0.891 1.991 -1.991 1.991 -0.492 0 -0.943 -0.179 -1.29 -0.475a1.985 1.985 0 0 0 0.697 0.159c1.098 0.048 2.028 -0.804 2.076 -1.902 0.028 -0.638 -0.248 -1.218 -0.699 -1.603z"/><path d="m10.016 3.238 0.226 -0.694 -0.591 0.429h0.73l-0.591 -0.429z" id="a"/><use height="600" y="-38.4" xlink:href="#a"/><use y="-18.722" x="37.937" xlink:href="#a"/><use y="18.722" x="-37.936" xlink:href="#a"/><use height="600" y="38.4" xlink:href="#a"/></g><path fill="#d22730" d="M2.88 0h4.32v16h-4.32z"/><g clip-path="url(#b)"><g id="c" fill="#383739"><path d="M2.88 -1.057v0.157l0.243 0.227 -0.082 0.076 0.174 0.161 -0.076 0.069v-0.1h-0.148v0.12l0.335 0.314h0.169l0.018 -0.11h-0.097l0.106 -0.099L3.787 0l-0.266 0.243 -0.106 -0.099h0.097l-0.018 -0.112h-0.169L2.99 0.346v0.12h0.148v-0.1l0.076 0.069 -0.174 0.161 0.082 0.078 -0.243 0.226v0.157l0.411 -0.383 -0.082 -0.078 0.172 -0.161 -0.148 -0.138 0.099 -0.09 0.189 0.175L3.936 0l-0.415 -0.381 -0.189 0.177 -0.099 -0.092 0.148 -0.138 -0.172 -0.161 0.082 -0.076 -0.411 -0.384zm0 0.761v0.59l0.096 -0.097v-0.114h0.102L3.16 0l-0.082 -0.082H2.976v-0.116l-0.096 -0.097zm0.701 0.209 -0.014 0.081 0.014 0.082 0.088 -0.082z"/><path d="M2.88 -1.04v0.124l0.26 0.243 -0.082 0.076 0.174 0.161 -0.105 0.097v-0.117h-0.126v0.105l0.329 0.306h0.153l0.016 -0.088h-0.113l0.136 -0.127L3.804 0l-0.283 0.258 -0.136 -0.126h0.113l-0.016 -0.089h-0.153L3.001 0.35v0.105h0.126v-0.117l0.105 0.097 -0.174 0.161 0.082 0.078 -0.26 0.242v0.124l0.394 -0.366 -0.082 -0.078 0.172 -0.161 -0.148 -0.138 0.116 -0.107 0.189 0.177L3.918 0l-0.397 -0.366 -0.189 0.177 -0.116 -0.107 0.148 -0.138 -0.172 -0.161 0.082 -0.076 -0.394 -0.367zm0 0.761v0.557l0.085 -0.085V0.071h0.109L3.144 0l-0.071 -0.071h-0.109v-0.123l-0.085 -0.085zm0.709 0.215 -0.01 0.058 0.01 0.058 0.062 -0.058z" fill="#ffc72c"/></g></g><use height="100%" width="100%" y="109.207" xlink:href="#c" fill="#383739"/><use height="100%" width="100%" y="222.005" xlink:href="#c" fill="#383739"/><use height="100%" width="100%" y="334.802" xlink:href="#c" fill="#383739"/><use height="100%" width="100%" y="447.598" xlink:href="#c" fill="#383739"/><g transform="matrix(-1 0 0 1 377.996 0)" fill="#383739"><g clip-path="url(#b)"><path d="M2.88 -1.057v0.157l0.243 0.227 -0.082 0.076 0.174 0.161 -0.076 0.069v-0.1h-0.148v0.12l0.335 0.314h0.169l0.018 -0.11h-0.097l0.106 -0.099L3.787 0l-0.266 0.243 -0.106 -0.099h0.097l-0.018 -0.112h-0.169L2.99 0.346v0.12h0.148v-0.1l0.076 0.069 -0.174 0.161 0.082 0.078 -0.243 0.226v0.157l0.411 -0.383 -0.082 -0.078 0.172 -0.161 -0.148 -0.138 0.099 -0.09 0.189 0.175L3.936 0l-0.415 -0.381 -0.189 0.177 -0.099 -0.092 0.148 -0.138 -0.172 -0.161 0.082 -0.076 -0.411 -0.384zm0 0.761v0.59l0.096 -0.097v-0.114h0.102L3.16 0l-0.082 -0.082H2.976v-0.116l-0.096 -0.097zm0.701 0.209 -0.014 0.081 0.014 0.082 0.088 -0.082z"/><path d="M2.88 -1.04v0.124l0.26 0.243 -0.082 0.076 0.174 0.161 -0.105 0.097v-0.117h-0.126v0.105l0.329 0.306h0.153l0.016 -0.088h-0.113l0.136 -0.127L3.804 0l-0.283 0.258 -0.136 -0.126h0.113l-0.016 -0.089h-0.153L3.001 0.35v0.105h0.126v-0.117l0.105 0.097 -0.174 0.161 0.082 0.078 -0.26 0.242v0.124l0.394 -0.366 -0.082 -0.078 0.172 -0.161 -0.148 -0.138 0.116 -0.107 0.189 0.177L3.918 0l-0.397 -0.366 -0.189 0.177 -0.116 -0.107 0.148 -0.138 -0.172 -0.161 0.082 -0.076 -0.394 -0.367zm0 0.761v0.557l0.085 -0.085V0.071h0.109L3.144 0l-0.071 -0.071h-0.109v-0.123l-0.085 -0.085zm0.709 0.215 -0.01 0.058 0.01 0.058 0.062 -0.058z" fill="#ffc72c"/></g><use height="100%" width="100%" y="109.207" xlink:href="#c"/><use height="100%" width="100%" y="222.005" xlink:href="#c"/><use height="100%" width="100%" y="334.802" xlink:href="#c"/><use height="100%" width="100%" y="447.598" xlink:href="#c"/></g><path d="M3.23 14.155c0.021 0.091 0.094 0.159 0.111 0.254 0.034 -0.098 0.066 -0.181 0.043 -0.288 -0.017 -0.077 -0.082 -0.132 -0.089 -0.211 -0.071 0.063 -0.086 0.153 -0.064 0.245zm-0.018 0.381c0.06 0.082 0.143 0.145 0.235 0.187 -0.018 -0.072 0.016 -0.126 0.053 -0.183 0.045 -0.069 0.067 -0.136 0.03 -0.215 -0.017 0.041 -0.04 0.075 -0.068 0.11 -0.04 0.055 -0.067 0.104 -0.073 0.174 -0.046 -0.034 -0.067 -0.086 -0.092 -0.136 -0.038 -0.071 -0.099 -0.131 -0.169 -0.17 0.019 0.08 0.033 0.165 0.083 0.232zm0.335 0.244c-0.013 0.046 -0.024 0.091 -0.021 0.138 -0.04 -0.043 -0.092 -0.075 -0.139 -0.109 -0.064 -0.052 -0.138 -0.088 -0.19 -0.154 0.008 0.097 0.049 0.175 0.128 0.234 0.083 0.062 0.183 0.096 0.265 0.161 -0.012 -0.088 0.02 -0.158 0.048 -0.239 0.023 -0.077 0.001 -0.156 -0.052 -0.214 0.001 0.065 -0.02 0.121 -0.038 0.183zm0.186 0.297c0.017 0.067 0.065 0.121 0.098 0.18 -0.088 -0.027 -0.166 -0.075 -0.245 -0.12 -0.095 -0.052 -0.198 -0.084 -0.283 -0.153 0.043 0.158 0.148 0.25 0.303 0.296 0.106 0.032 0.195 0.016 0.323 0.068 -0.015 -0.087 -0.041 -0.181 -0.082 -0.259 -0.032 -0.057 -0.067 -0.113 -0.087 -0.175 -0.029 0.051 -0.042 0.103 -0.027 0.162zm0.324 0.242a0.406 0.406 0 0 0 0.12 0.13c-0.125 0.008 -0.225 -0.071 -0.347 -0.075 -0.075 -0.002 -0.147 0.021 -0.223 0.014 0.091 0.061 0.186 0.115 0.297 0.129 0.144 0.019 0.277 -0.018 0.436 -0.003 -0.074 -0.052 -0.111 -0.123 -0.158 -0.198 -0.06 -0.094 -0.117 -0.161 -0.234 -0.176 0.047 0.053 0.074 0.118 0.11 0.179zm0.443 0.207c-0.22 0.037 -0.431 0.086 -0.655 0.088 0.251 0.088 0.488 0.104 0.738 0.013 0.135 -0.049 0.238 -0.075 0.34 -0.068 0.149 0.011 0.33 0.069 0.53 0.28l0.079 -0.063c-0.287 -0.256 -0.662 -0.313 -1.031 -0.251z" fill="#ffc72c"/><path d="m3.42 1.876 -0.346 -0.212V1.153l0.346 -0.212V0.671l0.327 -0.197h0.261l0.497 -0.28h1.068l0.497 0.28h0.261l0.327 0.197v0.27l0.346 0.212v0.51l-0.346 0.212v0.27l-0.327 0.197h-0.261L5.574 2.622h-1.068l-0.497 -0.28h-0.261l-0.327 -0.197z" fill="#383739"/><path d="M4.508 0.206 4.011 0.486h-0.26l-0.319 0.192V0.948l-0.346 0.212v0.497l0.346 0.212v0.271l0.318 0.192h0.261l0.497 0.28h1.062l0.497 -0.28h0.261l0.319 -0.192v-0.271l0.346 -0.212V1.16l-0.346 -0.212V0.678l-0.319 -0.192h-0.261L5.571 0.206h-1.062zm0.03 0.103h1.004l0.497 0.28h0.26l0.242 0.145V1.004l0.347 0.212V1.6l-0.347 0.212v0.27l-0.242 0.145h-0.26L5.542 2.507h-1.004l-0.497 -0.28h-0.26l-0.243 -0.145V1.812l-0.346 -0.212V1.216l0.346 -0.212V0.734l0.243 -0.145h0.26z" fill="#00843d"/><path d="M5.034 1.414V0.32h-0.493L4.043 0.6h-0.259l-0.235 0.141v0.269l-0.346 0.212v0.18h1.842v1.094h0.493l0.497 -0.28h0.259l0.235 -0.141v-0.269l0.346 -0.212v-0.18z" fill="#ffc72c"/><path d="M3.203 1.414v0.18l0.346 0.212v0.269l0.235 0.141h0.259l0.497 0.28h0.493v-1.094h1.842v-0.18l-0.346 -0.212v-0.269l-0.235 -0.141h-0.259l-0.497 -0.28h-0.493v1.094z" fill="#fff"/><g id="e" fill="#383739"><g id="d"><path d="m3.959 0.701 -0.085 -0.079 -0.084 0.052 0.085 0.08 -0.11 0.068h0.239l0.206 0.194 0.066 -0.07 -0.2 -0.189v-0.128z"/><path d="m4.362 0.666 -0.085 -0.079 -0.084 0.052 0.085 0.08 -0.11 0.068h0.239l0.206 0.194 0.066 -0.07 -0.2 -0.189v-0.128zm-0.433 0.263 -0.085 -0.079 -0.084 0.052 0.085 0.08 -0.11 0.068h0.239l0.206 0.194 0.066 -0.07 -0.2 -0.189v-0.128z"/><path d="M5.04 0.309h-0.216l-0.113 0.109h-0.22l-0.163 0.084 0.038 0.092 0.145 -0.076h0.064l0.222 0.257 0.243 -0.148z"/><path d="m3.872 0.636 0.077 0.071 -0.064 0.04 -0.077 -0.071zm0.192 0.013v0.113l0.196 0.185 -0.05 0.053 -0.201 -0.19h-0.204l0.259 -0.161zm0.211 -0.048 0.077 0.071 -0.064 0.04 -0.077 -0.071zm0.192 0.013v0.113l0.196 0.185 -0.05 0.053 -0.201 -0.19h-0.204l0.259 -0.161z" fill="#d22730"/><path d="m3.842 0.864 0.077 0.071 -0.064 0.04 -0.077 -0.071zm0.192 0.013v0.113l0.196 0.185 -0.05 0.053 -0.201 -0.19h-0.204l0.259 -0.161zm1 -0.557h-0.205l-0.113 0.109h-0.222l-0.151 0.078 0.029 0.071 0.136 -0.072h0.072l0.22 0.254 0.235 -0.143z" fill="#d22730"/></g><use height="100%" width="100%" transform="matrix(1 0 0 -1 0 105.623)" xlink:href="#d"/><path d="m3.815 1.059 -0.103 -0.038 -0.002 0.002 -0.133 0.092v0.025l-0.213 0.269 0.213 0.269v0.025l0.135 0.094 0.103 -0.038 -0.063 -0.042v-0.079l0.025 -0.03h0.111V1.21h-0.111l-0.025 -0.03V1.101z"/><path d="m3.588 1.12 0.125 -0.087 0.076 0.029 -0.049 0.033v0.089l0.031 0.037h0.105v0.375h-0.105l-0.031 0.037v0.089l0.049 0.033 -0.076 0.029 -0.125 -0.087v-0.023l-0.21 -0.265 0.21 -0.265z" fill="#d22730"/></g><use height="100%" width="100%" transform="matrix(-1 0 0 1 377.994 0)" xlink:href="#e" fill="#383739"/><path d="m3.632 1.634 -0.058 -0.05v-0.024l-0.124 -0.152 0.124 -0.152v-0.024l0.058 -0.05 0.104 0.085 -0.06 0 0.089 0.09h0.203l0.159 -0.125V0.903h0.399l0.463 -0.284v-0.075l-0.071 -0.047h-0.022l-0.077 0.052 -0.012 0.039 -0.06 -0.082 0.117 -0.099h0.019l0.132 -0.097h0.05l0.132 0.097h0.019l0.117 0.099 -0.06 0.082 -0.012 -0.039 -0.077 -0.052h-0.022l-0.071 0.047v0.075l0.463 0.284h0.399v0.329l0.159 0.125h0.203l0.089 -0.09 -0.06 0 0.104 -0.085 0.058 0.05v0.024l0.124 0.152 -0.124 0.152v0.024l-0.058 0.05 -0.104 -0.085 0.06 0 -0.089 -0.09h-0.203l-0.159 0.125V1.914h-0.399l-0.463 0.284v0.075l0.071 0.047h0.022l0.077 -0.052 0.012 -0.039 0.06 0.082 -0.117 0.099h-0.019l-0.132 0.097h-0.05l-0.132 -0.097h-0.019l-0.117 -0.099 0.06 -0.082 0.012 0.039 0.077 0.052h0.022l0.071 -0.047V2.198l-0.463 -0.284h-0.399V1.585l-0.16 -0.125h-0.203l-0.089 0.09 0.06 0z" fill="#383739"/><path d="m5.046 2.329 0.051 0.039 -0.051 0.039V2.329zm-0.161 0.071h0.002l0.132 0.097h0.015v-0.076l-0.069 -0.053 0.069 -0.053v-0.142l-0.496 -0.304H4.172V1.562l-0.189 -0.148h-0.285l-0.072 0.081 -0.072 -0.081h-0.085l0.116 0.142v0.023l0.046 0.04 0.074 -0.058 -0.043 0v-0.014l0.097 -0.099h0.213l0.167 0.131V1.902h0.391l0.471 0.289v0.087l-0.079 0.053h-0.029l-0.083 -0.056 -0.006 -0.021 -0.041 0.055 0.106 0.089h0.016zm-1.259 -1.06 0.056 0.064h-0.113zm1.408 -0.928 -0.051 0.039 0.051 0.039zm1.363 1.003 0.056 0.064 0.056 -0.064zm-1.204 -0.996 -0.132 -0.097h-0.015v0.076l0.069 0.053 -0.069 0.053v0.142l0.496 0.304h0.366V1.255l0.189 0.148h0.285l0.072 -0.081 0.072 0.081h0.085l-0.116 -0.142v-0.023l-0.046 -0.04 -0.074 0.058 0.043 0v0.014l-0.097 0.099h-0.213l-0.167 -0.131V0.914h-0.391l-0.471 -0.289v-0.087l0.079 -0.053h0.029l0.083 0.056 0.006 0.021 0.041 -0.055 -0.106 -0.089h-0.018z" fill="#ffc72c"/><path d="m5.034 2.406 -0.051 -0.039 0.051 -0.039zm-1.352 -0.992 -0.056 0.064 -0.056 -0.064zm1.513 0.985h-0.002l-0.132 0.097h-0.015v-0.076l0.069 -0.053 -0.069 -0.053v-0.142l0.496 -0.304h0.366V1.562l0.189 -0.148h0.285l0.072 0.081 0.072 -0.081h0.085l-0.116 0.142v0.023l-0.046 0.04 -0.074 -0.058 0.043 0v-0.014l-0.097 -0.099h-0.213l-0.167 0.131v0.323h-0.391L5.079 2.191v0.087l0.079 0.053h0.029l0.083 -0.056 0.006 -0.021 0.041 0.055 -0.106 0.089h-0.016zm1.259 -1.06 -0.056 0.064h0.113zM4.886 0.418l0.132 -0.097h0.015v0.076l-0.069 0.053 0.069 0.053v0.142l-0.496 0.304h-0.366V1.255l-0.189 0.148h-0.285l-0.072 -0.081 -0.072 0.081H3.469l0.116 -0.142v-0.023l0.046 -0.04 0.074 0.058 -0.043 0v0.014l0.097 0.099h0.213l0.167 -0.131V0.914h0.391l0.471 -0.289v-0.087l-0.079 -0.053h-0.029l-0.083 0.056 -0.006 0.021 -0.041 -0.055 0.106 -0.089h0.018zm0.159 0.071 0.051 -0.039 -0.051 -0.039z" fill="#fff"/><path d="M5.034 1.414V0.658l-0.493 0.302H4.183v0.3l-0.182 0.142h1.044v0.756l0.492 -0.302h0.358V1.556l0.182 -0.142z" fill="#00843d"/><path d="m4.001 1.414 0.182 0.142v0.3h0.358l0.493 0.302V1.403l1.044 0 -0.182 -0.142V0.96h-0.358l-0.492 -0.302v0.756z" fill="#d22730"/><path d="m4.51 1.042 -0.085 -0.079 -0.084 0.052 0.085 0.08 -0.11 0.068h0.239l0.206 0.194 0.066 -0.07 -0.2 -0.189v-0.128zm1.06 0.733 0.085 0.079 0.084 -0.052 -0.085 -0.08 0.11 -0.068h-0.239l-0.206 -0.194 -0.066 0.07 0.2 0.189v0.128zm-1.06 0 -0.085 0.079 -0.084 -0.052 0.085 -0.08 -0.11 -0.068h0.239l0.206 -0.194 0.066 0.07 -0.2 0.189v0.128zm1.06 -0.733 0.085 -0.079 0.084 0.052 -0.085 0.08 0.11 0.068h-0.239l-0.206 0.194 -0.066 -0.07 0.2 -0.189v-0.128z" fill="#383739"/><path d="m5.657 1.84 -0.077 -0.071 0.064 -0.04 0.077 0.071zm-0.192 -0.013V1.714l-0.196 -0.185 0.05 -0.053 0.201 0.19h0.204l-0.259 0.161zM4.423 0.977l0.077 0.071 -0.064 0.04 -0.077 -0.071zm0.192 0.013v0.113l0.196 0.185 -0.05 0.053 -0.201 -0.19h-0.204l0.259 -0.161z" fill="#d22730"/><path d="m5.657 0.977 -0.077 0.071 0.064 0.04 0.077 -0.071zm-0.192 0.013v0.113l-0.196 0.185 0.05 0.053 0.201 -0.19h0.204l-0.259 -0.161zM4.423 1.84l0.077 -0.071 -0.064 -0.04 -0.077 0.071zm0.192 -0.013V1.714l0.196 -0.185 -0.05 -0.053 -0.201 0.19h-0.204l0.259 0.161z" fill="#00843d"/><path d="m5.569 1.408 -0.53 0.353 -0.53 -0.353 0.53 -0.353z" fill="#383739"/><path d="m5.034 1.073 -0.495 0.33h1.001l-0.495 -0.33V1.744l0.495 -0.33h-1.001l0.495 0.33z" fill="#fff"/><path d="M5.182 1.53v0.097h-0.283v-0.097h-0.183V1.287h0.183v-0.097h0.283v0.097h0.183v0.243z" fill="#383739"/><path d="M4.91 1.201v0.097h-0.183v0.104h0.308v-0.201h-0.124zm0.136 0.201h0.308v-0.104h-0.183v-0.097h-0.124v0.201zm-0.319 0.011v0.104h0.183v0.097h0.124v-0.201h-0.308zm0.319 0.201h0.124v-0.097h0.183v-0.104h-0.308v0.201z" fill="#d22730"/><path d="M5.943 5.43v-0.155h0.426v-0.155h0.426v-1.405h-0.426v-0.155h-0.426v-0.155h-0.426v-0.155h-0.954v0.155h-0.426v0.155H3.71v0.155h-0.426v1.405h0.426v0.155h0.426v0.155h0.426v0.155h0.954v-0.155z" fill="#383739"/><path d="M4.575 3.258v0.155h-0.427v0.155h-0.427v0.155H3.295v1.383h0.427v0.155h0.427v0.155h0.427v0.155h0.931v-0.155h0.427v-0.155h0.427v-0.155h0.427v-1.383h-0.427v-0.155h-0.427v-0.155h-0.427v-0.155zm0.113 0.113h0.705v0.155h0.427v0.155h0.427v0.155h0.427v1.157h-0.427v0.155h-0.427v0.155h-0.427v0.155h-0.705v-0.155H4.261v-0.155h-0.427v-0.155h-0.427v-1.157h0.427v-0.155H4.261v-0.155h0.427z" fill="#ffc72c"/><path d="M4.272 5.294v-0.155h-0.426v-0.155h-0.426v-1.133h0.426v-0.155h0.426v-0.155h0.426v-0.155h0.683v0.155h0.426v0.155h0.426v0.155h0.426v1.133h-0.426v0.155h-0.426v0.155h-0.426v0.155h-0.683v-0.155z" fill="#d22730"/><path d="m4.371 3.654 -0.11 -0.083v0.16l-0.106 0.067 0 -0.1 -0.101 0.091 -0.101 -0.091 0 0.1 -0.117 -0.074v0.149l-0.095 0.069 0 -0.091 -0.113 0.081 -0.113 -0.081 0 0.091 -0.106 -0.077v0.45h-0.124v0.205h0.124v0.45l0.106 -0.077 0 0.091 0.113 -0.081 0.112 0.081 0 -0.091 0.095 0.069v0.149l0.117 -0.074 0 0.1 0.101 -0.091 0.101 0.091 0 -0.1 0.106 0.067v0.16l0.11 -0.083 0 0.112 0.108 -0.097 0.108 0.097 0 -0.112 0.099 0.075v0.171l0.148 -0.135v0.159l0.205 -0.132 0.205 0.132v-0.159l0.148 0.135v-0.171l0.099 -0.075 0 0.112 0.108 -0.097 0.108 0.097 0 -0.112 0.11 0.083v-0.16l0.106 -0.067 0 0.1 0.101 -0.091 0.101 0.091 0 -0.1 0.117 0.074v-0.149l0.095 -0.069 0 0.091 0.112 -0.081 0.113 0.081 0 -0.091 0.106 0.077V4.519h0.124v-0.205h-0.124v-0.45l-0.106 0.077 0 -0.091 -0.113 0.081 -0.113 -0.081 0 0.091 -0.095 -0.069v-0.149l-0.117 0.074 0 -0.1 -0.101 0.091 -0.101 -0.091 0 0.1 -0.106 -0.067v-0.16l-0.11 0.083 0 -0.112 -0.108 0.097 -0.108 -0.097 0 0.112 -0.099 -0.075v-0.171l-0.148 0.135v-0.159l-0.205 0.132 -0.205 -0.132v0.159l-0.148 -0.135v0.171l-0.099 0.075 0 -0.112 -0.108 0.097 -0.108 -0.097z" fill="#383739"/><path d="m3.526 3.963 0 -0.091 0.101 0.073 0.003 -0.002 0.098 -0.071 0 0.091 0.106 -0.077v1.061l-0.106 -0.077 0 0.091 -0.101 -0.073 -0.101 0.073 0 -0.091 -0.106 0.077v-0.439h-0.124v-0.182h0.124v-0.439zm0.857 -0.396 0.097 0.087 0.097 -0.087 0 0.109 0.11 -0.083v1.646l-0.11 -0.083 0 0.109 -0.097 -0.087 -0.097 0.087 0 -0.109 -0.11 0.083v-1.646l0.11 0.083zm1.314 0 -0.097 0.087 -0.097 -0.087 0 0.109 -0.11 -0.083v1.646l0.11 -0.083 0 0.109 0.097 -0.087 0.097 0.087 0 -0.109 0.11 0.083v-1.646l-0.11 0.083zm0.857 0.396 0 -0.091 -0.101 0.073 -0.003 -0.002 -0.098 -0.071 0 0.091 -0.106 -0.077v1.061l0.106 -0.077 0 0.091 0.101 -0.073 0.101 0.073 0 -0.091 0.106 0.077v-0.439h0.124v-0.182h-0.124v-0.439z" fill="#00843d"/><path d="m3.963 3.723 0.09 0.081 0.09 -0.081 0 0.096 0.117 -0.074v1.344l-0.117 -0.074 0 0.096 -0.09 -0.081 -0.09 0.081 0 -0.096 -0.117 0.074v-1.344l0.117 0.074zm0.883 -0.154 -0.148 -0.135v1.965l0.148 -0.135v0.163l0.193 -0.124 0.193 0.124v-0.163l0.148 0.135v-1.965l-0.148 0.135v-0.163l-0.193 0.124 -0.193 -0.124zm1.27 0.154 -0.09 0.081 -0.09 -0.081 0 0.096 -0.117 -0.074v1.344l0.117 -0.074 0 0.096 0.09 -0.081 0.09 0.081 0 -0.096 0.117 0.074v-1.344l-0.117 0.074z" fill="#ffc72c"/><g id="g" fill="#383739"><g id="f"><path d="M3.581 4.223c0.013 0.013 0.028 0.02 0.046 0.02 0.018 0 0.033 -0.007 0.046 -0.02 0.04 -0.041 0.042 -0.115 0.041 -0.168l-0.055 0.058 -0.032 -0.056s-0.026 0.045 -0.032 0.056l-0.055 -0.058c0 0.053 0.001 0.127 0.041 0.168zm0.445 -0.114 -0.034 -0.034v-0.068l-0.078 0.073L4.053 4.219l0.14 -0.14 -0.078 -0.073v0.068l-0.034 0.034v-0.12l0.06 -0.052 -0.088 -0.076 -0.088 0.076 0.06 0.052zm0.426 -0.135 -0.034 -0.034v-0.068l-0.078 0.073 0.14 0.14 0.14 -0.14 -0.078 -0.073v0.068l-0.034 0.034v-0.12l0.06 -0.052 -0.088 -0.076 -0.088 0.076 0.06 0.052z"/><path d="m3.627 4.081 0.03 0.052 0.046 -0.048c-0.002 0.06 -0.015 0.107 -0.038 0.13 -0.011 0.011 -0.023 0.016 -0.038 0.016 -0.014 0 -0.027 -0.005 -0.038 -0.016 -0.023 -0.023 -0.036 -0.07 -0.038 -0.13l0.046 0.048 0.03 -0.052zm0.869 -0.233v0.153l0.057 -0.057v-0.046l0.05 0.047 -0.124 0.124 -0.124 -0.124 0.05 -0.047v0.046l0.057 0.057v-0.153l-0.054 -0.047 0.07 -0.06 0.07 0.06z" fill="#fff"/><path d="M4.07 3.983v0.153l0.057 -0.057v-0.046l0.05 0.047 -0.124 0.124 -0.124 -0.124 0.05 -0.047v0.046l0.057 0.057v-0.153l-0.054 -0.047 0.07 -0.06 0.07 0.06z" fill="#d22730"/></g><use height="100%" width="100%" transform="matrix(-1 0 0 1 377.996 0)" xlink:href="#f"/><path d="m5.208 4.025 -0.046 -0.063 0.118 -0.109 -0.11 -0.09v0.064l-0.046 0.039v-0.116l0.104 -0.076 -0.187 -0.138 -0.187 0.138 0.104 0.076v0.116l-0.046 -0.039v-0.064l-0.11 0.09 0.118 0.109 -0.046 0.063z"/><path d="m4.895 4.014 0.039 -0.053 -0.115 -0.107 0.081 -0.066v0.045l0.069 0.059v-0.146l-0.096 -0.071 0.168 -0.124 0.168 0.124 -0.096 0.071v0.146l0.069 -0.059v-0.045l0.081 0.066 -0.115 0.107 0.039 0.053z" fill="#d22730"/><path d="m4.954 3.674 0.086 0.063 0.086 -0.063 -0.086 -0.063 -0.003 0.003z"/><path d="m5.04 3.625 0.066 0.049 -0.066 0.049 -0.066 -0.049 0.066 -0.049z" fill="#00843d"/></g><use height="100%" width="100%" transform="matrix(1 0 0 -1 0 331.216)" xlink:href="#g" fill="#383739"/><path d="M6.557 4.351h-0.188v-0.075h-0.574l-0.399 -0.262h-0.714l-0.399 0.262h-0.574v0.075h-0.188v0.131h0.188v0.075h0.574l0.399 0.262h0.714l0.399 -0.262h0.574v-0.075h0.188z" fill="#383739"/><path d="m4.686 4.025 -0.4 0.261h-0.565v0.075h-0.188v0.109h0.188v0.075h0.565l0.4 0.263h0.708l0.398 -0.263h0.566v-0.075h0.188v-0.109h-0.188v-0.075h-0.566l-0.398 -0.261zm0.008 0.038h0.689l0.366 0.24v0.037h0.408v0.153h-0.408v0.037l-0.366 0.239H4.695l-0.364 -0.239v-0.037h-0.41v-0.153h0.41v-0.037z" fill="#d22730"/><path d="m5.381 4.075 0.357 0.234v0.042h0.409v0.13h-0.409v0.042l-0.357 0.234h-0.683l-0.357 -0.234v-0.042h-0.409v-0.13h0.409v-0.042l0.357 -0.234z" fill="#d22730"/><g fill="#383739"><path d="m4.521 4.549 0.154 0.116 0.102 -0.076 -0.059 -0.044 -0.043 0.032 -0.036 -0.027 0.582 -0.437h-0.118zm0.337 0.171h0.118l0.582 -0.437 -0.154 -0.116 -0.102 0.076 0.059 0.044 0.043 -0.032 0.036 0.027zm0.245 0h0.118l-0.582 -0.437 0.036 -0.027 0.043 0.032 0.059 -0.044 -0.102 -0.076 -0.154 0.116zm0.337 -0.171 -0.036 0.027 -0.043 -0.032 -0.059 0.044 0.102 0.076 0.154 -0.116 -0.582 -0.437h-0.118zm-1.036 -0.133 0.104 0.069 0.104 -0.069 -0.104 -0.069z"/><path d="m4.936 4.416 0.104 0.069 0.104 -0.069 -0.104 -0.069zm0.739 0 -0.104 0.069 -0.104 -0.069 0.104 -0.069z"/><path d="m5.539 4.549 -0.135 0.102 -0.083 -0.062 0.04 -0.03 0.043 0.032 0.055 -0.042 -0.567 -0.425h0.08zm-0.352 0.159h-0.08l-0.567 -0.425 0.135 -0.102 0.083 0.062 -0.04 0.03 -0.043 -0.032 -0.055 0.042zm-0.214 0h-0.08l0.567 -0.425 -0.055 -0.042 -0.043 0.032 -0.04 -0.03 0.083 -0.062 0.135 0.102zm0.134 -0.585h0.08l-0.567 0.425 0.055 0.042 0.043 -0.032 0.04 0.03 -0.083 0.062 -0.135 -0.102z" fill="#ffc72c"/><path d="m4.508 4.361 0.083 0.055 -0.083 0.055 -0.083 -0.055zm0.532 0 0.083 0.055 -0.083 0.055 -0.083 -0.055zm0.532 0 -0.083 0.055 0.083 0.055 0.083 -0.055z" fill="#00843d"/></g><g fill="#383739"><path d="m3.214 7.311 -0.041 0.058 0.073 0.056 -0.073 0.056 0.041 0.058 0.085 0.01 0.082 -0.063 0.205 0.13v-0.108l-0.129 -0.082 0.129 -0.082v-0.108l-0.205 0.13 -0.082 -0.063z"/><path d="m3.214 6.935 -0.041 0.058 0.073 0.056 -0.073 0.056 0.041 0.058 0.085 0.01 0.082 -0.063 0.205 0.13v-0.108l-0.129 -0.082 0.129 -0.082v-0.108l-0.205 0.13 -0.082 -0.063zm0 0.978 -0.041 -0.058 0.073 -0.056 -0.073 -0.056 0.041 -0.058 0.085 -0.01 0.082 0.063 0.205 -0.13v0.108l-0.129 0.082 0.129 0.082v0.108l-0.205 -0.13 -0.082 0.063zm3.652 -0.602 0.041 0.058 -0.073 0.056 0.073 0.056 -0.041 0.058 -0.085 0.01 -0.082 -0.063 -0.205 0.13v-0.108l0.129 -0.082 -0.129 -0.082v-0.108l0.205 0.13 0.082 -0.063z"/><path d="m6.866 6.935 0.041 0.058 -0.073 0.056 0.073 0.056 -0.041 0.058 -0.085 0.01 -0.082 -0.063 -0.205 0.13v-0.108l0.129 -0.082 -0.129 -0.082v-0.108l0.205 0.13 0.082 -0.063zm0 0.978 0.041 -0.058 -0.073 -0.056 0.073 -0.056 -0.041 -0.058 -0.085 -0.01 -0.082 0.063 -0.205 -0.13v0.108l0.129 0.082 -0.129 0.082v0.108l0.205 -0.13 0.082 0.063zm-0.82 -1.627v0.156h0.114v0.069h0.112v-0.126h-0.1v-0.099zm0.335 0.246v0.156h0.113v0.069h0.112v-0.126h-0.1v-0.099zm-2.347 -0.246v0.156h-0.114v0.069h-0.112v-0.126h0.1v-0.099zm2.012 2.276v-0.156h0.114v-0.069h0.112v0.126h-0.1v0.1zm-2.012 0v-0.156h-0.114v-0.069h-0.112v0.126h0.1v0.1zm2.347 -0.246v-0.156h0.113v-0.069h0.112v0.126h-0.1v0.1zm-2.682 -1.784v0.156h-0.113v0.069h-0.112v-0.126h0.1v-0.099zm0 1.784v-0.156h-0.113v-0.069h-0.112v0.126h0.1v0.1zm1.761 -2.033 -0.087 -0.084 -0.085 0.079 0.074 0.072 -0.096 0.093h0.142l0.051 -0.05 0.051 0.05h0.142l-0.096 -0.093 0.074 -0.072 -0.085 -0.079c-0.029 0.028 -0.058 0.056 -0.087 0.084zm-0.42 0 -0.087 -0.084 -0.085 0.079 0.074 0.072 -0.096 0.093h0.142l0.051 -0.05 0.051 0.05h0.142l-0.096 -0.093 0.074 -0.072 -0.085 -0.079c-0.029 0.028 -0.058 0.056 -0.087 0.084zm-0.42 0 0.087 -0.084 0.085 0.079 -0.074 0.072 0.096 0.093h-0.142l-0.051 -0.05 -0.051 0.05h-0.142l0.096 -0.093 -0.074 -0.072 0.085 -0.079c0.029 0.028 0.058 0.056 0.087 0.084zm0.84 2.283 -0.087 0.084 -0.085 -0.079 0.074 -0.072 -0.096 -0.093h0.142l0.051 0.05 0.051 -0.05h0.142l-0.096 0.093 0.074 0.072 -0.085 0.079c-0.029 -0.028 -0.058 -0.056 -0.087 -0.084zm-0.42 0 -0.087 0.084 -0.085 -0.079 0.074 -0.072 -0.096 -0.093h0.142l0.051 0.05 0.051 -0.05h0.142l-0.096 0.093 0.074 0.072 -0.085 0.079c-0.029 -0.028 -0.058 -0.056 -0.087 -0.084zm-0.42 0 0.087 0.084 0.085 -0.079 -0.074 -0.072 0.096 -0.093h-0.142l-0.051 0.05 -0.051 -0.05h-0.142l0.096 0.093 -0.074 0.072 0.085 0.079c0.029 -0.028 0.058 -0.056 0.087 -0.084z"/></g><path d="M3.574 7.512v0.081l-0.194 -0.123 -0.085 0.066 -0.075 -0.009 -0.031 -0.044 0.076 -0.058 -0.076 -0.058 0.031 -0.044 0.075 -0.009 0.085 0.066 0.194 -0.123v0.081l-0.139 0.088zm0 -0.375v0.081l-0.194 -0.123 -0.085 0.066 -0.075 -0.009 -0.031 -0.044 0.076 -0.058 -0.076 -0.058 0.031 -0.044 0.075 -0.009 0.085 0.066 0.194 -0.123v0.081l-0.139 0.088zm0 0.574v-0.081l-0.194 0.123 -0.085 -0.066 -0.075 0.009 -0.031 0.044 0.076 0.058 -0.076 0.058 0.031 0.044 0.075 0.009 0.085 -0.066 0.194 0.123v-0.081l-0.139 -0.088zm2.932 -0.199v0.081l0.194 -0.123 0.085 0.066 0.075 -0.009 0.031 -0.044 -0.076 -0.058 0.076 -0.058 -0.031 -0.044 -0.075 -0.009 -0.085 0.066 -0.194 -0.123v0.081l0.139 0.088zm0 -0.375v0.081l0.194 -0.123 0.085 0.066 0.075 -0.009 0.031 -0.044 -0.076 -0.058 0.076 -0.058 -0.031 -0.044 -0.075 -0.009 -0.085 0.066 -0.194 -0.123v0.081l0.139 0.088zm0 0.574v-0.081l0.194 0.123 0.085 -0.066 0.075 0.009 0.031 0.044 -0.076 0.058 0.076 0.058 -0.031 0.044 -0.075 0.009 -0.085 -0.066 -0.194 0.123v-0.081l0.139 -0.088zm-0.345 -1.414v0.1h0.099v0.103h-0.089v-0.069h-0.114v-0.133zm0.335 0.246v0.099h0.099v0.103h-0.089v-0.069h-0.114v-0.133zm-2.575 -0.246v0.1h-0.099v0.103h0.089v-0.069h0.114v-0.133zm2.241 2.253v-0.099h0.099v-0.103h-0.089v0.069h-0.114v0.133zm-2.241 0v-0.099h-0.1v-0.103h0.089v0.069h0.114v0.133zm2.575 -0.246v-0.099h0.099v-0.103h-0.089v0.069h-0.114v0.133zM3.585 6.544v0.099h-0.099v0.103h0.089v-0.069h0.114v-0.133zm0 1.761v-0.099h-0.1v-0.103h0.089v0.069h0.114v0.133zm1.788 -2.09 0.087 0.084 0.087 -0.084 0.068 0.063 -0.074 0.072 0.084 0.082h-0.109l-0.056 -0.054 -0.056 0.054h-0.109l0.084 -0.082 -0.074 -0.072 0.068 -0.063zm-0.42 0 0.087 0.084 0.087 -0.084 0.068 0.063 -0.074 0.072 0.084 0.082h-0.109l-0.056 -0.054 -0.056 0.054h-0.109l0.084 -0.082 -0.074 -0.072 0.068 -0.063zm-0.246 0 -0.087 0.084 -0.087 -0.084 -0.068 0.063 0.074 0.072 -0.084 0.082h0.109l0.056 -0.054 0.056 0.054h0.109l-0.084 -0.082 0.074 -0.072 -0.068 -0.063zm0.667 2.42 0.087 -0.084 0.087 0.084 0.068 -0.063 -0.074 -0.072 0.084 -0.082h-0.109l-0.056 0.054 -0.056 -0.054h-0.109l0.084 0.082 -0.074 0.072 0.068 0.063zm-0.42 0 0.087 -0.084 0.087 0.084 0.068 -0.063 -0.074 -0.072 0.084 -0.082h-0.109l-0.056 0.054 -0.056 -0.054h-0.109l0.084 0.082 -0.074 0.072 0.068 0.063zm-0.246 0 -0.087 -0.084 -0.087 0.084 -0.068 -0.063 0.074 -0.072 -0.084 -0.082h0.109l0.056 0.054 0.056 -0.054h0.109l-0.084 0.082 0.074 0.072 -0.068 0.063z" fill="#00843d"/><path d="M3.909 8.171v0.246h2.262v-0.246h0.335v-1.494h-0.335v-0.246H3.909v0.246h-0.335v1.494z" fill="#383739"/><path d="M3.921 6.442v0.246h-0.335v1.472h0.335v0.246h2.239v-0.246h0.335v-1.472h-0.335v-0.246h-2.239zm0.144 0.095h1.951v0.237l0.081 0.059h0.304v1.182h-0.305l-0.079 0.058v0.239h-1.951v-0.237l-0.081 -0.059h-0.305v-1.182h0.304l0.082 -0.059v-0.237z" fill="#ffc72c"/><path d="M4.076 6.548v0.218l0.294 -0.218zm1.633 0 0.294 0.218v-0.218zm-2.017 0.297v0.203l0.277 -0.203h-0.277zm2.418 0 0.278 0.205v-0.205zm0.278 0.953 -0.278 0.206h0.278zm-2.696 0.001v0.205h0.277zm0.384 0.284v0.216h0.292zm1.927 0 -0.292 0.216h0.292z" fill="#d22730"/><path d="m5.69 6.548 0.698 0.516v0.72l-0.698 0.516h-1.3l-0.698 -0.516V7.064l0.698 -0.516z" fill="#00843d"/><path d="m3.858 7.867 -0.08 -0.093 0.075 -0.087 -0.075 -0.087 0.075 -0.087 -0.075 -0.087 0.075 -0.087 -0.075 -0.087 0.075 -0.087 -0.075 -0.087 0.08 -0.093h2.364l0.08 0.093 -0.075 0.087 0.075 0.087 -0.075 0.087 0.075 0.087 -0.075 0.087 0.075 0.087 -0.075 0.087 0.075 0.087 -0.08 0.093zm1.625 -1.206 -0.093 -0.08 -0.087 0.075 -0.087 -0.075 -0.087 0.075 -0.087 -0.075 -0.087 0.075 -0.087 -0.075 -0.087 0.075 -0.087 -0.075 -0.093 0.08v1.527l0.093 0.08 0.087 -0.075 0.087 0.075 0.087 -0.075 0.087 0.075 0.087 -0.075 0.087 0.075 0.087 -0.075 0.087 0.075 0.093 -0.08z" fill="#383739"/><g fill="#ffc72c"><path d="m5.297 6.666 -0.082 -0.07 -0.082 0.07v1.516l0.082 0.07 0.082 -0.07zm-0.35 0 -0.082 -0.07 -0.082 0.07v1.516l0.082 0.07 0.082 -0.07z"/><path d="m3.863 7.856 -0.07 -0.082 0.07 -0.082h2.354l0.07 0.082 -0.07 0.082zm2.354 -0.513 0.07 0.082 -0.07 0.082h-2.354l-0.07 -0.082 0.07 -0.082zm0 -0.186 0.07 -0.082 -0.07 -0.082h-2.354l-0.07 0.082 0.07 0.082z"/></g><g fill="#d22730"><path d="m5.472 6.666 -0.082 -0.07 -0.082 0.07v1.516l0.082 0.07 0.082 -0.07zm-0.7 0 -0.082 -0.07 -0.082 0.07v1.516l0.082 0.07 0.082 -0.07z"/><path d="m3.863 7.681 -0.07 -0.082 0.07 -0.082h2.354l0.07 0.082 -0.07 0.082zm0 -0.35 -0.07 -0.082 0.07 -0.082h2.354l0.07 0.082 -0.07 0.082z"/><path d="m5.122 8.182 -0.082 0.07 -0.082 -0.07v-1.516l0.082 -0.07 0.082 0.07z"/></g><path d="M5.83 6.696h-1.586v0.126h-0.203v1.205h0.203v0.126h1.592v-0.126h0.203v-1.205h-0.203v-0.126z" fill="#383739"/><path d="M4.256 6.708v0.126h-0.203v1.182h0.203v0.126h0.167l-0.332 -0.278V6.986l0.332 -0.278h-0.167zm1.403 0 0.33 0.278v0.877l-0.33 0.278h0.167v-0.126h0.202V6.833h-0.202v-0.126h-0.167z" fill="#d22730"/><g fill="#00843d"><path d="m4.441 6.708 -0.339 0.284v0.866c0.004 0.003 0.336 0.281 0.339 0.284h1.199l0.338 -0.284v-0.866l-0.338 -0.284zm0.017 0.048h1.164l0.308 0.259v0.821l-0.308 0.257H4.458l-0.307 -0.257v-0.821z"/><path d="m4.766 7.848 0.052 0.023 0.01 0.061 -0.066 0.058 0.095 0.092h-0.092l-0.066 -0.063 -0.066 0.063h-0.092l0.095 -0.092 -0.066 -0.058 0.01 -0.061 0.052 -0.023 0.066 0.053 0.004 -0.003zm0.34 0 0.052 0.023 0.01 0.061 -0.066 0.058 0.095 0.092h-0.092l-0.066 -0.063 -0.066 0.063h-0.092l0.095 -0.092 -0.066 -0.058 0.01 -0.061 0.052 -0.023 0.066 0.053 0.004 -0.003zm0.208 0 -0.052 0.023 -0.01 0.061 0.066 0.058 -0.095 0.092h0.092l0.066 -0.063 0.066 0.063h0.092l-0.095 -0.092 0.066 -0.058 -0.01 -0.061 -0.052 -0.023 -0.066 0.053 -0.004 -0.003zm-0.548 -0.847 0.052 -0.023 0.01 -0.061 -0.066 -0.058 0.095 -0.092h-0.092l-0.066 0.063 -0.066 -0.063h-0.092l0.095 0.092 -0.066 0.058 0.01 0.061 0.052 0.023 0.066 -0.053 0.004 0.003zm0.34 0 0.052 -0.023 0.01 -0.061 -0.066 -0.058 0.095 -0.092h-0.092l-0.066 0.063 -0.066 -0.063h-0.092l0.095 0.092 -0.066 0.058 0.01 0.061 0.052 0.023 0.066 -0.053 0.004 0.003zm0.208 0 -0.052 -0.023 -0.01 -0.061 0.066 -0.058 -0.095 -0.092h0.092l0.066 0.063 0.066 -0.063h0.092l-0.095 0.092 0.066 0.058 -0.01 0.061 -0.052 0.023 -0.066 -0.053 -0.004 0.003zm0.603 0.097 -0.052 0.043 0.052 0.043v0.071l-0.08 -0.066 -0.057 0.052 -0.062 -0.008 -0.022 -0.04 0.053 -0.053 -0.053 -0.053 0.022 -0.04c0.005 -0.001 0.057 -0.007 0.062 -0.008l0.057 0.052 0.08 -0.066zm0 0.283 -0.052 0.043 0.052 0.043v0.071l-0.08 -0.066 -0.057 0.052c-0.005 -0.001 -0.056 -0.007 -0.062 -0.008l-0.022 -0.04 0.053 -0.053 -0.053 -0.053 0.022 -0.04c0.005 -0.001 0.057 -0.007 0.062 -0.008l0.057 0.052 0.08 -0.066zm0 0.369 -0.052 -0.043 0.052 -0.043v-0.071l-0.08 0.066 -0.057 -0.052 -0.062 0.008 -0.022 0.04 0.053 0.053 -0.053 0.053 0.022 0.04c0.005 0.001 0.057 0.007 0.062 0.008l0.057 -0.052 0.08 0.066zm-1.755 -0.653 0.052 0.043 -0.052 0.043v0.071l0.08 -0.066 0.057 0.052 0.062 -0.008 0.022 -0.04 -0.053 -0.053 0.053 -0.053 -0.022 -0.04c-0.005 -0.001 -0.057 -0.007 -0.062 -0.008l-0.057 0.052 -0.08 -0.066zm0 0.283 0.052 0.043 -0.052 0.043v0.071l0.08 -0.066 0.057 0.052c0.005 -0.001 0.056 -0.007 0.062 -0.008l0.022 -0.04 -0.053 -0.053 0.053 -0.053 -0.022 -0.04c-0.005 -0.001 -0.057 -0.007 -0.062 -0.008l-0.057 0.052 -0.08 -0.066zm0 0.369 0.052 -0.043 -0.052 -0.043v-0.071l0.08 0.066 0.057 -0.052 0.062 0.008 0.022 0.04 -0.053 0.053 0.053 0.053 -0.022 0.04c-0.005 0.001 -0.057 0.007 -0.062 0.008l-0.057 -0.052 -0.08 0.066z"/></g><path d="M4.462 6.767c-0.003 0.003 -0.283 0.237 -0.295 0.247 0.025 0.021 0.05 0.043 0.075 0.064 0.006 -0.006 0.055 -0.049 0.055 -0.049l0.072 0.01 0.028 0.052 -0.051 0.051c0.007 0.007 0.051 0.051 0.051 0.051l-0.028 0.052 -0.072 0.008s-0.049 -0.042 -0.055 -0.048l-0.079 0.066v0.023c0.027 0.022 0.052 0.044 0.079 0.066 0.006 -0.006 0.055 -0.048 0.055 -0.048l0.072 0.008 0.028 0.052 -0.051 0.051c0.007 0.007 0.051 0.051 0.051 0.051l-0.028 0.054 -0.072 0.008s-0.049 -0.044 -0.055 -0.049l-0.079 0.066v0.024l0.079 0.066c0.006 -0.006 0.055 -0.049 0.055 -0.049l0.072 0.01 0.028 0.052 -0.051 0.051 0.051 0.051 -0.028 0.052 -0.072 0.01s-0.049 -0.044 -0.055 -0.049c-0.025 0.021 -0.05 0.041 -0.075 0.062l0.295 0.247h0.065l0.095 -0.092 -0.061 -0.054 0.011 -0.073 0.064 -0.027 0.065 0.051 0.064 -0.051 0.064 0.027 0.013 0.073 -0.062 0.054 0.092 0.088 0.092 -0.088 -0.062 -0.054 0.011 -0.073 0.065 -0.027 0.064 0.051 0.065 -0.051 0.064 0.027 0.011 0.073 -0.061 0.054 0.09 0.089 0.092 -0.089 -0.061 -0.054 0.011 -0.073 0.065 -0.027 0.064 0.051 0.064 -0.051 0.065 0.027 0.011 0.073 -0.061 0.054 0.095 0.092h0.064l0.295 -0.247c-0.025 -0.021 -0.05 -0.041 -0.075 -0.062 -0.006 0.006 -0.054 0.049 -0.054 0.049l-0.072 -0.01 -0.03 -0.052 0.051 -0.051 -0.051 -0.051 0.03 -0.052 0.072 -0.01s0.047 0.044 0.054 0.049l0.079 -0.066v-0.024l-0.079 -0.066c-0.006 0.006 -0.054 0.049 -0.054 0.049l-0.072 -0.008 -0.03 -0.054 0.051 -0.051 -0.051 -0.051 0.03 -0.052 0.072 -0.008s0.047 0.042 0.054 0.048c0.027 -0.022 0.053 -0.043 0.079 -0.065v-0.025l-0.079 -0.065c-0.006 0.006 -0.054 0.048 -0.054 0.048l-0.072 -0.008 -0.03 -0.052 0.051 -0.051 -0.051 -0.051 0.03 -0.052 0.072 -0.01s0.047 0.044 0.054 0.049c0.025 -0.021 0.051 -0.041 0.076 -0.062l-0.297 -0.249h-0.064l-0.095 0.092 0.061 0.054 -0.011 0.073 -0.065 0.028 -0.064 -0.051 -0.064 0.051 -0.065 -0.028 -0.011 -0.073 0.061 -0.054 -0.09 -0.088 -0.092 0.088 0.061 0.054 -0.011 0.073 -0.064 0.028 -0.065 -0.051 -0.064 0.051 -0.065 -0.028 -0.011 -0.073 0.062 -0.054 -0.092 -0.088 -0.092 0.088 0.062 0.054 -0.013 0.073 -0.064 0.028 -0.064 -0.051 -0.065 0.051 -0.064 -0.028 -0.011 -0.073 0.061 -0.054 -0.096 -0.092zm-0.299 0.629v0.058l0.034 -0.03z" fill="#d22730"/><path d="m4.701 8.034 -0.049 0.047h0.097zm0.339 0 -0.048 0.047h0.097zm0.34 0 -0.049 0.047h0.099zm-0.73 -1.267 0.051 0.048 0.049 -0.048zm0.34 0 0.049 0.048 0.051 -0.048zm0.34 0 0.049 0.048 0.049 -0.048zm0.586 0.346 -0.034 0.028 0.034 0.027zm0 0.282 -0.034 0.028 0.034 0.028zm0 0.284 -0.034 0.028 0.034 0.028zm-1.754 -0.568v0.058l0.034 -0.028zm0 0.284v0.058l0.034 -0.03zm0 0.283v0.058l0.034 -0.028z" fill="#fff"/><g fill="#383739"><path d="M5.331 7.33v-0.101h-0.102v-0.111h-0.377v0.111h-0.102v0.101h-0.141v0.189h0.141v0.101h0.102v0.111h0.377v-0.111h0.102v-0.101h0.141v-0.189z"/><path d="M5.034 7.129v0.114l-0.162 0.092v0.083h-0.253v-0.077h0.141v-0.101h0.102v-0.111zm0.011 0.59v-0.114l0.162 -0.092v-0.083h0.253v0.077h-0.141v0.101h-0.102v0.111z" fill="#ffc72c"/><path d="M5.208 7.418v-0.083l-0.162 -0.092v-0.114h0.171v0.111h0.102v0.101h0.141v0.078zm-0.588 0.011h0.253v0.083l0.162 0.092v0.114h-0.171v-0.111h-0.102v-0.101h-0.141z" fill="#fff"/><path d="M4.884 7.43v0.077l0.151 0.086v-0.163z" fill="#d22730"/><path d="m5.034 7.256 -0.151 0.086v0.077h0.151z" fill="#00843d"/><path d="M5.196 7.418v-0.077l-0.151 -0.086v0.163z" fill="#d22730"/><path d="m5.046 7.593 0.151 -0.086v-0.077h-0.151z" fill="#00843d"/></g><path d="M3.671 9.433v0.312h-0.298v0.283h-0.302v0.807h0.302v0.283h0.298v0.312h1.083l0.19 0.114 -0.092 0.055h-0.386l-0.033 -0.038h0.35l-0.099 -0.099h-0.5l0.227 0.236h0.469l0.16 -0.096 0.16 0.096h0.469l0.227 -0.236h-0.5l-0.099 0.099h0.35l-0.033 0.038h-0.386l-0.091 -0.055 0.19 -0.114h1.083V11.119h0.298v-0.283h0.302v-0.807h-0.302v-0.283h-0.298V9.433h-1.083l-0.19 -0.114 0.091 -0.055h0.386l0.033 0.038h-0.35l0.099 0.099h0.5l-0.227 -0.236h-0.469l-0.16 0.096 -0.16 -0.096h-0.469l-0.227 0.236h0.5l0.099 -0.099h-0.35l0.033 -0.038h0.386l0.091 0.055 -0.19 0.114z" fill="#d22730"/><path d="M5.323 11.419h1.075v-0.312h0.297v-0.284h0.302v-0.784h-0.302v-0.282h-0.297v-0.312H5.323l-0.446 -0.27h-0.462l-0.205 0.213h0.469l0.076 -0.076h-0.349l0.054 -0.061h0.395l0.506 0.305h0.924v0.312h0.298v0.284h0.302v0.559h-0.302v0.284H6.285v0.312h-0.924l-0.506 0.304h-0.395l-0.054 -0.059h0.349l-0.076 -0.076h-0.469l0.205 0.213h0.462zm-0.606 -0.112h-0.924V10.996h-0.297v-0.284h-0.302v-0.559h0.302v-0.284h0.297v-0.312h0.924l0.507 -0.305H5.619l0.054 0.061h-0.347l0.076 0.076h0.469l-0.205 -0.213h-0.462l-0.446 0.27h-1.075v0.312h-0.298v0.282h-0.302v0.784h0.302v0.284h0.298v0.312h1.075l0.446 0.27h0.462l0.205 -0.213h-0.469l-0.076 0.076h0.347l-0.054 0.059h-0.394z" fill="#ffc72c"/><path d="m5.04 9.376 -0.319 0.192H3.805V9.88h-0.297v0.284h-0.302v0.537h0.302v0.284h0.297v0.312h0.915l0.319 0.191 0.319 -0.191h0.915v-0.312h0.298v-0.284h0.302v-0.537H6.572V9.88h-0.298v-0.312h-0.915zm0 0.079 0.301 0.181h0.867v0.312h0.298v0.282h0.301v0.403h-0.301v0.284h-0.298v0.312h-0.867l-0.301 0.181 -0.299 -0.181h-0.867v-0.312h-0.298V10.633h-0.302v-0.403h0.302v-0.282h0.298v-0.312h0.867z" fill="none"/><path d="M6.196 10.905v0.312h-0.859l-0.297 0.179 -0.297 -0.179h-0.859v-0.312h-0.298v-0.283h-0.302V10.242h0.302v-0.283h0.298v-0.312h0.859l0.297 -0.179 0.297 0.179h0.859v0.312h0.298v0.283h0.302v0.38h-0.302v0.283z" fill="#00843d"/><g fill="#383739"><path d="M3.997 10.796v0.302h0.472l-0.472 -0.313zm0 -0.728v-0.302h0.472l-0.472 0.313zm2.087 0.728v0.302h-0.472l0.472 -0.313zm0 -0.728v-0.302h-0.472l0.472 0.313z"/><path d="m4.008 10.807 0.423 0.28h-0.423zm0 -0.749c0.016 -0.011 0.394 -0.261 0.423 -0.28h-0.423zm2.064 0.749 -0.423 0.28h0.423zm0 -0.749 -0.423 -0.28h0.423z" fill="#d22730"/></g><g id="h" fill="#383739"><path d="M4.599 10.349v-0.154h-0.053l-0.253 -0.158 -0.003 0.002 -0.25 0.156h-0.053v0.154h-0.119v0.166h0.119v0.154h0.053l0.253 0.158 0.253 -0.158h0.053v-0.154h0.181v-0.166z"/><path d="m4.293 10.05 0.231 0.145h-0.462zm0.231 0.619 -0.231 0.145 -0.231 -0.145zm-0.056 -0.309v0.143h-0.288v-0.143z" fill="#d22730"/><path d="M4.587 10.515v0.143h-0.288v-0.143zm-0.3 0v0.143h-0.288v-0.143zm0.481 -0.154v0.143H4.48v-0.143zm-0.599 0v0.143h-0.288v-0.143zm0.418 -0.154v0.143h-0.288v-0.143zm-0.3 0v0.143h-0.288v-0.143z" fill="#ffc72c"/><path d="M4.089 10.392v0.079h-0.129v-0.079zm0.119 -0.154v0.079h-0.129v-0.079zm0.3 0v0.079h-0.129v-0.079zm-0.119 0.154v0.079h-0.129v-0.079zm0.3 0v0.079h-0.129v-0.079zm-0.181 0.154v0.079h-0.129v-0.079zm-0.3 0v0.079h-0.129v-0.079z"/><path d="M4.077 10.405h-0.105v0.055h0.105zm0.119 -0.154h-0.105v0.055h0.105zm0.3 0h-0.105v0.055h0.105zm-0.119 0.154h-0.105v0.055h0.105zm0.3 0h-0.105v0.055h0.105zm-0.181 0.154h-0.105v0.055h0.105zm-0.3 0h-0.105v0.055h0.105z" fill="#fff"/></g><use height="100%" width="100%" transform="matrix(-1 0 0 1 377.995 0)" xlink:href="#h" fill="#383739"/><g id="i" fill="#383739"><path d="M5.345 10.091v0.154h-0.053l-0.253 0.158 -0.003 -0.002 -0.25 -0.156h-0.053v-0.154h-0.15v-0.166h0.15v-0.154h0.053l0.253 -0.158 0.253 0.158h0.053v0.154h0.15v0.166z"/><path d="m5.04 10.39 0.231 -0.145H4.809zm0.231 -0.619 -0.231 -0.145 -0.231 0.145z" fill="#ffc72c"/><path d="M5.334 9.925v-0.143h-0.288v0.143zm-0.3 0v-0.143h-0.288v0.143zm0.449 0.154v-0.143H5.195v0.143zm-0.3 0v-0.143h-0.288v0.143zm-0.3 0v-0.143h-0.288v0.143zm0.449 0.154v-0.143h-0.288v0.143zm-0.3 0v-0.143h-0.288v0.143z" fill="#d22730"/><path d="M4.955 9.814v0.079h-0.129v-0.079zm0.3 0v0.079h-0.129v-0.079zm-0.449 0.154v0.079h-0.129v-0.079zm0.3 0v0.079h-0.129v-0.079zm0.3 0v0.079h-0.129v-0.079zm-0.449 0.154v0.079h-0.129v-0.079zm0.3 0v0.079h-0.129v-0.079z"/><path d="M4.943 9.826h-0.105v0.055h0.105zm0.3 0h-0.105v0.055h0.105zm-0.449 0.154h-0.105v0.055h0.105zm0.3 0h-0.105v0.055h0.105zm0.3 0h-0.105v0.055h0.105zm-0.449 0.154h-0.105v0.055h0.105zm0.3 0h-0.105v0.055h0.105z" fill="#fff"/></g><use height="100%" width="100%" y="31.788" xlink:href="#i" fill="#383739"/><path d="m3.405 12.783 1.121 -0.603h1.028l1.121 0.603v0.994l-1.121 0.603h-1.028l-1.121 -0.603z" fill="#383739"/><path d="m4.53 12.191 -1.113 0.599v0.98l1.113 0.599h1.021l1.113 -0.599V12.79l-1.113 -0.599zm0.02 0.081h0.982l1.054 0.566v0.886l-1.054 0.566h-0.982l-1.054 -0.566v-0.886z" fill="#00843d"/><path d="M5.046 13.274v1.004h0.483l1.045 -0.562v-0.43h-1.539v-1.004h-0.483l-1.045 0.562v0.43z" fill="#ffc72c"/><path d="M5.034 13.274v1.004h-0.483l-1.045 -0.562v-0.43h1.539v-1.004h0.483l1.045 0.562v0.43z" fill="#fff"/><path d="M5.134 14.222v-0.29l-0.094 0.06 -0.094 -0.059v0.29h-0.292l0.197 -0.144v-0.206l-0.3 -0.191h-0.21v-0.802h0.21l0.3 -0.191v-0.206l-0.197 -0.144h0.292v0.29l0.094 -0.06 0.094 0.06v-0.29h0.292l-0.197 0.144v0.206l0.3 0.191h0.21v0.802h-0.21l-0.3 0.191v0.206l0.197 0.144z" fill="#383739"/><path d="M5.145 12.35v0.299l-0.1 -0.064v0.085l0.459 0.292h0.151v0.311h0.072v-0.384h-0.202l-0.308 -0.195V12.477l0.174 -0.127h-0.246zm-0.792 0.935v0.384h0.201l0.309 0.196v0.218l-0.174 0.127h0.246v-0.299l0.099 0.064v-0.088l-0.459 -0.29h-0.15v-0.312h-0.072z" fill="#ffc72c"/><path d="m4.689 12.35 0.174 0.127v0.218l-0.309 0.195h-0.201v0.384h0.072V12.963h0.15l0.459 -0.291v-0.086l-0.099 0.064v-0.299h-0.246zm0.966 0.935v0.312h-0.151l-0.459 0.29v0.088l0.1 -0.064v0.299h0.246l-0.174 -0.127v-0.218l0.308 -0.196h0.202v-0.384h-0.072z" fill="#fff"/><path d="M4.436 13.586h0.142l0.462 0.293 0.462 -0.293h0.142v-0.611h-0.142l-0.462 -0.293 -0.462 0.293h-0.142z" fill="#d22730"/><path d="M5.359 13.425h0.099v-0.047h-0.074v-0.085h0.158v0.216h-0.152v0.147h-0.313v-0.212h0.138v0.085h-0.053v0.042h0.144v-0.081l-0.586 -0.357h-0.099v0.047h0.074v0.085h-0.158v-0.216h0.152v-0.147h0.313v0.212h-0.138v-0.085h0.053v-0.042h-0.144v0.081zm-0.053 -0.357v-0.081h-0.144v0.042h0.053v0.085h-0.138v-0.212h0.313v0.147h0.152v0.216h-0.158v-0.085h0.074v-0.047h-0.099l-0.586 0.357v0.081h0.144v-0.042h-0.053v-0.085h0.138v0.212h-0.313v-0.147h-0.152v-0.216h0.158v0.085h-0.074v0.047h0.099z" fill="#383739"/><path d="M5.317 13.485v0.099h-0.167v-0.065h0.053v-0.062h-0.115v0.189h0.29v-0.147h0.152v-0.193h-0.136v0.062h0.074v0.069h-0.113l-0.594 -0.362v-0.099h0.167v0.065h-0.053v0.062h0.115v-0.189h-0.29v0.147h-0.152v0.193h0.136v-0.062h-0.074v-0.069h0.113zm0.039 -0.362h0.113v0.069h-0.074v0.062h0.136v-0.193h-0.152v-0.147h-0.29v0.189h0.115v-0.062h-0.053v-0.065h0.167v0.099l-0.594 0.362h-0.113v-0.069h0.074v-0.062h-0.136v0.193h0.152v0.147h0.29v-0.189h-0.115v0.062h0.053v0.065h-0.167v-0.099z" fill="#fff"/><path d="M6.348 13.33v0.314h-0.133v-0.111h-0.135v0.111h-0.133v-0.314h0.133v0.111h0.135v-0.111zm-0.478 0.416v0.314h-0.133v-0.111h-0.135v0.111h-0.133v-0.314h0.133v0.111h0.135V13.747zm0.478 -0.517v-0.314h-0.133v0.111h-0.135v-0.111h-0.133v0.314h0.133v-0.111h0.135v0.111zm-2.616 0.101v0.314h0.133v-0.111h0.135v0.111h0.133v-0.314h-0.133v0.111h-0.135v-0.111zm0 -0.101v-0.314h0.133v0.111h0.135v-0.111h0.133v0.314h-0.133v-0.111h-0.135v0.111zm2.138 -0.416v-0.314h-0.133v0.111h-0.135v-0.111h-0.133V12.813h0.133v-0.111h0.135v0.111zm-1.66 0.933v0.314h0.133v-0.111h0.135v0.111h0.133v-0.314h-0.133v0.111h-0.135V13.747zm0 -0.933v-0.314h0.133v0.111h0.135v-0.111h0.133V12.813h-0.133v-0.111h-0.135v0.111zm1.74 -0.22v0.238h0.443zm-1.82 1.373v-0.238H3.687zm0 -1.373v0.238H3.687zm1.82 1.373v-0.238h0.443z" fill="#383739"/><path d="M6.226 13.522v0.111h0.111v-0.291h-0.111v0.111h-0.157v-0.111h-0.111v0.291h0.111v-0.111zm-0.478 0.416v0.111h0.111v-0.291h-0.111v0.111h-0.157v-0.111h-0.111v0.291h0.111v-0.111zm0.478 -0.9v-0.111h0.111v0.291h-0.111v-0.111h-0.157v0.111h-0.111V12.927h0.111v0.111zm-2.372 0.483v0.111h-0.111v-0.291h0.111v0.111h0.157v-0.111h0.111v0.291h-0.111v-0.111zm0 -0.483v-0.111h-0.111v0.291h0.111v-0.111h0.157v0.111h0.111V12.927h-0.111v0.111zm1.894 -0.416v-0.111h0.111v0.291h-0.111v-0.111h-0.157v0.111h-0.111v-0.291h0.111v0.111zm-1.416 1.316v0.111h-0.111v-0.291h0.111v0.111h0.157v-0.111h0.111v0.291h-0.111v-0.111zm0 -1.316v-0.111h-0.111v0.291h0.111v-0.111h0.157v0.111h0.111v-0.291h-0.111v0.111z" fill="#d22730"/><path d="M5.962 12.613v0.208h0.386zm-2.229 1.127 0.386 0.208v-0.208h-0.386z" fill="#ffc72c"/><path d="m4.119 12.613 -0.386 0.208h0.386zm1.843 1.127v0.208l0.386 -0.208z" fill="#fff"/><path d="M6.851 14.155c-0.021 0.091 -0.094 0.159 -0.111 0.254 -0.034 -0.098 -0.066 -0.181 -0.043 -0.288 0.017 -0.077 0.082 -0.132 0.089 -0.211 0.071 0.063 0.086 0.153 0.064 0.245zm0.018 0.381c-0.06 0.082 -0.143 0.145 -0.235 0.187 0.018 -0.072 -0.016 -0.126 -0.053 -0.183 -0.045 -0.069 -0.067 -0.136 -0.031 -0.215 0.017 0.041 0.04 0.075 0.068 0.11 0.04 0.055 0.067 0.104 0.073 0.174 0.046 -0.034 0.067 -0.086 0.092 -0.136 0.038 -0.071 0.099 -0.131 0.169 -0.17 -0.019 0.08 -0.033 0.165 -0.083 0.232zm-0.335 0.244c0.013 0.046 0.024 0.091 0.021 0.138 0.04 -0.043 0.092 -0.075 0.139 -0.109 0.064 -0.052 0.138 -0.088 0.19 -0.154 -0.008 0.097 -0.049 0.175 -0.128 0.234 -0.083 0.062 -0.183 0.096 -0.265 0.161 0.012 -0.088 -0.02 -0.158 -0.048 -0.239 -0.023 -0.077 -0.001 -0.156 0.052 -0.214 -0.001 0.065 0.02 0.121 0.038 0.183zm-0.186 0.297c-0.017 0.067 -0.065 0.121 -0.098 0.18 0.088 -0.027 0.166 -0.075 0.245 -0.12 0.095 -0.052 0.198 -0.084 0.283 -0.153 -0.043 0.158 -0.148 0.25 -0.303 0.296 -0.106 0.032 -0.195 0.016 -0.323 0.068 0.015 -0.087 0.041 -0.181 0.082 -0.259 0.032 -0.057 0.067 -0.113 0.087 -0.175 0.029 0.051 0.042 0.103 0.027 0.162zm-0.324 0.242a0.406 0.406 0 0 1 -0.12 0.13c0.125 0.008 0.225 -0.071 0.347 -0.075 0.075 -0.002 0.147 0.021 0.223 0.014 -0.091 0.061 -0.186 0.115 -0.297 0.129 -0.144 0.019 -0.277 -0.018 -0.436 -0.003 0.074 -0.052 0.111 -0.123 0.158 -0.198 0.06 -0.094 0.117 -0.161 0.234 -0.176 -0.047 0.053 -0.074 0.118 -0.11 0.179zm-0.444 0.207c0.22 0.037 0.431 0.086 0.656 0.088 -0.252 0.088 -0.488 0.104 -0.738 0.013 -0.135 -0.049 -0.238 -0.075 -0.34 -0.068 -0.149 0.011 -0.33 0.069 -0.53 0.28l-0.079 -0.063c0.287 -0.256 0.662 -0.313 1.031 -0.251z" fill="#ffc72c"/></svg>