<?xml version="1.0" encoding="UTF-8"?>
<svg xmlns="http://www.w3.org/2000/svg" xmlns:xlink="http://www.w3.org/1999/xlink" width="24px" height="16px" viewBox="0 0 32 16" version="1.1">
<defs>
<clipPath id="clip1">
  <path d="M 0 0 L 17.332031 0 L 17.332031 9.332031 L 0 9.332031 Z M 0 0 "/>
</clipPath>
<clipPath id="clip2">
  <path d="M 0 0 L 16 0 L 16 8 L 0 8 Z M 0 0 "/>
</clipPath>
<clipPath id="clip3">
  <path d="M 0 0 L 0 4 L 17.332031 4 L 17.332031 8 L 16 8 Z M 0 8 L 0 9.332031 L 8 9.332031 L 8 0 L 16 0 Z M 0 8 "/>
</clipPath>
<clipPath id="clip4">
  <path d="M 0 0 L 18 0 L 18 10 L 0 10 Z M 0 0 "/>
</clipPath>
<clipPath id="clip5">
  <path d="M 0 0 L 0 4 L 17.332031 4 L 17.332031 8 L 16 8 Z M 0 8 L 0 9.332031 L 8 9.332031 L 8 0 L 16 0 Z M 0 8 "/>
</clipPath>
</defs>
<g id="surface1">
<rect x="0" y="0" width="32" height="16" style="fill:rgb(0.392157%,12.941176%,41.176471%);fill-opacity:1;stroke:none;"/>
<path style=" stroke:none;fill-rule:nonzero;fill:rgb(0%,0%,0%);fill-opacity:1;" d="M 0 0 L 16 8 M 16 0 L 0 8 "/>
<g clip-path="url(#clip1)" clip-rule="nonzero">
<path style="fill:none;stroke-width:60;stroke-linecap:butt;stroke-linejoin:miter;stroke:rgb(100%,100%,100%);stroke-opacity:1;stroke-miterlimit:4;" d="M 0 0 L 600 300 M 600 0 L 0 300 " transform="matrix(0.0266667,0,0,0.0266667,0,0)"/>
</g>
<g clip-path="url(#clip2)" clip-rule="nonzero">
<g clip-path="url(#clip3)" clip-rule="nonzero">
<path style=" stroke:none;fill-rule:nonzero;fill:rgb(0%,0%,0%);fill-opacity:1;" d="M 0 0 L 16 8 M 16 0 L 0 8 "/>
</g>
</g>
<g clip-path="url(#clip4)" clip-rule="nonzero">
<g clip-path="url(#clip5)" clip-rule="nonzero">
<path style="fill:none;stroke-width:40;stroke-linecap:butt;stroke-linejoin:miter;stroke:rgb(78.431373%,6.27451%,18.039216%);stroke-opacity:1;stroke-miterlimit:4;" d="M 0 0 L 600 300 M 600 0 L 0 300 " transform="matrix(0.0266667,0,0,0.0266667,0,0)"/>
</g>
</g>
<path style="fill-rule:nonzero;fill:rgb(0%,0%,0%);fill-opacity:1;stroke-width:100;stroke-linecap:butt;stroke-linejoin:miter;stroke:rgb(100%,100%,100%);stroke-opacity:1;stroke-miterlimit:4;" d="M 0 150 L 649.951172 150 M 300 0 L 300 349.951172 " transform="matrix(0.0266667,0,0,0.0266667,0,0)"/>
<path style="fill-rule:nonzero;fill:rgb(0%,0%,0%);fill-opacity:1;stroke-width:60;stroke-linecap:butt;stroke-linejoin:miter;stroke:rgb(78.431373%,6.27451%,18.039216%);stroke-opacity:1;stroke-miterlimit:4;" d="M 0 150 L 649.951172 150 M 300 0 L 300 349.951172 " transform="matrix(0.0266667,0,0,0.0266667,0,0)"/>
<path style=" stroke:none;fill-rule:nonzero;fill:rgb(0%,61.176471%,87.058824%);fill-opacity:1;" d="M 0 8 L 16 8 L 16 0 L 32 0 L 32 16 L 0 16 Z M 0 8 "/>
<path style=" stroke:none;fill-rule:nonzero;fill:rgb(99.607843%,86.666667%,0%);fill-opacity:1;" d="M 17.210938 13.089844 L 17.992188 15.507812 L 15.9375 14.015625 L 18.480469 14.015625 L 16.425781 15.507812 Z M 21.800781 12.375 L 21.015625 14.789062 L 20.230469 12.375 L 22.285156 13.867188 L 19.742188 13.867188 Z M 21.800781 9.121094 L 21.015625 11.535156 L 20.230469 9.121094 L 22.285156 10.613281 L 19.742188 10.613281 Z M 25.160156 11.550781 L 24.375 13.96875 L 23.589844 11.550781 L 25.644531 13.042969 L 23.105469 13.042969 Z M 25.160156 4.472656 L 24.375 6.890625 L 23.589844 4.472656 L 25.644531 5.964844 L 23.105469 5.964844 Z M 26.570312 9.066406 L 27.355469 11.480469 L 25.300781 9.988281 L 27.84375 9.988281 L 25.785156 11.480469 Z M 27.984375 3.507812 L 27.199219 5.925781 L 26.414062 3.507812 L 28.46875 5 L 25.929688 5 Z M 29.410156 7.238281 L 30.195312 9.65625 L 28.140625 8.160156 L 30.679688 8.160156 L 28.625 9.65625 Z M 29.410156 0.996094 L 30.195312 3.414062 L 28.140625 1.921875 L 30.679688 1.921875 L 28.625 3.414062 Z M 29.410156 0.996094 "/>
</g>
</svg>
