<?xml version="1.0" encoding="UTF-8"?>
<svg xmlns="http://www.w3.org/2000/svg" xmlns:xlink="http://www.w3.org/1999/xlink" width="24px" height="16px" viewBox="0 0 30 16" version="1.1">
<g id="surface1">
<rect x="0" y="0" width="30" height="16" style="fill:rgb(69.803922%,13.333333%,20.392157%);fill-opacity:1;stroke:none;"/>
<path style="fill-rule:nonzero;fill:rgb(0%,0%,0%);fill-opacity:1;stroke-width:300;stroke-linecap:butt;stroke-linejoin:miter;stroke:rgb(100%,100%,100%);stroke-opacity:1;stroke-miterlimit:4;" d="M 0 450.366211 L 7410 450.366211 M 7410 1050.219727 L 0 1050.219727 M 0 1650.073242 L 7410 1650.073242 M 7410 2249.926758 L 0 2249.926758 M 0 2849.780273 L 7410 2849.780273 M 7410 3449.633789 L 0 3449.633789 " transform="matrix(0.00404858,0,0,0.00410256,0,0)"/>
<path style=" stroke:none;fill-rule:nonzero;fill:rgb(23.529412%,23.137255%,43.137255%);fill-opacity:1;" d="M 0 0 L 12 0 L 12 8.617188 L 0 8.617188 Z M 0 0 "/>
<path style=" stroke:none;fill-rule:nonzero;fill:rgb(100%,100%,100%);fill-opacity:1;" d="M 1 0.371094 L 1.285156 1.261719 L 0.539062 0.710938 L 1.460938 0.710938 L 0.714844 1.261719 Z M 1 0.371094 "/>
<path style=" stroke:none;fill-rule:nonzero;fill:rgb(100%,100%,100%);fill-opacity:1;" d="M 1 2.09375 L 1.285156 2.984375 L 0.539062 2.433594 L 1.460938 2.433594 L 0.714844 2.984375 Z M 1 2.09375 "/>
<path style=" stroke:none;fill-rule:nonzero;fill:rgb(100%,100%,100%);fill-opacity:1;" d="M 1 3.816406 L 1.285156 4.707031 L 0.539062 4.15625 L 1.460938 4.15625 L 0.714844 4.707031 Z M 1 3.816406 "/>
<path style=" stroke:none;fill-rule:nonzero;fill:rgb(100%,100%,100%);fill-opacity:1;" d="M 1 5.539062 L 1.285156 6.429688 L 0.539062 5.878906 L 1.460938 5.878906 L 0.714844 6.429688 Z M 1 5.539062 "/>
<path style=" stroke:none;fill-rule:nonzero;fill:rgb(100%,100%,100%);fill-opacity:1;" d="M 1 7.261719 L 1.285156 8.152344 L 0.539062 7.601562 L 1.460938 7.601562 L 0.714844 8.152344 Z M 1 7.261719 "/>
<path style=" stroke:none;fill-rule:nonzero;fill:rgb(100%,100%,100%);fill-opacity:1;" d="M 2 1.230469 L 2.285156 2.121094 L 1.539062 1.570312 L 2.460938 1.570312 L 1.714844 2.121094 Z M 2 1.230469 "/>
<path style=" stroke:none;fill-rule:nonzero;fill:rgb(100%,100%,100%);fill-opacity:1;" d="M 2 2.953125 L 2.285156 3.84375 L 1.539062 3.292969 L 2.460938 3.292969 L 1.714844 3.84375 Z M 2 2.953125 "/>
<path style=" stroke:none;fill-rule:nonzero;fill:rgb(100%,100%,100%);fill-opacity:1;" d="M 2 4.675781 L 2.285156 5.566406 L 1.539062 5.015625 L 2.460938 5.015625 L 1.714844 5.566406 Z M 2 4.675781 "/>
<path style=" stroke:none;fill-rule:nonzero;fill:rgb(100%,100%,100%);fill-opacity:1;" d="M 2 6.398438 L 2.285156 7.289062 L 1.539062 6.738281 L 2.460938 6.738281 L 1.714844 7.289062 Z M 2 6.398438 "/>
<path style=" stroke:none;fill-rule:nonzero;fill:rgb(100%,100%,100%);fill-opacity:1;" d="M 3 0.371094 L 3.285156 1.261719 L 2.539062 0.710938 L 3.460938 0.710938 L 2.714844 1.261719 Z M 3 0.371094 "/>
<path style=" stroke:none;fill-rule:nonzero;fill:rgb(100%,100%,100%);fill-opacity:1;" d="M 3 2.09375 L 3.285156 2.984375 L 2.539062 2.433594 L 3.460938 2.433594 L 2.714844 2.984375 Z M 3 2.09375 "/>
<path style=" stroke:none;fill-rule:nonzero;fill:rgb(100%,100%,100%);fill-opacity:1;" d="M 3 3.816406 L 3.285156 4.707031 L 2.539062 4.15625 L 3.460938 4.15625 L 2.714844 4.707031 Z M 3 3.816406 "/>
<path style=" stroke:none;fill-rule:nonzero;fill:rgb(100%,100%,100%);fill-opacity:1;" d="M 3 5.539062 L 3.285156 6.429688 L 2.539062 5.878906 L 3.460938 5.878906 L 2.714844 6.429688 Z M 3 5.539062 "/>
<path style=" stroke:none;fill-rule:nonzero;fill:rgb(100%,100%,100%);fill-opacity:1;" d="M 3 7.261719 L 3.285156 8.152344 L 2.539062 7.601562 L 3.460938 7.601562 L 2.714844 8.152344 Z M 3 7.261719 "/>
<path style=" stroke:none;fill-rule:nonzero;fill:rgb(100%,100%,100%);fill-opacity:1;" d="M 4 1.230469 L 4.285156 2.121094 L 3.539062 1.570312 L 4.460938 1.570312 L 3.714844 2.121094 Z M 4 1.230469 "/>
<path style=" stroke:none;fill-rule:nonzero;fill:rgb(100%,100%,100%);fill-opacity:1;" d="M 4 2.953125 L 4.285156 3.84375 L 3.539062 3.292969 L 4.460938 3.292969 L 3.714844 3.84375 Z M 4 2.953125 "/>
<path style=" stroke:none;fill-rule:nonzero;fill:rgb(100%,100%,100%);fill-opacity:1;" d="M 4 4.675781 L 4.285156 5.566406 L 3.539062 5.015625 L 4.460938 5.015625 L 3.714844 5.566406 Z M 4 4.675781 "/>
<path style=" stroke:none;fill-rule:nonzero;fill:rgb(100%,100%,100%);fill-opacity:1;" d="M 4 6.398438 L 4.285156 7.289062 L 3.539062 6.738281 L 4.460938 6.738281 L 3.714844 7.289062 Z M 4 6.398438 "/>
<path style=" stroke:none;fill-rule:nonzero;fill:rgb(100%,100%,100%);fill-opacity:1;" d="M 5 0.371094 L 5.285156 1.261719 L 4.539062 0.710938 L 5.460938 0.710938 L 4.714844 1.261719 Z M 5 0.371094 "/>
<path style=" stroke:none;fill-rule:nonzero;fill:rgb(100%,100%,100%);fill-opacity:1;" d="M 5 2.09375 L 5.285156 2.984375 L 4.539062 2.433594 L 5.460938 2.433594 L 4.714844 2.984375 Z M 5 2.09375 "/>
<path style=" stroke:none;fill-rule:nonzero;fill:rgb(100%,100%,100%);fill-opacity:1;" d="M 5 3.816406 L 5.285156 4.707031 L 4.539062 4.15625 L 5.460938 4.15625 L 4.714844 4.707031 Z M 5 3.816406 "/>
<path style=" stroke:none;fill-rule:nonzero;fill:rgb(100%,100%,100%);fill-opacity:1;" d="M 5 5.539062 L 5.285156 6.429688 L 4.539062 5.878906 L 5.460938 5.878906 L 4.714844 6.429688 Z M 5 5.539062 "/>
<path style=" stroke:none;fill-rule:nonzero;fill:rgb(100%,100%,100%);fill-opacity:1;" d="M 5 7.261719 L 5.285156 8.152344 L 4.539062 7.601562 L 5.460938 7.601562 L 4.714844 8.152344 Z M 5 7.261719 "/>
<path style=" stroke:none;fill-rule:nonzero;fill:rgb(100%,100%,100%);fill-opacity:1;" d="M 6 1.230469 L 6.285156 2.121094 L 5.539062 1.570312 L 6.460938 1.570312 L 5.714844 2.121094 Z M 6 1.230469 "/>
<path style=" stroke:none;fill-rule:nonzero;fill:rgb(100%,100%,100%);fill-opacity:1;" d="M 6 2.953125 L 6.285156 3.84375 L 5.539062 3.292969 L 6.460938 3.292969 L 5.714844 3.84375 Z M 6 2.953125 "/>
<path style=" stroke:none;fill-rule:nonzero;fill:rgb(100%,100%,100%);fill-opacity:1;" d="M 6 4.675781 L 6.285156 5.566406 L 5.539062 5.015625 L 6.460938 5.015625 L 5.714844 5.566406 Z M 6 4.675781 "/>
<path style=" stroke:none;fill-rule:nonzero;fill:rgb(100%,100%,100%);fill-opacity:1;" d="M 6 6.398438 L 6.285156 7.289062 L 5.539062 6.738281 L 6.460938 6.738281 L 5.714844 7.289062 Z M 6 6.398438 "/>
<path style=" stroke:none;fill-rule:nonzero;fill:rgb(100%,100%,100%);fill-opacity:1;" d="M 7 0.371094 L 7.285156 1.261719 L 6.539062 0.710938 L 7.460938 0.710938 L 6.714844 1.261719 Z M 7 0.371094 "/>
<path style=" stroke:none;fill-rule:nonzero;fill:rgb(100%,100%,100%);fill-opacity:1;" d="M 7 2.09375 L 7.285156 2.984375 L 6.539062 2.433594 L 7.460938 2.433594 L 6.714844 2.984375 Z M 7 2.09375 "/>
<path style=" stroke:none;fill-rule:nonzero;fill:rgb(100%,100%,100%);fill-opacity:1;" d="M 7 3.816406 L 7.285156 4.707031 L 6.539062 4.15625 L 7.460938 4.15625 L 6.714844 4.707031 Z M 7 3.816406 "/>
<path style=" stroke:none;fill-rule:nonzero;fill:rgb(100%,100%,100%);fill-opacity:1;" d="M 7 5.539062 L 7.285156 6.429688 L 6.539062 5.878906 L 7.460938 5.878906 L 6.714844 6.429688 Z M 7 5.539062 "/>
<path style=" stroke:none;fill-rule:nonzero;fill:rgb(100%,100%,100%);fill-opacity:1;" d="M 7 7.261719 L 7.285156 8.152344 L 6.539062 7.601562 L 7.460938 7.601562 L 6.714844 8.152344 Z M 7 7.261719 "/>
<path style=" stroke:none;fill-rule:nonzero;fill:rgb(100%,100%,100%);fill-opacity:1;" d="M 8 1.230469 L 8.285156 2.121094 L 7.539062 1.570312 L 8.460938 1.570312 L 7.714844 2.121094 Z M 8 1.230469 "/>
<path style=" stroke:none;fill-rule:nonzero;fill:rgb(100%,100%,100%);fill-opacity:1;" d="M 8 2.953125 L 8.285156 3.84375 L 7.539062 3.292969 L 8.460938 3.292969 L 7.714844 3.84375 Z M 8 2.953125 "/>
<path style=" stroke:none;fill-rule:nonzero;fill:rgb(100%,100%,100%);fill-opacity:1;" d="M 8 4.675781 L 8.285156 5.566406 L 7.539062 5.015625 L 8.460938 5.015625 L 7.714844 5.566406 Z M 8 4.675781 "/>
<path style=" stroke:none;fill-rule:nonzero;fill:rgb(100%,100%,100%);fill-opacity:1;" d="M 8 6.398438 L 8.285156 7.289062 L 7.539062 6.738281 L 8.460938 6.738281 L 7.714844 7.289062 Z M 8 6.398438 "/>
<path style=" stroke:none;fill-rule:nonzero;fill:rgb(100%,100%,100%);fill-opacity:1;" d="M 9 0.371094 L 9.285156 1.261719 L 8.539062 0.710938 L 9.460938 0.710938 L 8.714844 1.261719 Z M 9 0.371094 "/>
<path style=" stroke:none;fill-rule:nonzero;fill:rgb(100%,100%,100%);fill-opacity:1;" d="M 9 2.09375 L 9.285156 2.984375 L 8.539062 2.433594 L 9.460938 2.433594 L 8.714844 2.984375 Z M 9 2.09375 "/>
<path style=" stroke:none;fill-rule:nonzero;fill:rgb(100%,100%,100%);fill-opacity:1;" d="M 9 3.816406 L 9.285156 4.707031 L 8.539062 4.15625 L 9.460938 4.15625 L 8.714844 4.707031 Z M 9 3.816406 "/>
<path style=" stroke:none;fill-rule:nonzero;fill:rgb(100%,100%,100%);fill-opacity:1;" d="M 9 5.539062 L 9.285156 6.429688 L 8.539062 5.878906 L 9.460938 5.878906 L 8.714844 6.429688 Z M 9 5.539062 "/>
<path style=" stroke:none;fill-rule:nonzero;fill:rgb(100%,100%,100%);fill-opacity:1;" d="M 9 7.261719 L 9.285156 8.152344 L 8.539062 7.601562 L 9.460938 7.601562 L 8.714844 8.152344 Z M 9 7.261719 "/>
<path style=" stroke:none;fill-rule:nonzero;fill:rgb(100%,100%,100%);fill-opacity:1;" d="M 10 1.230469 L 10.285156 2.121094 L 9.539062 1.570312 L 10.460938 1.570312 L 9.714844 2.121094 Z M 10 1.230469 "/>
<path style=" stroke:none;fill-rule:nonzero;fill:rgb(100%,100%,100%);fill-opacity:1;" d="M 10 2.953125 L 10.285156 3.84375 L 9.539062 3.292969 L 10.460938 3.292969 L 9.714844 3.84375 Z M 10 2.953125 "/>
<path style=" stroke:none;fill-rule:nonzero;fill:rgb(100%,100%,100%);fill-opacity:1;" d="M 10 4.675781 L 10.285156 5.566406 L 9.539062 5.015625 L 10.460938 5.015625 L 9.714844 5.566406 Z M 10 4.675781 "/>
<path style=" stroke:none;fill-rule:nonzero;fill:rgb(100%,100%,100%);fill-opacity:1;" d="M 10 6.398438 L 10.285156 7.289062 L 9.539062 6.738281 L 10.460938 6.738281 L 9.714844 7.289062 Z M 10 6.398438 "/>
<path style=" stroke:none;fill-rule:nonzero;fill:rgb(100%,100%,100%);fill-opacity:1;" d="M 11 0.371094 L 11.285156 1.261719 L 10.539062 0.710938 L 11.460938 0.710938 L 10.714844 1.261719 Z M 11 0.371094 "/>
<path style=" stroke:none;fill-rule:nonzero;fill:rgb(100%,100%,100%);fill-opacity:1;" d="M 11 2.09375 L 11.285156 2.984375 L 10.539062 2.433594 L 11.460938 2.433594 L 10.714844 2.984375 Z M 11 2.09375 "/>
<path style=" stroke:none;fill-rule:nonzero;fill:rgb(100%,100%,100%);fill-opacity:1;" d="M 11 3.816406 L 11.285156 4.707031 L 10.539062 4.15625 L 11.460938 4.15625 L 10.714844 4.707031 Z M 11 3.816406 "/>
<path style=" stroke:none;fill-rule:nonzero;fill:rgb(100%,100%,100%);fill-opacity:1;" d="M 11 5.539062 L 11.285156 6.429688 L 10.539062 5.878906 L 11.460938 5.878906 L 10.714844 6.429688 Z M 11 5.539062 "/>
<path style=" stroke:none;fill-rule:nonzero;fill:rgb(100%,100%,100%);fill-opacity:1;" d="M 11 7.261719 L 11.285156 8.152344 L 10.539062 7.601562 L 11.460938 7.601562 L 10.714844 8.152344 Z M 11 7.261719 "/>
</g>
</svg>
