<?xml version="1.0" encoding="UTF-8"?>
<svg xmlns="http://www.w3.org/2000/svg" xmlns:xlink="http://www.w3.org/1999/xlink" width="24px" height="16px" viewBox="0 0 32 16" version="1.1">
<g id="surface1">
<rect x="0" y="0" width="32" height="16" style="fill:rgb(11.764706%,70.980392%,22.745098%);fill-opacity:1;stroke:none;"/>
<path style=" stroke:none;fill-rule:nonzero;fill:rgb(0%,60%,70.980392%);fill-opacity:1;" d="M 0 0 L 32 0 L 32 8 L 0 8 Z M 0 0 "/>
<path style=" stroke:none;fill-rule:nonzero;fill:rgb(80.784314%,6.666667%,14.901961%);fill-opacity:1;" d="M 0 5.121094 L 32 5.121094 L 32 10.878906 L 0 10.878906 Z M 0 5.121094 "/>
<path style=" stroke:none;fill-rule:nonzero;fill:rgb(100%,100%,100%);fill-opacity:1;" d="M 0 5.441406 L 32 5.441406 L 32 10.558594 L 0 10.558594 Z M 0 5.441406 "/>
<path style=" stroke:none;fill-rule:nonzero;fill:rgb(100%,100%,100%);fill-opacity:1;" d="M 6.398438 2.558594 C 6.398438 3.621094 5.539062 4.480469 4.480469 4.480469 C 3.417969 4.480469 2.558594 3.621094 2.558594 2.558594 C 2.558594 1.5 3.417969 0.640625 4.480469 0.640625 C 5.539062 0.640625 6.398438 1.5 6.398438 2.558594 Z M 6.398438 2.558594 "/>
<path style=" stroke:none;fill-rule:nonzero;fill:rgb(0%,60%,70.980392%);fill-opacity:1;" d="M 7.039062 2.558594 C 7.039062 3.621094 6.179688 4.480469 5.121094 4.480469 C 4.058594 4.480469 3.199219 3.621094 3.199219 2.558594 C 3.199219 1.5 4.058594 0.640625 5.121094 0.640625 C 6.179688 0.640625 7.039062 1.5 7.039062 2.558594 Z M 7.039062 2.558594 "/>
<path style=" stroke:none;fill-rule:nonzero;fill:rgb(100%,100%,100%);fill-opacity:1;" d="M 8.703125 3.710938 L 8.585938 4.078125 L 8.769531 4.136719 "/>
<path style=" stroke:none;fill-rule:nonzero;fill:rgb(100%,100%,100%);fill-opacity:1;" d="M 8.703125 3.710938 L 8.824219 4.078125 L 8.640625 4.136719 "/>
<path style=" stroke:none;fill-rule:nonzero;fill:rgb(100%,100%,100%);fill-opacity:1;" d="M 9.070312 3.976562 L 8.683594 3.976562 L 8.683594 4.167969 "/>
<path style=" stroke:none;fill-rule:nonzero;fill:rgb(100%,100%,100%);fill-opacity:1;" d="M 9.070312 3.976562 L 8.757812 4.203125 L 8.644531 4.046875 "/>
<path style=" stroke:none;fill-rule:nonzero;fill:rgb(100%,100%,100%);fill-opacity:1;" d="M 8.339844 3.976562 L 8.648438 4.203125 L 8.761719 4.046875 "/>
<path style=" stroke:none;fill-rule:nonzero;fill:rgb(100%,100%,100%);fill-opacity:1;" d="M 8.339844 3.976562 L 8.722656 3.976562 L 8.722656 4.167969 "/>
<path style=" stroke:none;fill-rule:nonzero;fill:rgb(100%,100%,100%);fill-opacity:1;" d="M 8.929688 4.40625 L 8.8125 4.042969 L 8.628906 4.101562 "/>
<path style=" stroke:none;fill-rule:nonzero;fill:rgb(100%,100%,100%);fill-opacity:1;" d="M 8.929688 4.40625 L 8.617188 4.179688 L 8.730469 4.027344 "/>
<path style=" stroke:none;fill-rule:nonzero;fill:rgb(100%,100%,100%);fill-opacity:1;" d="M 8.476562 4.40625 L 8.789062 4.179688 L 8.675781 4.027344 "/>
<path style=" stroke:none;fill-rule:nonzero;fill:rgb(100%,100%,100%);fill-opacity:1;" d="M 8.476562 4.40625 L 8.597656 4.042969 L 8.78125 4.101562 "/>
<path style=" stroke:none;fill-rule:nonzero;fill:rgb(100%,100%,100%);fill-opacity:1;" d="M 8.703125 2.175781 L 8.585938 2.542969 L 8.769531 2.601562 "/>
<path style=" stroke:none;fill-rule:nonzero;fill:rgb(100%,100%,100%);fill-opacity:1;" d="M 8.703125 2.175781 L 8.824219 2.542969 L 8.640625 2.601562 "/>
<path style=" stroke:none;fill-rule:nonzero;fill:rgb(100%,100%,100%);fill-opacity:1;" d="M 9.070312 2.441406 L 8.683594 2.441406 L 8.683594 2.632812 "/>
<path style=" stroke:none;fill-rule:nonzero;fill:rgb(100%,100%,100%);fill-opacity:1;" d="M 9.070312 2.441406 L 8.757812 2.667969 L 8.644531 2.511719 "/>
<path style=" stroke:none;fill-rule:nonzero;fill:rgb(100%,100%,100%);fill-opacity:1;" d="M 8.339844 2.441406 L 8.648438 2.667969 L 8.761719 2.511719 "/>
<path style=" stroke:none;fill-rule:nonzero;fill:rgb(100%,100%,100%);fill-opacity:1;" d="M 8.339844 2.441406 L 8.722656 2.441406 L 8.722656 2.632812 "/>
<path style=" stroke:none;fill-rule:nonzero;fill:rgb(100%,100%,100%);fill-opacity:1;" d="M 8.929688 2.871094 L 8.8125 2.503906 L 8.628906 2.566406 "/>
<path style=" stroke:none;fill-rule:nonzero;fill:rgb(100%,100%,100%);fill-opacity:1;" d="M 8.929688 2.871094 L 8.617188 2.644531 L 8.730469 2.488281 "/>
<path style=" stroke:none;fill-rule:nonzero;fill:rgb(100%,100%,100%);fill-opacity:1;" d="M 8.476562 2.871094 L 8.789062 2.644531 L 8.675781 2.488281 "/>
<path style=" stroke:none;fill-rule:nonzero;fill:rgb(100%,100%,100%);fill-opacity:1;" d="M 8.476562 2.871094 L 8.597656 2.503906 L 8.78125 2.566406 "/>
<path style=" stroke:none;fill-rule:nonzero;fill:rgb(100%,100%,100%);fill-opacity:1;" d="M 8.703125 0.640625 L 8.585938 1.003906 L 8.769531 1.066406 "/>
<path style=" stroke:none;fill-rule:nonzero;fill:rgb(100%,100%,100%);fill-opacity:1;" d="M 8.703125 0.640625 L 8.824219 1.003906 L 8.640625 1.066406 "/>
<path style=" stroke:none;fill-rule:nonzero;fill:rgb(100%,100%,100%);fill-opacity:1;" d="M 9.070312 0.90625 L 8.683594 0.90625 L 8.683594 1.097656 "/>
<path style=" stroke:none;fill-rule:nonzero;fill:rgb(100%,100%,100%);fill-opacity:1;" d="M 9.070312 0.90625 L 8.757812 1.132812 L 8.644531 0.976562 "/>
<path style=" stroke:none;fill-rule:nonzero;fill:rgb(100%,100%,100%);fill-opacity:1;" d="M 8.339844 0.90625 L 8.648438 1.132812 L 8.761719 0.976562 "/>
<path style=" stroke:none;fill-rule:nonzero;fill:rgb(100%,100%,100%);fill-opacity:1;" d="M 8.339844 0.90625 L 8.722656 0.90625 L 8.722656 1.097656 "/>
<path style=" stroke:none;fill-rule:nonzero;fill:rgb(100%,100%,100%);fill-opacity:1;" d="M 8.929688 1.335938 L 8.8125 0.96875 L 8.628906 1.027344 "/>
<path style=" stroke:none;fill-rule:nonzero;fill:rgb(100%,100%,100%);fill-opacity:1;" d="M 8.929688 1.335938 L 8.617188 1.109375 L 8.730469 0.953125 "/>
<path style=" stroke:none;fill-rule:nonzero;fill:rgb(100%,100%,100%);fill-opacity:1;" d="M 8.476562 1.335938 L 8.789062 1.109375 L 8.675781 0.953125 "/>
<path style=" stroke:none;fill-rule:nonzero;fill:rgb(100%,100%,100%);fill-opacity:1;" d="M 8.476562 1.335938 L 8.597656 0.96875 L 8.78125 1.027344 "/>
<path style=" stroke:none;fill-rule:nonzero;fill:rgb(100%,100%,100%);fill-opacity:1;" d="M 10.238281 3.710938 L 10.121094 4.078125 L 10.304688 4.136719 "/>
<path style=" stroke:none;fill-rule:nonzero;fill:rgb(100%,100%,100%);fill-opacity:1;" d="M 10.238281 3.710938 L 10.359375 4.078125 L 10.175781 4.136719 "/>
<path style=" stroke:none;fill-rule:nonzero;fill:rgb(100%,100%,100%);fill-opacity:1;" d="M 10.605469 3.976562 L 10.222656 3.976562 L 10.222656 4.167969 "/>
<path style=" stroke:none;fill-rule:nonzero;fill:rgb(100%,100%,100%);fill-opacity:1;" d="M 10.605469 3.976562 L 10.292969 4.203125 L 10.183594 4.046875 "/>
<path style=" stroke:none;fill-rule:nonzero;fill:rgb(100%,100%,100%);fill-opacity:1;" d="M 9.875 3.976562 L 10.183594 4.203125 L 10.296875 4.046875 "/>
<path style=" stroke:none;fill-rule:nonzero;fill:rgb(100%,100%,100%);fill-opacity:1;" d="M 9.875 3.976562 L 10.257812 3.976562 L 10.257812 4.167969 "/>
<path style=" stroke:none;fill-rule:nonzero;fill:rgb(100%,100%,100%);fill-opacity:1;" d="M 10.464844 4.40625 L 10.347656 4.042969 L 10.164062 4.101562 "/>
<path style=" stroke:none;fill-rule:nonzero;fill:rgb(100%,100%,100%);fill-opacity:1;" d="M 10.464844 4.40625 L 10.15625 4.179688 L 10.269531 4.027344 "/>
<path style=" stroke:none;fill-rule:nonzero;fill:rgb(100%,100%,100%);fill-opacity:1;" d="M 10.015625 4.40625 L 10.324219 4.179688 L 10.210938 4.027344 "/>
<path style=" stroke:none;fill-rule:nonzero;fill:rgb(100%,100%,100%);fill-opacity:1;" d="M 10.015625 4.40625 L 10.132812 4.042969 L 10.316406 4.101562 "/>
<path style=" stroke:none;fill-rule:nonzero;fill:rgb(100%,100%,100%);fill-opacity:1;" d="M 10.238281 2.175781 L 10.121094 2.542969 L 10.304688 2.601562 "/>
<path style=" stroke:none;fill-rule:nonzero;fill:rgb(100%,100%,100%);fill-opacity:1;" d="M 10.238281 2.175781 L 10.359375 2.542969 L 10.175781 2.601562 "/>
<path style=" stroke:none;fill-rule:nonzero;fill:rgb(100%,100%,100%);fill-opacity:1;" d="M 10.605469 2.441406 L 10.222656 2.441406 L 10.222656 2.632812 "/>
<path style=" stroke:none;fill-rule:nonzero;fill:rgb(100%,100%,100%);fill-opacity:1;" d="M 10.605469 2.441406 L 10.292969 2.667969 L 10.183594 2.511719 "/>
<path style=" stroke:none;fill-rule:nonzero;fill:rgb(100%,100%,100%);fill-opacity:1;" d="M 9.875 2.441406 L 10.183594 2.667969 L 10.296875 2.511719 "/>
<path style=" stroke:none;fill-rule:nonzero;fill:rgb(100%,100%,100%);fill-opacity:1;" d="M 9.875 2.441406 L 10.257812 2.441406 L 10.257812 2.632812 "/>
<path style=" stroke:none;fill-rule:nonzero;fill:rgb(100%,100%,100%);fill-opacity:1;" d="M 10.464844 2.871094 L 10.347656 2.503906 L 10.164062 2.566406 "/>
<path style=" stroke:none;fill-rule:nonzero;fill:rgb(100%,100%,100%);fill-opacity:1;" d="M 10.464844 2.871094 L 10.15625 2.644531 L 10.269531 2.488281 "/>
<path style=" stroke:none;fill-rule:nonzero;fill:rgb(100%,100%,100%);fill-opacity:1;" d="M 10.015625 2.871094 L 10.324219 2.644531 L 10.210938 2.488281 "/>
<path style=" stroke:none;fill-rule:nonzero;fill:rgb(100%,100%,100%);fill-opacity:1;" d="M 10.015625 2.871094 L 10.132812 2.503906 L 10.316406 2.566406 "/>
<path style=" stroke:none;fill-rule:nonzero;fill:rgb(100%,100%,100%);fill-opacity:1;" d="M 10.238281 0.640625 L 10.121094 1.003906 L 10.304688 1.066406 "/>
<path style=" stroke:none;fill-rule:nonzero;fill:rgb(100%,100%,100%);fill-opacity:1;" d="M 10.238281 0.640625 L 10.359375 1.003906 L 10.175781 1.066406 "/>
<path style=" stroke:none;fill-rule:nonzero;fill:rgb(100%,100%,100%);fill-opacity:1;" d="M 10.605469 0.90625 L 10.222656 0.90625 L 10.222656 1.097656 "/>
<path style=" stroke:none;fill-rule:nonzero;fill:rgb(100%,100%,100%);fill-opacity:1;" d="M 10.605469 0.90625 L 10.292969 1.132812 L 10.183594 0.976562 "/>
<path style=" stroke:none;fill-rule:nonzero;fill:rgb(100%,100%,100%);fill-opacity:1;" d="M 9.875 0.90625 L 10.183594 1.132812 L 10.296875 0.976562 "/>
<path style=" stroke:none;fill-rule:nonzero;fill:rgb(100%,100%,100%);fill-opacity:1;" d="M 9.875 0.90625 L 10.257812 0.90625 L 10.257812 1.097656 "/>
<path style=" stroke:none;fill-rule:nonzero;fill:rgb(100%,100%,100%);fill-opacity:1;" d="M 10.464844 1.335938 L 10.347656 0.96875 L 10.164062 1.027344 "/>
<path style=" stroke:none;fill-rule:nonzero;fill:rgb(100%,100%,100%);fill-opacity:1;" d="M 10.464844 1.335938 L 10.15625 1.109375 L 10.269531 0.953125 "/>
<path style=" stroke:none;fill-rule:nonzero;fill:rgb(100%,100%,100%);fill-opacity:1;" d="M 10.015625 1.335938 L 10.324219 1.109375 L 10.210938 0.953125 "/>
<path style=" stroke:none;fill-rule:nonzero;fill:rgb(100%,100%,100%);fill-opacity:1;" d="M 10.015625 1.335938 L 10.132812 0.96875 L 10.316406 1.027344 "/>
<path style=" stroke:none;fill-rule:nonzero;fill:rgb(100%,100%,100%);fill-opacity:1;" d="M 11.777344 3.710938 L 11.65625 4.078125 L 11.839844 4.136719 "/>
<path style=" stroke:none;fill-rule:nonzero;fill:rgb(100%,100%,100%);fill-opacity:1;" d="M 11.777344 3.710938 L 11.894531 4.078125 L 11.710938 4.136719 "/>
<path style=" stroke:none;fill-rule:nonzero;fill:rgb(100%,100%,100%);fill-opacity:1;" d="M 12.140625 3.976562 L 11.757812 3.976562 L 11.757812 4.167969 "/>
<path style=" stroke:none;fill-rule:nonzero;fill:rgb(100%,100%,100%);fill-opacity:1;" d="M 12.140625 3.976562 L 11.832031 4.203125 L 11.71875 4.046875 "/>
<path style=" stroke:none;fill-rule:nonzero;fill:rgb(100%,100%,100%);fill-opacity:1;" d="M 11.410156 3.976562 L 11.722656 4.203125 L 11.835938 4.046875 "/>
<path style=" stroke:none;fill-rule:nonzero;fill:rgb(100%,100%,100%);fill-opacity:1;" d="M 11.410156 3.976562 L 11.792969 3.976562 L 11.792969 4.167969 "/>
<path style=" stroke:none;fill-rule:nonzero;fill:rgb(100%,100%,100%);fill-opacity:1;" d="M 12 4.40625 L 11.882812 4.042969 L 11.699219 4.101562 "/>
<path style=" stroke:none;fill-rule:nonzero;fill:rgb(100%,100%,100%);fill-opacity:1;" d="M 12 4.40625 L 11.691406 4.179688 L 11.804688 4.027344 "/>
<path style=" stroke:none;fill-rule:nonzero;fill:rgb(100%,100%,100%);fill-opacity:1;" d="M 11.550781 4.40625 L 11.859375 4.179688 L 11.75 4.027344 "/>
<path style=" stroke:none;fill-rule:nonzero;fill:rgb(100%,100%,100%);fill-opacity:1;" d="M 11.550781 4.40625 L 11.667969 4.042969 L 11.851562 4.101562 "/>
<path style=" stroke:none;fill-rule:nonzero;fill:rgb(100%,100%,100%);fill-opacity:1;" d="M 11.777344 2.175781 L 11.65625 2.542969 L 11.839844 2.601562 "/>
<path style=" stroke:none;fill-rule:nonzero;fill:rgb(100%,100%,100%);fill-opacity:1;" d="M 11.777344 2.175781 L 11.894531 2.542969 L 11.710938 2.601562 "/>
<path style=" stroke:none;fill-rule:nonzero;fill:rgb(100%,100%,100%);fill-opacity:1;" d="M 12.140625 2.441406 L 11.757812 2.441406 L 11.757812 2.632812 "/>
<path style=" stroke:none;fill-rule:nonzero;fill:rgb(100%,100%,100%);fill-opacity:1;" d="M 12.140625 2.441406 L 11.832031 2.667969 L 11.71875 2.511719 "/>
<path style=" stroke:none;fill-rule:nonzero;fill:rgb(100%,100%,100%);fill-opacity:1;" d="M 11.410156 2.441406 L 11.722656 2.667969 L 11.835938 2.511719 "/>
<path style=" stroke:none;fill-rule:nonzero;fill:rgb(100%,100%,100%);fill-opacity:1;" d="M 11.410156 2.441406 L 11.792969 2.441406 L 11.792969 2.632812 "/>
<path style=" stroke:none;fill-rule:nonzero;fill:rgb(100%,100%,100%);fill-opacity:1;" d="M 12 2.871094 L 11.882812 2.503906 L 11.699219 2.566406 "/>
<path style=" stroke:none;fill-rule:nonzero;fill:rgb(100%,100%,100%);fill-opacity:1;" d="M 12 2.871094 L 11.691406 2.644531 L 11.804688 2.488281 "/>
<path style=" stroke:none;fill-rule:nonzero;fill:rgb(100%,100%,100%);fill-opacity:1;" d="M 11.550781 2.871094 L 11.859375 2.644531 L 11.75 2.488281 "/>
<path style=" stroke:none;fill-rule:nonzero;fill:rgb(100%,100%,100%);fill-opacity:1;" d="M 11.550781 2.871094 L 11.667969 2.503906 L 11.851562 2.566406 "/>
<path style=" stroke:none;fill-rule:nonzero;fill:rgb(100%,100%,100%);fill-opacity:1;" d="M 11.777344 0.640625 L 11.65625 1.003906 L 11.839844 1.066406 "/>
<path style=" stroke:none;fill-rule:nonzero;fill:rgb(100%,100%,100%);fill-opacity:1;" d="M 11.777344 0.640625 L 11.894531 1.003906 L 11.710938 1.066406 "/>
<path style=" stroke:none;fill-rule:nonzero;fill:rgb(100%,100%,100%);fill-opacity:1;" d="M 12.140625 0.90625 L 11.757812 0.90625 L 11.757812 1.097656 "/>
<path style=" stroke:none;fill-rule:nonzero;fill:rgb(100%,100%,100%);fill-opacity:1;" d="M 12.140625 0.90625 L 11.832031 1.132812 L 11.71875 0.976562 "/>
<path style=" stroke:none;fill-rule:nonzero;fill:rgb(100%,100%,100%);fill-opacity:1;" d="M 11.410156 0.90625 L 11.722656 1.132812 L 11.835938 0.976562 "/>
<path style=" stroke:none;fill-rule:nonzero;fill:rgb(100%,100%,100%);fill-opacity:1;" d="M 11.410156 0.90625 L 11.792969 0.90625 L 11.792969 1.097656 "/>
<path style=" stroke:none;fill-rule:nonzero;fill:rgb(100%,100%,100%);fill-opacity:1;" d="M 12 1.335938 L 11.882812 0.96875 L 11.699219 1.027344 "/>
<path style=" stroke:none;fill-rule:nonzero;fill:rgb(100%,100%,100%);fill-opacity:1;" d="M 12 1.335938 L 11.691406 1.109375 L 11.804688 0.953125 "/>
<path style=" stroke:none;fill-rule:nonzero;fill:rgb(100%,100%,100%);fill-opacity:1;" d="M 11.550781 1.335938 L 11.859375 1.109375 L 11.75 0.953125 "/>
<path style=" stroke:none;fill-rule:nonzero;fill:rgb(100%,100%,100%);fill-opacity:1;" d="M 11.550781 1.335938 L 11.667969 0.96875 L 11.851562 1.027344 "/>
<path style=" stroke:none;fill-rule:nonzero;fill:rgb(100%,100%,100%);fill-opacity:1;" d="M 5.632812 3.710938 L 5.511719 4.078125 L 5.695312 4.136719 "/>
<path style=" stroke:none;fill-rule:nonzero;fill:rgb(100%,100%,100%);fill-opacity:1;" d="M 5.632812 3.710938 L 5.75 4.078125 L 5.566406 4.136719 "/>
<path style=" stroke:none;fill-rule:nonzero;fill:rgb(100%,100%,100%);fill-opacity:1;" d="M 5.996094 3.976562 L 5.613281 3.976562 L 5.613281 4.167969 "/>
<path style=" stroke:none;fill-rule:nonzero;fill:rgb(100%,100%,100%);fill-opacity:1;" d="M 5.996094 3.976562 L 5.6875 4.203125 L 5.574219 4.046875 "/>
<path style=" stroke:none;fill-rule:nonzero;fill:rgb(100%,100%,100%);fill-opacity:1;" d="M 5.265625 3.976562 L 5.578125 4.203125 L 5.691406 4.046875 "/>
<path style=" stroke:none;fill-rule:nonzero;fill:rgb(100%,100%,100%);fill-opacity:1;" d="M 5.265625 3.976562 L 5.652344 3.976562 L 5.652344 4.167969 "/>
<path style=" stroke:none;fill-rule:nonzero;fill:rgb(100%,100%,100%);fill-opacity:1;" d="M 5.859375 4.40625 L 5.738281 4.042969 L 5.554688 4.101562 "/>
<path style=" stroke:none;fill-rule:nonzero;fill:rgb(100%,100%,100%);fill-opacity:1;" d="M 5.859375 4.40625 L 5.546875 4.179688 L 5.660156 4.027344 "/>
<path style=" stroke:none;fill-rule:nonzero;fill:rgb(100%,100%,100%);fill-opacity:1;" d="M 5.40625 4.40625 L 5.71875 4.179688 L 5.605469 4.027344 "/>
<path style=" stroke:none;fill-rule:nonzero;fill:rgb(100%,100%,100%);fill-opacity:1;" d="M 5.40625 4.40625 L 5.523438 4.042969 L 5.707031 4.101562 "/>
<path style=" stroke:none;fill-rule:nonzero;fill:rgb(100%,100%,100%);fill-opacity:1;" d="M 7.167969 3.710938 L 7.050781 4.078125 L 7.230469 4.136719 "/>
<path style=" stroke:none;fill-rule:nonzero;fill:rgb(100%,100%,100%);fill-opacity:1;" d="M 7.167969 3.710938 L 7.285156 4.078125 L 7.105469 4.136719 "/>
<path style=" stroke:none;fill-rule:nonzero;fill:rgb(100%,100%,100%);fill-opacity:1;" d="M 7.535156 3.976562 L 7.148438 3.976562 L 7.148438 4.167969 "/>
<path style=" stroke:none;fill-rule:nonzero;fill:rgb(100%,100%,100%);fill-opacity:1;" d="M 7.535156 3.976562 L 7.222656 4.203125 L 7.109375 4.046875 "/>
<path style=" stroke:none;fill-rule:nonzero;fill:rgb(100%,100%,100%);fill-opacity:1;" d="M 6.804688 3.976562 L 7.113281 4.203125 L 7.226562 4.046875 "/>
<path style=" stroke:none;fill-rule:nonzero;fill:rgb(100%,100%,100%);fill-opacity:1;" d="M 6.804688 3.976562 L 7.1875 3.976562 L 7.1875 4.167969 "/>
<path style=" stroke:none;fill-rule:nonzero;fill:rgb(100%,100%,100%);fill-opacity:1;" d="M 7.394531 4.40625 L 7.273438 4.042969 L 7.09375 4.101562 "/>
<path style=" stroke:none;fill-rule:nonzero;fill:rgb(100%,100%,100%);fill-opacity:1;" d="M 7.394531 4.40625 L 7.082031 4.179688 L 7.195312 4.027344 "/>
<path style=" stroke:none;fill-rule:nonzero;fill:rgb(100%,100%,100%);fill-opacity:1;" d="M 6.941406 4.40625 L 7.253906 4.179688 L 7.140625 4.027344 "/>
<path style=" stroke:none;fill-rule:nonzero;fill:rgb(100%,100%,100%);fill-opacity:1;" d="M 6.941406 4.40625 L 7.0625 4.042969 L 7.242188 4.101562 "/>
<path style=" stroke:none;fill-rule:nonzero;fill:rgb(100%,100%,100%);fill-opacity:1;" d="M 7.167969 2.175781 L 7.050781 2.542969 L 7.230469 2.601562 "/>
<path style=" stroke:none;fill-rule:nonzero;fill:rgb(100%,100%,100%);fill-opacity:1;" d="M 7.167969 2.175781 L 7.285156 2.542969 L 7.105469 2.601562 "/>
<path style=" stroke:none;fill-rule:nonzero;fill:rgb(100%,100%,100%);fill-opacity:1;" d="M 7.535156 2.441406 L 7.148438 2.441406 L 7.148438 2.632812 "/>
<path style=" stroke:none;fill-rule:nonzero;fill:rgb(100%,100%,100%);fill-opacity:1;" d="M 7.535156 2.441406 L 7.222656 2.667969 L 7.109375 2.511719 "/>
<path style=" stroke:none;fill-rule:nonzero;fill:rgb(100%,100%,100%);fill-opacity:1;" d="M 6.804688 2.441406 L 7.113281 2.667969 L 7.226562 2.511719 "/>
<path style=" stroke:none;fill-rule:nonzero;fill:rgb(100%,100%,100%);fill-opacity:1;" d="M 6.804688 2.441406 L 7.1875 2.441406 L 7.1875 2.632812 "/>
<path style=" stroke:none;fill-rule:nonzero;fill:rgb(100%,100%,100%);fill-opacity:1;" d="M 7.394531 2.871094 L 7.273438 2.503906 L 7.09375 2.566406 "/>
<path style=" stroke:none;fill-rule:nonzero;fill:rgb(100%,100%,100%);fill-opacity:1;" d="M 7.394531 2.871094 L 7.082031 2.644531 L 7.195312 2.488281 "/>
<path style=" stroke:none;fill-rule:nonzero;fill:rgb(100%,100%,100%);fill-opacity:1;" d="M 6.941406 2.871094 L 7.253906 2.644531 L 7.140625 2.488281 "/>
<path style=" stroke:none;fill-rule:nonzero;fill:rgb(100%,100%,100%);fill-opacity:1;" d="M 6.941406 2.871094 L 7.0625 2.503906 L 7.242188 2.566406 "/>
</g>
</svg>
