<svg xmlns="http://www.w3.org/2000/svg" xmlns:xlink="http://www.w3.org/1999/xlink" id="flag-icons-va" viewBox="0 0 24 18" width="24" height="16"><path fill="#fff" d="M12 0h12v18H12z"/><path fill="#ffe000" d="M0 0h12v18H0z"/><g stroke="#000" stroke-linejoin="round" stroke-width="3.2"><g fill="#ce9d09" stroke-linecap="round" transform="translate(123)scale(.192)"><g id="va-a"><path fill="#fff" d="m66.787 37.136 0.607 0.142 0.96 0.158 0.443 0.049 -0.075 1.875s-0.109 1.238 -0.292 1.834c-0.135 0.439 -0.589 1.245 -0.589 1.245l-0.289 0.439 -1.702 -1.474s0.292 -0.412 0.397 -0.637c0.131 -0.281 0.289 -0.892 0.289 -0.892l0.165 -0.975 0.09 -1.226zm-2.137 5.681 1.552 1.35s-0.315 0.278 -0.502 0.364a2.76 2.76 0 0 1 -1.185 0.274 2.175 2.175 0 0 1 -0.836 -0.232c-0.589 -0.27 -1.238 -0.551 -1.62 -1.076 -0.135 -0.188 -0.188 -0.435 -0.184 -0.664 0.007 -0.263 0.236 -0.746 0.236 -0.746s0.09 0.326 0.191 0.45a1.845 1.845 0 0 0 0.66 0.465 1.594 1.594 0 0 0 1.358 0.041c0.124 -0.049 0.334 -0.225 0.334 -0.225z"/><path fill="#fff" d="M62.201 32.914s0.12 0.247 0.158 0.379c0.068 0.225 0.112 0.461 0.112 0.698a2.955 2.955 0 0 1 -0.12 0.698 6.412 6.412 0 0 1 -0.386 0.986c-0.098 0.203 -0.225 0.386 -0.322 0.593 -0.154 0.326 -0.263 0.675 -0.397 1.005 -0.112 0.281 -0.259 0.551 -0.345 0.84 -0.112 0.382 -0.169 0.784 -0.225 1.177a8.625 8.625 0 0 0 -0.086 1.031c0 0.412 0.011 0.825 0.086 1.222s0.188 0.795 0.367 1.162a2.966 2.966 0 0 0 1.192 1.305c0.206 0.128 0.446 0.199 0.675 0.292 0.311 0.124 0.952 0.349 0.952 0.349s-0.885 -0.435 -1.192 -0.802a2.565 2.565 0 0 1 -0.48 -1.084 4.211 4.211 0 0 1 -0.045 -1.373 7.35 7.35 0 0 1 0.345 -1.436c0.158 -0.495 0.375 -0.971 0.578 -1.448 0.146 -0.349 0.311 -0.682 0.45 -1.031 0.169 -0.412 0.33 -0.825 0.465 -1.245 0.079 -0.259 0.18 -0.514 0.203 -0.784a2.85 2.85 0 0 0 -0.083 -0.877 3.337 3.337 0 0 0 -0.443 -1.147 1.541 1.541 0 0 0 -0.555 -0.495c-0.214 -0.109 -0.469 -0.203 -0.709 -0.154 -0.075 0.015 -0.195 0.139 -0.195 0.139"/><path fill="#fff" d="M64.185 35.46s0.165 -0.675 0.195 -1.02c0.022 -0.296 0.007 -0.593 -0.022 -0.889 -0.037 -0.326 -0.056 -0.667 -0.184 -0.971a2.561 2.561 0 0 0 -1.433 -1.387 3.458 3.458 0 0 0 -1.05 -0.18 4.875 4.875 0 0 0 -1.425 0.15c-0.15 0.052 -0.439 0.214 -0.439 0.214l1.125 1.837s0.349 -0.21 0.544 -0.263a2.051 2.051 0 0 1 0.637 -0.045c0.217 0.015 0.439 0.037 0.637 0.124a2.137 2.137 0 0 1 0.66 0.499 2.771 2.771 0 0 1 0.563 0.825c0.112 0.281 0.131 0.6 0.172 0.907 0.011 0.064 0.019 0.199 0.019 0.199"/><path d="M64.388 34.001s-0.199 -0.623 -0.386 -0.881a2.392 2.392 0 0 0 -0.836 -0.743c-0.352 -0.176 -1.162 -0.232 -1.162 -0.232l0.427 0.787 -0.75 -0.015 -0.386 -0.652 -0.724 0.326 -0.356 -0.589 0.765 -0.352 -0.352 -0.57 0.765 -0.075 0.334 0.551s0.596 0 0.885 0.064a2.183 2.183 0 0 1 1.031 0.54 2.55 2.55 0 0 1 0.45 0.532c0.112 0.191 0.244 0.626 0.244 0.626z"/><path d="m59.314 31.688 1.192 1.751m-0.675 -2.055 -0.563 0.33 -0.536 0.412 1.162 1.766 0.514 -0.397 0.529 -0.307zm2.186 7.462 0.671 -1.387 0.716 0.289 0.292 -0.713 -0.713 -0.337 0.367 -0.799 -0.525 -0.236 -0.397 0.769 -0.72 -0.3 -0.315 0.75 0.698 0.289 -0.645 1.376zm5.37 -0.416 0.679 -0.015v0.787l0.66 0.034 -0.112 0.802 -0.615 -0.037s-0.101 0.469 -0.191 0.69c-0.094 0.232 -0.364 0.652 -0.364 0.652l-0.727 -0.18s0.263 -0.412 0.364 -0.637c0.09 -0.203 0.214 -0.623 0.214 -0.623l-0.75 -0.094 0.131 -0.757 0.679 0.045z"/></g><use xlink:href="#va-a" width="100%" height="100%" transform="matrix(-1 0 0 1 3717.8 0)"/><path fill="#fff" d="m65.876 27.585 -1.031 1.102 0.637 1.912 0.36 1.342 -1.039 0.968 1.901 2.663 -0.652 0.746a0.457 0.457 0 0 0 -0.079 0.322c0.011 0.101 0.06 0.203 0.135 0.274 0.169 0.154 0.424 0.191 0.649 0.251 0.787 0.21 1.609 0.3 2.422 0.364 0.176 0.015 0.525 0 0.525 0s0.352 0.015 0.529 0c0.818 -0.06 1.635 -0.154 2.426 -0.364 0.225 -0.06 0.476 -0.098 0.649 -0.251a0.457 0.457 0 0 0 0.052 -0.596l-0.611 -1.35 1.942 -2.077 -0.739 -0.671 -0.019 -1.62 0.637 -1.912 -0.956 -0.964 -0.862 -2.295s-0.176 -0.641 -0.33 -0.938c-0.09 -0.172 -0.217 -0.326 -0.345 -0.48 -0.15 -0.184 -0.3 -0.371 -0.48 -0.521a3.188 3.188 0 0 0 -0.547 -0.337c-0.206 -0.109 -0.412 -0.225 -0.634 -0.281 -0.229 -0.056 -0.713 -0.056 -0.713 -0.056s-0.476 0 -0.709 0.056c-0.225 0.06 -0.427 0.172 -0.63 0.281a3.188 3.188 0 0 0 -0.547 0.337c-0.184 0.15 -0.334 0.337 -0.484 0.521 -0.124 0.15 -0.251 0.307 -0.341 0.484 -0.154 0.292 -0.334 0.934 -0.334 0.934z"/><path d="M73.624 34.991s-0.12 -0.105 -0.188 -0.15a2.419 2.419 0 0 0 -0.45 -0.225c-0.206 -0.083 -0.431 -0.124 -0.649 -0.176a7.38 7.38 0 0 0 -1.661 -0.214c-0.322 0 -0.968 0.049 -0.968 0.049s-0.645 -0.049 -0.968 -0.049a7.32 7.32 0 0 0 -1.661 0.214c-0.221 0.052 -0.443 0.094 -0.652 0.176a2.419 2.419 0 0 0 -0.45 0.225c-0.064 0.045 -0.188 0.15 -0.188 0.15m8.205 -1.601s-0.195 -0.195 -0.322 -0.221a0.337 0.337 0 0 0 -0.247 0.056 0.491 0.491 0 0 0 -0.15 0.57c0.03 0.075 0.075 0.161 0.154 0.195 0.18 0.071 0.578 -0.075 0.578 -0.075zm0.191 -0.135c0.217 0.007 0.3 0.12 0.356 0.244m-9.12 -0.109 -0.011 0.525s0.394 0.146 0.574 0.075c0.075 -0.034 0.128 -0.116 0.158 -0.195a0.491 0.491 0 0 0 -0.15 -0.57 0.334 0.334 0 0 0 -0.247 -0.056c-0.131 0.026 -0.322 0.225 -0.322 0.225zm-0.195 -0.135c-0.217 0.007 -0.3 0.12 -0.352 0.244m7.429 0.052 -0.315 -0.037m-4.875 0.037 0.315 -0.037m2.85 0.03c-0.109 -0.015 -0.285 -0.158 -0.285 -0.158m-0.855 0.158c0.105 -0.015 0.285 -0.158 0.285 -0.158m5.287 -0.724s-0.161 0.124 -0.278 0.142l-0.045 0.026s-0.075 0.214 -0.135 0.307a1.676 1.676 0 0 1 -0.244 0.232s-0.18 -0.154 -0.289 -0.188c-0.075 -0.019 -0.158 -0.019 -0.225 0.011a0.412 0.412 0 0 0 -0.18 0.161c-0.052 0.075 -0.101 0.172 -0.098 0.263 0.004 0.112 0.146 0.311 0.146 0.311l-0.098 0.169 -0.139 0.086a3.386 3.386 0 0 1 -0.713 -0.281 0.709 0.709 0 0 1 -0.165 -0.337s0.169 -0.101 0.21 -0.188c0.045 -0.094 0.06 -0.225 0.007 -0.315 -0.06 -0.098 -0.199 -0.15 -0.315 -0.15a0.33 0.33 0 0 0 -0.236 0.101c-0.06 0.068 -0.112 0.169 -0.094 0.263 0.015 0.09 0.176 0.214 0.176 0.214s-0.068 0.172 -0.142 0.206c-0.225 0.094 -0.375 0.15 -0.574 0.18a1.462 1.462 0 0 1 -0.611 0 0.637 0.637 0 0 1 -0.337 -0.206c-0.022 -0.034 -0.03 -0.112 -0.03 -0.112s0.244 -0.064 0.337 -0.139c0.098 -0.075 0.199 -0.172 0.221 -0.292 0.019 -0.12 -0.045 -0.247 -0.112 -0.345a0.675 0.675 0 0 0 -0.285 -0.225c-0.049 -0.022 -0.161 -0.026 -0.161 -0.026l-0.037 0.034a0.547 0.547 0 0 1 -0.176 0.142h-0.004l-0.007 0.004 -0.041 0.022 -0.03 0.004 -0.09 0.03s0.142 0.045 0.188 0.105c0.022 0.034 0.034 0.075 0.037 0.124l0.007 0.075c0 0.045 -0.011 0.086 -0.026 0.128a0.337 0.337 0 0 1 -0.064 0.131c-0.015 0.022 -0.037 0.037 -0.06 0.052q0 0 0 0l-0.007 0.004c-0.037 0.026 -0.083 0.045 -0.124 0.056 -0.052 0.015 -0.158 0.004 -0.161 0.004 0 0 0.206 0 0.285 -0.06l0.007 -0.004a0.401 0.401 0 0 0 0.142 -0.27v-0.112c-0.011 -0.06 -0.037 -0.12 -0.083 -0.158 -0.09 -0.079 -0.349 -0.09 -0.352 -0.09s-0.263 0.011 -0.352 0.09a0.285 0.285 0 0 0 -0.086 0.158v0.116l0.019 0.086c0.026 0.075 0.068 0.139 0.124 0.184l0.007 0.004c0.083 0.06 0.285 0.06 0.289 0.06 -0.004 0 -0.112 0.011 -0.161 0 -0.045 -0.015 -0.09 -0.034 -0.128 -0.06h-0.004v-0.004c-0.026 -0.015 -0.045 -0.03 -0.064 -0.052a0.337 0.337 0 0 1 -0.064 -0.131c-0.011 -0.037 -0.022 -0.083 -0.026 -0.124l0.007 -0.079c0.007 -0.045 0.019 -0.09 0.041 -0.124 0.041 -0.06 0.188 -0.105 0.188 -0.105l-0.094 -0.03 -0.026 -0.004 -0.045 -0.022h-0.004l-0.004 -0.004a0.563 0.563 0 0 1 -0.18 -0.142l-0.037 -0.034s-0.112 0 -0.158 0.026a0.675 0.675 0 0 0 -0.285 0.225c-0.068 0.098 -0.131 0.225 -0.112 0.345s0.124 0.217 0.217 0.292c0.098 0.075 0.337 0.139 0.337 0.139s-0.007 0.079 -0.03 0.112a0.637 0.637 0 0 1 -0.337 0.206 1.462 1.462 0 0 1 -0.611 0 2.212 2.212 0 0 1 -0.57 -0.18c-0.075 -0.037 -0.146 -0.206 -0.146 -0.206s0.165 -0.124 0.18 -0.217c0.015 -0.09 -0.037 -0.188 -0.098 -0.259a0.33 0.33 0 0 0 -0.232 -0.105c-0.116 0 -0.255 0.056 -0.315 0.154 -0.056 0.09 -0.037 0.221 0.007 0.315 0.037 0.086 0.21 0.188 0.21 0.188a0.709 0.709 0 0 1 -0.169 0.337 3.319 3.319 0 0 1 -0.713 0.281l-0.135 -0.086 -0.098 -0.169s0.139 -0.195 0.142 -0.307c0.007 -0.094 -0.041 -0.188 -0.094 -0.266a0.42 0.42 0 0 0 -0.18 -0.161c-0.068 -0.03 -0.15 -0.03 -0.225 -0.007 -0.112 0.03 -0.289 0.184 -0.289 0.184s-0.18 -0.142 -0.244 -0.232a1.826 1.826 0 0 1 -0.139 -0.307l-0.045 -0.026c-0.112 -0.019 -0.274 -0.142 -0.274 -0.142l-0.165 0.037s-0.154 0.079 -0.158 0.15c0 0.105 0.142 0.15 0.206 0.225 0.052 0.071 0.105 0.139 0.154 0.214 0.045 0.068 0.109 0.128 0.131 0.206 0.022 0.086 -0.037 0.188 0 0.27 0.045 0.101 0.139 0.203 0.251 0.225 0.098 0.019 0.285 -0.098 0.285 -0.098l-0.007 0.746 0.386 0.349 0.364 0.761 -0.142 0.195 0.041 0.375c0.281 -0.36 0.769 -0.517 1.208 -0.645 0.589 -0.169 1.673 -0.18 2.175 -0.176l0.274 0.004s1.661 -0.052 2.445 0.172c0.439 0.128 0.926 0.285 1.208 0.645l0.045 -0.375 -0.146 -0.195 0.364 -0.761 0.386 -0.349 -0.004 -0.746s0.188 0.116 0.285 0.098c0.112 -0.022 0.206 -0.124 0.251 -0.225 0.037 -0.083 -0.026 -0.184 0 -0.27 0.022 -0.075 0.083 -0.139 0.128 -0.206 0.049 -0.075 0.101 -0.142 0.158 -0.21 0.064 -0.079 0.206 -0.124 0.203 -0.225 0 -0.075 -0.154 -0.158 -0.154 -0.158zm-5.565 -0.098c0.037 0.037 0.112 0.105 0.18 0.142l0.007 0.004c0.019 0.011 0.045 0.019 0.075 0.026 0.105 0.03 0.292 0.011 0.3 0.011h0c0.004 0 0.191 0.019 0.3 -0.011l0.075 -0.026 0.007 -0.004c0.064 -0.037 0.139 -0.109 0.18 -0.142 0.019 -0.026 0.037 -0.052 0.049 -0.083 0.041 -0.101 0.037 -0.229 -0.007 -0.326 -0.06 -0.112 -0.195 -0.169 -0.304 -0.236 -0.094 -0.056 -0.3 -0.139 -0.3 -0.139a2.587 2.587 0 0 0 -0.3 0.139c-0.112 0.068 -0.247 0.124 -0.304 0.236 -0.049 0.098 -0.052 0.225 -0.007 0.326 0.011 0.03 0.03 0.056 0.049 0.083"/><path d="M74.28 31.117s-0.412 -0.188 -0.623 -0.259c-0.39 -0.124 -0.799 -0.195 -1.2 -0.274 -0.469 -0.09 -0.945 -0.112 -1.41 -0.225 -0.146 -0.03 -0.281 -0.101 -0.431 -0.131 -0.203 -0.041 -0.412 -0.109 -0.615 -0.064 -0.112 0.022 -0.292 0.172 -0.292 0.172s-0.184 -0.15 -0.292 -0.172c-0.203 -0.045 -0.416 0.022 -0.619 0.064 -0.15 0.03 -0.285 0.101 -0.427 0.135 -0.465 0.109 -0.945 0.131 -1.414 0.225 -0.401 0.075 -0.806 0.146 -1.2 0.27 -0.21 0.068 -0.619 0.259 -0.619 0.259m7.402 -1.691s0.203 -0.109 0.274 -0.188a0.356 0.356 0 0 0 0.101 -0.199 0.337 0.337 0 0 0 -0.086 -0.244 0.337 0.337 0 0 0 -0.232 -0.083c-0.071 0 -0.146 0.022 -0.199 0.068a0.341 0.341 0 0 0 -0.112 0.21c-0.011 0.068 0.019 0.139 0.049 0.199a1.238 1.238 0 0 0 0.206 0.236m-5.662 0s0.154 -0.142 0.203 -0.236a0.352 0.352 0 0 0 0.052 -0.199 0.341 0.341 0 0 0 -0.112 -0.21 0.307 0.307 0 0 0 -0.199 -0.068 0.337 0.337 0 0 0 -0.236 0.083 0.326 0.326 0 0 0 -0.083 0.244c0.004 0.075 0.049 0.139 0.098 0.195 0.075 0.083 0.274 0.188 0.274 0.188zm-1.545 0.675 -0.446 0.585s0 0.15 0.03 0.217a0.9 0.9 0 0 0 0.221 0.214l0.03 0.802 -0.424 0.735 -0.037 0.007 0.274 0.142 0.037 0.004c0.165 -0.011 0.263 -0.195 0.409 -0.278 0.18 -0.105 0.375 -0.188 0.57 -0.27a8.992 8.992 0 0 1 1.875 -0.566 5.317 5.317 0 0 1 1.106 -0.045c0.247 0.019 0.727 0.128 0.731 0.128 0 0 0.484 -0.112 0.731 -0.128a5.276 5.276 0 0 1 2.167 0.311 9 9 0 0 1 1.384 0.57c0.142 0.083 0.244 0.263 0.405 0.278h0.037l0.274 -0.15 -0.037 -0.004 -0.424 -0.735 0.034 -0.802s0.172 -0.124 0.217 -0.214c0.037 -0.064 0.03 -0.217 0.03 -0.217l-0.446 -0.585s-0.225 0.225 -0.371 0.274c-0.075 0.022 -0.165 0.022 -0.244 0 -0.094 -0.03 -0.165 -0.109 -0.244 -0.169a3.15 3.15 0 0 1 -0.484 -0.454 2.625 2.625 0 0 1 -0.199 -0.326s-0.484 0.379 -0.773 0.454c-0.285 0.075 -0.6 0.06 -0.881 -0.022 -0.071 -0.022 -0.188 -0.112 -0.188 -0.112a1.575 1.575 0 0 0 -0.99 -0.3 1.575 1.575 0 0 0 -0.99 0.3s-0.12 0.09 -0.188 0.112a1.68 1.68 0 0 1 -0.885 0.022 3.09 3.09 0 0 1 -0.773 -0.454s-0.116 0.225 -0.199 0.326a3.15 3.15 0 0 1 -0.484 0.454c-0.075 0.06 -0.15 0.139 -0.244 0.169 -0.075 0.022 -0.165 0.022 -0.24 0a1.387 1.387 0 0 1 -0.375 -0.274"/><path d="M74.471 29.865s0.015 -0.214 -0.007 -0.319a0.787 0.787 0 0 0 -0.116 -0.263c-0.056 -0.086 -0.214 -0.225 -0.214 -0.225m-0.052 1.042s0.128 0.004 0.184 -0.022c0.098 -0.049 0.225 -0.236 0.225 -0.236s0.251 0.172 0.39 0.15c0.068 -0.007 0.12 -0.068 0.158 -0.128a0.3 0.3 0 0 0 0.045 -0.214c-0.011 -0.056 -0.06 -0.098 -0.105 -0.135 -0.086 -0.075 -0.24 -0.064 -0.296 -0.158 -0.045 -0.075 -0.019 -0.184 0.007 -0.266 0.052 -0.18 0.176 -0.326 0.281 -0.48 0.064 -0.098 0.199 -0.165 0.21 -0.281 0.007 -0.06 -0.075 -0.172 -0.075 -0.172s-0.195 -0.004 -0.289 0.022c-0.15 0.045 -0.311 0.112 -0.42 0.229 -0.09 0.098 -0.112 0.24 -0.161 0.364 -0.037 0.094 -0.094 0.289 -0.094 0.289s-0.225 0 -0.326 0.045a0.641 0.641 0 0 0 -0.326 0.289c-0.045 0.101 -0.037 0.232 0 0.337 0.041 0.112 0.131 0.199 0.229 0.263 0.109 0.068 0.364 0.105 0.364 0.105M65.28 29.063s-0.154 0.135 -0.21 0.217a0.787 0.787 0 0 0 -0.12 0.266c-0.022 0.105 -0.004 0.319 -0.004 0.319m-0.637 -1.706s-0.083 0.112 -0.075 0.172c0.015 0.116 0.15 0.188 0.214 0.281 0.101 0.154 0.225 0.3 0.281 0.48 0.022 0.083 0.049 0.188 0.004 0.263 -0.052 0.098 -0.21 0.09 -0.292 0.161 -0.045 0.037 -0.094 0.079 -0.109 0.135a0.3 0.3 0 0 0 0.045 0.214c0.037 0.06 0.094 0.12 0.161 0.128 0.135 0.022 0.386 -0.15 0.386 -0.15s0.131 0.188 0.225 0.236c0.056 0.026 0.188 0.022 0.188 0.022s0.255 -0.037 0.364 -0.109c0.094 -0.06 0.188 -0.15 0.225 -0.255 0.037 -0.109 0.049 -0.24 0 -0.341a0.63 0.63 0 0 0 -0.326 -0.289c-0.098 -0.049 -0.326 -0.045 -0.326 -0.045s-0.052 -0.195 -0.09 -0.289c-0.049 -0.124 -0.075 -0.266 -0.165 -0.364a0.926 0.926 0 0 0 -0.42 -0.229c-0.094 -0.026 -0.289 -0.022 -0.289 -0.022m5.085 0.536 0.315 -0.09 0.311 0.09m-0.544 0.75s-0.244 -0.217 -0.289 -0.367a0.3 0.3 0 0 1 0.015 -0.206c0.045 -0.083 0.221 -0.176 0.221 -0.176s-0.266 -0.128 -0.337 -0.247a0.322 0.322 0 0 1 -0.019 -0.236 0.637 0.637 0 0 1 0.217 -0.3c0.12 -0.101 0.424 -0.203 0.424 -0.203s0.3 0.101 0.42 0.199a0.637 0.637 0 0 1 0.221 0.304c0.019 0.075 0.015 0.165 -0.022 0.236 -0.071 0.12 -0.337 0.247 -0.337 0.247s0.18 0.094 0.225 0.176c0.03 0.06 0.034 0.139 0.011 0.206 -0.045 0.15 -0.289 0.371 -0.289 0.371l-0.229 0.015zm0.851 -1.005s0.502 0.214 0.675 0.416c0.045 0.056 0.086 0.131 0.083 0.206 -0.019 0.263 -0.386 0.682 -0.386 0.682l-0.75 -0.311h-0.484l-0.75 0.311s-0.367 -0.424 -0.382 -0.682c-0.007 -0.075 0.037 -0.15 0.083 -0.206 0.169 -0.203 0.675 -0.416 0.675 -0.416"/><path d="m69.165 25.095 0.3 -0.232 0.244 0.007 -0.247 -0.007s-0.135 -0.09 -0.172 -0.158a0.337 0.337 0 0 1 -0.037 -0.225c0.019 -0.101 0.075 -0.206 0.165 -0.259 0.086 -0.049 0.292 -0.019 0.292 -0.019s0.206 -0.03 0.289 0.019c0.09 0.052 0.146 0.158 0.169 0.255 0.015 0.075 0 0.161 -0.037 0.225 -0.037 0.071 -0.172 0.161 -0.172 0.161l-0.251 0.007 0.244 -0.007 0.3 0.232m1.976 0.191 -0.101 0.176m1.222 -0.75 -0.281 0.037m0.319 0.33 -0.431 0.022m-0.056 -0.517c0.056 0.037 0.158 0.109 0.172 0.172a0.375 0.375 0 0 1 -0.116 0.345c-0.09 0.075 -0.349 0.056 -0.349 0.056m-6.814 1.26 0.637 -0.158c0.3 -0.075 0.6 -0.158 0.907 -0.214 0.349 -0.06 0.701 -0.105 1.05 -0.131 0.443 -0.034 1.324 -0.022 1.324 -0.022s0.881 -0.011 1.32 0.022c0.352 0.026 0.701 0.071 1.05 0.131 0.307 0.056 0.607 0.142 0.911 0.214l0.637 0.158m-6.435 -1.132 0.101 0.176m-1.226 -0.75 0.281 0.037m-0.319 0.33 0.431 0.022m-0.24 0.6s0.469 -0.12 0.705 -0.169c0.263 -0.052 0.525 -0.105 0.787 -0.139 0.3 -0.037 0.604 -0.056 0.911 -0.075 0.36 -0.015 1.084 -0.011 1.084 -0.011s0.72 0 1.084 0.015a10.65 10.65 0 0 1 1.695 0.21c0.236 0.049 0.709 0.169 0.709 0.169M66.81 25.162s-0.255 0.019 -0.345 -0.056c-0.094 -0.075 -0.15 -0.225 -0.12 -0.345 0.026 -0.09 0.21 -0.195 0.21 -0.195m2.366 2.775c-0.45 0.03 -0.9 0.056 -1.342 0.139a8.25 8.25 0 0 0 -1.358 0.364c-0.416 0.15 -0.859 0.848 -1.2 0.57 -0.075 -0.06 0.026 -0.188 0.06 -0.278a1.613 1.613 0 0 1 0.292 -0.472c0.09 -0.101 0.3 -0.112 0.319 -0.247 0.019 -0.098 -0.128 -0.15 -0.161 -0.247a0.637 0.637 0 0 1 -0.019 -0.375c0.045 -0.154 0.244 -0.232 0.289 -0.386 0.037 -0.135 -0.094 -0.292 -0.034 -0.42 0.083 -0.158 0.427 -0.101 0.45 -0.278 0.015 -0.086 -0.142 -0.112 -0.169 -0.191 -0.022 -0.06 0.011 -0.124 0.011 -0.188 0 -0.079 0.015 -0.169 -0.022 -0.244 -0.034 -0.064 -0.139 -0.079 -0.161 -0.15a0.206 0.206 0 0 1 0.041 -0.203c0.037 -0.037 0.139 0.015 0.161 -0.034 0.052 -0.098 -0.094 -0.199 -0.139 -0.3 -0.052 -0.12 -0.12 -0.236 -0.15 -0.364 -0.022 -0.101 -0.112 -0.263 -0.022 -0.311 0.105 -0.06 0.206 0.12 0.3 0.191 0.128 0.094 0.27 0.18 0.356 0.311 0.064 0.094 0.026 0.244 0.112 0.322 0.098 0.094 0.289 0.019 0.39 0.109 0.09 0.075 0.169 0.206 0.142 0.319s-0.285 0.109 -0.263 0.217c0.034 0.128 0.263 0.12 0.39 0.094 0.075 -0.011 0.131 -0.083 0.191 -0.128 0.052 -0.037 0.09 -0.083 0.15 -0.105 0.06 -0.03 0.199 -0.037 0.199 -0.037l-0.079 -0.019s-0.12 -0.094 -0.131 -0.161a0.225 0.225 0 0 1 0.06 -0.188 0.289 0.289 0 0 1 0.206 -0.083c0.064 0 0.131 0.026 0.172 0.071a0.236 0.236 0 0 1 0.064 0.18 0.225 0.225 0 0 1 -0.086 0.139 0.487 0.487 0 0 1 -0.172 0.056l0.086 0.022 0.229 0.319 0.998 -0.056s0.124 -0.124 0.098 -0.195 -0.094 -0.098 -0.214 -0.094c-0.319 0.015 -0.386 -0.255 -0.375 -0.45 0.011 -0.165 0.206 -0.274 0.356 -0.337 0.15 -0.056 0.405 0.139 0.472 -0.004 0.056 -0.124 -0.217 -0.188 -0.263 -0.319 -0.019 -0.056 -0.019 -0.128 0.007 -0.18 0.068 -0.135 0.214 -0.225 0.352 -0.289 0.06 -0.026 0.188 -0.03 0.188 -0.03s0.135 0.004 0.191 0.03c0.139 0.064 0.285 0.154 0.352 0.289 0.026 0.052 0.026 0.124 0.007 0.18 -0.041 0.131 -0.319 0.195 -0.263 0.319 0.068 0.142 0.326 -0.052 0.472 0.007 0.15 0.06 0.345 0.169 0.356 0.334 0.011 0.195 -0.052 0.465 -0.375 0.45 -0.12 -0.004 -0.188 0.022 -0.214 0.094 -0.022 0.071 0.101 0.195 0.101 0.195l0.994 0.056 0.229 -0.319 0.086 -0.022s-0.124 -0.019 -0.169 -0.056a0.225 0.225 0 0 1 -0.086 -0.139c-0.007 -0.064 0.019 -0.135 0.06 -0.18s0.112 -0.071 0.172 -0.071c0.075 0 0.154 0.026 0.206 0.083 0.045 0.045 0.075 0.12 0.06 0.188 -0.011 0.068 -0.131 0.161 -0.131 0.161l-0.079 0.019s0.139 0.007 0.203 0.037c0.056 0.022 0.098 0.071 0.146 0.105 0.064 0.045 0.116 0.112 0.191 0.128 0.131 0.026 0.36 0.037 0.386 -0.094 0.026 -0.112 -0.229 -0.109 -0.255 -0.217 -0.026 -0.112 0.049 -0.244 0.139 -0.319 0.101 -0.09 0.296 -0.015 0.394 -0.109 0.083 -0.075 0.049 -0.225 0.112 -0.322 0.086 -0.131 0.225 -0.217 0.352 -0.311 0.094 -0.071 0.199 -0.251 0.3 -0.191 0.09 0.052 0 0.21 -0.022 0.311 -0.03 0.128 -0.098 0.244 -0.15 0.364 -0.045 0.101 -0.188 0.203 -0.139 0.3 0.026 0.049 0.124 -0.007 0.161 0.034a0.206 0.206 0 0 1 0.041 0.203c-0.022 0.071 -0.128 0.086 -0.161 0.15 -0.037 0.075 -0.019 0.165 -0.019 0.247 0 0.06 0.03 0.124 0.011 0.184 -0.03 0.079 -0.188 0.105 -0.172 0.191 0.026 0.176 0.371 0.12 0.45 0.278 0.064 0.128 -0.071 0.285 -0.034 0.42 0.045 0.154 0.244 0.232 0.292 0.386 0.037 0.12 0.015 0.255 -0.022 0.375 -0.03 0.094 -0.176 0.15 -0.161 0.247 0.022 0.135 0.232 0.146 0.322 0.247 0.124 0.135 0.217 0.3 0.289 0.472 0.037 0.086 0.139 0.217 0.064 0.278 -0.345 0.278 -0.787 -0.416 -1.2 -0.57a8.257 8.257 0 0 0 -2.7 -0.502c-0.263 -0.015 -0.787 -0.015 -0.787 -0.015s-0.525 0 -0.787 0.015m1.166 -5.014 -0.379 0.004 -0.382 -0.004m0.637 -1.271c0.098 -0.21 -0.075 -0.364 -0.255 -0.517 -0.18 0.15 -0.352 0.307 -0.255 0.517m0.529 1.755c0.146 0.007 0.322 0.158 0.435 0.064 0.049 -0.045 0.026 -0.139 0 -0.199 -0.06 -0.142 -0.315 -0.176 -0.326 -0.33 -0.011 -0.131 0.191 -0.195 0.236 -0.319 0.019 -0.064 0.022 -0.139 0 -0.199 -0.105 -0.247 -0.544 -0.263 -0.623 -0.514 -0.034 -0.112 0.225 -0.244 0.255 -0.259 0.165 -0.071 0.364 0.101 0.525 0.03 0.112 -0.045 0.229 -0.154 0.225 -0.274 0 -0.128 -0.135 -0.236 -0.255 -0.289 -0.229 -0.098 -0.607 0.225 -0.75 0.019 -0.128 -0.191 0.326 -0.416 0.263 -0.637 -0.026 -0.109 -0.263 -0.199 -0.263 -0.199s-0.229 0.09 -0.259 0.199c-0.06 0.221 0.394 0.446 0.263 0.637 -0.139 0.206 -0.517 -0.116 -0.75 -0.019 -0.116 0.052 -0.255 0.161 -0.255 0.289 0 0.12 0.116 0.225 0.225 0.274 0.161 0.071 0.364 -0.101 0.525 -0.03 0.034 0.015 0.289 0.15 0.255 0.259 -0.075 0.251 -0.514 0.263 -0.619 0.514a0.292 0.292 0 0 0 0 0.199c0.041 0.124 0.247 0.188 0.236 0.319 -0.011 0.154 -0.27 0.188 -0.326 0.33 -0.026 0.06 -0.052 0.154 0 0.199 0.112 0.094 0.289 -0.056 0.435 -0.064 0.09 -0.007 0.274 0 0.274 0s0.18 -0.007 0.274 0"/><path fill="none" d="M73.264 35.756s-0.266 -0.112 -0.405 -0.161a9.675 9.675 0 0 0 -0.75 -0.244c-0.247 -0.068 -0.495 -0.139 -0.75 -0.169 -0.547 -0.06 -1.65 -0.007 -1.65 -0.007s-1.102 -0.052 -1.65 0.007c-0.255 0.03 -0.506 0.101 -0.75 0.169a9.675 9.675 0 0 0 -1.159 0.405M73.725 27.412s-0.45 -0.18 -0.679 -0.259c-0.191 -0.064 -0.382 -0.131 -0.581 -0.18 -0.24 -0.06 -0.484 -0.098 -0.727 -0.131a14.512 14.512 0 0 0 -2.029 -0.128s-0.645 0.004 -0.968 0.022a14.119 14.119 0 0 0 -1.792 0.236c-0.195 0.049 -0.386 0.112 -0.578 0.18 -0.229 0.079 -0.675 0.259 -0.675 0.259m-0.532 4.515s0.656 -0.225 0.99 -0.326c0.341 -0.105 0.682 -0.225 1.031 -0.3 0.42 -0.094 0.848 -0.139 1.275 -0.188 0.412 -0.041 1.249 -0.086 1.249 -0.086s0.832 0.045 1.249 0.09c0.424 0.045 0.855 0.09 1.275 0.18 0.349 0.075 0.686 0.199 1.031 0.304l0.99 0.326"/></g><g fill="#ccc" transform="translate(123)scale(.192)"><g id="va-b"><path d="m57.499 33.9 3.795 3.255s-0.195 0.42 -0.274 0.637a5.347 5.347 0 0 0 -0.349 1.537l-4.425 -4.05c0.064 -0.926 0.585 -1.256 1.252 -1.38z"/><path d="m56.962 35.932 -0.911 1.02 0.57 0.547 -0.881 0.855 -0.57 -0.566 -0.956 1.02 -0.007 1.264 2.175 1.706 0.754 -0.559 -0.041 -1.211 0.578 0.322 0.581 -0.352 0.03 1.091 -0.472 -0.341 -0.514 0.675 -0.052 1.2 1.639 1.462 1.987 -1.766 -0.15 -0.529 -0.083 -0.476 -0.049 -0.941 0.075 -1.031z"/><path d="m56.051 36.953 -0.022 1.125 0.585 -0.574z"/><path fill="none" d="m58.95 42.765 -0.071 1.286m-0.698 -5.239 0.022 1.192m-0.555 -0.649 0.034 0.968m-0.544 -1.361 0.022 1.087m-0.802 0.57 0.011 1.147m0.926 -0.364 1.65 1.387 1.691 -1.485m-6.412 -2.509 2.16 1.845 0.709 -0.634 -0.563 -0.472 0.626 -0.589 0.484 0.416 0.544 -0.555 0.713 0.686 -0.645 0.502 0.6 0.547 -0.57 0.525"/><path d="m71.299 46.099 1.826 1.673 0.401 1.181 -2.348 -0.251 -1.339 -1.324 -1.425 -1.32 -6.15 -5.329s0.131 -0.491 0.21 -0.731c0.12 -0.349 0.259 -0.69 0.397 -1.031l0.112 -0.255 6.862 6.086z"/><path d="M72.851 46.35c1.012 1.425 2.726 2.764 3.244 3.409 0.521 0.645 0.855 1.256 0.098 2.081s-1.613 0.356 -2.291 -0.098c-0.679 -0.45 -1.86 -1.924 -3.555 -3.049z"/><path d="m72.251 48.742 -1.32 -0.6m1.537 -1.433c0.09 0.3 0.019 0.63 0.135 0.915 0.112 0.285 0.525 0.75 0.525 0.75s-0.263 0.037 -0.386 0.083c-0.176 0.071 -0.45 0.101 -0.491 0.289 -0.037 0.161 0.15 0.3 0.263 0.42 0.112 0.116 0.251 0.203 0.39 0.285 0.229 0.135 0.465 0.285 0.727 0.334 0.326 0.06 0.941 -0.405 0.998 -0.075 0.022 0.135 -0.278 0.049 -0.401 0.112 -0.292 0.142 -0.435 0.45 -0.18 0.667 0.165 0.139 0.424 0.09 0.637 0.109 0.206 0.015 0.439 -0.105 0.619 0 0.21 0.12 0.476 0.412 0.364 0.63 -0.112 0.225 -0.544 0.217 -0.75 0.075 -0.15 -0.112 -0.109 -0.356 -0.131 -0.54v-0.165"/><path cx="2154.7" cy="1480.1" r="129.7" d="M85.665 55.504A4.864 4.864 0 0 1 80.801 60.367A4.864 4.864 0 0 1 75.937 55.504A4.864 4.864 0 0 1 85.665 55.504z"/><path fill="#fff" d="M78.979 55.714a1.519 1.519 0 1 0 1.519 1.515l0.525 -0.022a1.519 1.519 0 1 0 1.519 -1.519l0.022 -0.296a1.519 1.519 0 1 0 -1.519 -1.519l-0.525 -0.045a1.519 1.519 0 1 0 -1.519 1.519z"/><path cx="2154.7" cy="1446.1" r="14.6" d="M81.349 54.229A0.547 0.547 0 0 1 80.801 54.776A0.547 0.547 0 0 1 80.254 54.229A0.547 0.547 0 0 1 81.349 54.229z"/><path cx="2189.4" cy="1480.1" r="14.6" d="M82.65 55.504A0.547 0.547 0 0 1 82.103 56.051A0.547 0.547 0 0 1 81.555 55.504A0.547 0.547 0 0 1 82.65 55.504z"/><path cx="2155.3" cy="1511.2" r="14.6" d="M81.371 56.67A0.547 0.547 0 0 1 80.824 57.217A0.547 0.547 0 0 1 80.276 56.67A0.547 0.547 0 0 1 81.371 56.67z"/><path cx="2119.3" cy="1480.1" r="14.6" d="M80.021 55.504A0.547 0.547 0 0 1 79.474 56.051A0.547 0.547 0 0 1 78.926 55.504A0.547 0.547 0 0 1 80.021 55.504z"/><path fill="#fff" d="M80.707 58.44c-0.199 0.412 -0.472 0.6 -0.821 0.825a2.37 2.37 0 0 0 1.642 0 2.025 2.025 0 0 1 -0.821 -0.825zm-2.869 -3.007c-0.412 -0.199 -0.6 -0.472 -0.825 -0.825a2.37 2.37 0 0 0 0 1.65 1.987 1.987 0 0 1 0.825 -0.825zm5.97 0.135c0.412 -0.199 0.6 -0.472 0.825 -0.821a2.37 2.37 0 0 1 0 1.646c-0.176 -0.349 -0.45 -0.6 -0.825 -0.825zm-2.94 -3.03c-0.199 -0.412 -0.472 -0.6 -0.825 -0.825a2.37 2.37 0 0 1 1.65 0 1.987 1.987 0 0 0 -0.825 0.825z"/></g><g fill="#ce9d09"><g id="va-c"><path d="M57.506 33.892s0.026 -0.188 0 -0.278a0.848 0.848 0 0 0 -0.247 -0.382 0.735 0.735 0 0 0 -0.345 -0.172 0.919 0.919 0 0 0 -0.664 0.158l-0.563 0.232 -0.206 0.664s-0.12 0.21 -0.15 0.326a0.862 0.862 0 0 0 -0.019 0.379c0.037 0.146 0.12 0.285 0.236 0.382a0.713 0.713 0 0 0 0.386 0.15 1.05 1.05 0 0 0 0.311 -0.071c0.06 -0.698 0.371 -1.23 1.256 -1.384z"/><path d="m56.261 33.21 -1.455 -0.637 -0.116 0.112 0.787 1.433s0.225 -0.326 0.352 -0.476c0.135 -0.154 0.431 -0.431 0.431 -0.431z"/><path cx="1457.3" cy="865.3" r="16" d="M55.249 32.449A0.6 0.6 0 0 1 54.649 33.049A0.6 0.6 0 0 1 54.049 32.449A0.6 0.6 0 0 1 55.249 32.449z"/><path d="M58.733 34.961c0.128 1.05 0.274 2.096 0.6 3.142l1.162 1.069c-0.244 -1.099 -0.69 -2.194 -0.686 -3.289z"/><path d="m60.487 36.465 -3.203 -0.24 1.02 0.938 2.925 0.124 0.045 -0.15zm3.953 3.547a2.321 2.321 0 0 0 -1.421 1.387c-0.24 0.026 -0.461 0.026 -0.54 -0.15a2.194 2.194 0 0 1 1.339 -1.792c0.563 -0.105 0.457 0.334 0.623 0.551zm1.031 0.968a2.321 2.321 0 0 0 -1.421 1.395c-0.236 0.019 -0.461 0.022 -0.54 -0.154a2.194 2.194 0 0 1 1.342 -1.792c0.563 -0.105 0.454 0.334 0.619 0.551zm11.73 9.821a2.7 2.7 0 0 0 -0.566 0.056c0.011 0.3 -0.112 0.623 -0.443 0.982a1.252 1.252 0 0 1 -0.889 0.45s-0.105 0.664 0.098 0.874c0.236 0.247 1.016 0.146 1.016 0.146l0.068 -0.041a4.864 4.864 0 0 1 1.196 -1.492l0.011 -0.049s0.112 -0.619 -0.079 -0.806c-0.09 -0.086 -0.247 -0.112 -0.412 0z"/><path cx="2254.5" cy="1375.4" r="17.7" d="M85.207 51.578A0.664 0.664 0 0 1 84.544 52.241A0.664 0.664 0 0 1 83.88 51.578A0.664 0.664 0 0 1 85.207 51.578z"/><path cx="2260.6" cy="1580" r="17.7" d="M85.436 59.25A0.664 0.664 0 0 1 84.772 59.914A0.664 0.664 0 0 1 84.109 59.25A0.664 0.664 0 0 1 85.436 59.25z"/><path cx="2062.1" cy="1591.6" r="17.7" d="M77.992 59.685A0.664 0.664 0 0 1 77.329 60.349A0.664 0.664 0 0 1 76.665 59.685A0.664 0.664 0 0 1 77.992 59.685z"/></g></g></g><g fill="#ce9d09" transform="matrix(-.192 0 0 .192 837 0)"><use xlink:href="#va-b" width="100%" height="100%"/><use xlink:href="#va-c" width="100%" height="100%" fill="#ccc"/></g><g fill="#fa0204" transform="translate(123)scale(.192)"><path id="va-d" d="M70.095 44.092c0 0.203 -0.169 0.278 -0.499 0.278 -0.326 0 -0.476 -0.094 -0.476 -0.296s0.15 -0.251 0.476 -0.251c0.33 0 0.499 0.068 0.499 0.27z"/><use xlink:href="#va-d" width="100%" height="100%" x="6.4" y="14.3"/><path d="M70.399 45.326c-0.064 0.188 -0.251 0.21 -0.563 0.101 -0.307 -0.112 -0.42 -0.247 -0.352 -0.439 0.068 -0.188 0.225 -0.188 0.536 -0.079 0.307 0.109 0.45 0.225 0.379 0.412z"/><path id="va-e" d="M70.406 45.844c-0.037 0.199 -0.221 0.24 -0.54 0.176 -0.322 -0.064 -0.45 -0.188 -0.412 -0.386s0.199 -0.217 0.517 -0.15c0.322 0.064 0.476 0.161 0.435 0.36z"/><use xlink:href="#va-e" width="100%" height="100%" x="4" y="16.1"/><path d="M72.064 45.608c-0.098 -0.026 -0.086 -0.199 -0.06 -0.296 0.045 -0.15 0.315 -0.341 0.315 -0.341s0.068 0.21 0.037 0.307c-0.045 0.139 -0.15 0.367 -0.292 0.33z"/><path d="M71.711 45.915c-0.105 -0.022 -0.12 -0.206 -0.094 -0.311 0.045 -0.161 0.364 -0.349 0.364 -0.349s0.056 0.225 0.019 0.33c-0.049 0.139 -0.146 0.364 -0.289 0.33zm-0.405 0.585c-0.161 -0.041 -0.142 -0.33 -0.098 -0.487 0.037 -0.135 0.139 -0.345 0.27 -0.311 0.158 0.037 0.158 0.311 0.116 0.469 -0.034 0.142 -0.15 0.367 -0.289 0.33z"/><path d="M70.826 46.958c-0.158 -0.037 -0.225 -0.285 -0.191 -0.446 0.034 -0.165 0.199 -0.39 0.364 -0.352 0.169 0.037 0.225 0.311 0.188 0.48 -0.037 0.154 -0.203 0.352 -0.36 0.319zm-0.083 0.278c-0.037 0.188 -0.281 0.255 -0.431 0.206 -0.154 -0.049 -0.356 -0.266 -0.315 -0.469 0.045 -0.203 0.307 -0.255 0.461 -0.195 0.146 0.056 0.326 0.27 0.285 0.457zm-3.188 -1.849s0.191 0.094 0.274 0.18c0.086 0.09 0.191 0.124 0.139 0.259s-0.217 0.09 -0.304 -0.007c-0.079 -0.086 -0.112 -0.431 -0.112 -0.431zm0.949 0.326c0.199 0.041 0.191 0.27 0.094 0.412 -0.105 0.142 -0.409 0.334 -0.615 0.292s-0.18 -0.292 -0.068 -0.439c0.109 -0.135 0.397 -0.3 0.589 -0.263z"/><path id="va-f" d="M69.161 46.144c0.18 0.083 0.128 0.304 0 0.42 -0.135 0.12 -0.472 0.236 -0.664 0.15 -0.195 -0.083 -0.112 -0.322 0.03 -0.439 0.135 -0.112 0.45 -0.21 0.634 -0.131z"/><use xlink:href="#va-f" width="100%" height="100%" x="14" y="10.7"/><path d="M69.862 46.901c0.18 0.026 0.225 0.278 0.172 0.439 -0.06 0.169 -0.281 0.397 -0.469 0.367 -0.191 -0.03 -0.225 -0.3 -0.158 -0.472 0.06 -0.158 0.274 -0.364 0.45 -0.337z"/><path d="M70.316 47.449c0.15 0.086 0.112 0.36 0.015 0.51 -0.101 0.154 -0.367 0.322 -0.525 0.232 -0.158 -0.094 -0.101 -0.386 0.007 -0.54 0.105 -0.142 0.356 -0.285 0.502 -0.203zm-3.229 -1.496c0.161 -0.011 0.27 0.225 0.266 0.397 0 0.184 -0.124 0.465 -0.289 0.48 -0.169 0.015 -0.274 -0.251 -0.263 -0.435 0.004 -0.172 0.128 -0.427 0.285 -0.443z"/><path d="M67.612 46.414c0.15 0.034 0.188 0.292 0.131 0.457 -0.06 0.172 -0.263 0.405 -0.424 0.367 -0.165 -0.037 -0.188 -0.322 -0.12 -0.495 0.06 -0.161 0.255 -0.367 0.412 -0.334z"/><path d="M68.093 46.733c0.188 0.045 0.225 0.367 0.158 0.574 -0.068 0.214 -0.307 0.502 -0.502 0.457 -0.195 -0.049 -0.217 -0.401 -0.139 -0.619 0.071 -0.199 0.3 -0.454 0.484 -0.412z"/><path d="M68.483 47.13c0.188 -0.022 0.337 0.263 0.349 0.48 0.011 0.225 -0.112 0.578 -0.307 0.6 -0.199 0.026 -0.345 -0.296 -0.349 -0.525 -0.004 -0.21 0.124 -0.532 0.307 -0.555z"/><path id="va-g" d="M68.947 47.464c0.169 -0.022 0.307 0.217 0.315 0.394 0.011 0.188 -0.101 0.48 -0.278 0.502 -0.184 0.022 -0.315 -0.247 -0.319 -0.435 0 -0.176 0.112 -0.443 0.281 -0.461z"/><use xlink:href="#va-g" width="100%" height="100%" x="12.8" y="10.4"/><path id="va-h" d="M72.349 46.909c-0.124 0.105 -0.364 0.011 -0.472 -0.109 -0.116 -0.124 -0.199 -0.394 -0.068 -0.506 0.128 -0.112 0.382 0.007 0.495 0.135 0.101 0.124 0.165 0.375 0.045 0.48z"/><use xlink:href="#va-h" width="100%" height="100%" x="-7" y="12.8"/><use xlink:href="#va-h" width="100%" height="100%" x="-19.5" y="23.5"/><path d="M71.445 48.045c-0.041 0.154 -0.3 0.21 -0.454 0.169 -0.165 -0.037 -0.382 -0.217 -0.337 -0.382 0.049 -0.165 0.326 -0.21 0.487 -0.161 0.158 0.045 0.345 0.221 0.3 0.375z"/><path d="M70.77 47.932c0.135 0.094 0.105 0.394 0.015 0.559 -0.098 0.169 -0.337 0.356 -0.484 0.255s-0.094 -0.424 0.007 -0.593c0.094 -0.158 0.326 -0.315 0.461 -0.225z"/><path d="M70.11 48.281c0.15 0.09 0.112 0.36 0.015 0.51 -0.101 0.154 -0.367 0.322 -0.525 0.232 -0.158 -0.094 -0.101 -0.386 0.007 -0.54 0.105 -0.142 0.356 -0.285 0.502 -0.203z"/><path id="va-i" d="M68.674 49.237c-0.128 0.116 -0.026 0.42 0.105 0.57 0.139 0.158 0.443 0.304 0.578 0.176 0.131 -0.128 0.011 -0.45 -0.135 -0.604 -0.139 -0.146 -0.42 -0.263 -0.547 -0.146z"/><use xlink:href="#va-i" width="100%" height="100%" x="-7.3" y="13.8"/><path id="va-j" d="M68.28 50.231c-0.161 0.068 -0.18 0.382 -0.112 0.574 0.068 0.199 0.296 0.446 0.469 0.375 0.172 -0.068 0.176 -0.412 0.098 -0.611 -0.075 -0.184 -0.292 -0.401 -0.45 -0.337z"/><use xlink:href="#va-j" width="100%" height="100%" x="-10.5" y="14.9"/><path id="va-k" d="M67.601 51.413c-0.172 0.037 -0.244 0.349 -0.206 0.547 0.037 0.206 0.225 0.487 0.405 0.446s0.24 -0.382 0.195 -0.589c-0.045 -0.191 -0.225 -0.443 -0.394 -0.405z"/><use xlink:href="#va-k" width="100%" height="100%" x="-10.1" y="15.9"/><path id="va-l" d="M66.9 52.624c-0.172 0.007 -0.3 0.3 -0.3 0.499 0 0.21 0.131 0.521 0.315 0.514 0.188 -0.007 0.307 -0.33 0.3 -0.544 -0.007 -0.199 -0.139 -0.476 -0.311 -0.469z"/><use xlink:href="#va-l" width="100%" height="100%" x="-10.3" y="19.2"/><use xlink:href="#va-l" width="100%" height="100%" x="-22.4" y="37"/><use xlink:href="#va-l" width="100%" height="100%" x="-34.9" y="52.3"/><use xlink:href="#va-l" width="100%" height="100%" x="-47.8" y="66.5"/><use xlink:href="#va-l" width="100%" height="100%" x="-62" y="78.1"/><use xlink:href="#va-l" width="100%" height="100%" x="-75.6" y="90.6"/><path d="m63.48 56.258 -0.199 0.773s0.112 0.274 0.225 0.263c0.206 -0.022 0.263 -0.337 0.3 -0.544 0.037 -0.315 -0.326 -0.491 -0.326 -0.491zm12.165 0.491c0.06 0.225 0.574 0.424 0.574 0.424l-0.251 -1.042c-0.214 0.007 -0.356 0.465 -0.322 0.615z"/><path d="M75.6 55.913c-0.161 -0.068 -0.394 0.15 -0.476 0.334 -0.086 0.191 -0.09 0.525 0.083 0.596 0.172 0.068 0.412 -0.18 0.491 -0.375 0.075 -0.188 0.064 -0.491 -0.098 -0.559z"/><path id="va-m" d="M75.03 55.451c-0.176 -0.011 -0.326 0.27 -0.345 0.469 -0.019 0.21 0.083 0.529 0.266 0.54 0.188 0.007 0.337 -0.3 0.349 -0.514 0.011 -0.199 -0.098 -0.487 -0.27 -0.495z"/><use xlink:href="#va-m" width="100%" height="100%" x="-13.4" y="-13.7"/><use xlink:href="#va-m" width="100%" height="100%" x="-25.9" y="-29.2"/><use xlink:href="#va-m" width="100%" height="100%" x="-38.7" y="-42.3"/><use xlink:href="#va-m" width="100%" height="100%" x="-49" y="-60.3"/><use xlink:href="#va-m" width="100%" height="100%" x="-60.3" y="-76.4"/><use xlink:href="#va-m" width="100%" height="100%" x="-70.6" y="-93.5"/><use xlink:href="#va-m" width="100%" height="100%" x="-79.8" y="-113.3"/><use xlink:href="#va-m" width="100%" height="100%" x="-89.8" y="-131.2"/><use xlink:href="#va-m" width="100%" height="100%" x="-98" y="-152.5"/><path d="M70.642 48.922s-0.06 0.998 0.3 1.061c0.229 0.041 0.409 -0.559 0.409 -0.559z"/><path id="va-n" d="M69.825 60.405c-0.109 0.135 0.037 0.42 0.188 0.551 0.161 0.135 0.484 0.232 0.596 0.086s-0.056 -0.446 -0.225 -0.578c-0.15 -0.12 -0.45 -0.199 -0.559 -0.06z"/><use xlink:href="#va-n" width="100%" height="100%" x="18.3" y="-2.2"/><use xlink:href="#va-n" width="100%" height="100%" x="36.8" y="-5.8"/><path id="va-o" d="M71.858 60.142c-0.086 0.15 0.098 0.412 0.266 0.517 0.18 0.112 0.514 0.161 0.6 0 0.094 -0.165 -0.12 -0.435 -0.304 -0.54 -0.172 -0.098 -0.48 -0.128 -0.563 0.022z"/><use xlink:href="#va-o" width="100%" height="100%" x="20" y="-3.2"/><path id="va-p" d="M73.256 59.828c-0.075 0.161 0.135 0.401 0.315 0.491 0.188 0.094 0.525 0.112 0.6 -0.056s-0.165 -0.42 -0.356 -0.506c-0.18 -0.083 -0.487 -0.086 -0.563 0.075z"/><use xlink:href="#va-p" width="100%" height="100%" x="18.9" y="-5.6"/><path id="va-q" d="M74.674 59.396c-0.064 0.165 0.158 0.394 0.341 0.469 0.195 0.083 0.532 0.083 0.596 -0.09 0.064 -0.176 -0.188 -0.412 -0.386 -0.487 -0.188 -0.068 -0.491 -0.052 -0.551 0.109z"/><use xlink:href="#va-q" width="100%" height="100%" x="19.2" y="-6.2"/><use xlink:href="#va-q" width="100%" height="100%" x="37.7" y="-14"/><use xlink:href="#va-q" width="100%" height="100%" x="57.5" y="-22.2"/><use xlink:href="#va-q" width="100%" height="100%" x="77.5" y="-28.6"/><use xlink:href="#va-q" width="100%" height="100%" x="79.9" y="-44.3"/><path d="M77.501 57.559s0.51 0.075 0.555 -0.109c0.06 -0.244 -0.578 -0.476 -0.578 -0.476z"/><path id="va-r" d="M63.81 59.085c-0.15 0.094 -0.112 0.409 -0.015 0.581 0.101 0.184 0.367 0.39 0.525 0.292s0.105 -0.439 -0.007 -0.619c-0.101 -0.169 -0.352 -0.345 -0.502 -0.255z"/><use xlink:href="#va-r" width="100%" height="100%" x="18.9" y="7.8"/><use xlink:href="#va-r" width="100%" height="100%" x="37" y="10.6"/><use xlink:href="#va-r" width="100%" height="100%" x="56.8" y="15.5"/><use xlink:href="#va-r" width="100%" height="100%" x="74.7" y="18.1"/><use xlink:href="#va-r" width="100%" height="100%" x="92.3" y="21.7"/><use xlink:href="#va-r" width="100%" height="100%" x="110.4" y="26.7"/><use xlink:href="#va-r" width="100%" height="100%" x="128.3" y="29.9"/><use xlink:href="#va-r" width="100%" height="100%" x="146.6" y="32.7"/><path d="M61.807 56.906c-0.158 -0.079 -0.412 0.112 -0.51 0.285 -0.101 0.188 -0.142 0.517 0.022 0.6 0.165 0.086 0.431 -0.135 0.525 -0.322 0.094 -0.176 0.112 -0.484 -0.037 -0.563z"/><path d="M61.575 57.54c-0.165 -0.06 -0.39 0.165 -0.465 0.352 -0.075 0.195 -0.075 0.529 0.101 0.593 0.176 0.06 0.409 -0.195 0.48 -0.394 0.068 -0.188 0.049 -0.491 -0.112 -0.551z"/><path d="M61.789 58.125c-0.169 -0.045 -0.375 0.199 -0.431 0.39 -0.06 0.203 -0.022 0.536 0.158 0.581s0.386 -0.229 0.443 -0.435c0.049 -0.191 0 -0.495 -0.169 -0.54z"/><path d="M62.34 58.361c-0.169 -0.049 -0.382 0.188 -0.446 0.375 -0.064 0.203 -0.037 0.536 0.139 0.589s0.394 -0.217 0.454 -0.42c0.056 -0.188 0.019 -0.495 -0.15 -0.544z"/><path id="va-s" d="M62.7 58.455c-0.172 0.041 -0.236 0.352 -0.195 0.551 0.041 0.206 0.232 0.48 0.412 0.435s0.232 -0.386 0.18 -0.593c-0.045 -0.188 -0.232 -0.435 -0.401 -0.394z"/><use xlink:href="#va-s" width="100%" height="100%" x="16.8" y="6.2"/><use xlink:href="#va-i" width="100%" height="100%" x="8.6" y="-11.2"/><use xlink:href="#va-i" width="100%" height="100%" x="4.7" y="6.5"/><use xlink:href="#va-i" width="100%" height="100%" x="4.9" y="26.7"/><use xlink:href="#va-i" width="100%" height="100%" x="4.7" y="47.9"/><use xlink:href="#va-i" width="100%" height="100%" x="5.6" y="68.6"/><use xlink:href="#va-i" width="100%" height="100%" x="2.2" y="87.7"/><use xlink:href="#va-i" width="100%" height="100%" x="4.7" y="109.1"/><use xlink:href="#va-i" width="100%" height="100%" x="2.2" y="126.4"/><use xlink:href="#va-i" width="100%" height="100%" x="4.7" y="143.5"/><use xlink:href="#va-i" width="100%" height="100%" x="4.7" y="163.9"/><use xlink:href="#va-i" width="100%" height="100%" x="3.4" y="183.9"/><use xlink:href="#va-i" width="100%" height="100%" x="3.7" y="203.1"/><use xlink:href="#va-i" width="100%" height="100%" x="4.4" y="223.5"/><use xlink:href="#va-i" width="100%" height="100%" x="4.4" y="243.3"/><use xlink:href="#va-i" width="100%" height="100%" x="3.7" y="263.1"/><use xlink:href="#va-i" width="100%" height="100%" x="2.5" y="283.2"/><use xlink:href="#va-i" width="100%" height="100%" x="2.5" y="305.1"/><use xlink:href="#va-i" width="100%" height="100%" x="1.9" y="327.9"/><use xlink:href="#va-i" width="100%" height="100%" x="1.9" y="349.3"/><use xlink:href="#va-i" width="100%" height="100%" x="1.9" y="369"/><use xlink:href="#va-i" width="100%" height="100%" x="1.3" y="391.3"/><path id="va-t" d="M70.582 48.87c0.094 0.139 -0.049 0.405 -0.191 0.525 -0.15 0.12 -0.45 0.203 -0.544 0.056 -0.098 -0.15 0.071 -0.427 0.225 -0.547 0.15 -0.112 0.42 -0.172 0.51 -0.037z"/><use xlink:href="#va-t" width="100%" height="100%" x="2.7" y="16.1"/><use xlink:href="#va-t" width="100%" height="100%" x="2.4" y="34.1"/><use xlink:href="#va-t" width="100%" height="100%" x="2.1" y="52.4"/><use xlink:href="#va-t" width="100%" height="100%" x="1.8" y="69.1"/><use xlink:href="#va-t" width="100%" height="100%" x="2.7" y="87.1"/><use xlink:href="#va-t" width="100%" height="100%" x="1.5" y="104.4"/><path d="M70.624 53.475c0.098 0.146 -0.056 0.424 -0.214 0.544 -0.169 0.128 -0.495 0.214 -0.6 0.06 -0.109 -0.15 0.075 -0.443 0.247 -0.563 0.165 -0.116 0.465 -0.18 0.563 -0.037z"/><path id="va-u" d="M70.575 54.135c0.131 0.12 0.03 0.424 -0.101 0.574 -0.139 0.158 -0.443 0.3 -0.574 0.176 -0.135 -0.131 -0.011 -0.45 0.135 -0.607 0.135 -0.142 0.416 -0.263 0.544 -0.142z"/><use xlink:href="#va-u" width="100%" height="100%" x=".6" y="20.4"/><use xlink:href="#va-u" width="100%" height="100%" x=".9" y="40.5"/><use xlink:href="#va-u" width="100%" height="100%" x=".3" y="62.1"/><use xlink:href="#va-u" width="100%" height="100%" x=".9" y="82.2"/><use xlink:href="#va-u" width="100%" height="100%" x=".3" y="102.6"/><use xlink:href="#va-u" width="100%" height="100%" x=".6" y="123"/><use xlink:href="#va-u" width="100%" height="100%" x=".6" y="143.7"/><use xlink:href="#va-u" width="100%" height="100%" x="-.3" y="164.4"/><use xlink:href="#va-u" width="100%" height="100%" x=".9" y="183.3"/><use xlink:href="#va-u" width="100%" height="100%" x=".9" y="203.1"/><use xlink:href="#va-u" width="100%" height="100%" x=".3" y="224.4"/><use xlink:href="#va-u" width="100%" height="100%" x=".3" y="245.4"/></g><g transform="translate(123)scale(.192)"><path fill="#fa0204" d="M69.36 69.311a2.887 2.887 0 0 0 1.811 0.015l-0.656 -1.05"/><path fill="#ce9d09" d="m70.811 66.608 -1.189 -0.307s0.015 -1.32 0.765 -1.204c0.623 0.094 0.45 1.511 0.424 1.511z"/><path cx="1872.9" cy="1723" r="12.9" fill="#ce9d09" d="M70.718 64.612A0.484 0.484 0 0 1 70.234 65.096A0.484 0.484 0 0 1 69.75 64.612A0.484 0.484 0 0 1 70.718 64.612z"/><path fill="#fa0204" d="M70.703 67.196c0.263 0.667 0.424 1.245 0.176 1.999m0.285 0.131c-0.382 -0.311 -1.373 -0.221 -1.8 -0.015 -0.165 0 -0.615 -3.12 0.964 -3.045 1.455 0.075 0.938 3.075 0.836 3.06z"/></g><g transform="translate(123)scale(.192)"><path fill="#fa0204" d="M68.07 69.986a1.762 1.762 0 0 0 2.033 0.019l-1.508 -1.575"/><path cx="1843.4" cy="1738.3" r="12.9" fill="#ce9d09" d="M69.611 65.186A0.484 0.484 0 0 1 69.127 65.67A0.484 0.484 0 0 1 68.644 65.186A0.484 0.484 0 0 1 69.611 65.186z"/><path fill="#ce9d09" d="m69.724 66.75 -1.226 -0.022s-0.158 -0.998 0.607 -1.042c0.634 -0.037 0.645 1.065 0.619 1.065z"/><path fill="#fa0204" d="M69.135 69.776c-0.236 -0.521 -0.259 -1.162 -0.195 -1.856m-0.352 1.89c-0.289 -0.495 -0.341 -1.125 -0.112 -1.92m1.627 2.123c-0.188 -0.232 -1.511 -0.33 -2.029 -0.015 -0.188 0 -0.698 -3.517 1.087 -3.431 1.635 0.079 1.05 3.461 0.938 3.446z"/></g></g></svg>