<svg xmlns="http://www.w3.org/2000/svg" xmlns:xlink="http://www.w3.org/1999/xlink" viewBox="0 0 24 24" width="24" height="24"><path fill="#fff" d="M0 0h24v24H0z"/><path fill="#ffe000" d="M0 0h12v24H0z"/><g stroke="#000" stroke-width="3.205" stroke-linejoin="round"><g fill="#ce9d09" stroke-linecap="round"><g id="a"><path fill="#fff" d="m17.098 9.507 0.155 0.037 0.246 0.04 0.113 0.012 -0.02 0.479s-0.027 0.319 -0.074 0.47c-0.035 0.112 -0.151 0.319 -0.151 0.319l-0.074 0.113 -0.435 -0.377s0.074 -0.105 0.101 -0.163c0.034 -0.073 0.074 -0.229 0.074 -0.229l0.043 -0.249 0.023 -0.315zm-0.547 1.454 0.396 0.346s-0.08 0.071 -0.128 0.093c-0.094 0.043 -0.199 0.072 -0.303 0.07 -0.074 -0.002 -0.147 -0.029 -0.215 -0.059 -0.151 -0.069 -0.317 -0.141 -0.414 -0.276 -0.034 -0.048 -0.048 -0.111 -0.047 -0.17 0.001 -0.067 0.06 -0.19 0.06 -0.19s0.023 0.083 0.049 0.115c0.043 0.053 0.107 0.089 0.169 0.119 0.047 0.022 0.097 0.039 0.149 0.042 0.067 0.004 0.136 -0.006 0.198 -0.031 0.032 -0.013 0.085 -0.058 0.085 -0.058z"/><path fill="#fff" d="M15.923 8.426s0.032 0.063 0.041 0.097c0.016 0.058 0.028 0.118 0.027 0.179 0 0.06 -0.014 0.12 -0.03 0.179 -0.024 0.087 -0.061 0.171 -0.099 0.253 -0.024 0.052 -0.058 0.099 -0.082 0.151 -0.039 0.084 -0.067 0.172 -0.102 0.258 -0.029 0.072 -0.066 0.14 -0.088 0.214 -0.029 0.098 -0.044 0.201 -0.058 0.302 -0.012 0.087 -0.021 0.175 -0.022 0.264 -0.001 0.105 0.002 0.21 0.022 0.313 0.019 0.102 0.048 0.204 0.093 0.297 0.037 0.075 0.086 0.145 0.143 0.206 0.047 0.05 0.103 0.094 0.162 0.129 0.054 0.032 0.115 0.051 0.173 0.074 0.081 0.032 0.244 0.09 0.244 0.09s-0.226 -0.111 -0.305 -0.205c-0.065 -0.078 -0.101 -0.179 -0.124 -0.277 -0.026 -0.114 -0.023 -0.235 -0.011 -0.352 0.013 -0.125 0.05 -0.248 0.088 -0.368 0.04 -0.127 0.097 -0.248 0.148 -0.371 0.037 -0.089 0.079 -0.175 0.115 -0.264 0.042 -0.105 0.084 -0.211 0.118 -0.319 0.021 -0.066 0.047 -0.132 0.052 -0.201 0.006 -0.075 -0.004 -0.151 -0.021 -0.224 -0.024 -0.102 -0.054 -0.208 -0.114 -0.294 -0.036 -0.052 -0.085 -0.097 -0.142 -0.126 -0.055 -0.028 -0.12 -0.052 -0.181 -0.04 -0.02 0.004 -0.051 0.035 -0.051 0.035z"/><path fill="#fff" d="M16.431 9.078s0.043 -0.173 0.05 -0.261c0.006 -0.076 0.002 -0.152 -0.006 -0.227 -0.009 -0.084 -0.014 -0.171 -0.047 -0.249 -0.034 -0.081 -0.087 -0.155 -0.15 -0.216 -0.062 -0.06 -0.137 -0.109 -0.218 -0.14 -0.084 -0.033 -0.178 -0.041 -0.268 -0.047 -0.078 -0.005 -0.156 0.002 -0.233 0.012 -0.045 0.006 -0.09 0.013 -0.132 0.027 -0.04 0.013 -0.113 0.054 -0.113 0.054l0.287 0.47s0.09 -0.053 0.14 -0.066c0.053 -0.014 0.109 -0.015 0.163 -0.012 0.055 0.003 0.113 0.009 0.163 0.031 0.064 0.029 0.12 0.077 0.168 0.128 0.059 0.062 0.111 0.132 0.144 0.211 0.03 0.073 0.034 0.154 0.045 0.232 0.002 0.017 0.004 0.051 0.004 0.051z"/><path d="M16.484 8.704s-0.051 -0.159 -0.1 -0.225c-0.056 -0.077 -0.128 -0.148 -0.214 -0.19 -0.091 -0.045 -0.298 -0.06 -0.298 -0.06l0.11 0.203 -0.192 -0.005 -0.1 -0.167 -0.185 0.084 -0.092 -0.15 0.196 -0.091 -0.09 -0.146 0.196 -0.019 0.085 0.141s0.152 0 0.226 0.016c0.05 0.011 0.1 0.028 0.145 0.052 0.044 0.023 0.084 0.053 0.119 0.087 0.043 0.04 0.084 0.085 0.114 0.136 0.029 0.049 0.063 0.161 0.063 0.161z"/><path d="m15.184 8.113 0.306 0.447m-0.173 -0.525 -0.144 0.084 -0.137 0.104 0.297 0.453 0.132 -0.102 0.136 -0.079zm0.559 1.91 0.172 -0.354 0.184 0.073 0.074 -0.183 -0.183 -0.085 0.095 -0.205 -0.135 -0.06 -0.102 0.196 -0.184 -0.077 -0.081 0.192 0.179 0.075 -0.165 0.352zm1.374 -0.106 0.175 -0.004v0.202l0.168 0.008 -0.029 0.205 -0.157 -0.01s-0.026 0.121 -0.049 0.178c-0.024 0.059 -0.093 0.167 -0.093 0.167l-0.186 -0.047s0.067 -0.106 0.093 -0.163c0.023 -0.051 0.054 -0.159 0.054 -0.159l-0.191 -0.024 0.033 -0.194 0.174 0.012z"/></g><use xlink:href="#a" transform="matrix(-1 0 0 1 3717.75 0)"/><path fill="#fff" d="m16.864 7.062 -0.263 0.283 0.162 0.489 0.093 0.344 -0.266 0.248 0.487 0.682 -0.167 0.19c-0.017 0.022 -0.024 0.054 -0.021 0.083 0.003 0.026 0.015 0.052 0.034 0.07 0.044 0.04 0.109 0.049 0.166 0.065 0.202 0.054 0.412 0.078 0.621 0.093 0.045 0.003 0.135 0 0.135 0s0.09 0.003 0.135 0c0.209 -0.016 0.419 -0.04 0.621 -0.093 0.057 -0.015 0.122 -0.024 0.166 -0.065 0.019 -0.018 0.032 -0.044 0.034 -0.07 0.003 -0.028 -0.003 -0.06 -0.021 -0.083l-0.156 -0.344 0.497 -0.533 -0.19 -0.171 -0.004 -0.415 0.162 -0.489 -0.244 -0.247 -0.22 -0.588s-0.046 -0.164 -0.085 -0.239c-0.023 -0.045 -0.056 -0.084 -0.088 -0.124 -0.038 -0.047 -0.077 -0.095 -0.124 -0.133 -0.042 -0.035 -0.092 -0.061 -0.14 -0.087 -0.052 -0.028 -0.105 -0.057 -0.162 -0.072 -0.059 -0.015 -0.182 -0.015 -0.182 -0.015s-0.123 0 -0.182 0.015c-0.057 0.015 -0.11 0.044 -0.162 0.072 -0.049 0.026 -0.098 0.052 -0.14 0.087 -0.047 0.038 -0.085 0.086 -0.124 0.133 -0.032 0.039 -0.065 0.079 -0.088 0.124 -0.039 0.075 -0.085 0.239 -0.085 0.239z"/><path d="M18.847 8.958s-0.03 -0.027 -0.048 -0.038a0.619 0.619 0 0 0 -0.115 -0.058c-0.054 -0.021 -0.111 -0.032 -0.167 -0.045 -0.064 -0.015 -0.129 -0.03 -0.194 -0.039 -0.077 -0.01 -0.154 -0.015 -0.231 -0.016 -0.083 -0.001 -0.248 0.012 -0.248 0.012s-0.165 -0.012 -0.248 -0.012c-0.077 0.001 -0.155 0.005 -0.231 0.016 -0.065 0.009 -0.13 0.024 -0.194 0.039 -0.056 0.013 -0.113 0.024 -0.167 0.045a0.619 0.619 0 0 0 -0.115 0.058c-0.017 0.011 -0.048 0.038 -0.048 0.038m2.1 -0.41s-0.05 -0.051 -0.083 -0.057c-0.021 -0.004 -0.046 0.002 -0.063 0.015 -0.023 0.016 -0.038 0.044 -0.045 0.071 -0.006 0.024 -0.003 0.052 0.006 0.075 0.008 0.02 0.02 0.042 0.04 0.05 0.046 0.018 0.148 -0.019 0.148 -0.019zm0.049 -0.034c0.056 0.002 0.076 0.03 0.091 0.062m-2.335 -0.028 -0.003 0.134s0.102 0.038 0.148 0.019c0.02 -0.008 0.032 -0.03 0.04 -0.05 0.009 -0.023 0.012 -0.051 0.006 -0.075 -0.007 -0.027 -0.022 -0.055 -0.045 -0.071 -0.018 -0.013 -0.042 -0.019 -0.063 -0.015 -0.033 0.006 -0.083 0.057 -0.083 0.057zm-0.049 -0.034c-0.056 0.002 -0.076 0.03 -0.091 0.062m1.902 0.013 -0.081 -0.009m-1.248 0.009 0.081 -0.009m0.73 0.008c-0.028 -0.004 -0.073 -0.04 -0.073 -0.04m-0.219 0.04c0.028 -0.004 0.073 -0.04 0.073 -0.04m1.353 -0.186s-0.04 0.032 -0.07 0.037l-0.012 0.006s-0.019 0.055 -0.035 0.078c-0.017 0.024 -0.062 0.06 -0.062 0.06s-0.046 -0.04 -0.074 -0.048c-0.019 -0.005 -0.04 -0.005 -0.058 0.002 -0.019 0.008 -0.034 0.024 -0.045 0.041 -0.013 0.02 -0.026 0.044 -0.025 0.068 0.001 0.029 0.037 0.079 0.037 0.079l-0.025 0.043 -0.035 0.023c-0.061 -0.018 -0.121 -0.038 -0.182 -0.072 -0.017 -0.018 -0.032 -0.041 -0.043 -0.087 0 0 0.044 -0.026 0.054 -0.048 0.011 -0.024 0.016 -0.058 0.002 -0.081 -0.016 -0.026 -0.051 -0.039 -0.081 -0.039 -0.022 0 -0.045 0.011 -0.06 0.027 -0.016 0.017 -0.029 0.043 -0.025 0.066 0.004 0.024 0.045 0.056 0.045 0.056s-0.017 0.044 -0.037 0.052c-0.058 0.025 -0.096 0.039 -0.146 0.047 -0.05 0.008 -0.106 0.014 -0.156 0 -0.032 -0.009 -0.066 -0.026 -0.086 -0.053 -0.006 -0.008 -0.008 -0.029 -0.008 -0.029s0.062 -0.016 0.087 -0.035c0.025 -0.019 0.051 -0.044 0.056 -0.074 0.005 -0.031 -0.011 -0.063 -0.029 -0.089 -0.018 -0.025 -0.044 -0.045 -0.072 -0.058 -0.013 -0.006 -0.041 -0.006 -0.041 -0.006s-0.006 0.005 -0.009 0.008c-0.012 0.015 -0.028 0.027 -0.046 0.037 0 0 -0.001 0 -0.001 0.001 0 0 -0.001 0 -0.002 0.001 -0.004 0.002 -0.007 0.004 -0.011 0.005 -0.002 0.001 -0.005 0.001 -0.007 0.001 -0.012 0.004 -0.024 0.007 -0.024 0.007s0.037 0.011 0.048 0.026c0.006 0.009 0.009 0.02 0.01 0.032 0.001 0.007 0.002 0.014 0.002 0.02 0 0.011 -0.003 0.021 -0.007 0.032 -0.003 0.012 -0.008 0.024 -0.016 0.034 -0.004 0.005 -0.01 0.009 -0.015 0.013 0 0 0 0.001 -0.001 0.001 0 0 -0.001 0 -0.001 0.001a0.119 0.119 0 0 1 -0.032 0.014c-0.013 0.004 -0.04 0.001 -0.041 0.001 0.001 0 0.053 0 0.074 -0.015 0.001 0 0.001 -0.001 0.002 -0.001 0.014 -0.012 0.025 -0.029 0.031 -0.047 0.002 -0.007 0.004 -0.015 0.005 -0.022a0.158 0.158 0 0 0 0 -0.03c-0.003 -0.015 -0.01 -0.03 -0.021 -0.04 -0.023 -0.021 -0.09 -0.023 -0.09 -0.023 -0.001 0 -0.067 0.003 -0.09 0.023 -0.011 0.01 -0.018 0.025 -0.021 0.04a0.156 0.156 0 0 0 0 0.03c0.001 0.007 0.003 0.015 0.005 0.022 0.006 0.018 0.017 0.035 0.031 0.047 0.001 0 0.001 0.001 0.002 0.001 0.021 0.015 0.073 0.015 0.074 0.015 -0.001 0 -0.028 0.003 -0.041 -0.001a0.119 0.119 0 0 1 -0.032 -0.014c0 0 -0.001 0 -0.001 -0.001 0 0 0 -0.001 -0.001 -0.001 -0.006 -0.004 -0.011 -0.008 -0.015 -0.013 -0.008 -0.009 -0.013 -0.021 -0.016 -0.034 -0.004 -0.011 -0.006 -0.021 -0.007 -0.032 0 -0.007 0.001 -0.014 0.002 -0.02 0.001 -0.012 0.004 -0.023 0.011 -0.032 0.01 -0.015 0.047 -0.026 0.047 -0.026s-0.012 -0.003 -0.024 -0.007c-0.002 -0.001 -0.005 -0.001 -0.007 -0.001 -0.004 -0.002 -0.007 -0.004 -0.011 -0.006 0 0 -0.001 0 -0.001 -0.001 0 0 -0.001 0 -0.001 -0.001 -0.017 -0.009 -0.034 -0.021 -0.046 -0.037 -0.003 -0.003 -0.009 -0.008 -0.009 -0.008s-0.028 0.001 -0.041 0.006c-0.028 0.012 -0.055 0.032 -0.072 0.058 -0.018 0.026 -0.034 0.058 -0.029 0.089 0.005 0.031 0.031 0.056 0.056 0.074 0.025 0.019 0.087 0.035 0.087 0.035s-0.002 0.021 -0.008 0.029c-0.02 0.027 -0.054 0.044 -0.086 0.053 -0.05 0.014 -0.106 0.008 -0.156 0 -0.051 -0.008 -0.089 -0.022 -0.146 -0.047 -0.02 -0.008 -0.037 -0.052 -0.037 -0.052s0.042 -0.032 0.045 -0.056c0.004 -0.023 -0.009 -0.049 -0.025 -0.066 -0.015 -0.016 -0.038 -0.027 -0.06 -0.027 -0.03 0 -0.065 0.014 -0.081 0.039 -0.014 0.023 -0.009 0.056 0.002 0.081 0.01 0.022 0.054 0.048 0.054 0.048 -0.011 0.045 -0.027 0.069 -0.043 0.087 -0.061 0.035 -0.121 0.054 -0.182 0.072l-0.035 -0.023 -0.025 -0.043s0.036 -0.05 0.037 -0.079c0.001 -0.024 -0.011 -0.048 -0.025 -0.068 -0.011 -0.017 -0.026 -0.034 -0.045 -0.041 -0.018 -0.007 -0.039 -0.007 -0.058 -0.002 -0.028 0.008 -0.074 0.048 -0.074 0.048s-0.046 -0.036 -0.062 -0.06c-0.016 -0.023 -0.035 -0.078 -0.035 -0.078l-0.012 -0.006c-0.029 -0.005 -0.07 -0.037 -0.07 -0.037l-0.043 0.009s-0.039 0.021 -0.04 0.04c-0.001 0.026 0.036 0.038 0.052 0.058a0.727 0.727 0 0 1 0.04 0.054c0.012 0.017 0.027 0.033 0.033 0.054 0.006 0.022 -0.009 0.048 0 0.069 0.012 0.026 0.036 0.052 0.065 0.058 0.025 0.005 0.073 -0.025 0.073 -0.025l-0.001 0.191 0.099 0.089 0.093 0.195 -0.037 0.049 0.011 0.096c0.072 -0.092 0.197 -0.132 0.309 -0.165 0.151 -0.043 0.428 -0.046 0.557 -0.045 0.043 0 0.07 0.001 0.07 0.001s0.425 -0.014 0.626 0.044c0.112 0.032 0.237 0.073 0.309 0.165l0.011 -0.096 -0.037 -0.049 0.093 -0.195 0.099 -0.089 -0.001 -0.191s0.048 0.03 0.073 0.025c0.028 -0.006 0.053 -0.031 0.065 -0.058 0.009 -0.021 -0.006 -0.047 0 -0.069 0.006 -0.02 0.021 -0.036 0.033 -0.054a0.728 0.728 0 0 1 0.04 -0.054c0.016 -0.02 0.053 -0.032 0.052 -0.058 0 -0.019 -0.04 -0.04 -0.04 -0.04l-0.043 -0.009zm-1.424 -0.025c0.01 0.009 0.03 0.027 0.046 0.037 0.001 0 0.002 0.001 0.002 0.001 0.005 0.003 0.012 0.005 0.018 0.007 0.028 0.008 0.076 0.003 0.077 0.002h0c0.001 0 0.049 0.005 0.077 -0.002 0.006 -0.002 0.013 -0.004 0.018 -0.007 0.001 0 0.002 -0.001 0.003 -0.001 0.016 -0.009 0.036 -0.027 0.046 -0.037 0.005 -0.006 0.009 -0.013 0.012 -0.021 0.011 -0.026 0.011 -0.059 -0.002 -0.084 -0.015 -0.029 -0.05 -0.043 -0.078 -0.06 -0.024 -0.015 -0.076 -0.036 -0.077 -0.036 -0.001 0 -0.053 0.021 -0.077 0.036 -0.028 0.017 -0.063 0.031 -0.078 0.06 -0.013 0.025 -0.013 0.058 -0.002 0.084a0.096 0.096 0 0 0 0.012 0.021z"/><path d="M19.015 7.966s-0.105 -0.049 -0.159 -0.066c-0.1 -0.032 -0.204 -0.05 -0.307 -0.07 -0.12 -0.023 -0.242 -0.029 -0.361 -0.057 -0.037 -0.009 -0.072 -0.027 -0.11 -0.034 -0.052 -0.011 -0.106 -0.028 -0.158 -0.016 -0.028 0.006 -0.075 0.044 -0.075 0.044s-0.047 -0.038 -0.075 -0.044c-0.052 -0.011 -0.106 0.006 -0.158 0.016 -0.038 0.008 -0.073 0.026 -0.11 0.034 -0.119 0.028 -0.241 0.034 -0.361 0.057 -0.103 0.02 -0.207 0.038 -0.307 0.07 -0.055 0.017 -0.159 0.066 -0.159 0.066m1.896 -0.433s0.051 -0.027 0.07 -0.049c0.012 -0.014 0.024 -0.032 0.025 -0.05 0.001 -0.022 -0.006 -0.047 -0.021 -0.062 -0.015 -0.015 -0.039 -0.021 -0.06 -0.021 -0.018 0 -0.037 0.006 -0.05 0.017 -0.016 0.013 -0.027 0.034 -0.029 0.054 -0.002 0.017 0.005 0.036 0.013 0.051 0.012 0.023 0.053 0.06 0.053 0.06zm-1.451 0s0.04 -0.036 0.053 -0.06c0.008 -0.016 0.015 -0.034 0.013 -0.051 -0.002 -0.02 -0.014 -0.041 -0.029 -0.054 -0.014 -0.012 -0.033 -0.018 -0.05 -0.017 -0.021 0 -0.045 0.006 -0.06 0.021 -0.015 0.016 -0.023 0.04 -0.021 0.062 0.001 0.019 0.013 0.036 0.025 0.05 0.019 0.021 0.07 0.049 0.07 0.049zm-0.394 0.173 -0.115 0.15s-0.001 0.039 0.008 0.056c0.012 0.023 0.056 0.054 0.056 0.054l0.008 0.205 -0.109 0.188 -0.009 0.002 0.07 0.037c0.003 0.001 0.007 0.001 0.009 0.001 0.042 -0.003 0.068 -0.05 0.104 -0.071 0.047 -0.027 0.096 -0.048 0.146 -0.069 0.068 -0.029 0.138 -0.055 0.209 -0.077 0.089 -0.028 0.179 -0.055 0.272 -0.069a1.361 1.361 0 0 1 0.212 -0.014c0.024 0 0.047 0.001 0.071 0.003 0.063 0.004 0.186 0.033 0.187 0.033 0.001 0 0.124 -0.029 0.187 -0.033 0.094 -0.006 0.19 -0.002 0.283 0.011 0.093 0.013 0.183 0.041 0.272 0.069 0.071 0.022 0.14 0.048 0.209 0.077 0.049 0.021 0.099 0.042 0.146 0.069 0.037 0.021 0.062 0.068 0.104 0.071 0.003 0 0.006 0 0.01 -0.001l0.07 -0.037 -0.009 -0.002 -0.109 -0.188 0.008 -0.205s0.045 -0.031 0.056 -0.054c0.009 -0.017 0.008 -0.056 0.008 -0.056l-0.115 -0.15s-0.058 0.058 -0.095 0.07c-0.02 0.006 -0.042 0.006 -0.062 0 -0.024 -0.007 -0.043 -0.027 -0.062 -0.043 -0.044 -0.036 -0.089 -0.072 -0.124 -0.117 -0.02 -0.025 -0.051 -0.084 -0.051 -0.084s-0.124 0.097 -0.198 0.117c-0.073 0.019 -0.153 0.015 -0.225 -0.006 -0.018 -0.005 -0.048 -0.029 -0.048 -0.029 -0.085 -0.054 -0.169 -0.084 -0.254 -0.075 -0.084 -0.008 -0.169 0.021 -0.254 0.075 0 0 -0.03 0.024 -0.048 0.029 -0.072 0.021 -0.153 0.025 -0.225 0.006 -0.074 -0.019 -0.198 -0.117 -0.198 -0.117s-0.03 0.058 -0.051 0.084c-0.036 0.044 -0.08 0.081 -0.124 0.117 -0.02 0.016 -0.038 0.035 -0.062 0.043 -0.02 0.006 -0.042 0.006 -0.062 0 -0.037 -0.012 -0.095 -0.07 -0.095 -0.07z"/><path d="M19.065 7.645s0.004 -0.055 -0.002 -0.081c-0.005 -0.024 -0.016 -0.047 -0.03 -0.068 -0.015 -0.022 -0.054 -0.056 -0.054 -0.056m-0.014 0.266s0.033 0.001 0.047 -0.006c0.025 -0.012 0.058 -0.06 0.058 -0.06s0.064 0.044 0.099 0.039c0.017 -0.003 0.032 -0.018 0.041 -0.033 0.01 -0.016 0.016 -0.036 0.012 -0.054 -0.003 -0.014 -0.016 -0.025 -0.027 -0.035 -0.022 -0.019 -0.061 -0.016 -0.076 -0.041 -0.011 -0.02 -0.004 -0.046 0.002 -0.068 0.013 -0.045 0.046 -0.083 0.072 -0.122 0.017 -0.025 0.051 -0.042 0.054 -0.072 0.002 -0.016 -0.019 -0.045 -0.019 -0.045s-0.05 -0.001 -0.074 0.006c-0.039 0.012 -0.08 0.029 -0.108 0.059 -0.023 0.025 -0.03 0.061 -0.042 0.093 -0.009 0.024 -0.023 0.074 -0.023 0.074s-0.058 0 -0.084 0.012c-0.034 0.016 -0.068 0.04 -0.084 0.074 -0.012 0.027 -0.01 0.06 0 0.087 0.01 0.027 0.034 0.05 0.058 0.066 0.027 0.017 0.093 0.027 0.093 0.027zm-2.253 -0.266s-0.04 0.035 -0.054 0.056c-0.014 0.021 -0.025 0.044 -0.03 0.068 -0.006 0.026 -0.002 0.081 -0.002 0.081m-0.163 -0.437s-0.021 0.029 -0.019 0.045c0.004 0.03 0.038 0.047 0.054 0.072 0.026 0.039 0.059 0.077 0.072 0.122 0.006 0.022 0.013 0.048 0.002 0.068 -0.014 0.025 -0.054 0.022 -0.076 0.041 -0.011 0.01 -0.024 0.021 -0.027 0.035 -0.004 0.018 0.002 0.039 0.012 0.054 0.009 0.015 0.024 0.03 0.041 0.033 0.035 0.005 0.099 -0.039 0.099 -0.039s0.033 0.048 0.058 0.06c0.014 0.007 0.047 0.006 0.047 0.006s0.066 -0.01 0.093 -0.027c0.025 -0.016 0.048 -0.039 0.058 -0.066 0.01 -0.027 0.012 -0.061 0 -0.087 -0.015 -0.034 -0.05 -0.058 -0.084 -0.074 -0.026 -0.012 -0.084 -0.012 -0.084 -0.012s-0.014 -0.05 -0.023 -0.074c-0.012 -0.032 -0.019 -0.068 -0.042 -0.093 -0.028 -0.03 -0.068 -0.047 -0.108 -0.059 -0.024 -0.007 -0.074 -0.006 -0.074 -0.006zm1.302 0.137 0.08 -0.023 0.08 0.023m-0.139 0.193s-0.062 -0.057 -0.074 -0.095c-0.005 -0.017 -0.004 -0.037 0.004 -0.052 0.011 -0.021 0.056 -0.045 0.056 -0.045s-0.068 -0.033 -0.085 -0.064c-0.01 -0.018 -0.011 -0.041 -0.006 -0.06 0.008 -0.031 0.032 -0.057 0.056 -0.078 0.031 -0.025 0.108 -0.05 0.108 -0.05s0.077 0.025 0.108 0.05c0.025 0.02 0.048 0.047 0.056 0.078 0.005 0.019 0.004 0.043 -0.006 0.06 -0.017 0.031 -0.085 0.064 -0.085 0.064s0.045 0.024 0.056 0.045c0.008 0.015 0.009 0.036 0.004 0.052 -0.012 0.038 -0.074 0.095 -0.074 0.095l-0.059 0.004zm0.218 -0.258s0.129 0.055 0.173 0.107c0.012 0.014 0.023 0.034 0.021 0.052 -0.004 0.067 -0.099 0.175 -0.099 0.175l-0.191 -0.08h-0.124l-0.191 0.08s-0.095 -0.108 -0.099 -0.175c-0.001 -0.019 0.009 -0.038 0.021 -0.052 0.044 -0.052 0.173 -0.107 0.173 -0.107"/><path d="m17.706 6.425 0.077 -0.06 0.062 0.001 -0.064 -0.001s-0.034 -0.023 -0.044 -0.041c-0.009 -0.017 -0.014 -0.039 -0.01 -0.058 0.005 -0.025 0.02 -0.052 0.043 -0.066 0.021 -0.013 0.074 -0.005 0.074 -0.005s0.053 -0.008 0.074 0.005c0.022 0.013 0.037 0.04 0.043 0.066 0.004 0.019 0 0.04 -0.01 0.058 -0.009 0.018 -0.044 0.041 -0.044 0.041l-0.064 0.001 0.062 -0.001 0.077 0.06m0.505 0.049 -0.026 0.045m0.313 -0.192 -0.072 0.009m0.082 0.085 -0.111 0.006m-0.014 -0.132c0.014 0.009 0.04 0.027 0.044 0.044 0.007 0.03 -0.006 0.068 -0.03 0.088 -0.023 0.019 -0.089 0.014 -0.089 0.014m-1.744 0.322s0.108 -0.027 0.163 -0.04c0.078 -0.019 0.155 -0.04 0.233 -0.054 0.089 -0.016 0.179 -0.028 0.269 -0.034 0.112 -0.008 0.338 -0.006 0.338 -0.006s0.225 -0.003 0.338 0.006c0.09 0.006 0.18 0.018 0.269 0.034 0.079 0.014 0.156 0.036 0.233 0.054 0.054 0.013 0.163 0.04 0.163 0.04m-1.647 -0.29 0.026 0.045m-0.313 -0.192 0.072 0.009m-0.082 0.085 0.111 0.006m-0.062 0.154s0.12 -0.031 0.181 -0.043c0.066 -0.014 0.133 -0.027 0.201 -0.036 0.077 -0.01 0.156 -0.015 0.234 -0.019 0.092 -0.004 0.278 -0.004 0.278 -0.004s0.185 -0.001 0.278 0.004c0.078 0.004 0.156 0.009 0.234 0.019 0.067 0.009 0.134 0.022 0.201 0.036 0.061 0.013 0.181 0.043 0.181 0.043m-1.634 -0.14s-0.066 0.005 -0.089 -0.014c-0.024 -0.02 -0.038 -0.058 -0.03 -0.088 0.006 -0.024 0.053 -0.05 0.053 -0.05m0.606 0.71c-0.115 0.007 -0.23 0.014 -0.344 0.035 -0.118 0.022 -0.235 0.052 -0.348 0.093 -0.107 0.039 -0.22 0.217 -0.308 0.146 -0.019 -0.015 0.007 -0.049 0.016 -0.071 0.018 -0.044 0.043 -0.086 0.074 -0.121 0.023 -0.026 0.077 -0.029 0.082 -0.063 0.004 -0.025 -0.033 -0.039 -0.041 -0.063 -0.01 -0.03 -0.015 -0.065 -0.005 -0.096 0.012 -0.039 0.063 -0.059 0.074 -0.099 0.01 -0.034 -0.024 -0.075 -0.008 -0.107 0.02 -0.04 0.109 -0.027 0.115 -0.071 0.003 -0.022 -0.037 -0.029 -0.044 -0.049 -0.005 -0.015 0.003 -0.031 0.003 -0.047 0 -0.021 0.004 -0.044 -0.006 -0.063 -0.008 -0.017 -0.036 -0.021 -0.041 -0.038 -0.005 -0.017 -0.002 -0.04 0.011 -0.052 0.01 -0.01 0.035 0.004 0.041 -0.008 0.013 -0.025 -0.024 -0.051 -0.036 -0.077 -0.013 -0.031 -0.031 -0.061 -0.038 -0.093 -0.006 -0.026 -0.028 -0.066 -0.005 -0.08 0.026 -0.016 0.053 0.031 0.077 0.049 0.032 0.024 0.068 0.046 0.091 0.08 0.016 0.024 0.007 0.062 0.028 0.082 0.025 0.024 0.074 0.005 0.101 0.028 0.023 0.02 0.043 0.053 0.036 0.082 -0.007 0.028 -0.072 0.027 -0.066 0.055 0.008 0.033 0.065 0.031 0.099 0.025 0.02 -0.003 0.033 -0.022 0.049 -0.033 0.013 -0.009 0.023 -0.021 0.037 -0.027 0.016 -0.007 0.052 -0.009 0.052 -0.009l-0.021 -0.005s-0.03 -0.024 -0.034 -0.042c-0.003 -0.017 0.004 -0.036 0.016 -0.048 0.013 -0.014 0.034 -0.021 0.053 -0.021 0.016 0 0.033 0.006 0.044 0.018 0.011 0.012 0.018 0.03 0.016 0.046 -0.002 0.014 -0.011 0.028 -0.022 0.036 -0.012 0.009 -0.044 0.014 -0.044 0.014l0.022 0.006 0.059 0.081 0.255 -0.014s0.031 -0.032 0.025 -0.05c-0.007 -0.019 -0.024 -0.026 -0.054 -0.024 -0.082 0.004 -0.099 -0.066 -0.096 -0.116 0.003 -0.042 0.053 -0.07 0.091 -0.085 0.037 -0.015 0.104 0.034 0.12 -0.002 0.015 -0.032 -0.056 -0.048 -0.067 -0.082 -0.005 -0.014 -0.005 -0.032 0.002 -0.046 0.017 -0.035 0.055 -0.058 0.09 -0.074 0.015 -0.007 0.049 -0.008 0.049 -0.008s0.033 0.001 0.049 0.008c0.035 0.016 0.073 0.039 0.09 0.074 0.007 0.014 0.007 0.031 0.002 0.046 -0.011 0.033 -0.082 0.05 -0.067 0.082 0.017 0.036 0.083 -0.013 0.12 0.002 0.039 0.016 0.089 0.044 0.091 0.085 0.003 0.05 -0.014 0.119 -0.096 0.116 -0.03 -0.001 -0.048 0.006 -0.054 0.024 -0.006 0.017 0.025 0.05 0.025 0.05l0.255 0.014 0.059 -0.081 0.022 -0.006s-0.032 -0.004 -0.044 -0.014c-0.011 -0.009 -0.02 -0.022 -0.022 -0.036 -0.002 -0.016 0.005 -0.034 0.016 -0.046 0.011 -0.011 0.028 -0.018 0.044 -0.018 0.019 0 0.04 0.007 0.053 0.021 0.012 0.012 0.019 0.031 0.016 0.048 -0.003 0.018 -0.034 0.042 -0.034 0.042l-0.021 0.005s0.036 0.002 0.052 0.009c0.014 0.006 0.024 0.019 0.037 0.027 0.016 0.011 0.03 0.03 0.049 0.033 0.033 0.006 0.091 0.008 0.099 -0.025 0.006 -0.028 -0.059 -0.027 -0.066 -0.055 -0.007 -0.029 0.013 -0.063 0.036 -0.082 0.026 -0.023 0.075 -0.004 0.101 -0.028 0.021 -0.02 0.012 -0.058 0.028 -0.082 0.022 -0.033 0.059 -0.055 0.091 -0.08 0.024 -0.018 0.051 -0.065 0.077 -0.049 0.023 0.014 0.001 0.054 -0.005 0.08 -0.008 0.033 -0.025 0.063 -0.038 0.093 -0.011 0.026 -0.048 0.052 -0.036 0.077 0.006 0.012 0.031 -0.002 0.041 0.008 0.013 0.012 0.016 0.035 0.011 0.052 -0.006 0.018 -0.033 0.022 -0.041 0.038 -0.009 0.019 -0.005 0.042 -0.005 0.063 0 0.016 0.008 0.032 0.003 0.047 -0.007 0.021 -0.047 0.028 -0.044 0.049 0.007 0.045 0.095 0.031 0.115 0.071 0.016 0.032 -0.018 0.073 -0.008 0.107 0.012 0.04 0.062 0.059 0.074 0.099 0.009 0.031 0.005 0.066 -0.005 0.096 -0.008 0.024 -0.045 0.038 -0.041 0.063 0.006 0.034 0.059 0.037 0.082 0.063 0.032 0.035 0.056 0.077 0.074 0.121 0.009 0.023 0.036 0.056 0.016 0.071 -0.089 0.071 -0.201 -0.107 -0.308 -0.146 -0.113 -0.041 -0.23 -0.072 -0.348 -0.093 -0.113 -0.021 -0.229 -0.028 -0.344 -0.035 -0.067 -0.004 -0.201 -0.004 -0.201 -0.004s-0.134 0 -0.201 0.004zm0.299 -1.283 -0.098 0.001 -0.098 -0.001m0.163 -0.325c0.025 -0.054 -0.019 -0.094 -0.065 -0.133 -0.046 0.039 -0.09 0.079 -0.065 0.133m0.135 0.449c0.037 0.003 0.083 0.041 0.111 0.016 0.013 -0.011 0.006 -0.035 0 -0.051 -0.015 -0.036 -0.081 -0.044 -0.084 -0.084 -0.003 -0.034 0.05 -0.05 0.06 -0.082 0.005 -0.016 0.007 -0.035 0 -0.051 -0.026 -0.063 -0.139 -0.067 -0.159 -0.131 -0.009 -0.029 0.057 -0.062 0.065 -0.066 0.042 -0.018 0.093 0.026 0.134 0.008 0.028 -0.012 0.059 -0.04 0.058 -0.07 -0.001 -0.033 -0.036 -0.061 -0.066 -0.074 -0.059 -0.026 -0.156 0.057 -0.192 0.004 -0.033 -0.049 0.083 -0.106 0.067 -0.163 -0.007 -0.027 -0.067 -0.05 -0.067 -0.05s-0.06 0.023 -0.067 0.05c-0.016 0.057 0.101 0.115 0.067 0.163 -0.036 0.053 -0.133 -0.029 -0.192 -0.004 -0.03 0.013 -0.065 0.041 -0.066 0.074 -0.001 0.03 0.03 0.058 0.058 0.07 0.041 0.018 0.093 -0.026 0.134 -0.008 0.008 0.004 0.074 0.037 0.065 0.066 -0.02 0.065 -0.132 0.068 -0.159 0.131 -0.007 0.016 -0.005 0.035 0 0.051 0.011 0.032 0.063 0.048 0.06 0.082 -0.003 0.039 -0.069 0.047 -0.084 0.084 -0.006 0.016 -0.013 0.04 0 0.051 0.028 0.024 0.074 -0.014 0.111 -0.016 0.023 -0.002 0.07 0 0.07 0s0.047 -0.002 0.07 0z"/><path fill="none" d="M18.756 9.154s-0.069 -0.029 -0.104 -0.042c-0.063 -0.023 -0.127 -0.044 -0.192 -0.062 -0.063 -0.017 -0.127 -0.035 -0.192 -0.043 -0.14 -0.016 -0.422 -0.002 -0.422 -0.002s-0.282 -0.014 -0.422 0.002c-0.065 0.007 -0.129 0.025 -0.192 0.043 -0.065 0.018 -0.129 0.039 -0.192 0.062 -0.035 0.013 -0.104 0.042 -0.104 0.042m1.938 -2.136s-0.115 -0.046 -0.173 -0.066c-0.049 -0.017 -0.098 -0.034 -0.148 -0.047 -0.061 -0.015 -0.124 -0.024 -0.187 -0.033a3.615 3.615 0 0 0 -0.272 -0.027c-0.082 -0.005 -0.248 -0.006 -0.248 -0.006s-0.165 0.001 -0.248 0.006a3.614 3.614 0 0 0 -0.272 0.027c-0.063 0.009 -0.125 0.018 -0.187 0.033 -0.05 0.012 -0.099 0.03 -0.148 0.047 -0.058 0.02 -0.173 0.066 -0.173 0.066m-0.136 1.156s0.169 -0.057 0.253 -0.083c0.088 -0.027 0.174 -0.058 0.264 -0.078 0.107 -0.023 0.217 -0.035 0.326 -0.047 0.106 -0.011 0.319 -0.023 0.319 -0.023s0.213 0.012 0.319 0.023c0.109 0.012 0.219 0.023 0.326 0.047 0.09 0.019 0.177 0.05 0.264 0.078 0.085 0.026 0.253 0.083 0.253 0.083"/></g><g fill="#ccc"><g id="b"><path d="m14.719 8.679 0.971 0.832s-0.049 0.108 -0.07 0.163c-0.019 0.051 -0.037 0.103 -0.049 0.156 -0.019 0.078 -0.04 0.238 -0.04 0.238L14.4 9.031c0.016 -0.237 0.149 -0.321 0.32 -0.352zm-0.137 0.52 -0.233 0.261 0.146 0.14 -0.225 0.22 -0.146 -0.146 -0.245 0.261 -0.002 0.324 0.558 0.437 0.192 -0.143 -0.011 -0.31 0.148 0.082 0.148 -0.091 0.008 0.28 -0.121 -0.088 -0.132 0.173 -0.014 0.308 0.42 0.374 0.509 -0.452 -0.038 -0.135 -0.022 -0.122 -0.012 -0.241 0.019 -0.263z"/><path d="m14.349 9.459 -0.006 0.288 0.15 -0.147z"/><path fill="none" d="m15.091 10.948 -0.017 0.329m-0.179 -1.341 0.006 0.305m-0.142 -0.166 0.008 0.248m-0.138 -0.349 0.005 0.278m-0.206 0.146 0.003 0.294m0.237 -0.093 0.423 0.354 0.433 -0.38M13.882 9.932l0.553 0.472 0.181 -0.162 -0.143 -0.121 0.159 -0.151 0.124 0.107 0.14 -0.143 0.181 0.176 -0.165 0.129 0.154 0.14 -0.146 0.135"/><path d="m18.253 11.802 0.467 0.428 0.103 0.302 -0.601 -0.064 -0.342 -0.339 -0.365 -0.338 -1.575 -1.365s0.033 -0.126 0.054 -0.187c0.03 -0.089 0.066 -0.176 0.101 -0.264 0.009 -0.022 0.028 -0.065 0.028 -0.065l1.757 1.558z"/><path d="M18.65 11.866c0.26 0.364 0.698 0.707 0.831 0.872 0.133 0.165 0.219 0.322 0.025 0.533 -0.194 0.211 -0.413 0.091 -0.587 -0.025 -0.173 -0.116 -0.476 -0.493 -0.909 -0.781z"/><path d="m18.496 12.478 -0.338 -0.152m0.393 -0.368c0.023 0.076 0.006 0.161 0.035 0.234 0.029 0.073 0.135 0.192 0.135 0.192s-0.067 0.009 -0.099 0.022c-0.045 0.018 -0.115 0.026 -0.126 0.073 -0.01 0.041 0.039 0.077 0.068 0.108 0.028 0.03 0.064 0.052 0.099 0.072 0.059 0.035 0.119 0.073 0.186 0.086 0.084 0.015 0.241 -0.103 0.256 -0.019 0.006 0.035 -0.071 0.013 -0.103 0.028 -0.074 0.037 -0.112 0.116 -0.046 0.172 0.042 0.036 0.108 0.023 0.163 0.027 0.053 0.004 0.113 -0.026 0.159 0 0.054 0.031 0.122 0.107 0.093 0.162 -0.029 0.057 -0.139 0.055 -0.191 0.018 -0.039 -0.027 -0.028 -0.091 -0.034 -0.138 -0.002 -0.014 0 -0.028 0 -0.042"/><path cx="2154.665" cy="1480.147" r="129.687" d="M21.93 14.209A1.245 1.245 0 0 1 20.685 15.454A1.245 1.245 0 0 1 19.44 14.209A1.245 1.245 0 0 1 21.93 14.209z"/><path fill="#fff" d="M20.219 14.262c-0.215 0 -0.389 0.174 -0.389 0.389 0 0.215 0.174 0.389 0.389 0.389s0.389 -0.174 0.389 -0.389l0.135 -0.006c0 0.215 0.174 0.389 0.389 0.389s0.389 -0.174 0.389 -0.389 -0.174 -0.389 -0.389 -0.389l0.006 -0.076c0.215 0 0.389 -0.174 0.389 -0.389s-0.174 -0.389 -0.389 -0.389c-0.215 0 -0.389 0.174 -0.389 0.389l-0.135 -0.012c0 -0.215 -0.174 -0.389 -0.389 -0.389 -0.215 0 -0.389 0.174 -0.389 0.389 0 0.215 0.174 0.389 0.389 0.389z"/><path cx="2154.667" cy="1446.052" r="14.613" d="M20.825 13.882A0.14 0.14 0 0 1 20.685 14.022A0.14 0.14 0 0 1 20.545 13.882A0.14 0.14 0 0 1 20.825 13.882z"/><path cx="2189.367" cy="1480.148" r="14.613" d="M21.158 14.209A0.14 0.14 0 0 1 21.018 14.35A0.14 0.14 0 0 1 20.878 14.209A0.14 0.14 0 0 1 21.158 14.209z"/><path cx="2155.277" cy="1511.2" r="14.613" d="M20.831 14.508A0.14 0.14 0 0 1 20.691 14.648A0.14 0.14 0 0 1 20.55 14.508A0.14 0.14 0 0 1 20.831 14.508z"/><path cx="2119.347" cy="1480.148" r="14.613" d="M20.486 14.209A0.14 0.14 0 0 1 20.346 14.35A0.14 0.14 0 0 1 20.205 14.209A0.14 0.14 0 0 1 20.486 14.209z"/><path fill="#fff" d="M20.661 14.961c-0.051 0.105 -0.121 0.153 -0.21 0.21 0.127 0.055 0.282 0.045 0.421 0 -0.089 -0.045 -0.154 -0.115 -0.21 -0.21zm-0.735 -0.77c-0.105 -0.051 -0.153 -0.121 -0.21 -0.21 -0.055 0.127 -0.045 0.282 0 0.421 0.045 -0.089 0.115 -0.154 0.21 -0.21zm1.529 0.035c0.105 -0.051 0.153 -0.121 0.21 -0.21 0.055 0.127 0.045 0.282 0 0.421 -0.045 -0.089 -0.115 -0.154 -0.21 -0.21zm-0.753 -0.776c-0.051 -0.105 -0.121 -0.153 -0.21 -0.21 0.127 -0.055 0.282 -0.045 0.421 0 -0.089 0.045 -0.154 0.115 -0.21 0.21z"/></g><g fill="#ce9d09"><g id="c"><path d="M14.721 8.677s0.007 -0.049 0 -0.071c-0.011 -0.037 -0.034 -0.072 -0.063 -0.098 -0.024 -0.022 -0.056 -0.038 -0.088 -0.044 -0.035 -0.007 -0.072 -0.001 -0.106 0.008 -0.023 0.006 -0.065 0.032 -0.065 0.032l-0.143 0.059 -0.053 0.17s-0.03 0.054 -0.038 0.083c-0.008 0.032 -0.014 0.066 -0.006 0.098 0.009 0.037 0.031 0.073 0.06 0.098 0.027 0.023 0.064 0.036 0.099 0.038 0.027 0.002 0.08 -0.018 0.08 -0.018 0.015 -0.179 0.095 -0.315 0.321 -0.354z"/><path d="m14.403 8.502 -0.372 -0.163 -0.03 0.029 0.203 0.367s0.057 -0.084 0.09 -0.122c0.034 -0.039 0.11 -0.11 0.11 -0.11z"/><path cy="865.263" cx="1457.292" r="15.951" d="M14.143 8.307A0.153 0.153 0 0 1 13.99 8.46A0.153 0.153 0 0 1 13.837 8.307A0.153 0.153 0 0 1 14.143 8.307z"/><path d="M15.035 8.95c0.033 0.268 0.07 0.537 0.154 0.805l0.298 0.273c-0.064 -0.281 -0.177 -0.561 -0.176 -0.842z"/><path d="m15.485 9.335 -0.821 -0.061 0.261 0.239 0.749 0.032 0.011 -0.038zm1.011 0.907c-0.215 0.081 -0.302 0.214 -0.363 0.357 -0.061 0.005 -0.118 0.006 -0.138 -0.04 0.051 -0.333 0.29 -0.437 0.343 -0.458 0.144 -0.027 0.117 0.085 0.159 0.141zm0.264 0.249c-0.215 0.081 -0.302 0.214 -0.363 0.357 -0.061 0.005 -0.118 0.006 -0.138 -0.04 0.051 -0.333 0.29 -0.437 0.343 -0.458 0.144 -0.027 0.117 0.085 0.159 0.141zm3.003 2.514c-0.07 -0.002 -0.145 0.014 -0.145 0.014 0.003 0.077 -0.028 0.159 -0.113 0.252 -0.073 0.08 -0.15 0.112 -0.227 0.116l0 0s-0.027 0.169 0.025 0.223c0.061 0.063 0.26 0.037 0.26 0.037l0.017 -0.011a1.245 1.245 0 0 1 0.306 -0.382l0.003 -0.012s0.029 -0.159 -0.021 -0.206c-0.023 -0.022 -0.063 -0.029 -0.106 0z"/><path cy="1375.424" cx="2254.517" r="17.657" d="M21.813 13.204A0.17 0.17 0 0 1 21.643 13.374A0.17 0.17 0 0 1 21.474 13.204A0.17 0.17 0 0 1 21.813 13.204z"/><path cy="1580.001" cx="2260.607" r="17.657" d="M21.871 15.168A0.17 0.17 0 0 1 21.702 15.338A0.17 0.17 0 0 1 21.532 15.168A0.17 0.17 0 0 1 21.871 15.168z"/><path cy="1591.57" cx="2062.117" r="17.657" d="M19.966 15.279A0.17 0.17 0 0 1 19.796 15.449A0.17 0.17 0 0 1 19.627 15.279A0.17 0.17 0 0 1 19.966 15.279z"/></g></g></g><g fill="#ce9d09" transform="matrix(-1 0 0 1 3718.256 0)"><use xlink:href="#b"/><use xlink:href="#c" fill="#ccc"/></g><g fill="#fa0204"><path id="d" d="M17.944 11.287c0 0.052 -0.043 0.072 -0.127 0.072s-0.123 -0.024 -0.123 -0.076c0 -0.052 0.039 -0.064 0.123 -0.064s0.127 0.017 0.127 0.069z"/><use xlink:href="#d" x="6.391" y="14.309"/><path d="M18.022 11.603c-0.017 0.049 -0.064 0.053 -0.144 0.026 -0.079 -0.028 -0.108 -0.063 -0.091 -0.112 0.017 -0.049 0.058 -0.048 0.137 -0.02 0.079 0.028 0.114 0.058 0.097 0.107z"/><path id="e" d="M18.024 11.736c-0.01 0.051 -0.057 0.062 -0.139 0.045s-0.115 -0.048 -0.105 -0.099c0.01 -0.051 0.051 -0.055 0.133 -0.039 0.082 0.017 0.121 0.042 0.111 0.092z"/><use xlink:href="#e" x="3.96" y="16.142"/><path d="M18.449 11.676c-0.025 -0.007 -0.022 -0.051 -0.015 -0.076 0.011 -0.038 0.08 -0.087 0.08 -0.087s0.017 0.053 0.009 0.079c-0.011 0.036 -0.038 0.094 -0.074 0.085z"/><path d="M18.358 11.754c-0.027 -0.006 -0.031 -0.053 -0.023 -0.08 0.011 -0.042 0.093 -0.09 0.093 -0.09s0.014 0.058 0.005 0.085c-0.012 0.035 -0.038 0.093 -0.074 0.085zm-0.103 0.15c-0.041 -0.011 -0.037 -0.084 -0.026 -0.125 0.009 -0.034 0.036 -0.088 0.07 -0.079 0.04 0.01 0.04 0.08 0.03 0.12 -0.009 0.036 -0.038 0.094 -0.074 0.085z"/><path d="M18.132 12.021c-0.04 -0.009 -0.058 -0.073 -0.05 -0.114 0.008 -0.043 0.051 -0.1 0.094 -0.091 0.043 0.009 0.058 0.08 0.047 0.123 -0.01 0.04 -0.052 0.09 -0.092 0.082zm-0.021 0.071c-0.01 0.049 -0.072 0.066 -0.11 0.053 -0.04 -0.013 -0.092 -0.069 -0.081 -0.12 0.011 -0.052 0.079 -0.065 0.118 -0.05 0.037 0.014 0.083 0.069 0.073 0.117zm-0.816 -0.473s0.049 0.024 0.071 0.046c0.022 0.023 0.049 0.032 0.036 0.066 -0.014 0.035 -0.056 0.023 -0.078 -0.001 -0.02 -0.023 -0.028 -0.111 -0.028 -0.111zm0.244 0.084c0.05 0.01 0.049 0.068 0.023 0.104 -0.027 0.038 -0.104 0.086 -0.157 0.076 -0.053 -0.011 -0.047 -0.074 -0.017 -0.112 0.027 -0.035 0.101 -0.078 0.151 -0.068z"/><path id="f" d="M17.705 11.813c0.047 0.021 0.033 0.077 0 0.107 -0.034 0.031 -0.121 0.061 -0.17 0.039 -0.049 -0.022 -0.029 -0.083 0.008 -0.113 0.034 -0.028 0.116 -0.054 0.162 -0.033z"/><use xlink:href="#f" x="13.998" y="10.661"/><path d="M17.885 12.007c0.046 0.007 0.058 0.071 0.044 0.112 -0.015 0.043 -0.072 0.102 -0.12 0.095 -0.049 -0.008 -0.057 -0.078 -0.04 -0.121 0.016 -0.04 0.071 -0.093 0.116 -0.086z"/><path d="M18.001 12.147c0.038 0.022 0.029 0.092 0.004 0.13 -0.026 0.04 -0.095 0.083 -0.134 0.059 -0.04 -0.024 -0.026 -0.099 0.002 -0.138 0.026 -0.036 0.091 -0.073 0.128 -0.051zm-0.826 -0.383c0.041 -0.004 0.069 0.057 0.068 0.102 -0.001 0.047 -0.032 0.119 -0.075 0.123 -0.043 0.004 -0.07 -0.064 -0.068 -0.111 0.002 -0.044 0.034 -0.109 0.074 -0.113z"/><path d="M17.308 11.881c0.04 0.009 0.048 0.076 0.034 0.118 -0.015 0.044 -0.067 0.104 -0.108 0.094 -0.042 -0.01 -0.047 -0.083 -0.031 -0.127 0.015 -0.041 0.065 -0.094 0.105 -0.085z"/><path d="M17.432 11.964c0.047 0.011 0.057 0.094 0.041 0.146 -0.017 0.055 -0.079 0.129 -0.128 0.117 -0.05 -0.012 -0.056 -0.103 -0.036 -0.157 0.018 -0.051 0.077 -0.117 0.124 -0.106z"/><path d="M17.532 12.065c0.048 -0.006 0.086 0.068 0.089 0.123 0.003 0.057 -0.029 0.148 -0.079 0.155 -0.051 0.006 -0.088 -0.076 -0.089 -0.135 -0.001 -0.054 0.032 -0.136 0.079 -0.143z"/><path id="g" d="M17.65 12.15c0.044 -0.005 0.079 0.056 0.081 0.102 0.003 0.048 -0.026 0.123 -0.072 0.128 -0.046 0.005 -0.08 -0.063 -0.081 -0.112 -0.001 -0.045 0.029 -0.113 0.072 -0.118z"/><use xlink:href="#g" x="12.788" y="10.35"/><path id="h" d="M18.521 12.008c-0.031 0.027 -0.093 0.003 -0.121 -0.028 -0.029 -0.032 -0.05 -0.101 -0.017 -0.129 0.033 -0.029 0.099 0.001 0.127 0.035 0.026 0.031 0.042 0.095 0.011 0.122z"/><use xlink:href="#h" x="-6.999" y="12.792"/><use xlink:href="#h" x="-19.479" y="23.452"/><path d="M18.29 12.299c-0.011 0.04 -0.076 0.054 -0.116 0.044 -0.042 -0.011 -0.097 -0.056 -0.086 -0.098 0.012 -0.042 0.083 -0.054 0.125 -0.041 0.039 0.012 0.088 0.056 0.077 0.096z"/><path d="M18.117 12.271c0.035 0.024 0.027 0.101 0.004 0.143 -0.024 0.044 -0.087 0.091 -0.123 0.065 -0.037 -0.026 -0.024 -0.109 0.002 -0.152 0.024 -0.04 0.083 -0.081 0.118 -0.056z"/><path d="M17.948 12.36c0.038 0.022 0.029 0.092 0.004 0.13 -0.026 0.04 -0.095 0.083 -0.134 0.059 -0.04 -0.024 -0.026 -0.099 0.002 -0.138 0.026 -0.036 0.091 -0.073 0.128 -0.051z"/><path id="i" d="M17.581 12.604c-0.033 0.031 -0.007 0.108 0.027 0.147 0.036 0.04 0.113 0.078 0.147 0.045 0.034 -0.033 0.003 -0.115 -0.035 -0.155 -0.035 -0.037 -0.107 -0.068 -0.139 -0.037z"/><use xlink:href="#i" x="-7.319" y="13.781"/><path id="j" d="M17.48 12.86c-0.042 0.017 -0.047 0.098 -0.03 0.146 0.018 0.051 0.076 0.114 0.12 0.097 0.044 -0.018 0.045 -0.106 0.025 -0.157 -0.019 -0.047 -0.075 -0.103 -0.116 -0.086z"/><use xlink:href="#j" x="-10.548" y="14.852"/><path id="k" d="M17.306 13.162c-0.044 0.01 -0.062 0.089 -0.052 0.14 0.01 0.053 0.057 0.125 0.103 0.114 0.046 -0.011 0.062 -0.098 0.05 -0.151 -0.011 -0.049 -0.057 -0.113 -0.101 -0.103z"/><use xlink:href="#k" x="-10.121" y="15.932"/><path id="l" d="M17.127 13.472c-0.045 0.002 -0.077 0.076 -0.077 0.127 0 0.054 0.033 0.133 0.08 0.132 0.048 -0.002 0.079 -0.085 0.077 -0.139 -0.002 -0.051 -0.035 -0.122 -0.08 -0.12z"/><use xlink:href="#l" x="-10.33" y="19.16"/><use xlink:href="#l" x="-22.39" y="37.02"/><use xlink:href="#l" x="-34.87" y="52.31"/><use xlink:href="#l" x="-47.79" y="66.51"/><use xlink:href="#l" x="-61.99" y="78.14"/><use xlink:href="#l" x="-75.56" y="90.62"/><path d="m16.251 14.402 -0.051 0.198s0.028 0.07 0.058 0.067c0.053 -0.005 0.067 -0.087 0.077 -0.139 0.009 -0.081 -0.084 -0.126 -0.084 -0.126zm3.114 0.126c0.015 0.059 0.146 0.109 0.146 0.109l-0.064 -0.266c-0.055 0.001 -0.091 0.119 -0.083 0.158z"/><path d="M19.354 14.313c-0.042 -0.017 -0.101 0.039 -0.122 0.086 -0.022 0.049 -0.023 0.135 0.021 0.153 0.044 0.017 0.106 -0.046 0.126 -0.096 0.019 -0.047 0.016 -0.126 -0.025 -0.142z"/><path id="m" d="M19.208 14.195c-0.045 -0.002 -0.084 0.069 -0.088 0.12 -0.005 0.054 0.021 0.136 0.068 0.138 0.048 0.002 0.086 -0.077 0.089 -0.131 0.003 -0.051 -0.025 -0.124 -0.069 -0.127z"/><use xlink:href="#m" x="-13.4" y="-13.7"/><use xlink:href="#m" x="-25.88" y="-29.23"/><use xlink:href="#m" x="-38.66" y="-42.32"/><use xlink:href="#m" x="-49.01" y="-60.28"/><use xlink:href="#m" x="-60.28" y="-76.41"/><use xlink:href="#m" x="-70.63" y="-93.46"/><use xlink:href="#m" x="-79.76" y="-113.25"/><use xlink:href="#m" x="-89.81" y="-131.21"/><use xlink:href="#m" x="-98.03" y="-152.52"/><path d="M18.085 12.524s-0.016 0.256 0.077 0.273c0.058 0.01 0.103 -0.143 0.103 -0.143z"/><path id="n" d="M17.875 15.463c-0.028 0.036 0.009 0.108 0.048 0.141 0.041 0.035 0.123 0.06 0.152 0.023 0.029 -0.038 -0.014 -0.115 -0.057 -0.148 -0.04 -0.031 -0.116 -0.051 -0.143 -0.016z"/><use xlink:href="#n" x="18.3" y="-2.15"/><use xlink:href="#n" x="36.81" y="-5.81"/><path id="o" d="M18.395 15.396c-0.022 0.039 0.025 0.106 0.069 0.132 0.046 0.028 0.131 0.041 0.154 0 0.023 -0.042 -0.031 -0.111 -0.079 -0.138 -0.044 -0.025 -0.122 -0.033 -0.144 0.006z"/><use xlink:href="#o" x="20.02" y="-3.22"/><path id="p" d="M18.753 15.316c-0.018 0.041 0.035 0.103 0.081 0.125 0.048 0.024 0.134 0.029 0.153 -0.014 0.019 -0.044 -0.041 -0.108 -0.091 -0.13 -0.046 -0.021 -0.125 -0.022 -0.143 0.019z"/><use xlink:href="#p" x="18.94" y="-5.59"/><path id="q" d="M19.116 15.205c-0.016 0.042 0.041 0.101 0.088 0.121 0.05 0.021 0.136 0.021 0.152 -0.023 0.017 -0.045 -0.048 -0.105 -0.098 -0.124 -0.047 -0.018 -0.126 -0.014 -0.142 0.027z"/><use xlink:href="#q" x="19.16" y="-6.24"/><use xlink:href="#q" x="37.67" y="-13.99"/><use xlink:href="#q" x="57.48" y="-22.17"/><use xlink:href="#q" x="77.5" y="-28.63"/><use xlink:href="#q" x="79.87" y="-44.34"/><path d="M19.84 14.735s0.13 0.019 0.142 -0.028c0.016 -0.062 -0.148 -0.122 -0.148 -0.122z"/><path id="r" d="M16.336 15.126c-0.038 0.024 -0.029 0.104 -0.004 0.149 0.026 0.047 0.095 0.1 0.135 0.075 0.04 -0.025 0.027 -0.112 -0.002 -0.159 -0.026 -0.043 -0.091 -0.088 -0.129 -0.065z"/><use xlink:href="#r" x="18.94" y="7.75"/><use xlink:href="#r" x="37.03" y="10.55"/><use xlink:href="#r" x="56.83" y="15.5"/><use xlink:href="#r" x="74.7" y="18.08"/><use xlink:href="#r" x="92.35" y="21.74"/><use xlink:href="#r" x="110.43" y="26.69"/><use xlink:href="#r" x="128.3" y="29.92"/><use xlink:href="#r" x="146.6" y="32.72"/><path d="M15.822 14.568c-0.04 -0.021 -0.105 0.029 -0.13 0.073 -0.027 0.047 -0.036 0.132 0.006 0.154 0.042 0.022 0.11 -0.035 0.135 -0.083 0.023 -0.045 0.029 -0.124 -0.011 -0.144z"/><path d="M15.763 14.73c-0.042 -0.015 -0.1 0.042 -0.119 0.09 -0.02 0.05 -0.018 0.136 0.026 0.152 0.045 0.016 0.104 -0.049 0.123 -0.101 0.017 -0.048 0.012 -0.126 -0.03 -0.141z"/><path d="M15.818 14.879c-0.044 -0.011 -0.096 0.051 -0.11 0.1 -0.015 0.052 -0.006 0.137 0.04 0.149 0.046 0.012 0.099 -0.059 0.113 -0.111 0.013 -0.049 0.001 -0.127 -0.042 -0.138z"/><path d="M15.959 14.941c-0.043 -0.013 -0.097 0.048 -0.114 0.097 -0.017 0.051 -0.011 0.137 0.035 0.15 0.046 0.013 0.101 -0.055 0.117 -0.107 0.014 -0.049 0.005 -0.127 -0.038 -0.139z"/><path id="s" d="M16.05 14.965c-0.044 0.011 -0.06 0.09 -0.049 0.141 0.011 0.053 0.06 0.124 0.106 0.112 0.046 -0.012 0.06 -0.099 0.047 -0.152 -0.012 -0.049 -0.06 -0.112 -0.103 -0.101z"/><use xlink:href="#s" x="16.79" y="6.24"/><use xlink:href="#i" x="8.611" y="-11.189"/><use xlink:href="#i" x="4.66" y="6.47"/><use xlink:href="#i" x="4.911" y="26.679"/><use xlink:href="#i" x="4.66" y="47.87"/><use xlink:href="#i" x="5.57" y="68.57"/><use xlink:href="#i" x="2.22" y="87.75"/><use xlink:href="#i" x="4.66" y="109.06"/><use xlink:href="#i" x="2.22" y="126.41"/><use xlink:href="#i" x="4.66" y="143.46"/><use xlink:href="#i" x="4.66" y="163.86"/><use xlink:href="#i" x="3.44" y="183.95"/><use xlink:href="#i" x="3.74" y="203.13"/><use xlink:href="#i" x="4.35" y="223.52"/><use xlink:href="#i" x="4.35" y="243.31"/><use xlink:href="#i" x="3.74" y="263.1"/><use xlink:href="#i" x="2.52" y="283.19"/><use xlink:href="#i" x="2.52" y="305.11"/><use xlink:href="#i" x="1.92" y="327.94"/><use xlink:href="#i" x="1.92" y="349.25"/><use xlink:href="#i" x="1.92" y="369.04"/><use xlink:href="#i" x="1.31" y="391.27"/><path id="t" d="M18.07 12.511c0.023 0.036 -0.013 0.104 -0.05 0.134 -0.039 0.032 -0.114 0.052 -0.139 0.015 -0.025 -0.038 0.018 -0.11 0.058 -0.14 0.037 -0.028 0.107 -0.044 0.13 -0.009z"/><use xlink:href="#t" x="2.74" y="16.13"/><use xlink:href="#t" x="2.43" y="34.1"/><use xlink:href="#t" x="2.13" y="52.36"/><use xlink:href="#t" x="1.82" y="69.11"/><use xlink:href="#t" x="2.74" y="87.07"/><use xlink:href="#t" x="1.52" y="104.42"/><path d="M18.079 13.69c0.026 0.037 -0.014 0.108 -0.055 0.139 -0.043 0.033 -0.126 0.054 -0.153 0.016 -0.027 -0.039 0.02 -0.114 0.064 -0.145 0.041 -0.029 0.118 -0.045 0.144 -0.009z"/><path id="u" d="M18.068 13.858c0.033 0.031 0.007 0.108 -0.027 0.147 -0.036 0.04 -0.113 0.078 -0.147 0.045 -0.034 -0.033 -0.003 -0.115 0.035 -0.155 0.035 -0.037 0.107 -0.068 0.139 -0.037z"/><use xlink:href="#u" x=".61" y="20.4"/><use xlink:href="#u" x=".92" y="40.49"/><use xlink:href="#u" x=".31" y="62.11"/><use xlink:href="#u" x=".92" y="82.2"/><use xlink:href="#u" x=".31" y="102.6"/><use xlink:href="#u" x=".61" y="122.99"/><use xlink:href="#u" x=".61" y="143.69"/><use xlink:href="#u" x="-.3" y="164.4"/><use xlink:href="#u" x=".92" y="183.27"/><use xlink:href="#u" x=".92" y="203.06"/><use xlink:href="#u" x=".31" y="224.37"/><use xlink:href="#u" x=".31" y="245.37"/></g><path fill="#fa0204" d="M17.757 17.743c0.191 0.053 0.305 0.05 0.463 0.004l-0.167 -0.269"/><path fill="#ce9d09" d="m18.128 17.051 -0.304 -0.078s0.004 -0.338 0.196 -0.308c0.16 0.024 0.115 0.387 0.109 0.386z"/><path fill="#ce9d09" cx="1872.886" cy="1722.971" r="12.916" d="M18.104 16.541A0.124 0.124 0 0 1 17.98 16.665A0.124 0.124 0 0 1 17.856 16.541A0.124 0.124 0 0 1 18.104 16.541z"/><path fill="#fa0204" d="M18.1 17.202c0.068 0.171 0.109 0.319 0.045 0.513m0.073 0.033c-0.098 -0.079 -0.351 -0.056 -0.461 -0.003 -0.043 0 -0.158 -0.799 0.247 -0.779 0.372 0.018 0.24 0.786 0.214 0.783z"/><path fill="#fa0204" d="M17.426 17.917c0.185 0.117 0.358 0.107 0.521 0.004l-0.386 -0.403"/><path fill="#ce9d09" cx="1843.396" cy="1738.255" r="12.916" d="M17.821 16.687A0.124 0.124 0 0 1 17.697 16.811A0.124 0.124 0 0 1 17.573 16.687A0.124 0.124 0 0 1 17.821 16.687z"/><path fill="#ce9d09" d="m17.85 17.088 -0.314 -0.006s-0.041 -0.255 0.155 -0.267c0.162 -0.009 0.166 0.272 0.159 0.273z"/><path fill="#fa0204" d="M17.699 17.863c-0.06 -0.134 -0.066 -0.298 -0.05 -0.475m-0.091 0.484c-0.074 -0.127 -0.087 -0.288 -0.029 -0.492m0.417 0.544c-0.047 -0.059 -0.386 -0.085 -0.519 -0.004 -0.048 0 -0.178 -0.901 0.278 -0.879 0.419 0.02 0.27 0.887 0.241 0.882z"/></g></svg>