<?xml version="1.0" encoding="UTF-8"?>
<svg xmlns="http://www.w3.org/2000/svg" xmlns:xlink="http://www.w3.org/1999/xlink" width="24px" height="16px" viewBox="0 0 32 16" version="1.1">
<defs>
<clipPath id="clip1">
  <path d="M 0 0 L 16 0 L 16 8 L 0 8 Z M 0 0 "/>
</clipPath>
<clipPath id="clip2">
  <path d="M 0 0 L 0 4 L 18.667969 4 L 18.667969 8 L 16 8 Z M 16 0 L 8 0 L 8 9.332031 L 0 9.332031 L 0 8 Z M 16 0 "/>
</clipPath>
<clipPath id="clip3">
  <path d="M 0 0 L 19 0 L 19 10 L 0 10 Z M 0 0 "/>
</clipPath>
<clipPath id="clip4">
  <path d="M 0 0 L 0 4 L 18.667969 4 L 18.667969 8 L 16 8 Z M 16 0 L 8 0 L 8 9.332031 L 0 9.332031 L 0 8 Z M 16 0 "/>
</clipPath>
<linearGradient id="linear0" gradientUnits="userSpaceOnUse" x1="103.083" y1="111.276" x2="92.551" y2="107.764" gradientTransform="matrix(0.99614,0,0,2.25255,703.842,-75.047)">
<stop offset="0" style="stop-color:rgb(100%,0%,0%);stop-opacity:1;"/>
<stop offset="1" style="stop-color:rgb(100%,100%,0%);stop-opacity:1;"/>
</linearGradient>
<linearGradient id="linear1" gradientUnits="userSpaceOnUse" x1="103.083" y1="111.276" x2="92.551" y2="107.764" gradientTransform="matrix(0.99614,0,0,2.25255,703.842,-75.047)">
<stop offset="0" style="stop-color:rgb(100%,0%,0%);stop-opacity:1;"/>
<stop offset="1" style="stop-color:rgb(100%,100%,0%);stop-opacity:1;"/>
</linearGradient>
<linearGradient id="linear2" gradientUnits="userSpaceOnUse" x1="103.083" y1="111.276" x2="92.551" y2="107.764" gradientTransform="matrix(0.99614,0,0,2.25255,703.842,-75.047)">
<stop offset="0" style="stop-color:rgb(100%,0%,0%);stop-opacity:1;"/>
<stop offset="1" style="stop-color:rgb(100%,100%,0%);stop-opacity:1;"/>
</linearGradient>
<linearGradient id="linear3" gradientUnits="userSpaceOnUse" x1="103.083" y1="111.276" x2="92.551" y2="107.764" gradientTransform="matrix(0.99614,0,0,2.25255,703.842,-75.047)">
<stop offset="0" style="stop-color:rgb(100%,0%,0%);stop-opacity:1;"/>
<stop offset="1" style="stop-color:rgb(100%,100%,0%);stop-opacity:1;"/>
</linearGradient>
<linearGradient id="linear4" gradientUnits="userSpaceOnUse" x1="103.083" y1="111.276" x2="92.551" y2="107.764" gradientTransform="matrix(0.99614,0,0,2.25255,703.842,-75.047)">
<stop offset="0" style="stop-color:rgb(100%,0%,0%);stop-opacity:1;"/>
<stop offset="1" style="stop-color:rgb(100%,100%,0%);stop-opacity:1;"/>
</linearGradient>
<linearGradient id="linear5" gradientUnits="userSpaceOnUse" x1="103.083" y1="111.276" x2="92.551" y2="107.764" gradientTransform="matrix(0.99614,0,0,2.25255,703.842,-75.047)">
<stop offset="0" style="stop-color:rgb(100%,0%,0%);stop-opacity:1;"/>
<stop offset="1" style="stop-color:rgb(100%,100%,0%);stop-opacity:1;"/>
</linearGradient>
<linearGradient id="linear6" gradientUnits="userSpaceOnUse" x1="103.083" y1="111.276" x2="92.551" y2="107.764" gradientTransform="matrix(0.99614,0,0,2.25255,703.842,-75.047)">
<stop offset="0" style="stop-color:rgb(100%,0%,0%);stop-opacity:1;"/>
<stop offset="1" style="stop-color:rgb(100%,100%,0%);stop-opacity:1;"/>
</linearGradient>
<linearGradient id="linear7" gradientUnits="userSpaceOnUse" x1="103.083" y1="111.276" x2="92.551" y2="107.764" gradientTransform="matrix(0.99614,0,0,2.25255,703.842,-75.047)">
<stop offset="0" style="stop-color:rgb(100%,0%,0%);stop-opacity:1;"/>
<stop offset="1" style="stop-color:rgb(100%,100%,0%);stop-opacity:1;"/>
</linearGradient>
<linearGradient id="linear8" gradientUnits="userSpaceOnUse" x1="103.083" y1="111.276" x2="92.551" y2="107.764" gradientTransform="matrix(0.99614,0,0,2.25255,703.842,-75.047)">
<stop offset="0" style="stop-color:rgb(100%,0%,0%);stop-opacity:1;"/>
<stop offset="1" style="stop-color:rgb(100%,100%,0%);stop-opacity:1;"/>
</linearGradient>
<linearGradient id="linear9" gradientUnits="userSpaceOnUse" x1="103.083" y1="111.276" x2="92.551" y2="107.764" gradientTransform="matrix(0.99614,0,0,2.25255,703.842,-75.047)">
<stop offset="0" style="stop-color:rgb(100%,0%,0%);stop-opacity:1;"/>
<stop offset="1" style="stop-color:rgb(100%,100%,0%);stop-opacity:1;"/>
</linearGradient>
<linearGradient id="linear10" gradientUnits="userSpaceOnUse" x1="103.083" y1="111.276" x2="92.551" y2="107.764" gradientTransform="matrix(0.99614,0,0,2.25255,703.842,-75.047)">
<stop offset="0" style="stop-color:rgb(100%,0%,0%);stop-opacity:1;"/>
<stop offset="1" style="stop-color:rgb(100%,100%,0%);stop-opacity:1;"/>
</linearGradient>
<linearGradient id="linear11" gradientUnits="userSpaceOnUse" x1="103.083" y1="111.276" x2="92.551" y2="107.764" gradientTransform="matrix(0.99614,0,0,2.25255,703.842,-75.047)">
<stop offset="0" style="stop-color:rgb(100%,0%,0%);stop-opacity:1;"/>
<stop offset="1" style="stop-color:rgb(100%,100%,0%);stop-opacity:1;"/>
</linearGradient>
</defs>
<g id="surface1">
<rect x="0" y="0" width="32" height="16" style="fill:rgb(0.392157%,12.941176%,41.176471%);fill-opacity:1;stroke:none;"/>
<path style="fill-rule:nonzero;fill:rgb(0%,0%,0%);fill-opacity:1;stroke-width:60;stroke-linecap:butt;stroke-linejoin:miter;stroke:rgb(100%,100%,100%);stroke-opacity:1;stroke-miterlimit:4;" d="M 0 0 L 600 300 M 600 0 L 0 300 " transform="matrix(0.0266667,0,0,0.0266667,0,0)"/>
<g clip-path="url(#clip1)" clip-rule="nonzero">
<g clip-path="url(#clip2)" clip-rule="nonzero">
<path style=" stroke:none;fill-rule:nonzero;fill:rgb(0%,0%,0%);fill-opacity:1;" d="M 0 0 L 16 8 M 16 0 L 0 8 "/>
</g>
</g>
<g clip-path="url(#clip3)" clip-rule="nonzero">
<g clip-path="url(#clip4)" clip-rule="nonzero">
<path style="fill:none;stroke-width:40;stroke-linecap:butt;stroke-linejoin:miter;stroke:rgb(78.431373%,6.27451%,18.039216%);stroke-opacity:1;stroke-miterlimit:4;" d="M 0 0 L 600 300 M 600 0 L 0 300 " transform="matrix(0.0266667,0,0,0.0266667,0,0)"/>
</g>
</g>
<path style="fill-rule:nonzero;fill:rgb(0%,0%,0%);fill-opacity:1;stroke-width:100;stroke-linecap:butt;stroke-linejoin:miter;stroke:rgb(100%,100%,100%);stroke-opacity:1;stroke-miterlimit:4;" d="M 300 0 L 300 349.951172 M 0 150 L 700.048828 150 " transform="matrix(0.0266667,0,0,0.0266667,0,0)"/>
<path style="fill-rule:nonzero;fill:rgb(0%,0%,0%);fill-opacity:1;stroke-width:60;stroke-linecap:butt;stroke-linejoin:miter;stroke:rgb(78.431373%,6.27451%,18.039216%);stroke-opacity:1;stroke-miterlimit:4;" d="M 300 0 L 300 349.951172 M 0 150 L 700.048828 150 " transform="matrix(0.0266667,0,0,0.0266667,0,0)"/>
<path style=" stroke:none;fill-rule:nonzero;fill:rgb(0.392157%,12.941176%,41.176471%);fill-opacity:1;" d="M 0 8 L 16 8 L 16 0 L 32 0 L 32 16 L 0 16 Z M 0 8 "/>
<path style=" stroke:none;fill-rule:nonzero;fill:rgb(100%,100%,100%);fill-opacity:1;" d="M 20.699219 3.84375 L 27.378906 3.816406 L 27.363281 9.761719 C 27.363281 9.761719 27.601562 10.667969 24.566406 12.042969 C 25.65625 11.929688 26.84375 10.765625 26.84375 10.765625 C 26.84375 10.765625 27.328125 10.148438 27.5625 10.496094 C 27.796875 10.839844 28.023438 11.015625 28.195312 11.152344 C 28.367188 11.289062 28.503906 11.660156 28.246094 11.929688 C 27.984375 12.203125 27.574219 12.242188 27.464844 11.90625 C 27.289062 11.992188 26.226562 13.28125 24.046875 13.34375 C 21.828125 13.304688 20.613281 11.894531 20.613281 11.894531 C 20.613281 11.894531 20.316406 12.363281 19.894531 11.992188 C 19.484375 11.511719 19.796875 11.199219 19.796875 11.199219 C 19.796875 11.199219 20.144531 11.003906 20.242188 10.867188 C 20.402344 10.679688 20.453125 10.433594 20.726562 10.433594 C 21.046875 10.457031 21.171875 10.71875 21.171875 10.71875 C 21.171875 10.71875 22.285156 11.894531 23.488281 12.042969 C 20.773438 10.742188 20.675781 9.9375 20.6875 9.738281 L 20.699219 3.839844 Z M 20.699219 3.84375 "/>
<path style="fill-rule:nonzero;fill:rgb(0%,38.039216%,16.078431%);fill-opacity:1;stroke-width:1.887;stroke-linecap:butt;stroke-linejoin:miter;stroke:rgb(0%,0%,0%);stroke-opacity:1;stroke-miterlimit:4;" d="M 782.226562 150.146484 L 1021.142578 148.681641 L 1021.142578 363.28125 C 1021.582031 391.259766 974.560547 419.53125 901.171875 455.859375 C 825.439453 416.748047 781.787109 393.017578 781.347656 362.841797 L 782.373047 150.146484 Z M 782.226562 150.146484 " transform="matrix(0.0266667,0,0,0.0266667,0,0)"/>
<path style="fill:none;stroke-width:1.887;stroke-linecap:butt;stroke-linejoin:miter;stroke:rgb(100%,78.039216%,17.254902%);stroke-opacity:1;stroke-miterlimit:4;" d="M 814.746094 181.787109 L 828.955078 161.132812 L 843.017578 181.933594 " transform="matrix(0.0266667,0,0,0.0266667,0,0)"/>
<path style="fill-rule:nonzero;fill:rgb(100%,78.039216%,17.254902%);fill-opacity:1;stroke-width:0.944;stroke-linecap:butt;stroke-linejoin:miter;stroke:rgb(0%,0%,0%);stroke-opacity:1;stroke-miterlimit:4;" d="M 831.738281 174.023438 C 832.324219 172.998047 833.642578 172.412109 834.814453 172.851562 C 836.132812 173.144531 837.011719 174.169922 837.011719 175.488281 C 837.011719 176.806641 836.132812 177.832031 834.814453 178.125 C 833.642578 178.564453 832.324219 177.978516 831.738281 176.953125 Z M 831.738281 174.023438 " transform="matrix(0.0266667,0,0,0.0266667,0,0)"/>
<path style="fill-rule:nonzero;fill:rgb(100%,78.039216%,17.254902%);fill-opacity:1;stroke-width:0.944;stroke-linecap:butt;stroke-linejoin:miter;stroke:rgb(0%,0%,0%);stroke-opacity:1;stroke-miterlimit:4;" d="M 817.382812 197.167969 L 839.355469 197.167969 C 839.355469 197.167969 839.648438 194.384766 837.011719 192.626953 C 848.4375 191.015625 845.507812 180.908203 855.029297 180.322266 C 856.933594 180.615234 850.048828 184.716797 850.048828 184.716797 C 850.048828 184.716797 844.335938 188.818359 846.972656 190.869141 C 849.023438 192.480469 849.902344 189.84375 850.195312 187.792969 C 850.488281 185.888672 859.570312 184.570312 858.251953 178.857422 C 856.054688 174.023438 843.457031 181.933594 843.457031 181.933594 L 834.521484 181.933594 C 833.935547 180.908203 831.445312 176.806641 828.955078 176.806641 C 825.878906 176.953125 823.681641 181.933594 823.681641 181.933594 L 803.466797 181.933594 C 803.466797 181.933594 802.734375 187.207031 812.988281 188.232422 C 815.332031 191.162109 817.089844 192.041016 819.140625 192.773438 C 817.822266 193.945312 817.382812 195.263672 817.382812 197.167969 Z M 818.994141 192.626953 L 837.158203 192.626953 M 810.644531 181.933594 C 810.644531 181.933594 812.109375 190.429688 818.847656 192.480469 " transform="matrix(0.0266667,0,0,0.0266667,0,0)"/>
<path style="fill-rule:nonzero;fill:url(#linear0);stroke-width:0.944;stroke-linecap:butt;stroke-linejoin:miter;stroke:rgb(0%,0%,0%);stroke-opacity:1;stroke-miterlimit:4;" d="M 809.619141 181.787109 C 810.205078 178.564453 811.523438 177.978516 812.841797 173.876953 C 812.988281 169.921875 809.619141 170.361328 810.498047 167.724609 C 812.402344 164.941406 811.523438 162.304688 808.154297 160.107422 C 808.740234 163.769531 803.759766 167.285156 803.759766 170.361328 C 803.759766 173.291016 806.25 172.705078 805.957031 177.246094 C 806.25 179.882812 805.371094 179.296875 805.078125 181.787109 Z M 809.619141 181.787109 " transform="matrix(0.0266667,0,0,0.0266667,0,0)"/>
<path style="fill-rule:nonzero;fill:rgb(100%,78.039216%,17.254902%);fill-opacity:1;stroke-width:0.944;stroke-linecap:butt;stroke-linejoin:miter;stroke:rgb(0%,0%,0%);stroke-opacity:1;stroke-miterlimit:4;" d="M 831.445312 161.71875 C 832.03125 160.693359 833.203125 160.107422 834.375 160.400391 C 835.546875 160.693359 836.279297 161.71875 836.279297 162.890625 C 836.279297 164.0625 835.546875 165.087891 834.375 165.380859 C 833.203125 165.673828 832.03125 165.234375 831.445312 164.208984 Z M 831.445312 161.71875 " transform="matrix(0.0266667,0,0,0.0266667,0,0)"/>
<path style="fill:none;stroke-width:1.887;stroke-linecap:butt;stroke-linejoin:miter;stroke:rgb(100%,78.039216%,17.254902%);stroke-opacity:1;stroke-miterlimit:4;" d="M 814.785672 181.791703 L 828.848172 161.137406 L 843.057156 181.938187 " transform="matrix(0.0266667,0,0,0.0266667,-0.0205867,1.10144)"/>
<path style="fill-rule:nonzero;fill:rgb(100%,78.039216%,17.254902%);fill-opacity:1;stroke-width:0.944;stroke-linecap:butt;stroke-linejoin:miter;stroke:rgb(0%,0%,0%);stroke-opacity:1;stroke-miterlimit:4;" d="M 831.777859 174.028031 C 832.363797 173.002641 833.682156 172.416703 834.854031 172.856156 C 836.025906 173.149125 836.904813 174.174516 836.904813 175.492875 C 836.904813 176.811234 836.025906 177.836625 834.854031 178.129594 C 833.682156 178.569047 832.363797 177.983109 831.777859 176.957719 Z M 831.777859 174.028031 " transform="matrix(0.0266667,0,0,0.0266667,-0.0205867,1.10144)"/>
<path style="fill-rule:nonzero;fill:rgb(100%,78.039216%,17.254902%);fill-opacity:1;stroke-width:0.944;stroke-linecap:butt;stroke-linejoin:miter;stroke:rgb(0%,0%,0%);stroke-opacity:1;stroke-miterlimit:4;" d="M 817.422391 197.172562 L 839.248563 197.172562 C 839.248563 197.172562 839.688016 194.389359 837.051297 192.631547 C 848.477078 191.020219 845.547391 180.912797 855.068875 180.326859 C 856.973172 180.619828 850.088406 184.721391 850.088406 184.721391 C 850.088406 184.721391 844.229031 188.822953 846.86575 190.873734 C 849.063016 192.485062 849.941922 189.848344 850.234891 187.797562 C 850.527859 185.746781 859.463406 184.574906 858.145047 178.862016 C 856.094266 174.028031 843.496609 181.938187 843.496609 181.938187 L 834.561063 181.938187 C 833.975125 180.912797 831.484891 176.811234 828.848172 176.811234 C 825.918484 176.957719 823.721219 181.938187 823.721219 181.938187 L 803.359891 181.938187 C 803.359891 181.938187 802.773953 187.211625 813.027859 188.237016 C 815.371609 191.166703 817.129422 192.045609 819.180203 192.778031 C 817.861844 193.949906 817.422391 195.268266 817.422391 197.172562 Z M 819.033719 192.631547 L 837.197781 192.631547 M 810.684109 181.938187 C 810.684109 181.938187 812.148953 190.434281 818.887234 192.485062 " transform="matrix(0.0266667,0,0,0.0266667,-0.0205867,1.10144)"/>
<path style="fill-rule:nonzero;fill:url(#linear1);stroke-width:0.944;stroke-linecap:butt;stroke-linejoin:miter;stroke:rgb(0%,0%,0%);stroke-opacity:1;stroke-miterlimit:4;" d="M 809.512234 181.791703 C 810.244656 178.569047 811.416531 177.983109 812.881375 173.881547 C 813.027859 169.926469 809.512234 170.365922 810.537625 167.729203 C 812.295438 164.946 811.416531 162.309281 808.047391 160.112016 C 808.779813 163.774125 803.799344 167.28975 803.799344 170.365922 C 803.799344 173.295609 806.289578 172.709672 805.996609 177.250687 C 806.143094 179.887406 805.264188 179.301469 805.117703 181.791703 Z M 809.512234 181.791703 " transform="matrix(0.0266667,0,0,0.0266667,-0.0205867,1.10144)"/>
<path style="fill-rule:nonzero;fill:rgb(100%,78.039216%,17.254902%);fill-opacity:1;stroke-width:0.944;stroke-linecap:butt;stroke-linejoin:miter;stroke:rgb(0%,0%,0%);stroke-opacity:1;stroke-miterlimit:4;" d="M 831.484891 161.723344 C 832.070828 160.697953 833.242703 160.112016 834.414578 160.404984 C 835.586453 160.697953 836.318875 161.723344 836.318875 162.895219 C 836.318875 164.067094 835.586453 165.092484 834.414578 165.385453 C 833.242703 165.678422 832.070828 165.238969 831.484891 164.213578 Z M 831.484891 161.723344 " transform="matrix(0.0266667,0,0,0.0266667,-0.0205867,1.10144)"/>
<path style="fill:none;stroke-width:1.887;stroke-linecap:butt;stroke-linejoin:miter;stroke:rgb(100%,78.039216%,17.254902%);stroke-opacity:1;stroke-miterlimit:4;" d="M 814.809703 181.805359 L 828.872203 161.151062 L 843.081188 181.805359 " transform="matrix(0.0266667,0,0,0.0266667,-0.02904,2.187013)"/>
<path style="fill-rule:nonzero;fill:rgb(100%,78.039216%,17.254902%);fill-opacity:1;stroke-width:0.944;stroke-linecap:butt;stroke-linejoin:miter;stroke:rgb(0%,0%,0%);stroke-opacity:1;stroke-miterlimit:4;" d="M 831.655406 174.041687 C 832.387828 173.016297 833.706188 172.430359 834.878063 172.723328 C 836.049938 173.162781 836.928844 174.188172 836.928844 175.506531 C 836.928844 176.824891 836.049938 177.850281 834.878063 178.14325 C 833.706188 178.582703 832.387828 177.996766 831.655406 176.824891 Z M 831.655406 174.041687 " transform="matrix(0.0266667,0,0,0.0266667,-0.02904,2.187013)"/>
<path style="fill-rule:nonzero;fill:rgb(100%,78.039216%,17.254902%);fill-opacity:1;stroke-width:0.944;stroke-linecap:butt;stroke-linejoin:miter;stroke:rgb(0%,0%,0%);stroke-opacity:1;stroke-miterlimit:4;" d="M 817.446422 197.186219 L 839.272594 197.186219 C 839.272594 197.186219 839.565563 194.403016 837.075328 192.645203 C 848.501109 191.033875 845.424938 180.926453 855.092906 180.340516 C 856.997203 180.633484 850.112438 184.735047 850.112438 184.735047 C 850.112438 184.735047 844.253063 188.690125 846.889781 190.887391 C 848.940563 192.498719 849.965953 189.862 850.258922 187.811219 C 850.551891 185.760437 859.487438 184.588562 858.169078 178.875672 C 856.118297 174.041687 843.520641 181.951844 843.520641 181.951844 L 834.438609 181.951844 C 833.999156 180.926453 831.508922 176.824891 828.872203 176.824891 C 825.942516 176.971375 823.74525 181.951844 823.74525 181.951844 L 803.383922 181.951844 C 803.383922 181.951844 802.797984 187.225281 813.051891 188.104187 C 815.395641 191.180359 817.153453 192.059266 819.204234 192.791687 C 817.885875 193.963562 817.446422 195.281922 817.446422 197.186219 Z M 819.05775 192.645203 L 837.221813 192.645203 M 810.708141 181.951844 C 810.708141 181.951844 812.172984 190.447937 818.911266 192.498719 " transform="matrix(0.0266667,0,0,0.0266667,-0.02904,2.187013)"/>
<path style="fill-rule:nonzero;fill:url(#linear2);stroke-width:0.944;stroke-linecap:butt;stroke-linejoin:miter;stroke:rgb(0%,0%,0%);stroke-opacity:1;stroke-miterlimit:4;" d="M 809.536266 181.805359 C 810.268688 178.582703 811.440563 177.996766 812.758922 173.895203 C 813.051891 169.793641 809.536266 170.233094 810.561656 167.742859 C 812.319469 164.959656 811.440563 162.176453 808.071422 160.125672 C 808.803844 163.787781 803.676891 167.303406 803.676891 170.233094 C 803.676891 173.309266 806.313609 172.723328 806.020641 177.264344 C 806.167125 179.901062 805.288219 179.315125 805.141734 181.805359 Z M 809.536266 181.805359 " transform="matrix(0.0266667,0,0,0.0266667,-0.02904,2.187013)"/>
<path style="fill-rule:nonzero;fill:rgb(100%,78.039216%,17.254902%);fill-opacity:1;stroke-width:0.944;stroke-linecap:butt;stroke-linejoin:miter;stroke:rgb(0%,0%,0%);stroke-opacity:1;stroke-miterlimit:4;" d="M 831.508922 161.590516 C 832.094859 160.711609 833.266734 160.125672 834.438609 160.418641 C 835.464 160.711609 836.342906 161.737 836.342906 162.908875 C 836.342906 164.08075 835.464 165.106141 834.438609 165.399109 C 833.266734 165.692078 832.094859 165.252625 831.508922 164.227234 Z M 831.508922 161.590516 " transform="matrix(0.0266667,0,0,0.0266667,-0.02904,2.187013)"/>
<path style="fill:none;stroke-width:1.887;stroke-linecap:butt;stroke-linejoin:miter;stroke:rgb(100%,78.039216%,17.254902%);stroke-opacity:1;stroke-miterlimit:4;" d="M 814.753859 181.811156 L 828.816359 161.156859 L 843.025344 181.811156 " transform="matrix(0.0266667,0,0,0.0266667,0.683387,3.36264)"/>
<path style="fill-rule:nonzero;fill:rgb(100%,78.039216%,17.254902%);fill-opacity:1;stroke-width:0.944;stroke-linecap:butt;stroke-linejoin:miter;stroke:rgb(0%,0%,0%);stroke-opacity:1;stroke-miterlimit:4;" d="M 831.746047 174.047484 C 832.331984 173.022094 833.650344 172.436156 834.822219 172.729125 C 836.140578 173.168578 836.873 174.193969 836.873 175.512328 C 836.873 176.684203 836.140578 177.856078 834.822219 178.149047 C 833.650344 178.5885 832.331984 178.002562 831.746047 176.830687 Z M 831.746047 174.047484 " transform="matrix(0.0266667,0,0,0.0266667,0.683387,3.36264)"/>
<path style="fill-rule:nonzero;fill:rgb(100%,78.039216%,17.254902%);fill-opacity:1;stroke-width:0.944;stroke-linecap:butt;stroke-linejoin:miter;stroke:rgb(0%,0%,0%);stroke-opacity:1;stroke-miterlimit:4;" d="M 817.390578 197.192016 L 839.363234 197.192016 C 839.363234 197.192016 839.656203 194.408812 837.019484 192.651 C 848.445266 191.039672 845.515578 180.93225 855.037063 180.346312 C 856.941359 180.639281 850.056594 184.740844 850.056594 184.740844 C 850.056594 184.740844 844.343703 188.695922 846.980422 190.893187 C 849.031203 192.504516 849.910109 189.867797 850.203078 187.817016 C 850.496047 185.766234 859.578078 184.594359 858.259719 178.734984 C 856.062453 174.047484 843.464797 181.957641 843.464797 181.957641 L 834.52925 181.957641 C 833.943313 180.93225 831.453078 176.830687 828.962844 176.830687 C 825.886672 176.977172 823.689406 181.957641 823.689406 181.957641 L 803.474563 181.957641 C 803.474563 181.957641 802.742141 187.231078 812.996047 188.109984 C 815.339797 191.186156 817.097609 192.065062 819.148391 192.797484 C 817.830031 193.969359 817.390578 195.287719 817.390578 197.192016 Z M 819.001906 192.651 L 837.165969 192.651 M 810.652297 181.957641 C 810.652297 181.957641 812.117141 190.453734 818.855422 192.504516 " transform="matrix(0.0266667,0,0,0.0266667,0.683387,3.36264)"/>
<path style="fill-rule:nonzero;fill:url(#linear3);stroke-width:0.944;stroke-linecap:butt;stroke-linejoin:miter;stroke:rgb(0%,0%,0%);stroke-opacity:1;stroke-miterlimit:4;" d="M 809.626906 181.811156 C 810.212844 178.5885 811.531203 178.002562 812.849563 173.901 C 812.996047 169.799437 809.626906 170.238891 810.505813 167.748656 C 812.410109 164.965453 811.531203 162.18225 808.162063 160.131469 C 808.748 163.793578 803.767531 167.309203 803.767531 170.238891 C 803.767531 173.315062 806.257766 172.729125 805.964797 177.270141 C 806.257766 179.906859 805.232375 179.320922 805.085891 181.811156 Z M 809.626906 181.811156 " transform="matrix(0.0266667,0,0,0.0266667,0.683387,3.36264)"/>
<path style="fill-rule:nonzero;fill:rgb(100%,78.039216%,17.254902%);fill-opacity:1;stroke-width:0.944;stroke-linecap:butt;stroke-linejoin:miter;stroke:rgb(0%,0%,0%);stroke-opacity:1;stroke-miterlimit:4;" d="M 831.453078 161.596312 C 832.039016 160.717406 833.210891 160.131469 834.382766 160.424437 C 835.554641 160.717406 836.287063 161.742797 836.287063 162.914672 C 836.287063 164.086547 835.554641 165.111937 834.382766 165.404906 C 833.210891 165.697875 832.039016 165.258422 831.453078 164.233031 Z M 831.453078 161.596312 " transform="matrix(0.0266667,0,0,0.0266667,0.683387,3.36264)"/>
<path style="fill:none;stroke-width:1.887;stroke-linecap:butt;stroke-linejoin:miter;stroke:rgb(100%,78.039216%,17.254902%);stroke-opacity:1;stroke-miterlimit:4;" d="M 814.779078 181.782312 L 828.841578 161.128016 L 843.050562 181.928797 " transform="matrix(0.0266667,0,0,0.0266667,-0.121973,4.324347)"/>
<path style="fill-rule:nonzero;fill:rgb(100%,78.039216%,17.254902%);fill-opacity:1;stroke-width:0.944;stroke-linecap:butt;stroke-linejoin:miter;stroke:rgb(0%,0%,0%);stroke-opacity:1;stroke-miterlimit:4;" d="M 831.771266 174.018641 C 832.357203 172.99325 833.675562 172.407312 834.847437 172.846766 C 836.019312 173.139734 836.898219 174.165125 836.898219 175.483484 C 836.898219 176.801844 836.165797 177.827234 834.847437 178.120203 C 833.675562 178.559656 832.357203 177.973719 831.771266 176.948328 Z M 831.771266 174.018641 " transform="matrix(0.0266667,0,0,0.0266667,-0.121973,4.324347)"/>
<path style="fill-rule:nonzero;fill:rgb(100%,78.039216%,17.254902%);fill-opacity:1;stroke-width:0.944;stroke-linecap:butt;stroke-linejoin:miter;stroke:rgb(0%,0%,0%);stroke-opacity:1;stroke-miterlimit:4;" d="M 817.415797 197.163172 L 839.241969 197.163172 C 839.241969 197.163172 839.681422 194.379969 837.044703 192.622156 C 848.470484 191.010828 845.540797 180.903406 855.062281 180.317469 C 856.966578 180.610437 850.081812 184.712 850.081812 184.712 C 850.081812 184.712 844.222437 188.813562 846.859156 190.864344 C 849.056422 192.475672 849.935328 189.838953 850.228297 187.788172 C 850.521266 185.883875 859.456812 184.565516 858.284937 178.852625 C 856.087672 174.018641 843.490016 181.928797 843.490016 181.928797 L 834.554469 181.928797 C 833.968531 180.903406 831.478297 176.801844 828.841578 176.801844 C 825.911891 176.948328 823.714625 181.928797 823.714625 181.928797 L 803.353297 181.928797 C 803.353297 181.928797 802.767359 187.202234 813.021266 188.227625 C 815.365016 191.157312 817.122828 192.036219 819.173609 192.768641 C 817.85525 193.940516 817.415797 195.258875 817.415797 197.163172 Z M 819.027125 192.622156 L 837.191187 192.622156 M 810.677516 181.928797 C 810.677516 181.928797 812.142359 190.424891 818.880641 192.475672 " transform="matrix(0.0266667,0,0,0.0266667,-0.121973,4.324347)"/>
<path style="fill-rule:nonzero;fill:url(#linear4);stroke-width:0.944;stroke-linecap:butt;stroke-linejoin:miter;stroke:rgb(0%,0%,0%);stroke-opacity:1;stroke-miterlimit:4;" d="M 809.505641 181.782312 C 810.238062 178.559656 811.409937 177.973719 812.874781 173.872156 C 813.021266 169.917078 809.505641 170.356531 810.531031 167.719812 C 812.288844 164.936609 811.409937 162.299891 808.040797 160.102625 C 808.773219 163.764734 803.79275 167.280359 803.79275 170.356531 C 803.79275 173.286219 806.282984 172.700281 805.990016 177.241297 C 806.1365 179.878016 805.257594 179.292078 805.111109 181.782312 Z M 809.505641 181.782312 " transform="matrix(0.0266667,0,0,0.0266667,-0.121973,4.324347)"/>
<path style="fill-rule:nonzero;fill:rgb(100%,78.039216%,17.254902%);fill-opacity:1;stroke-width:0.944;stroke-linecap:butt;stroke-linejoin:miter;stroke:rgb(0%,0%,0%);stroke-opacity:1;stroke-miterlimit:4;" d="M 831.478297 161.713953 C 832.064234 160.688562 833.236109 160.102625 834.407984 160.395594 C 835.579859 160.688562 836.312281 161.713953 836.312281 162.885828 C 836.312281 164.057703 835.579859 165.083094 834.407984 165.376062 C 833.236109 165.669031 832.064234 165.229578 831.478297 164.204187 Z M 831.478297 161.713953 " transform="matrix(0.0266667,0,0,0.0266667,-0.121973,4.324347)"/>
<path style="fill:none;stroke-width:1.887;stroke-linecap:butt;stroke-linejoin:miter;stroke:rgb(100%,78.039216%,17.254902%);stroke-opacity:1;stroke-miterlimit:4;" d="M 814.865984 181.799266 L 828.928484 161.144969 L 842.990984 181.799266 " transform="matrix(0.0266667,0,0,0.0266667,-0.100853,5.460613)"/>
<path style="fill-rule:nonzero;fill:rgb(100%,78.039216%,17.254902%);fill-opacity:1;stroke-width:0.944;stroke-linecap:butt;stroke-linejoin:miter;stroke:rgb(0%,0%,0%);stroke-opacity:1;stroke-miterlimit:4;" d="M 831.711688 174.035594 C 832.297625 173.010203 833.615984 172.424266 834.934344 172.717234 C 836.106219 173.156687 836.985125 174.182078 836.985125 175.500437 C 836.985125 176.818797 836.106219 177.844187 834.934344 178.137156 C 833.615984 178.576609 832.297625 177.990672 831.711688 176.818797 Z M 831.711688 174.035594 " transform="matrix(0.0266667,0,0,0.0266667,-0.100853,5.460613)"/>
<path style="fill-rule:nonzero;fill:rgb(100%,78.039216%,17.254902%);fill-opacity:1;stroke-width:0.944;stroke-linecap:butt;stroke-linejoin:miter;stroke:rgb(0%,0%,0%);stroke-opacity:1;stroke-miterlimit:4;" d="M 817.502703 197.180125 L 839.328875 197.180125 C 839.328875 197.180125 839.621844 194.396922 836.985125 192.639109 C 848.410906 191.027781 845.481219 180.920359 855.002703 180.334422 C 856.907 180.627391 850.022234 184.728953 850.022234 184.728953 C 850.022234 184.728953 844.309344 188.684031 846.946063 190.881297 C 848.996844 192.492625 849.87575 189.855906 850.168719 187.805125 C 850.461688 185.754344 859.543719 184.582469 858.225359 178.869578 C 856.028094 174.035594 843.430438 181.94575 843.430438 181.94575 L 834.494891 181.94575 C 833.908953 180.920359 831.418719 176.818797 828.928484 176.818797 C 825.852313 176.965281 823.801531 181.94575 823.801531 181.94575 L 803.440203 181.94575 C 803.440203 181.94575 802.707781 187.219187 812.961688 188.098094 C 815.305438 191.174266 817.209734 192.053172 819.114031 192.785594 C 817.795672 193.957469 817.502703 195.275828 817.502703 197.180125 Z M 818.967547 192.639109 L 837.278094 192.639109 M 810.617938 181.94575 C 810.617938 181.94575 812.082781 190.441844 818.821063 192.492625 " transform="matrix(0.0266667,0,0,0.0266667,-0.100853,5.460613)"/>
<path style="fill-rule:nonzero;fill:url(#linear5);stroke-width:0.944;stroke-linecap:butt;stroke-linejoin:miter;stroke:rgb(0%,0%,0%);stroke-opacity:1;stroke-miterlimit:4;" d="M 809.592547 181.799266 C 810.178484 178.576609 811.496844 177.990672 812.815203 173.889109 C 812.961688 169.787547 809.592547 170.373484 810.617938 167.736766 C 812.37575 164.953562 811.496844 162.170359 808.127703 160.119578 C 808.713641 163.781687 803.733172 167.297312 803.733172 170.373484 C 803.733172 173.303172 806.369891 172.717234 805.930438 177.25825 C 806.223406 179.894969 805.3445 179.309031 805.051531 181.799266 Z M 809.592547 181.799266 " transform="matrix(0.0266667,0,0,0.0266667,-0.100853,5.460613)"/>
<path style="fill-rule:nonzero;fill:rgb(100%,78.039216%,17.254902%);fill-opacity:1;stroke-width:0.944;stroke-linecap:butt;stroke-linejoin:miter;stroke:rgb(0%,0%,0%);stroke-opacity:1;stroke-miterlimit:4;" d="M 831.565203 161.584422 C 832.004656 160.705516 833.323016 160.119578 834.348406 160.412547 C 835.520281 160.705516 836.252703 161.730906 836.252703 162.902781 C 836.252703 164.074656 835.520281 165.100047 834.348406 165.393016 C 833.323016 165.685984 832.151141 165.246531 831.565203 164.221141 Z M 831.565203 161.584422 " transform="matrix(0.0266667,0,0,0.0266667,-0.100853,5.460613)"/>
<path style="fill:none;stroke-width:1.887;stroke-linecap:butt;stroke-linejoin:miter;stroke:rgb(100%,78.039216%,17.254902%);stroke-opacity:1;stroke-miterlimit:4;" d="M 814.803984 181.847531 L 828.866484 161.193234 L 843.075469 181.847531 " transform="matrix(0.0266667,0,0,0.0266667,3.9008,0.01792)"/>
<path style="fill-rule:nonzero;fill:rgb(100%,78.039216%,17.254902%);fill-opacity:1;stroke-width:0.944;stroke-linecap:butt;stroke-linejoin:miter;stroke:rgb(0%,0%,0%);stroke-opacity:1;stroke-miterlimit:4;" d="M 831.649688 174.083859 C 832.382109 173.058469 833.700469 172.472531 834.872344 172.7655 C 836.044219 173.058469 836.923125 174.230344 836.923125 175.548703 C 836.923125 176.720578 836.044219 177.892453 834.872344 178.185422 C 833.700469 178.478391 832.382109 178.038938 831.649688 176.867063 Z M 831.649688 174.083859 " transform="matrix(0.0266667,0,0,0.0266667,3.9008,0.01792)"/>
<path style="fill-rule:nonzero;fill:rgb(100%,78.039216%,17.254902%);fill-opacity:1;stroke-width:0.944;stroke-linecap:butt;stroke-linejoin:miter;stroke:rgb(0%,0%,0%);stroke-opacity:1;stroke-miterlimit:4;" d="M 817.440703 197.081906 L 839.266875 197.228391 C 839.266875 197.228391 839.706328 194.298703 837.069609 192.687375 C 848.495391 191.076047 845.419219 180.968625 855.087188 180.382688 C 856.991484 180.675656 850.106719 184.630734 850.106719 184.630734 C 850.106719 184.630734 844.247344 188.732297 846.884063 190.783078 C 848.934844 192.540891 849.960234 189.757688 850.253203 187.853391 C 850.546172 185.802609 859.481719 184.48425 858.163359 178.771359 C 856.112578 174.083859 843.514922 181.994016 843.514922 181.994016 L 834.432891 181.847531 C 833.993438 180.968625 831.503203 176.867063 828.866484 176.867063 C 825.936797 177.013547 823.739531 181.994016 823.739531 181.994016 L 803.378203 181.994016 C 803.378203 181.994016 802.792266 187.120969 813.046172 188.146359 C 815.389922 191.222531 817.147734 192.101438 819.198516 192.833859 C 817.880156 194.005734 817.440703 195.324094 817.440703 197.081906 Z M 819.052031 192.687375 L 837.216094 192.687375 M 810.702422 181.994016 C 810.702422 181.994016 812.167266 190.490109 818.905547 192.540891 " transform="matrix(0.0266667,0,0,0.0266667,3.9008,0.01792)"/>
<path style="fill-rule:nonzero;fill:url(#linear6);stroke-width:0.944;stroke-linecap:butt;stroke-linejoin:miter;stroke:rgb(0%,0%,0%);stroke-opacity:1;stroke-miterlimit:4;" d="M 809.530547 181.847531 C 810.262969 178.624875 811.434844 178.038938 812.753203 173.937375 C 813.046172 169.835813 809.530547 170.275266 810.555938 167.785031 C 812.31375 165.001828 811.434844 162.218625 808.065703 160.167844 C 808.798125 163.829953 803.671172 167.345578 803.671172 170.275266 C 803.671172 173.351438 806.307891 172.619016 806.014922 177.306516 C 806.161406 179.943234 805.2825 179.210813 805.136016 181.847531 Z M 809.530547 181.847531 " transform="matrix(0.0266667,0,0,0.0266667,3.9008,0.01792)"/>
<path style="fill-rule:nonzero;fill:rgb(100%,78.039216%,17.254902%);fill-opacity:1;stroke-width:0.944;stroke-linecap:butt;stroke-linejoin:miter;stroke:rgb(0%,0%,0%);stroke-opacity:1;stroke-miterlimit:4;" d="M 831.503203 161.632688 C 832.089141 160.607297 833.261016 160.167844 834.432891 160.460813 C 835.458281 160.753781 836.337188 161.779172 836.337188 162.951047 C 836.337188 164.122922 835.458281 165.148313 834.432891 165.441281 C 833.261016 165.73425 832.089141 165.294797 831.503203 164.269406 Z M 831.503203 161.632688 " transform="matrix(0.0266667,0,0,0.0266667,3.9008,0.01792)"/>
<path style="fill:none;stroke-width:1.887;stroke-linecap:butt;stroke-linejoin:miter;stroke:rgb(100%,78.039216%,17.254902%);stroke-opacity:1;stroke-miterlimit:4;" d="M 814.829625 181.877703 L 828.892125 161.076922 L 843.101109 181.877703 " transform="matrix(0.0266667,0,0,0.0266667,3.86496,1.099147)"/>
<path style="fill-rule:nonzero;fill:rgb(100%,78.039216%,17.254902%);fill-opacity:1;stroke-width:0.944;stroke-linecap:butt;stroke-linejoin:miter;stroke:rgb(0%,0%,0%);stroke-opacity:1;stroke-miterlimit:4;" d="M 831.675328 174.114031 C 832.40775 172.942156 833.579625 172.502703 834.897984 172.795672 C 836.069859 173.088641 836.948766 174.260516 836.948766 175.432391 C 836.948766 176.75075 836.069859 177.922625 834.897984 178.215594 C 833.579625 178.508562 832.40775 177.922625 831.675328 176.897234 Z M 831.675328 174.114031 " transform="matrix(0.0266667,0,0,0.0266667,3.86496,1.099147)"/>
<path style="fill-rule:nonzero;fill:rgb(100%,78.039216%,17.254902%);fill-opacity:1;stroke-width:0.944;stroke-linecap:butt;stroke-linejoin:miter;stroke:rgb(0%,0%,0%);stroke-opacity:1;stroke-miterlimit:4;" d="M 817.466344 197.112078 L 839.292516 197.112078 C 839.292516 197.112078 839.585484 194.328875 836.948766 192.571062 C 848.521031 191.106219 845.444859 180.998797 855.112828 180.412859 C 856.870641 180.705828 850.132359 184.660906 850.132359 184.660906 C 850.132359 184.660906 844.272984 188.762469 846.909703 190.81325 C 848.960484 192.424578 849.985875 189.787859 850.278844 187.883562 C 850.425328 185.832781 859.507359 184.514422 858.189 178.801531 C 856.138219 174.114031 843.540562 182.024187 843.540562 182.024187 L 834.458531 181.877703 C 833.872594 180.852312 831.528844 176.897234 828.892125 176.897234 C 825.815953 176.897234 823.765172 182.024187 823.765172 182.024187 L 803.403844 182.024187 C 803.403844 182.024187 802.671422 187.151141 813.071812 188.176531 C 815.415562 191.252703 817.173375 191.985125 819.224156 192.864031 C 817.759312 193.889422 817.466344 195.354266 817.466344 197.112078 Z M 819.077672 192.717547 L 837.241734 192.571062 M 810.728062 182.024187 C 810.728062 182.024187 812.192906 190.520281 818.784703 192.424578 " transform="matrix(0.0266667,0,0,0.0266667,3.86496,1.099147)"/>
<path style="fill-rule:nonzero;fill:url(#linear7);stroke-width:0.944;stroke-linecap:butt;stroke-linejoin:miter;stroke:rgb(0%,0%,0%);stroke-opacity:1;stroke-miterlimit:4;" d="M 809.556187 181.877703 C 810.288609 178.655047 811.460484 178.069109 812.778844 173.821062 C 813.071812 169.865984 809.556187 170.305437 810.581578 167.668719 C 812.339391 164.885516 811.460484 162.248797 808.091344 160.051531 C 808.823766 163.860125 803.696812 167.229266 803.696812 170.305437 C 803.696812 173.381609 806.333531 172.649187 806.040562 177.190203 C 806.187047 179.973406 805.308141 179.240984 805.015172 181.877703 Z M 809.556187 181.877703 " transform="matrix(0.0266667,0,0,0.0266667,3.86496,1.099147)"/>
<path style="fill-rule:nonzero;fill:rgb(100%,78.039216%,17.254902%);fill-opacity:1;stroke-width:0.944;stroke-linecap:butt;stroke-linejoin:miter;stroke:rgb(0%,0%,0%);stroke-opacity:1;stroke-miterlimit:4;" d="M 831.528844 161.662859 C 832.114781 160.637469 833.286656 160.198016 834.458531 160.490984 C 835.483922 160.783953 836.362828 161.809344 836.362828 162.981219 C 836.362828 164.153094 835.483922 165.178484 834.458531 165.471453 C 833.286656 165.764422 832.114781 165.178484 831.528844 164.299578 Z M 831.528844 161.662859 " transform="matrix(0.0266667,0,0,0.0266667,3.86496,1.099147)"/>
<path style="fill:none;stroke-width:1.887;stroke-linecap:butt;stroke-linejoin:miter;stroke:rgb(100%,78.039216%,17.254902%);stroke-opacity:1;stroke-miterlimit:4;" d="M 814.863812 181.889781 L 828.926312 161.089 L 842.988812 181.889781 " transform="matrix(0.0266667,0,0,0.0266667,3.817173,2.204293)"/>
<path style="fill-rule:nonzero;fill:rgb(100%,78.039216%,17.254902%);fill-opacity:1;stroke-width:0.944;stroke-linecap:butt;stroke-linejoin:miter;stroke:rgb(0%,0%,0%);stroke-opacity:1;stroke-miterlimit:4;" d="M 831.709516 174.126109 C 832.295453 172.954234 833.613812 172.514781 834.932172 172.80775 C 836.104047 173.100719 836.982953 174.272594 836.982953 175.444469 C 836.982953 176.762828 836.104047 177.934703 834.932172 178.227672 C 833.613812 178.520641 832.295453 177.934703 831.709516 176.909312 Z M 831.709516 174.126109 " transform="matrix(0.0266667,0,0,0.0266667,3.817173,2.204293)"/>
<path style="fill-rule:nonzero;fill:rgb(100%,78.039216%,17.254902%);fill-opacity:1;stroke-width:0.944;stroke-linecap:butt;stroke-linejoin:miter;stroke:rgb(0%,0%,0%);stroke-opacity:1;stroke-miterlimit:4;" d="M 817.500531 197.124156 L 839.326703 197.124156 C 839.326703 197.124156 839.619672 194.340953 836.982953 192.583141 C 848.408734 191.118297 845.479047 181.010875 855.000531 180.424937 C 856.904828 180.717906 850.020062 184.672984 850.020062 184.672984 C 850.020062 184.672984 844.307172 188.774547 846.943891 190.825328 C 848.994672 192.436656 849.873578 189.799937 850.166547 187.749156 C 850.459516 185.844859 859.541547 184.5265 858.223187 178.813609 C 856.025922 174.126109 843.428266 181.889781 843.428266 181.889781 L 834.492719 181.889781 C 833.906781 180.864391 831.416547 176.909312 828.926312 176.762828 C 825.850141 176.909312 823.799359 181.889781 823.799359 181.889781 L 803.438031 181.889781 C 803.438031 181.889781 802.705609 187.163219 812.959516 188.188609 C 815.303266 191.264781 817.207562 191.997203 819.111859 192.876109 C 817.7935 193.9015 817.500531 195.366344 817.500531 197.124156 Z M 818.965375 192.729625 L 837.275922 192.583141 M 810.615766 181.889781 C 810.615766 181.889781 812.080609 190.532359 818.818891 192.436656 " transform="matrix(0.0266667,0,0,0.0266667,3.817173,2.204293)"/>
<path style="fill-rule:nonzero;fill:url(#linear8);stroke-width:0.944;stroke-linecap:butt;stroke-linejoin:miter;stroke:rgb(0%,0%,0%);stroke-opacity:1;stroke-miterlimit:4;" d="M 809.590375 181.889781 C 810.176312 178.520641 811.494672 178.081187 812.813031 173.833141 C 813.106 169.878062 809.590375 170.317516 810.615766 167.680797 C 812.373578 164.897594 811.494672 162.260875 808.125531 160.063609 C 808.711469 163.872203 803.731 167.241344 803.731 170.317516 C 803.731 173.393687 806.367719 172.661266 805.928266 177.202281 C 806.221234 179.985484 805.342328 179.253062 805.049359 181.889781 Z M 809.590375 181.889781 " transform="matrix(0.0266667,0,0,0.0266667,3.817173,2.204293)"/>
<path style="fill-rule:nonzero;fill:rgb(100%,78.039216%,17.254902%);fill-opacity:1;stroke-width:0.944;stroke-linecap:butt;stroke-linejoin:miter;stroke:rgb(0%,0%,0%);stroke-opacity:1;stroke-miterlimit:4;" d="M 831.563031 161.674937 C 832.148969 160.649547 833.320844 160.210094 834.346234 160.503062 C 835.518109 160.796031 836.250531 161.821422 836.250531 162.993297 C 836.250531 164.165172 835.518109 165.190562 834.346234 165.483531 C 833.320844 165.7765 832.148969 165.190562 831.563031 164.165172 Z M 831.563031 161.674937 " transform="matrix(0.0266667,0,0,0.0266667,3.817173,2.204293)"/>
<path style="fill:none;stroke-width:1.887;stroke-linecap:butt;stroke-linejoin:miter;stroke:rgb(100%,78.039216%,17.254902%);stroke-opacity:1;stroke-miterlimit:4;" d="M 814.752109 181.842438 L 828.961094 161.188141 L 843.023594 181.842438 " transform="matrix(0.0266667,0,0,0.0266667,3.870933,3.291493)"/>
<path style="fill-rule:nonzero;fill:rgb(100%,78.039216%,17.254902%);fill-opacity:1;stroke-width:0.944;stroke-linecap:butt;stroke-linejoin:miter;stroke:rgb(0%,0%,0%);stroke-opacity:1;stroke-miterlimit:4;" d="M 831.744297 174.078766 C 832.330234 173.053375 833.648594 172.467438 834.820469 172.760406 C 836.138828 173.053375 836.87125 174.22525 837.017734 175.543609 C 837.017734 176.715484 836.138828 177.887359 834.820469 178.180328 C 833.648594 178.473297 832.330234 178.033844 831.744297 176.861969 Z M 831.744297 174.078766 " transform="matrix(0.0266667,0,0,0.0266667,3.870933,3.291493)"/>
<path style="fill-rule:nonzero;fill:rgb(100%,78.039216%,17.254902%);fill-opacity:1;stroke-width:0.944;stroke-linecap:butt;stroke-linejoin:miter;stroke:rgb(0%,0%,0%);stroke-opacity:1;stroke-miterlimit:4;" d="M 817.388828 197.076813 L 839.361484 197.223297 C 839.361484 197.223297 839.654453 194.293609 837.017734 192.682281 C 848.443516 191.070953 845.513828 180.963531 855.035313 180.377594 C 856.939609 180.670563 850.054844 184.625641 850.054844 184.625641 C 850.054844 184.625641 844.341953 188.727203 846.978672 190.777984 C 849.029453 192.535797 849.908359 189.752594 850.201328 187.848297 C 850.494297 185.797516 859.576328 184.479156 858.257969 178.766266 C 856.060703 174.078766 843.463047 181.988922 843.463047 181.988922 L 834.5275 181.842438 C 833.941563 180.963531 831.451328 176.861969 828.961094 176.861969 C 825.884922 177.008453 823.687656 181.988922 823.687656 181.988922 L 803.472813 181.988922 C 803.472813 181.988922 802.740391 187.115875 812.994297 188.141266 C 815.338047 191.217438 817.095859 192.096344 819.146641 192.828766 C 817.828281 194.000641 817.388828 195.319 817.388828 197.076813 Z M 819.000156 192.682281 L 837.164219 192.682281 M 810.650547 181.988922 C 810.650547 181.988922 812.115391 190.485016 818.853672 192.535797 " transform="matrix(0.0266667,0,0,0.0266667,3.870933,3.291493)"/>
<path style="fill-rule:nonzero;fill:url(#linear9);stroke-width:0.944;stroke-linecap:butt;stroke-linejoin:miter;stroke:rgb(0%,0%,0%);stroke-opacity:1;stroke-miterlimit:4;" d="M 809.625156 181.842438 C 810.211094 178.619781 811.529453 178.033844 812.847813 173.932281 C 812.994297 169.830719 809.625156 170.270172 810.504063 167.779938 C 812.408359 164.996734 811.529453 162.213531 808.160313 160.16275 C 808.74625 163.824859 803.765781 167.340484 803.765781 170.270172 C 803.765781 173.346344 806.256016 172.613922 805.963047 177.301422 C 806.256016 179.938141 805.377109 179.205719 805.084141 181.842438 Z M 809.625156 181.842438 " transform="matrix(0.0266667,0,0,0.0266667,3.870933,3.291493)"/>
<path style="fill-rule:nonzero;fill:rgb(100%,78.039216%,17.254902%);fill-opacity:1;stroke-width:0.944;stroke-linecap:butt;stroke-linejoin:miter;stroke:rgb(0%,0%,0%);stroke-opacity:1;stroke-miterlimit:4;" d="M 831.451328 161.627594 C 832.037266 160.602203 833.209141 160.16275 834.381016 160.455719 C 835.552891 160.748688 836.285313 161.774078 836.285313 162.945953 C 836.285313 164.117828 835.552891 165.143219 834.381016 165.436188 C 833.209141 165.729156 832.037266 165.289703 831.451328 164.264313 Z M 831.451328 161.627594 " transform="matrix(0.0266667,0,0,0.0266667,3.870933,3.291493)"/>
<path style="fill:none;stroke-width:1.887;stroke-linecap:butt;stroke-linejoin:miter;stroke:rgb(100%,78.039216%,17.254902%);stroke-opacity:1;stroke-miterlimit:4;" d="M 814.760656 181.795094 L 828.823156 161.140797 L 843.032141 181.941578 " transform="matrix(0.0266667,0,0,0.0266667,3.858987,4.378693)"/>
<path style="fill-rule:nonzero;fill:rgb(100%,78.039216%,17.254902%);fill-opacity:1;stroke-width:0.944;stroke-linecap:butt;stroke-linejoin:miter;stroke:rgb(0%,0%,0%);stroke-opacity:1;stroke-miterlimit:4;" d="M 831.752844 174.031422 C 832.338781 173.006031 833.657141 172.420094 834.829016 172.713062 C 836.147375 173.152516 836.879797 174.177906 836.879797 175.496266 C 836.879797 176.814625 836.147375 177.840016 834.829016 178.132984 C 833.657141 178.572437 832.338781 177.9865 831.752844 176.961109 Z M 831.752844 174.031422 " transform="matrix(0.0266667,0,0,0.0266667,3.858987,4.378693)"/>
<path style="fill-rule:nonzero;fill:rgb(100%,78.039216%,17.254902%);fill-opacity:1;stroke-width:0.944;stroke-linecap:butt;stroke-linejoin:miter;stroke:rgb(0%,0%,0%);stroke-opacity:1;stroke-miterlimit:4;" d="M 817.397375 197.175953 L 839.223547 197.175953 C 839.223547 197.175953 839.663 194.39275 837.026281 192.634937 C 848.452063 191.023609 845.522375 180.916187 855.043859 180.33025 C 856.948156 180.623219 850.063391 184.724781 850.063391 184.724781 C 850.063391 184.724781 844.3505 188.679859 846.987219 190.877125 C 849.038 192.488453 849.916906 189.851734 850.209875 187.800953 C 850.502844 185.750172 859.438391 184.578297 858.266516 178.865406 C 856.06925 174.031422 843.471594 181.941578 843.471594 181.941578 L 834.536047 181.941578 C 833.950109 180.916187 831.459875 176.814625 828.969641 176.814625 C 825.893469 176.961109 823.696203 181.941578 823.696203 181.941578 L 803.481359 181.941578 C 803.481359 181.941578 802.748938 187.215016 813.002844 188.240406 C 815.346594 191.170094 817.104406 192.049 819.155188 192.781422 C 817.836828 193.953297 817.397375 195.271656 817.397375 197.175953 Z M 819.008703 192.634937 L 837.172766 192.634937 M 810.659094 181.941578 C 810.659094 181.941578 812.123938 190.437672 818.862219 192.488453 " transform="matrix(0.0266667,0,0,0.0266667,3.858987,4.378693)"/>
<path style="fill-rule:nonzero;fill:url(#linear10);stroke-width:0.944;stroke-linecap:butt;stroke-linejoin:miter;stroke:rgb(0%,0%,0%);stroke-opacity:1;stroke-miterlimit:4;" d="M 809.633703 181.795094 C 810.219641 178.572437 811.538 177.9865 812.856359 173.884937 C 813.002844 169.783375 809.633703 170.369312 810.512609 167.732594 C 812.416906 164.949391 811.538 162.166187 808.168859 160.115406 C 808.754797 163.777516 803.774328 167.293141 803.774328 170.369312 C 803.774328 173.299 806.264563 172.713062 805.971594 177.254078 C 806.264563 179.890797 805.239172 179.304859 805.092688 181.795094 Z M 809.633703 181.795094 " transform="matrix(0.0266667,0,0,0.0266667,3.858987,4.378693)"/>
<path style="fill-rule:nonzero;fill:rgb(100%,78.039216%,17.254902%);fill-opacity:1;stroke-width:0.944;stroke-linecap:butt;stroke-linejoin:miter;stroke:rgb(0%,0%,0%);stroke-opacity:1;stroke-miterlimit:4;" d="M 831.459875 161.726734 C 832.045813 160.701344 833.217688 160.115406 834.389563 160.408375 C 835.561438 160.701344 836.293859 161.726734 836.293859 162.898609 C 836.293859 164.070484 835.561438 165.095875 834.389563 165.388844 C 833.217688 165.681812 832.045813 165.242359 831.459875 164.216969 Z M 831.459875 161.726734 " transform="matrix(0.0266667,0,0,0.0266667,3.858987,4.378693)"/>
<path style="fill:none;stroke-width:1.887;stroke-linecap:butt;stroke-linejoin:miter;stroke:rgb(100%,78.039216%,17.254902%);stroke-opacity:1;stroke-miterlimit:4;" d="M 814.829625 181.816719 L 828.892125 161.162422 L 843.101109 181.816719 " transform="matrix(0.0266667,0,0,0.0266667,3.86496,5.471867)"/>
<path style="fill-rule:nonzero;fill:rgb(100%,78.039216%,17.254902%);fill-opacity:1;stroke-width:0.944;stroke-linecap:butt;stroke-linejoin:miter;stroke:rgb(0%,0%,0%);stroke-opacity:1;stroke-miterlimit:4;" d="M 831.675328 174.053047 C 832.40775 173.027656 833.579625 172.441719 834.897984 172.734687 C 836.069859 173.174141 836.948766 174.199531 836.948766 175.517891 C 836.948766 176.689766 836.069859 177.861641 834.897984 178.154609 C 833.579625 178.594062 832.40775 178.008125 831.675328 176.83625 Z M 831.675328 174.053047 " transform="matrix(0.0266667,0,0,0.0266667,3.86496,5.471867)"/>
<path style="fill-rule:nonzero;fill:rgb(100%,78.039216%,17.254902%);fill-opacity:1;stroke-width:0.944;stroke-linecap:butt;stroke-linejoin:miter;stroke:rgb(0%,0%,0%);stroke-opacity:1;stroke-miterlimit:4;" d="M 817.466344 197.051094 L 839.292516 197.197578 C 839.292516 197.197578 839.585484 194.414375 836.948766 192.656562 C 848.521031 191.045234 845.444859 180.937812 855.112828 180.351875 C 856.870641 180.644844 850.132359 184.599922 850.132359 184.599922 C 850.132359 184.599922 844.272984 188.701484 846.909703 190.752266 C 848.960484 192.510078 849.985875 189.873359 850.278844 187.822578 C 850.425328 185.771797 859.507359 184.599922 858.189 178.740547 C 856.138219 174.053047 843.540562 181.963203 843.540562 181.963203 L 834.458531 181.963203 C 833.872594 180.937812 831.528844 176.83625 828.892125 176.83625 C 825.815953 176.982734 823.765172 181.963203 823.765172 181.963203 L 803.403844 181.963203 C 803.403844 181.963203 802.671422 187.236641 813.071812 188.115547 C 815.415562 191.191719 817.173375 192.070625 819.224156 192.803047 C 817.759312 193.974922 817.466344 195.293281 817.466344 197.051094 Z M 819.077672 192.656562 L 837.241734 192.656562 M 810.728062 181.963203 C 810.728062 181.963203 812.192906 190.459297 818.784703 192.510078 " transform="matrix(0.0266667,0,0,0.0266667,3.86496,5.471867)"/>
<path style="fill-rule:nonzero;fill:url(#linear11);stroke-width:0.944;stroke-linecap:butt;stroke-linejoin:miter;stroke:rgb(0%,0%,0%);stroke-opacity:1;stroke-miterlimit:4;" d="M 809.556187 181.816719 C 810.288609 178.594062 811.460484 178.008125 812.778844 173.906562 C 813.071812 169.805 809.556187 170.244453 810.581578 167.754219 C 812.339391 164.971016 811.460484 162.187812 808.091344 160.137031 C 808.823766 163.799141 803.696812 167.314766 803.696812 170.244453 C 803.696812 173.320625 806.333531 172.588203 806.040562 177.275703 C 806.187047 179.912422 805.308141 179.326484 805.015172 181.816719 Z M 809.556187 181.816719 " transform="matrix(0.0266667,0,0,0.0266667,3.86496,5.471867)"/>
<path style="fill-rule:nonzero;fill:rgb(100%,78.039216%,17.254902%);fill-opacity:1;stroke-width:0.944;stroke-linecap:butt;stroke-linejoin:miter;stroke:rgb(0%,0%,0%);stroke-opacity:1;stroke-miterlimit:4;" d="M 831.528844 161.601875 C 832.114781 160.576484 833.286656 160.137031 834.458531 160.43 C 835.483922 160.722969 836.362828 161.748359 836.362828 162.920234 C 836.362828 164.092109 835.483922 165.1175 834.458531 165.410469 C 833.286656 165.703437 832.114781 165.263984 831.528844 164.238594 Z M 831.528844 161.601875 " transform="matrix(0.0266667,0,0,0.0266667,3.86496,5.471867)"/>
<path style="fill-rule:nonzero;fill:rgb(100%,78.039216%,17.254902%);fill-opacity:1;stroke-width:0.944;stroke-linecap:butt;stroke-linejoin:miter;stroke:rgb(0%,0%,0%);stroke-opacity:1;stroke-miterlimit:4;" d="M 915.820312 406.347656 C 915.820312 406.347656 921.533203 419.53125 927.978516 411.328125 C 934.570312 403.271484 932.226562 399.755859 932.226562 399.755859 L 917.578125 391.845703 L 913.330078 400.927734 Z M 915.820312 406.347656 " transform="matrix(0.0266667,0,0,0.0266667,0,0)"/>
<path style="fill-rule:nonzero;fill:rgb(100%,77.647059%,70.980392%);fill-opacity:1;stroke-width:0.944;stroke-linecap:butt;stroke-linejoin:miter;stroke:rgb(0%,0%,0%);stroke-opacity:1;stroke-miterlimit:4;" d="M 928.417969 404.589844 C 928.417969 404.589844 929.296875 404.736328 930.029297 403.271484 C 930.908203 401.806641 928.417969 401.220703 927.246094 399.609375 L 925.927734 402.246094 Z M 895.458984 401.074219 L 882.568359 408.105469 C 882.568359 408.105469 876.269531 409.277344 875.830078 408.105469 C 875.244141 406.787109 875.976562 405.615234 879.199219 405.46875 C 882.568359 405.322266 891.650391 397.119141 891.650391 397.119141 Z M 895.605469 173.144531 C 895.605469 173.144531 895.898438 176.220703 896.044922 177.685547 C 896.191406 179.296875 893.554688 182.666016 893.408203 182.519531 C 893.261719 182.373047 891.943359 182.666016 892.089844 183.544922 C 892.236328 184.570312 894.140625 184.863281 894.140625 184.863281 C 894.140625 184.863281 893.408203 188.232422 894.140625 188.378906 C 894.873047 188.525391 892.089844 192.626953 894.140625 193.798828 C 896.191406 194.824219 899.707031 196.289062 901.318359 195.996094 C 902.783203 195.703125 901.318359 202.148438 901.318359 202.148438 L 896.777344 211.669922 L 921.240234 209.033203 L 916.113281 200.976562 C 916.113281 200.976562 913.769531 199.511719 914.355469 194.824219 C 915.087891 190.283203 914.0625 169.482422 914.0625 169.482422 L 896.630859 167.138672 Z M 891.064453 209.326172 C 891.064453 209.326172 883.154297 212.841797 883.59375 222.65625 C 881.396484 232.177734 880.371094 241.699219 880.371094 241.699219 C 880.371094 241.699219 870.996094 252.392578 868.212891 256.201172 C 865.283203 260.009766 861.035156 267.773438 859.423828 269.824219 C 857.8125 271.875 851.660156 278.613281 851.806641 281.25 C 851.953125 283.740234 850.488281 295.019531 856.640625 296.191406 C 858.251953 296.923828 863.232422 283.300781 863.232422 283.300781 C 863.232422 283.300781 863.525391 277.441406 861.767578 276.269531 C 860.15625 275.097656 865.576172 271.289062 865.576172 271.289062 C 865.576172 271.289062 876.269531 263.525391 878.613281 261.621094 C 880.957031 259.863281 887.548828 252.539062 887.548828 252.539062 Z M 891.064453 209.326172 " transform="matrix(0.0266667,0,0,0.0266667,0,0)"/>
<path style="fill-rule:nonzero;fill:rgb(100%,100%,100%);fill-opacity:1;stroke-width:0.944;stroke-linecap:butt;stroke-linejoin:miter;stroke:rgb(0%,0%,0%);stroke-opacity:1;stroke-miterlimit:4;" d="M 900.146484 201.855469 C 900.146484 201.855469 902.197266 207.421875 906.884766 206.396484 C 911.425781 205.517578 916.845703 201.123047 916.845703 201.123047 C 916.845703 201.123047 921.09375 200.976562 921.679688 201.708984 C 922.265625 202.294922 933.251953 212.841797 932.958984 216.210938 C 932.666016 219.580078 927.832031 218.554688 926.074219 220.898438 C 924.462891 223.095703 921.533203 228.662109 922.265625 232.763672 C 923.144531 236.865234 925.488281 242.285156 925.195312 244.335938 C 924.902344 246.386719 923.144531 246.972656 923.144531 248.144531 C 923.144531 249.169922 924.609375 251.074219 924.609375 253.125 C 924.609375 255.175781 922.705078 258.251953 922.998047 260.302734 C 923.291016 262.353516 923.4375 268.359375 923.4375 268.359375 L 922.998047 296.191406 C 922.998047 296.191406 924.609375 297.216797 924.755859 298.828125 C 924.902344 300.292969 935.449219 346.435547 935.449219 346.435547 C 935.449219 346.435547 935.009766 347.900391 933.837891 347.753906 C 932.8125 347.607422 938.232422 354.785156 938.378906 356.835938 C 938.525391 358.886719 943.945312 375.146484 943.652344 377.34375 C 943.505859 379.541016 942.773438 384.521484 942.333984 384.667969 C 941.748047 384.814453 945.849609 394.775391 945.117188 396.386719 C 944.53125 397.851562 938.085938 397.705078 938.085938 397.705078 L 936.328125 397.412109 C 936.328125 397.412109 936.474609 399.462891 935.15625 399.609375 C 933.837891 399.755859 924.609375 399.169922 924.609375 399.169922 C 924.609375 399.169922 921.826172 403.271484 920.214844 403.125 C 918.75 402.978516 916.699219 400.195312 916.113281 400.634766 C 915.673828 401.074219 917.578125 403.710938 917.138672 404.589844 C 916.699219 405.322266 908.496094 407.080078 907.03125 403.271484 C 905.419922 399.462891 907.910156 400.488281 907.470703 399.609375 C 907.03125 398.876953 903.369141 396.826172 902.197266 397.412109 C 901.171875 398.144531 905.126953 399.023438 904.980469 400.634766 C 904.6875 402.246094 901.464844 404.589844 900.146484 404.589844 C 898.828125 404.589844 895.898438 398.730469 891.503906 399.316406 C 886.962891 400.048828 884.179688 401.074219 884.179688 401.074219 C 884.179688 401.074219 878.90625 403.271484 876.708984 402.832031 C 874.511719 402.392578 873.486328 400.634766 873.486328 399.609375 C 873.486328 398.730469 875.097656 394.628906 874.951172 393.310547 C 874.804688 391.992188 873.486328 390.820312 873.486328 388.916016 C 873.486328 387.011719 877.148438 380.566406 877.148438 380.566406 L 877.001953 351.416016 C 877.001953 351.416016 873.779297 351.416016 873.486328 349.21875 C 873.339844 347.167969 878.613281 303.222656 879.345703 300.292969 C 880.224609 297.509766 882.275391 287.402344 882.275391 287.402344 C 882.275391 287.402344 879.931641 288.427734 879.785156 287.402344 C 879.638672 286.230469 886.816406 261.035156 886.816406 261.035156 C 886.816406 261.035156 888.134766 248.583984 888.134766 245.214844 C 888.134766 241.845703 887.548828 237.304688 887.548828 237.304688 C 887.548828 237.304688 880.957031 234.521484 880.810547 230.273438 C 880.224609 223.681641 886.962891 219.873047 887.841797 217.675781 L 890.917969 208.740234 C 890.917969 208.740234 894.433594 202.734375 900.146484 201.855469 Z M 900.146484 201.855469 " transform="matrix(0.0266667,0,0,0.0266667,0,0)"/>
<path style="fill-rule:nonzero;fill:rgb(100%,78.039216%,17.254902%);fill-opacity:1;stroke-width:0.944;stroke-linecap:butt;stroke-linejoin:miter;stroke:rgb(0%,0%,0%);stroke-opacity:1;stroke-miterlimit:4;" d="M 897.802734 402.978516 C 897.802734 402.978516 882.421875 411.035156 880.224609 411.767578 C 878.027344 412.353516 876.5625 408.984375 878.759766 408.398438 C 880.957031 407.8125 884.472656 407.373047 884.472656 407.373047 C 884.472656 407.373047 879.199219 403.271484 879.345703 403.125 C 879.638672 402.978516 886.523438 400.488281 886.669922 400.488281 C 886.816406 400.488281 888.867188 404.589844 890.332031 404.296875 C 891.796875 404.003906 895.898438 400.78125 895.898438 400.78125 C 895.898438 400.78125 898.095703 403.271484 897.802734 402.978516 Z M 897.802734 402.978516 " transform="matrix(0.0266667,0,0,0.0266667,0,0)"/>
<path style="fill-rule:nonzero;fill:rgb(100%,77.647059%,70.980392%);fill-opacity:1;stroke-width:0.944;stroke-linecap:butt;stroke-linejoin:miter;stroke:rgb(0%,0%,0%);stroke-opacity:1;stroke-miterlimit:4;" d="M 919.482422 407.373047 C 920.947266 409.277344 921.386719 412.5 924.755859 410.595703 C 928.125 408.691406 923.144531 405.175781 923.144531 405.175781 Z M 919.482422 407.373047 " transform="matrix(0.0266667,0,0,0.0266667,0,0)"/>
<path style="fill-rule:nonzero;fill:rgb(100%,77.647059%,70.980392%);fill-opacity:1;stroke-width:0.944;stroke-linecap:butt;stroke-linejoin:miter;stroke:rgb(0%,0%,0%);stroke-opacity:1;stroke-miterlimit:4;" d="M 925.488281 407.080078 C 925.488281 407.080078 927.099609 408.398438 928.564453 406.933594 C 929.882812 405.46875 925.634766 402.539062 925.634766 402.539062 L 923.583984 404.882812 Z M 932.373047 216.943359 C 932.519531 216.943359 937.5 232.617188 938.232422 236.572266 C 938.818359 240.527344 940.869141 256.347656 940.136719 258.691406 C 939.257812 260.888672 931.201172 271.435547 930.322266 274.072266 C 929.296875 276.855469 923.583984 287.109375 923.583984 287.109375 C 923.583984 287.109375 922.119141 297.216797 921.533203 297.802734 C 920.947266 298.242188 923.144531 300.732422 922.998047 301.611328 C 922.705078 302.490234 918.310547 306.884766 916.40625 306.445312 C 914.648438 306.005859 911.572266 303.808594 911.425781 301.757812 C 911.279297 299.707031 911.572266 292.822266 913.037109 291.064453 C 914.355469 289.306641 921.826172 271.728516 922.265625 270.703125 C 922.851562 269.53125 929.150391 255.761719 929.296875 253.417969 C 929.443359 251.074219 927.392578 245.507812 925.048828 243.457031 C 920.068359 228.808594 922.119141 220.019531 932.373047 216.943359 Z M 932.373047 216.943359 " transform="matrix(0.0266667,0,0,0.0266667,0,0)"/>
<path style="fill-rule:nonzero;fill:rgb(61.176471%,31.764706%,0%);fill-opacity:1;stroke-width:0.944;stroke-linecap:butt;stroke-linejoin:miter;stroke:rgb(0%,0%,0%);stroke-opacity:1;stroke-miterlimit:4;" d="M 895.019531 172.265625 C 895.019531 172.265625 898.535156 172.705078 900.439453 171.533203 C 902.34375 170.507812 904.541016 169.921875 906.152344 172.265625 C 907.763672 174.462891 908.935547 174.316406 908.935547 174.316406 C 908.935547 174.316406 906.445312 180.175781 908.935547 180.761719 C 911.279297 181.347656 912.304688 181.347656 912.451172 182.226562 C 912.744141 182.958984 910.400391 184.716797 911.132812 185.449219 C 911.71875 186.328125 912.890625 187.207031 913.037109 187.939453 C 913.183594 188.525391 911.572266 191.162109 912.011719 191.894531 C 912.451172 192.480469 913.916016 194.970703 914.941406 194.970703 C 915.820312 194.970703 915.234375 198.925781 918.017578 198.046875 C 920.947266 197.021484 920.800781 194.53125 920.800781 194.53125 C 920.800781 194.53125 923.730469 194.091797 924.609375 191.308594 C 925.341797 188.671875 927.246094 188.085938 927.246094 188.085938 C 927.246094 188.085938 931.054688 186.035156 925.927734 182.8125 C 925.927734 160.693359 911.425781 163.037109 911.425781 163.037109 C 911.425781 163.037109 909.667969 159.082031 906.884766 159.521484 C 903.955078 159.960938 903.808594 163.330078 901.757812 163.037109 C 899.707031 162.744141 899.267578 161.279297 899.121094 161.425781 C 898.828125 161.572266 897.216797 164.794922 897.216797 165.527344 C 897.216797 166.40625 891.650391 164.501953 892.089844 168.603516 C 892.529297 172.705078 895.3125 172.558594 895.019531 172.265625 Z M 895.019531 172.265625 " transform="matrix(0.0266667,0,0,0.0266667,0,0)"/>
<path style="fill:none;stroke-width:0.944;stroke-linecap:butt;stroke-linejoin:miter;stroke:rgb(0%,0%,0%);stroke-opacity:1;stroke-miterlimit:4;" d="M 920.800781 208.007812 C 920.800781 208.007812 906.591797 217.089844 907.03125 220.166016 M 923.876953 209.619141 C 923.876953 209.619141 920.800781 213.134766 920.654297 213.134766 M 928.125 213.427734 C 928.125 213.427734 921.240234 219.140625 922.265625 222.65625 M 895.3125 207.275391 C 895.3125 207.275391 893.261719 211.523438 893.701172 212.841797 C 894.140625 214.306641 897.65625 219.726562 898.095703 223.095703 C 898.535156 226.318359 898.095703 228.808594 898.095703 228.808594 M 891.650391 215.185547 C 891.650391 215.185547 892.236328 220.166016 893.261719 221.191406 C 894.140625 222.070312 896.630859 226.318359 896.923828 228.076172 M 890.332031 236.132812 C 890.332031 236.132812 894.433594 238.183594 898.242188 230.273438 M 904.394531 224.853516 C 904.248047 224.853516 901.464844 232.617188 906.445312 235.400391 C 911.572266 238.183594 915.380859 237.890625 917.578125 237.158203 C 919.775391 236.279297 922.119141 234.960938 922.119141 234.960938 M 902.197266 234.228516 C 902.197266 234.228516 902.490234 244.775391 917.871094 255.029297 M 902.783203 244.042969 C 902.783203 244.042969 902.636719 253.271484 908.642578 257.373047 M 899.707031 233.349609 C 899.707031 233.349609 895.019531 246.972656 891.503906 248.4375 M 898.242188 243.310547 C 898.242188 243.310547 898.095703 253.125 896.777344 256.640625 M 895.605469 258.984375 C 895.605469 258.984375 898.681641 262.939453 902.197266 262.646484 C 905.712891 262.353516 907.177734 258.251953 909.521484 258.837891 C 911.865234 259.423828 914.0625 261.328125 919.628906 260.888672 M 911.71875 264.990234 C 911.71875 264.990234 911.71875 273.046875 913.183594 273.925781 C 914.648438 274.658203 913.916016 282.128906 913.916016 282.128906 M 892.382812 261.181641 C 892.382812 261.181641 892.236328 268.798828 891.357422 271.582031 C 890.332031 274.21875 888.427734 278.759766 888.720703 282.714844 M 882.714844 287.255859 C 883.59375 286.816406 886.230469 284.472656 886.230469 284.472656 M 887.695312 286.230469 C 887.695312 286.230469 880.810547 315.380859 882.714844 332.8125 M 889.160156 287.695312 C 889.160156 287.695312 885.791016 309.521484 887.402344 313.623047 M 887.548828 287.109375 C 887.695312 287.109375 900.732422 287.988281 900.732422 287.988281 M 902.636719 286.230469 C 902.636719 286.230469 906.298828 288.134766 911.425781 287.841797 M 901.171875 296.923828 C 901.171875 296.923828 900.439453 334.277344 899.560547 342.480469 M 920.654297 305.419922 C 920.654297 305.419922 924.755859 338.232422 927.099609 341.162109 M 912.744141 309.521484 C 912.744141 309.521484 915.234375 338.525391 916.699219 341.015625 M 876.708984 351.123047 C 876.708984 351.123047 881.689453 349.658203 886.083984 344.824219 C 891.064453 351.708984 898.828125 345.117188 898.828125 345.117188 C 898.828125 345.117188 910.986328 353.466797 916.259766 344.238281 C 924.609375 349.658203 928.710938 343.359375 928.710938 343.359375 C 928.710938 343.359375 931.640625 348.046875 933.837891 347.607422 M 920.800781 350.683594 C 920.800781 350.683594 926.953125 379.6875 936.181641 387.890625 M 888.867188 347.753906 C 888.867188 347.753906 889.746094 371.923828 891.064453 389.0625 M 887.841797 375.146484 C 887.841797 375.146484 886.962891 390.966797 886.083984 391.992188 M 878.466797 393.603516 C 878.466797 393.603516 880.224609 400.488281 888.867188 394.189453 C 897.65625 387.744141 897.802734 396.533203 898.095703 397.412109 C 898.388672 398.4375 899.853516 405.175781 903.222656 399.462891 M 910.107422 390.087891 C 910.107422 390.087891 908.642578 404.296875 921.240234 393.896484 C 933.691406 383.642578 935.742188 393.75 936.181641 396.972656 M 910.253906 166.845703 C 910.253906 166.845703 909.228516 173.730469 916.699219 173.144531 C 915.673828 176.953125 918.603516 178.271484 918.603516 178.271484 M 924.023438 182.519531 C 924.169922 182.519531 927.392578 184.570312 923.876953 187.060547 M 913.330078 188.085938 C 913.330078 188.085938 914.941406 189.990234 916.699219 189.404297 C 918.310547 188.964844 921.240234 191.162109 921.240234 191.162109 C 921.240234 191.162109 923.583984 192.041016 923.876953 191.455078 M 903.662109 194.091797 C 903.662109 194.091797 909.082031 196.142578 912.451172 187.5 M 893.701172 185.009766 L 896.777344 185.15625 M 858.544922 284.912109 L 858.837891 291.796875 M 851.953125 284.472656 C 851.953125 284.472656 856.494141 291.796875 856.054688 295.751953 " transform="matrix(0.0266667,0,0,0.0266667,0,0)"/>
<path style="fill:none;stroke-width:0.944;stroke-linecap:butt;stroke-linejoin:round;stroke:rgb(0%,0%,0%);stroke-opacity:1;stroke-miterlimit:4;" d="M 894.140625 188.232422 L 896.923828 188.232422 L 894.433594 189.257812 M 911.71875 300 C 911.71875 300 914.941406 299.560547 914.941406 305.126953 C 916.992188 298.242188 921.386719 298.095703 921.386719 298.095703 " transform="matrix(0.0266667,0,0,0.0266667,0,0)"/>
<path style="fill:none;stroke-width:1.699;stroke-linecap:butt;stroke-linejoin:round;stroke:rgb(0%,0%,0%);stroke-opacity:1;stroke-miterlimit:4;" d="M 898.095703 179.296875 C 898.535156 179.296875 900.292969 178.710938 900.585938 179.150391 C 901.025391 179.589844 898.681641 180.029297 898.095703 179.296875 Z M 898.095703 179.296875 " transform="matrix(0.0266667,0,0,0.0266667,0,0)"/>
<path style="fill-rule:nonzero;fill:rgb(100%,78.039216%,17.254902%);fill-opacity:1;stroke-width:1.887;stroke-linecap:butt;stroke-linejoin:miter;stroke:rgb(0%,0%,0%);stroke-opacity:1;stroke-miterlimit:4;" d="M 900.292969 458.642578 C 967.236328 456.738281 1010.449219 408.398438 1010.009766 407.958984 C 1009.423828 407.519531 1018.798828 394.482422 1026.269531 396.386719 C 1033.59375 398.144531 1044.287109 419.970703 1057.324219 424.658203 C 1063.769531 434.912109 1055.419922 444.140625 1052.636719 446.044922 C 1049.853516 447.949219 1037.402344 453.076172 1035.498047 445.605469 C 1033.59375 438.134766 1029.931641 439.599609 1029.931641 439.599609 C 1029.931641 439.599609 970.458984 497.607422 901.757812 495.263672 C 830.566406 495.703125 772.119141 439.599609 772.119141 439.599609 L 766.992188 445.166016 C 766.992188 445.166016 761.425781 451.171875 758.642578 450.732422 C 755.859375 450.146484 743.701172 442.382812 742.822266 434.472656 C 741.943359 426.5625 750.292969 421.435547 750.292969 421.435547 C 750.292969 421.435547 770.654297 405.615234 772.998047 397.265625 C 777.685547 392.578125 786.474609 400.488281 786.474609 400.488281 C 786.474609 400.488281 840.380859 462.304688 900.292969 458.642578 Z M 900.292969 458.642578 " transform="matrix(0.0266667,0,0,0.0266667,0,0)"/>
<path style="fill:none;stroke-width:1.887;stroke-linecap:butt;stroke-linejoin:miter;stroke:rgb(0%,0%,0%);stroke-opacity:1;stroke-miterlimit:4;" d="M 748.828125 422.607422 C 748.828125 422.607422 754.394531 421.142578 756.445312 423.486328 C 758.496094 425.830078 772.412109 439.453125 772.412109 439.453125 " transform="matrix(0.0266667,0,0,0.0266667,0,0)"/>
<path style="fill:none;stroke-width:1.887;stroke-linecap:butt;stroke-linejoin:miter;stroke:rgb(0%,0%,0%);stroke-opacity:1;stroke-miterlimit:4;" d="M 761.425781 429.052734 L 756.005859 433.300781 C 756.005859 433.300781 769.921875 435.9375 766.699219 445.166016 M 1052.34375 422.167969 C 1052.34375 422.167969 1049.560547 420.703125 1045.3125 423.925781 C 1040.917969 427.148438 1029.931641 439.453125 1029.931641 439.453125 " transform="matrix(0.0266667,0,0,0.0266667,0,0)"/>
<path style="fill:none;stroke-width:1.887;stroke-linecap:butt;stroke-linejoin:miter;stroke:rgb(0%,0%,0%);stroke-opacity:1;stroke-miterlimit:4;" d="M 1039.892578 428.759766 L 1045.898438 433.300781 C 1045.898438 433.300781 1033.300781 434.179688 1036.083984 446.044922 " transform="matrix(0.0266667,0,0,0.0266667,0,0)"/>
<path style=" stroke:none;fill-rule:nonzero;fill:rgb(0%,0%,0%);fill-opacity:1;" d="M 21.859375 11.664062 C 21.847656 11.691406 21.824219 11.664062 21.800781 11.667969 C 21.746094 11.671875 21.699219 11.707031 21.652344 11.730469 L 21.160156 12.019531 C 21.144531 12.011719 21.148438 12 21.152344 11.984375 C 21.195312 11.78125 21.242188 11.578125 21.28125 11.375 C 21.289062 11.335938 21.300781 11.292969 21.265625 11.265625 C 21.253906 11.257812 21.273438 11.238281 21.285156 11.253906 L 21.535156 11.433594 C 21.527344 11.457031 21.511719 11.441406 21.5 11.429688 C 21.464844 11.398438 21.421875 11.429688 21.421875 11.472656 C 21.394531 11.605469 21.363281 11.742188 21.335938 11.875 C 21.445312 11.808594 21.558594 11.746094 21.667969 11.679688 C 21.707031 11.660156 21.738281 11.609375 21.695312 11.574219 C 21.679688 11.566406 21.65625 11.539062 21.679688 11.539062 Z M 22.035156 12.515625 C 22.03125 12.53125 22.023438 12.535156 22.007812 12.523438 L 21.714844 12.363281 C 21.71875 12.347656 21.726562 12.34375 21.738281 12.355469 C 21.765625 12.375 21.808594 12.378906 21.828125 12.347656 C 21.867188 12.285156 21.902344 12.21875 21.9375 12.15625 C 21.984375 12.0625 22.039062 11.972656 22.085938 11.882812 C 22.109375 11.847656 22.082031 11.808594 22.050781 11.796875 C 22.039062 11.789062 22.023438 11.785156 22.039062 11.773438 C 22.042969 11.765625 22.058594 11.78125 22.066406 11.785156 L 22.351562 11.9375 C 22.347656 11.953125 22.339844 11.957031 22.324219 11.945312 C 22.300781 11.925781 22.253906 11.921875 22.234375 11.953125 C 22.195312 12.015625 22.164062 12.082031 22.128906 12.144531 C 22.078125 12.238281 22.027344 12.328125 21.980469 12.417969 C 21.957031 12.453125 21.980469 12.492188 22.015625 12.507812 Z M 23.171875 12.25 L 23.089844 12.476562 C 23.058594 12.472656 23.078125 12.429688 23.070312 12.40625 C 23.058594 12.304688 22.980469 12.210938 22.878906 12.191406 C 22.800781 12.167969 22.71875 12.210938 22.675781 12.273438 C 22.605469 12.367188 22.5625 12.480469 22.558594 12.597656 C 22.554688 12.664062 22.585938 12.734375 22.640625 12.769531 C 22.6875 12.796875 22.746094 12.8125 22.796875 12.808594 C 22.816406 12.753906 22.839844 12.695312 22.855469 12.640625 C 22.863281 12.601562 22.824219 12.578125 22.792969 12.570312 C 22.789062 12.558594 22.800781 12.546875 22.8125 12.558594 L 23.109375 12.664062 C 23.105469 12.699219 23.0625 12.660156 23.039062 12.675781 C 23.003906 12.6875 23 12.730469 22.988281 12.761719 L 22.953125 12.863281 C 22.820312 12.871094 22.683594 12.84375 22.570312 12.777344 C 22.457031 12.707031 22.382812 12.574219 22.402344 12.4375 C 22.421875 12.324219 22.492188 12.21875 22.597656 12.167969 C 22.695312 12.117188 22.8125 12.117188 22.910156 12.15625 C 22.964844 12.175781 23.015625 12.210938 23.054688 12.25 C 23.082031 12.285156 23.132812 12.285156 23.152344 12.242188 L 23.171875 12.25 M 23.648438 13.019531 C 23.648438 13.03125 23.648438 13.042969 23.632812 13.035156 L 23.296875 12.984375 C 23.296875 12.972656 23.296875 12.960938 23.3125 12.96875 C 23.339844 12.972656 23.378906 12.972656 23.394531 12.941406 C 23.410156 12.898438 23.410156 12.847656 23.417969 12.800781 C 23.4375 12.671875 23.460938 12.542969 23.476562 12.414062 C 23.484375 12.386719 23.476562 12.355469 23.445312 12.34375 C 23.429688 12.335938 23.410156 12.335938 23.394531 12.332031 C 23.394531 12.320312 23.394531 12.308594 23.410156 12.316406 L 23.746094 12.367188 C 23.746094 12.378906 23.746094 12.390625 23.730469 12.382812 C 23.703125 12.375 23.664062 12.378906 23.648438 12.410156 C 23.632812 12.453125 23.632812 12.5 23.625 12.546875 C 23.605469 12.675781 23.582031 12.808594 23.566406 12.9375 C 23.558594 12.964844 23.566406 12.996094 23.597656 13.007812 C 23.613281 13.015625 23.632812 13.015625 23.648438 13.019531 Z M 24.558594 12.796875 L 24.546875 13.035156 L 23.945312 13.066406 C 23.941406 13.054688 23.945312 13.046875 23.960938 13.046875 C 23.992188 13.046875 24.03125 13.035156 24.035156 13 C 24.035156 12.941406 24.03125 12.882812 24.027344 12.824219 C 24.019531 12.703125 24.015625 12.585938 24.007812 12.46875 C 24.011719 12.433594 23.980469 12.40625 23.945312 12.40625 C 23.9375 12.402344 23.90625 12.417969 23.910156 12.398438 C 23.90625 12.382812 23.925781 12.390625 23.9375 12.390625 L 24.269531 12.371094 C 24.273438 12.386719 24.269531 12.394531 24.253906 12.390625 C 24.222656 12.390625 24.183594 12.398438 24.175781 12.433594 C 24.171875 12.484375 24.175781 12.535156 24.179688 12.589844 C 24.183594 12.710938 24.191406 12.835938 24.199219 12.957031 C 24.195312 12.992188 24.222656 13.019531 24.253906 13.011719 C 24.304688 13.011719 24.355469 13.011719 24.402344 13 C 24.46875 12.980469 24.503906 12.914062 24.523438 12.855469 C 24.535156 12.835938 24.523438 12.796875 24.550781 12.796875 L 24.558594 12.796875 M 25.027344 12.21875 C 25.011719 12.21875 25.019531 12.238281 25.015625 12.25 C 24.988281 12.449219 24.960938 12.648438 24.933594 12.847656 C 24.929688 12.894531 24.917969 12.945312 24.875 12.964844 C 24.859375 12.972656 24.871094 12.996094 24.886719 12.984375 L 25.085938 12.921875 C 25.085938 12.890625 25.046875 12.921875 25.023438 12.914062 C 24.980469 12.914062 24.972656 12.859375 24.976562 12.824219 L 24.988281 12.753906 L 25.214844 12.683594 C 25.246094 12.71875 25.277344 12.753906 25.304688 12.792969 C 25.324219 12.832031 25.277344 12.847656 25.25 12.855469 C 25.234375 12.859375 25.246094 12.886719 25.257812 12.871094 L 25.5625 12.78125 C 25.558594 12.746094 25.515625 12.78125 25.496094 12.757812 C 25.441406 12.714844 25.402344 12.65625 25.355469 12.601562 Z M 25.027344 12.457031 L 25.1875 12.652344 L 24.992188 12.710938 Z M 26.054688 11.769531 L 26.144531 11.933594 C 26.117188 11.953125 26.101562 11.902344 26.078125 11.894531 C 26.039062 11.859375 25.976562 11.851562 25.933594 11.882812 C 25.914062 11.890625 25.894531 11.902344 25.878906 11.910156 C 25.964844 12.074219 26.050781 12.234375 26.140625 12.394531 C 26.152344 12.4375 26.203125 12.445312 26.234375 12.421875 C 26.25 12.414062 26.261719 12.40625 26.265625 12.425781 C 26.21875 12.453125 26.171875 12.476562 26.125 12.503906 L 25.953125 12.597656 C 25.9375 12.582031 25.949219 12.574219 25.964844 12.570312 C 26.003906 12.554688 26.019531 12.503906 25.992188 12.46875 C 25.90625 12.308594 25.820312 12.148438 25.734375 11.988281 C 25.6875 12.015625 25.625 12.039062 25.613281 12.097656 C 25.597656 12.136719 25.621094 12.179688 25.621094 12.214844 C 25.605469 12.230469 25.601562 12.207031 25.59375 12.195312 L 25.519531 12.058594 Z M 26.460938 11.527344 L 26.628906 11.75 C 26.667969 11.726562 26.699219 11.679688 26.6875 11.632812 C 26.691406 11.597656 26.640625 11.554688 26.65625 11.527344 C 26.667969 11.519531 26.675781 11.546875 26.6875 11.554688 L 26.875 11.808594 C 26.851562 11.835938 26.832031 11.777344 26.808594 11.769531 C 26.769531 11.746094 26.71875 11.730469 26.679688 11.761719 C 26.648438 11.769531 26.652344 11.785156 26.671875 11.804688 C 26.714844 11.863281 26.757812 11.921875 26.804688 11.976562 C 26.832031 12.007812 26.871094 11.976562 26.894531 11.957031 C 26.957031 11.914062 27.015625 11.847656 27.011719 11.765625 C 27.015625 11.730469 26.992188 11.691406 26.992188 11.660156 C 27.007812 11.640625 27.011719 11.671875 27.019531 11.679688 L 27.109375 11.84375 L 26.640625 12.195312 C 26.621094 12.179688 26.640625 12.171875 26.652344 12.160156 C 26.699219 12.136719 26.683594 12.078125 26.652344 12.050781 C 26.550781 11.917969 26.453125 11.785156 26.351562 11.65625 C 26.324219 11.621094 26.277344 11.636719 26.253906 11.664062 C 26.242188 11.675781 26.222656 11.648438 26.246094 11.644531 L 26.6875 11.3125 L 26.804688 11.472656 C 26.777344 11.5 26.753906 11.4375 26.722656 11.433594 C 26.664062 11.402344 26.59375 11.429688 26.546875 11.464844 C 26.519531 11.484375 26.492188 11.507812 26.460938 11.527344 "/>
</g>
</svg>
