<?xml version="1.0" encoding="UTF-8"?>
<svg xmlns="http://www.w3.org/2000/svg" xmlns:xlink="http://www.w3.org/1999/xlink" width="24px" height="16px" viewBox="0 0 23 16" version="1.1">
<g id="surface1">
<rect x="0" y="0" width="23" height="16" style="fill:rgb(100%,100%,100%);fill-opacity:1;stroke:none;"/>
<path style="fill-rule:nonzero;fill:rgb(21.176471%,58.039216%,26.27451%);fill-opacity:1;stroke-width:3;stroke-linecap:butt;stroke-linejoin:miter;stroke:rgb(0.392157%,0%,0.784314%);stroke-opacity:1;stroke-miterlimit:10;" d="M 1885.976874 1567.57766 C 1885.976874 1567.57766 1884.894163 1560.729516 1898.103232 1555.541527 C 1911.528844 1550.353539 1912.395012 1531.261742 1909.796507 1518.603051 C 1909.796507 1518.603051 1902.867159 1530.639184 1894.422016 1534.789574 C 1894.422016 1534.789574 1880.779863 1541.845238 1880.130236 1555.541527 C 1880.130236 1555.541527 1880.130236 1560.521996 1879.047526 1564.257348 C 1878.397899 1566.540063 1872.33472 1547.240746 1883.811452 1532.921898 C 1895.721269 1518.188012 1898.969401 1506.359398 1889.65809 1482.909691 C 1889.65809 1482.909691 1888.791921 1497.02102 1879.48061 1505.114281 C 1870.169299 1513.207543 1868.870046 1513.830102 1869.086588 1533.129418 C 1869.086588 1533.129418 1869.30313 1539.770043 1865.621914 1542.052758 C 1865.621914 1542.052758 1858.476024 1531.469262 1856.527145 1524.413598 C 1854.578266 1517.357934 1853.712098 1514.45266 1861.940698 1506.359398 C 1861.940698 1506.359398 1888.575379 1489.342797 1869.519673 1451.989281 C 1869.519673 1451.989281 1868.870046 1464.855492 1859.775277 1472.326195 C 1850.463966 1480.004418 1851.330135 1485.192406 1850.89705 1498.266137 C 1850.463966 1511.547387 1849.597798 1510.717309 1848.515087 1512.377465 C 1848.515087 1512.377465 1831.624802 1481.664574 1844.617329 1465.063012 C 1857.609856 1448.668969 1864.755746 1445.141137 1850.463966 1414.635766 C 1850.463966 1414.635766 1851.113592 1430.40725 1839.63686 1438.085473 C 1828.160128 1445.763695 1830.975175 1464.025414 1830.975175 1464.025414 C 1830.975175 1464.025414 1831.624802 1470.873559 1829.242838 1475.854027 C 1829.242838 1475.854027 1813.002179 1444.311059 1828.593212 1427.294457 C 1841.585739 1412.76809 1842.66845 1402.599633 1835.52256 1382.055199 C 1835.52256 1382.055199 1834.656391 1391.601098 1827.293959 1396.789086 C 1820.148069 1401.977074 1814.301432 1406.957543 1815.817227 1426.671898 C 1815.817227 1426.671898 1816.250311 1440.575707 1814.517974 1444.518578 C 1814.517974 1444.518578 1807.805168 1431.859887 1805.856289 1423.559105 C 1803.90741 1415.465844 1803.257784 1410.485375 1808.238253 1402.392113 C 1813.218721 1394.091332 1833.140596 1370.434105 1809.320963 1336.400902 C 1809.320963 1336.400902 1808.671337 1347.606957 1802.608158 1357.360375 C 1796.544978 1367.321312 1799.360026 1379.149926 1800.659279 1388.280785 C 1801.958531 1397.204125 1797.627689 1405.919945 1797.627689 1405.919945 C 1797.627689 1405.919945 1787.233667 1387.035668 1789.399088 1365.246117 C 1791.781052 1343.456566 1782.902825 1325.609887 1762.764408 1312.743676 C 1762.764408 1312.743676 1748.256086 1346.569359 1768.177961 1363.79348 C 1768.177961 1363.79348 1785.068246 1380.602562 1789.399088 1400.939477 C 1789.399088 1400.939477 1776.406561 1399.694359 1764.929829 1377.07473 C 1753.236554 1354.247582 1728.983837 1357.982934 1727.468042 1357.775414 C 1727.468042 1357.775414 1731.3658 1392.846215 1768.611045 1402.807152 C 1768.611045 1402.807152 1792.214136 1406.750023 1796.76152 1424.181664 C 1796.76152 1424.181664 1800.659279 1436.217797 1802.391615 1442.650902 C 1802.391615 1442.650902 1794.812641 1439.538109 1787.883293 1429.369652 C 1780.953946 1419.201195 1781.820114 1417.956078 1758.433565 1415.465844 C 1758.433565 1415.465844 1748.905712 1414.428246 1743.925243 1407.787621 C 1743.925243 1407.787621 1753.886181 1444.933617 1779.221609 1444.518578 C 1779.221609 1444.518578 1802.391615 1442.028344 1815.384143 1472.533715 C 1815.384143 1472.533715 1812.785637 1471.081078 1809.320963 1468.590844 C 1806.072832 1466.308129 1797.411147 1461.950219 1780.520861 1464.025414 C 1763.414034 1466.100609 1758.866649 1463.195336 1754.535807 1461.742699 C 1754.535807 1461.742699 1771.642635 1493.285668 1795.895352 1483.947289 C 1819.931527 1474.60891 1831.624802 1508.642113 1832.057886 1509.264672 C 1832.057886 1509.264672 1828.809754 1506.774438 1824.478912 1502.624047 C 1820.148069 1498.266137 1811.269842 1493.078148 1794.596099 1498.473656 C 1794.596099 1498.473656 1782.46974 1503.246605 1770.12684 1499.511254 C 1770.12684 1499.511254 1782.036656 1522.338402 1809.537505 1518.395531 C 1837.038355 1514.45266 1843.967702 1538.732445 1843.967702 1538.732445 C 1843.967702 1538.732445 1840.286486 1536.44973 1837.904523 1534.582055 C 1835.306018 1532.506859 1825.994707 1527.318871 1806.072832 1533.129418 C 1786.150957 1538.939965 1779.005067 1532.29934 1779.005067 1532.29934 C 1779.005067 1532.29934 1790.048715 1552.428734 1811.269842 1554.711449 C 1811.269842 1554.711449 1823.179659 1554.50393 1828.160128 1552.636254 C 1833.140596 1550.768578 1846.349666 1547.863305 1855.444435 1561.144555 C 1855.444435 1561.144555 1853.062471 1561.559594 1849.164713 1559.899438 C 1849.164713 1559.899438 1835.089476 1554.711449 1824.26237 1563.634789 C 1824.26237 1563.634789 1814.734516 1573.595727 1801.092363 1571.728051 C 1801.092363 1571.728051 1818.632274 1588.744652 1846.566208 1574.218285 C 1846.566208 1574.218285 1856.094061 1567.370141 1863.023409 1572.765648 C 1869.952757 1577.953637 1885.976874 1567.57766 1885.976874 1567.57766 Z M 1885.976874 1567.57766 " transform="matrix(0.0180392,0,0,0.0188235,-26.845762,-18.675313)"/>
<path style="fill-rule:nonzero;fill:rgb(95.686275%,77.254902%,23.921569%);fill-opacity:1;stroke-width:3;stroke-linecap:butt;stroke-linejoin:miter;stroke:rgb(0.392157%,0%,0.784314%);stroke-opacity:1;stroke-miterlimit:10;" d="M 2041.021031 1146.728051 C 2041.021031 1146.728051 2037.772899 1117.675316 2060.942906 1114.977562 C 2084.979082 1112.072289 2096.888898 1117.052758 2096.888898 1117.052758 L 2107.716004 1138.42727 L 2104.034788 1152.746117 L 2089.093382 1159.594262 C 2089.093382 1159.594262 2091.691887 1137.597191 2071.55347 1137.182152 C 2066.356459 1136.974633 2063.32487 1139.049828 2055.312811 1137.804711 C 2047.300753 1136.352074 2042.96991 1145.275414 2041.021031 1146.728051 Z M 2041.021031 1146.728051 " transform="matrix(0.0180392,0,0,0.0188235,-26.845762,-18.675313)"/>
<path style="fill-rule:nonzero;fill:rgb(95.686275%,77.254902%,23.921569%);fill-opacity:1;stroke-width:3;stroke-linecap:butt;stroke-linejoin:miter;stroke:rgb(0.392157%,0%,0.784314%);stroke-opacity:1;stroke-miterlimit:10;" d="M 2203.644163 1218.322289 C 2200.179489 1222.680199 2186.537336 1224.132836 2186.537336 1224.132836 C 2186.537336 1224.132836 2200.612573 1235.131371 2206.675753 1250.695336 C 2212.738932 1266.259301 2042.536826 1250.695336 2042.536826 1250.695336 C 2042.536826 1250.695336 2049.899258 1245.507348 2054.879727 1235.54641 C 2054.879727 1235.54641 2047.517295 1238.244164 2039.938321 1230.773461 C 2039.938321 1230.773461 2045.568416 1232.641137 2052.930848 1221.642602 C 2052.930848 1221.642602 2063.757954 1207.531273 2071.55347 1203.795922 C 2071.55347 1203.795922 2067.872254 1206.078637 2059.427111 1201.305687 C 2059.427111 1201.305687 2074.151976 1199.438012 2079.348986 1174.328148 C 2079.348986 1174.328148 2080.431697 1168.725121 2085.84525 1160.631859 C 2091.475345 1152.538598 2090.392635 1162.292016 2100.786656 1149.840844 C 2100.786656 1149.840844 2105.334041 1140.917504 2101.21974 1135.521996 C 2097.10544 1130.126488 2092.774598 1132.201684 2084.112913 1127.013695 C 2075.451228 1121.825707 2071.55347 1118.920434 2074.58506 1111.034691 C 2077.400107 1102.94143 2085.195624 1104.186547 2086.278334 1104.186547 C 2087.361045 1104.186547 2088.010671 1097.338402 2097.321982 1092.565453 C 2106.849836 1087.792504 2131.752179 1089.867699 2135.649938 1091.942895 C 2139.331154 1094.01809 2154.489102 1098.376 2163.367329 1120.788109 C 2172.245556 1143.200219 2160.985365 1151.501 2185.021541 1185.326684 C 2185.021541 1185.326684 2175.493688 1187.401879 2169.213966 1185.534203 C 2169.213966 1185.534203 2181.773409 1207.738793 2203.644163 1218.322289 Z M 2203.644163 1218.322289 " transform="matrix(0.0180392,0,0,0.0188235,-26.845762,-18.675313)"/>
<path style="fill:none;stroke-width:3;stroke-linecap:butt;stroke-linejoin:miter;stroke:rgb(0.392157%,0%,0.784314%);stroke-opacity:1;stroke-miterlimit:10;" d="M 2098.404693 1123.900902 C 2078.69936 1122.863305 2086.278334 1104.186547 2086.278334 1104.186547 " transform="matrix(0.0180392,0,0,0.0188235,-26.845762,-18.675313)"/>
<path style="fill-rule:nonzero;fill:rgb(95.686275%,77.254902%,23.921569%);fill-opacity:1;stroke-width:3;stroke-linecap:butt;stroke-linejoin:miter;stroke:rgb(0.392157%,0%,0.784314%);stroke-opacity:1;stroke-miterlimit:10;" d="M 2132.401806 1126.391137 C 2132.401806 1126.391137 2128.937132 1124.73098 2125.905542 1120.788109 C 2121.791242 1115.392602 2112.696473 1112.902367 2107.716004 1117.882836 C 2107.716004 1117.882836 2102.735535 1123.485863 2098.404693 1123.900902 C 2098.404693 1123.900902 2103.385162 1125.353539 2106.849836 1128.673852 C 2110.31451 1131.786645 2113.995726 1134.069359 2118.976194 1133.446801 C 2124.173205 1132.616723 2125.039374 1129.918969 2127.421337 1128.258812 C 2129.8033 1126.806176 2132.401806 1126.391137 2132.401806 1126.391137 Z M 2132.401806 1126.391137 " transform="matrix(0.0180392,0,0,0.0188235,-26.845762,-18.675313)"/>
<path style="fill-rule:nonzero;fill:rgb(95.686275%,77.254902%,23.921569%);fill-opacity:1;stroke-width:3;stroke-linecap:butt;stroke-linejoin:miter;stroke:rgb(0.392157%,0%,0.784314%);stroke-opacity:1;stroke-miterlimit:4;" d="M 2259.945114 1405.712426 C 2259.945114 1405.712426 2278.351194 1420.653832 2293.509143 1405.712426 C 2293.509143 1405.712426 2299.788864 1413.183129 2312.131765 1411.107934 C 2324.691208 1408.825219 2326.640087 1402.392113 2327.722798 1398.656762 C 2327.722798 1398.656762 2338.549904 1404.882348 2347.644673 1399.901879 C 2356.739442 1394.92141 2356.739442 1387.450707 2356.739442 1387.450707 C 2356.739442 1387.450707 2372.330474 1390.5635 2380.342533 1379.980004 C 2388.571133 1369.396508 2383.590664 1358.813012 2379.259822 1357.567895 C 2379.259822 1357.567895 2396.366649 1361.925805 2400.914034 1347.399437 C 2404.811792 1334.948266 2395.933565 1328.51516 2395.933565 1328.51516 C 2395.933565 1328.51516 2431.879557 1328.307641 2446.604421 1317.101586 C 2446.604421 1317.101586 2458.73078 1309.423363 2451.368348 1301.330102 C 2451.368348 1301.330102 2483.633124 1296.142113 2491.645182 1283.275902 C 2491.645182 1283.275902 2495.326398 1279.74807 2494.027145 1273.730004 C 2494.027145 1273.730004 2493.810603 1270.202172 2490.345929 1269.994652 C 2490.345929 1269.994652 2527.15809 1264.184105 2537.768654 1252.147973 C 2537.768654 1252.147973 2542.965664 1246.544945 2540.367159 1239.074242 C 2540.367159 1239.074242 2539.717533 1236.999047 2538.851364 1235.75393 C 2538.851364 1235.75393 2572.415393 1228.698266 2588.872594 1213.756859 C 2588.872594 1213.756859 2598.400447 1205.248559 2593.419978 1193.834984 C 2593.419978 1193.834984 2649.504387 1178.478539 2636.51186 1153.991234 C 2636.51186 1153.991234 2662.713457 1145.482934 2654.484856 1121.825707 C 2654.484856 1121.825707 2675.922526 1110.827172 2666.611215 1093.395531 C 2657.516446 1076.793969 2629.799054 1096.300805 2596.884652 1105.431664 C 2596.884652 1105.431664 2508.102383 1133.446801 2464.360875 1140.917504 L 2339.849156 1326.024926 L 2267.307546 1354.040062 Z M 2259.945114 1405.712426 " transform="matrix(0.0180392,0,0,0.0188235,-26.845762,-18.675313)"/>
<path style="fill-rule:nonzero;fill:rgb(95.686275%,77.254902%,23.921569%);fill-opacity:1;stroke-width:3;stroke-linecap:butt;stroke-linejoin:miter;stroke:rgb(0.392157%,0%,0.784314%);stroke-opacity:1;stroke-miterlimit:4;" d="M 2259.078946 1269.372094 C 2259.078946 1269.372094 2270.77222 1260.656273 2291.560264 1271.03225 C 2291.560264 1271.03225 2298.489611 1275.805199 2304.119707 1270.409691 C 2308.667091 1266.051781 2309.100175 1257.95852 2302.820454 1253.18557 C 2287.229421 1241.771996 2281.599326 1207.323754 2305.202417 1193.004906 C 2305.202417 1193.004906 2339.416072 1172.667992 2464.793959 1140.709984 C 2464.793959 1140.709984 2475.404523 1137.804711 2481.034618 1139.257348 C 2487.097798 1140.709984 2491.42864 1146.105492 2492.294808 1150.670922 C 2492.294808 1150.670922 2497.924904 1166.442406 2478.869197 1175.573266 C 2478.869197 1175.573266 2470.424054 1179.516137 2461.76237 1182.006371 C 2461.76237 1182.006371 2471.290223 1179.931176 2475.404523 1189.477074 C 2479.302281 1198.607934 2473.672186 1207.946312 2455.915732 1213.964379 C 2455.915732 1213.964379 2451.151806 1215.832055 2444.439 1217.492211 C 2444.439 1217.492211 2459.596948 1221.850121 2452.234516 1234.093773 C 2452.234516 1234.093773 2445.738253 1246.959984 2422.784788 1249.242699 C 2422.784788 1249.242699 2439.891615 1251.110375 2427.765257 1267.296898 C 2427.765257 1267.296898 2422.568246 1276.220238 2405.894503 1279.540551 C 2405.894503 1279.540551 2418.453946 1279.95559 2412.174224 1291.369164 C 2405.677961 1302.782738 2390.736554 1309.215844 2375.795148 1310.253441 C 2375.795148 1310.253441 2367.78309 1310.66848 2362.152995 1309.423363 C 2362.152995 1309.423363 2376.228232 1316.479027 2367.999632 1328.100121 C 2367.999632 1328.100121 2361.936452 1336.608422 2346.778504 1336.193383 C 2346.778504 1336.193383 2350.676262 1349.267113 2339.416072 1354.247582 C 2330.754387 1358.190453 2323.608497 1351.964867 2323.608497 1351.964867 C 2323.608497 1351.964867 2326.423545 1366.076195 2313.864102 1371.056664 C 2313.864102 1371.056664 2307.367838 1374.376977 2298.056527 1371.056664 C 2298.056527 1371.056664 2290.910637 1387.243187 2265.142125 1376.037133 C 2239.373613 1364.623559 2259.078946 1269.372094 2259.078946 1269.372094 Z M 2259.078946 1269.372094 " transform="matrix(0.0180392,0,0,0.0188235,-26.845762,-18.675313)"/>
<path style="fill:none;stroke-width:3;stroke-linecap:butt;stroke-linejoin:miter;stroke:rgb(0.392157%,0%,0.784314%);stroke-opacity:1;stroke-miterlimit:4;" d="M 2654.484856 1121.825707 C 2654.484856 1121.825707 2613.99148 1145.067895 2488.613592 1168.517602 " transform="matrix(0.0180392,0,0,0.0188235,-26.845762,-18.675313)"/>
<path style="fill-rule:nonzero;fill:rgb(95.686275%,77.254902%,23.921569%);fill-opacity:1;stroke-width:3;stroke-linecap:butt;stroke-linejoin:miter;stroke:rgb(0.392157%,0%,0.784314%);stroke-opacity:1;stroke-miterlimit:4;" d="M 1934.482308 1534.582055 C 1934.482308 1534.582055 1919.540902 1560.314477 1901.351364 1560.729516 C 1901.351364 1560.729516 1870.169299 1556.994164 1861.507614 1565.087426 C 1855.227893 1570.690453 1848.948171 1575.463402 1846.566208 1589.98977 C 1843.967702 1604.308617 1851.330135 1607.42141 1853.062471 1608.043969 C 1853.062471 1608.043969 1854.578266 1618.419945 1864.755746 1615.722191 C 1864.755746 1615.722191 1865.405372 1626.513207 1883.378368 1621.325219 C 1901.567906 1616.13723 1908.930338 1617.797387 1912.611554 1599.743188 C 1916.076228 1581.896508 1919.32436 1582.104027 1922.572492 1580.028832 C 1926.903334 1577.123559 1935.131935 1574.218285 1940.978572 1570.897973 C 1946.392125 1567.78518 1967.180168 1557.201684 1974.326058 1556.371605 C 1981.471948 1555.541527 1979.739611 1531.676781 1979.739611 1531.676781 L 1961.550073 1531.676781 L 1952.671846 1518.603051 Z M 1934.482308 1534.582055 " transform="matrix(0.0180392,0,0,0.0188235,-26.845762,-18.675313)"/>
<path style="fill:none;stroke-width:3;stroke-linecap:butt;stroke-linejoin:miter;stroke:rgb(0.392157%,0%,0.784314%);stroke-opacity:1;stroke-miterlimit:4;" d="M 2636.51186 1153.991234 C 2636.51186 1153.991234 2527.374632 1189.477074 2476.487234 1193.834984 M 2593.419978 1193.834984 C 2593.419978 1193.834984 2529.540053 1213.964379 2454.61648 1226.62307 M 2538.851364 1235.75393 C 2538.851364 1235.75393 2466.526296 1253.18557 2432.096099 1256.090844 " transform="matrix(0.0180392,0,0,0.0188235,-26.845762,-18.675313)"/>
<path style="fill:none;stroke-width:3;stroke-linecap:butt;stroke-linejoin:miter;stroke:rgb(0.392157%,0%,0.784314%);stroke-opacity:1;stroke-miterlimit:10;" d="M 2490.345929 1269.994652 C 2490.345929 1269.994652 2429.281052 1282.653344 2413.690019 1284.10598 " transform="matrix(0.0180392,0,0,0.0188235,-26.845762,-18.675313)"/>
<path style="fill-rule:nonzero;fill:rgb(0%,50.588235%,77.647059%);fill-opacity:1;stroke-width:3;stroke-linecap:butt;stroke-linejoin:miter;stroke:rgb(0.392157%,0%,0.784314%);stroke-opacity:1;stroke-miterlimit:10;" d="M 2421.485535 1362.963402 L 2424.517125 1460.082543 L 2407.410298 1450.121605 L 2378.826738 1573.180688 L 2367.133463 1564.879906 L 2394.850855 1446.801293 L 2375.578606 1447.216332 Z M 2421.485535 1362.963402 " transform="matrix(0.0180392,0,0,0.0188235,-26.845762,-18.675313)"/>
<path style="fill:none;stroke-width:3;stroke-linecap:butt;stroke-linejoin:miter;stroke:rgb(0.392157%,0%,0.784314%);stroke-opacity:1;stroke-miterlimit:10;" d="M 2451.368348 1301.330102 C 2451.368348 1301.330102 2406.760671 1308.178246 2389.004217 1307.763207 M 2395.933565 1328.51516 C 2395.933565 1328.51516 2377.960569 1327.685082 2369.298885 1326.232445 M 2379.259822 1357.567895 C 2379.259822 1357.567895 2363.885332 1353.417504 2354.790563 1347.606957 M 2356.739442 1387.450707 C 2356.739442 1387.450707 2344.829625 1382.885277 2339.19953 1370.641625 M 2327.722798 1398.656762 C 2327.722798 1398.656762 2318.628029 1390.35598 2318.194944 1381.225121 " transform="matrix(0.0180392,0,0,0.0188235,-26.845762,-18.675313)"/>
<path style="fill-rule:nonzero;fill:rgb(0%,50.588235%,77.647059%);fill-opacity:1;stroke-width:3;stroke-linecap:butt;stroke-linejoin:miter;stroke:rgb(0.392157%,0%,0.784314%);stroke-opacity:1;stroke-miterlimit:10;" d="M 2532.355101 1406.127465 L 2491.861724 1493.285668 L 2481.034618 1476.061547 L 2395.500481 1577.331078 L 2386.18917 1566.955102 L 2471.506765 1466.930687 L 2454.183395 1457.799828 Z M 2532.355101 1406.127465 " transform="matrix(0.0180392,0,0,0.0188235,-26.845762,-18.675313)"/>
<path style="fill:none;stroke-width:3;stroke-linecap:butt;stroke-linejoin:miter;stroke:rgb(0.392157%,0%,0.784314%);stroke-opacity:1;stroke-miterlimit:10;" d="M 2293.509143 1405.712426 C 2293.509143 1405.712426 2296.973817 1402.807152 2294.591853 1389.940941 " transform="matrix(0.0180392,0,0,0.0188235,-26.845762,-18.675313)"/>
<path style="fill-rule:nonzero;fill:rgb(0%,50.588235%,77.647059%);fill-opacity:1;stroke-width:3;stroke-linecap:butt;stroke-linejoin:miter;stroke:rgb(0.392157%,0%,0.784314%);stroke-opacity:1;stroke-miterlimit:10;" d="M 2495.326398 1342.00393 L 2474.538355 1436.632836 L 2460.463117 1422.313988 L 2383.807207 1569.860375 L 2371.89739 1562.804711 L 2448.986385 1415.880883 L 2430.363762 1410.900414 Z M 2495.326398 1342.00393 " transform="matrix(0.0180392,0,0,0.0188235,-26.845762,-18.675313)"/>
<path style="fill:none;stroke-width:3;stroke-linecap:butt;stroke-linejoin:miter;stroke:rgb(0.392157%,0%,0.784314%);stroke-opacity:1;stroke-miterlimit:10;" d="M 2298.056527 1371.056664 C 2298.056527 1371.056664 2299.788864 1367.528832 2299.139238 1361.718285 " transform="matrix(0.0180392,0,0,0.0188235,-26.845762,-18.675313)"/>
<path style="fill-rule:nonzero;fill:rgb(95.686275%,77.254902%,23.921569%);fill-opacity:1;stroke-width:3;stroke-linecap:butt;stroke-linejoin:miter;stroke:rgb(0.392157%,0%,0.784314%);stroke-opacity:1;stroke-miterlimit:4;" d="M 1992.082512 1405.712426 C 1992.082512 1405.712426 1973.676432 1420.653832 1958.301942 1405.712426 C 1958.301942 1405.712426 1952.238762 1413.183129 1939.679319 1411.107934 C 1927.336418 1408.825219 1925.387539 1402.392113 1924.088287 1398.656762 C 1924.088287 1398.656762 1913.477723 1404.882348 1904.382954 1399.901879 C 1895.288185 1394.92141 1895.288185 1387.450707 1895.288185 1387.450707 C 1895.288185 1387.450707 1879.697152 1390.5635 1871.468552 1379.980004 C 1863.456493 1369.396508 1868.436962 1358.813012 1872.767804 1357.567895 C 1872.767804 1357.567895 1855.660977 1361.925805 1851.113592 1347.399437 C 1847.215834 1334.948266 1856.094061 1328.51516 1856.094061 1328.51516 C 1856.094061 1328.51516 1820.148069 1328.307641 1805.423205 1317.101586 C 1805.423205 1317.101586 1793.296846 1309.423363 1800.442736 1301.330102 C 1800.442736 1301.330102 1768.177961 1296.142113 1760.165902 1283.275902 C 1760.165902 1283.275902 1756.701228 1279.74807 1757.783939 1273.730004 C 1757.783939 1273.730004 1758.000481 1270.202172 1761.681697 1269.994652 C 1761.681697 1269.994652 1724.869537 1264.184105 1714.258973 1252.147973 C 1714.258973 1252.147973 1709.061962 1246.544945 1711.660467 1239.074242 C 1711.660467 1239.074242 1712.093552 1236.999047 1713.176262 1235.75393 C 1713.176262 1235.75393 1679.612234 1228.698266 1663.155033 1213.756859 C 1663.155033 1213.756859 1653.627179 1205.248559 1658.391106 1193.834984 C 1658.391106 1193.834984 1602.523239 1178.478539 1615.515766 1153.991234 C 1615.515766 1153.991234 1589.31417 1145.482934 1597.54277 1121.825707 C 1597.54277 1121.825707 1575.888558 1110.827172 1585.416412 1093.395531 C 1594.511181 1076.793969 1622.228572 1096.300805 1654.926432 1105.431664 C 1654.926432 1105.431664 1743.925243 1133.446801 1787.666751 1140.917504 L 1911.961928 1326.024926 L 1984.503538 1354.040062 Z M 1992.082512 1405.712426 " transform="matrix(0.0180392,0,0,0.0188235,-26.845762,-18.675313)"/>
<path style="fill:none;stroke-width:3;stroke-linecap:butt;stroke-linejoin:miter;stroke:rgb(0.392157%,0%,0.784314%);stroke-opacity:1;stroke-miterlimit:10;" d="M 2362.586079 1187.194359 C 2362.586079 1187.194359 2341.798035 1195.495141 2335.08523 1206.908715 C 2328.155882 1218.322289 2332.703266 1229.320824 2335.08523 1235.75393 C 2336.16794 1238.866723 2350.676262 1267.089379 2333.569435 1287.218773 " transform="matrix(0.0180392,0,0,0.0188235,-26.845762,-18.675313)"/>
<path style="fill-rule:nonzero;fill:rgb(95.686275%,77.254902%,23.921569%);fill-opacity:1;stroke-width:3;stroke-linecap:butt;stroke-linejoin:miter;stroke:rgb(0.392157%,0%,0.784314%);stroke-opacity:1;stroke-miterlimit:4;" d="M 1992.948681 1269.372094 C 1992.948681 1269.372094 1981.255406 1260.656273 1960.467363 1271.03225 C 1960.467363 1271.03225 1953.321473 1275.805199 1947.90792 1270.409691 C 1943.360535 1266.051781 1942.927451 1257.95852 1949.207173 1253.18557 C 1964.798205 1241.771996 1970.4283 1207.323754 1946.825209 1193.004906 C 1946.825209 1193.004906 1912.611554 1172.667992 1787.233667 1140.709984 C 1787.233667 1140.709984 1776.623103 1137.804711 1770.993008 1139.257348 C 1764.929829 1140.709984 1760.598986 1146.105492 1759.732818 1150.670922 C 1759.732818 1150.670922 1754.102723 1166.442406 1772.941887 1175.573266 C 1772.941887 1175.573266 1781.603572 1179.516137 1790.265257 1182.006371 C 1790.265257 1182.006371 1780.737404 1179.931176 1776.623103 1189.477074 C 1772.508803 1198.607934 1778.35544 1207.946312 1796.111894 1213.964379 C 1796.111894 1213.964379 1800.875821 1215.832055 1807.588626 1217.492211 C 1807.588626 1217.492211 1792.430678 1221.850121 1799.79311 1234.093773 C 1799.79311 1234.093773 1806.289374 1246.959984 1829.242838 1249.242699 C 1829.242838 1249.242699 1812.136011 1251.110375 1824.045827 1267.296898 C 1824.045827 1267.296898 1829.45938 1276.220238 1846.133124 1279.540551 C 1846.133124 1279.540551 1833.573681 1279.95559 1839.853402 1291.369164 C 1846.349666 1302.782738 1861.291072 1309.215844 1876.015936 1310.253441 C 1876.015936 1310.253441 1884.027995 1310.66848 1889.65809 1309.423363 C 1889.65809 1309.423363 1875.582852 1316.479027 1884.027995 1328.100121 C 1884.027995 1328.100121 1890.091174 1336.608422 1905.249122 1336.193383 C 1905.249122 1336.193383 1901.351364 1349.267113 1912.395012 1354.247582 C 1921.273239 1358.190453 1928.419129 1351.964867 1928.419129 1351.964867 C 1928.419129 1351.964867 1925.387539 1366.076195 1938.163524 1371.056664 C 1938.163524 1371.056664 1944.443246 1374.376977 1953.971099 1371.056664 C 1953.971099 1371.056664 1961.116989 1387.243187 1986.885501 1376.037133 C 2012.437471 1364.623559 1992.948681 1269.372094 1992.948681 1269.372094 Z M 1992.948681 1269.372094 " transform="matrix(0.0180392,0,0,0.0188235,-26.845762,-18.675313)"/>
<path style="fill:none;stroke-width:3;stroke-linecap:butt;stroke-linejoin:miter;stroke:rgb(0.392157%,0%,0.784314%);stroke-opacity:1;stroke-miterlimit:10;" d="M 2362.152995 1309.423363 C 2362.152995 1309.423363 2362.152995 1309.215844 2354.790563 1306.933129 M 2405.894503 1279.540551 C 2405.894503 1279.540551 2393.551602 1282.030785 2381.425243 1282.030785 M 2422.784788 1249.242699 C 2422.784788 1249.242699 2408.276466 1250.695336 2394.850855 1250.487816 M 2444.439 1217.492211 C 2444.439 1217.492211 2423.434414 1221.642602 2412.390766 1221.850121 M 2461.76237 1182.006371 C 2461.76237 1182.006371 2435.993857 1189.477074 2416.721609 1191.967309 M 2374.279353 1207.116234 C 2374.279353 1207.116234 2392.901976 1224.340355 2370.598137 1240.319359 C 2370.598137 1240.319359 2379.909448 1254.845727 2361.286826 1269.994652 " transform="matrix(0.0180392,0,0,0.0188235,-26.845762,-18.675313)"/>
<path style="fill-rule:nonzero;fill:rgb(95.686275%,77.254902%,23.921569%);fill-opacity:1;stroke-width:3;stroke-linecap:butt;stroke-linejoin:miter;stroke:rgb(0.392157%,0%,0.784314%);stroke-opacity:1;stroke-miterlimit:4;" d="M 1994.464476 1416.295922 C 1994.464476 1416.295922 1990.566717 1436.425316 1960.683905 1461.950219 C 1960.683905 1461.950219 1937.73044 1482.287133 1938.380067 1505.52932 C 1938.813151 1529.394066 1934.265766 1532.09182 1925.170997 1540.185082 C 1925.170997 1540.185082 1943.79362 1541.637719 1952.888389 1529.186547 C 1952.888389 1529.186547 1952.455304 1549.9385 1949.640257 1551.806176 C 1949.640257 1551.806176 1955.486894 1552.221215 1964.148579 1542.882836 C 1964.148579 1542.882836 1969.129048 1537.487328 1973.892974 1535.412133 C 1973.892974 1535.412133 1968.479421 1549.73098 1972.810264 1563.01223 C 1972.810264 1563.01223 1974.109516 1557.824242 1981.471948 1555.541527 C 1981.471948 1555.541527 1994.464476 1552.843773 1999.661486 1533.751977 C 1999.661486 1533.751977 2003.12616 1521.093285 2023.697662 1509.88723 C 2023.697662 1509.88723 2047.084211 1501.17141 2046.434584 1489.550316 C 2045.784958 1478.136742 1994.464476 1416.295922 1994.464476 1416.295922 Z M 1994.464476 1416.295922 " transform="matrix(0.0180392,0,0,0.0188235,-26.845762,-18.675313)"/>
<path style="fill:none;stroke-width:3;stroke-linecap:butt;stroke-linejoin:miter;stroke:rgb(0.392157%,0%,0.784314%);stroke-opacity:1;stroke-miterlimit:10;" d="M 2366.267295 1277.050316 C 2366.267295 1277.050316 2369.082342 1304.650414 2335.301772 1304.650414 C 2335.301772 1304.650414 2341.798035 1329.345238 2309.100175 1328.51516 C 2309.100175 1328.51516 2305.418959 1348.229516 2281.815868 1344.286645 " transform="matrix(0.0180392,0,0,0.0188235,-26.845762,-18.675313)"/>
<path style="fill-rule:nonzero;fill:rgb(95.686275%,77.254902%,23.921569%);fill-opacity:1;stroke-width:3;stroke-linecap:butt;stroke-linejoin:miter;stroke:rgb(0.392157%,0%,0.784314%);stroke-opacity:1;stroke-miterlimit:4;" d="M 2317.545318 1534.582055 C 2317.545318 1534.582055 2332.486724 1560.314477 2350.676262 1560.729516 C 2350.676262 1560.729516 2381.858327 1556.994164 2390.520012 1565.087426 C 2396.799734 1570.690453 2402.862913 1575.463402 2405.461418 1589.98977 C 2408.059924 1604.308617 2400.697492 1607.42141 2398.748613 1608.043969 C 2398.748613 1608.043969 2397.44936 1618.419945 2387.27188 1615.722191 C 2387.27188 1615.722191 2386.622254 1626.513207 2368.649258 1621.325219 C 2350.45972 1616.13723 2342.880746 1617.797387 2339.416072 1599.743188 C 2335.951398 1581.896508 2332.703266 1582.104027 2329.455135 1580.028832 C 2325.124292 1577.123559 2316.895692 1574.218285 2310.832512 1570.897973 C 2305.418959 1567.78518 2284.847458 1557.201684 2277.701568 1556.371605 C 2270.555678 1555.541527 2272.288015 1531.676781 2272.288015 1531.676781 L 2290.477553 1531.676781 L 2299.35578 1518.603051 Z M 2317.545318 1534.582055 " transform="matrix(0.0180392,0,0,0.0188235,-26.845762,-18.675313)"/>
<path style="fill-rule:nonzero;fill:rgb(95.686275%,77.254902%,23.921569%);fill-opacity:1;stroke-width:3;stroke-linecap:butt;stroke-linejoin:miter;stroke:rgb(0.392157%,0%,0.784314%);stroke-opacity:1;stroke-miterlimit:4;" d="M 2257.563151 1416.295922 C 2257.563151 1416.295922 2261.460909 1436.425316 2291.127179 1461.950219 C 2291.127179 1461.950219 2314.297186 1482.287133 2313.64756 1505.52932 C 2312.997933 1529.394066 2317.76186 1532.09182 2326.856629 1540.185082 C 2326.856629 1540.185082 2308.234007 1541.637719 2299.139238 1529.186547 C 2299.139238 1529.186547 2299.572322 1549.9385 2302.170827 1551.806176 C 2302.170827 1551.806176 2296.32419 1552.221215 2287.879048 1542.882836 C 2287.879048 1542.882836 2282.898579 1537.487328 2278.134652 1535.412133 C 2278.134652 1535.412133 2283.548205 1549.73098 2279.217363 1563.01223 C 2279.217363 1563.01223 2277.91811 1557.824242 2270.555678 1555.541527 C 2270.555678 1555.541527 2257.346609 1552.843773 2252.36614 1533.751977 C 2252.36614 1533.751977 2248.901466 1521.093285 2228.329965 1509.88723 C 2228.329965 1509.88723 2204.943416 1501.17141 2205.593042 1489.550316 C 2206.026126 1478.136742 2257.563151 1416.295922 2257.563151 1416.295922 Z M 2257.563151 1416.295922 " transform="matrix(0.0180392,0,0,0.0188235,-26.845762,-18.675313)"/>
<path style="fill:none;stroke-width:3;stroke-linecap:butt;stroke-linejoin:miter;stroke:rgb(0.392157%,0%,0.784314%);stroke-opacity:1;stroke-miterlimit:4;" d="M 2333.785977 1560.729516 C 2333.785977 1560.729516 2338.982988 1561.974633 2350.676262 1560.729516 " transform="matrix(0.0180392,0,0,0.0188235,-26.845762,-18.675313)"/>
<path style="fill:none;stroke-width:3;stroke-linecap:butt;stroke-linejoin:miter;stroke:rgb(0.392157%,0%,0.784314%);stroke-opacity:1;stroke-miterlimit:10;" d="M 2383.374122 1575.255883 C 2383.374122 1575.255883 2399.614781 1572.765648 2398.748613 1608.043969 M 2373.413185 1583.349145 C 2373.413185 1583.349145 2388.138049 1581.481469 2387.27188 1615.722191 " transform="matrix(0.0180392,0,0,0.0188235,-26.845762,-18.675313)"/>
<path style="fill:none;stroke-width:3;stroke-linecap:butt;stroke-linejoin:miter;stroke:rgb(0.392157%,0%,0.784314%);stroke-opacity:1;stroke-miterlimit:4;" d="M 2231.145012 1500.341332 C 2231.145012 1500.341332 2238.07436 1501.793969 2243.054829 1507.396996 C 2248.035298 1513.000023 2257.346609 1511.962426 2257.346609 1511.962426 C 2257.346609 1511.962426 2252.36614 1507.812035 2250.633803 1497.436059 C 2248.684924 1487.060082 2243.054829 1484.154809 2243.054829 1484.154809 M 2259.945114 1474.193871 C 2259.945114 1474.193871 2267.091004 1475.646508 2272.071473 1481.249535 C 2276.835399 1486.852562 2286.363253 1485.814965 2286.363253 1485.814965 C 2286.363253 1485.814965 2281.166242 1481.664574 2279.433905 1471.288598 C 2277.701568 1460.912621 2272.071473 1457.799828 2272.071473 1457.799828 M 2264.925583 1514.45266 C 2264.925583 1514.45266 2270.988762 1515.697777 2275.319605 1520.678246 C 2279.650447 1525.451195 2287.879048 1524.621117 2287.879048 1524.621117 C 2287.879048 1524.621117 2283.331663 1520.885766 2281.815868 1511.962426 C 2280.300073 1502.831566 2275.319605 1500.133812 2275.319605 1500.133812 " transform="matrix(0.0180392,0,0,0.0188235,-26.845762,-18.675313)"/>
<path style="fill-rule:nonzero;fill:rgb(95.686275%,77.254902%,23.921569%);fill-opacity:1;stroke-width:3;stroke-linecap:butt;stroke-linejoin:miter;stroke:rgb(0.392157%,0%,0.784314%);stroke-opacity:1;stroke-miterlimit:10;" d="M 2149.075549 1676.940453 C 2149.075549 1676.940453 2154.489102 1700.59768 2173.111724 1698.522484 C 2173.111724 1698.522484 2186.320793 1697.277367 2185.238083 1675.487816 C 2185.238083 1675.487816 2204.726874 1685.863793 2207.975005 1660.131371 C 2207.975005 1660.131371 2225.731459 1664.281762 2225.514917 1640.209496 C 2225.514917 1640.209496 2241.972118 1643.11477 2240.023239 1621.740258 C 2240.023239 1621.740258 2257.996235 1626.513207 2257.996235 1606.383813 C 2257.996235 1606.383813 2299.788864 1599.535668 2212.52239 1519.848168 L 2134.567227 1566.332543 Z M 2149.075549 1676.940453 " transform="matrix(0.0180392,0,0,0.0188235,-26.845762,-18.675313)"/>
<path style="fill-rule:nonzero;fill:rgb(95.686275%,77.254902%,23.921569%);fill-opacity:1;stroke-width:3;stroke-linecap:butt;stroke-linejoin:miter;stroke:rgb(0.392157%,0%,0.784314%);stroke-opacity:1;stroke-miterlimit:4;" d="M 2140.413864 1570.690453 C 2140.413864 1570.690453 2153.406391 1582.311547 2162.717702 1565.087426 C 2162.717702 1565.087426 2175.277145 1564.464867 2177.226024 1554.918969 C 2177.226024 1554.918969 2187.403504 1553.881371 2189.352383 1544.127953 C 2189.352383 1544.127953 2203.427621 1542.675316 2202.994537 1530.846703 C 2202.994537 1530.846703 2228.329965 1528.979027 2202.994537 1500.133812 C 2177.659109 1471.496117 2134.567227 1547.863305 2134.567227 1547.863305 Z M 2140.413864 1570.690453 " transform="matrix(0.0180392,0,0,0.0188235,-26.845762,-18.675313)"/>
<path style="fill:none;stroke-width:3;stroke-linecap:butt;stroke-linejoin:miter;stroke:rgb(0.392157%,0%,0.784314%);stroke-opacity:1;stroke-miterlimit:10;" d="M 2185.238083 1675.487816 C 2185.238083 1675.487816 2183.289204 1633.776391 2147.343212 1574.218285 M 2207.975005 1660.131371 C 2207.975005 1660.131371 2213.605101 1636.059105 2162.717702 1565.087426 C 2162.717702 1565.087426 2168.56434 1548.070824 2150.591344 1537.279809 M 2225.514917 1640.209496 C 2225.514917 1640.209496 2227.030712 1614.269555 2177.226024 1554.918969 C 2177.226024 1554.918969 2181.556867 1539.562523 2163.583871 1527.318871 M 2240.023239 1621.740258 C 2240.023239 1621.740258 2238.07436 1595.385277 2189.352383 1544.127953 C 2189.352383 1544.127953 2191.950889 1528.356469 2174.410977 1518.603051 M 2257.996235 1606.383813 C 2257.996235 1606.383813 2254.315019 1576.501 2202.994537 1530.846703 C 2202.994537 1530.846703 2204.726874 1519.01809 2187.620046 1506.981957 " transform="matrix(0.0180392,0,0,0.0188235,-26.845762,-18.675313)"/>
<path style="fill-rule:nonzero;fill:rgb(95.686275%,77.254902%,23.921569%);fill-opacity:1;stroke-width:3;stroke-linecap:butt;stroke-linejoin:miter;stroke:rgb(0.392157%,0%,0.784314%);stroke-opacity:1;stroke-miterlimit:10;" d="M 2102.952077 1676.940453 C 2102.952077 1676.940453 2097.538524 1700.59768 2078.915902 1698.522484 C 2078.915902 1698.522484 2065.706833 1697.277367 2066.573001 1675.487816 C 2066.573001 1675.487816 2047.300753 1685.863793 2044.052621 1660.131371 C 2044.052621 1660.131371 2026.296167 1664.281762 2026.512709 1640.209496 C 2026.512709 1640.209496 2010.055508 1643.11477 2012.004387 1621.740258 C 2012.004387 1621.740258 1994.031391 1626.513207 1994.031391 1606.383813 C 1994.031391 1606.383813 1952.238762 1599.535668 2039.505236 1519.848168 L 2117.460399 1566.332543 Z M 2102.952077 1676.940453 " transform="matrix(0.0180392,0,0,0.0188235,-26.845762,-18.675313)"/>
<path style="fill-rule:nonzero;fill:rgb(95.686275%,77.254902%,23.921569%);fill-opacity:1;stroke-width:3;stroke-linecap:butt;stroke-linejoin:miter;stroke:rgb(0.392157%,0%,0.784314%);stroke-opacity:1;stroke-miterlimit:4;" d="M 2111.613762 1570.690453 C 2111.613762 1570.690453 2098.621235 1582.311547 2089.309924 1565.087426 C 2089.309924 1565.087426 2076.750481 1564.464867 2074.801602 1554.918969 C 2074.801602 1554.918969 2064.624122 1553.881371 2062.458701 1544.127953 C 2062.458701 1544.127953 2048.600005 1542.675316 2049.03309 1530.846703 C 2049.03309 1530.846703 2023.697662 1528.979027 2049.03309 1500.133812 C 2074.368518 1471.496117 2117.460399 1547.863305 2117.460399 1547.863305 Z M 2111.613762 1570.690453 " transform="matrix(0.0180392,0,0,0.0188235,-26.845762,-18.675313)"/>
<path style="fill:none;stroke-width:3;stroke-linecap:butt;stroke-linejoin:miter;stroke:rgb(0.392157%,0%,0.784314%);stroke-opacity:1;stroke-miterlimit:10;" d="M 2066.573001 1675.487816 C 2066.573001 1675.487816 2068.738423 1633.776391 2104.684414 1574.218285 M 2044.052621 1660.131371 C 2044.052621 1660.131371 2038.422526 1636.059105 2089.309924 1565.087426 C 2089.309924 1565.087426 2083.463287 1548.070824 2101.436283 1537.279809 " transform="matrix(0.0180392,0,0,0.0188235,-26.845762,-18.675313)"/>
<path style="fill-rule:nonzero;fill:rgb(95.686275%,77.254902%,23.921569%);fill-opacity:1;stroke-width:3;stroke-linecap:butt;stroke-linejoin:miter;stroke:rgb(0.392157%,0%,0.784314%);stroke-opacity:1;stroke-miterlimit:4;" d="M 2125.905542 1563.634789 C 2138.681527 1563.634789 2152.756765 1642.284691 2149.075549 1689.599145 C 2147.776296 1706.823266 2138.681527 1720.727074 2125.905542 1720.727074 C 2113.346099 1720.727074 2104.25133 1706.823266 2102.952077 1689.599145 C 2099.054319 1642.284691 2113.346099 1563.634789 2125.905542 1563.634789 " transform="matrix(0.0180392,0,0,0.0188235,-26.845762,-18.675313)"/>
<path style="fill:none;stroke-width:3;stroke-linecap:butt;stroke-linejoin:miter;stroke:rgb(0.392157%,0%,0.784314%);stroke-opacity:1;stroke-miterlimit:10;" d="M 2026.512709 1640.209496 C 2026.512709 1640.209496 2024.996914 1614.269555 2074.801602 1554.918969 C 2074.801602 1554.918969 2070.254217 1539.562523 2088.443755 1527.318871 M 2012.004387 1621.740258 C 2012.004387 1621.740258 2013.953266 1595.385277 2062.458701 1544.127953 C 2062.458701 1544.127953 2060.076738 1528.356469 2077.616649 1518.603051 " transform="matrix(0.0180392,0,0,0.0188235,-26.845762,-18.675313)"/>
<path style="fill-rule:nonzero;fill:rgb(95.686275%,77.254902%,23.921569%);fill-opacity:1;stroke-width:3;stroke-linecap:butt;stroke-linejoin:miter;stroke:rgb(0.392157%,0%,0.784314%);stroke-opacity:1;stroke-miterlimit:4;" d="M 2143.445454 1563.01223 C 2143.445454 1548.693383 2135.649938 1537.279809 2125.905542 1537.279809 C 2116.377689 1537.279809 2108.582173 1548.693383 2108.582173 1563.01223 C 2108.582173 1577.123559 2116.377689 1588.744652 2125.905542 1588.744652 C 2135.649938 1588.744652 2143.445454 1577.123559 2143.445454 1563.01223 Z M 2143.445454 1563.01223 " transform="matrix(0.0180392,0,0,0.0188235,-26.845762,-18.675313)"/>
<path style="fill:none;stroke-width:3;stroke-linecap:butt;stroke-linejoin:miter;stroke:rgb(0.392157%,0%,0.784314%);stroke-opacity:1;stroke-miterlimit:10;" d="M 1994.031391 1606.383813 C 1994.031391 1606.383813 1997.712607 1576.501 2049.03309 1530.846703 C 2049.03309 1530.846703 2047.300753 1519.01809 2064.40758 1506.981957 " transform="matrix(0.0180392,0,0,0.0188235,-26.845762,-18.675313)"/>
<path style="fill-rule:nonzero;fill:rgb(100%,100%,100%);fill-opacity:1;stroke-width:3;stroke-linecap:butt;stroke-linejoin:miter;stroke:rgb(0.392157%,0%,0.784314%);stroke-opacity:1;stroke-miterlimit:4;" d="M 2125.905542 1557.409203 C 2125.905542 1557.409203 2273.587268 1491.833031 2274.020352 1340.551293 L 1978.007274 1340.551293 C 1978.440359 1491.833031 2125.905542 1557.409203 2125.905542 1557.409203 Z M 2125.905542 1557.409203 " transform="matrix(0.0180392,0,0,0.0188235,-26.845762,-18.675313)"/>
<path style="fill:none;stroke-width:3;stroke-linecap:butt;stroke-linejoin:miter;stroke:rgb(0.392157%,0%,0.784314%);stroke-opacity:1;stroke-miterlimit:10;" d="M 2046.218042 1340.551293 L 2069.171507 1340.551293 M 2000.744197 1340.551293 L 2023.48112 1340.551293 M 2091.908429 1340.551293 L 2114.645352 1340.551293 " transform="matrix(0.0180392,0,0,0.0188235,-26.845762,-18.675313)"/>
<path style="fill-rule:nonzero;fill:rgb(65.098039%,0%,19.607843%);fill-opacity:1;stroke-width:3;stroke-linecap:butt;stroke-linejoin:miter;stroke:rgb(0.392157%,0%,0.784314%);stroke-opacity:1;stroke-miterlimit:4;" d="M 2000.744197 1340.551293 L 2000.744197 1437.255395 C 2000.744197 1437.255395 2012.004387 1459.667504 2023.48112 1473.778832 L 2023.48112 1340.551293 Z M 2046.218042 1340.551293 L 2046.218042 1499.926293 C 2046.218042 1499.926293 2060.509822 1513.830102 2069.171507 1520.678246 L 2069.171507 1340.551293 Z M 2091.908429 1340.551293 L 2091.908429 1537.694848 C 2091.908429 1537.694848 2108.149088 1548.070824 2114.645352 1551.598656 L 2114.645352 1340.551293 Z M 2091.908429 1340.551293 " transform="matrix(0.0180392,0,0,0.0188235,-26.845762,-18.675313)"/>
<path style="fill:none;stroke-width:3;stroke-linecap:butt;stroke-linejoin:miter;stroke:rgb(0.392157%,0%,0.784314%);stroke-opacity:1;stroke-miterlimit:4;" d="M 2000.744197 1340.551293 L 2023.48112 1340.551293 M 2046.218042 1340.551293 L 2069.171507 1340.551293 M 2091.908429 1340.551293 L 2114.645352 1340.551293 " transform="matrix(0.0180392,0,0,0.0188235,-26.845762,-18.675313)"/>
<path style="fill-rule:nonzero;fill:rgb(65.098039%,0%,19.607843%);fill-opacity:1;stroke-width:3;stroke-linecap:butt;stroke-linejoin:miter;stroke:rgb(0.392157%,0%,0.784314%);stroke-opacity:1;stroke-miterlimit:4;" d="M 2251.283429 1340.551293 L 2251.283429 1437.255395 C 2251.283429 1437.255395 2240.023239 1459.667504 2228.546507 1473.778832 L 2228.546507 1340.551293 Z M 2205.809584 1340.551293 L 2205.809584 1499.926293 C 2205.809584 1499.926293 2191.517804 1513.830102 2182.85612 1520.678246 L 2182.85612 1340.551293 Z M 2160.119197 1340.551293 L 2160.119197 1537.694848 C 2160.119197 1537.694848 2143.878538 1548.070824 2137.382274 1551.598656 L 2137.382274 1340.551293 Z M 2160.119197 1340.551293 " transform="matrix(0.0180392,0,0,0.0188235,-26.845762,-18.675313)"/>
<path style="fill-rule:nonzero;fill:rgb(0%,50.588235%,77.647059%);fill-opacity:1;stroke-width:3;stroke-linecap:butt;stroke-linejoin:miter;stroke:rgb(0.392157%,0%,0.784314%);stroke-opacity:1;stroke-miterlimit:10;" d="M 2364.7515 1614.684594 L 2358.904863 1638.134301 L 2374.712438 1653.905785 L 2352.408599 1747.704613 L 2332.703266 1721.142113 L 2303.47008 1734.838402 L 2325.557376 1641.039574 L 2346.34542 1635.229027 L 2351.542431 1611.77932 C 2351.542431 1611.77932 2357.822152 1609.289086 2364.7515 1614.684594 Z M 2364.7515 1614.684594 " transform="matrix(0.0180392,0,0,0.0188235,-26.845762,-18.675313)"/>
<path style="fill-rule:nonzero;fill:rgb(0%,50.588235%,77.647059%);fill-opacity:1;stroke-width:3;stroke-linecap:butt;stroke-linejoin:miter;stroke:rgb(0.392157%,0%,0.784314%);stroke-opacity:1;stroke-miterlimit:10;" d="M 2369.948511 1599.328148 L 2358.688321 1620.287621 L 2369.948511 1639.794457 L 2325.557376 1724.254906 L 2312.997933 1693.334496 L 2281.382784 1698.522484 L 2325.773918 1614.062035 L 2347.211588 1614.062035 L 2358.038694 1592.895043 C 2358.038694 1592.895043 2366.050753 1592.895043 2369.948511 1599.328148 Z M 2369.948511 1599.328148 " transform="matrix(0.0180392,0,0,0.0188235,-26.845762,-18.675313)"/>
<path style="fill-rule:nonzero;fill:rgb(0%,50.588235%,77.647059%);fill-opacity:1;stroke-width:3;stroke-linecap:butt;stroke-linejoin:miter;stroke:rgb(0.392157%,0%,0.784314%);stroke-opacity:1;stroke-miterlimit:10;" d="M 2371.89739 1605.346215 L 2341.798035 1643.529809 L 2348.727383 1665.319359 L 2287.229421 1737.121117 L 2281.599326 1703.917992 L 2249.767635 1701.427758 L 2311.049054 1629.626 L 2331.837098 1634.813988 L 2363.885332 1594.14016 C 2363.885332 1594.14016 2372.330474 1598.290551 2371.89739 1605.346215 Z M 2371.89739 1605.346215 " transform="matrix(0.0180392,0,0,0.0188235,-26.845762,-18.675313)"/>
<path style="fill:none;stroke-width:3;stroke-linecap:butt;stroke-linejoin:miter;stroke:rgb(0.392157%,0%,0.784314%);stroke-opacity:1;stroke-miterlimit:4;" d="M 1597.54277 1121.825707 C 1597.54277 1121.825707 1637.819605 1145.067895 1763.414034 1168.517602 M 1615.515766 1153.991234 C 1615.515766 1153.991234 1724.652995 1189.477074 1775.323851 1193.834984 M 1658.391106 1193.834984 C 1658.391106 1193.834984 1722.487573 1213.964379 1797.411147 1226.62307 M 1713.176262 1235.75393 C 1713.176262 1235.75393 1785.50133 1253.18557 1819.931527 1256.090844 " transform="matrix(0.0180392,0,0,0.0188235,-26.845762,-18.675313)"/>
<path style="fill:none;stroke-width:3;stroke-linecap:butt;stroke-linejoin:miter;stroke:rgb(0.392157%,0%,0.784314%);stroke-opacity:1;stroke-miterlimit:10;" d="M 1761.681697 1269.994652 C 1761.681697 1269.994652 1822.746575 1282.653344 1838.337607 1284.10598 M 1800.442736 1301.330102 C 1800.442736 1301.330102 1845.266955 1308.178246 1863.023409 1307.763207 M 1856.094061 1328.51516 C 1856.094061 1328.51516 1874.067057 1327.685082 1882.728742 1326.232445 M 1872.767804 1357.567895 C 1872.767804 1357.567895 1888.142295 1353.417504 1897.020522 1347.606957 M 1895.288185 1387.450707 C 1895.288185 1387.450707 1907.198001 1382.885277 1912.828096 1370.641625 M 1924.088287 1398.656762 C 1924.088287 1398.656762 1933.183056 1390.35598 1933.832682 1381.225121 M 1958.301942 1405.712426 C 1958.301942 1405.712426 1954.837268 1402.807152 1957.219231 1389.940941 M 1953.971099 1371.056664 C 1953.971099 1371.056664 1952.238762 1367.528832 1952.671846 1361.718285 M 1889.441548 1187.194359 C 1889.441548 1187.194359 1910.013049 1195.495141 1916.942397 1206.908715 C 1923.871745 1218.322289 1919.32436 1229.320824 1916.942397 1235.75393 C 1915.859686 1238.866723 1901.134822 1267.089379 1918.241649 1287.218773 M 1889.65809 1309.423363 C 1889.65809 1309.423363 1889.874632 1309.215844 1897.020522 1306.933129 M 1846.133124 1279.540551 C 1846.133124 1279.540551 1858.476024 1282.030785 1870.602383 1282.030785 M 1829.242838 1249.242699 C 1829.242838 1249.242699 1843.534618 1250.695336 1857.176772 1250.487816 " transform="matrix(0.0180392,0,0,0.0188235,-26.845762,-18.675313)"/>
<path style="fill-rule:nonzero;fill:rgb(21.176471%,58.039216%,26.27451%);fill-opacity:1;stroke-width:3;stroke-linecap:butt;stroke-linejoin:miter;stroke:rgb(0.392157%,0%,0.784314%);stroke-opacity:1;stroke-miterlimit:10;" d="M 1882.945284 1610.534203 C 1882.945284 1610.534203 1882.5122 1597.875512 1898.319774 1597.045434 L 1945.309414 1662.206566 C 1945.309414 1662.206566 1943.577077 1666.356957 1922.35595 1665.941918 C 1922.35595 1665.941918 1919.973986 1665.941918 1918.891276 1668.432152 C 1916.942397 1672.167504 1882.945284 1610.534203 1882.945284 1610.534203 Z M 1882.945284 1610.534203 " transform="matrix(0.0180392,0,0,0.0188235,-26.845762,-18.675313)"/>
<path style="fill:none;stroke-width:3;stroke-linecap:butt;stroke-linejoin:miter;stroke:rgb(0.392157%,0%,0.784314%);stroke-opacity:1;stroke-miterlimit:10;" d="M 1807.588626 1217.492211 C 1807.588626 1217.492211 1828.37667 1221.642602 1839.63686 1221.850121 M 1790.265257 1182.006371 C 1790.265257 1182.006371 1816.033769 1189.477074 1835.089476 1191.967309 M 1877.531731 1207.116234 C 1877.531731 1207.116234 1859.125651 1224.340355 1881.429489 1240.319359 C 1881.429489 1240.319359 1872.118178 1254.845727 1890.524258 1269.994652 M 1885.760332 1277.050316 C 1885.760332 1277.050316 1882.945284 1304.650414 1916.725855 1304.650414 C 1916.725855 1304.650414 1910.229591 1329.345238 1942.927451 1328.51516 C 1942.927451 1328.51516 1946.608667 1348.229516 1970.211758 1344.286645 " transform="matrix(0.0180392,0,0,0.0188235,-26.845762,-18.675313)"/>
<path style="fill:none;stroke-width:3;stroke-linecap:butt;stroke-linejoin:miter;stroke:rgb(0.392157%,0%,0.784314%);stroke-opacity:1;stroke-miterlimit:4;" d="M 1918.241649 1560.729516 C 1918.241649 1560.729516 1912.828096 1561.974633 1901.351364 1560.729516 " transform="matrix(0.0180392,0,0,0.0188235,-26.845762,-18.675313)"/>
<path style="fill:none;stroke-width:3;stroke-linecap:butt;stroke-linejoin:miter;stroke:rgb(0.392157%,0%,0.784314%);stroke-opacity:1;stroke-miterlimit:10;" d="M 1868.653504 1575.255883 C 1868.653504 1575.255883 1852.412845 1572.765648 1853.062471 1608.043969 M 1878.397899 1583.349145 C 1878.397899 1583.349145 1863.673035 1581.481469 1864.755746 1615.722191 " transform="matrix(0.0180392,0,0,0.0188235,-26.845762,-18.675313)"/>
<path style="fill:none;stroke-width:3;stroke-linecap:butt;stroke-linejoin:miter;stroke:rgb(0.392157%,0%,0.784314%);stroke-opacity:1;stroke-miterlimit:4;" d="M 2020.882614 1500.341332 C 2020.882614 1500.341332 2013.736724 1501.793969 2008.972798 1507.396996 C 2003.992329 1513.000023 1994.464476 1511.962426 1994.464476 1511.962426 C 1994.464476 1511.962426 1999.661486 1507.812035 2001.393823 1497.436059 C 2003.12616 1487.060082 2008.972798 1484.154809 2008.972798 1484.154809 M 1992.082512 1474.193871 C 1992.082512 1474.193871 1984.936622 1475.646508 1979.956154 1481.249535 C 1975.192227 1486.852562 1965.664374 1485.814965 1965.664374 1485.814965 C 1965.664374 1485.814965 1970.861385 1481.664574 1972.593721 1471.288598 C 1974.326058 1460.912621 1979.956154 1457.799828 1979.956154 1457.799828 M 1987.102043 1514.45266 C 1987.102043 1514.45266 1981.038864 1515.697777 1976.708022 1520.678246 C 1972.377179 1525.451195 1964.148579 1524.621117 1964.148579 1524.621117 C 1964.148579 1524.621117 1968.695963 1520.885766 1970.211758 1511.962426 C 1971.727553 1502.831566 1976.708022 1500.133812 1976.708022 1500.133812 " transform="matrix(0.0180392,0,0,0.0188235,-26.845762,-18.675313)"/>
<path style="fill-rule:nonzero;fill:rgb(8.627451%,14.901961%,40.392157%);fill-opacity:1;stroke-width:3;stroke-linecap:butt;stroke-linejoin:miter;stroke:rgb(0.392157%,0%,0.784314%);stroke-opacity:1;stroke-miterlimit:10;" d="M 2274.020352 1230.565941 C 2274.020352 1230.565941 2201.478742 1268.542016 2125.905542 1227.453148 C 2050.332342 1268.542016 1978.007274 1230.565941 1978.007274 1230.565941 L 1978.007274 1340.551293 L 2274.020352 1340.551293 Z M 2274.020352 1230.565941 " transform="matrix(0.0180392,0,0,0.0188235,-26.845762,-18.675313)"/>
<path style="fill-rule:nonzero;fill:rgb(0%,50.588235%,77.647059%);fill-opacity:1;stroke-width:3;stroke-linecap:butt;stroke-linejoin:miter;stroke:rgb(0.392157%,0%,0.784314%);stroke-opacity:1;stroke-miterlimit:10;" d="M 1609.236045 1515.697777 C 1616.381935 1512.792504 1621.578946 1510.09475 1621.578946 1502.416527 C 1621.578946 1500.548852 1620.712777 1496.398461 1618.547356 1490.172875 L 1570.475005 1343.041527 C 1567.443416 1334.325707 1565.277995 1329.137719 1564.411826 1327.062523 C 1562.246405 1322.912133 1557.915563 1321.251977 1552.285467 1318.969262 L 1613.566887 1318.969262 C 1606.854082 1322.082055 1600.790902 1324.572289 1600.790902 1331.627953 C 1600.790902 1334.325707 1601.657071 1338.061059 1603.172865 1343.041527 L 1639.985026 1458.422387 L 1677.013728 1343.041527 C 1678.529523 1338.061059 1679.395692 1334.325707 1679.179149 1331.627953 C 1679.179149 1324.36477 1672.899428 1321.667016 1666.619707 1318.969262 L 1725.952247 1318.969262 C 1720.538694 1321.044457 1716.207852 1322.704613 1713.825889 1327.062523 C 1712.95972 1329.137719 1710.794299 1334.325707 1707.979251 1343.041527 L 1659.690359 1490.172875 C 1657.74148 1496.398461 1656.875311 1500.548852 1656.658769 1502.416527 C 1656.658769 1502.416527 1654.493348 1511.754906 1669.00167 1515.697777 Z M 2636.078776 1500.548852 L 2636.078776 1333.910668 C 2636.078776 1331.005395 2635.429149 1328.72268 2634.562981 1327.270043 C 2633.696813 1325.817406 2629.36597 1321.251977 2623.519333 1318.969262 L 2678.737573 1318.969262 C 2672.890936 1320.836937 2668.776636 1325.609887 2667.693925 1327.270043 C 2666.827757 1328.72268 2666.394673 1331.005395 2666.394673 1333.910668 L 2666.394673 1500.548852 C 2666.394673 1503.661645 2666.827757 1505.944359 2667.693925 1507.396996 C 2668.776636 1509.057152 2672.890936 1513.000023 2678.737573 1515.697777 L 2623.519333 1515.697777 C 2629.36597 1513.000023 2633.696813 1508.849633 2634.562981 1507.396996 C 2635.429149 1505.944359 2636.078776 1503.661645 2636.078776 1500.548852 Z M 2636.078776 1500.548852 " transform="matrix(0.0180392,0,0,0.0188235,-26.845762,-18.675313)"/>
</g>
</svg>
