<?xml version="1.0" encoding="UTF-8"?>
<svg xmlns="http://www.w3.org/2000/svg" xmlns:xlink="http://www.w3.org/1999/xlink" width="24px" height="16px" viewBox="0 0 26 16" version="1.1">
<g id="surface1">
<path style=" stroke:none;fill-rule:nonzero;fill:rgb(82.352941%,6.27451%,20.392157%);fill-opacity:1;" d="M 0 0 L 26 0 L 26 8 L 0 8 Z M 0 0 "/>
<path style=" stroke:none;fill-rule:nonzero;fill:rgb(0%,58.431373%,26.27451%);fill-opacity:1;" d="M 0 8 L 26 8 L 26 16 L 0 16 Z M 0 8 "/>
<path style=" stroke:none;fill-rule:nonzero;fill:rgb(0%,0%,0%);fill-opacity:1;" d="M 0 0 L 15.128906 8 L 0 16 Z M 0 0 "/>
<path style=" stroke:none;fill-rule:nonzero;fill:rgb(0%,0%,0%);fill-opacity:1;" d="M 0 6.570312 L 26 6.570312 L 26 9.429688 L 0 9.429688 Z M 0 6.570312 "/>
<path style=" stroke:none;fill-rule:nonzero;fill:rgb(99.215686%,80.784314%,7.058824%);fill-opacity:1;" d="M 0 1.136719 L 12.980469 8 L 0 14.863281 Z M 0 1.136719 "/>
<path style=" stroke:none;fill-rule:nonzero;fill:rgb(99.215686%,80.784314%,7.058824%);fill-opacity:1;" d="M 0 7.578125 L 26 7.578125 L 26 8.421875 L 0 8.421875 Z M 0 7.578125 "/>
<path style=" stroke:none;fill-rule:nonzero;fill:rgb(0%,0%,0%);fill-opacity:1;" d="M 0 2.085938 L 11.1875 8 L 0 13.914062 Z M 0 2.085938 "/>
<path style=" stroke:none;fill-rule:nonzero;fill:rgb(99.215686%,80.784314%,7.058824%);fill-opacity:1;" d="M 3.160156 9.53125 L 3.160156 10.441406 C 3.933594 10.441406 5.453125 9.835938 5.453125 7.878906 C 5.453125 5.921875 3.832031 5.558594 3.347656 5.558594 C 2.863281 5.558594 1.367188 5.914062 1.367188 7.515625 C 1.367188 9.117188 2.835938 9.265625 3.125 9.265625 C 3.414062 9.265625 4.496094 8.996094 4.375 7.796875 C 4.375 8.136719 4 8.855469 3.210938 8.855469 C 2.421875 8.855469 1.933594 8.253906 1.933594 7.664062 C 1.933594 7.070312 2.410156 6.277344 3.238281 6.277344 C 4.070312 6.277344 4.679688 7.03125 4.679688 7.796875 C 4.679688 8.558594 4.09375 9.53125 3.160156 9.53125 Z M 3.160156 9.53125 "/>
<path style="fill-rule:nonzero;fill:rgb(99.215686%,80.784314%,7.058824%);fill-opacity:1;stroke-width:1;stroke-linecap:butt;stroke-linejoin:miter;stroke:rgb(99.215686%,80.784314%,7.058824%);stroke-opacity:1;stroke-miterlimit:4;" d="M 90.77524 297.246094 L 92.345252 298.359375 C 92.345252 298.359375 105.761719 267.883301 141.729267 246.174316 C 137.161959 248.679199 113.040865 260.646973 90.77524 297.246094 Z M 90.77524 297.246094 " transform="matrix(0.0273684,0,0,0.0280702,0,0)"/>
<path style=" stroke:none;fill-rule:nonzero;fill:rgb(99.215686%,80.784314%,7.058824%);fill-opacity:1;" d="M 2.578125 8.195312 C 2.578125 8.195312 2.464844 7.957031 2.5625 7.851562 C 2.664062 7.746094 2.617188 8.132812 2.617188 8.132812 L 2.660156 8.070312 C 2.660156 8.070312 2.59375 7.777344 2.671875 7.714844 C 2.746094 7.65625 2.707031 7.996094 2.707031 7.996094 L 2.753906 7.933594 C 2.753906 7.933594 2.707031 7.652344 2.777344 7.597656 C 2.851562 7.546875 2.804688 7.867188 2.804688 7.867188 L 2.859375 7.800781 C 2.859375 7.800781 2.820312 7.53125 2.910156 7.46875 C 2.996094 7.402344 2.917969 7.722656 2.917969 7.722656 L 2.980469 7.65625 C 2.980469 7.65625 2.953125 7.410156 3.027344 7.355469 C 3.105469 7.296875 3.039062 7.585938 3.039062 7.585938 L 3.09375 7.53125 C 3.09375 7.53125 3.078125 7.296875 3.148438 7.246094 C 3.222656 7.191406 3.15625 7.464844 3.15625 7.464844 L 3.210938 7.410156 C 3.210938 7.410156 3.199219 7.179688 3.289062 7.132812 C 3.382812 7.089844 3.273438 7.351562 3.273438 7.351562 L 3.335938 7.296875 C 3.335938 7.296875 3.355469 7.027344 3.433594 7 C 3.511719 6.976562 3.398438 7.242188 3.398438 7.242188 L 3.457031 7.191406 C 3.457031 7.191406 3.484375 6.960938 3.574219 6.933594 C 3.660156 6.90625 3.519531 7.144531 3.519531 7.144531 L 3.574219 7.101562 C 3.574219 7.101562 3.636719 6.871094 3.71875 6.84375 C 3.800781 6.820312 3.636719 7.0625 3.636719 7.0625 L 3.6875 7.023438 C 3.6875 7.023438 3.777344 6.816406 3.851562 6.800781 C 3.925781 6.789062 3.769531 6.972656 3.769531 6.972656 L 3.839844 6.933594 C 3.839844 6.933594 3.953125 6.714844 3.996094 6.78125 C 4.035156 6.847656 3.832031 6.945312 3.832031 6.945312 L 3.765625 6.984375 C 3.765625 6.984375 4.011719 6.863281 4.042969 6.925781 C 4.070312 6.988281 3.703125 7.027344 3.703125 7.027344 L 3.644531 7.066406 C 3.644531 7.066406 3.890625 7 3.859375 7.0625 C 3.828125 7.125 3.585938 7.113281 3.585938 7.113281 L 3.527344 7.152344 C 3.527344 7.152344 3.777344 7.09375 3.742188 7.152344 C 3.710938 7.210938 3.46875 7.203125 3.46875 7.203125 L 3.410156 7.253906 C 3.410156 7.253906 3.652344 7.191406 3.617188 7.265625 C 3.582031 7.339844 3.308594 7.335938 3.308594 7.335938 L 3.238281 7.402344 C 3.238281 7.402344 3.492188 7.3125 3.472656 7.382812 C 3.449219 7.453125 3.160156 7.488281 3.160156 7.488281 L 3.09375 7.554688 C 3.09375 7.554688 3.371094 7.460938 3.289062 7.546875 C 3.207031 7.632812 3.007812 7.65625 3.007812 7.65625 L 2.929688 7.75 C 2.929688 7.75 3.203125 7.585938 3.164062 7.679688 C 3.125 7.773438 2.859375 7.839844 2.859375 7.839844 L 2.804688 7.90625 C 2.804688 7.90625 3.050781 7.761719 3.023438 7.839844 C 3 7.921875 2.742188 8.007812 2.742188 8.007812 L 2.695312 8.070312 C 2.695312 8.070312 2.984375 7.894531 2.960938 7.980469 C 2.9375 8.070312 2.660156 8.136719 2.660156 8.136719 L 2.625 8.191406 C 2.625 8.191406 2.890625 8.035156 2.894531 8.109375 C 2.898438 8.183594 2.582031 8.261719 2.582031 8.261719 Z M 2.578125 8.195312 "/>
<path style="fill-rule:nonzero;fill:rgb(99.215686%,80.784314%,7.058824%);fill-opacity:1;stroke-width:1;stroke-linecap:butt;stroke-linejoin:miter;stroke:rgb(99.215686%,80.784314%,7.058824%);stroke-opacity:1;stroke-miterlimit:4;" d="M 90.776142 297.246094 L 92.346154 298.359375 C 92.346154 298.359375 105.76262 267.883301 141.730168 246.174316 C 137.162861 248.679199 113.041767 260.646973 90.776142 297.246094 Z M 90.776142 297.246094 " transform="matrix(-0.0273684,0,0,0.0280702,6.527368,0)"/>
<path style=" stroke:none;fill-rule:nonzero;fill:rgb(99.215686%,80.784314%,7.058824%);fill-opacity:1;" d="M 3.949219 8.195312 C 3.949219 8.195312 4.0625 7.957031 3.964844 7.851562 C 3.863281 7.746094 3.910156 8.132812 3.910156 8.132812 L 3.867188 8.070312 C 3.867188 8.070312 3.933594 7.777344 3.855469 7.714844 C 3.78125 7.65625 3.820312 7.996094 3.820312 7.996094 L 3.773438 7.933594 C 3.773438 7.933594 3.820312 7.652344 3.75 7.597656 C 3.675781 7.546875 3.722656 7.867188 3.722656 7.867188 L 3.667969 7.800781 C 3.667969 7.800781 3.707031 7.53125 3.617188 7.46875 C 3.53125 7.402344 3.609375 7.722656 3.609375 7.722656 L 3.546875 7.65625 C 3.546875 7.65625 3.574219 7.410156 3.5 7.355469 C 3.421875 7.296875 3.488281 7.585938 3.488281 7.585938 L 3.433594 7.53125 C 3.433594 7.53125 3.449219 7.296875 3.378906 7.246094 C 3.304688 7.191406 3.371094 7.464844 3.371094 7.464844 L 3.316406 7.410156 C 3.316406 7.410156 3.328125 7.179688 3.238281 7.132812 C 3.144531 7.089844 3.253906 7.351562 3.253906 7.351562 L 3.191406 7.296875 C 3.191406 7.296875 3.171875 7.027344 3.09375 7 C 3.015625 6.976562 3.128906 7.242188 3.128906 7.242188 L 3.070312 7.191406 C 3.070312 7.191406 3.042969 6.960938 2.953125 6.933594 C 2.867188 6.90625 3.007812 7.144531 3.007812 7.144531 L 2.953125 7.101562 C 2.953125 7.101562 2.890625 6.871094 2.808594 6.84375 C 2.726562 6.820312 2.894531 7.0625 2.894531 7.0625 L 2.839844 7.023438 C 2.839844 7.023438 2.75 6.816406 2.675781 6.800781 C 2.601562 6.789062 2.757812 6.972656 2.757812 6.972656 L 2.6875 6.933594 C 2.6875 6.933594 2.574219 6.714844 2.53125 6.78125 C 2.492188 6.847656 2.695312 6.945312 2.695312 6.945312 L 2.761719 6.984375 C 2.761719 6.984375 2.515625 6.863281 2.484375 6.925781 C 2.457031 6.988281 2.824219 7.027344 2.824219 7.027344 L 2.882812 7.066406 C 2.882812 7.066406 2.636719 7 2.667969 7.0625 C 2.699219 7.125 2.941406 7.113281 2.941406 7.113281 L 3 7.152344 C 3 7.152344 2.75 7.09375 2.785156 7.152344 C 2.816406 7.210938 3.058594 7.203125 3.058594 7.203125 L 3.117188 7.253906 C 3.117188 7.253906 2.875 7.191406 2.910156 7.265625 C 2.945312 7.339844 3.21875 7.335938 3.21875 7.335938 L 3.289062 7.402344 C 3.289062 7.402344 3.035156 7.3125 3.054688 7.382812 C 3.078125 7.453125 3.367188 7.488281 3.367188 7.488281 L 3.433594 7.554688 C 3.433594 7.554688 3.15625 7.460938 3.238281 7.546875 C 3.320312 7.632812 3.519531 7.65625 3.519531 7.65625 L 3.597656 7.75 C 3.597656 7.75 3.324219 7.585938 3.363281 7.679688 C 3.402344 7.773438 3.667969 7.839844 3.667969 7.839844 L 3.722656 7.90625 C 3.722656 7.90625 3.476562 7.761719 3.503906 7.839844 C 3.527344 7.921875 3.785156 8.007812 3.785156 8.007812 L 3.832031 8.070312 C 3.832031 8.070312 3.542969 7.894531 3.566406 7.980469 C 3.589844 8.070312 3.867188 8.136719 3.867188 8.136719 L 3.902344 8.191406 C 3.902344 8.191406 3.636719 8.035156 3.632812 8.109375 C 3.628906 8.183594 3.945312 8.261719 3.945312 8.261719 Z M 3.949219 8.195312 "/>
</g>
</svg>
