<?xml version="1.0" encoding="UTF-8"?>
<svg xmlns="http://www.w3.org/2000/svg" xmlns:xlink="http://www.w3.org/1999/xlink" width="24px" height="16px" viewBox="0 0 32 16" version="1.1">
<g id="surface1">
<rect x="0" y="0" width="32" height="16" style="fill:rgb(80.784314%,6.666667%,14.901961%);fill-opacity:1;stroke:none;"/>
<path style=" stroke:none;fill-rule:nonzero;fill:rgb(0%,16.862745%,49.803922%);fill-opacity:1;" d="M 0 0 L 16 0 L 16 8 L 0 8 Z M 0 0 "/>
<path style=" stroke:none;fill-rule:nonzero;fill:rgb(100%,100%,100%);fill-opacity:1;" d="M 8 0.332031 L 8.550781 2.023438 L 7.109375 0.980469 L 8.890625 0.980469 L 7.449219 2.023438 Z M 8 0.332031 "/>
<path style=" stroke:none;fill-rule:nonzero;fill:rgb(100%,100%,100%);fill-opacity:1;" d="M 5.554688 2.332031 L 6.105469 4.023438 L 4.667969 2.980469 L 6.445312 2.980469 L 5.007812 4.023438 Z M 5.554688 2.332031 "/>
<path style=" stroke:none;fill-rule:nonzero;fill:rgb(100%,100%,100%);fill-opacity:1;" d="M 10.5 2 L 11.015625 3.585938 L 9.667969 2.605469 L 11.332031 2.605469 L 9.984375 3.585938 Z M 10.5 2 "/>
<path style=" stroke:none;fill-rule:nonzero;fill:rgb(100%,100%,100%);fill-opacity:1;" d="M 9.222656 4.054688 L 9.566406 5.109375 L 8.667969 4.457031 L 9.777344 4.457031 L 8.878906 5.109375 Z M 9.222656 4.054688 "/>
<path style=" stroke:none;fill-rule:nonzero;fill:rgb(100%,100%,100%);fill-opacity:1;" d="M 8 5.554688 L 8.6875 7.667969 L 6.890625 6.359375 L 9.109375 6.359375 L 7.3125 7.667969 Z M 8 5.554688 "/>
</g>
</svg>
