<?xml version="1.0" encoding="UTF-8"?>
<svg xmlns="http://www.w3.org/2000/svg" xmlns:xlink="http://www.w3.org/1999/xlink" width="24px" height="16px" viewBox="0 0 22 16" version="1.1">
<g id="surface1">
<rect x="0" y="0" width="22" height="16" style="fill:rgb(14.117647%,29.019608%,64.705882%);fill-opacity:1;stroke:none;"/>
<path style=" stroke:none;fill-rule:nonzero;fill:rgb(81.568627%,65.098039%,31.372549%);fill-opacity:1;" d="M 11.117188 5.070312 C 11.210938 5.179688 11.273438 5.289062 11.273438 5.421875 C 11.195312 5.460938 11.089844 5.476562 11.027344 5.546875 C 11.410156 5.492188 11.488281 5.945312 11.917969 5.773438 C 11.933594 5.835938 11.992188 5.890625 12.070312 5.867188 L 12.117188 5.742188 C 12.285156 5.695312 12.238281 5.976562 12.421875 5.921875 C 12.515625 6 12.453125 6.132812 12.515625 6.226562 C 12.515625 6.335938 12.5625 6.429688 12.609375 6.523438 C 12.652344 6.46875 12.683594 6.390625 12.792969 6.414062 C 12.867188 6.5 12.929688 6.578125 12.945312 6.671875 C 12.914062 6.851562 12.867188 7.007812 13.050781 7.101562 L 13.050781 7.15625 C 13.175781 7.210938 13.453125 7.101562 13.453125 7.320312 C 13.4375 7.398438 13.527344 7.328125 13.558594 7.375 C 13.636719 7.34375 13.742188 7.359375 13.835938 7.359375 C 13.910156 7.523438 13.742188 7.640625 13.699219 7.789062 C 13.773438 7.867188 13.742188 8.007812 13.726562 8.101562 L 13.683594 8.125 C 13.804688 8.148438 13.957031 8.109375 14.066406 8.179688 L 14.265625 8.257812 C 14.355469 8.203125 14.464844 8.195312 14.585938 8.203125 C 14.679688 8.273438 14.554688 8.390625 14.632812 8.445312 C 14.742188 8.445312 14.832031 8.460938 14.847656 8.554688 L 14.863281 8.585938 C 14.941406 8.445312 15.15625 8.539062 15.246094 8.4375 C 15.402344 8.4375 15.429688 8.609375 15.507812 8.703125 C 15.539062 8.945312 15.246094 9.054688 15.339844 9.296875 C 15.277344 9.414062 15.15625 9.507812 15.0625 9.617188 C 15.09375 9.632812 15.078125 9.671875 15.078125 9.695312 C 14.984375 9.75 15.0625 9.914062 14.941406 9.929688 C 14.925781 10.03125 14.742188 9.992188 14.800781 10.101562 C 14.925781 10.265625 14.742188 10.367188 14.742188 10.515625 C 14.664062 10.601562 14.511719 10.4375 14.511719 10.601562 C 14.417969 10.625 14.324219 10.515625 14.265625 10.609375 C 14.234375 10.71875 14.324219 10.757812 14.3125 10.867188 C 14.464844 10.851562 14.511719 11.007812 14.570312 11.101562 L 14.726562 11.257812 C 14.570312 11.382812 14.371094 11.242188 14.1875 11.3125 C 14.140625 11.289062 14.1875 11.226562 14.140625 11.203125 C 14.097656 11.148438 14.003906 11.148438 13.925781 11.132812 C 13.941406 11.203125 13.804688 11.226562 13.867188 11.3125 C 13.867188 11.335938 13.894531 11.40625 13.835938 11.40625 C 13.710938 11.445312 13.726562 11.296875 13.621094 11.351562 C 13.480469 11.40625 13.589844 11.617188 13.390625 11.59375 C 13.421875 11.78125 13.082031 11.90625 13.3125 12.070312 C 13.34375 12.101562 13.328125 12.164062 13.328125 12.210938 C 13.191406 12.335938 12.945312 12.289062 12.792969 12.242188 C 12.667969 12.210938 12.746094 12.054688 12.699219 11.96875 C 12.652344 11.890625 12.515625 11.835938 12.515625 11.726562 C 12.421875 11.6875 12.347656 11.664062 12.285156 11.585938 C 12.070312 11.796875 11.808594 12 11.503906 12.007812 C 11.363281 12.078125 11.289062 12.359375 11.074219 12.242188 C 10.988281 12.382812 10.734375 12.242188 10.71875 12.445312 C 10.621094 12.484375 10.667969 12.617188 10.605469 12.679688 C 10.582031 12.835938 10.605469 12.96875 10.734375 13.0625 C 10.789062 13.179688 10.621094 13.179688 10.6875 13.289062 C 10.703125 13.328125 10.6875 13.382812 10.667969 13.398438 C 10.621094 13.421875 10.605469 13.445312 10.621094 13.492188 C 10.582031 13.492188 10.566406 13.515625 10.535156 13.546875 C 10.496094 13.625 10.375 13.664062 10.289062 13.71875 C 10.207031 13.742188 10.144531 13.679688 10.089844 13.625 C 10.074219 13.710938 10.007812 13.757812 9.921875 13.757812 C 9.800781 13.757812 9.820312 13.648438 9.730469 13.601562 C 9.769531 13.460938 9.644531 13.398438 9.683594 13.273438 C 9.785156 13.195312 9.953125 13.140625 9.90625 12.976562 C 9.800781 12.84375 9.835938 12.648438 9.730469 12.492188 C 9.660156 12.429688 9.546875 12.335938 9.585938 12.1875 C 9.683594 12.070312 9.585938 11.929688 9.53125 11.804688 C 9.507812 11.703125 9.445312 11.609375 9.445312 11.492188 C 9.277344 11.390625 9.269531 11.125 9.03125 11.101562 C 8.863281 11.101562 8.832031 10.882812 8.664062 10.898438 C 8.648438 10.867188 8.609375 10.84375 8.578125 10.8125 C 8.457031 10.898438 8.304688 10.789062 8.148438 10.828125 C 8.050781 10.65625 8.234375 10.421875 7.964844 10.320312 L 7.964844 10.210938 C 7.996094 10.226562 8.011719 10.195312 8.019531 10.179688 C 8.035156 10.0625 7.828125 10.046875 7.910156 9.914062 C 7.867188 9.875 7.8125 9.859375 7.84375 9.78125 C 7.726562 9.539062 7.382812 9.5625 7.304688 9.320312 C 7.367188 9.265625 7.367188 9.210938 7.390625 9.164062 C 7.335938 9.070312 7.320312 8.96875 7.335938 8.867188 C 7.390625 8.851562 7.421875 8.78125 7.453125 8.726562 C 7.382812 8.679688 7.296875 8.609375 7.222656 8.632812 C 7.082031 8.609375 6.984375 8.5 6.859375 8.4375 C 6.828125 8.40625 6.84375 8.351562 6.84375 8.3125 C 7.015625 8.257812 6.820312 8.015625 7.027344 8.046875 C 7.082031 7.976562 7.199219 7.953125 7.28125 7.898438 C 7.367188 7.882812 7.4375 7.914062 7.519531 7.9375 C 7.589844 8.03125 7.710938 7.992188 7.78125 8.070312 C 7.851562 8.054688 7.933594 8.015625 8.019531 8.054688 C 8.019531 7.921875 8.082031 7.84375 8.171875 7.75 C 8.1875 7.695312 8.273438 7.65625 8.339844 7.625 C 8.472656 7.65625 8.625 7.65625 8.71875 7.5625 C 8.777344 7.601562 8.832031 7.523438 8.902344 7.523438 C 8.984375 7.507812 9.054688 7.53125 9.117188 7.570312 C 9.125 7.414062 9.390625 7.546875 9.445312 7.359375 C 9.507812 7.234375 9.277344 7.1875 9.292969 7.078125 C 9.253906 6.953125 9.347656 6.890625 9.390625 6.804688 C 9.445312 6.78125 9.507812 6.75 9.578125 6.765625 C 9.753906 6.703125 9.613281 6.335938 9.898438 6.46875 C 9.898438 6.507812 9.882812 6.554688 9.90625 6.5625 C 10.007812 6.5625 10.023438 6.445312 10.089844 6.40625 C 10.121094 6.296875 10.050781 6.164062 10.144531 6.078125 C 10.191406 6.070312 10.230469 6.054688 10.257812 6.015625 C 10.257812 5.929688 10.214844 5.882812 10.144531 5.828125 C 10.121094 5.867188 10.058594 5.835938 10.023438 5.851562 C 10.023438 5.757812 9.96875 5.695312 9.953125 5.609375 C 9.90625 5.585938 9.882812 5.546875 9.898438 5.492188 C 9.96875 5.421875 9.898438 5.25 10.058594 5.289062 C 10.121094 5.234375 10.230469 5.273438 10.289062 5.179688 C 10.453125 5.085938 10.667969 5.085938 10.789062 4.914062 C 10.84375 4.921875 10.902344 4.867188 10.957031 4.914062 C 10.972656 5.015625 11.117188 4.976562 11.117188 5.070312 "/>
<path style=" stroke:none;fill-rule:nonzero;fill:rgb(100%,100%,100%);fill-opacity:1;" d="M 12.308594 2.953125 L 12.09375 2.289062 L 11.886719 2.953125 L 11.199219 2.953125 L 11.753906 3.363281 L 11.542969 4.027344 L 12.09375 3.617188 L 12.648438 4.027344 L 12.4375 3.363281 L 12.992188 2.953125 Z M 14.464844 3.339844 L 14.253906 2.675781 L 14.042969 3.339844 L 13.355469 3.339844 L 13.914062 3.75 L 13.699219 4.414062 L 14.253906 4.003906 L 14.808594 4.414062 L 14.597656 3.75 L 15.152344 3.339844 Z M 16.523438 4.101562 L 16.3125 3.441406 L 16.101562 4.101562 L 15.414062 4.101562 L 15.972656 4.511719 L 15.757812 5.175781 L 16.3125 4.765625 L 16.867188 5.175781 L 16.65625 4.511719 L 17.210938 4.101562 Z M 10.113281 2.953125 L 9.90625 2.289062 L 9.691406 2.953125 L 9.007812 2.953125 L 9.5625 3.363281 L 9.351562 4.027344 L 9.90625 3.617188 L 10.457031 4.027344 L 10.246094 3.363281 L 10.800781 2.953125 Z M 7.957031 3.339844 L 7.746094 2.675781 L 7.535156 3.339844 L 6.847656 3.339844 L 7.402344 3.75 L 7.191406 4.414062 L 7.746094 4.003906 L 8.300781 4.414062 L 8.085938 3.75 L 8.644531 3.339844 Z M 5.898438 4.101562 L 5.6875 3.441406 L 5.476562 4.101562 L 4.789062 4.101562 L 5.34375 4.511719 L 5.132812 5.175781 L 5.6875 4.765625 L 6.242188 5.175781 L 6.027344 4.511719 L 6.585938 4.101562 Z M 5.898438 4.101562 "/>
</g>
</svg>
