<?xml version="1.0" encoding="UTF-8"?>
<svg xmlns="http://www.w3.org/2000/svg" xmlns:xlink="http://www.w3.org/1999/xlink" width="24px" height="16px" viewBox="0 0 32 16" version="1.1">
<g id="surface1">
<rect x="0" y="0" width="32" height="16" style="fill:rgb(0%,39.215686%,0%);fill-opacity:1;stroke:none;"/>
<path style=" stroke:none;fill-rule:nonzero;fill:rgb(100%,82.352941%,0%);fill-opacity:1;" d="M 0 2.285156 L 32 2.285156 L 32 13.714844 L 0 13.714844 Z M 0 2.285156 "/>
<path style=" stroke:none;fill-rule:nonzero;fill:rgb(83.137255%,0%,0%);fill-opacity:1;" d="M 0 4.570312 L 32 4.570312 L 32 11.429688 L 0 11.429688 Z M 0 4.570312 "/>
<path style=" stroke:none;fill-rule:nonzero;fill:rgb(0%,0%,0%);fill-opacity:1;" d="M 0 6.855469 L 32 6.855469 L 32 9.144531 L 0 9.144531 Z M 0 6.855469 "/>
<path style="fill-rule:nonzero;fill:rgb(0%,0%,0%);fill-opacity:1;stroke-width:30;stroke-linecap:butt;stroke-linejoin:miter;stroke:rgb(0%,0%,0%);stroke-opacity:1;stroke-miterlimit:4;" d="M 0 0 L 0 630 L 420.05127 315 Z M 0 0 " transform="matrix(0.0253968,0,0,0.0253968,0,0)"/>
<path style=" stroke:none;fill-rule:nonzero;fill:rgb(100%,100%,100%);fill-opacity:1;" d="M 0 0 L 0 16 L 10.667969 8 Z M 0 0 "/>
<path style=" stroke:none;fill-rule:nonzero;fill:rgb(83.137255%,0%,0%);fill-opacity:1;" d="M 4.058594 3.976562 L 6.171875 10.480469 L 0.640625 6.460938 L 7.476562 6.460938 L 1.945312 10.480469 Z M 4.058594 3.976562 "/>
<path style=" stroke:none;fill-rule:evenodd;fill:rgb(100%,82.352941%,0%);fill-opacity:1;" d="M 3.882812 5.554688 C 4.160156 5.542969 4.394531 5.757812 4.40625 6.035156 C 4.417969 6.3125 4.203125 6.546875 3.925781 6.558594 L 4.125 6.757812 L 4.34375 6.746094 C 4.476562 6.789062 4.558594 6.921875 4.539062 7.0625 C 4.519531 7.199219 4.40625 7.308594 4.265625 7.316406 C 4.128906 7.324219 4 7.230469 3.964844 7.09375 C 3.929688 6.960938 3.996094 6.816406 4.125 6.757812 L 4.148438 7.625 C 4.863281 7.546875 5.5 8.0625 5.578125 8.773438 C 5.65625 9.484375 5.140625 10.125 4.429688 10.203125 L 4.804688 10.203125 C 4.71875 10.050781 4.558594 10.003906 4.414062 10.089844 C 4.265625 10.175781 4.171875 10.371094 4.1875 10.566406 C 4.203125 10.757812 4.320312 10.894531 4.476562 10.898438 C 4.628906 10.902344 4.777344 10.769531 4.832031 10.578125 L 5.082031 11.542969 L 6.945312 11.542969 L 7.050781 10.726562 C 7.164062 11.210938 6.953125 11.714844 6.53125 11.976562 C 6.109375 12.238281 5.566406 12.203125 5.183594 11.886719 C 4.796875 11.570312 4.65625 11.046875 4.832031 10.578125 L 4.90625 10.601562 C 4.949219 10.632812 4.960938 10.6875 4.9375 10.734375 C 4.914062 10.78125 4.863281 10.804688 4.8125 10.789062 C 4.761719 10.777344 4.730469 10.726562 4.734375 10.675781 C 4.738281 10.625 4.78125 10.585938 4.832031 10.578125 L 3.066406 9.199219 L 3.019531 8.621094 C 3.5625 8.71875 3.921875 9.238281 3.820312 9.78125 C 3.71875 10.320312 3.199219 10.679688 2.660156 10.578125 "/>
<path style=" stroke:none;fill-rule:nonzero;fill:rgb(0%,0%,0%);fill-opacity:1;" d="M 3.863281 5.570312 L 3.863281 5.566406 L 3.898438 5.535156 L 3.902344 5.539062 Z M 3.863281 5.566406 C 2.324219 5.574219 1.074219 4.335938 1.0625 2.800781 C 1.054688 1.261719 2.296875 0.0078125 3.832031 0 L 3.863281 -0.0351562 C 4.011719 -0.1875 4.25 -0.191406 4.40625 -0.0507812 C 4.558594 0.09375 4.574219 0.332031 4.433594 0.492188 C 4.296875 0.648438 4.058594 0.667969 3.894531 0.539062 C 3.734375 0.40625 3.703125 0.167969 3.832031 0 Z M 3.863281 5.5 L 3.847656 5.519531 Z M 3.832031 5.535156 C 2.304688 5.542969 1.058594 4.308594 1.050781 2.78125 C 1.042969 1.253906 2.277344 0.0078125 3.808594 0 L 3.832031 -0.0390625 C 3.957031 -0.210938 4.191406 -0.25 4.363281 -0.132812 C 4.539062 -0.015625 4.585938 0.21875 4.472656 0.394531 C 4.359375 0.574219 4.128906 0.628906 3.949219 0.519531 C 3.765625 0.414062 3.707031 0.183594 3.808594 0 Z M 3.796875 5.511719 C 2.277344 5.527344 1.03125 4.304688 1.015625 2.78125 C 1 1.261719 2.222656 0.015625 3.742188 0 L 3.738281 -0.046875 C 3.738281 -0.253906 3.902344 -0.425781 4.109375 -0.433594 C 4.316406 -0.441406 4.492188 -0.285156 4.507812 -0.078125 C 4.519531 0.128906 4.367188 0.3125 4.160156 0.332031 C 3.957031 0.351562 3.769531 0.207031 3.742188 0 Z M 3.585938 5.457031 L 3.582031 5.410156 Z M 3.582031 5.410156 L 3.582031 5.433594 Z M 3.585938 5.457031 C 2.078125 5.453125 0.859375 4.230469 0.859375 2.726562 C 0.863281 1.21875 2.085938 0 3.589844 0 L 3.582031 -0.046875 C 3.550781 -0.253906 3.691406 -0.449219 3.898438 -0.484375 C 4.101562 -0.523438 4.300781 -0.386719 4.34375 -0.183594 C 4.386719 0.0234375 4.261719 0.222656 4.054688 0.273438 C 3.851562 0.324219 3.648438 0.203125 3.589844 0 Z M 3.542969 5.460938 C 2.03125 5.460938 0.8125 4.234375 0.816406 2.726562 C 0.820312 1.21875 2.042969 -0.00390625 3.554688 0 L 3.539062 -0.046875 C 3.480469 -0.242188 3.589844 -0.449219 3.785156 -0.511719 C 3.984375 -0.574219 4.195312 -0.472656 4.261719 -0.277344 C 4.332031 -0.0820312 4.234375 0.128906 4.042969 0.203125 C 3.851562 0.28125 3.632812 0.1875 3.554688 0 Z M 3.5 5.472656 C 1.988281 5.4375 0.792969 4.179688 0.832031 2.667969 C 0.867188 1.15625 2.125 -0.0390625 3.636719 0 L 3.59375 -0.0273438 C 3.425781 -0.144531 3.386719 -0.378906 3.5 -0.550781 C 3.617188 -0.71875 3.847656 -0.769531 4.019531 -0.660156 C 4.195312 -0.550781 4.253906 -0.320312 4.148438 -0.140625 C 4.042969 0.0351562 3.816406 0.0976562 3.636719 0 Z M 3.328125 5.609375 L 3.308594 5.621094 L 3.308594 5.597656 Z M 3.308594 5.621094 L 3.300781 5.621094 L 3.300781 5.574219 L 3.308594 5.574219 Z M 3.300781 5.621094 Z M 3.300781 5.621094 L 3.277344 5.621094 L 3.277344 5.574219 L 3.304688 5.574219 Z M 3.277344 5.621094 L 3.25 5.621094 L 3.25 5.574219 L 3.277344 5.574219 Z M 3.25 5.621094 C 1.699219 5.617188 0.445312 4.355469 0.449219 2.804688 C 0.453125 1.25 1.714844 -0.00390625 3.265625 0 L 3.257812 -0.046875 C 3.175781 -0.605469 3.5625 -1.121094 4.117188 -1.207031 C 4.671875 -1.292969 5.195312 -0.914062 5.285156 -0.359375 C 5.378906 0.195312 5.007812 0.71875 4.453125 0.820312 C 3.902344 0.917969 3.371094 0.550781 3.265625 0 Z M 3.121094 5.632812 L 3.109375 5.585938 L 3.117188 5.632812 Z M 3.113281 5.585938 L 3.117188 5.609375 Z M 3.121094 5.632812 C 1.566406 5.632812 0.304688 4.371094 0.304688 2.816406 C 0.308594 1.257812 1.570312 0 3.125 0 L 3.113281 -0.046875 C 3.089844 -0.15625 3.160156 -0.261719 3.269531 -0.289062 C 3.378906 -0.316406 3.488281 -0.253906 3.523438 -0.144531 C 3.554688 -0.0390625 3.5 0.0742188 3.394531 0.113281 C 3.289062 0.152344 3.171875 0.101562 3.125 0 Z M 3.097656 5.640625 C 1.542969 5.636719 0.28125 4.371094 0.285156 2.816406 C 0.285156 1.257812 1.550781 -0.00390625 3.105469 0 L 3.085938 -0.0429688 C 3.046875 -0.167969 3.109375 -0.300781 3.230469 -0.347656 C 3.351562 -0.394531 3.488281 -0.339844 3.539062 -0.21875 C 3.59375 -0.101562 3.542969 0.0390625 3.429688 0.0976562 C 3.3125 0.15625 3.171875 0.113281 3.105469 0 Z M 3.058594 5.605469 L 3.070312 5.625 Z M 3.078125 5.648438 C 1.519531 5.625 0.273438 4.34375 0.292969 2.785156 C 0.3125 1.226562 1.59375 -0.0195312 3.152344 0 L 3.113281 -0.0234375 C 3.015625 -0.0898438 2.988281 -0.222656 3.050781 -0.324219 C 3.113281 -0.425781 3.246094 -0.460938 3.347656 -0.402344 C 3.453125 -0.34375 3.496094 -0.214844 3.441406 -0.109375 C 3.390625 0 3.265625 0.046875 3.152344 0 Z M 2.957031 5.699219 L 2.976562 5.710938 Z M 3 5.71875 L 3 5.722656 L 2.957031 5.699219 Z M 2.953125 5.699219 L 2.976562 5.710938 Z M 2.996094 5.722656 C 1.417969 5.71875 0.140625 4.433594 0.144531 2.851562 C 0.152344 1.269531 1.4375 -0.00390625 3.015625 0 L 2.972656 -0.015625 C 2.867188 -0.0703125 2.820312 -0.195312 2.871094 -0.304688 C 2.917969 -0.414062 3.042969 -0.464844 3.152344 -0.421875 C 3.261719 -0.378906 3.320312 -0.257812 3.285156 -0.148438 C 3.25 -0.0351562 3.132812 0.03125 3.015625 0 Z M 2.941406 5.726562 L 2.964844 5.734375 Z M 2.988281 5.742188 C 1.402344 5.738281 0.121094 4.445312 0.125 2.859375 C 0.132812 1.273438 1.421875 -0.00390625 3.007812 0 L 2.960938 -0.0117188 C 2.863281 -0.046875 2.8125 -0.15625 2.84375 -0.253906 C 2.875 -0.355469 2.980469 -0.414062 3.082031 -0.386719 C 3.183594 -0.363281 3.246094 -0.261719 3.226562 -0.160156 C 3.207031 -0.0585938 3.113281 0.0117188 3.007812 0 Z M 2.933594 5.753906 L 2.957031 5.757812 Z M 2.980469 5.765625 C 1.390625 5.757812 0.105469 4.460938 0.113281 2.867188 C 0.121094 1.277344 1.417969 -0.0078125 3.007812 0 L 2.964844 0.0195312 C 3.0625 0.0664062 3.113281 0.175781 3.082031 0.28125 C 3.050781 0.386719 2.949219 0.453125 2.839844 0.441406 C 2.730469 0.425781 2.648438 0.335938 2.644531 0.226562 C 2.640625 0.117188 2.71875 0.0195312 2.828125 0 Z M 2.96875 5.90625 L 2.945312 5.890625 L 2.96875 5.882812 Z M 2.964844 5.859375 L 3.183594 5.84375 L 3.1875 5.894531 L 2.96875 5.90625 Z M 3.183594 5.84375 L 3.195312 5.847656 L 3.183594 5.867188 Z M 3.195312 5.847656 L 3.203125 5.851562 L 3.175781 5.890625 L 3.171875 5.890625 Z M 3.203125 5.851562 C 1.585938 5.953125 0.191406 4.730469 0.0898438 3.113281 C -0.015625 1.496094 1.210938 0.105469 2.828125 0 L 2.796875 0.0390625 C 2.789062 0.0273438 2.78125 0.0117188 2.773438 0 Z M 3.238281 5.875 C 1.617188 6.003906 0.199219 4.792969 0.0703125 3.171875 C -0.0585938 1.546875 1.152344 0.128906 2.773438 0 L 2.738281 0.03125 C 2.730469 0.0234375 2.722656 0.0117188 2.714844 0 Z M 3.273438 5.90625 C 1.640625 6.0625 0.195312 4.863281 0.0390625 3.234375 C -0.113281 1.601562 1.082031 0.15625 2.714844 0 L 2.667969 0 C 2.609375 0.0195312 2.546875 0.0195312 2.492188 0 Z M 3.359375 6.113281 L 3.382812 6.980469 L 3.335938 6.980469 L 3.308594 6.117188 Z M 3.382812 6.980469 L 3.382812 6.992188 L 3.359375 6.980469 Z M 3.382812 6.992188 C 3.378906 6.996094 3.378906 7 3.375 7.003906 L 3.332031 6.984375 C 3.332031 6.980469 3.335938 6.976562 3.339844 6.972656 Z M 3.332031 6.984375 L 3.355469 6.992188 Z M 3.375 7.003906 C 3.371094 7.015625 3.367188 7.027344 3.359375 7.039062 L 3.316406 7.023438 C 3.320312 7.007812 3.328125 6.996094 3.332031 6.984375 Z M 3.316406 7.023438 L 3.339844 7.03125 Z M 3.359375 7.039062 C 3.355469 7.050781 3.351562 7.0625 3.347656 7.074219 L 3.300781 7.0625 C 3.308594 7.046875 3.3125 7.035156 3.316406 7.023438 Z M 3.347656 7.074219 C 1.394531 7.023438 -0.148438 5.398438 -0.0976562 3.445312 C -0.0429688 1.492188 1.582031 -0.0507812 3.535156 0 L 3.488281 0 C 3.136719 -0.0117188 2.863281 -0.300781 2.871094 -0.648438 C 2.878906 -1 3.164062 -1.277344 3.511719 -1.277344 C 3.859375 -1.277344 4.140625 -1 4.148438 -0.648438 C 4.15625 -0.300781 3.882812 -0.0117188 3.535156 0 L 3.578125 0.015625 Z M 3.320312 7.261719 L 3.320312 7.277344 L 3.269531 7.277344 L 3.269531 7.261719 Z M 3.320312 7.277344 L 3.320312 7.324219 L 3.269531 7.324219 C 3.269531 7.308594 3.269531 7.292969 3.269531 7.277344 Z M 3.320312 7.324219 C 3.320312 7.339844 3.320312 7.355469 3.320312 7.371094 L 3.273438 7.375 C 3.273438 7.359375 3.269531 7.34375 3.269531 7.324219 Z M 3.320312 7.371094 C 3.324219 7.453125 3.332031 7.53125 3.34375 7.609375 L 3.296875 7.613281 C 3.285156 7.535156 3.277344 7.453125 3.273438 7.375 Z M 3.34375 7.609375 L 3.296875 7.617188 Z M 3.34375 7.609375 L 3.320312 7.613281 Z M 3.34375 7.609375 C 1.242188 6.496094 0.441406 3.890625 1.554688 1.789062 C 2.667969 -0.3125 5.273438 -1.113281 7.375 0 L 7.328125 0 C 7.3125 0 7.296875 0 7.28125 0 L 7.328125 -0.0078125 Z M 3.347656 7.660156 C 1.234375 7.644531 -0.46875 5.921875 -0.457031 3.804688 C -0.441406 1.6875 1.285156 -0.015625 3.398438 0 L 3.355469 -0.00390625 C 3.117188 -0.046875 2.960938 -0.269531 2.996094 -0.507812 C 3.03125 -0.742188 3.25 -0.910156 3.488281 -0.878906 C 3.726562 -0.847656 3.894531 -0.636719 3.871094 -0.394531 C 3.847656 -0.15625 3.636719 0.0195312 3.398438 0 L 3.445312 0 Z M 3.347656 7.710938 C 1.214844 7.648438 -0.457031 5.867188 -0.394531 3.738281 C -0.328125 1.609375 1.449219 -0.0625 3.578125 0 L 3.542969 -0.0351562 C 3.417969 -0.175781 3.429688 -0.390625 3.566406 -0.519531 C 3.703125 -0.652344 3.917969 -0.648438 4.054688 -0.515625 C 4.1875 -0.382812 4.195312 -0.167969 4.066406 -0.0273438 C 3.9375 0.109375 3.722656 0.125 3.578125 0 Z M 3.234375 7.945312 L 3.21875 7.925781 Z M 3.234375 7.945312 C 3.234375 7.945312 3.238281 7.9375 3.238281 7.941406 L 3.199219 7.914062 C 1.011719 7.808594 -0.675781 5.953125 -0.570312 3.765625 C -0.464844 1.582031 1.394531 -0.105469 3.578125 0 Z M 3.238281 7.941406 L 3.234375 7.945312 L 3.21875 7.925781 Z M 3.234375 7.945312 C 3.21875 7.960938 3.199219 7.980469 3.183594 8 L 3.148438 7.964844 C 3.164062 7.949219 3.183594 7.929688 3.203125 7.910156 Z M 3.148438 7.964844 L 3.164062 7.980469 Z M 3.183594 8 C 3.164062 8.015625 3.148438 8.035156 3.132812 8.054688 L 3.097656 8.023438 C 3.117188 8.003906 3.132812 7.984375 3.148438 7.964844 Z M 3.097656 8.023438 L 3.113281 8.039062 Z M 3.132812 8.054688 C 0.910156 7.96875 -0.824219 6.09375 -0.738281 3.871094 C -0.648438 1.644531 1.222656 -0.0859375 3.449219 0 L 3.40625 -0.0234375 C 2.351562 -0.648438 2 -2.007812 2.617188 -3.0625 C 3.234375 -4.121094 4.589844 -4.484375 5.652344 -3.871094 C 6.714844 -3.257812 7.082031 -1.902344 6.476562 -0.839844 C 5.871094 0.226562 4.515625 0.601562 3.449219 0 Z M 2.871094 8.34375 L 2.890625 8.359375 Z M 2.910156 8.371094 L 2.871094 8.347656 L 2.871094 8.34375 Z M 2.910156 8.371094 C 0.601562 8.359375 -1.261719 6.472656 -1.25 4.160156 C -1.238281 1.851562 0.648438 -0.0117188 2.960938 0 L 2.914062 -0.015625 C 2.734375 -0.09375 2.648438 -0.300781 2.722656 -0.484375 C 2.796875 -0.664062 3 -0.757812 3.183594 -0.691406 C 3.367188 -0.625 3.46875 -0.421875 3.40625 -0.238281 C 3.34375 -0.0507812 3.148438 0.0546875 2.960938 0 Z M 2.886719 8.417969 C 0.5625 8.40625 -1.308594 6.507812 -1.296875 4.183594 C -1.28125 1.859375 0.613281 -0.015625 2.9375 0 L 2.890625 -0.0078125 C 2.703125 -0.0546875 2.585938 -0.242188 2.625 -0.433594 C 2.667969 -0.625 2.851562 -0.75 3.042969 -0.714844 C 3.234375 -0.679688 3.363281 -0.5 3.335938 -0.308594 C 3.308594 -0.113281 3.132812 0.0195312 2.9375 0 Z M 2.875 8.46875 C 0.535156 8.453125 -1.347656 6.542969 -1.328125 4.203125 C -1.308594 1.863281 0.601562 -0.0195312 2.9375 0 L 2.902344 0.03125 C 3.046875 0.113281 3.113281 0.289062 3.0625 0.449219 C 3.007812 0.609375 2.851562 0.707031 2.6875 0.691406 C 2.519531 0.675781 2.386719 0.542969 2.371094 0.375 C 2.351562 0.207031 2.453125 0.0507812 2.613281 0 Z M 2.941406 8.722656 L 2.945312 8.730469 L 2.921875 8.738281 Z M 2.945312 8.730469 L 3.195312 9.691406 L 3.148438 9.703125 L 2.898438 8.742188 Z M 3.171875 9.722656 L 3.148438 9.703125 L 3.171875 9.699219 Z M 3.171875 9.675781 L 5.035156 9.675781 L 5.035156 9.722656 L 3.171875 9.722656 Z M 5.058594 9.703125 L 5.035156 9.722656 L 5.035156 9.699219 Z M 5.011719 9.695312 L 5.117188 8.878906 L 5.164062 8.886719 L 5.058594 9.703125 Z M 5.164062 8.886719 L 5.140625 8.882812 Z M 5.117188 8.878906 L 5.164062 8.882812 C 5.164062 8.890625 5.164062 8.882812 5.164062 8.882812 Z M 5.164062 8.882812 L 5.140625 8.882812 Z M 5.117188 8.878906 C 2.664062 7.835938 1.519531 5.007812 2.5625 2.554688 C 3.601562 0.101562 6.433594 -1.039062 8.882812 0 L 8.929688 0.0117188 C 8.976562 0.00390625 9.023438 0 9.070312 0 Z M 5.144531 8.734375 C 2.734375 7.648438 1.65625 4.8125 2.742188 2.402344 C 3.824219 -0.0078125 6.660156 -1.085938 9.070312 0 L 9.117188 0.015625 C 9.160156 0.0078125 9.203125 0.00390625 9.25 0 Z M 5.191406 8.59375 C 2.816406 7.472656 1.800781 4.640625 2.921875 2.265625 C 4.042969 -0.105469 6.878906 -1.121094 9.25 0 L 9.277344 0.0390625 C 9.453125 -0.015625 9.640625 -0.03125 9.820312 0 Z M 5.664062 8.023438 L 5.683594 8.019531 L 5.675781 8.042969 Z M 5.683594 8.019531 L 5.757812 8.042969 L 5.746094 8.085938 L 5.671875 8.066406 Z M 5.757812 8.042969 L 5.75 8.066406 Z M 5.757812 8.042969 L 5.746094 8.085938 Z M 5.746094 8.085938 L 5.75 8.066406 Z M 5.757812 8.042969 C 3.539062 6.917969 2.648438 4.210938 3.769531 1.988281 C 4.890625 -0.230469 7.601562 -1.121094 9.820312 0 L 9.820312 0.046875 C 9.8125 0.136719 9.742188 0.207031 9.65625 0.207031 C 9.566406 0.210938 9.492188 0.144531 9.484375 0.0546875 C 9.476562 -0.03125 9.535156 -0.113281 9.621094 -0.125 C 9.710938 -0.140625 9.792969 -0.0859375 9.8125 0 Z M 5.773438 8.042969 C 7.996094 9.160156 10.699219 8.261719 11.816406 6.042969 C 12.929688 3.820312 12.035156 1.117188 9.8125 0 L 9.820312 0.046875 C 9.808594 0.117188 9.742188 0.167969 9.671875 0.164062 C 9.597656 0.15625 9.542969 0.0976562 9.542969 0.0234375 C 9.542969 -0.046875 9.597656 -0.109375 9.671875 -0.113281 C 9.742188 -0.121094 9.808594 -0.0703125 9.820312 0 Z M 5.789062 8.042969 C 3.570312 6.929688 2.667969 4.230469 3.78125 2.007812 C 4.894531 -0.214844 7.597656 -1.113281 9.820312 0 L 9.863281 0.0234375 C 9.796875 0.0234375 9.742188 -0.0234375 9.730469 -0.0898438 C 9.722656 -0.152344 9.761719 -0.214844 9.824219 -0.234375 C 9.886719 -0.253906 9.953125 -0.222656 9.980469 -0.164062 C 10.007812 -0.105469 9.988281 -0.0351562 9.933594 0 Z M 5.898438 8.019531 L 5.875 8.007812 Z M 5.855469 8 L 5.898438 8.019531 Z M 5.855469 8 C 3.644531 6.871094 2.769531 4.167969 3.894531 1.960938 C 5.019531 -0.25 7.722656 -1.125 9.933594 0 L 9.980469 0.0117188 C 9.910156 0.0390625 9.835938 0.0117188 9.804688 -0.0546875 C 9.773438 -0.121094 9.800781 -0.199219 9.863281 -0.234375 C 9.925781 -0.265625 10.007812 -0.246094 10.042969 -0.183594 C 10.082031 -0.121094 10.0625 -0.0390625 10.003906 0 Z M 5.90625 7.996094 L 5.882812 7.988281 Z M 5.859375 7.984375 C 3.65625 6.839844 2.796875 4.125 3.9375 1.921875 C 5.082031 -0.285156 7.796875 -1.144531 10.003906 0 L 10.050781 0.00390625 C 9.984375 0.0078125 9.925781 -0.0429688 9.917969 -0.113281 C 9.914062 -0.179688 9.960938 -0.238281 10.027344 -0.25 C 10.09375 -0.257812 10.15625 -0.214844 10.171875 -0.148438 C 10.183594 -0.0820312 10.140625 -0.015625 10.078125 0 Z M 5.910156 7.972656 L 5.886719 7.96875 Z M 5.863281 7.96875 C 3.664062 7.988281 1.863281 6.21875 1.84375 4.019531 C 1.824219 1.820312 3.589844 0.0195312 5.789062 0 L 5.820312 -0.0390625 C 5.871094 -0.0820312 5.945312 -0.0820312 5.996094 -0.0351562 C 6.046875 0.0117188 6.050781 0.0859375 6.011719 0.140625 C 5.96875 0.195312 5.894531 0.207031 5.835938 0.171875 C 5.78125 0.132812 5.761719 0.0585938 5.789062 0 Z M 5.832031 7.894531 L 4.066406 6.515625 L 4.097656 6.480469 L 5.859375 7.859375 Z M 4.066406 6.515625 L 4.058594 6.5 L 4.082031 6.496094 Z M 4.058594 6.5 L 4.011719 5.917969 L 4.058594 5.914062 L 4.105469 6.496094 Z M 4.011719 5.917969 L 4.011719 5.914062 L 4.058594 5.910156 L 4.058594 5.914062 Z M 4.058594 5.910156 L 4.035156 5.914062 Z M 4.011719 5.914062 C 4.007812 5.898438 4.007812 5.878906 4.003906 5.863281 L 4.050781 5.855469 C 4.054688 5.875 4.058594 5.894531 4.058594 5.910156 Z M 4.003906 5.863281 C 2.386719 5.875 1.0625 4.574219 1.046875 2.957031 C 1.03125 1.339844 2.332031 0.015625 3.953125 0 L 4 -0.0117188 C 4.003906 0.0078125 4.007812 0.0234375 4.011719 0.0429688 Z M 3.992188 5.808594 C 2.386719 5.875 1.035156 4.628906 0.96875 3.023438 C 0.902344 1.421875 2.148438 0.0664062 3.753906 0 L 3.789062 -0.03125 C 4.0625 -0.253906 4.46875 -0.214844 4.695312 0.0546875 C 4.921875 0.324219 4.890625 0.730469 4.625 0.964844 C 4.359375 1.195312 3.953125 1.171875 3.714844 0.910156 C 3.476562 0.648438 3.496094 0.242188 3.753906 0 "/>
<path style=" stroke:none;fill-rule:nonzero;fill:rgb(0%,0%,0%);fill-opacity:1;" d="M 3.878906 7.128906 L 3.832031 7.117188 L 3.832031 7.113281 Z M 3.878906 7.128906 L 3.855469 7.121094 Z M 3.878906 7.128906 C 1.910156 7.117188 0.320312 5.515625 0.332031 3.546875 C 0.34375 1.578125 1.945312 -0.0117188 3.914062 0 L 3.871094 -0.0078125 C 3.691406 -0.0585938 3.585938 -0.238281 3.628906 -0.417969 C 3.671875 -0.597656 3.851562 -0.707031 4.03125 -0.671875 C 4.210938 -0.632812 4.328125 -0.460938 4.296875 -0.28125 C 4.265625 -0.0976562 4.097656 0.0234375 3.914062 0 Z M 3.867188 7.167969 C 1.886719 7.15625 0.292969 5.542969 0.304688 3.5625 C 0.3125 1.585938 1.925781 -0.0117188 3.90625 0 L 3.859375 -0.00390625 C 3.664062 -0.0351562 3.53125 -0.214844 3.554688 -0.40625 C 3.578125 -0.601562 3.753906 -0.742188 3.949219 -0.726562 C 4.144531 -0.707031 4.289062 -0.539062 4.277344 -0.34375 C 4.265625 -0.148438 4.101562 0.00390625 3.90625 0 Z M 3.863281 7.207031 C 1.871094 7.195312 0.269531 5.570312 0.28125 3.582031 C 0.292969 1.589844 1.917969 -0.0117188 3.90625 0 L 3.863281 0.0234375 C 4.046875 0.0976562 4.144531 0.292969 4.097656 0.484375 C 4.050781 0.675781 3.871094 0.800781 3.675781 0.78125 C 3.480469 0.761719 3.328125 0.601562 3.320312 0.40625 C 3.3125 0.207031 3.449219 0.0351562 3.644531 0 Z M 3.898438 7.398438 L 3.859375 7.421875 Z M 3.898438 7.398438 C 1.855469 7.472656 0.140625 5.871094 0.0703125 3.828125 C 0 1.785156 1.601562 0.0703125 3.644531 0 L 3.605469 0.0273438 C 3.785156 0.167969 3.816406 0.425781 3.683594 0.609375 C 3.546875 0.792969 3.289062 0.835938 3.101562 0.703125 C 2.914062 0.574219 2.867188 0.316406 2.992188 0.128906 C 3.117188 -0.0625 3.371094 -0.121094 3.566406 0 Z M 3.921875 7.433594 C 1.867188 7.53125 0.125 5.949219 0.0273438 3.894531 C -0.0742188 1.84375 1.511719 0.0976562 3.566406 0 L 3.527344 0.03125 C 3.667969 0.171875 3.671875 0.394531 3.539062 0.539062 C 3.402344 0.683594 3.179688 0.695312 3.03125 0.5625 C 2.882812 0.433594 2.863281 0.210938 2.988281 0.0585938 C 3.113281 -0.09375 3.335938 -0.121094 3.492188 0 Z M 3.945312 7.464844 C 1.882812 7.589844 0.109375 6.019531 -0.0117188 3.957031 C -0.136719 1.894531 1.433594 0.125 3.492188 0 L 3.480469 0.046875 C 3.65625 0.148438 3.726562 0.371094 3.636719 0.554688 C 3.546875 0.738281 3.335938 0.824219 3.144531 0.75 C 2.953125 0.679688 2.847656 0.472656 2.90625 0.277344 C 2.960938 0.0820312 3.160156 -0.0390625 3.359375 0 "/>
<path style=" stroke:none;fill-rule:nonzero;fill:rgb(0%,0%,0%);fill-opacity:1;" d="M 4.09375 6.515625 L 3.371094 7.011719 L 3.34375 6.972656 L 4.066406 6.476562 "/>
<path style=" stroke:none;fill-rule:evenodd;fill:rgb(100%,82.352941%,0%);fill-opacity:1;" d="M 3.695312 5.730469 C 3.695312 5.679688 3.738281 5.636719 3.792969 5.636719 C 3.84375 5.636719 3.886719 5.679688 3.886719 5.730469 C 3.886719 5.785156 3.84375 5.824219 3.792969 5.824219 "/>
<path style=" stroke:none;fill-rule:nonzero;fill:rgb(0%,0%,0%);fill-opacity:1;" d="M 3.671875 5.730469 Z M 3.671875 5.730469 C 2.089844 5.746094 0.796875 4.472656 0.78125 2.890625 C 0.765625 1.308594 2.039062 0.015625 3.621094 0 L 3.65625 -0.0351562 C 3.707031 -0.0664062 3.773438 -0.0585938 3.8125 -0.0117188 C 3.851562 0.0351562 3.847656 0.105469 3.804688 0.148438 C 3.761719 0.191406 3.695312 0.195312 3.644531 0.15625 C 3.597656 0.117188 3.589844 0.0507812 3.621094 0 Z M 3.652344 5.679688 C 2.082031 5.6875 0.808594 4.417969 0.800781 2.851562 C 0.796875 1.28125 2.0625 0.00390625 3.628906 0 L 3.628906 5.613281 C 2.082031 5.613281 0.824219 4.355469 0.824219 2.804688 C 0.824219 1.257812 2.082031 0 3.628906 0 L 3.597656 0.0351562 Z M 3.601562 5.613281 Z M 3.601562 5.660156 L 3.601562 5.613281 Z M 3.601562 5.660156 L 3.601562 5.613281 Z M 3.601562 5.660156 C 2.039062 5.652344 0.777344 4.382812 0.78125 2.820312 C 0.789062 1.257812 2.058594 -0.00390625 3.621094 0 L 3.585938 -0.0351562 C 3.554688 -0.0859375 3.566406 -0.152344 3.613281 -0.191406 C 3.660156 -0.226562 3.726562 -0.226562 3.769531 -0.183594 C 3.8125 -0.140625 3.816406 -0.0703125 3.777344 -0.0234375 C 3.738281 0.0234375 3.671875 0.0351562 3.621094 0 Z M 3.550781 5.679688 C 1.980469 5.667969 0.722656 4.382812 0.734375 2.816406 C 0.75 1.246094 2.03125 -0.015625 3.601562 0 L 3.554688 0 C 3.496094 -0.0117188 3.453125 -0.0664062 3.460938 -0.125 C 3.46875 -0.1875 3.515625 -0.230469 3.578125 -0.230469 C 3.636719 -0.230469 3.6875 -0.1875 3.691406 -0.125 C 3.699219 -0.0664062 3.660156 -0.0117188 3.601562 0 L 3.632812 0.0351562 Z M 3.480469 5.730469 Z M 3.527344 5.730469 L 3.480469 5.730469 Z M 3.527344 5.730469 Z M 3.527344 5.730469 C 1.945312 5.710938 0.679688 4.414062 0.699219 2.828125 C 0.71875 1.246094 2.019531 -0.0195312 3.601562 0 L 3.566406 0.0351562 C 3.609375 0.0742188 3.617188 0.136719 3.585938 0.183594 C 3.554688 0.234375 3.492188 0.25 3.441406 0.230469 C 3.386719 0.210938 3.355469 0.152344 3.367188 0.0976562 C 3.378906 0.0390625 3.425781 0 3.484375 0 Z M 3.550781 5.78125 C 1.953125 5.800781 0.644531 4.519531 0.625 2.925781 C 0.609375 1.328125 1.886719 0.0195312 3.484375 0 L 3.484375 0.046875 C 3.507812 0.101562 3.484375 0.167969 3.429688 0.195312 C 3.378906 0.222656 3.3125 0.210938 3.277344 0.160156 C 3.242188 0.113281 3.25 0.046875 3.292969 0.00390625 C 3.335938 -0.0351562 3.402344 -0.0390625 3.449219 0 L 3.484375 -0.0351562 Z M 3.601562 5.851562 Z M 3.601562 5.800781 L 3.601562 5.851562 Z M 3.601562 5.800781 L 3.601562 5.851562 Z M 3.601562 5.800781 C 2 5.84375 0.664062 4.578125 0.625 2.976562 C 0.582031 1.375 1.847656 0.0429688 3.449219 0 L 3.484375 0.0351562 C 3.429688 0.0664062 3.363281 0.0546875 3.328125 0.00390625 C 3.289062 -0.0429688 3.292969 -0.109375 3.339844 -0.152344 C 3.382812 -0.195312 3.449219 -0.195312 3.496094 -0.15625 C 3.542969 -0.117188 3.550781 -0.0507812 3.519531 0 Z M 3.652344 5.78125 C 2.054688 5.820312 0.730469 4.554688 0.695312 2.957031 C 0.65625 1.359375 1.921875 0.0351562 3.519531 0 L 3.566406 0 C 3.511719 -0.0195312 3.480469 -0.078125 3.488281 -0.132812 C 3.5 -0.191406 3.550781 -0.230469 3.609375 -0.230469 C 3.667969 -0.230469 3.714844 -0.191406 3.726562 -0.132812 C 3.734375 -0.078125 3.703125 -0.0195312 3.648438 0 L 3.617188 -0.0351562 Z M 3.71875 5.730469 Z M 3.671875 5.730469 L 3.71875 5.730469 "/>
<path style=" stroke:none;fill-rule:nonzero;fill:rgb(0%,0%,0%);fill-opacity:1;" d="M 3.503906 8 L 3.507812 8 L 3.527344 8.042969 Z M 3.527344 8.042969 L 3.515625 8.019531 Z M 3.503906 8 C 1.296875 8.96875 -1.28125 7.960938 -2.246094 5.753906 C -3.214844 3.542969 -2.210938 0.96875 0 0 L 0.0273438 0.0390625 C -0.140625 0.1875 -0.398438 0.175781 -0.550781 0.0117188 C -0.707031 -0.152344 -0.699219 -0.410156 -0.542969 -0.570312 C -0.382812 -0.730469 -0.125 -0.734375 0.0390625 -0.578125 C 0.203125 -0.425781 0.214844 -0.167969 0.0664062 0 Z M 3.558594 7.964844 C 1.359375 8.929688 -1.203125 7.929688 -2.167969 5.730469 C -3.132812 3.53125 -2.132812 0.964844 0.0664062 0 L 0.101562 0.0351562 C -0.09375 0.148438 -0.34375 0.09375 -0.46875 -0.0976562 C -0.589844 -0.285156 -0.542969 -0.539062 -0.359375 -0.667969 C -0.171875 -0.796875 0.0820312 -0.757812 0.21875 -0.578125 C 0.355469 -0.398438 0.324219 -0.140625 0.148438 0 Z M 3.609375 7.921875 C 1.421875 8.878906 -1.128906 7.878906 -2.082031 5.691406 C -3.039062 3.503906 -2.039062 0.957031 0.148438 0 L 0.195312 -0.00390625 C 0.0078125 -0.0859375 -0.0976562 -0.289062 -0.0546875 -0.492188 C -0.0117188 -0.691406 0.167969 -0.835938 0.375 -0.832031 C 0.578125 -0.828125 0.753906 -0.683594 0.792969 -0.480469 C 0.832031 -0.277344 0.722656 -0.078125 0.53125 0 "/>
<path style=" stroke:none;fill-rule:nonzero;fill:rgb(0%,0%,0%);fill-opacity:1;" d="M 3.832031 7.496094 L 3.808594 7.453125 L 3.8125 7.453125 Z M 3.808594 7.453125 L 3.820312 7.472656 Z M 3.832031 7.496094 C 1.761719 7.492188 0.0859375 5.8125 0.0898438 3.742188 C 0.09375 1.671875 1.773438 -0.00390625 3.84375 0 L 3.8125 -0.0390625 C 3.773438 -0.117188 3.796875 -0.210938 3.871094 -0.257812 C 3.945312 -0.308594 4.042969 -0.289062 4.09375 -0.21875 C 4.148438 -0.148438 4.136719 -0.0507812 4.070312 0.0078125 C 4.003906 0.0664062 3.90625 0.0625 3.84375 0 Z M 3.8125 7.507812 C 1.738281 7.503906 0.0625 5.820312 0.0664062 3.746094 C 0.0703125 1.671875 1.753906 -0.00390625 3.828125 0 L 3.792969 -0.03125 C 3.722656 -0.117188 3.730469 -0.238281 3.8125 -0.3125 C 3.890625 -0.382812 4.011719 -0.382812 4.089844 -0.308594 C 4.167969 -0.234375 4.171875 -0.113281 4.105469 -0.03125 C 4.035156 0.0507812 3.914062 0.0664062 3.828125 0 Z M 3.796875 7.519531 C 1.71875 7.492188 0.0585938 5.789062 0.0859375 3.710938 C 0.113281 1.632812 1.820312 -0.0273438 3.898438 0 L 3.847656 0.00390625 C 3.757812 0 3.683594 -0.078125 3.683594 -0.167969 C 3.679688 -0.261719 3.75 -0.339844 3.84375 -0.347656 C 3.933594 -0.355469 4.019531 -0.289062 4.03125 -0.199219 C 4.046875 -0.105469 3.988281 -0.0195312 3.898438 0 "/>
<path style=" stroke:none;fill-rule:nonzero;fill:rgb(0%,0%,0%);fill-opacity:1;" d="M 4.101562 8.195312 L 4.085938 8.152344 Z M 4.101562 8.195312 L 4.027344 8.230469 L 4.007812 8.183594 L 4.082031 8.152344 Z M 4.027344 8.230469 C 4 8.238281 3.976562 8.25 3.949219 8.261719 L 3.929688 8.214844 C 3.957031 8.207031 3.980469 8.195312 4.007812 8.183594 Z M 3.949219 8.261719 C 3.820312 8.316406 3.691406 8.375 3.5625 8.4375 L 3.542969 8.394531 C 3.667969 8.332031 3.800781 8.273438 3.929688 8.21875 "/>
<path style=" stroke:none;fill-rule:nonzero;fill:rgb(0%,0%,0%);fill-opacity:1;" d="M 4.085938 8.152344 L 4.101562 8.195312 Z M 4.101562 8.195312 L 4.09375 8.175781 Z M 4.085938 8.152344 C 1.832031 9.28125 -0.90625 8.371094 -2.035156 6.117188 C -3.160156 3.867188 -2.25 1.128906 0 0 L 0.0234375 0.0429688 C -0.238281 0.28125 -0.644531 0.269531 -0.894531 0.0117188 C -1.140625 -0.242188 -1.136719 -0.652344 -0.886719 -0.90625 C -0.632812 -1.15625 -0.226562 -1.164062 0.03125 -0.917969 C 0.289062 -0.671875 0.304688 -0.265625 0.0664062 0 Z M 4.164062 8.113281 C 1.921875 9.246094 -0.8125 8.347656 -1.941406 6.105469 C -3.074219 3.863281 -2.175781 1.132812 0.0664062 0 L 0.09375 0.0390625 C -0.214844 0.246094 -0.628906 0.167969 -0.84375 -0.136719 C -1.058594 -0.441406 -0.988281 -0.859375 -0.691406 -1.078125 C -0.394531 -1.300781 0.0273438 -1.242188 0.253906 -0.949219 C 0.480469 -0.65625 0.433594 -0.234375 0.144531 0 Z M 4.234375 8.066406 C 2.003906 9.195312 -0.714844 8.304688 -1.84375 6.078125 C -2.972656 3.847656 -2.082031 1.128906 0.144531 0 L 0.191406 0.0078125 C -0.117188 -0.0820312 -0.3125 -0.386719 -0.273438 -0.707031 C -0.230469 -1.027344 0.0390625 -1.265625 0.363281 -1.273438 C 0.6875 -1.28125 0.964844 -1.050781 1.023438 -0.734375 C 1.078125 -0.417969 0.894531 -0.105469 0.589844 0 "/>
<path style=" stroke:none;fill-rule:nonzero;fill:rgb(0%,0%,0%);fill-opacity:1;" d="M 3.847656 8.253906 L 5.40625 8.253906 L 5.40625 8.300781 L 3.847656 8.300781 "/>
<path style=" stroke:none;fill-rule:evenodd;fill:rgb(100%,82.352941%,0%);fill-opacity:1;" d="M 4.207031 8.570312 C 4.207031 8.46875 4.289062 8.390625 4.386719 8.390625 C 4.488281 8.390625 4.570312 8.46875 4.570312 8.570312 C 4.570312 8.667969 4.488281 8.75 4.386719 8.75 "/>
<path style=" stroke:none;fill-rule:nonzero;fill:rgb(0%,0%,0%);fill-opacity:1;" d="M 4.183594 8.570312 Z M 4.183594 8.570312 C 1.816406 8.601562 -0.125 6.707031 -0.15625 4.339844 C -0.1875 1.972656 1.707031 0.03125 4.074219 0 L 4.105469 -0.0351562 C 4.191406 -0.101562 4.3125 -0.0898438 4.382812 -0.0117188 C 4.457031 0.0703125 4.453125 0.191406 4.378906 0.269531 C 4.300781 0.34375 4.179688 0.347656 4.097656 0.277344 C 4.019531 0.207031 4.007812 0.0859375 4.074219 0 Z M 4.171875 8.425781 L 4.15625 8.441406 Z M 4.136719 8.460938 C 1.800781 8.472656 -0.101562 6.589844 -0.113281 4.253906 C -0.128906 1.917969 1.757812 0.0117188 4.09375 0 L 4.09375 -0.046875 C 4.105469 -0.15625 4.199219 -0.234375 4.304688 -0.226562 C 4.414062 -0.21875 4.496094 -0.132812 4.496094 -0.0234375 C 4.496094 0.0820312 4.414062 0.171875 4.304688 0.179688 C 4.199219 0.183594 4.105469 0.105469 4.09375 0 Z M 4.027344 8.414062 L 4.027344 8.367188 Z M 4.027344 8.414062 L 4.027344 8.367188 Z M 4.027344 8.414062 C 1.703125 8.402344 -0.167969 6.507812 -0.15625 4.183594 C -0.144531 1.859375 1.75 -0.0117188 4.074219 0 L 4.039062 -0.0351562 C 3.972656 -0.117188 3.984375 -0.238281 4.0625 -0.3125 C 4.144531 -0.382812 4.265625 -0.378906 4.34375 -0.304688 C 4.417969 -0.226562 4.421875 -0.105469 4.351562 -0.0234375 C 4.28125 0.0546875 4.15625 0.0664062 4.074219 0 Z M 3.917969 8.460938 C 1.582031 8.429688 -0.289062 6.511719 -0.257812 4.175781 C -0.226562 1.839844 1.691406 -0.03125 4.027344 0 L 3.980469 0 C 3.871094 -0.0117188 3.792969 -0.105469 3.796875 -0.214844 C 3.804688 -0.324219 3.894531 -0.410156 4.003906 -0.410156 C 4.113281 -0.410156 4.199219 -0.324219 4.207031 -0.214844 C 4.214844 -0.105469 4.132812 -0.0117188 4.027344 0 Z M 3.871094 8.570312 L 3.824219 8.570312 Z M 3.871094 8.570312 Z M 3.871094 8.570312 C 1.503906 8.527344 -0.378906 6.574219 -0.335938 4.207031 C -0.292969 1.839844 1.660156 -0.0429688 4.027344 0 L 3.992188 0.0351562 C 4.074219 0.0898438 4.105469 0.195312 4.066406 0.285156 C 4.023438 0.378906 3.925781 0.425781 3.832031 0.402344 C 3.734375 0.378906 3.667969 0.292969 3.671875 0.195312 C 3.675781 0.09375 3.75 0.0117188 3.847656 0 Z M 3.917969 8.679688 C 1.519531 8.699219 -0.4375 6.769531 -0.457031 4.375 C -0.476562 1.976562 1.453125 0.0195312 3.847656 0 L 3.847656 0.046875 C 3.917969 0.128906 3.914062 0.246094 3.839844 0.320312 C 3.765625 0.394531 3.648438 0.402344 3.566406 0.335938 C 3.484375 0.273438 3.464844 0.15625 3.523438 0.0664062 C 3.582031 -0.0195312 3.695312 -0.0507812 3.789062 0 Z M 4.027344 8.726562 L 4.027344 8.773438 Z M 4.027344 8.726562 L 4.027344 8.773438 Z M 4.027344 8.726562 C 1.617188 8.792969 -0.390625 6.890625 -0.453125 4.480469 C -0.519531 2.074219 1.378906 0.0664062 3.789062 0 L 3.824219 0.0351562 C 3.722656 0.0703125 3.613281 0.0234375 3.566406 -0.0742188 C 3.523438 -0.171875 3.5625 -0.285156 3.652344 -0.335938 C 3.746094 -0.390625 3.863281 -0.363281 3.921875 -0.273438 C 3.984375 -0.1875 3.964844 -0.0664062 3.882812 0 Z M 4.171875 8.714844 L 4.15625 8.695312 Z M 4.136719 8.679688 C 1.742188 8.75 -0.257812 6.863281 -0.328125 4.46875 C -0.398438 2.070312 1.484375 0.0703125 3.882812 0 L 3.929688 0 C 3.839844 -0.0351562 3.785156 -0.128906 3.804688 -0.226562 C 3.820312 -0.324219 3.90625 -0.394531 4.003906 -0.394531 C 4.101562 -0.394531 4.183594 -0.324219 4.203125 -0.226562 C 4.21875 -0.128906 4.167969 -0.0351562 4.074219 0 Z M 4.183594 8.570312 L 4.230469 8.570312 "/>
<path style=" stroke:none;fill-rule:evenodd;fill:rgb(100%,82.352941%,0%);fill-opacity:1;" d="M 4.925781 8.570312 C 4.925781 8.46875 5.007812 8.390625 5.109375 8.390625 C 5.207031 8.390625 5.289062 8.46875 5.289062 8.570312 C 5.289062 8.671875 5.207031 8.75 5.109375 8.75 "/>
<path style=" stroke:none;fill-rule:nonzero;fill:rgb(0%,0%,0%);fill-opacity:1;" d="M 4.902344 8.570312 Z M 4.902344 8.570312 C 2.535156 8.601562 0.59375 6.707031 0.5625 4.339844 C 0.53125 1.972656 2.425781 0.03125 4.792969 0 L 4.824219 -0.0351562 C 4.910156 -0.101562 5.03125 -0.0898438 5.105469 -0.0078125 C 5.175781 0.0703125 5.171875 0.195312 5.097656 0.269531 C 5.019531 0.347656 4.898438 0.351562 4.816406 0.28125 C 4.734375 0.207031 4.722656 0.0859375 4.792969 0 Z M 4.890625 8.425781 L 4.871094 8.441406 Z M 4.855469 8.460938 C 2.519531 8.472656 0.617188 6.589844 0.601562 4.253906 C 0.589844 1.917969 2.472656 0.0117188 4.808594 0 L 4.808594 -0.046875 C 4.824219 -0.15625 4.917969 -0.234375 5.023438 -0.226562 C 5.132812 -0.21875 5.214844 -0.132812 5.214844 -0.0234375 C 5.214844 0.0820312 5.132812 0.171875 5.023438 0.179688 C 4.917969 0.183594 4.824219 0.105469 4.808594 0 Z M 4.746094 8.414062 L 4.746094 8.367188 Z M 4.746094 8.414062 L 4.746094 8.367188 Z M 4.746094 8.414062 C 2.421875 8.402344 0.550781 6.507812 0.5625 4.183594 C 0.574219 1.859375 2.46875 -0.0117188 4.792969 0 L 4.757812 -0.0351562 C 4.691406 -0.117188 4.699219 -0.242188 4.78125 -0.3125 C 4.863281 -0.386719 4.984375 -0.382812 5.0625 -0.304688 C 5.140625 -0.230469 5.144531 -0.105469 5.070312 -0.0273438 C 5 0.0546875 4.875 0.0664062 4.792969 0 Z M 4.636719 8.460938 C 2.300781 8.429688 0.429688 6.511719 0.460938 4.175781 C 0.492188 1.839844 2.410156 -0.03125 4.746094 0 L 4.699219 0 C 4.589844 -0.0117188 4.511719 -0.105469 4.519531 -0.214844 C 4.523438 -0.320312 4.613281 -0.40625 4.722656 -0.40625 C 4.828125 -0.40625 4.917969 -0.320312 4.925781 -0.214844 C 4.929688 -0.105469 4.851562 -0.0117188 4.746094 0 Z M 4.589844 8.570312 L 4.542969 8.570312 Z M 4.589844 8.570312 Z M 4.589844 8.570312 C 2.222656 8.527344 0.339844 6.574219 0.382812 4.207031 C 0.425781 1.839844 2.378906 -0.0429688 4.746094 0 L 4.710938 0.0351562 C 4.792969 0.0898438 4.820312 0.195312 4.78125 0.285156 C 4.742188 0.371094 4.644531 0.421875 4.550781 0.398438 C 4.453125 0.375 4.390625 0.289062 4.394531 0.191406 C 4.398438 0.09375 4.46875 0.015625 4.566406 0 Z M 4.636719 8.679688 C 2.238281 8.699219 0.28125 6.769531 0.261719 4.375 C 0.242188 1.976562 2.171875 0.0195312 4.566406 0 L 4.566406 0.046875 C 4.636719 0.128906 4.632812 0.246094 4.558594 0.320312 C 4.484375 0.394531 4.367188 0.402344 4.285156 0.335938 C 4.203125 0.273438 4.183594 0.15625 4.242188 0.0664062 C 4.300781 -0.0195312 4.414062 -0.0507812 4.507812 0 Z M 4.746094 8.726562 L 4.746094 8.773438 Z M 4.746094 8.726562 L 4.746094 8.773438 Z M 4.746094 8.726562 C 2.335938 8.792969 0.328125 6.890625 0.261719 4.480469 C 0.199219 2.074219 2.097656 0.0664062 4.507812 0 L 4.542969 0.0351562 C 4.441406 0.0703125 4.332031 0.0234375 4.289062 -0.0742188 C 4.246094 -0.167969 4.28125 -0.28125 4.375 -0.335938 C 4.464844 -0.386719 4.582031 -0.359375 4.640625 -0.273438 C 4.699219 -0.183594 4.683594 -0.0664062 4.601562 0 Z M 4.890625 8.714844 L 4.871094 8.695312 Z M 4.855469 8.679688 C 2.457031 8.75 0.457031 6.863281 0.386719 4.46875 C 0.316406 2.070312 2.203125 0.0703125 4.601562 0 L 4.648438 0 C 4.558594 -0.0351562 4.503906 -0.128906 4.519531 -0.226562 C 4.539062 -0.324219 4.625 -0.394531 4.722656 -0.394531 C 4.820312 -0.394531 4.902344 -0.324219 4.921875 -0.226562 C 4.9375 -0.128906 4.886719 -0.0351562 4.792969 0 Z M 4.902344 8.570312 L 4.949219 8.570312 "/>
<path style=" stroke:none;fill-rule:nonzero;fill:rgb(0%,0%,0%);fill-opacity:1;" d="M 4.378906 7.933594 L 4.402344 7.9375 L 4.390625 7.984375 L 4.367188 7.976562 Z M 4.402344 7.9375 C 4.417969 7.941406 4.429688 7.945312 4.441406 7.949219 L 4.433594 7.996094 C 4.417969 7.992188 4.40625 7.988281 4.390625 7.984375 Z M 4.441406 7.949219 C 4.457031 7.953125 4.46875 7.953125 4.480469 7.957031 L 4.472656 8.003906 C 4.457031 8 4.445312 8 4.433594 7.996094 Z M 4.480469 7.957031 C 2.285156 6.996094 1.28125 4.4375 2.242188 2.242188 C 3.199219 0.0429688 5.757812 -0.960938 7.957031 0 L 7.957031 0.046875 C 8.132812 0.589844 7.84375 1.167969 7.304688 1.351562 C 6.765625 1.535156 6.179688 1.253906 5.992188 0.71875 C 5.800781 0.183594 6.078125 -0.40625 6.609375 -0.601562 C 7.144531 -0.800781 7.738281 -0.53125 7.941406 0 "/>
<path style=" stroke:none;fill-rule:nonzero;fill:rgb(0%,0%,0%);fill-opacity:1;" d="M 4.664062 7.972656 C 4.671875 7.972656 4.679688 7.972656 4.6875 7.972656 L 4.695312 8.019531 C 4.683594 8.019531 4.675781 8.019531 4.664062 8.019531 Z M 4.6875 7.972656 L 4.691406 7.996094 Z M 4.6875 7.972656 C 2.488281 7.050781 1.449219 4.519531 2.371094 2.320312 C 3.289062 0.117188 5.820312 -0.917969 8.019531 0 L 8.03125 0.046875 C 7.988281 0.21875 7.816406 0.324219 7.640625 0.285156 C 7.46875 0.246094 7.355469 0.078125 7.390625 -0.0976562 C 7.421875 -0.273438 7.585938 -0.390625 7.761719 -0.363281 C 7.9375 -0.335938 8.0625 -0.175781 8.042969 0 Z M 4.730469 7.964844 C 2.53125 7.050781 1.488281 4.523438 2.402344 2.324219 C 3.316406 0.125 5.84375 -0.914062 8.042969 0 L 8.0625 0.0429688 C 7.992188 0.195312 7.820312 0.261719 7.667969 0.203125 C 7.515625 0.140625 7.441406 -0.0273438 7.496094 -0.183594 C 7.550781 -0.335938 7.71875 -0.421875 7.875 -0.371094 C 8.03125 -0.320312 8.121094 -0.15625 8.078125 0 Z M 4.765625 7.949219 C 2.570312 7.035156 1.53125 4.515625 2.445312 2.320312 C 3.359375 0.125 5.882812 -0.914062 8.078125 0 L 8.121094 0.0195312 C 7.96875 -0.00390625 7.855469 -0.132812 7.859375 -0.285156 C 7.859375 -0.4375 7.976562 -0.566406 8.125 -0.585938 C 8.277344 -0.605469 8.421875 -0.507812 8.457031 -0.359375 C 8.496094 -0.210938 8.417969 -0.0585938 8.277344 0 "/>
<path style=" stroke:none;fill-rule:nonzero;fill:rgb(0%,0%,0%);fill-opacity:1;" d="M 5.671875 8.066406 L 4.097656 7.617188 L 4.113281 7.574219 L 5.683594 8.019531 "/>
<path style=" stroke:none;fill-rule:nonzero;fill:rgb(0%,0%,0%);fill-opacity:1;" d="M 2.953125 8.835938 L 5.144531 8.835938 L 5.144531 8.882812 L 2.953125 8.882812 "/>
<path style=" stroke:none;fill-rule:nonzero;fill:rgb(0%,0%,0%);fill-opacity:1;" d="M 3.460938 9.3125 L 5.082031 9.3125 L 5.082031 9.359375 L 3.460938 9.359375 "/>
<path style=" stroke:none;fill-rule:nonzero;fill:rgb(0%,0%,0%);fill-opacity:1;" d="M 4.21875 9.148438 L 4.039062 9.324219 L 4.007812 9.289062 L 4.183594 9.113281 "/>
<path style=" stroke:none;fill-rule:nonzero;fill:rgb(0%,0%,0%);fill-opacity:1;" d="M 3.878906 9.132812 L 4.058594 9.304688 L 4.023438 9.339844 L 3.847656 9.164062 "/>
<path style=" stroke:none;fill-rule:nonzero;fill:rgb(0%,0%,0%);fill-opacity:1;" d="M 3.898438 9.148438 L 3.71875 9.324219 L 3.6875 9.289062 L 3.863281 9.113281 "/>
<path style=" stroke:none;fill-rule:nonzero;fill:rgb(0%,0%,0%);fill-opacity:1;" d="M 3.558594 9.132812 L 3.738281 9.304688 L 3.703125 9.339844 L 3.527344 9.164062 "/>
<path style=" stroke:none;fill-rule:nonzero;fill:rgb(0%,0%,0%);fill-opacity:1;" d="M 4.539062 9.148438 L 4.359375 9.324219 L 4.328125 9.289062 L 4.503906 9.113281 "/>
<path style=" stroke:none;fill-rule:nonzero;fill:rgb(0%,0%,0%);fill-opacity:1;" d="M 4.199219 9.132812 L 4.378906 9.289062 L 4.34375 9.324219 L 4.167969 9.164062 "/>
<path style=" stroke:none;fill-rule:nonzero;fill:rgb(0%,0%,0%);fill-opacity:1;" d="M 4.859375 9.148438 L 4.683594 9.324219 L 4.648438 9.289062 L 4.824219 9.113281 "/>
<path style=" stroke:none;fill-rule:nonzero;fill:rgb(0%,0%,0%);fill-opacity:1;" d="M 4.523438 9.132812 L 4.699219 9.289062 L 4.667969 9.324219 L 4.488281 9.164062 "/>
<path style=" stroke:none;fill-rule:nonzero;fill:rgb(0%,0%,0%);fill-opacity:1;" d="M 5.117188 9.210938 L 5.003906 9.324219 L 4.96875 9.289062 L 5.082031 9.175781 "/>
<path style=" stroke:none;fill-rule:nonzero;fill:rgb(0%,0%,0%);fill-opacity:1;" d="M 4.84375 9.132812 L 5.019531 9.304688 L 4.988281 9.339844 L 4.808594 9.164062 "/>
<path style=" stroke:none;fill-rule:nonzero;fill:rgb(0%,0%,0%);fill-opacity:1;" d="M 4.21875 8.90625 L 4.039062 9.078125 L 4.007812 9.046875 L 4.183594 8.871094 "/>
<path style=" stroke:none;fill-rule:nonzero;fill:rgb(0%,0%,0%);fill-opacity:1;" d="M 3.878906 8.890625 L 4.058594 9.0625 L 4.023438 9.097656 L 3.847656 8.921875 "/>
<path style=" stroke:none;fill-rule:nonzero;fill:rgb(0%,0%,0%);fill-opacity:1;" d="M 3.898438 8.90625 L 3.71875 9.078125 L 3.6875 9.046875 L 3.863281 8.871094 "/>
<path style=" stroke:none;fill-rule:nonzero;fill:rgb(0%,0%,0%);fill-opacity:1;" d="M 3.558594 8.890625 L 3.738281 9.0625 L 3.703125 9.097656 L 3.527344 8.921875 "/>
<path style=" stroke:none;fill-rule:nonzero;fill:rgb(0%,0%,0%);fill-opacity:1;" d="M 4.539062 8.90625 L 4.359375 9.078125 L 4.328125 9.046875 L 4.503906 8.871094 "/>
<path style=" stroke:none;fill-rule:nonzero;fill:rgb(0%,0%,0%);fill-opacity:1;" d="M 4.199219 8.890625 L 4.378906 9.0625 L 4.34375 9.097656 L 4.167969 8.921875 "/>
<path style=" stroke:none;fill-rule:nonzero;fill:rgb(0%,0%,0%);fill-opacity:1;" d="M 4.859375 8.90625 L 4.683594 9.078125 L 4.648438 9.046875 L 4.824219 8.871094 "/>
<path style=" stroke:none;fill-rule:nonzero;fill:rgb(0%,0%,0%);fill-opacity:1;" d="M 4.523438 8.890625 L 4.699219 9.0625 L 4.667969 9.097656 L 4.488281 8.921875 "/>
<path style=" stroke:none;fill-rule:nonzero;fill:rgb(0%,0%,0%);fill-opacity:1;" d="M 5.152344 8.933594 L 5.003906 9.078125 L 4.96875 9.046875 L 5.117188 8.898438 "/>
<path style=" stroke:none;fill-rule:nonzero;fill:rgb(0%,0%,0%);fill-opacity:1;" d="M 4.84375 8.890625 L 5.019531 9.0625 L 4.988281 9.097656 L 4.808594 8.921875 "/>
<path style=" stroke:none;fill-rule:nonzero;fill:rgb(0%,0%,0%);fill-opacity:1;" d="M 3.394531 5.882812 L 3.183594 5.894531 L 3.183594 5.84375 L 3.390625 5.832031 "/>
<path style=" stroke:none;fill-rule:nonzero;fill:rgb(0%,0%,0%);fill-opacity:1;" d="M 3.523438 8.042969 L 3.503906 8 Z M 3.503906 8 L 3.515625 8.023438 Z M 3.527344 8.042969 C 1.304688 8.023438 -0.480469 6.207031 -0.460938 3.984375 C -0.441406 1.765625 1.375 -0.0195312 3.597656 0 L 3.566406 -0.0390625 C 3.320312 -0.382812 3.394531 -0.863281 3.734375 -1.117188 C 4.078125 -1.371094 4.558594 -1.304688 4.820312 -0.964844 C 5.078125 -0.628906 5.015625 -0.144531 4.683594 0.117188 C 4.351562 0.382812 3.867188 0.328125 3.597656 0 Z M 3.414062 8.113281 C 1.171875 8.089844 -0.625 6.253906 -0.601562 4.011719 C -0.574219 1.773438 1.261719 -0.0234375 3.5 0 L 3.464844 -0.03125 C 3.164062 -0.320312 3.152344 -0.796875 3.433594 -1.101562 C 3.71875 -1.40625 4.195312 -1.425781 4.503906 -1.148438 C 4.8125 -0.871094 4.839844 -0.394531 4.566406 -0.0820312 C 4.292969 0.230469 3.820312 0.269531 3.5 0 Z M 3.316406 8.203125 C 1.050781 8.03125 -0.644531 6.054688 -0.472656 3.789062 C -0.300781 1.523438 1.675781 -0.171875 3.941406 0 L 3.894531 0.0117188 C 3.488281 0.0859375 3.097656 -0.179688 3.015625 -0.585938 C 2.9375 -0.988281 3.195312 -1.382812 3.597656 -1.472656 C 4 -1.558594 4.398438 -1.308594 4.492188 -0.90625 C 4.585938 -0.503906 4.34375 -0.101562 3.941406 0 "/>
<path style=" stroke:none;fill-rule:nonzero;fill:rgb(0%,0%,0%);fill-opacity:1;" d="M 3.5625 8.4375 L 3.558594 8.4375 L 3.539062 8.394531 Z M 3.539062 8.394531 L 3.546875 8.417969 Z M 3.558594 8.4375 C 1.230469 8.429688 -0.652344 6.53125 -0.644531 4.203125 C -0.632812 1.871094 1.261719 -0.0078125 3.59375 0 L 3.566406 -0.0390625 C 3.433594 -0.242188 3.488281 -0.515625 3.6875 -0.65625 C 3.886719 -0.792969 4.160156 -0.746094 4.304688 -0.550781 C 4.449219 -0.351562 4.410156 -0.078125 4.21875 0.0703125 C 4.023438 0.222656 3.746094 0.1875 3.59375 0 Z M 3.5 8.472656 C 1.160156 8.460938 -0.726562 6.554688 -0.714844 4.214844 C -0.703125 1.875 1.203125 -0.0117188 3.542969 0 L 3.511719 -0.0351562 C 3.347656 -0.210938 3.359375 -0.484375 3.53125 -0.652344 C 3.703125 -0.816406 3.976562 -0.816406 4.148438 -0.648438 C 4.320312 -0.480469 4.324219 -0.203125 4.160156 -0.03125 C 3.996094 0.144531 3.722656 0.160156 3.542969 0 Z M 3.449219 8.515625 C 1.097656 8.429688 -0.738281 6.453125 -0.652344 4.101562 C -0.566406 1.75 1.410156 -0.0859375 3.761719 0 L 3.714844 0 C 3.464844 -0.00390625 3.261719 -0.207031 3.261719 -0.460938 C 3.257812 -0.710938 3.457031 -0.917969 3.710938 -0.925781 C 3.960938 -0.933594 4.171875 -0.742188 4.1875 -0.488281 C 4.203125 -0.238281 4.015625 -0.0195312 3.761719 0 "/>
<path style=" stroke:none;fill-rule:nonzero;fill:rgb(0%,0%,0%);fill-opacity:1;" d="M 3 8.605469 L 2.953125 8.601562 Z M 2.953125 8.617188 L 3 8.605469 L 2.953125 8.601562 Z M 3 8.605469 C 3.003906 8.617188 3.007812 8.628906 3.011719 8.636719 L 2.96875 8.65625 C 2.960938 8.644531 2.957031 8.628906 2.953125 8.617188 Z M 3.011719 8.636719 C 3.015625 8.648438 3.019531 8.660156 3.027344 8.671875 L 2.984375 8.691406 C 0.582031 8.703125 -1.371094 6.765625 -1.382812 4.363281 C -1.390625 1.964844 0.546875 0.0117188 2.945312 0 Z M 3.027344 8.671875 C 0.632812 8.695312 -1.328125 6.769531 -1.347656 4.375 C -1.371094 1.980469 0.550781 0.0234375 2.945312 0 L 2.917969 0.0390625 C 3.136719 0.132812 3.25 0.382812 3.175781 0.609375 C 3.097656 0.839844 2.859375 0.972656 2.625 0.917969 C 2.390625 0.863281 2.238281 0.636719 2.269531 0.398438 C 2.304688 0.160156 2.515625 -0.0117188 2.757812 0 "/>
<path style=" stroke:none;fill-rule:nonzero;fill:rgb(0%,0%,0%);fill-opacity:1;" d="M 3 8.621094 L 2.945312 8.746094 L 2.898438 8.726562 L 2.953125 8.601562 "/>
<path style=" stroke:none;fill-rule:nonzero;fill:rgb(0%,0%,0%);fill-opacity:1;" d="M 3.101562 8.839844 L 3.105469 8.820312 L 3.148438 8.84375 Z M 3.148438 8.84375 L 3.105469 8.820312 Z M 3.105469 8.820312 C 3.113281 8.808594 3.117188 8.800781 3.121094 8.789062 L 3.164062 8.808594 L 3.148438 8.84375 Z M 3.121094 8.789062 L 3.140625 8.753906 L 3.183594 8.773438 C 3.175781 8.789062 3.171875 8.800781 3.164062 8.808594 Z M 3.140625 8.753906 C 0.722656 7.1875 0.03125 3.960938 1.597656 1.542969 C 3.164062 -0.875 6.390625 -1.566406 8.808594 0 L 8.855469 0.015625 C 8.074219 0.0234375 7.425781 -0.589844 7.394531 -1.367188 C 7.359375 -2.148438 7.949219 -2.8125 8.726562 -2.875 C 9.507812 -2.933594 10.191406 -2.363281 10.273438 -1.585938 C 10.359375 -0.8125 9.8125 -0.109375 9.039062 0 "/>
<path style=" stroke:none;fill-rule:nonzero;fill:rgb(0%,0%,0%);fill-opacity:1;" d="M 3.285156 8.832031 L 3.332031 8.820312 Z M 3.332031 8.820312 L 3.308594 8.824219 Z M 3.285156 8.832031 C 3.285156 8.816406 3.28125 8.804688 3.277344 8.796875 L 3.324219 8.785156 C 3.328125 8.796875 3.332031 8.808594 3.332031 8.820312 Z M 3.277344 8.796875 C 3.277344 8.785156 3.273438 8.777344 3.269531 8.761719 L 3.316406 8.75 C 3.316406 8.757812 3.320312 8.769531 3.324219 8.785156 Z M 3.316406 8.75 L 3.292969 8.757812 L 3.3125 8.75 Z M 3.269531 8.761719 C 0.847656 8.808594 -1.148438 6.886719 -1.195312 4.464844 C -1.242188 2.046875 0.679688 0.046875 3.101562 0 L 3.101562 -0.015625 L 3.144531 -0.0195312 C 3.84375 -0.304688 4.644531 0.0234375 4.9375 0.71875 C 5.230469 1.414062 4.90625 2.21875 4.214844 2.515625 C 3.519531 2.816406 2.714844 2.5 2.410156 1.808594 C 2.105469 1.121094 2.414062 0.3125 3.101562 0 "/>
<path style=" stroke:none;fill-rule:nonzero;fill:rgb(0%,0%,0%);fill-opacity:1;" d="M 3.503906 9.691406 L 3.433594 9.335938 L 3.480469 9.328125 L 3.550781 9.683594 "/>
<path style=" stroke:none;fill-rule:nonzero;fill:rgb(0%,0%,0%);fill-opacity:1;" d="M 3.4375 9.34375 L 3.273438 8.867188 L 3.320312 8.851562 L 3.480469 9.328125 "/>
<path style=" stroke:none;fill-rule:nonzero;fill:rgb(0%,0%,0%);fill-opacity:1;" d="M 3.578125 9.148438 L 3.449219 9.273438 L 3.414062 9.238281 L 3.542969 9.113281 "/>
<path style=" stroke:none;fill-rule:nonzero;fill:rgb(0%,0%,0%);fill-opacity:1;" d="M 3.578125 8.90625 L 3.386719 9.09375 L 3.351562 9.058594 L 3.542969 8.871094 "/>
</g>
</svg>
