<svg xmlns="http://www.w3.org/2000/svg" xmlns:xlink="http://www.w3.org/1999/xlink" id="flag-icons-zw" viewBox="0 0 24 18" width="24" height="16"><defs><clipPath id="zw-a"><path width="546" height="420.1" x="1.9" y=".1" fill="#00f" fill-rule="evenodd" ry="0" d="M0.071 0.004H20.546V15.758H0.071V0.004z"/></clipPath></defs><g clip-path="url(#zw-a)" transform="matrix(1.1722 0 0 1.1426 -2.3 -.1)"><path fill="#006400" d="M0 0h31.5v15.75H0z"/><path fill="#ffd200" d="M0 2.25h31.5v11.25H0z"/><path fill="#d40000" d="M0 4.5h31.5v6.75H0z"/><path fill="#000001" d="M0 6.75h31.5v2.25H0z"/><path stroke="#000" stroke-width="0.75" d="M0 0v15.75l10.5 -7.875z"/><path fill="#fff" d="M0 0v15.75l10.5 -7.875z"/><path fill="#d40000" d="M3.994 3.915 6.075 10.316 0.63 6.36h6.731L1.912 10.316z"/><path fill="#fc0" d="m3.105 9.514 0.367 -0.068 0.679 -0.026 0.251 0.022 0.563 0.094 0.041 -0.056V9.075l0.068 -0.349 0.112 -0.352 0.124 -0.281 0.158 -0.292 0.255 0.064h0.068l0.007 -0.049 -0.54 -0.461 -0.563 -0.431 -0.814 -0.607 -0.075 -0.019 -0.086 -0.637 -0.064 -0.191 -0.086 -0.075 -0.161 -0.052 -0.18 0.007 -0.083 0.045 -0.172 0.037 -0.09 0.015 -0.06 0.071 -0.007 0.09 0.251 0.007 0.064 0.026 -0.007 0.026 -0.142 0.019 -0.068 0.022 0.079 0.06 0.083 0.03 0.105 0.037 0.022 0.075 0.007 0.968 -0.056 0.15 -0.019 0.281 0.083 0.337 -0.21 0.24L2.887 8.1l-0.022 0.131 -0.064 0.131 -0.007 0.083 0.041 0.09 0.161 0.532 0.083 0.439z"/><path d="M3.3 5.325c-0.068 0 -0.098 0.007 -0.161 0.041a0.405 0.405 0 0 1 -0.172 0.052c-0.094 0 -0.169 0.068 -0.169 0.154v0.056l0.135 -0.004c0.397 0.011 0.037 0.049 0.007 0.052 -0.098 0.019 0.022 0.098 0.139 0.139 0.124 0.037 0.116 0.015 0.116 0.563 0 0.446 0 0.51 -0.037 0.611 -0.049 0.15 -0.049 0.375 0 0.525 0.022 0.06 0.037 0.112 0.037 0.124 0 0.007 -0.06 0.079 -0.131 0.161 -0.131 0.15 -0.21 0.304 -0.21 0.412a0.225 0.225 0 0 1 -0.037 0.098c-0.049 0.064 -0.049 0.172 -0.004 0.214 0.049 0.045 0.247 0.818 0.251 0.964 0 0.052 0.007 0.052 0.311 -0.007 0.247 -0.049 0.829 -0.06 1.125 -0.022 0.135 0.019 0.292 0.049 0.349 0.06 0.18 0.049 0.172 0.056 0.172 -0.161a2.775 2.775 0 0 1 0.191 -1.001 3.551 3.551 0 0 1 0.259 -0.525s0.068 0.007 0.15 0.03c0.154 0.037 0.199 0.034 0.199 -0.037 0 -0.037 -0.161 -0.172 -0.952 -0.787a16.2 16.2 0 0 0 -0.986 -0.746c-0.022 0 -0.045 -0.011 -0.049 -0.026l-0.056 -0.356c-0.026 -0.184 -0.064 -0.364 -0.079 -0.401 -0.052 -0.112 -0.154 -0.169 -0.322 -0.18a1.162 1.162 0 0 0 -0.075 0m0.004 0.037h0.075c0.247 0.015 0.292 0.083 0.36 0.525a6.487 6.487 0 0 1 0.045 0.352c0 0.03 -0.034 0.068 -0.12 0.124a1.755 1.755 0 0 0 -0.375 0.356l-0.049 0.068 -0.011 -0.158V6.188c0.011 -0.326 0 -0.356 -0.105 -0.394 -0.086 -0.03 -0.199 -0.06 -0.169 -0.079 0.037 -0.022 0.075 -0.007 0.165 -0.034 0.037 -0.007 0.034 -0.004 0.026 -0.034 -0.007 -0.049 -0.06 -0.075 -0.199 -0.068 -0.112 0.007 -0.124 0.004 -0.116 -0.026 0.015 -0.06 0.075 -0.098 0.169 -0.109a0.502 0.502 0 0 0 0.165 -0.049 0.263 0.263 0 0 1 0.139 -0.037zm0.559 0.968h0.015c0.064 0.011 1.905 1.451 1.905 1.492 0 0.015 -0.015 0.026 -0.037 0.026 -0.015 0 -0.484 -0.131 -1.039 -0.292 -0.885 -0.263 -1.012 -0.3 -1.05 -0.349a0.191 0.191 0 0 1 -0.004 -0.232 0.188 0.188 0 0 0 0.037 -0.075c0 -0.045 -0.094 0.068 -0.112 0.131 -0.019 0.075 0.019 0.203 0.075 0.244 0.022 0.019 0.191 0.075 0.375 0.131 0.315 0.09 0.337 0.101 0.352 0.154 0.037 0.124 -0.094 0.27 -0.281 0.311a0.547 0.547 0 0 0 -0.195 0.09 2.558 2.558 0 0 1 -0.645 0.39c-0.015 0.011 -0.034 0.071 -0.045 0.128 -0.022 0.124 -0.03 0.142 -0.068 0.142 -0.019 0 -0.022 -0.011 -0.007 -0.052 0.026 -0.075 0.022 -0.165 -0.004 -0.165 -0.019 0 -0.026 0.026 -0.026 0.068 0 0.037 -0.011 0.083 -0.026 0.094 -0.019 0.022 -0.022 0.007 -0.015 -0.086 0.007 -0.064 0.004 -0.112 -0.004 -0.112 -0.019 0 -0.052 0.094 -0.064 0.176 -0.007 0.049 -0.007 0.049 -0.022 -0.011 -0.011 -0.045 -0.007 -0.075 0.026 -0.131a0.337 0.337 0 0 0 0.037 -0.131c0 -0.049 0.037 -0.098 0.214 -0.274 0.112 -0.116 0.251 -0.263 0.3 -0.326 0.086 -0.105 0.09 -0.112 0.086 -0.221 0 -0.06 -0.007 -0.116 -0.015 -0.124 -0.022 -0.022 -0.052 0.098 -0.037 0.161 0.007 0.06 0 0.079 -0.124 0.225a4.237 4.237 0 0 1 -0.281 0.292c-0.146 0.135 -0.199 0.21 -0.199 0.278 0 0.022 -0.015 0.075 -0.037 0.124s-0.03 0.098 -0.022 0.109 0 0.011 -0.011 0c-0.019 -0.019 -0.019 -0.049 -0.004 -0.112a0.263 0.263 0 0 0 0.007 -0.098c-0.019 -0.037 -0.045 0.007 -0.056 0.101 -0.007 0.052 -0.019 0.094 -0.03 0.086 -0.026 -0.015 -0.019 -0.112 0.015 -0.165 0.019 -0.026 0.037 -0.086 0.049 -0.135 0.026 -0.139 0.086 -0.251 0.217 -0.401a2.175 2.175 0 0 0 0.12 -0.142l-0.037 -0.124a0.938 0.938 0 0 1 -0.007 -0.514c0.049 -0.142 0.146 -0.285 0.3 -0.439 0.15 -0.146 0.296 -0.236 0.375 -0.24m0.563 1.208a0.034 0.022 0 0 1 0.037 0.022 0.034 0.022 0 0 1 -0.064 0 0.034 0.022 0 0 1 0.026 -0.022m0.094 0.011a0.034 0.022 0 0 1 0.037 0.022 0.034 0.022 0 0 1 -0.064 0 0.034 0.022 0 0 1 0.026 -0.022m0.098 0.019a0.034 0.022 0 0 1 0.037 0.022 0.034 0.022 0 0 1 -0.064 0 0.034 0.022 0 0 1 0.026 -0.022m0.09 0.019a0.034 0.022 0 0 1 0.037 0.022 0.034 0.022 0 0 1 -0.064 0 0.034 0.022 0 0 1 0.026 -0.022m-0.236 0.022a0.034 0.022 0 0 1 0.037 0.022 0.034 0.022 0 0 1 -0.064 0 0.034 0.022 0 0 1 0.026 -0.022m0.09 0.015a0.034 0.022 0 0 1 0.037 0.022 0.034 0.022 0 0 1 -0.064 0 0.034 0.022 0 0 1 0.026 -0.022m0.195 0.007a0.034 0.022 0 0 1 0.037 0.022 0.034 0.022 0 0 1 -0.064 0 0.034 0.022 0 0 1 0.026 -0.022m-0.101 0a0.034 0.022 0 0 1 0.037 0.022 0.034 0.022 0 0 1 -0.064 0 0.034 0.022 0 0 1 0.026 -0.022m0.188 0.022c0.004 0 0.139 0.03 0.3 0.075l0.296 0.086 -0.056 0.101a3.6 3.6 0 0 0 -0.09 0.165c-0.037 0.075 -0.045 0.075 -0.225 0.034 -0.195 -0.045 -0.502 -0.086 -0.818 -0.112l-0.3 -0.026 0.112 -0.041a1.875 1.875 0 0 0 0.199 -0.09c0.075 -0.041 0.105 -0.049 0.221 -0.037 0.169 0.011 0.281 -0.022 0.326 -0.09l0.037 -0.064zm-0.33 0.022a0.034 0.022 0 0 1 0.037 0.022 0.034 0.022 0 0 1 -0.064 0 0.034 0.022 0 0 1 0.026 -0.022m0.21 0a0.034 0.022 0 0 1 0.037 0.022 0.034 0.022 0 0 1 -0.06 0 0.034 0.022 0 0 1 0.026 -0.022zm-0.3 0a0.034 0.022 0 0 1 0.037 0.022 0.034 0.022 0 0 1 -0.064 0 0.034 0.022 0 0 1 0.026 -0.019zm0.199 0.007a0.034 0.022 0 0 1 0.037 0.019 0.034 0.022 0 0 1 -0.064 0 0.034 0.022 0 0 1 0.026 -0.019m-0.247 0.041a0.034 0.022 0 0 1 0.037 0.022 0.034 0.022 0 0 1 -0.064 0 0.034 0.022 0 0 1 0.026 -0.022m0.094 0a0.034 0.022 0 0 1 0.037 0.026 0.034 0.022 0 0 1 -0.064 0 0.034 0.022 0 0 1 0.026 -0.022zm0.098 0.007a0.034 0.022 0 0 1 0.037 0.019 0.034 0.022 0 0 1 -0.064 0 0.034 0.022 0 0 1 0.026 -0.019m0.105 0a0.034 0.022 0 0 1 0.037 0.022 0.034 0.022 0 0 1 -0.064 0 0.034 0.022 0 0 1 0.026 -0.022m-0.761 0.304a7.162 7.162 0 0 1 1.316 0.158c0.004 0.004 -0.022 0.094 -0.064 0.203l-0.075 0.225c-0.004 0.019 -0.03 0.019 -0.094 0.011 -0.311 -0.049 -1.211 -0.045 -1.556 0.007 -0.199 0.03 -0.225 0.026 -0.21 -0.015l0.037 -0.131 0.022 -0.101L3.487 8.287a2.377 2.377 0 0 0 0.382 -0.244h0.034zm-1.012 0.532c0.011 0 0.034 0.011 0.06 0.03 0.037 0.022 0.083 0.041 0.101 0.041 0.098 0 0.15 0.139 0.232 0.6l0.03 0.165c0.007 0.037 0 0.045 -0.086 0.064 -0.105 0.022 -0.131 0.026 -0.131 0.011 0 -0.037 -0.105 -0.514 -0.15 -0.682a3.637 3.637 0 0 1 -0.06 -0.225 0.004 0.004 0 0 1 0.004 0zm1.073 0.075h0.109l-0.037 0.037c-0.064 0.075 -0.094 0.079 -0.139 0.03a0.188 0.188 0 0 1 -0.037 -0.056c0 -0.007 0.049 -0.015 0.105 -0.015zm0.229 0h0.203l-0.045 0.045c-0.052 0.06 -0.056 0.06 -0.112 0l-0.045 -0.049zm0.307 0h0.049c0.026 0 0.075 0 0.105 0.007l0.056 0.011 -0.052 0.049c-0.03 0.026 -0.056 0.049 -0.06 0.045l-0.052 -0.06zm0.319 0.011 0.045 0.011c0.026 0.007 0.083 0.011 0.124 0.015h0.075l-0.056 0.049a0.337 0.337 0 0 1 -0.068 0.049c-0.004 0 -0.037 -0.03 -0.064 -0.064zm-1.132 0.004h0.007c0.004 0.007 -0.011 0.037 -0.037 0.064l-0.037 0.052 -0.056 -0.045 -0.056 -0.049 0.09 -0.011zm0.086 0.007 0.06 0.052 0.06 0.056 -0.112 0.007 -0.112 0.004 0.052 -0.056zm0.675 0c0.011 0 0.019 0.004 0.03 0.011a0.247 0.247 0 0 1 0.049 0.064c0.015 0.03 0.011 0.037 -0.037 0.037l-0.094 -0.019 -0.045 -0.011 0.049 -0.049c0.022 -0.022 0.037 -0.037 0.052 -0.037zm-0.311 0c0.019 0 0.037 0.011 0.06 0.049 0.026 0.041 0.026 0.041 -0.075 0.041h-0.101l0.052 -0.049c0.026 -0.026 0.049 -0.037 0.064 -0.037zm0.637 0.007 0.045 0.045c0.052 0.049 0.06 0.079 0.022 0.075l-0.105 -0.011 -0.083 -0.007 0.06 -0.049zm-1.32 0.026c0.007 0 0.037 0.019 0.06 0.045l0.045 0.049 -0.094 0.015 -0.131 0.019c-0.026 0.007 -0.019 -0.011 0.037 -0.06 0.037 -0.037 0.075 -0.068 0.083 -0.068m-0.139 0h0.015c0.03 0.007 0.03 0.015 -0.022 0.068l-0.056 0.056 -0.019 -0.049c-0.015 -0.037 -0.011 -0.049 0.022 -0.064a0.18 0.18 0 0 1 0.06 -0.011m1.725 0.068q0.011 0 0 0.022c-0.007 0.03 -0.041 0.037 -0.041 0.007 0 -0.007 0.011 -0.019 0.026 -0.026zm-0.802 0.06c0.289 0 0.581 0.007 0.652 0.015 0.116 0.015 0.128 0.019 0.128 0.064 0 0.052 -0.015 0.056 -0.172 0.03 -0.045 -0.011 -0.236 -0.026 -0.42 -0.041a5.61 5.61 0 0 0 -1.069 0.037c-0.071 0.007 -0.09 0 -0.09 -0.022 0 -0.049 0.382 -0.083 0.971 -0.083m-0.386 0.109h0.203l-0.045 0.049c-0.056 0.06 -0.06 0.06 -0.112 0zm0.263 0 0.052 0.052 0.052 0.06 -0.109 0.004h-0.109l0.056 -0.06zm0.079 0h0.203l-0.045 0.049c-0.052 0.06 -0.056 0.06 -0.112 0zm-0.48 0c0.007 0 0 0.019 -0.026 0.056 -0.026 0.034 -0.052 0.06 -0.056 0.06 -0.007 0 -0.034 -0.022 -0.056 -0.049l-0.045 -0.049H3.6a0.337 0.337 0 0 0 0.101 -0.015 0.037 0.037 0 0 1 0.015 0zm0.075 0.019 0.049 0.045 0.056 0.049 -0.098 0.007 -0.109 0.007 0.052 -0.056zm0.652 0 0.052 0.06c0.06 0.064 0.056 0.068 -0.079 0.041l-0.064 -0.011 0.045 -0.045zm0.075 0h0.09c0.098 0 0.109 0.015 0.052 0.068 -0.045 0.037 -0.045 0.037 -0.098 -0.019zm-1.147 0.019c0.045 0 0.041 0.004 -0.015 0.06 -0.041 0.041 -0.045 0.041 -0.06 0.011 -0.011 -0.037 0.022 -0.068 0.075 -0.071m1.455 0.007c0.015 0 0.045 0 0.075 0.007l0.086 0.015 -0.049 0.045 -0.045 0.045 -0.041 -0.052 -0.037 -0.06zm-1.35 0.019c0.011 0 0.022 0.007 0.041 0.026 0.037 0.037 0.037 0.037 0.007 0.052a0.3 0.3 0 0 1 -0.09 0.015H3.375l0.049 -0.052c0.026 -0.026 0.037 -0.037 0.049 -0.041zm1.279 0.011c0.015 0 0.026 0.007 0.045 0.037l0.034 0.045h-0.079c-0.052 0 -0.075 -0.007 -0.075 -0.022 0.007 -0.015 0.026 -0.037 0.049 -0.049zm0.24 0.049c0.007 0 0.007 0.007 0.007 0.019 0 0.037 -0.034 0.064 -0.049 0.037 -0.004 -0.011 0.004 -0.03 0.019 -0.041zm-0.971 0.045c0.326 0 0.686 0.022 0.9 0.06l0.06 0.011v0.165c0 0.124 -0.007 0.165 -0.026 0.165l-0.188 -0.037a4.725 4.725 0 0 0 -1.313 -0.037l-0.086 0.011 -0.022 -0.139a0.787 0.787 0 0 1 -0.015 -0.142s0.086 -0.019 0.188 -0.03c0.124 -0.019 0.307 -0.026 0.502 -0.026"/><path id="zw-b" d="M4.68 8.168c-0.112 0 -0.191 0.079 -0.191 0.195 0 0.18 0.203 0.27 0.322 0.142s0.037 -0.337 -0.131 -0.337m0 0.045a0.15 0.15 0 0 1 0.15 0.15c0 0.112 -0.124 0.188 -0.225 0.139 -0.101 -0.056 -0.094 -0.229 0.015 -0.274a0.161 0.161 0 0 1 0.056 -0.015z"/><use xlink:href="#zw-b" width="100%" height="100%" x="-20.1" y="-.6"/><path d="M3.3 5.449a0.064 0.068 0 0 0 -0.06 0.064 0.064 0.068 0 1 0 0.131 0 0.064 0.068 0 0 0 -0.071 -0.064m0.004 0.022a0.045 0.041 0 0 1 0.045 0.041 0.045 0.041 0 1 1 -0.09 0 0.045 0.041 0 0 1 0.045 -0.041"/></g></svg>